{
    "asset" : {
        "generator" : "Khronos glTF Blender I/O v1.7.33",
        "version" : "2.0"
    },
    "scene" : 0,
    "scenes" : [
        {
            "name" : "Scene",
            "nodes" : [
                10
            ]
        }
    ],
    "nodes" : [
        {
            "mesh" : 0,
            "name" : "Object_10.001"
        },
        {
            "mesh" : 1,
            "name" : "Object_4.001"
        },
        {
            "mesh" : 2,
            "name" : "Object_5.001"
        },
        {
            "mesh" : 3,
            "name" : "Object_6.001"
        },
        {
            "mesh" : 4,
            "name" : "Object_7.001"
        },
        {
            "mesh" : 5,
            "name" : "Object_8.001"
        },
        {
            "mesh" : 6,
            "name" : "Object_9"
        },
        {
            "children" : [
                0,
                1,
                2,
                3,
                4,
                5,
                6
            ],
            "name" : "Cube_0",
            "scale" : [
                1.4100334644317627,
                1.5435184240341187,
                1.5435184240341187
            ],
            "translation" : [
                0,
                0.7606830596923828,
                0.046129535883665085
            ]
        },
        {
            "children" : [
                7
            ],
            "name" : "GLTF_SceneRootNode.001",
            "rotation" : [
                0.7071068286895752,
                0,
                0,
                0.7071068286895752
            ]
        },
        {
            "children" : [
                8
            ],
            "name" : "root.001"
        },
        {
            "children" : [
                9
            ],
            "name" : "Sketchfab_model.002",
            "rotation" : [
                -0.5062681436538696,
                -0.4936523735523224,
                -0.4936523735523224,
                0.5062681436538696
            ],
            "scale" : [
                0.26292482018470764,
                0.26292482018470764,
                0.26292484998703003
            ],
            "translation" : [
                3.783496618270874,
                0,
                4.401559352874756
            ]
        }
    ],
    "materials" : [
        {
            "doubleSided" : true,
            "name" : "Smokestacks",
            "pbrMetallicRoughness" : {
                "baseColorFactor" : [
                    0.05582379922270775,
                    0.05582379922270775,
                    0.05582379922270775,
                    1
                ],
                "metallicFactor" : 0.75,
                "roughnessFactor" : 0.5
            }
        },
        {
            "doubleSided" : true,
            "name" : "Paint",
            "pbrMetallicRoughness" : {
                "baseColorFactor" : [
                    0.800000011920929,
                    0.007402460090816021,
                    0.005723420064896345,
                    1
                ],
                "metallicFactor" : 0,
                "roughnessFactor" : 0.4000000059604645
            }
        },
        {
            "doubleSided" : true,
            "emissiveFactor" : [
                1,
                1,
                1
            ],
            "name" : "Headlight",
            "pbrMetallicRoughness" : {}
        },
        {
            "doubleSided" : true,
            "emissiveFactor" : [
                1,
                0.030561299994587898,
                0.04229480028152466
            ],
            "name" : "Taillight",
            "pbrMetallicRoughness" : {}
        },
        {
            "doubleSided" : true,
            "name" : "Tire_and_Dark_Details",
            "pbrMetallicRoughness" : {
                "baseColorFactor" : [
                    0.002482929965481162,
                    0.002482929965481162,
                    0.002482929965481162,
                    1
                ],
                "metallicFactor" : 0,
                "roughnessFactor" : 0.75
            }
        },
        {
            "doubleSided" : true,
            "name" : "Rims_and_Silver_Details",
            "pbrMetallicRoughness" : {
                "baseColorFactor" : [
                    0.30498000979423523,
                    0.30498000979423523,
                    0.30498000979423523,
                    1
                ],
                "metallicFactor" : 0.75,
                "roughnessFactor" : 0.30000001192092896
            }
        },
        {
            "doubleSided" : true,
            "name" : "Windshield",
            "pbrMetallicRoughness" : {
                "baseColorFactor" : [
                    0.0012411000207066536,
                    0.0012411000207066536,
                    0.0012411000207066536,
                    1
                ],
                "metallicFactor" : 0,
                "roughnessFactor" : 0.25
            }
        }
    ],
    "meshes" : [
        {
            "name" : "Object_6.002",
            "primitives" : [
                {
                    "attributes" : {
                        "POSITION" : 0,
                        "NORMAL" : 1,
                        "TEXCOORD_0" : 2
                    },
                    "indices" : 3,
                    "material" : 0
                }
            ]
        },
        {
            "name" : "Object_0.002",
            "primitives" : [
                {
                    "attributes" : {
                        "POSITION" : 4,
                        "NORMAL" : 5,
                        "TEXCOORD_0" : 6
                    },
                    "indices" : 7,
                    "material" : 1
                }
            ]
        },
        {
            "name" : "Object_1.002",
            "primitives" : [
                {
                    "attributes" : {
                        "POSITION" : 8,
                        "NORMAL" : 9,
                        "TEXCOORD_0" : 10
                    },
                    "indices" : 11,
                    "material" : 2
                }
            ]
        },
        {
            "name" : "Object_2.002",
            "primitives" : [
                {
                    "attributes" : {
                        "POSITION" : 12,
                        "NORMAL" : 13,
                        "TEXCOORD_0" : 14
                    },
                    "indices" : 15,
                    "material" : 3
                }
            ]
        },
        {
            "name" : "Object_3.002",
            "primitives" : [
                {
                    "attributes" : {
                        "POSITION" : 16,
                        "NORMAL" : 17,
                        "TEXCOORD_0" : 18
                    },
                    "indices" : 19,
                    "material" : 4
                }
            ]
        },
        {
            "name" : "Object_4.002",
            "primitives" : [
                {
                    "attributes" : {
                        "POSITION" : 20,
                        "NORMAL" : 21,
                        "TEXCOORD_0" : 22
                    },
                    "indices" : 23,
                    "material" : 5
                }
            ]
        },
        {
            "name" : "Object_5.002",
            "primitives" : [
                {
                    "attributes" : {
                        "POSITION" : 24,
                        "NORMAL" : 25,
                        "TEXCOORD_0" : 26
                    },
                    "indices" : 27,
                    "material" : 6
                }
            ]
        }
    ],
    "accessors" : [
        {
            "bufferView" : 0,
            "componentType" : 5126,
            "count" : 390,
            "max" : [
                0.21846559643745422,
                0.3028101325035095,
                -0.5642789602279663
            ],
            "min" : [
                -0.21846559643745422,
                0.14684252440929413,
                -0.8460098505020142
            ],
            "type" : "VEC3"
        },
        {
            "bufferView" : 1,
            "componentType" : 5126,
            "count" : 390,
            "type" : "VEC3"
        },
        {
            "bufferView" : 2,
            "componentType" : 5126,
            "count" : 390,
            "type" : "VEC2"
        },
        {
            "bufferView" : 3,
            "componentType" : 5123,
            "count" : 408,
            "type" : "SCALAR"
        },
        {
            "bufferView" : 4,
            "componentType" : 5126,
            "count" : 2544,
            "max" : [
                0.8859666585922241,
                0.4758184254169464,
                1.3438000679016113
            ],
            "min" : [
                -0.8859666585922241,
                -0.32033589482307434,
                -1.4468529224395752
            ],
            "type" : "VEC3"
        },
        {
            "bufferView" : 5,
            "componentType" : 5126,
            "count" : 2544,
            "type" : "VEC3"
        },
        {
            "bufferView" : 6,
            "componentType" : 5126,
            "count" : 2544,
            "type" : "VEC2"
        },
        {
            "bufferView" : 7,
            "componentType" : 5123,
            "count" : 3156,
            "type" : "SCALAR"
        },
        {
            "bufferView" : 8,
            "componentType" : 5126,
            "count" : 227,
            "max" : [
                0.6406682729721069,
                0.03812281787395477,
                -1.3391541242599487
            ],
            "min" : [
                -0.6406682729721069,
                -0.21117323637008667,
                -1.4107708930969238
            ],
            "type" : "VEC3"
        },
        {
            "bufferView" : 9,
            "componentType" : 5126,
            "count" : 227,
            "type" : "VEC3"
        },
        {
            "bufferView" : 10,
            "componentType" : 5126,
            "count" : 227,
            "type" : "VEC2"
        },
        {
            "bufferView" : 11,
            "componentType" : 5123,
            "count" : 300,
            "type" : "SCALAR"
        },
        {
            "bufferView" : 12,
            "componentType" : 5126,
            "count" : 244,
            "max" : [
                0.5875076651573181,
                0.46675825119018555,
                1.3248741626739502
            ],
            "min" : [
                -0.5875076651573181,
                -0.15503180027008057,
                0.7823148965835571
            ],
            "type" : "VEC3"
        },
        {
            "bufferView" : 13,
            "componentType" : 5126,
            "count" : 244,
            "type" : "VEC3"
        },
        {
            "bufferView" : 14,
            "componentType" : 5126,
            "count" : 244,
            "type" : "VEC2"
        },
        {
            "bufferView" : 15,
            "componentType" : 5123,
            "count" : 258,
            "type" : "SCALAR"
        },
        {
            "bufferView" : 16,
            "componentType" : 5126,
            "count" : 5319,
            "max" : [
                0.9056735038757324,
                0.43232956528663635,
                1.375998854637146
            ],
            "min" : [
                -0.9056735038757324,
                -0.41199392080307007,
                -1.4017961025238037
            ],
            "type" : "VEC3"
        },
        {
            "bufferView" : 17,
            "componentType" : 5126,
            "count" : 5319,
            "type" : "VEC3"
        },
        {
            "bufferView" : 18,
            "componentType" : 5126,
            "count" : 5319,
            "type" : "VEC2"
        },
        {
            "bufferView" : 19,
            "componentType" : 5123,
            "count" : 6444,
            "type" : "SCALAR"
        },
        {
            "bufferView" : 20,
            "componentType" : 5126,
            "count" : 4018,
            "max" : [
                0.9127382040023804,
                0.27082207798957825,
                1.3398985862731934
            ],
            "min" : [
                -0.9127382040023804,
                -0.3701084852218628,
                -0.9609482884407043
            ],
            "type" : "VEC3"
        },
        {
            "bufferView" : 21,
            "componentType" : 5126,
            "count" : 4018,
            "type" : "VEC3"
        },
        {
            "bufferView" : 22,
            "componentType" : 5126,
            "count" : 4018,
            "type" : "VEC2"
        },
        {
            "bufferView" : 23,
            "componentType" : 5123,
            "count" : 4536,
            "type" : "SCALAR"
        },
        {
            "bufferView" : 24,
            "componentType" : 5126,
            "count" : 48,
            "max" : [
                0.5283949971199036,
                0.4054586887359619,
                0.559721052646637
            ],
            "min" : [
                -0.5283949971199036,
                0.23553073406219482,
                -0.22087784111499786
            ],
            "type" : "VEC3"
        },
        {
            "bufferView" : 25,
            "componentType" : 5126,
            "count" : 48,
            "type" : "VEC3"
        },
        {
            "bufferView" : 26,
            "componentType" : 5126,
            "count" : 48,
            "type" : "VEC2"
        },
        {
            "bufferView" : 27,
            "componentType" : 5123,
            "count" : 72,
            "type" : "SCALAR"
        }
    ],
    "bufferViews" : [
        {
            "buffer" : 0,
            "byteLength" : 4680,
            "byteOffset" : 0
        },
        {
            "buffer" : 0,
            "byteLength" : 4680,
            "byteOffset" : 4680
        },
        {
            "buffer" : 0,
            "byteLength" : 3120,
            "byteOffset" : 9360
        },
        {
            "buffer" : 0,
            "byteLength" : 816,
            "byteOffset" : 12480
        },
        {
            "buffer" : 0,
            "byteLength" : 30528,
            "byteOffset" : 13296
        },
        {
            "buffer" : 0,
            "byteLength" : 30528,
            "byteOffset" : 43824
        },
        {
            "buffer" : 0,
            "byteLength" : 20352,
            "byteOffset" : 74352
        },
        {
            "buffer" : 0,
            "byteLength" : 6312,
            "byteOffset" : 94704
        },
        {
            "buffer" : 0,
            "byteLength" : 2724,
            "byteOffset" : 101016
        },
        {
            "buffer" : 0,
            "byteLength" : 2724,
            "byteOffset" : 103740
        },
        {
            "buffer" : 0,
            "byteLength" : 1816,
            "byteOffset" : 106464
        },
        {
            "buffer" : 0,
            "byteLength" : 600,
            "byteOffset" : 108280
        },
        {
            "buffer" : 0,
            "byteLength" : 2928,
            "byteOffset" : 108880
        },
        {
            "buffer" : 0,
            "byteLength" : 2928,
            "byteOffset" : 111808
        },
        {
            "buffer" : 0,
            "byteLength" : 1952,
            "byteOffset" : 114736
        },
        {
            "buffer" : 0,
            "byteLength" : 516,
            "byteOffset" : 116688
        },
        {
            "buffer" : 0,
            "byteLength" : 63828,
            "byteOffset" : 117204
        },
        {
            "buffer" : 0,
            "byteLength" : 63828,
            "byteOffset" : 181032
        },
        {
            "buffer" : 0,
            "byteLength" : 42552,
            "byteOffset" : 244860
        },
        {
            "buffer" : 0,
            "byteLength" : 12888,
            "byteOffset" : 287412
        },
        {
            "buffer" : 0,
            "byteLength" : 48216,
            "byteOffset" : 300300
        },
        {
            "buffer" : 0,
            "byteLength" : 48216,
            "byteOffset" : 348516
        },
        {
            "buffer" : 0,
            "byteLength" : 32144,
            "byteOffset" : 396732
        },
        {
            "buffer" : 0,
            "byteLength" : 9072,
            "byteOffset" : 428876
        },
        {
            "buffer" : 0,
            "byteLength" : 576,
            "byteOffset" : 437948
        },
        {
            "buffer" : 0,
            "byteLength" : 576,
            "byteOffset" : 438524
        },
        {
            "buffer" : 0,
            "byteLength" : 384,
            "byteOffset" : 439100
        },
        {
            "buffer" : 0,
            "byteLength" : 144,
            "byteOffset" : 439484
        }
    ],
    "buffers" : [
        {
            "byteLength" : 439628,
            "uri" : "data:application/octet-stream;base64,"
        }
    ]
}
