<?xml version="1.0" encoding="UTF-8"?>
<svg width="208px" height="201px" viewBox="0 0 208 201" version="1.1" xmlns="http://www.w3.org/2000/svg" xmlns:xlink="http://www.w3.org/1999/xlink">
    <title>C796DFF9-CFBD-4B11-AD73-6BDCEBD8738F</title>
    <g id="Page-1" stroke="none" stroke-width="1" fill="none" fill-rule="evenodd">
        <g id="Portfolio_Аrtists_Inside2" transform="translate(-662.000000, -296.000000)" fill-rule="nonzero">
            <g id="Планета-кнопка" transform="translate(662.000000, 296.000000)">
                <path d="M86.9339269,10.3509943 C77.2845199,4.84204531 64.8147899,9.72339256 56.1587041,16.6270122 C47.5026184,23.5306319 40.1946116,32.5436909 29.9066409,36.780003 C23.343625,39.4821774 15.8405016,40.1097792 10.0402146,44.1368907 C0.585924248,50.6918427 -1.08143653,63.8889136 0.550448486,75.1508791 C2.1823335,86.4128445 6.20883239,97.587643 4.80753983,108.884475 C3.76100487,117.147899 -0.176804618,125.446189 1.95174105,133.517845 C4.94944287,144.814678 18.1819018,150.201593 24.6207524,160.034021 C29.2503393,167.007374 30.5097288,176.578302 37.4097643,181.529382 C45.4095485,187.264965 56.5311996,183.917756 66.4111991,184.789425 C78.5616473,185.870295 88.9560453,193.506116 100.503406,197.376327 C119.396849,203.43443 140.142265,199.180024 154.994175,186.201529 C162.319919,179.646577 167.729973,171.243686 174.931553,164.566701 C181.104335,158.831118 188.589721,154.368172 193.645017,147.673752 C198.700313,140.979333 200.740169,133.151744 202.815501,125.341589 C205.884154,113.940156 208.952808,102.068022 206.717835,90.4748227 C203.170258,71.9780033 187.099739,58.5019983 178.745197,41.55675 C175.481427,34.8971976 173.086813,27.4008429 167.126885,23.0947973 C160.72351,18.527251 152.049687,18.9107854 144.546563,16.4178116 C133.77967,12.931135 125.65572,3.4125079 114.658234,0.727766916 C104.277266,-1.71370613 93.4089707,2.10217231 86.9516648,10.4555946" id="Path" fill="#F6F8FF"></path>
                <path d="M25.0128095,35.620042 C25.1798719,28.5756717 31.0228628,22.9988178 38.0673679,23.1600936 C45.1118731,23.3213693 50.6935248,29.1597771 50.5380359,36.2044123 C50.382547,43.2490475 44.5487263,48.8354934 37.5039657,48.6857915 C34.1135365,48.6137445 30.8910977,47.195659 28.5476657,44.7444291 C26.2042336,42.2931992 24.9324074,39.0102834 25.0128095,35.620042 Z" id="Path" fill="#D8DFF1"></path>
                <path d="M170.43318,163.10368 C170.434878,160.049986 172.289121,157.302679 175.120485,156.158816 C177.95185,155.014952 181.194086,155.703297 183.316471,157.898867 C185.438856,160.094438 186.01693,163.358139 184.777773,166.149113 C183.538616,168.940087 180.730049,170.700163 177.678052,170.598374 C173.636724,170.463589 170.430934,167.147254 170.43318,163.10368 L170.43318,163.10368 Z" id="Path" fill="#D8DFF1"></path>
            </g>
        </g>
    </g>
</svg>