<?xml version="1.0" encoding="utf-8"?>
<!-- Generator: Adobe Illustrator 24.1.2, SVG Export Plug-In . SVG Version: 6.00 Build 0)  -->
<svg version="1.1" id="Слой_1" xmlns="http://www.w3.org/2000/svg" xmlns:xlink="http://www.w3.org/1999/xlink" x="0px" y="0px"
	 viewBox="0 0 25 24" style="enable-background:new 0 0 25 24;" xml:space="preserve">
<style type="text/css">
	.st0{fill:#1C1A1A;}
</style>
<path class="st0" d="M22.2,2.6L22.2,2.6c-1.4-1.5-3.3-2.3-5.3-2.3c-1.6,0-3.1,0.5-4.4,1.5c-1.3-1-2.8-1.5-4.4-1.5
	c-2,0-3.9,0.8-5.3,2.3C1.3,4.1,0.5,6,0.5,8.1s0.8,4.1,2.2,5.6l8.8,9.2c0.3,0.3,0.6,0.4,0.9,0.4c0.4,0,0.7-0.1,0.9-0.4l8.8-9.2
	c1.4-1.5,2.2-3.5,2.2-5.6C24.3,6.1,23.5,4.1,22.2,2.6z M21.7,8.2c0,1.4-0.5,2.7-1.4,3.7L12.4,20l-7.8-8.2c-0.9-1-1.4-2.3-1.4-3.6
	c0-1.4,0.5-2.7,1.4-3.6C5.5,3.5,6.7,3,8,3c1.3,0,2.5,0.5,3.5,1.5c0.2,0.3,0.6,0.4,0.9,0.4c0.4,0,0.7-0.1,0.9-0.4
	c0.9-1,2.1-1.5,3.4-1.5c1.3,0,2.5,0.5,3.4,1.5C21.2,5.5,21.7,6.8,21.7,8.2z"/>
</svg>
