<svg width="15" height="18" viewBox="0 0 15 18" fill="none" xmlns="http://www.w3.org/2000/svg">
<path fill-rule="evenodd" clip-rule="evenodd" d="M1.32474 11.4037C1.52572 11.6877 1.74665 11.9565 1.98551 12.2081L6.43322 17.6227C6.84629 18.1256 7.61585 18.1258 8.02924 17.6232L12.5304 12.1505C12.7287 11.937 12.9142 11.7115 13.0859 11.4752L13.1782 11.3629H13.1658C13.9828 10.1917 14.4619 8.76725 14.4619 7.23093C14.4619 3.2374 11.2245 0 7.23093 0C3.2374 0 0 3.2374 0 7.23093C0 8.76725 0.479116 10.1917 1.29608 11.3629H1.29124L1.32474 11.4037ZM10.3299 7.23093C10.3299 8.94244 8.94244 10.3299 7.23093 10.3299C5.51942 10.3299 4.13196 8.94244 4.13196 7.23093C4.13196 5.51942 5.51942 4.13196 7.23093 4.13196C8.94244 4.13196 10.3299 5.51942 10.3299 7.23093Z" fill="#AFC8D1"/>
</svg>
