<svg width="21" height="21" viewBox="0 0 21 21" fill="none" xmlns="http://www.w3.org/2000/svg">
<path d="M7.57186 15.1433C9.27228 15.1433 10.8364 14.576 12.1004 13.6295L19.4705 21L21 19.47L13.6299 12.1001C14.5764 10.8361 15.1437 9.27204 15.1437 7.57166C15.1437 3.38994 11.7537 0 7.57186 0C3.39003 0 0 3.38994 0 7.57166C0 11.7534 3.39003 15.1433 7.57186 15.1433ZM7.57186 2.16333C10.5541 2.16333 12.9803 4.58951 12.9803 7.57166C12.9803 10.5538 10.5541 12.98 7.57186 12.98C4.58963 12.98 2.16339 10.5538 2.16339 7.57166C2.16339 4.58951 4.58963 2.16333 7.57186 2.16333Z" fill="#1C1A1A"/>
</svg>
