<svg width="25" height="23" viewBox="0 0 25 23" fill="none" xmlns="http://www.w3.org/2000/svg">
<path d="M6.84226 13.4553L3.94269 19.9808H9.86465H16.9167H21.6181V17.6301H7.5598L8.86561 14.6918H20.7025L24.4242 3.52603H6.01012L4.83477 0H0.461914V2.35068H3.14111L6.84226 13.4553ZM21.1626 5.87671L19.0076 12.3411H8.94847L6.79348 5.87671H21.1626Z" fill="#1C1A1A"/>
<path d="M12.74 22.3316C13.3892 22.3316 13.9154 21.8054 13.9154 21.1563C13.9154 20.5072 13.3892 19.981 12.74 19.981C12.0909 19.981 11.5647 20.5072 11.5647 21.1563C11.5647 21.8054 12.0909 22.3316 12.74 22.3316Z" fill="#1C1A1A"/>
<path d="M19.7928 22.3316C20.4419 22.3316 20.9681 21.8054 20.9681 21.1563C20.9681 20.5072 20.4419 19.981 19.7928 19.981C19.1437 19.981 18.6174 20.5072 18.6174 21.1563C18.6174 21.8054 19.1437 22.3316 19.7928 22.3316Z" fill="#1C1A1A"/>
</svg>
