<svg width="12" height="10" viewBox="0 0 12 10" fill="none" xmlns="http://www.w3.org/2000/svg">
<path d="M11.0199 3.67212C10.985 3.56459 10.892 3.48622 10.7802 3.46998L7.63742 3.01329L6.2319 0.165488C6.18188 0.0641114 6.07863 -6.10352e-05 5.96559 -6.10352e-05C5.85253 -6.10352e-05 5.74929 0.0641114 5.69925 0.165488L4.29368 3.01329L1.15099 3.46998C1.03914 3.48622 0.946176 3.56459 0.911249 3.6721C0.876301 3.77964 0.905447 3.89767 0.98641 3.97657L3.26042 6.19328L2.72368 9.32336C2.70455 9.4348 2.75037 9.54738 2.84183 9.61385C2.89357 9.65143 2.95485 9.67056 3.01643 9.67056C3.06371 9.67056 3.11115 9.65929 3.15459 9.63644L5.96557 8.15859L8.77642 9.63642C8.87651 9.68903 8.99775 9.68028 9.08921 9.61383C9.18066 9.54738 9.2265 9.43476 9.20739 9.32332L8.67047 6.19328L10.9447 3.97655C11.0257 3.89767 11.0549 3.77964 11.0199 3.67212Z" fill="#D7E3E7"/>
</svg>
