<svg width="30" height="21" viewBox="0 0 30 21" fill="none" xmlns="http://www.w3.org/2000/svg">
<path d="M28.5422 2.75886C27.7594 1.36639 26.9098 1.11027 25.1801 1.01287C23.4521 0.895624 19.107 0.846924 15.3426 0.846924C11.571 0.846924 7.22408 0.895624 5.49793 1.01106C3.77177 1.11027 2.92042 1.36459 2.13039 2.75886C1.32413 4.14953 0.909271 6.54486 0.909271 10.762C0.909271 10.7656 0.909271 10.7674 0.909271 10.7674C0.909271 10.771 0.909271 10.7728 0.909271 10.7728V10.7764C0.909271 14.9754 1.32413 17.3888 2.13039 18.765C2.92042 20.1575 3.76997 20.41 5.49612 20.5273C7.22408 20.6283 11.571 20.6878 15.3426 20.6878C19.107 20.6878 23.4521 20.6283 25.1819 20.5291C26.9117 20.4118 27.7612 20.1593 28.544 18.7668C29.3575 17.3906 29.7687 14.9772 29.7687 10.7782C29.7687 10.7782 29.7687 10.7728 29.7687 10.7692C29.7687 10.7692 29.7687 10.7656 29.7687 10.7638C29.7687 6.54486 29.3575 4.14953 28.5422 2.75886ZM11.7316 16.1785V5.35621L20.7502 10.7674L11.7316 16.1785Z" fill="#1C1A1A"/>
</svg>
