<?xml version="1.0" encoding="utf-8"?>
<!-- Generator: Adobe Illustrator 22.1.0, SVG Export Plug-In . SVG Version: 6.00 Build 0)  -->
<svg version="1.1" id="Слой_1" xmlns="http://www.w3.org/2000/svg" xmlns:xlink="http://www.w3.org/1999/xlink" x="0px" y="0px"
	 width="40px" height="41px" viewBox="0 0 40 41" style="enable-background:new 0 0 40 41;" xml:space="preserve">
<g>
	<circle style="fill:#2DD128;" cx="20" cy="21" r="13"/>
</g>
<g>
	<path style="fill:#2DD128;" d="M20,6c8.3,0,15,6.7,15,15s-6.7,15-15,15S5,29.3,5,21S11.7,6,20,6 M20,5C11.2,5,4,12.2,4,21
		s7.2,16,16,16s16-7.2,16-16S28.8,5,20,5L20,5z"/>
</g>
<g>
	<path style="fill:#2DD128;" d="M20,3c9.9,0,18,8.1,18,18s-8.1,18-18,18S2,30.9,2,21S10.1,3,20,3 M20,2C9.5,2,1,10.5,1,21
		s8.5,19,19,19s19-8.5,19-19S30.5,2,20,2L20,2z"/>
</g>
</svg>
