<?xml version="1.0" encoding="UTF-8"?>
<svg width="40px" height="40px" viewBox="0 0 40 40" version="1.1" xmlns="http://www.w3.org/2000/svg" xmlns:xlink="http://www.w3.org/1999/xlink">
    <title>F30992FB-D287-4608-807A-E7B8EB7E2C92</title>
    <g id="Page-1" stroke="none" stroke-width="1" fill="none" fill-rule="evenodd">
        <g id="Slider_New_Collection" transform="translate(-1918.000000, -256.000000)" fill="#FFFFFF" fill-rule="nonzero">
            <path d="M1918.40772,256.28612 C1918.77595,255.908527 1919.37736,255.904095 1919.751,256.276219 L1919.751,256.276219 L1938.134,274.585 L1956.249,256.544833 C1956.62264,256.172708 1957.22405,256.177141 1957.59228,256.554733 C1957.92704,256.897999 1957.95385,257.43149 1957.67523,257.805234 L1957.58249,257.912215 L1939.487,275.933 L1957.71687,294.087785 L1957.80962,294.194766 C1958.08823,294.56851 1958.06143,295.102001 1957.72667,295.445267 C1957.35844,295.822859 1956.75703,295.827292 1956.38339,295.455167 L1956.38339,295.455167 L1938.134,277.28 L1919.61661,295.723781 C1919.24297,296.095905 1918.64156,296.091473 1918.27333,295.71388 C1917.93857,295.370615 1917.91177,294.837124 1918.19038,294.46338 L1918.28313,294.356399 L1936.781,275.933 L1918.41751,257.643601 L1918.32477,257.53662 C1918.04615,257.162876 1918.07296,256.629385 1918.40772,256.28612 Z" id="Combined-Shape"></path>
        </g>
    </g>
</svg>