<svg xmlns="http://www.w3.org/2000/svg" width="82" height="33" viewBox="0 0 82 33">
    <g fill="none" fill-rule="evenodd">
        <g>
            <g>
                <g>
                    <path fill="#3E3D48" fill-rule="nonzero" d="M1.485 30.013v-7.826l1.976 7.826h.47l1.992-7.826v7.826h1.16V19.552H5.516l-1.819 7.01-1.788-7.01h-1.6v10.46h1.177zm8.754 0l.423-2.4h2.228l.423 2.4h1.208l-2.07-10.461h-1.365L9.03 30.012h1.208zm2.51-3.45h-1.945l.972-5.6.972 5.6zm5.711 3.45c1.046 0 1.817-.468 2.313-1.404.497-.936.745-2.209.745-3.819 0-1.6-.25-2.873-.752-3.819-.502-.946-1.27-1.42-2.306-1.42h-1.992v10.462h1.992zm0-1.05h-.816v-8.36h.816c1.213 0 1.82 1.395 1.82 4.187 0 2.781-.607 4.172-1.82 4.172zm9.444 1.05v-1.05h-2.713v-3.78h2.604V24.13H25.19v-3.529h2.713v-1.05h-3.89v10.46h3.89zm7.205 0V19.552h-1.177v10.46h1.177zm4.002 0v-7.246l2.556 7.246h1.13V19.552H41.62v7.105l-2.51-7.105h-1.176v10.46h1.177zm13.948 0v-1.05h-2.713v-3.78h2.603V24.13h-2.603v-3.529h2.713v-1.05h-3.89v10.46h3.89zm2.81 0l.423-2.4h2.228l.423 2.4h1.208l-2.07-10.461h-1.365l-2.055 10.46h1.208zm2.51-3.45h-1.945l.972-5.6.972 5.6zm4.895 3.45v-4.22h.926l1.364 4.22h1.27l-1.536-4.486c.387-.146.724-.455 1.011-.925.288-.47.432-1.124.432-1.96 0-.942-.228-1.692-.683-2.251-.454-.56-1.043-.84-1.764-.84h-2.196v10.462h1.176zm.863-5.27h-.863v-4.14h.863c.45 0 .792.188 1.027.564.236.377.353.878.353 1.506 0 .627-.117 1.129-.353 1.505-.235.377-.577.565-1.027.565zm7.202 5.27v-9.41h1.646v-1.051H68.5v1.05h1.647v9.41h1.192zm4.943 0v-4.846h2.51v4.846h1.175V19.552h-1.176V24.1h-2.51v-4.548h-1.176v10.46h1.177z" transform="translate(-1974 -5424) translate(-1.808 4637.566) translate(1976.005 787.434)"/>
                    <path fill="#5AE596" d="M.309.469H1.919V19.596H.309zM5.507.469H7.117V19.596H5.507zM11.084.469H12.084V19.596H11.084zM68.5.469H69.5V19.596H68.5zM71.629.469H72.629V19.596H71.629zM56.721.469H57.721V19.596H56.721z" transform="translate(-1974 -5424) translate(-1.808 4637.566) translate(1976.005 787.434)"/>
                    <path fill="#5AE596" d="M12.009.469H13.009V19.596H12.009zM24.036.439H25.036V19.566H24.036zM69.422.469H70.422V19.596H69.422zM72.551.469H73.551V19.596H72.551z" transform="translate(-1974 -5424) translate(-1.808 4637.566) translate(1976.005 787.434)"/>
                    <path fill="#5AE596" d="M70.339.469H71.339V19.596H70.339zM57.646.469H58.646V19.596H57.646zM63.678.469H64.678V19.596H63.678zM16.42.469H17.576V19.596H16.42zM25.467.431H27.884999999999998V19.558H25.467zM49.172.469H53.028V19.596H49.172zM62.101.469H63.229V19.596H62.101zM33.937.469H35.088V19.596H33.937zM78.79.469H79.965V19.596H78.79zM37.921.469H38.921V19.596H37.921z" transform="translate(-1974 -5424) translate(-1.808 4637.566) translate(1976.005 787.434)"/>
                    <path fill="#5AE596" d="M38.656.469H39.656V19.596H38.656zM41.622.469H42.622V19.596H41.622zM75.104.469H76.104V19.596H75.104z" transform="translate(-1974 -5424) translate(-1.808 4637.566) translate(1976.005 787.434)"/>
                    <path fill="#5AE596" d="M42.189.469H43.189V19.596H42.189zM75.677.469H76.677V19.596H75.677z" transform="translate(-1974 -5424) translate(-1.808 4637.566) translate(1976.005 787.434)"/>
                </g>
            </g>
        </g>
    </g>
</svg>
