<svg xmlns="http://www.w3.org/2000/svg" width="192" height="106" viewBox="0 0 192 106">
    <g fill="none" fill-rule="evenodd">
        <g fill="#FFF">
            <path d="M735.401 101.64c.006.238-.058.385-.333.427-.317.048-.723-.15-.936.215-.171.295-.137.66-.181.996-.554 4.193-1.112 8.386-1.665 12.58-.526 3.987-1.052 7.974-1.567 11.962-.09.706-.007.757-.856.758-.836.001-1.672-.009-2.508.001-.374.005-.554-.118-.605-.527-.405-3.186-.832-6.369-1.254-9.553-.5-3.78-1.003-7.558-1.503-11.338-.186-1.398-.368-2.796-.547-4.194-.104-.813-.1-.829-.93-.888-.354-.026-.515-.133-.498-.515.015-.35.183-.446.492-.445 2.038.003 4.076.004 6.114 0 .317 0 .474.114.481.457.007.328-.12.455-.44.495-.883.11-.896.123-.794 1.036.443 3.97.895 7.94 1.342 11.91.274 2.44.544 4.88.818 7.32.011.1.034.201.065.383.273-.286.227-.56.258-.812.456-3.759.908-7.518 1.36-11.277.32-2.645.64-5.289.952-7.934.063-.533.022-.57-.52-.619-.129-.012-.26-.016-.39-.02-.291-.008-.322-.204-.32-.43.001-.247.009-.497.343-.499 1.097-.005 2.194-.006 3.292.004.337.002.324.267.33.508zm22.834 27.126c-2.136.284-4.061-.147-5.565-1.822-.837-.932-1.266-2.033-1.291-3.283-.018-.94-.013-1.882-.003-2.823.007-.617.019-.631.605-.638.967-.013 1.935-.013 2.902 0 .58.007.594.021.598.642.009 1.569.008 3.137.001 4.705-.001.422.031.838.151 1.24.215.722.752 1.1 1.528 1.1.751 0 1.223-.345 1.465-1.062.11-.328.134-.665.134-1.005 0-1.438.01-2.876-.002-4.313-.013-1.56-.522-2.902-1.68-3.999-1.27-1.204-2.466-2.488-3.749-3.68-1.337-1.243-1.89-2.79-1.945-4.552-.035-1.071-.026-2.144-.005-3.215.052-2.66 2.062-4.841 4.707-5.118.756-.08 1.517-.091 2.267.043 2.532.454 4.255 2.391 4.403 4.99.057.99.027 1.987.013 2.98-.008.546-.044.575-.593.582-.967.012-1.934.012-2.901 0-.572-.007-.603-.037-.612-.643-.014-.889-.004-1.778-.004-2.666h-.003v-2.196c-.001-.367-.015-.735-.115-1.089-.211-.745-.721-1.108-1.513-1.094-.743.012-1.212.377-1.411 1.115-.103.38-.137.77-.134 1.164.006 1.15-.002 2.3.003 3.45.007 1.696.525 3.16 1.814 4.344 1.231 1.13 2.363 2.37 3.586 3.51 1.354 1.261 1.922 2.828 1.963 4.625.025 1.097-.022 2.196.013 3.293.09 2.841-1.868 5.05-4.627 5.415zm-113.811-18.399c0-2.037-.001-4.074.001-6.11 0-.261-.004-.525.033-.782.17-1.175.795-1.68 1.986-1.624.886.041 1.384.464 1.589 1.336.084.36.098.723.097 1.09-.002 1.488 0 2.977 0 4.465-.001 1.62.003 3.239-.003 4.858-.003.7-.016.714-.688.723-.81.011-1.62.014-2.428-.002-.556-.011-.577-.032-.583-.585-.012-1.123-.004-2.246-.004-3.369zm7.176 9.832c-.94-.011-1.882-.01-2.822 0-.629.007-.641.018-.645.678-.009 1.541-.006 3.083-.002 4.625 0 .368-.022.731-.11 1.089-.192.785-.675 1.206-1.478 1.29-1.172.12-1.9-.44-2.082-1.612-.028-.18-.035-.365-.035-.547-.002-3.215-.004-6.429 0-9.643 0-.769.01-.779.796-.781 1.986-.006 3.972-.002 5.958-.003.209 0 .418-.005.627-.01.277-.005.443-.123.433-.425-.005-.13.004-.261.004-.392 0-2.718.008-5.435-.004-8.153-.01-2.315-1.182-3.89-3.203-4.882-1.139-.56-2.368-.601-3.605-.502-2.667.216-5.211 2.425-5.136 5.512.068 2.795.014 5.593.015 8.389v8.545l.001.157c.009 1.343.483 2.495 1.409 3.468 2.174 2.284 6.25 2.498 8.652.447 1.127-.963 1.793-2.175 1.857-3.667.042-.99.02-1.985.01-2.978-.007-.584-.024-.598-.64-.605zm-21.725-11.512c0-1.435-.003-2.869.002-4.303.001-.312.008-.628.05-.936.187-1.353 1.422-2.013 2.674-1.448.413.187.654.51.79.92.122.373.165.76.165 1.155-.005 3.156 0 6.311-.004 9.467 0 .77-.008.776-.78.783-.757.007-1.513.011-2.27-.003-.592-.011-.619-.032-.622-.628-.01-1.67-.004-3.338-.004-5.007h-.001zm7.796 12.02c.01-.443-.222-.517-.585-.514-.94.01-1.882-.003-2.822.005-.693.005-.704.013-.707.692-.008 1.542-.004 3.084-.003 4.625 0 .367-.01.73-.107 1.088-.226.84-.694 1.232-1.558 1.283-1.126.067-1.79-.462-1.956-1.568-.035-.231-.055-.468-.055-.702-.003-3.162-.005-6.323 0-9.485.001-.819.015-.83.836-.833 1.907-.006 3.815-.003 5.722-.003.21 0 .419.006.627-.004.565-.027.575-.04.602-.575.004-.078.002-.156.002-.235 0-2.717.003-5.435-.001-8.152-.004-2.318-1.172-3.891-3.188-4.89-1.085-.539-2.258-.585-3.446-.521-2.61.14-5.375 2.26-5.298 5.607.065 2.768.014 5.54.014 8.309 0 2.874-.004 5.748.003 8.623.003 1.426.514 2.644 1.527 3.658 2.207 2.209 6.26 2.341 8.597.271 1.021-.904 1.675-2.019 1.762-3.387.07-1.094.01-2.194.034-3.291zm107.122 5.457c-.125 1.436-1.431 2.169-2.732 1.535-.516-.25-.778-.69-.858-1.233-.054-.359-.055-.728-.055-1.093-.004-3.525-.003-7.05-.003-10.574 0-3.473 0-6.945.002-10.418 0-.338-.004-.68.039-1.016.128-.996.73-1.505 1.756-1.517 1.045-.011 1.649.462 1.818 1.448.044.255.045.52.045.78.003 7.18.003 14.36.002 21.54 0 .183.002.367-.014.548zm4.144-11.284h-.001c0-2.848-.025-5.696.007-8.543.033-2.975-2.258-4.803-4.22-5.26-.903-.21-1.815-.228-2.726-.132-2.482.262-5.024 2.26-5.01 5.473.022 5.643-.005 11.287.011 16.93.007 2.407 1.24 4.032 3.382 5.005.945.43 1.959.513 2.99.485 2.93-.08 5.7-2.309 5.586-5.729-.092-2.74-.019-5.486-.019-8.229zm-47.728 10.592c0 .365 0 .738-.072 1.093-.173.856-.774 1.305-1.694 1.321-.945.017-1.535-.387-1.786-1.216-.092-.305-.1-.617-.1-.931v-21.723c0-.13 0-.261.008-.392.096-1.407 1.205-2.14 2.542-1.683.608.207.935.66 1.04 1.265.062.357.062.728.062 1.093.004 3.529.003 7.058.003 10.587s.002 7.058-.003 10.586zm4.157-14.038c0-1.699.016-3.397-.006-5.096-.032-2.574-1.719-4.654-4.22-5.26-.72-.175-1.447-.18-2.18-.177-2.634.015-5.679 2.089-5.565 5.749.084 2.715.016 5.434.016 8.152h.002c0 2.848.02 5.696-.005 8.544-.029 3.09 2.363 4.922 4.424 5.342.593.12 1.188.158 1.791.156 2.97-.01 5.845-2.197 5.762-5.81-.088-3.864-.02-7.733-.02-11.6zm16.094 16.712c0 .298-.135.428-.425.426-.314-.002-.627.006-.94.006-1.098.001-2.196.007-3.293-.002-.72-.006-.72-.015-.732-.757-.003-.209 0-.418 0-.627 0-7.604 0-15.208-.002-22.813 0-.417.014-.834-.095-1.246-.23-.88-.758-1.249-1.667-1.171-.518.044-.944.278-1.348.58-.228.17-.343.38-.325.668.011.182 0 .366 0 .549v23.048c.011.597-.142.844.748.826.478-.01.569.126.55.536-.01.247-.105.395-.369.4-.104.001-.208.008-.313.008-1.803.001-3.606.005-5.409-.004-.239-.001-.547.095-.646-.27-.11-.41.052-.638.48-.678.859-.08.862-.08.862-.94V103.01c0-.105.003-.21-.001-.314-.023-.574-.023-.575-.561-.618-.13-.01-.261-.01-.392-.01-.301 0-.404-.163-.404-.449 0-.31.097-.5.443-.499 1.515.003 3.031.008 4.547-.004.384-.003.497.213.502.695 1.248-.894 2.508-.996 3.809-.884 1.853.16 3.1 1.249 3.503 3.055.149.667.186 1.342.185 2.024-.005 6.742-.003 13.484-.003 20.226v.627c.005.573-.098.781.723.772.501-.005.574.107.573.515zm-35.174-33.39c0-.312.023-.626-.076-.933-.302-.934-1.276-1.565-2.257-1.453-1.052.122-1.83.932-1.889 1.974-.013.235-.004.47-.004.706v15.132c0 5.096.002 10.192-.002 15.288 0 .45.027.883.255 1.289.478.852 1.4 1.292 2.312 1.087.947-.212 1.649-1.032 1.656-2.023.017-2.378 0-4.756.008-7.134.005-1.28-.154-1.164 1.18-1.171.837-.005 1.673.011 2.51-.003.403-.007.547.16.545.558-.014 1.908.016 3.816-.022 5.723-.02.993-.413 1.879-1.043 2.652-2.64 3.243-7.995 3.213-10.602-.061-.693-.87-1.026-1.87-1.027-2.979l-.001-7.605V97.457c0-3.1 1.653-5.222 4.677-5.871 2.322-.498 4.47-.087 6.309 1.513 1.08.941 1.685 2.121 1.7 3.565.017 1.777.01 3.554.003 5.331-.003.678-.016.687-.715.694-.94.009-1.882.01-2.823 0-.677-.008-.688-.019-.69-.72-.006-2.404-.001-4.808-.004-7.213zm-23.441 30.782c0 .363-.03.733-.105 1.088-.164.78-.656 1.144-1.45 1.144-.607 0-1.103-.26-1.575-.61-.302-.224-.285-.53-.285-.845V114.877v-11.28c0-.968.64-1.566 1.749-1.642.938-.064 1.462.39 1.61 1.416.04.283.058.572.058.858.003 7.103.004 14.206-.002 21.309zm.421-24.613c-1.303-.11-2.559.01-3.729.824-.112-.389-.231-.651-.668-.642-1.463.031-2.927.014-4.39.012-.298 0-.49.068-.51.429-.021.382.148.493.493.527.856.087.855.099.86.977.002.078.001.156.001.235v30.575c0 .209-.01.418-.004.627.01.346-.126.547-.5.535-.13-.005-.261.012-.392.01-.33-.005-.452.153-.459.482-.008.404.213.48.544.48 1.15-.003 2.3.001 3.45.001.757 0 1.515.01 2.273-.008.453-.012.533-.141.504-.58-.03-.452-.364-.356-.633-.379-.655-.055-.67-.053-.673-.66-.007-1.934-.004-3.868.002-5.802 0-.165-.067-.374.22-.5 1.018.648 2.18.845 3.409.763 2.076-.14 3.396-1.296 3.77-3.333.09-.49.144-.98.143-1.48-.003-6.115-.004-12.23.001-18.345 0-.58-.07-1.148-.197-1.709-.407-1.81-1.659-2.882-3.515-3.04zm-26.535-36.9c-.18-.011-.366-.027-.506-.19.009-.068-.004-.158.031-.22 1.03-1.795 2.459-3.102 4.535-3.542 1.352-.287 2.506.384 3.004 1.661.282.725.114 1.256-.53 1.688-.606.407-1.309.521-2.004.607-1.507.185-3.02.097-4.53-.003zm-.745-2.173c-.311-.637-.348-1.34-.433-2.026-.158-1.276-.19-2.554.059-3.824.055-.281.127-.562.225-.83.545-1.496 1.58-2.076 3.129-1.77.723.143.977.481.858 1.224-.096.595-.303 1.162-.551 1.711-.42.93-.913 1.823-1.43 2.7-.479.811-.968 1.615-1.46 2.416-.091.148-.142.346-.397.4zm-8.283 3.805c-.594 1.106-1.382 2.074-2.28 3.17-.673-1.848-.8-3.505.238-5.086.476-.726 1.057-.853 1.748-.492.462.242.692.618.668 1.141-.021.452-.163.874-.374 1.267zm-1.931 6.027c.443-.165.901-.26 1.376-.262 1.109-.005 1.86.584 2.144 1.686.24.93-.137 1.795-1.042 2.31-.815.464-1.707.629-2.57.592-1.38.003-2.594-.349-3.712-1.026-.477-.29-.494-.362-.094-.74 1.146-1.084 2.404-2.004 3.898-2.56zm-4.368-.2c-.198-.004-.275-.075-.335-.16-1.159-1.631-2.086-3.372-2.47-5.36-.058-.303-.07-.623-.054-.933.055-1.08.763-1.795 1.841-1.869.733-.05 1.249.298 1.582.934.27.518.388 1.086.426 1.658.123 1.874-.136 3.695-.835 5.446-.038.095-.098.181-.155.284zm-6.714 22.19c0-1.195-.015-1.053 1.067-1.063.287-.003.576-.01.862.01 1.137.078 1.942.89 2.012 2.02.006.104.003.209.003.313 0 10.09-.002 20.18.005 30.27 0 .627-.125 1.19-.54 1.672-.319.37-.71.645-1.196.683-.598.047-1.2.025-1.802.032-.253.003-.39-.117-.396-.375-.006-.261-.015-.522-.015-.783V110.14 93.673zm-18.835-15.128c-.158 1.427-.468 2.826-.793 4.221-.193.828-.317 1.669-.476 2.576-.335-.199-.409-.433-.51-.638-.854-1.744-1.472-3.561-1.697-5.5-.07-.601-.043-1.2.107-1.785.226-.877.748-1.472 1.67-1.666.872-.184 1.423.146 1.637 1.005.147.59.128 1.186.062 1.787zm-6.324 10.823c-.714.26-1.438.455-2.216.317-.814-.145-1.28-.67-1.534-1.401-.177-.51-.054-.98.358-1.353.293-.266.626-.473 1.002-.594 2.227-.713 4.418-.6 6.567.313.188.08.39.155.573.444-1.635.712-3.103 1.676-4.75 2.274zm-2.13-8.515c-.276-.242-.52-.515-.709-.833-.513-.863-.269-1.775.606-2.279.297-.171.59-.182.895-.024.26.136.474.332.647.561 1.036 1.38 1.577 2.976 1.988 4.649-1.259-.545-2.418-1.19-3.427-2.074zm-.262 1.073c.326.003.468.133.654.327-.291.008-.474-.066-.654-.327zm4.774-.401c-.014-.01-.032-.017-.04-.03l-.004-.008.044.038zm-10.826-2.077c-1.704-.85-3.056-1.95-3.824-3.64-.466-1.024-.215-1.95.58-2.52.5-.36.936-.367 1.442-.008.147.105.284.231.405.367 1.122 1.264 1.796 3.957 1.397 5.801zm-.922 2.523c-1.1 1.161-2.386 2.03-3.964 2.405-.251.06-.517.081-.776.085-1.051.018-1.664-.414-1.872-1.3-.229-.976.173-1.887 1.026-2.32.65-.33 1.353-.371 2.062-.368 1.172.008 2.275.314 3.337.781.516.227.55.336.187.717zm27.056-40.082c-.11.26-.25.509-.455.918-.402-.77-.44-1.448-.542-2.105-.287-1.837-.387-3.686-.244-5.542.126-1.626 1.406-3.191 2.927-3.618.15-.042.304-.08.458-.093.709-.058 1.093.257 1.147.961.034.443.012.884-.096 1.322-.164.66-.352 1.313-.61 1.94-.85 2.077-1.718 4.147-2.585 6.217zm-1.356 19.13c-2.068-.892-4.084-1.877-5.863-3.283-.618-.488-1.185-1.027-1.61-1.698-.733-1.158-.624-2.136.34-3.115.352-.358.751-.655 1.2-.87.87-.418 1.715-.373 2.523.181.572.392 1.004.912 1.375 1.486 1.049 1.622 1.663 3.423 2.148 5.274.176.673.393 1.343.37 2.029-.197.133-.343.055-.483-.005zm-.418-20.046c-.117-.008-.182.008-.215-.018-1.386-1.085-2.626-2.308-3.553-3.819-.136-.22-.243-.463-.327-.709-.223-.65-.103-1.165.322-1.493.52-.402 1.234-.457 1.765-.13.391.24.644.604.867.99.6 1.037.836 2.19 1.019 3.35.092.588.22 1.181.122 1.83zm2.415 7.316c.118-1.278.335-2.693 1.017-3.995.332-.634.749-1.198 1.343-1.609.214-.148.44-.288.681-.382.839-.329 1.404.018 1.47.909.023.309.009.632-.053.935-.39 1.907-1.388 3.417-3.007 4.505-.215.144-.453.262-.694.36-.716.293-.786.237-.757-.723zm.346 7.204c.108-1.12.35-2.216.968-3.19.097-.153.196-.308.308-.452.584-.746 1.328-1.003 2.052-.716.836.332 1.35 1.147 1.264 2.044-.059.629-.242 1.226-.535 1.787-.83 1.59-1.95 2.955-3.225 4.201-.072.071-.15.147-.334.102-.488-1.194-.625-2.474-.498-3.776zm36.348 5.746c-.68-1.37-1.737-2.11-3.313-2.04-.604.026-1.194.124-1.786.225-.17.029-.345.136-.512-.023-.005-.256.181-.426.293-.626.59-1.056 1.038-2.165 1.31-3.346.119-.517.134-1.039.079-1.559-.055-.522-.293-.944-.805-1.164-1.281-.548-3.73.036-4.454 1.412-.346.657-.56 1.345-.697 2.068-.328 1.736-.26 3.488-.244 5.238.005.496-.023.992-.024 1.488-.002.484-.219.745-.697.893-1.104.342-2.12.886-3.1 1.494-.776.482-1.53.998-2.295 1.5-.056.048-.122.1-.188.04-.066-.06-.019-.132.02-.193.161-.357.344-.706.478-1.072.335-.91.252-1.803-.205-2.651-.636-1.178-1.84-1.35-2.785-.4-.202.201-.38.432-.539.67-.565.844-.865 1.778-.917 2.794-.058 1.153-.014 2.3.198 3.436.038.201.158.426-.014.598-.512.508-1.042.998-1.668 1.4-.126-.29-.04-.49-.003-.694.41-2.25.519-4.511.265-6.79-.097-.869-.57-1.43-1.318-1.81-.504-.256-1.04-.331-1.599-.29-.924.068-1.571.516-1.909 1.386-.377.971-.481 1.97-.326 3.003.157 1.042.515 2.022.862 3.008.19.542.375 1.087.544 1.636.528 1.721.177 3.257-1.027 4.587-.683.755-1.426 1.458-2.095 2.225-.613.7-1.323 1.258-2.129 1.706-1.625.902-3.398 1.456-5.109 2.222-.22-.501-.28-.996-.363-1.482-.286-1.68-.234-3.387-.364-5.079-.253-3.298-.17-6.581.367-9.846.436-2.649 1.119-5.198 2.756-7.42.917-1.243 1.545-2.664 2.03-4.138.24-.728.371-1.471.242-2.237-.15-.887-.662-1.396-1.552-1.516-1.139-.154-2.12.183-2.904 1.032-.313.337-.601.696-.9 1.045-.235-.172-.252-.387-.31-.58-.272-.91-.27-.91.591-1.369 1.2-.64 2.383-1.312 3.446-2.168 1.563-1.258 2.11-2.944 1.913-4.882-.118-1.16-1.192-2-2.305-1.896-.533.05-1.008.258-1.443.565-.97.685-1.623 1.61-2.068 2.7-.144.352-.204.752-.49 1.046-.148-.118-.094-.252-.095-.368-.003-.128.008-.26.039-.385.38-1.549.848-3.068 1.496-4.53.518-1.17 1.014-2.35 1.507-3.532.563-1.352 1.1-2.72 1.353-4.167.301-1.723-.7-2.668-2.419-2.34-.411.08-.801.231-1.18.417-.693.34-1.25.848-1.772 1.403-.393.42-.795.83-1.18 1.257-.327.364-.677.415-1.118.2-.42-.204-.826-.443-1.294-.55-1.486-.342-2.752.585-2.848 2.107-.024.392.012.778.119 1.163.375 1.36 1.057 2.555 1.93 3.647.636.796 1.292 1.577 1.953 2.352.758.889 1.311 1.887 1.646 3.003 1.163 3.888 1.6 7.875 1.587 11.92 0 .174.035.374-.175.501-.304-.097-.379-.4-.516-.636-.567-.973-1.006-2.009-1.47-3.032-.238-.525-.503-1.034-.826-1.511-.95-1.403-2.26-2.037-3.956-1.873-2.45.237-4.118 2.172-3.862 4.532.12 1.095.572 2.054 1.32 2.872.739.808 1.642 1.372 2.636 1.797 1.417.607 2.861 1.153 4.255 1.808 2.065.969 2.977 2.753 2.659 4.998-.18 1.268-.329 2.54-.36 3.822-.08 3.216.047 6.429.203 9.64.215 4.385.462 8.769.483 13.161.012 2.33-.238 4.644-.41 6.963-.009.127.008.279-.122.352-.177.1-.288-.053-.401-.146-.387-.32-.674-.724-.953-1.138-1.03-1.526-1.723-3.222-2.49-4.881-.784-1.69-1.85-3.14-3.428-4.191-1.295-.864-2.085-2.11-2.466-3.608-.487-1.92-.595-3.867-.375-5.834.096-.857.2-1.715.182-2.579-.014-.681-.087-1.357-.36-1.993-.387-.909-1.093-1.377-2.065-1.44-1.563-.1-2.924.985-3.181 2.538-.103.619-.103 1.244-.075 1.875.036.821.342 1.597.361 2.417-.488-.79-.773-1.675-1.184-2.5-.502-1.008-1.187-1.85-2.186-2.391-.667-.36-1.365-.415-1.98.11-.704.597-1.102 1.385-1.226 2.298-.07.516.106.976.406 1.396.306.43.703.77 1.093 1.118.138.124.379.203.303.47-.139.072-.26.023-.383-.023-1.654-.628-2.923-1.698-3.764-3.265-.507-.945-.951-1.92-1.346-2.916-.396-.999-.868-1.96-1.45-2.863-.57-.886-1.591-1.23-2.608-.922-.965.293-1.501 1.038-1.523 2.123-.008.393.045.776.14 1.162.269 1.087.863 2.009 1.427 2.95.561.935.483 1.072-.603 1.13-.312.017-.627.004-.94-.002-.366-.007-.732-.023-1.097-.033-.795-.024-1.487.248-2.1.738-1.353 1.083-1.9 3.55.552 4.635 1.422.63 2.863.747 4.347.227 1.066-.373 2.063-.889 3.052-1.422.669-.362 1.358-.67 2.09-.882 2.39-.688 4.247.323 6.015 1.841-.347.297-.71.38-1.043.518-.845.353-1.688.712-2.406 1.297-.82.669-.99 1.312-.594 2.293.577 1.429 1.98 2.461 3.789 1.917 1.778-.535 3.537-1.123 5.245-1.848 1.18-.501 2.238-.378 3.234.4.556.435 1.092.894 1.654 1.32 2.235 1.697 3.734 3.884 4.618 6.555.78 2.354 1.717 4.657 2.585 6.981.57 1.525 1.011 3.087 1.118 4.713.3 4.563.62 9.125 1.115 13.672.212 1.947.439 3.892.895 5.805.096.4.225.59.647.585 2.535-.03 5.073.092 7.604-.058 3.27-.195 5.545-2.66 5.545-5.914.002-7.684 0-15.369 0-23.053 0-.81.004-1.62-.001-2.431-.01-1.75-.76-3.11-2.163-4.136-1.154-.844-2.436-1.31-3.865-1.321-2.352-.017-4.705-.011-7.057-.015-.079 0-.157.006-.235.005-.295-.006-.417.136-.418.432 0 .299.055.52.418.512.157-.003.314.013.47.01.298-.005.425.153.432.434.004.13.01.26.01.391 0 8.757.001 17.513-.003 26.27 0 .214.073.46-.131.638-.188-.078-.203-.246-.238-.39-.908-3.736-1.583-7.511-1.944-11.343-.203-2.147.012-4.284.1-6.422.162-3.996.33-7.991.21-11.992-.027-.914-.111-1.828-.099-2.741.034-2.488 1.077-4.429 3.225-5.736.76-.462 1.52-.92 2.289-1.366 1.16-.675 2.197-1.476 3.052-2.54 1.051-1.307 3.18-2.242 5.167-1.418.433.18.889.309 1.339.443 1.403.42 2.789.34 4.15-.178 1.79-.68 3.23-2.903 3.11-4.778-.036-.546-.325-.905-.893-1.052-.406-.104-.825-.12-1.246-.097-.759.04-1.505.162-2.249.311-.365.074-.739.169-1.111.07.002-.256.165-.32.276-.418.807-.705 1.618-1.406 2.428-2.107.75-.65 1.504-1.296 2.314-1.875 1.832-1.31 3.875-1.798 6.088-1.513 1.253.16 2.501.176 3.755.107 1.1-.06 2.182-.253 3.213-.653 1.834-.71 2.18-1.64 1.297-3.42z" transform="translate(-571 -30)"/>
        </g>
    </g>
</svg>
