<svg xmlns="http://www.w3.org/2000/svg" width="130" height="72" viewBox="0 0 130 72">
    <g fill="none" fill-rule="evenodd">
        <g fill="#2D2B31">
            <g>
                <path d="M743.033 763.096c.004.16-.04.26-.226.29-.216.032-.491-.103-.636.146-.116.2-.093.447-.123.676-.377 2.848-.755 5.696-1.13 8.545-.358 2.708-.716 5.416-1.065 8.125-.062.48-.005.514-.582.515-.568 0-1.136-.006-1.703 0-.255.004-.376-.08-.412-.357-.274-2.164-.565-4.327-.851-6.49-.34-2.566-.682-5.133-1.021-7.7-.126-.95-.25-1.9-.372-2.85-.07-.551-.067-.562-.631-.603-.24-.017-.35-.09-.339-.35.01-.237.125-.302.335-.302 1.384.003 2.768.003 4.153 0 .215 0 .322.078.326.31.005.224-.081.31-.299.337-.6.075-.608.084-.539.704.3 2.697.608 5.393.912 8.09l.555 4.971c.008.07.023.137.045.261.185-.194.154-.381.175-.552.31-2.553.616-5.106.924-7.66.216-1.796.434-3.592.646-5.389.043-.362.015-.386-.352-.42-.089-.008-.177-.011-.266-.014-.198-.005-.219-.138-.218-.292.001-.168.006-.337.234-.339.745-.003 1.49-.004 2.235.003.23.002.22.181.225.345zm15.51 18.425c-1.45.192-2.759-.1-3.78-1.238-.57-.633-.86-1.381-.877-2.23-.013-.639-.01-1.278-.002-1.918.004-.418.013-.428.411-.433.657-.009 1.314-.009 1.97 0 .394.005.404.015.407.436.006 1.066.005 2.131 0 3.196 0 .287.022.57.103.843.146.49.511.747 1.038.747.51 0 .83-.235.995-.722.075-.222.091-.451.091-.683 0-.976.007-1.953-.001-2.93-.009-1.058-.354-1.97-1.14-2.715-.864-.818-1.677-1.69-2.547-2.5-.909-.844-1.284-1.895-1.322-3.092-.023-.727-.018-1.456-.003-2.184.035-1.807 1.4-3.288 3.197-3.476.513-.054 1.03-.062 1.54.03 1.72.307 2.89 1.623 2.99 3.389.04.673.019 1.35.01 2.024-.006.37-.03.39-.403.395-.657.008-1.314.008-1.97 0-.39-.005-.41-.025-.417-.437-.01-.604-.002-1.207-.002-1.811h-.002v-1.491c-.001-.25-.01-.5-.078-.74-.144-.506-.49-.753-1.028-.743-.505.008-.823.256-.959.757-.07.258-.092.523-.09.791.004.781-.002 1.563.001 2.344.005 1.152.357 2.145 1.233 2.95.836.768 1.604 1.61 2.435 2.384.92.857 1.306 1.921 1.334 3.142.017.745-.015 1.492.009 2.236.061 1.93-1.27 3.43-3.144 3.679zm-77.306-12.498v-4.15c.001-.178-.002-.357.023-.531.116-.798.54-1.141 1.349-1.103.602.028.94.315 1.08.907.057.244.066.491.066.74-.002 1.011-.001 2.022-.001 3.033 0 1.1.003 2.2-.002 3.3-.002.476-.01.485-.467.491-.55.008-1.1.01-1.65-.002-.377-.007-.391-.021-.395-.396-.008-.763-.003-1.526-.003-2.289zm4.874 6.678c-.639-.007-1.278-.007-1.917 0-.426.005-.435.013-.438.46-.006 1.048-.004 2.095-.001 3.142 0 .25-.015.497-.075.74-.13.534-.458.82-1.004.876-.795.082-1.29-.299-1.414-1.095-.019-.122-.023-.247-.024-.371-.001-2.184-.002-4.367 0-6.55 0-.522.007-.529.541-.53 1.349-.005 2.698-.002 4.047-.003.142 0 .284-.003.426-.006.188-.004.301-.084.294-.29-.003-.088.002-.177.002-.265 0-1.846.006-3.692-.002-5.538-.006-1.572-.802-2.642-2.175-3.317-.774-.38-1.609-.408-2.45-.34-1.81.146-3.539 1.647-3.488 3.744.047 1.898.01 3.798.01 5.698v5.804l.001.107c.006.912.328 1.695.957 2.355 1.477 1.551 4.245 1.697 5.877.304.766-.654 1.218-1.477 1.261-2.49.029-.674.014-1.35.007-2.024-.005-.396-.016-.406-.435-.41zm-14.756-7.82c0-.974-.002-1.948.001-2.922 0-.212.005-.426.034-.636.127-.919.966-1.367 1.816-.983.281.127.445.346.536.624.084.254.113.517.113.786-.003 2.143 0 4.286-.003 6.43 0 .523-.005.527-.53.531-.513.005-1.027.008-1.54-.002-.404-.007-.422-.022-.424-.426-.007-1.134-.002-2.268-.002-3.401h-.001zm5.295 8.166c.006-.301-.15-.352-.397-.35-.64.007-1.278-.002-1.917.003-.47.004-.478.01-.48.471-.005 1.047-.003 2.094-.002 3.141 0 .25-.008.496-.073.74-.153.57-.472.836-1.058.87-.765.046-1.216-.313-1.329-1.064-.024-.158-.037-.318-.037-.477-.002-2.148-.004-4.295 0-6.443 0-.556.01-.564.568-.566 1.295-.004 2.591-.001 3.887-.002.142 0 .284.005.425-.002.384-.019.391-.028.41-.39.002-.054 0-.107 0-.16 0-1.846.002-3.692 0-5.538-.003-1.574-.796-2.643-2.165-3.322-.738-.365-1.534-.397-2.342-.353-1.772.095-3.65 1.534-3.598 3.809.044 1.88.01 3.762.01 5.643 0 1.953-.003 3.905.002 5.857.002.969.349 1.796 1.037 2.485 1.499 1.5 4.251 1.59 5.84.184.693-.614 1.137-1.371 1.196-2.3.047-.743.007-1.491.023-2.236zm72.762 3.706c-.084.976-.972 1.473-1.856 1.043-.35-.17-.528-.47-.582-.838-.037-.244-.038-.494-.038-.742-.002-2.394-.001-4.788-.001-7.183v-7.076c0-.23-.002-.462.027-.69.087-.677.496-1.022 1.193-1.03.71-.008 1.12.313 1.235.983.03.173.03.353.03.53.002 4.877.002 9.754.002 14.631 0 .124.001.249-.01.372zm2.815-7.664c0-1.935-.018-3.87.004-5.803.022-2.021-1.533-3.263-2.866-3.573-.614-.143-1.233-.155-1.852-.09-1.685.178-3.412 1.535-3.404 3.718.016 3.833-.002 7.666.009 11.5.004 1.634.841 2.738 2.297 3.399.642.292 1.33.349 2.03.33 1.991-.055 3.872-1.569 3.795-3.892-.062-1.861-.013-3.726-.013-5.59zm-32.42 7.194c0 .248 0 .501-.048.742-.117.582-.526.887-1.15.898-.642.011-1.043-.263-1.213-.826-.063-.207-.069-.42-.069-.633V764.71c0-.088 0-.177.006-.266.065-.956.818-1.454 1.727-1.143.413.14.634.448.706.859.042.242.042.494.042.742.003 2.397.002 4.794.002 7.191 0 2.397.001 4.794-.002 7.191zm2.824-9.535c0-1.154.011-2.308-.003-3.461-.022-1.749-1.168-3.162-2.867-3.574-.489-.118-.983-.122-1.48-.12-1.79.01-3.858 1.42-3.78 3.905.057 1.844.01 3.691.01 5.537h.002c0 1.935.014 3.87-.004 5.804-.02 2.099 1.605 3.343 3.005 3.628.403.082.807.108 1.217.106 2.017-.007 3.97-1.492 3.914-3.945-.06-2.626-.013-5.254-.014-7.88zm10.932 11.352c0 .202-.091.29-.288.289-.213-.001-.426.004-.64.004-.745 0-1.49.004-2.236-.002-.488-.004-.489-.01-.497-.514-.002-.142 0-.284 0-.426v-15.495c0-.283.008-.567-.065-.846-.157-.598-.515-.849-1.133-.796-.352.03-.64.189-.915.394-.155.115-.233.258-.221.454.007.124 0 .248 0 .373v15.655c.007.405-.096.573.508.56.325-.006.386.087.374.365-.008.168-.072.268-.25.271-.072.001-.143.006-.214.006-1.224 0-2.45.003-3.674-.003-.162 0-.372.065-.439-.184-.074-.277.036-.433.326-.46.584-.054.586-.054.586-.638v-16.081c0-.071.002-.142-.001-.213-.015-.39-.016-.391-.381-.42-.088-.007-.177-.006-.266-.007-.205 0-.274-.111-.275-.305 0-.211.066-.34.301-.339 1.03.002 2.06.005 3.089-.003.26-.002.337.145.341.472.848-.607 1.704-.676 2.587-.6 1.259.108 2.106.848 2.38 2.075.1.453.126.911.125 1.375-.003 4.58-.002 9.159-.002 13.738v.426c.003.39-.067.53.491.525.34-.004.39.072.39.35zm-23.891-22.68c0-.213.015-.426-.052-.634-.205-.635-.867-1.063-1.533-.987-.715.082-1.243.632-1.283 1.34-.009.16-.003.32-.003.48v10.278c0 3.462.001 6.923-.001 10.385 0 .305.018.6.173.875.325.579.95.878 1.57.739.644-.144 1.12-.702 1.125-1.374.012-1.616 0-3.231.006-4.846.003-.87-.105-.791.802-.796.568-.003 1.136.008 1.704-.002.274-.004.372.11.37.38-.01 1.295.011 2.591-.015 3.887-.013.674-.28 1.276-.708 1.801-1.794 2.203-5.431 2.183-7.201-.041-.471-.592-.697-1.27-.698-2.024V760.254c0-2.106 1.122-3.547 3.176-3.988 1.577-.338 3.037-.06 4.285 1.028.735.64 1.145 1.44 1.155 2.421.012 1.207.007 2.414.002 3.621-.002.46-.01.467-.485.472-.64.006-1.279.006-1.918 0-.46-.006-.467-.013-.469-.49-.003-1.632 0-3.265-.002-4.899zm-15.923 20.908c0 .247-.02.498-.07.739-.112.53-.446.777-.985.777-.413 0-.75-.176-1.07-.414-.206-.153-.194-.361-.194-.574v-7.77-7.662c0-.657.435-1.063 1.188-1.115.637-.043.993.266 1.093.962.028.192.04.388.04.583.002 4.824.002 9.65-.002 14.474zm.287-16.718c-.886-.075-1.739.006-2.533.56-.077-.265-.157-.443-.454-.437-.994.022-1.988.01-2.982.008-.202 0-.333.046-.347.292-.014.26.1.334.335.358.582.059.581.067.585.663v20.928c0 .142-.006.284-.003.426.007.235-.085.372-.34.363-.088-.003-.177.008-.265.007-.224-.003-.307.104-.312.327-.005.275.145.327.37.326.78-.002 1.561.001 2.342.001.515 0 1.03.007 1.544-.006.309-.007.362-.095.343-.393-.02-.307-.247-.242-.43-.258-.445-.037-.455-.036-.457-.448-.005-1.314-.003-2.627.001-3.94 0-.113-.046-.255.15-.341.691.44 1.48.575 2.315.519 1.41-.095 2.307-.88 2.56-2.264.062-.333.098-.666.098-1.005-.002-4.154-.003-8.308 0-12.461.001-.394-.047-.78-.133-1.161-.277-1.23-1.127-1.958-2.387-2.064zm-18.024-25.064c-.122-.008-.249-.02-.344-.13.006-.046-.003-.107.021-.148.7-1.22 1.67-2.108 3.08-2.407.919-.195 1.702.261 2.04 1.128.193.493.078.854-.36 1.147-.411.276-.888.354-1.36.412-1.024.126-2.051.066-3.077-.002zm-.506-1.476c-.212-.433-.237-.91-.295-1.377-.107-.866-.128-1.734.04-2.597.038-.191.087-.382.153-.564.37-1.016 1.073-1.41 2.126-1.202.491.097.663.327.582.831-.065.404-.205.79-.374 1.163-.285.631-.62 1.237-.972 1.834-.324.55-.657 1.096-.991 1.64-.062.101-.096.236-.27.272zm-5.626 2.584c-.404.751-.94 1.409-1.55 2.153-.456-1.255-.542-2.38.162-3.455.324-.492.718-.579 1.188-.333.314.164.47.419.453.775-.014.307-.11.593-.253.86zm-1.312 4.094c.301-.113.612-.177.935-.178.753-.004 1.262.397 1.456 1.145.163.632-.093 1.22-.708 1.57-.554.314-1.16.426-1.745.4-.938.003-1.763-.236-2.522-.696-.324-.196-.335-.246-.064-.502.778-.736 1.633-1.362 2.648-1.74zm-2.967-.136c-.135-.003-.187-.05-.227-.108-.788-1.109-1.418-2.29-1.678-3.64-.04-.207-.048-.425-.037-.635.038-.733.518-1.22 1.25-1.27.498-.034.849.203 1.075.635.184.352.264.737.29 1.126.083 1.273-.093 2.51-.568 3.699-.026.064-.066.123-.105.193zm-4.56 15.072c0-.811-.01-.715.724-.722.195-.002.391-.006.586.007.772.053 1.319.605 1.366 1.372.005.07.002.142.002.213 0 6.854 0 13.707.004 20.56 0 .426-.085.81-.367 1.137-.217.25-.482.437-.813.463-.406.032-.815.017-1.223.022-.172.002-.266-.08-.27-.255-.004-.177-.01-.355-.01-.532v-11.08-11.185zm-12.794-10.276c-.108.97-.318 1.92-.539 2.868-.13.562-.215 1.133-.323 1.75-.228-.136-.278-.294-.346-.434-.58-1.184-1-2.419-1.153-3.735-.048-.409-.03-.816.073-1.213.153-.596.507-1 1.133-1.132.593-.125.968.1 1.113.683.1.4.087.806.042 1.213zm-4.295 7.352c-.486.177-.978.31-1.506.215-.553-.098-.87-.455-1.042-.951-.12-.346-.036-.666.243-.919.2-.18.425-.322.68-.403 1.514-.485 3.002-.408 4.462.212.127.055.265.105.389.301-1.11.485-2.108 1.139-3.226 1.545zm-1.447-5.784c-.188-.164-.354-.35-.482-.565-.349-.587-.183-1.206.412-1.548.201-.117.4-.124.607-.016.178.092.323.225.44.38.704.938 1.07 2.022 1.35 3.158-.855-.37-1.642-.808-2.327-1.409zm-.178.73c.22.002.318.09.443.221-.197.006-.322-.045-.443-.222zm3.242-.273c-.01-.007-.021-.012-.027-.02l-.002-.006.03.026zm-7.353-1.41c-1.158-.579-2.076-1.325-2.598-2.473-.316-.696-.146-1.324.394-1.712.34-.244.636-.25.98-.005.1.07.193.156.275.249.762.859 1.22 2.688.949 3.94zm-.626 1.713c-.747.789-1.621 1.378-2.693 1.633-.17.041-.351.056-.527.059-.714.012-1.13-.282-1.272-.884-.155-.663.118-1.282.697-1.576.442-.224.92-.252 1.401-.25.796.006 1.545.214 2.266.531.351.154.374.228.128.487zm18.377-27.226c-.074.177-.17.346-.309.624-.273-.522-.299-.983-.368-1.43-.195-1.248-.263-2.504-.165-3.764.085-1.105.954-2.168 1.987-2.458.102-.028.207-.054.311-.063.482-.04.743.175.78.653.023.3.008.6-.066.898-.11.448-.239.892-.414 1.318-.578 1.41-1.167 2.816-1.756 4.222zm-.92 12.994c-1.405-.606-2.775-1.274-3.984-2.23-.42-.331-.804-.697-1.093-1.153-.498-.786-.424-1.45.231-2.116.239-.243.51-.445.815-.591.59-.284 1.165-.253 1.714.123.388.267.682.62.934 1.01.712 1.101 1.13 2.325 1.459 3.582.12.457.267.912.251 1.378-.133.09-.233.038-.328-.003zm-.285-13.616c-.08-.005-.124.005-.146-.012-.941-.737-1.784-1.568-2.414-2.594-.091-.15-.164-.315-.221-.481-.152-.442-.07-.792.218-1.015.354-.273.839-.31 1.2-.089.265.163.437.411.588.674.408.704.568 1.486.692 2.275.063.4.15.802.083 1.242zm1.64 4.97c.081-.868.228-1.83.691-2.714.226-.43.509-.814.913-1.093.145-.1.299-.196.462-.26.57-.223.954.013.998.618.016.21.007.429-.035.635-.265 1.295-.943 2.321-2.043 3.06-.146.098-.308.178-.47.245-.488.199-.535.16-.516-.491zm.235 4.893c.074-.761.239-1.505.658-2.167.066-.104.133-.21.21-.307.396-.506.901-.681 1.393-.486.568.225.917.779.859 1.388-.04.427-.165.833-.364 1.214-.563 1.08-1.324 2.007-2.19 2.854-.05.048-.103.1-.227.069-.331-.811-.425-1.68-.339-2.565zm24.69 3.903c-.462-.93-1.18-1.434-2.25-1.386-.411.018-.812.084-1.214.153-.115.02-.234.093-.347-.015-.004-.175.122-.29.198-.426.4-.717.706-1.47.89-2.273.081-.35.091-.705.054-1.059s-.199-.64-.547-.79c-.87-.372-2.533.024-3.025.959-.235.446-.381.914-.474 1.405-.222 1.178-.176 2.369-.165 3.558.003.336-.016.673-.017 1.01 0 .329-.148.506-.473.607-.75.232-1.44.602-2.105 1.014-.528.328-1.04.679-1.56 1.019-.038.033-.083.068-.127.027-.045-.04-.013-.089.014-.13.109-.243.233-.48.324-.729.228-.618.171-1.225-.14-1.8-.431-.8-1.249-.917-1.891-.272-.137.137-.258.293-.366.455-.384.573-.588 1.208-.623 1.898-.04.783-.01 1.561.135 2.334.025.136.107.29-.01.406-.348.345-.708.678-1.133.95-.085-.197-.027-.332-.002-.47.279-1.53.352-3.065.18-4.612-.066-.59-.388-.972-.895-1.23-.343-.174-.707-.225-1.086-.197-.628.046-1.067.35-1.297.942-.256.66-.327 1.337-.221 2.04.106.707.35 1.373.585 2.043.13.368.255.738.37 1.11.358 1.17.12 2.213-.698 3.116-.464.513-.968.99-1.423 1.512-.416.476-.898.854-1.446 1.158-1.104.613-2.308.99-3.47 1.51-.15-.34-.19-.677-.247-1.007-.194-1.142-.16-2.3-.247-3.45-.172-2.24-.115-4.47.25-6.688.295-1.799.759-3.53 1.871-5.04.623-.844 1.05-1.81 1.379-2.81.163-.495.252-1 .164-1.52-.102-.603-.449-.948-1.054-1.03-.774-.104-1.44.124-1.973.701-.212.23-.408.473-.61.71-.16-.117-.172-.263-.211-.394-.185-.618-.184-.618.401-.93.816-.434 1.62-.891 2.34-1.472 1.063-.855 1.433-2 1.3-3.317-.08-.788-.81-1.358-1.565-1.287-.363.033-.685.175-.98.384-.66.465-1.103 1.093-1.405 1.833-.098.24-.139.512-.333.711-.1-.08-.064-.171-.065-.25-.002-.087.006-.177.027-.261.258-1.052.576-2.084 1.016-3.077.352-.795.689-1.597 1.023-2.4.383-.918.748-1.847.92-2.83.204-1.17-.476-1.812-1.643-1.589-.28.054-.545.157-.801.283-.472.23-.85.576-1.204.953-.267.285-.54.564-.802.854-.222.247-.46.281-.76.136-.285-.14-.56-.302-.878-.375-1.01-.231-1.87.399-1.935 1.432-.016.267.008.529.08.79.256.923.719 1.736 1.312 2.477.432.54.877 1.071 1.327 1.598.514.603.89 1.282 1.117 2.04.79 2.64 1.087 5.349 1.078 8.096 0 .119.024.254-.118.34-.207-.066-.258-.271-.351-.432-.385-.66-.683-1.364-.998-2.059-.162-.356-.342-.702-.561-1.026-.646-.953-1.535-1.384-2.688-1.272-1.663.16-2.797 1.475-2.623 3.078.081.743.389 1.395.897 1.95.501.55 1.115.932 1.79 1.221.963.413 1.944.783 2.89 1.228 1.403.658 2.022 1.87 1.807 3.395-.122.861-.224 1.726-.245 2.596-.054 2.185.032 4.367.138 6.548.146 2.979.314 5.956.328 8.94.008 1.583-.162 3.154-.278 4.73-.006.085.005.189-.083.239-.12.068-.196-.037-.273-.1-.263-.217-.458-.492-.647-.773-.7-1.036-1.17-2.189-1.692-3.315-.532-1.148-1.256-2.132-2.328-2.847-.88-.587-1.416-1.433-1.675-2.45-.331-1.304-.404-2.627-.255-3.963.066-.582.137-1.165.124-1.752-.01-.463-.06-.922-.244-1.354-.264-.617-.743-.935-1.403-.977-1.062-.068-1.986.668-2.16 1.723-.07.42-.07.845-.052 1.274.025.557.232 1.085.246 1.641-.332-.536-.525-1.137-.805-1.698-.341-.684-.806-1.257-1.485-1.624-.453-.245-.927-.282-1.345.074-.478.407-.748.941-.832 1.562-.048.35.072.663.275.948.209.293.478.523.743.76.094.084.257.137.206.318-.094.05-.177.017-.26-.015-1.124-.427-1.986-1.154-2.557-2.217-.344-.643-.646-1.304-.914-1.981-.27-.679-.59-1.332-.985-1.945-.387-.602-1.081-.835-1.771-.626-.656.199-1.02.705-1.035 1.441-.005.268.03.528.095.79.182.738.586 1.364.97 2.004.38.635.327.728-.41.767-.213.012-.426.003-.64 0-.248-.006-.496-.017-.744-.024-.54-.015-1.01.17-1.426.502-.92.736-1.29 2.41.374 3.148.966.429 1.945.508 2.953.154.724-.253 1.401-.603 2.073-.966.455-.245.923-.455 1.42-.598 1.624-.468 2.885.219 4.086 1.25-.236.202-.483.257-.709.352-.574.24-1.146.483-1.634.88-.557.455-.672.892-.404 1.558.392.97 1.345 1.672 2.574 1.302 1.208-.363 2.403-.763 3.563-1.255.802-.34 1.52-.257 2.196.272.378.295.742.607 1.124.897 1.518 1.152 2.536 2.637 3.137 4.452.529 1.599 1.166 3.163 1.756 4.742.387 1.035.686 2.097.759 3.201.204 3.1.421 6.198.757 9.286.144 1.323.298 2.644.608 3.943.065.272.153.4.44.398 1.721-.02 3.445.063 5.165-.04 2.221-.132 3.766-1.807 3.766-4.016v-15.66c0-.55.002-1.1 0-1.65-.008-1.189-.517-2.113-1.47-2.81-.784-.573-1.654-.89-2.625-.897-1.598-.012-3.196-.008-4.794-.01-.053 0-.106.004-.16.003-.2-.004-.283.093-.283.293 0 .203.037.354.284.349.106-.002.213.008.32.006.201-.003.288.104.293.295.002.088.006.177.006.266 0 5.947 0 11.895-.002 17.843 0 .146.05.313-.089.434-.127-.053-.138-.168-.161-.265-.617-2.538-1.076-5.102-1.321-7.705-.138-1.459.008-2.91.068-4.362.11-2.715.224-5.428.143-8.146-.019-.62-.076-1.241-.067-1.862.022-1.69.73-3.008 2.19-3.896.516-.313 1.033-.624 1.555-.928.788-.458 1.492-1.002 2.073-1.724.714-.888 2.16-1.524 3.51-.964.294.122.603.21.909.301.953.286 1.894.23 2.819-.12 1.216-.463 2.194-1.973 2.112-3.246-.024-.371-.22-.615-.606-.715-.276-.07-.56-.081-.846-.066-.516.028-1.023.11-1.528.212-.248.05-.502.114-.755.047.002-.174.112-.218.188-.284.548-.479 1.098-.955 1.649-1.431.51-.442 1.021-.88 1.571-1.273 1.245-.89 2.633-1.222 4.136-1.029.851.11 1.699.12 2.55.074.748-.041 1.482-.172 2.183-.444 1.245-.483 1.48-1.115.88-2.323z" transform="translate(-630 -5352) translate(-1.808 4637.566)"/>
            </g>
        </g>
    </g>
</svg>
