<svg xmlns="http://www.w3.org/2000/svg" width="26" height="16" viewBox="0 0 26 16">
    <g fill="none" fill-rule="evenodd">
        <g fill="#3385F6" fill-rule="nonzero">
            <g>
                <g>
                    <path d="M19.913 8.028c-.388-.49-.277-.708 0-1.146.005-.005 3.207-4.43 3.537-5.93l.002-.001c.164-.547 0-.949-.793-.949h-2.623c-.668 0-.976.345-1.14.731 0 0-1.336 3.197-3.226 5.27-.61.598-.891.79-1.224.79-.164 0-.42-.192-.42-.739V.951c0-.656-.186-.949-.739-.949H9.162c-.419 0-.667.306-.667.591 0 .622.944.765 1.042 2.514v3.796c0 .832-.15.985-.486.985-.891 0-3.056-3.21-4.338-6.884-.26-.713-.512-1-1.185-1H.904c-.749 0-.9.344-.9.73 0 .682.892 4.072 4.147 8.55 2.17 3.057 5.224 4.714 8.003 4.714 1.67 0 1.875-.368 1.875-1.001 0-2.921-.151-3.197.686-3.197.387 0 1.055.192 2.615 1.667 1.782 1.748 2.075 2.53 3.073 2.53h2.623c.748 0 1.126-.367.909-1.093-.5-1.526-3.87-4.666-4.022-4.876z" transform="translate(-1974 -4900) translate(-1.808 4637.566) translate(1976.61 263.343)"/>
                </g>
            </g>
        </g>
    </g>
</svg>
