<?xml version="1.0" encoding="utf-8"?>
<!-- Generator: Adobe Illustrator 22.1.0, SVG Export Plug-In . SVG Version: 6.00 Build 0)  -->
<svg version="1.1" id="Слой_1" xmlns="http://www.w3.org/2000/svg" xmlns:xlink="http://www.w3.org/1999/xlink" x="0px" y="0px"
	 viewBox="0 0 1113 1280" style="enable-background:new 0 0 1113 1280;" xml:space="preserve">
<g transform="translate(0.000000,1280.000000) scale(0.100000,-0.100000)">
	<path d="M10820,12599c-2129-1224-3620-2406-5276-4179c-538-576-1143-1269-1469-1680c-108-138-113-142-135-134c-71,27-260,65-364,74
		c-609,52-1284-270-1970-940c-301-294-565-608-833-990c-152-216-441-692-424-698c5-1,80,27,167,64c436,182,671,244,925,244
		c201,0,388-44,576-136c95-47,268-158,337-217l38-33l-35-114c-49-157-74-258-97-395c-31-179-38-159,100-280c66-58,122-105,124-105
		c3,0,82,98,177,217c582,732,1514,1819,1820,2120c221,219,338,278,408,209c22-23,26-35,26-84c-2-137-136-330-587-840
		c-96-108-255-291-353-407c-322-379-707-805-1103-1219c-166-174-171-180-154-199c9-11,61-57,114-104l98-85l52,12
		c124,30,381,126,520,196c37,19,74,34,82,34c16,0,182-171,243-250c168-221,260-449,284-708c21-225-10-448-121-866
		c-28-104-48-191-46-193c6-6,210,153,376,293c201,169,429,383,597,560c845,891,1273,1756,1222,2473c-14,201-53,358-134,535l-35,77
		l128,137c288,306,466,506,773,862c1461,1699,2373,3015,3191,4610c328,640,645,1348,1015,2268c3,6,1,12-3,12
		C11069,12740,10955,12677,10820,12599z M8462,10037c373-135,481-604,203-882c-103-103-233-157-380-157c-282,0-513,215-532,494
		c-19,271,163,510,432,568C8254,10075,8388,10064,8462,10037z"/>
	<path d="M8635,9431c-34-34-134-89-204-113c-53-18-88-23-176-23c-125,0-200,20-300,81c-32,19-60,32-62,30c-3-2,5-23,17-46
		c33-65,112-137,188-173c62-30,75-32,172-32c88,0,113,4,155,23c107,49,186,129,230,235C8672,9454,8665,9460,8635,9431z"/>
	<path d="M4680,5473c-78-29-270-217-571-558c-754-855-1485-1757-1974-2435l-40-55l33,24c54,38,820,806,1043,1046
		c359,386,550,600,881,985c96,113,233,270,303,350c295,335,405,494,405,584C4760,5473,4733,5493,4680,5473z"/>
</g>
</svg>
