<svg width="29" height="9" viewBox="0 0 29 9" fill="none" xmlns="http://www.w3.org/2000/svg">
<path d="M12.336 8.75375H10.0547L11.4816 0.575195H13.7628L12.336 8.75375Z" fill="black"/>
<path d="M20.6051 0.774952C20.1551 0.60947 19.4414 0.426758 18.5589 0.426758C16.306 0.426758 14.7196 1.54038 14.7098 3.13251C14.6911 4.30719 15.8457 4.95963 16.7092 5.35131C17.5919 5.75154 17.8919 6.01277 17.8919 6.36952C17.8829 6.91743 17.1787 7.16999 16.5219 7.16999C15.611 7.16999 15.123 7.03978 14.3814 6.73495L14.081 6.60427L13.7617 8.44018C14.2968 8.66614 15.2826 8.86666 16.306 8.87545C18.6998 8.87545 20.2582 7.77907 20.2767 6.08239C20.2858 5.15137 19.6761 4.43798 18.3617 3.85504C17.5638 3.48082 17.0751 3.2285 17.0751 2.84561C17.0845 2.49753 17.4884 2.14101 18.3892 2.14101C19.1308 2.12355 19.6757 2.2888 20.0885 2.45417L20.2949 2.54101L20.6051 0.774952Z" fill="black"/>
<path d="M23.639 5.85638C23.8269 5.38653 24.5498 3.56809 24.5498 3.56809C24.5403 3.58555 24.7373 3.08957 24.85 2.78509L25.0094 3.4898C25.0094 3.4898 25.4414 5.44748 25.5352 5.85638C25.1787 5.85638 24.0896 5.85638 23.639 5.85638ZM26.455 0.575195H24.6904C24.1462 0.575195 23.7328 0.722984 23.498 1.25377L20.1094 8.75364H22.5031C22.5031 8.75364 22.8972 7.74421 22.9819 7.52681C23.2445 7.52681 25.5731 7.52681 25.911 7.52681C25.9765 7.81394 26.1832 8.75364 26.1832 8.75364H28.2955L26.455 0.575195Z" fill="black"/>
<path d="M8.15197 0.575195L5.91778 6.15219L5.67364 5.02111C5.26059 3.71599 3.96516 2.29801 2.51953 1.59295L4.56597 8.74508H6.97843L10.5643 0.575195H8.15197Z" fill="black"/>
<path d="M3.84082 0.575195H0.170363L0.132812 0.740445C2.996 1.41914 4.89224 3.05511 5.67131 5.02146L4.8734 1.26268C4.74203 0.74033 4.33834 0.592426 3.84082 0.575195Z" fill="black"/>
</svg>
