<?xml version="1.0" encoding="UTF-8"?>
<svg width="601px" height="293px" viewBox="0 0 601 293" version="1.1" xmlns="http://www.w3.org/2000/svg" xmlns:xlink="http://www.w3.org/1999/xlink">
    <title>9B2FD067-2984-4825-893E-0A0387EB70ED</title>
    <defs>
        <polygon id="path-1" points="0 0.0114877813 554.540197 0.0114877813 554.540197 1.48229436 0 1.48229436"></polygon>
    </defs>
    <g id="Page-1" stroke="none" stroke-width="1" fill="none" fill-rule="evenodd">
        <g id="Сollection" transform="translate(-1334.000000, -1152.000000)">
            <g id="Group-27" transform="translate(1334.000000, 1152.000000)">
                <g id="Group-155" transform="translate(9.222615, 0.000000)">
                    <g id="Group-3" transform="translate(27.978306, 0.135259)" fill="#EFF2FE">
                        <path d="M477.773691,291.628001 L427.497231,291.628001 L412.78231,291.58909 L281.023944,291.58909 L242.544509,291.548327 L141.103695,291.548327 L98.7345339,291.509232 L22.1152945,291.509232 C22.1152945,291.509232 21.988373,291.189797 21.7343448,290.551114 L21.6920994,290.471255 C21.6920994,290.471255 21.6496688,290.391396 21.6496688,290.352301 C21.4805019,290.033052 -46.0531996,200.241589 58.9377097,137.734348 C100.016904,113.277417 302.446438,-165.792769 517.54872,149.694936 C580.180804,241.556595 507.976025,289.755874 507.657857,290.356007 C507.488691,290.754188 477.985289,291.229819 477.773691,291.628001 Z" id="Fill-1"></path>
                    </g>
                    <path d="M371.851864,104.740699 L371.851864,104.740699 C371.27414,104.740699 370.805735,104.272479 370.805735,103.694569 L370.805735,58.327283 C370.805735,57.7495587 371.27414,57.2811537 371.851864,57.2811537 C372.429588,57.2811537 372.897994,57.7495587 372.897994,58.327283 L372.897994,103.694569 C372.897994,104.272479 372.429588,104.740699 371.851864,104.740699" id="Fill-4" fill="#8EB0F2"></path>
                    <g id="Group-8" transform="translate(0.000000, 290.442943)">
                        <mask id="mask-2" fill="white">
                            <use xlink:href="#path-1"></use>
                        </mask>
                        <g id="Clip-7"></g>
                        <path d="M553.911889,1.48229436 L0.628288992,1.48229436 C0.28272912,1.48229436 -1.85286794e-05,1.199732 -1.85286794e-05,0.853986836 L-1.85286794e-05,0.639610015 C-1.85286794e-05,0.294050143 0.28272912,0.0114877813 0.628288992,0.0114877813 L553.911889,0.0114877813 C554.257264,0.0114877813 554.540197,0.294050143 554.540197,0.639610015 L554.540197,0.853986836 C554.540197,1.199732 554.257264,1.48229436 553.911889,1.48229436" id="Fill-6" fill="#2D3554" mask="url(#mask-2)"></path>
                    </g>
                    <path d="M184.935028,225.624231 C184.428639,225.624231 183.908168,225.473407 183.480341,225.178801 C182.857407,224.749492 182.396784,223.945162 182.971914,222.974444 C183.79292,221.589055 183.968757,219.910171 183.970239,219.893495 L184.276333,219.913692 C184.269477,219.984101 184.095123,221.654276 183.248918,223.082281 C182.824611,223.798415 182.98544,224.511028 183.679154,224.988882 C184.333031,225.438944 185.230745,225.503238 185.862388,225.144338 L186.03841,225.348339 C185.712491,225.53344 185.328021,225.624231 184.935028,225.624231" id="Fill-9" fill="#FF922B"></path>
                    <path d="M409.249224,118.820327 L409.249224,278.916641 C409.249224,281.724662 408.229406,284.292737 406.541814,286.270674 C404.463267,288.71053 401.362492,290.258787 397.904855,290.258787 L144.392498,290.258787 C138.403473,290.258787 133.475771,285.795043 132.883409,280.07598 C132.853763,279.790268 132.83542,279.501962 132.828564,279.209394 C132.824117,279.111192 132.824117,279.015028 132.824117,278.916641 L132.824117,239.802598 C132.824117,239.498728 132.837643,239.196711 132.860619,238.897287 C134.9803,236.455022 138.138328,234.904727 141.666744,234.904727 L297.137002,234.904727 C304.35837,234.904727 310.333499,229.661296 311.316816,222.842186 C311.410571,222.195165 311.458745,221.534432 311.458745,220.857394 L311.458745,184.345705 C311.458745,182.790778 311.186559,181.297367 310.685729,179.909383 C308.824338,174.741549 303.798248,171.03711 297.891676,171.03711 L242.560407,171.03711 C230.614596,171.03711 220.169053,179.328694 214.502613,190.066991 C212.860786,193.167765 211.621403,196.476617 210.86673,199.847354 C209.885636,200.592578 208.660149,201.031707 207.333681,201.031707 L157.80615,201.031707 C152.501019,201.031707 148.197548,196.812727 148.197548,191.610615 L148.197548,119.270759 C148.197548,118.40195 148.270551,117.546666 148.414704,116.716581 C151.279979,112.785721 155.972367,110.224687 161.27509,110.224687 L396.6223,110.224687 C401.746592,110.224687 406.28093,112.687334 409.066346,116.472002 C409.187524,117.235754 409.249224,118.022297 409.249224,118.820327" id="Fill-11" fill="#C5CAE1"></path>
                    <path d="M409.249224,118.820327 L409.249224,278.916641 C409.249224,281.724662 408.229406,284.292737 406.541814,286.270674 C404.463267,288.71053 401.362492,290.258787 397.904855,290.258787 L144.170525,290.258787 C138.293783,290.258787 133.464283,285.795043 132.883409,280.07598 C132.853763,279.790268 132.83542,279.501962 132.828564,279.209394 C132.824117,279.111192 132.824117,279.015028 132.824117,278.916641 L132.824117,239.802598 C132.824117,239.498728 132.837643,239.196711 132.860619,238.897287 C133.320315,233.052415 138.206884,228.458414 144.170525,228.458414 L296.638396,228.458414 C301.232397,228.458414 305.309632,226.251834 307.873075,222.842186 C309.640526,220.496085 310.685729,217.575965 310.685729,214.411267 L310.685729,177.897169 C310.685729,175.39098 309.992941,173.044693 308.785427,171.041743 C306.462116,167.174992 302.222569,164.588759 297.379358,164.588759 L243.113673,164.588759 C229.139713,164.588759 217.258012,176.39264 212.926934,190.066991 C212.300479,192.047336 211.82948,194.06863 211.534503,196.099373 C211.312715,197.633733 210.505421,198.957792 209.359792,199.847354 C208.399451,200.592578 207.196569,201.031707 205.897709,201.031707 L157.323664,201.031707 C152.121366,201.031707 147.902386,196.812727 147.902386,191.610615 L147.902386,119.270759 C147.902386,118.40195 147.973351,117.546666 148.112872,116.716581 C149.329465,109.374036 155.70926,103.776151 163.397179,103.776151 L394.205048,103.776151 C399.33879,103.776151 403.873128,106.351082 406.58758,110.2749 C407.842898,112.092934 408.709669,114.19668 409.066346,116.472002 C409.187524,117.235754 409.249224,118.022297 409.249224,118.820327" id="Fill-13" fill="#FFFFFF"></path>
                    <polygon id="Fill-15" fill="#464462" points="183.110416 219.905743 188.485401 219.905743 188.485401 200.922555 183.110416 200.922555"></polygon>
                    <polygon id="Fill-17" fill="#264690" points="188.485401 208.862094 194.781816 208.862094 194.781816 205.48376 188.485401 205.48376"></polygon>
                    <path d="M194.140391,207.172816 C194.140391,205.419262 195.561911,203.997556 197.31565,203.997556 C199.06939,203.997556 200.491095,205.419262 200.491095,207.172816 C200.491095,208.926555 199.06939,210.348261 197.31565,210.348261 C195.561911,210.348261 194.140391,208.926555 194.140391,207.172816" id="Fill-18" fill="#264690"></path>
                    <polygon id="Fill-19" fill="#264690" points="180.346308 216.463299 183.878244 216.463299 183.878244 213.680477 180.346308 213.680477"></polygon>
                    <polygon id="Fill-20" fill="#264690" points="193.220405 103.666999 201.410822 103.666999 201.410822 98.3433385 193.220405 98.3433385"></polygon>
                    <path d="M381.383462,100.28205 L363.268157,100.28205 C361.484586,100.28205 360.066957,98.7843766 360.169791,97.0030294 L360.464953,91.9219096 L360.466991,91.8739203 L360.665989,88.4483381 L361.217218,78.901436 L361.393055,75.8944166 L361.814026,68.5976373 L361.969482,65.9313604 C362.063422,64.2917575 363.421575,63.0088318 365.063401,63.0088318 L379.270636,63.0088318 C379.77369,63.0088318 380.249321,63.1277859 380.670108,63.3427186 C381.616738,63.8229819 382.286735,64.7742443 382.366779,65.8993058 L382.513341,68.0395535 L382.931533,74.1999689 L382.998051,75.1717981 L383.686206,85.3132855 L384.237249,93.4266237 L384.479789,96.9709748 C384.600967,98.7638098 383.17852,100.28205 381.383462,100.28205 L415.034101,55.4633606" id="Fill-21" fill="#4C55CE"></path>
                    <polygon id="Fill-22" fill="#9AAFFA" points="197.57155 187.771806 185.542175 187.771806 185.542175 103.66698 186.053752 103.66698 186.053752 187.260229 197.059973 187.260229 197.059973 103.571002 197.57155 103.571002"></polygon>
                    <path d="M417.55817,172.648679 L409.250095,172.648679 L409.250095,127.357175 L417.55817,127.357175 C419.358602,127.357175 420.818106,128.816679 420.818106,130.616926 L420.818106,169.388744 C420.818106,171.189175 419.358602,172.648679 417.55817,172.648679" id="Fill-23" fill="#5456B0"></path>
                    <polygon id="Fill-24" fill="#9AAFFA" points="165.961752 228.34815 204.251824 228.34815 204.251824 227.444136 165.961752 227.444136"></polygon>
                    <polygon id="Fill-25" fill="#5456B0" points="185.797945 134.790363 182.11222 130.490412 182.11222 103.666999 185.797945 103.666999"></polygon>
                    <polygon id="Fill-26" fill="#9AAFFA" points="185.54212 200.92274 186.053697 200.92274 186.053697 187.516129 185.54212 187.516129"></polygon>
                    <polygon id="Fill-27" fill="#9AAFFA" points="132.824692 279.061146 409.250169 279.061146 409.250169 278.549384 132.824692 278.549384"></polygon>
                    <path d="M211.623311,117.181058 C211.623311,116.050252 212.539925,115.133453 213.670916,115.133453 C214.801721,115.133453 215.71852,116.050252 215.71852,117.181058 C215.71852,118.312048 214.801721,119.228662 213.670916,119.228662 C212.539925,119.228662 211.623311,118.312048 211.623311,117.181058" id="Fill-28" fill="#264690"></path>
                    <path d="M219.660126,117.181058 C219.660126,116.050252 220.57674,115.133453 221.70773,115.133453 C222.838536,115.133453 223.755335,116.050252 223.755335,117.181058 C223.755335,118.312048 222.838536,119.228662 221.70773,119.228662 C220.57674,119.228662 219.660126,118.312048 219.660126,117.181058" id="Fill-29" fill="#264690"></path>
                    <path d="M227.696941,117.181058 C227.696941,116.050252 228.613555,115.133453 229.744545,115.133453 C230.87535,115.133453 231.79215,116.050252 231.79215,117.181058 C231.79215,118.312048 230.87535,119.228662 229.744545,119.228662 C228.613555,119.228662 227.696941,118.312048 227.696941,117.181058" id="Fill-30" fill="#264690"></path>
                    <polygon id="Fill-31" fill="#5456B0" points="196.675818 100.237155 198.006733 100.237155 198.006733 93.0706322 196.675818 93.0706322"></polygon>
                    <polygon id="Fill-32" fill="#264690" points="186.003132 227.444173 185.877878 227.444173 185.458574 219.90578 186.442262 219.90578"></polygon>
                    <polygon id="Fill-33" fill="#264690" points="187.549035 227.444173 187.423967 227.444173 187.004477 219.90578 187.98835 219.90578"></polygon>
                    <path d="M188.074138,227.444173 L185.254073,227.444173 C184.720262,227.444173 184.285764,226.971136 184.285764,226.390077 C184.285764,226.215351 184.415835,226.073792 184.576294,226.073792 C184.736752,226.073792 184.866824,226.215351 184.866824,226.390077 C184.866824,226.622426 185.040437,226.811604 185.254073,226.811604 L188.074138,226.811604 C188.287774,226.811604 188.461387,226.622426 188.461387,226.390077 C188.461387,226.215351 188.591459,226.073792 188.751917,226.073792 C188.912375,226.073792 189.042447,226.215351 189.042447,226.390077 C189.042447,226.971136 188.607949,227.444173 188.074138,227.444173" id="Fill-34" fill="#324790"></path>
                    <path d="M370.257397,234.08337 L361.399206,234.08337 C359.234871,234.08337 357.463715,232.312398 357.463715,230.148063 C357.463715,227.983358 359.234871,226.212572 361.399206,226.212572 L370.257397,226.212572 C372.422103,226.212572 374.192889,227.983358 374.192889,230.148063 C374.192889,232.312398 372.422103,234.08337 370.257397,234.08337" id="Fill-35" fill="#FF6755"></path>
                    <path d="M361.303376,226.468156 C359.327292,226.468156 357.719744,228.07589 357.719744,230.051974 L357.719744,230.243931 C357.719744,232.220014 359.327292,233.827748 361.303376,233.827748 L388.121972,233.827748 C390.098055,233.827748 391.705604,232.220014 391.705604,230.243931 L391.705604,230.051974 C391.705604,228.07589 390.098055,226.468156 388.121972,226.468156 L361.303376,226.468156 Z M388.121972,234.339139 L361.303376,234.339139 C359.0451,234.339139 357.207982,232.502021 357.207982,230.243931 L357.207982,230.051974 C357.207982,227.793698 359.0451,225.956394 361.303376,225.956394 L388.121972,225.956394 C390.380247,225.956394 392.217366,227.793698 392.217366,230.051974 L392.217366,230.243931 C392.217366,232.502021 390.380247,234.339139 388.121972,234.339139 L388.121972,234.339139 Z" id="Fill-36" fill="#7E8CCC"></path>
                    <path d="M360.946013,220.829935 L360.946013,220.829935 C360.347907,220.829935 359.858936,220.340778 359.858936,219.743042 L359.858936,216.16219 C359.858936,215.564269 360.347907,215.075112 360.946013,215.075112 C361.543934,215.075112 362.032906,215.564269 362.032906,216.16219 L362.032906,219.743042 C362.032906,220.340778 361.543934,220.829935 360.946013,220.829935" id="Fill-37" fill="#264690"></path>
                    <path d="M375.39603,220.829935 L375.39603,220.829935 C374.79811,220.829935 374.309138,220.340778 374.309138,219.743042 L374.309138,216.16219 C374.309138,215.564269 374.79811,215.075112 375.39603,215.075112 C375.994136,215.075112 376.483108,215.564269 376.483108,216.16219 L376.483108,219.743042 C376.483108,220.340778 375.994136,220.829935 375.39603,220.829935" id="Fill-38" fill="#264690"></path>
                    <path d="M389.846214,220.829935 L389.846214,220.829935 C389.248293,220.829935 388.759136,220.340778 388.759136,219.743042 L388.759136,216.16219 C388.759136,215.564269 389.248293,215.075112 389.846214,215.075112 C390.444134,215.075112 390.933106,215.564269 390.933106,216.16219 L390.933106,219.743042 C390.933106,220.340778 390.444134,220.829935 389.846214,220.829935" id="Fill-39" fill="#264690"></path>
                    <path d="M361.217959,78.9014175 C361.217959,78.9014175 370.835084,80.0149911 382.930606,74.2010621 L383.305071,79.7103796 C383.305071,79.7103796 377.527088,86.8615234 360.665619,88.4481343 L361.217959,78.9014175 Z" id="Fill-40" fill="#7E8CCC"></path>
                    <path d="M384.237323,93.4266237 C384.237323,93.4266237 381.154892,97.1492207 374.605745,100.28205 L363.268231,100.28205 C361.48466,100.28205 360.067031,98.7843766 360.16968,97.0030294 L360.464842,91.9219096 L360.467065,91.8739203 C360.467065,91.8739203 371.59187,91.1285116 383.686095,85.3132855 L384.237323,93.4266237 Z" id="Fill-41" fill="#7E8CCC"></path>
                    <path d="M382.513285,68.0396276 C380.473277,69.9193622 374.267281,74.5361532 361.393184,75.8944907 L361.813971,68.5975262 C366.142641,68.8309875 373.272662,68.2202823 380.670237,63.3427927 C381.616682,63.8230561 382.286679,64.7743185 382.366723,65.8993799 L382.513285,68.0396276 Z" id="Fill-42" fill="#7E8CCC"></path>
                    <path d="M185.877748,103.748858 L185.718216,103.585065 L196.627162,92.9584966 L196.670334,92.9564584 C234.696742,91.0861735 270.648124,81.3521318 271.00684,81.2539298 L271.067243,81.4746064 C270.708343,81.5726231 234.760296,91.306109 196.724623,93.1826936 L185.877748,103.748858 Z" id="Fill-43" fill="#4C55CE"></path>
                    <path d="M293.632432,128.730447 C293.941306,129.08453 293.980586,129.479932 293.82791,129.902571 C293.827725,129.904239 293.826613,129.906647 293.82476,129.908315 C293.542013,130.689484 292.607982,131.562185 291.522942,132.433403 C291.384348,132.545317 291.260947,132.647039 291.15348,132.74135 C291.125502,132.765993 291.097153,132.790822 291.070657,132.81565 C291.048793,132.83492 291.027671,132.854931 291.006733,132.873274 C289.995067,133.806008 290.375832,134.019644 288.557983,135.912163 C286.48555,138.068716 285.058471,138.107441 284.652508,137.911037 C284.309172,137.743723 285.006776,136.599948 285.779978,135.314428 C285.817406,135.252542 285.854278,135.189545 285.892818,135.126918 C285.995652,134.956083 286.09793,134.782655 286.200209,134.610709 C287.106261,133.063564 286.873355,132.33761 286.658793,130.035237 C286.484253,128.164025 283.747938,119.582097 283.747938,119.582097 L287.719931,118.898018 C287.719931,118.898018 288.915957,125.731765 290.233902,126.784194 C290.938548,127.345058 291.727499,127.352098 292.404722,127.768067 C292.452711,127.796787 292.499589,127.826618 292.545725,127.857005 C292.930566,128.112145 293.322633,128.375437 293.632432,128.730447" id="Fill-44" fill="#F5BEA5"></path>
                    <path d="M293.632432,128.730447 C293.941306,129.08453 293.980586,129.479932 293.82791,129.902571 C293.827725,129.904239 293.826613,129.906647 293.82476,129.908315 C293.478644,130.688743 292.56796,131.556997 291.519237,132.425436 C291.382124,132.539202 291.261132,132.643704 291.15348,132.74135 C291.125502,132.765993 291.097153,132.790822 291.070657,132.81565 C291.048793,132.83492 291.027671,132.854931 291.006733,132.873274 C289.995067,133.806008 290.375832,134.019644 288.557983,135.912163 C286.48555,138.068716 285.058471,138.107441 284.652508,137.911037 C284.309172,137.743723 285.006776,136.599948 285.779978,135.314428 C286.183533,135.166569 288.057709,134.405226 289.474597,132.592009 C290.722503,130.999469 291.554812,128.953347 292.404722,127.768067 C292.452711,127.796787 292.499589,127.826618 292.545725,127.857005 C292.930566,128.112145 293.322633,128.375437 293.632432,128.730447" id="Fill-45" fill="#1E3865"></path>
                    <path d="M261.605314,126.249716 C261.359994,127.475759 259.612369,127.271202 257.660002,126.794089 C255.70745,126.316975 256.171408,126.884138 253.392662,126.576562 C250.613916,126.268986 249.771972,125.232862 249.687296,124.819673 C249.611514,124.45299 250.984489,124.32366 252.457149,124.153937 C252.642435,124.13337 252.828463,124.110395 253.014491,124.087419 C254.677255,123.878786 255.895145,122.80579 257.405418,121.924566 C258.836017,121.089849 260.971077,117.689281 260.971077,117.689281 L264.782056,117.991113 C264.782056,117.991113 262.782255,121.02852 262.008683,122.349059 C261.553804,123.125966 261.577891,124.153011 261.634589,124.946038 C261.664049,125.377201 261.692213,125.817813 261.605314,126.249716" id="Fill-46" fill="#F5BEA5"></path>
                    <path d="M257.659928,126.794089 C255.707375,126.316975 256.171519,126.884138 253.392588,126.576562 C250.613842,126.268986 249.772084,125.232862 249.687222,124.819673 C249.61144,124.45299 250.984415,124.32366 252.45726,124.153937 L252.470971,124.182286 C252.470971,124.182286 254.13744,125.364045 256.450561,125.419446 C258.335854,125.465212 260.33269,124.925101 261.6347,124.946038 C261.664161,125.377201 261.692324,125.817813 261.605239,126.249716 C261.35992,127.475759 259.61248,127.271202 257.659928,126.794089" id="Fill-47" fill="#1E3865"></path>
                    <path d="M276.209693,101.881872 L279.772387,111.468054 L284.423271,123.985104 C284.423271,123.985104 285.685445,124.106837 286.894071,123.759239 C288.006903,123.437581 289.2839,122.596009 289.2839,122.596009 C289.2839,122.596009 287.992451,109.156416 285.583166,101.44163 C284.965791,99.4612849 284.273745,97.8596658 283.510178,96.957875 C279.775537,92.5441583 276.209693,101.881872 276.209693,101.881872" id="Fill-48" fill="#E85442"></path>
                    <path d="M279.831827,86.6575968 C282.1657,85.9047766 288.822313,86.8714178 295.509128,88.1802837 L296.909341,85.8710544 L311.352632,84.7430284 C311.352632,84.7430284 316.118764,95.312343 313.509555,102.046962 C313.126011,103.036764 312.363927,103.671742 311.064881,103.692494 C311.064325,103.69305 310.854766,103.691938 310.854025,103.692494 C310.854025,103.692494 302.257644,103.687491 299.466298,103.687491 C292.28347,103.687491 284.264814,98.7499689 283.227393,98.542633 C281.52961,98.2030023 280.850534,101.598753 279.152566,105.164227 C277.454783,108.729701 263.192888,120.954461 263.192888,120.954461 C263.192888,120.954461 261.000945,120.975861 260.095263,120.636416 C259.121581,120.271215 258.765275,119.796881 258.765275,119.796881 C258.765275,119.796881 274.568385,88.355565 279.831827,86.6575968" id="Fill-49" fill="#F87667"></path>
                    <path d="M294.316937,64.4890509 C298.672289,68.4263953 309.296078,75.4113369 309.357593,75.386879 C309.357593,75.386879 312.758162,77.6740592 315.207468,76.7674509 C319.289892,75.2564371 322.67119,69.3948894 317.497612,62.4431141 C314.917679,58.9762129 312.691273,57.7620285 313.458916,53.3723991 C314.290483,48.6164576 312.4441,42.4856882 306.948309,41.9446507 C306.488983,41.8994408 303.71876,41.3806377 301.694872,41.9014789 C296.537414,43.2283177 287.064256,61.6515689 294.316937,64.4890509" id="Fill-50" fill="#323055"></path>
                    <path d="M300.73051,61.8970184 C300.705126,61.9059121 303.142574,63.4515746 304.977839,63.1078676 C306.703971,62.7858391 308.375258,60.5431277 308.352468,60.5362721 C307.648934,60.3356065 307.134763,59.4801374 307.496257,55.2589336 L307.167744,55.2961763 L301.644345,55.9267073 C301.644345,55.9267073 301.627854,57.6474657 301.499265,59.2590903 C301.391984,60.6122397 301.052168,61.7778789 300.73051,61.8970184" id="Fill-51" fill="#F5BEA5"></path>
                    <path d="M301.644271,55.9267628 C301.644271,55.9267628 301.62778,57.6475213 301.499376,59.2589606 C304.547715,59.4227541 306.382795,56.7800085 307.167855,55.2962319 L301.644271,55.9267628 Z" id="Fill-52" fill="#FA9350"></path>
                    <path d="M300.503608,57.3693502 C300.503608,57.3693502 307.689771,58.0780722 308.062197,53.5959847 C308.434809,49.1140824 309.613048,46.1869216 305.04054,45.5449029 C300.468218,44.9028841 299.433577,46.5389665 298.945346,48.0047704 C298.457115,49.4705742 298.643884,57.0693709 300.503608,57.3693502" id="Fill-53" fill="#F5BEA5"></path>
                    <path d="M301.382488,44.6974846 C302.653524,43.2090735 305.138459,45.0294032 307.199558,45.7074364 C307.955157,45.9560913 308.510647,46.5984806 308.660915,47.3794645 C309.171565,50.0288804 310.609205,51.9351109 310.609205,51.9351109 C310.609205,51.9351109 309.256982,52.5600833 306.271271,51.612156 C303.610065,50.7673746 302.296627,48.1569823 301.703383,46.4341955 C301.230265,46.7357976 300.63495,47.2369654 300.073354,48.0547793 C299.417438,49.0095621 298.657762,51.4171787 298.787278,52.4829484 C298.787278,52.4829484 297.529551,47.4151692 299.363705,45.5300614 C300.112106,44.7606948 300.767882,44.653955 301.291474,44.8137582 Z" id="Combined-Shape" fill="#323055"></path>
                    <path d="M313.823264,76.7313571 C313.695231,77.2757297 313.585541,77.7763746 313.496233,78.2382946 C313.349856,78.9837033 313.249246,79.6264632 313.178466,80.1934408 C312.958901,81.9610768 313.025234,83.0083178 312.876634,84.153946 C312.794181,84.7942972 312.643358,85.466703 312.339117,86.3103138 C312.042102,87.1313196 304.23282,87.8630171 299.789828,87.5680405 C298.378869,87.4765088 297.304205,87.2775108 296.922329,86.9484415 C295.337571,85.5717606 295.495436,88.5993468 295.278094,74.1130694 C295.173037,67.0471574 301.273975,60.754262 301.273975,60.754262 C301.273975,60.754262 301.760909,63.7727692 307.811634,60.1802436 C308.026567,60.0544338 310.40917,63.5828503 312.702835,67.9276403 C315.229591,72.7273094 314.536804,73.7426811 313.823264,76.7313571" id="Fill-56" fill="#7E8CCC"></path>
                    <path d="M279.772295,111.46811 L284.423364,123.984974 C284.423364,123.984974 285.685352,124.106893 286.894163,123.75911 C288.00681,123.437637 289.283807,122.596064 289.283807,122.596064 C289.283807,122.596064 287.992358,109.156472 285.583074,101.441686 L279.772295,111.46811 Z" id="Fill-57" fill="#EA6657"></path>
                    <path d="M301.27353,60.7530947 C301.27353,60.7530947 295.047894,61.8086736 294.316937,64.4890324 C293.585981,67.1695764 288.535063,82.1605751 288.535063,82.1605751 C288.535063,82.1605751 292.448691,83.4959371 293.910789,82.033839 C295.372702,80.5717409 298.998208,68.469178 298.998208,68.469178 L301.27353,60.7530947 Z" id="Fill-58" fill="#7E8CCC"></path>
                    <path d="M275.89439,78.7155007 L274.419507,78.1305503 C274.419507,78.1305503 273.532725,77.933961 273.053388,78.0845992 C272.574236,78.235052 271.375431,78.2194879 271.369872,78.4160772 C271.364499,78.6124812 272.736547,79.2242982 272.736547,79.2242982 L272.779534,79.2076224 C272.258137,80.3882699 269.651152,81.0625285 269.525157,81.495729 C269.372666,82.0208318 270.585553,82.292277 271.246471,82.4558852 C271.907389,82.6196787 273.526054,82.6033735 274.32427,81.7616156 C274.907738,81.1464634 275.89439,80.3004439 275.89439,80.3004439 L275.89439,78.7155007 Z" id="Fill-59" fill="#FFAF73"></path>
                    <path d="M302.162147,54.7262897 C302.162147,54.7262897 301.861056,55.4633606 301.065249,55.4633606 C300.269443,55.4633606 300.05451,55.3442212 299.903872,55.1757955 C299.753419,55.0071845 299.603892,54.682562 299.603892,54.682562 C299.603892,54.682562 300.922764,54.4222341 302.162147,54.7262897" id="Fill-60" fill="#FFFFFF"></path>
                    <path d="M290.270496,76.9799749 L275.198342,78.1307912 C275.198342,78.1307912 274.883169,79.5919628 275.854998,81.2499091 C275.854998,81.2499091 289.452455,83.9082187 293.000882,82.5504371 C296.54968,81.1926554 296.149461,74.7900703 296.149461,74.7900703 L290.270496,76.9799749 Z" id="Fill-61" fill="#7E8CCC"></path>
                    <path d="M299.667464,77.241711 L298.666174,76.0110361 C298.666174,76.0110361 297.98821,75.4064453 297.496459,75.3037964 C297.004708,75.2009622 295.966175,74.6021153 295.865379,74.7709116 C295.764954,74.9397079 296.663224,76.1435162 296.663224,76.1435162 L296.70899,76.1500012 C295.677498,76.925797 293.073107,76.240977 292.751635,76.5574469 C292.362162,76.9411758 293.28804,77.7703342 293.784794,78.2359599 C294.281733,78.7015857 295.702142,79.4779373 296.809601,79.1333039 C297.619304,78.8813138 298.893521,78.6248769 298.893521,78.6248769 L299.667464,77.241711 Z" id="Fill-62" fill="#FFAF73"></path>
                    <path d="M313.178373,80.1934593 C312.958809,81.9610954 313.025327,83.0083363 312.876541,84.1539646 C307.223812,84.172308 299.666334,79.7886077 299.666334,79.7886077 L313.178373,80.1934593 Z" id="Fill-63" fill="#6272B6"></path>
                    <path d="M299.666371,76.081408 C299.666371,76.081408 308.472311,75.8188567 309.956829,70.8135192 C311.587538,65.314763 313.41391,73.0749445 313.41391,73.0749445 L312.442081,78.0278458 L302.780857,78.0278458 L299.666371,76.081408 Z" id="Fill-64" fill="#6272B6"></path>
                    <path d="M307.812116,60.1812256 C307.812116,60.1812256 313.528399,60.5553196 314.957331,62.7848756 C316.386633,65.0142463 318.158901,76.3334166 317.415716,80.2209188 C316.67253,84.1082358 298.366566,79.4777335 298.366566,79.4777335 L298.95059,76.1047727 C298.95059,76.1047727 309.515272,76.1661026 310.117269,74.7899776 C310.917708,72.9606411 307.812116,60.1812256 307.812116,60.1812256" id="Fill-65" fill="#7E8CCC"></path>
                    <path d="M315.457549,78.4994563 C308.433512,78.4994563 301.569748,77.9802827 296.054687,76.5368986 C295.993542,76.5209639 295.957041,76.458337 295.973161,76.3973776 C295.989095,76.3364183 296.051722,76.300102 296.112682,76.3156661 C302.395942,77.9600864 314.602636,79.4105115 337.072736,76.9834397 C350.515849,75.5311618 361.403116,73.3457041 361.511509,73.3238403 C361.572653,73.3116113 361.633613,73.3512627 361.646027,73.4133338 C361.658626,73.4752196 361.618604,73.5354378 361.556719,73.5480373 C361.448326,73.5699011 350.550683,75.757397 337.097379,77.2107866 C330.67571,77.9045004 322.975005,78.4994563 315.457549,78.4994563" id="Fill-66" fill="#4C55CE"></path>
                    <path d="M278.730686,80.6720551 C276.621567,80.6720551 274.303258,80.5649594 271.780393,80.3048167 C271.717581,80.2981464 271.672001,80.2421898 271.678486,80.1791923 C271.684971,80.11638 271.74278,80.0704289 271.803925,80.0772845 C285.962801,81.5380856 293.661837,78.1660512 293.73799,78.1317732 C293.795244,78.1062036 293.863059,78.1314026 293.888999,78.1892121 C293.914939,78.246651 293.889184,78.3142807 293.83156,78.3404061 C293.768748,78.3685697 288.508456,80.6720551 278.730686,80.6720551" id="Fill-67" fill="#4C55CE"></path>
                    <path d="M354.329959,176.04482 C354.329959,164.55463 363.644512,155.240077 375.134702,155.240077 C386.624892,155.240077 395.939259,164.55463 395.939259,176.04482 C395.939259,187.53501 386.624892,196.849562 375.134702,196.849562 C363.644512,196.849562 354.329959,187.53501 354.329959,176.04482" id="Fill-68" fill="#5456AF"></path>
                    <path d="M359.46244,176.372147 C359.46244,167.716475 366.479066,160.699849 375.134739,160.699849 C383.790226,160.699849 390.807037,167.716475 390.807037,176.372147 C390.807037,185.027635 383.790226,192.04426 375.134739,192.04426 C366.479066,192.04426 359.46244,185.027635 359.46244,176.372147" id="Fill-69" fill="#FFFFFF"></path>
                    <path d="M359.063648,132.877239 C359.063648,125.857093 364.754732,120.16601 371.775063,120.16601 C378.795209,120.16601 384.486293,125.857093 384.486293,132.877239 C384.486293,139.897571 378.795209,145.588655 371.775063,145.588655 C364.754732,145.588655 359.063648,139.897571 359.063648,132.877239" id="Fill-70" fill="#3A3C93"></path>
                    <path d="M362.199404,133.077182 C362.199404,127.788727 366.48657,123.501746 371.775026,123.501746 C377.063296,123.501746 381.350277,127.788727 381.350277,133.077182 C381.350277,138.365638 377.063296,142.652619 371.775026,142.652619 C366.48657,142.652619 362.199404,138.365638 362.199404,133.077182" id="Fill-71" fill="#5456B0"></path>
                    <path d="M331.151915,171.777239 C331.151915,171.777239 338.618788,173.819655 342.48702,172.860425 C346.355438,171.90064 353.795629,167.810989 353.795629,167.810989 L354.967568,169.85915 C354.967568,169.85915 348.880897,178.927271 343.254849,179.956909 C337.628986,180.986919 331.151915,171.777239 331.151915,171.777239" id="Fill-72" fill="#65839D"></path>
                    <path d="M365.967026,196.910021 C365.967026,196.910021 369.835258,198.450681 371.139677,198.040271 C372.444096,197.62986 374.693293,196.370281 375.097959,195.335824 C375.502811,194.301183 372.444096,195.605602 371.40964,195.335824 C370.374999,195.065862 369.250493,194.751059 367.22642,195.335824 C365.202347,195.920404 365.967026,196.910021 365.967026,196.910021" id="Fill-73" fill="#F5BEA5"></path>
                    <path d="M330.806504,285.865248 C330.806504,285.865248 331.09833,290.570235 331.972143,291.676583 L345.416553,291.676583 C345.331506,291.207437 344.950927,290.049209 343.270005,289.755529 C341.145507,289.386067 337.589483,287.893397 336.303963,285.085746 C334.949887,282.132089 330.806504,285.865248 330.806504,285.865248" id="Fill-74" fill="#0B3563"></path>
                    <path d="M306.948476,285.209147 C306.948476,285.209147 306.061878,291.066248 307.21288,291.172047 C307.365927,291.186129 312.750917,291.176308 314.215238,291.395503 C316.606179,291.753291 320.594292,291.441268 320.594292,291.441268 C321.094011,291.462021 321.421042,290.920983 321.166643,290.490747 C320.887601,290.018636 320.355272,289.514286 319.340271,289.318994 C317.223184,288.911363 313.694768,287.356251 312.457608,284.526736 C311.156339,281.550104 306.948476,285.209147 306.948476,285.209147" id="Fill-75" fill="#0B3563"></path>
                    <path d="M337.12797,223.250077 C337.12797,223.250077 333.747413,235.079156 324.058951,255.620606 C314.37012,276.162056 313.622487,285.523301 313.622487,285.523301 L306.948457,285.20924 C306.948457,285.20924 307.575838,260.759165 312.152422,250.392925 C316.728821,240.02687 317.661369,211.660203 317.661369,211.660203 L337.12797,223.250077 Z" id="Fill-76" fill="#373551"></path>
                    <path d="M342.555206,213.072143 C342.555206,213.072143 342.824427,231.388855 339.655467,253.87841 C336.486137,276.368151 337.56043,285.914682 337.56043,285.914682 L329.970156,286.167043 C329.970156,286.167043 325.43415,263.668964 326.734678,252.412421 C328.035391,241.155692 320.523309,213.786239 320.523309,213.786239 L342.555206,213.072143 Z" id="Fill-77" fill="#464462"></path>
                    <path d="M327.57827,170.208823 L331.158196,172.860462 L336.33196,171.771161 C336.260439,171.299236 335.918955,169.343719 335.607859,167.572562 C335.589145,167.468061 335.570431,167.363744 335.552643,167.261651 C335.286386,165.754343 335.05626,164.459929 335.05626,164.459929 L330.223795,162.051386 L328.422252,161.153301 C328.426884,161.185171 328.561958,162.825885 328.580672,163.065276 C328.918635,167.31909 327.57827,170.208823 327.57827,170.208823" id="Fill-78" fill="#F5BEA5"></path>
                    <path d="M343.250754,213.677031 C343.577414,216.94549 317.422701,220.812796 317.322831,215.331457 C317.236673,210.508627 320.108248,183.968146 320.998736,180.170879 C322.572006,173.450712 323.9863,169.613052 326.982203,168.730531 C328.088735,168.409243 332.166712,169.467231 335.113699,170.322885 C335.318811,170.379398 335.523924,170.449622 335.720884,170.533186 C336.449617,170.824827 337.110905,171.248578 337.672324,171.777387 C338.465722,172.522425 339.062346,173.469611 339.383263,174.543904 C339.836659,176.074188 340.36028,178.03341 340.784031,180.195151 C341.167204,182.13566 341.472186,184.235515 341.577614,186.332406 C341.601887,186.766903 341.615227,187.201401 341.617821,187.633119 C341.634126,189.236406 341.774389,191.309024 341.971534,193.611027 C342.095676,195.063119 342.244091,196.606929 342.397879,198.180199 C342.44383,198.631002 342.489781,199.084399 342.532767,199.540575 C342.565378,199.856303 343.06732,210.225323 343.212955,213.002216 C343.215735,213.042794 343.215735,213.077999 343.218329,213.113018 C343.218329,213.118391 343.218329,213.12117 343.221108,213.126544 C343.221108,213.164157 343.223702,213.204735 343.226481,213.242533 C343.239822,213.490818 343.247974,213.642012 343.250754,213.677031" id="Fill-79" fill="#7FA0BC"></path>
                    <path d="M328.943315,163.140595 C330.004453,165.171153 333.958658,166.927116 335.607896,167.572655 C335.589182,167.467968 335.570468,167.363651 335.55268,167.261558 C335.286238,165.75425 335.056297,164.459837 335.056297,164.459837 L330.223832,162.051294 C329.155839,162.034803 328.505668,162.304766 328.943315,163.140595" id="Fill-80" fill="#FFA15E"></path>
                    <path d="M337.404622,164.176867 C337.404622,164.176867 328.686508,166.896506 327.076551,161.441293 C325.466408,155.986079 323.257049,152.66296 328.755064,150.696141 C334.253264,148.728951 335.954012,150.489917 336.934179,152.180103 C337.914531,153.870289 339.630843,163.328994 337.404622,164.176867" id="Fill-81" fill="#F5BEA5"></path>
                    <path d="M336.591824,151.654629 C336.591824,151.654629 336.035964,158.00274 334.723022,157.727034 C333.410265,157.451512 332.219612,157.247326 332.411754,159.160783 C332.604267,161.074425 334.42471,163.284155 330.378788,163.622674 C326.33268,163.961008 320.516342,153.526952 321.627877,151.551239 C324.834821,145.851076 341.227144,144.700816 336.591824,151.654629" id="Fill-82" fill="#464462"></path>
                    <path d="M353.795629,167.810952 C353.795629,167.810952 355.409848,164.645883 356.682953,163.681095 C357.956244,162.716307 361.288442,163.035185 361.410916,163.292178 C361.789457,164.08817 358.686089,165.243989 358.314959,165.958084 C357.943645,166.67218 359.418898,166.633455 358.258447,167.862647 C357.27828,168.900995 354.967568,169.859298 354.967568,169.859298 L353.795629,167.810952 Z" id="Fill-83" fill="#F5BEA5"></path>
                    <path d="M357.023677,166.603142 C357.04517,166.603698 358.075921,166.48252 359.082584,166.373016 C359.823175,166.292416 360.548017,165.963902 360.851702,165.948894 C361.568392,165.91369 361.064226,167.052462 359.51282,167.618884 C358.199322,168.098592 357.826339,168.876796 356.586771,169.086541 C355.087986,169.340198 357.023677,166.603142 357.023677,166.603142" id="Fill-84" fill="#FFAF73"></path>
                    <path d="M335.970113,168.870923 C335.856717,168.823119 328.931994,166.779776 328.17973,167.028245 C327.427465,167.276715 326.982036,168.731957 326.982036,168.731957 L337.672899,171.777331 C337.672899,171.777331 337.417018,169.480145 335.970113,168.870923" id="Fill-85" fill="#65839D"></path>
                    <path d="M367.226402,195.335806 C367.226402,195.335806 368.463376,194.289862 369.542857,194.053807 C370.622338,193.817751 371.567116,192.839252 371.567116,193.311548 C371.567116,193.783844 370.757412,194.930769 370.757412,195.335806 C370.757412,195.740658 367.226402,195.335806 367.226402,195.335806" id="Fill-86" fill="#FFAF73"></path>
                    <path d="M341.971478,193.611045 C336.417136,191.503408 332.207049,183.312435 332.207049,183.312435 L341.577558,186.332424 C341.601831,186.766922 341.615172,187.201419 341.617951,187.633137 C341.634256,189.236424 341.774518,191.309042 341.971478,193.611045" id="Fill-87" fill="#65839D"></path>
                    <path d="M367.39757,196.229852 C367.401461,196.214658 367.405537,196.19965 367.409243,196.184642 C367.656601,195.234121 367.194125,194.242466 366.30938,193.816491 C362.819318,192.135384 353.780473,187.776512 352.771586,187.23566 C351.707113,186.664977 341.125385,176.490508 337.96013,173.436797 C337.411681,172.907618 336.61643,172.725481 335.891959,172.962463 L327.124929,175.828108 C325.503299,176.358214 325.192388,178.517361 326.599826,179.482149 C333.047992,183.902721 346.538353,193.098876 348.963387,194.338444 C353.238694,196.523717 361.890105,197.66638 365.083338,198.027134 C365.985499,198.129041 366.852085,197.629138 367.205427,196.792753 C367.278616,196.619139 367.344763,196.431073 367.39757,196.229852" id="Fill-88" fill="#7FA0BC"></path>
                    <path d="M96.551874,210.258823 C96.551874,210.258823 85.8578614,211.271045 80.1184176,228.027641 C74.3787886,244.784608 76.0524842,276.033226 71.81164,279.16587 C67.5707959,282.298143 44.7038114,274.298201 42.8744749,279.441577 C41.0451384,284.584953 42.8744749,285.194732 37.8437531,282.755616 C32.8130314,280.316501 24.2759423,279.474928 26.1052788,283.554388 C27.9346154,287.633847 16.6536142,284.898829 16.9585962,290.458544 L74.525721,290.458544 C74.525721,290.458544 101.781964,287.633847 100.835705,275.4379 C99.889445,263.242323 90.2732457,234.816364 96.0614199,224.063616 C101.849409,213.310682 109.417448,207.728732 109.417448,207.728732 L96.551874,210.258823 Z" id="Fill-89" fill="#F87667"></path>
                    <path d="M88.4901753,286.360853 L86.0708856,287.261532 C86.0708856,287.261532 75.5630862,272.687799 74.2694138,259.865397 C74.0381759,257.575993 74.1152552,255.35811 74.6149737,253.30995 C74.6149737,253.30995 74.5123248,252.723332 74.3325966,251.686282 C74.2495881,251.202313 74.1469392,250.619771 74.0303938,249.952183 C73.688725,247.994999 73.2186524,245.316493 72.6813207,242.266857 C71.4449019,235.249305 69.8430975,226.278274 68.5988967,219.683547 L69.2505504,219.474173 L76.3036775,217.198666 L77.7613287,212.56909 L83.0130976,211.18648 C83.0130976,211.18648 84.1863336,213.481627 85.2352421,224.323128 C85.4288668,225.745019 85.6045187,227.313287 85.7369988,229.013849 C86.1457415,234.204658 86.1753873,240.64356 85.237095,248.004633 C84.9962222,249.889 84.6919813,251.834511 84.3147374,253.8332 C84.0382895,255.298819 83.9967852,257.295654 84.1133306,259.588764 C84.642695,270.070808 88.4901753,286.360853 88.4901753,286.360853" id="Fill-90" fill="#464462"></path>
                    <path d="M85.7369247,229.013867 L74.3325225,251.686301 C74.249514,251.202331 74.1468651,250.619605 74.0303197,249.952201 C73.6886509,247.994832 73.2185783,245.316511 72.6814318,242.266876 C71.4450131,235.249324 69.8430234,226.278293 68.5988226,219.683565 L69.2504763,219.474191 L76.3037887,217.198684 L77.7614399,212.569108 L83.0132088,211.186498 C83.0132088,211.186498 84.1864448,213.481646 85.235168,224.323147 C85.4287927,225.745038 85.6046299,227.313305 85.7369247,229.013867" id="Fill-91" fill="#33314F"></path>
                    <path d="M80.7198956,214.096112 L80.4558619,211.832093 C76.0328809,213.006997 64.2151038,208.549367 64.2151038,208.549367 C64.2151038,208.549367 59.9301614,212.315877 60.4928774,221.344347 C60.7674724,225.751022 61.2690438,244.476847 61.7928495,250.017849 C61.9822126,252.026357 62.1480443,253.455474 62.2158593,254.026343 C62.2171563,254.029122 62.2171563,254.030419 62.2171563,254.031902 C62.2379084,254.206071 62.1771344,254.370421 62.0885673,254.522541 C61.3174036,255.831407 60.67872,257.194377 60.1549143,258.588845 C55.0132057,272.290618 60.9470153,289.164316 60.9470153,289.164316 L62.4867486,288.543791 C62.4867486,288.543791 65.8634151,269.765345 68.6069567,261.469499 C69.072953,260.062431 69.5193089,258.956454 69.9284221,258.295907 C71.1212985,256.370406 72.2283871,253.224607 73.2331974,249.482926 C75.132387,242.409046 76.6610031,233.206592 77.6784129,226.103623 C77.818675,226.110108 80.7198956,214.096112 80.7198956,214.096112" id="Fill-92" fill="#464462"></path>
                    <path d="M112.471512,206.571912 L112.141886,208.787386 C112.141886,208.787386 111.99551,208.787386 111.739073,208.768858 C110.933631,208.714198 108.974594,208.604323 106.759305,208.366229 C103.427293,208.036604 99.4727165,207.450727 97.8981493,206.480566 C95.4997971,205.016059 91.5635644,200.530451 89.0004922,196.044843 C88.9271186,195.934968 88.8722737,195.825278 88.8172435,195.715218 C87.4809552,193.335209 86.5471097,190.973173 86.4739214,189.08788 C86.4188912,187.934284 86.5471097,186.945594 86.7852032,186.085307 C87.0962998,184.95024 87.6089883,184.053082 88.139835,183.375673 C88.2132086,183.265798 88.2863969,183.155923 88.3962719,183.064391 C89.2750872,182.020856 90.1355591,181.581541 90.1355591,181.581541 C90.5748741,181.398292 91.0510611,181.618043 91.545221,182.148889 L91.545221,182.167233 C91.9480345,182.588575 92.3873495,183.229111 92.8085064,184.034738 C92.8268498,184.053082 92.8451931,184.07124 92.8451931,184.089583 C92.9365395,184.254488 93.0282565,184.437366 93.1381316,184.638773 C93.1746331,184.67546 93.1929765,184.730305 93.2113199,184.766992 C93.4127266,185.188148 93.6141333,185.627463 93.8155401,186.085307 C96.0673305,190.991701 98.4656828,198.424852 100.461407,200.639955 C101.321879,201.592144 105.258111,203.45965 108.388717,204.850968 C110.640693,205.839844 112.471512,206.571912 112.471512,206.571912" id="Fill-93" fill="#F5BEA5"></path>
                    <path d="M89.1696219,186.635831 C87.7810827,187.279888 86.1042372,187.718277 84.0757174,187.828708 C76.4715473,188.245603 74.7452303,181.57954 74.4313544,177.155262 C75.5275111,176.758192 76.487482,176.795805 77.0405631,176.825451 C77.5797477,176.855097 78.1424637,176.910313 78.6067924,176.967566 C79.5369321,176.481744 81.2078484,174.121561 82.1737484,170.1731 L82.5017061,170.325405 L87.9884186,172.904968 C87.9884186,172.904968 87.4058769,174.690206 86.9752704,176.398736 C86.6395308,177.735951 86.3984726,179.027585 86.6000647,179.389265 C87.0325241,179.564917 87.2913697,179.675533 87.2913697,179.675533 C87.2913697,179.675533 87.2913697,179.677386 87.2934079,179.681462 C87.3486233,179.821724 88.5414997,182.861354 89.1696219,186.635831" id="Fill-94" fill="#F5BEA5"></path>
                    <path d="M91.0717021,191.625012 C91.0144484,191.776947 90.9512656,191.925176 90.8821537,192.077297 C88.9562827,196.224942 85.3911795,213.406586 85.3911795,213.406586 C85.8988653,216.495688 62.1756706,212.800142 62.1145259,209.987674 C61.2790678,207.005298 65.0791147,202.213596 67.2221417,199.809871 C67.4906223,199.507668 67.7316804,199.183787 67.9410545,198.842118 C68.4704189,197.984796 68.8061585,197.017043 68.9128837,196.005933 C69.33367,192.018746 69.1735822,188.282067 69.208972,186.009895 L69.2091573,186.009525 C69.6279055,185.699725 70.0327571,185.413272 70.410001,185.140715 C70.9867988,184.719929 71.4963375,184.32675 71.8715433,183.928013 C72.2843622,183.49333 72.5430226,183.049012 72.5726685,182.547441 C72.594347,182.168159 72.5824887,181.778871 72.5430226,181.389954 C72.5252351,181.206335 72.5017036,181.022531 72.4739106,180.838912 C72.177637,178.90915 71.3718248,177.159301 71.3718248,177.159301 C73.412203,176.333663 77.040489,176.825414 77.040489,176.825414 C77.040489,176.825414 77.0364127,177.026821 77.0345598,177.356632 C77.0227014,178.681988 77.0345598,182.085151 77.4592371,182.729022 C77.9904544,183.530943 87.7100437,187.044537 88.2234735,185.956348 C88.7291211,184.885946 87.3446582,179.870973 87.2933337,179.681425 C87.2912956,179.677534 87.2912956,179.675496 87.2912956,179.675496 C90.5462287,180.953419 91.7096445,182.025859 91.7096445,182.025859 C89.7483838,183.298038 92.5886451,187.601509 91.0717021,191.625012" id="Fill-95" fill="#5456B0"></path>
                    <path d="M84.5246858,155.785228 C84.5126422,155.455603 84.2575023,151.903099 78.8463867,151.717442 C78.8463867,151.717442 81.5072904,152.034653 81.9669869,153.204368 C81.9669869,153.204368 80.1552526,151.759131 78.6798139,152.224016 C77.2041899,152.6889 76.3376035,155.273836 76.3290116,156.124117 C76.3203718,156.974213 77.1400806,159.715161 78.0765201,159.948252 C78.431159,160.036448 78.8397164,160.012917 79.2106606,159.949734 C78.9614498,160.338651 78.7172418,160.76796 78.4837805,161.247112 C76.3248187,165.679357 78.5514101,170.010807 80.3792644,169.532396 C81.5517592,169.225376 81.8834226,171.225918 81.8834226,171.225918 L93.2728165,162.005306 C93.2728165,162.005306 89.0895966,153.349077 84.5246858,155.785228" id="Fill-96" fill="#2A3967"></path>
                    <path d="M87.9886966,172.905969 C87.9886966,172.905969 87.4052284,174.689725 86.9755484,176.399736 C83.7684192,175.504986 82.7943666,172.133693 82.5012429,170.326406 L87.9886966,172.905969 Z" id="Fill-97" fill="#FA9452"></path>
                    <path d="M88.6640669,174.794671 C88.6640669,174.794671 80.9909702,173.018882 82.1703206,168.257568 C83.3498564,163.496068 83.1538229,160.060109 88.1026479,160.992658 C93.0516582,161.925206 93.5498944,163.976887 93.5427443,165.661885 C93.5356273,167.347068 90.6903633,175.133931 88.6640669,174.794671" id="Fill-98" fill="#F5BEA5"></path>
                    <path d="M93.9742382,162.958754 C93.1493414,161.232993 92.1784386,161.325081 91.5712538,161.630989 C87.9657581,158.295086 84.4293743,161.020284 84.4293743,161.020284 C83.0682575,164.308569 80.1183064,165.652083 80.1183064,165.652083 C80.1183064,165.652083 81.297101,166.859227 84.7136042,166.832545 C85.7571395,166.824393 86.8064186,166.345241 87.7610161,165.685064 C85.9194507,167.53997 83.7603037,168.668923 83.7603037,168.668923 C88.0370935,167.850511 90.9049625,162.899463 91.198642,162.373619 C91.5608777,162.908542 92.2538503,164.0475 92.3122157,165.009138 C92.3915184,166.316151 91.9418274,168.854024 92.6902007,168.950188 C92.6902007,168.950188 95.2112129,165.54684 93.9742382,162.958754" id="Fill-99" fill="#2A3967"></path>
                    <path d="M91.7104412,182.025025 C91.7104412,182.025025 93.5579359,185.247903 93.8343838,186.077247 C93.8343838,186.077247 91.4386255,185.984974 90.4710579,187.828022 C90.4710579,187.828022 90.2392641,182.459523 91.7104412,182.025025" id="Fill-100" fill="#5456B0"></path>
                    <path d="M79.0037323,207.633522 C74.3246848,207.583856 70.362512,202.725266 67.9409989,198.84221 C68.4703633,197.984888 68.8061029,197.01695 68.9128281,196.00584 C69.3337997,192.018839 69.1735267,188.28216 69.2089164,186.009988 L69.2091017,186.009617 C69.6278499,185.699633 70.0327015,185.413179 70.4099454,185.140622 C70.9867432,184.720021 71.4962819,184.326843 71.8714877,183.92792 C75.7034039,190.404435 85.3477668,207.700401 79.0037323,207.633522" id="Fill-101" fill="#5456B0"></path>
                    <path d="M69.8990727,290.422321 L57.7142425,290.422321 C57.7142425,290.422321 57.4222305,288.565377 58.0586907,287.156456 C58.6684695,285.804418 59.6236229,285.190192 59.394979,283.55448 C60.1692925,284.351584 61.4310956,285.244296 63.1926172,285.007314 C63.4084763,285.357136 64.5859739,287.230015 65.3069248,287.747891 C66.1031021,288.320057 69.653753,288.116241 69.8990727,290.422321" id="Fill-102" fill="#1E3865"></path>
                    <path d="M96.0613272,290.422321 L83.876497,290.422321 C83.876497,290.422321 83.4210621,288.479033 84.2209452,287.156456 C84.928926,285.98637 84.6576662,285.319708 84.1333045,284.351584 C84.6852739,284.577634 85.3993692,284.783117 86.1855411,284.738093 C86.7925406,284.703444 87.4345593,284.427737 87.9974606,284.100891 C88.5220075,284.698626 90.7674982,287.243726 91.4691793,287.747891 C92.2655419,288.320057 95.8160075,288.116241 96.0613272,290.422321" id="Fill-103" fill="#1E3865"></path>
                    <path d="M97.6809561,210.918722 L97.1906873,212.809574 C97.1906873,212.809574 91.1058689,211.533503 89.7693953,211.240565 L89.7510519,211.240565 C87.4625747,210.69119 84.8995025,210.032495 82.7388732,209.299871 C81.2195214,208.768839 79.9012059,208.201676 79.0042325,207.633772 C78.9127009,207.578927 78.8395126,207.524082 78.7477956,207.450709 C76.605695,205.89467 74.0609661,201.317716 72.0837708,196.410951 C71.8091757,195.733543 71.5527388,195.056319 71.2964872,194.397069 C70.3809851,191.943686 69.6487317,189.527176 69.2094167,187.43992 C68.9346364,186.195164 68.751573,185.059726 68.7148863,184.126066 C68.6967281,183.796626 68.6783848,183.48553 68.6967281,183.192221 C68.7334149,177.883198 71.3696754,177.150759 71.3696754,177.150759 C71.4245203,177.132416 71.4795505,177.114258 71.5527388,177.0961 C72.0103972,177.022726 72.486399,177.333823 72.9807441,177.938228 C73.6033078,178.68864 74.2623729,179.915424 74.9397814,181.398274 C75.9833166,183.760125 77.081882,186.817542 78.1070739,189.856801 C78.6746073,191.52253 79.2237974,193.188814 79.7731727,194.726509 C80.0844545,195.660169 80.3955511,196.53917 80.6884895,197.344611 C81.2560229,198.882492 81.7687115,200.127434 82.2263699,200.914717 C82.5193083,201.427406 83.3614368,202.141501 84.4783456,202.946943 C86.4188542,204.356605 97.6809561,210.918722 97.6809561,210.918722" id="Fill-104" fill="#F5BEA5"></path>
                    <path d="M74.933389,181.405834 C71.4088636,180.43419 68.6899652,183.186069 68.6899652,183.186069 C68.7342487,177.885384 71.372918,177.159801 71.372918,177.159801 C72.434426,176.720301 73.664545,178.558531 74.933389,181.405834" id="Fill-105" fill="#5456B0"></path>
                    <path d="M213.908805,227.339949 C214.013122,227.631591 170.417548,249.743346 170.417548,249.743346 C170.417548,249.743346 175.446046,252.202473 182.5001,250.569169 C189.554153,248.936052 216.613251,233.369182 216.613251,233.369182 L213.908805,227.339949 Z" id="Fill-106" fill="#7E8CCC"></path>
                    <path d="M170.043417,227.444173 C170.043417,227.444173 155.581968,250.736391 116.982467,208.152853 C115.617644,206.647027 113.537244,206.010011 111.566719,206.507321 L96.5518184,210.258823 C96.5518184,210.258823 97.8467878,210.155062 98.5412427,210.867305 C98.8336253,211.167099 99.1063675,211.63606 99.3298233,212.258994 C102.428745,220.902252 114.024734,249.858873 132.823932,257.863633 C155.004799,267.308442 178.518249,261.852487 196.106043,227.444173 L170.043417,227.444173 Z" id="Fill-107" fill="#F99C92"></path>
                    <path d="M268.861997,236.813459 C268.827719,236.87516 268.791032,236.939269 268.75453,237.003193 C267.899247,238.489564 265.937245,242.132302 263.77643,246.118006 C262.754203,248.009043 261.683986,249.977901 260.6688,251.830213 C258.919322,255.026966 257.327894,257.873898 256.399422,259.378426 C255.4552,260.908339 254.759819,261.983188 254.478739,262.413053 L254.47633,262.415277 C254.391839,262.547942 254.373496,262.703398 254.384984,262.858853 C254.483186,264.208112 254.455763,265.548106 254.323098,266.867533 C253.019791,279.8352 244.275366,286.784567 244.275366,286.784567 L241.675421,287.168851 C241.675421,287.168851 245.354661,273.537673 246.438589,265.831595 C246.621467,264.525879 246.701511,263.46715 246.637587,262.776586 C246.445444,260.768818 246.802122,257.821276 247.476751,254.436827 C248.677224,248.422974 250.879357,241.041519 252.79337,235.132723 C252.914548,234.755479 256.570997,221.529152 256.570997,221.529152 C259.639717,224.211363 270.833078,225.318267 270.833078,225.318267 C270.833078,225.318267 272.73097,229.932649 268.861997,236.813459" id="Fill-108" fill="#464462"></path>
                    <path d="M236.218595,290.458507 L247.069917,290.458507 C247.069917,290.458507 247.329874,288.804637 246.763267,287.550061 C246.220191,286.346067 245.446063,286.307898 246.664324,284.420567 C245.974872,285.130586 243.758286,285.424265 242.189462,285.213038 C241.99732,285.524876 240.950264,287.615467 240.308246,288.076831 C239.599153,288.58637 236.437049,288.404788 236.218595,290.458507" id="Fill-109" fill="#1E3865"></path>
                    <path d="M268.861997,236.813459 C268.827719,236.87516 268.791032,236.939269 268.75453,237.003193 C267.899247,238.489564 263.274118,247.032582 261.113118,251.018286 C263.617083,240.716526 261.875388,230.41495 261.875388,230.41495 L268.861997,236.813459 Z" id="Fill-110" fill="#33314F"></path>
                    <path d="M226.979936,185.927072 C226.979936,185.927072 226.550442,181.244875 231.781829,181.244875 C231.781829,181.244875 230.196701,181.674926 229.376621,182.534842 C229.376621,182.534842 232.713266,180.576175 236.344331,183.585974 C239.975396,186.595958 237.719159,194.144912 238.823468,195.578291 C239.927592,197.011484 244.227543,197.298308 243.70207,201.932701 C243.176596,206.567095 230.055141,212.371759 230.897826,216.205899 C230.897826,216.205899 225.755561,208.647124 229.432578,205.197455 C229.432578,205.197455 227.640299,206.885603 227.457791,208.892259 C227.457791,208.892259 226.971393,204.974555 229.464447,203.72146 C231.670472,202.612519 233.477759,198.556961 233.286543,197.831934 C233.095512,197.107092 226.979936,185.927072 226.979936,185.927072" id="Fill-111" fill="#2A3967"></path>
                    <path d="M234.364004,205.588299 C234.364004,205.588299 226.921219,224.37008 225.317006,223.674328 C223.712978,222.978391 214.260387,219.976374 214.260387,219.976374 L213.63875,222.27708 C213.63875,222.27708 222.633683,229.208659 227.261962,229.511974 C231.890426,229.815474 238.159975,216.177995 238.159975,216.177995 L234.364004,205.588299 Z" id="Fill-112" fill="#F5BEA5"></path>
                    <path d="M226.90169,254.078965 C229.678583,252.578142 230.71656,249.09827 229.215737,246.321377 C227.714914,243.544669 224.234857,242.506507 221.458149,244.00733 C218.681256,245.508153 217.643279,248.988025 219.144102,251.765103 C220.644925,254.541811 224.124982,255.579973 226.90169,254.078965 M219.725903,240.802425 C224.269691,238.346633 229.964666,240.045528 232.420457,244.589316 C234.876433,249.133104 233.177539,254.827894 228.633751,257.28387 C224.089963,259.739661 218.395173,258.040952 215.939382,253.496979 C213.483591,248.953191 215.182115,243.258401 219.725903,240.802425" id="Fill-113" fill="#7E8CCC"></path>
                    <path d="M215.520022,224.617104 C214.781654,227.685824 216.677509,230.783263 219.746414,231.521817 C222.815134,232.260185 225.912573,230.364515 226.650941,227.295425 C227.389494,224.226705 225.49364,221.129266 222.424735,220.390712 C219.35583,219.652345 216.25839,221.548384 215.520022,224.617104 M211.978265,223.764785 C213.186706,218.743142 218.255226,215.640885 223.276869,216.848955 C228.298511,218.057396 231.400954,223.126101 230.192698,228.147744 C228.984258,233.169387 223.915738,236.272014 218.89391,235.063759 C213.872267,233.855319 210.77001,228.786613 211.978265,223.764785" id="Fill-114" fill="#7E8CCC"></path>
                    <path d="M228.459878,185.268804 C228.388913,184.983647 234.657536,188.102024 234.975488,188.45444 C237.915433,191.715673 237.077011,195.97134 235.394792,196.012103 C234.315867,196.038228 234.525056,197.83199 234.525056,197.83199 L222.505872,192.747535 C222.505872,192.747535 223.952962,184.308648 228.459878,185.268804" id="Fill-115" fill="#2A3967"></path>
                    <path d="M232.498926,205.979679 C232.498926,205.979679 230.898233,207.637441 230.898233,212.598495 C230.898233,212.598495 233.103517,216.079848 238.823505,216.961258 C238.823505,216.961258 233.905809,205.976715 232.498926,205.979679" id="Fill-116" fill="#6B78B6"></path>
                    <path d="M260.402673,226.126173 L260.365986,224.096541 C264.4095,224.60645 274.308261,219.264632 274.308261,219.264632 C274.308261,219.264632 278.538544,222.078212 279.117565,230.113544 C279.400313,234.035325 281.188516,250.621457 281.386217,255.574359 C281.458479,257.369232 281.482381,258.65049 281.490533,259.162437 C281.489607,259.165031 281.489792,259.166143 281.489977,259.167255 C281.492386,259.323452 281.565574,259.46149 281.661924,259.585077 C282.498308,260.648438 283.224262,261.774981 283.85294,262.943585 C290.023175,274.423584 286.796406,290.022509 286.796406,290.022509 L285.363583,289.658235 C285.363583,289.658235 280.146278,273.48733 276.73663,266.492568 C276.157794,265.306362 275.632135,264.383819 275.192265,263.849267 C273.910265,262.292117 272.558227,259.647704 271.22583,256.465032 C268.706856,250.448214 260.402673,226.126173 260.402673,226.126173" id="Fill-117" fill="#464462"></path>
                    <path d="M278.167322,290.458507 L289.018458,290.458507 C289.018458,290.458507 289.278786,288.804637 288.711808,287.550061 C288.168918,286.346067 287.318266,285.798915 287.521711,284.34219 C286.832444,285.052209 285.708494,285.84709 284.139671,285.636233 C283.947529,285.9477 282.898991,287.615467 282.256787,288.076831 C281.547694,288.58637 278.385775,288.404788 278.167322,290.458507" id="Fill-118" fill="#1E3865"></path>
                    <path d="M239.556018,219.291554 C241.013669,219.540209 239.31811,220.698807 241.322728,220.916705 C244.176144,221.228172 247.122019,221.441252 248.665273,222.056589 C249.227989,222.281157 249.604492,222.55816 249.722149,222.912799 C250.391034,224.924087 253.338947,228.027641 253.338947,228.027641 C272.233938,227.167911 274.308409,219.264502 274.308409,219.264502 C262.045203,207.354267 250.76976,200.330971 242.160224,199.401017 C240.686824,199.242041 238.823394,200.177183 237.49637,200.767877 C234.480642,202.11028 232.499,205.979624 232.499,205.979624 C232.499,205.979624 234.017796,218.346777 239.556018,219.291554" id="Fill-119" fill="#7E8CCC"></path>
                    <path d="M241.322746,220.916612 C244.175978,221.228264 247.122038,221.441159 248.665291,222.056496 C249.295822,212.632995 244.848754,205.544664 244.848754,205.544664 C244.848754,205.544664 241.947719,217.350582 241.322746,220.916612" id="Fill-120" fill="#6B78B6"></path>
                    <path d="M238.8611,203.949474 C238.8611,203.949474 246.036517,203.557592 247.311475,208.062285 C248.586433,212.567348 244.919422,230.548876 244.129174,232.404708 C242.690422,235.783598 235.686396,245.426849 235.686396,245.426849 L233.110724,244.642716 C233.110724,244.642716 237.780878,229.910377 238.823487,228.452726 C240.46031,226.164249 236.713441,205.909252 238.8611,203.949474" id="Fill-121" fill="#F5BEA5"></path>
                    <path d="M233.110687,244.642734 C233.110687,244.642734 232.978207,245.785027 232.49535,246.374795 C232.012678,246.964193 230.608389,248.391271 230.583746,249.22673 C230.583746,249.22673 230.654711,249.597674 230.955802,249.529859 C231.256893,249.462229 232.302652,248.426661 232.839428,248.500776 C232.839428,248.500776 232.553159,250.175213 232.269115,250.646397 C231.98507,251.117767 232.21112,253.117382 232.381399,253.524457 C232.551862,253.931347 234.645233,251.339925 235.50589,250.182624 C236.366732,249.025323 235.519601,244.329044 235.519601,244.329044 L233.110687,244.642734 Z" id="Fill-122" fill="#F5BEA5"></path>
                    <path d="M248.726436,214.0867 C248.707722,214.192128 241.936416,215.332383 237.701131,213.182686 C237.701131,213.182686 234.162894,202.098459 239.219185,202.628564 C244.275477,203.158855 247.269526,204.751581 247.396818,207.172353 C247.524295,209.592939 248.726436,214.0867 248.726436,214.0867" id="Fill-123" fill="#6B78B6"></path>
                    <path d="M214.694014,219.113141 C214.694014,219.113141 212.833364,218.72793 212.147247,219.699759 C211.461315,220.671589 211.918603,223.587076 213.17633,223.472754 C214.434056,223.358433 214.553937,221.529096 214.694014,220.843164 C214.834091,220.157047 214.694014,219.113141 214.694014,219.113141" id="Fill-124" fill="#FFAF73"></path>
                    <path d="M237.496407,200.767933 C237.496407,200.767933 235.501239,208.211459 232.498852,205.97968 C232.583528,205.620409 232.059907,204.575577 231.442532,203.514439 C230.653581,202.15851 229.713806,200.77275 229.713806,200.77275 L233.774922,197.214688 L234.017277,197.001979 C235.261293,199.174281 236.481221,200.026971 237.496407,200.767933" id="Fill-125" fill="#F5BEA5"></path>
                    <path d="M229.714103,200.77427 C229.714103,200.77427 230.652951,202.157065 231.442087,203.514662 C233.966249,201.958623 233.969028,198.833391 233.774663,197.21454 L229.714103,200.77427 Z" id="Fill-126" fill="#FA9452"></path>
                    <path d="M229.601559,202.556933 C229.601559,202.556933 235.730661,199.146544 233.547983,195.362432 C231.36549,191.578319 230.686414,188.589458 226.680884,190.607046 C222.675539,192.624634 222.754842,194.503072 223.175999,195.943491 C223.597341,197.38354 227.951025,203.346625 229.601559,202.556933" id="Fill-127" fill="#F5BEA5"></path>
                    <path d="M222.14069,193.736262 C222.4214,192.056267 223.275016,191.895623 223.869972,192.007907 C226.133435,188.264743 229.831389,189.725544 229.831389,189.725544 C231.806546,192.204126 234.662186,192.627135 234.662186,192.627135 C234.662186,192.627135 233.95087,193.950454 231.020374,194.769607 C230.125439,195.019929 229.109326,194.868179 228.12953,194.538554 C230.162682,195.672139 232.288848,196.106451 232.288848,196.106451 C228.4271,196.459793 224.752863,192.929338 224.371914,192.551538 C224.193668,193.098876 223.881274,194.244133 224.068229,195.08163 C224.322442,196.219476 225.332626,198.280791 224.715806,198.547419 C224.715806,198.547419 221.719718,196.256163 222.14069,193.736262" id="Fill-128" fill="#2A3967"></path>
                    <path d="M216.73417,248.363478 C216.76011,248.054976 168.951855,237.863832 168.951855,237.863832 C168.951855,237.863832 173.181397,234.197377 180.418328,233.96688 C187.65526,233.736198 217.801792,241.84231 217.801792,241.84231 L216.73417,248.363478 Z" id="Fill-129" fill="#7E8CCC"></path>
                    <path d="M197.560507,238.791896 C198.138046,238.784855 198.612009,239.24696 198.619236,239.824314 C198.626462,240.401853 198.164171,240.875817 197.586818,240.883043 C197.009279,240.890269 196.535315,240.427978 196.528089,239.850625 C196.520863,239.273271 196.983153,238.799122 197.560507,238.791896" id="Fill-130" fill="#FF922B"></path>
                    <path d="M96.505997,210.231493 C96.505997,210.231493 99.6039922,211.439563 100.203951,211.909265 C100.803909,212.379152 101.956393,213.91518 102.162988,214.724883 C102.162988,214.724883 102.152241,215.056732 101.843554,215.056361 C101.534866,215.056176 100.840596,213.869599 100.333096,214.059333 C100.333096,214.059333 100.97845,215.63075 101.358473,216.028376 C101.738681,216.426187 101.955282,218.426913 101.878017,218.861226 C101.800567,219.295538 99.1913585,217.224402 98.098537,216.283145 C97.5165512,215.781944 97.5335976,214.565351 97.3533135,213.19145 C97.1952639,211.985974 93.8678836,211.28874 93.8678836,211.28874 L96.505997,210.231493 Z" id="Fill-131" fill="#FFAF73"></path>
                    <path d="M484.649555,182.340772 C484.649555,182.340772 482.995129,184.389118 480.625311,186.668701 C477.947731,189.242335 474.352982,192.112057 471.19903,192.647165 C470.348193,192.796135 469.530893,192.770566 468.772515,192.527655 C467.194427,192.019784 465.583358,190.957535 464.062339,189.659971 C459.728296,185.963129 456.12947,180.372841 456.12947,180.372841 L458.383669,177.818848 C458.383669,177.818848 463.427176,181.564606 466.582795,183.575709 C467.837557,184.371515 468.794008,184.894765 469.017464,184.798787 C469.801412,184.463603 483.367555,175.315623 483.367555,175.315623 L484.649555,182.340772 Z" id="Fill-132" fill="#F5BEA5"></path>
                    <path d="M484.649555,182.340772 C484.649555,182.340772 482.995129,184.389118 480.625311,186.668701 C477.114682,189.136536 473.396532,191.486714 471.19903,192.647165 C470.271855,193.139101 469.615199,193.417402 469.36043,193.401838 C467.694331,193.303821 464.117184,191.049622 464.117184,191.049622 C464.056224,190.575103 464.040475,190.110774 464.062339,189.659971 C464.222983,186.229571 466.508495,183.657976 466.582795,183.575709 C467.837557,184.371515 468.794008,184.894765 469.017464,184.798787 C469.801412,184.463603 483.367555,175.315623 483.367555,175.315623 L484.649555,182.340772 Z" id="Fill-133" fill="#3E47B9"></path>
                    <path d="M460.547782,215.194622 C461.011555,218.034513 461.32821,220.100275 461.32821,220.100275 C457.842595,221.620183 453.855594,222.24145 449.968462,222.364109 C448.671084,222.406725 447.38297,222.391532 446.128208,222.33539 C444.173247,222.249046 442.2987,222.062648 440.589244,221.832151 C435.553335,221.154928 431.955806,220.100275 431.955806,220.100275 C431.955806,214.838501 433.359168,210.574125 434.957823,207.056641 C436.759737,203.083166 438.811603,200.055209 439.373948,197.597194 C440.078409,194.517728 438.578327,187.339161 437.493102,182.860965 C436.941688,180.592313 436.497556,179.017746 436.497556,179.017746 C432.711962,173.466554 434.528884,170.211435 434.528884,170.211435 C434.528884,170.211435 436.292999,169.476403 438.499395,168.803626 C438.510141,168.800476 438.522185,168.79603 438.532931,168.79288 C439.290569,168.562568 440.098234,168.339853 440.90312,168.156605 C441.739505,167.967056 442.577557,167.819939 443.348906,167.751753 C445.505274,167.564058 445.61904,162.667669 445.61904,162.667669 C445.61904,162.667669 446.496558,162.275046 448.606048,162.337302 C449.920102,162.376398 451.221742,162.667669 451.221742,162.667669 C451.221742,162.667669 451.221742,166.539422 453.034032,167.34579 C453.96621,167.761018 455.739219,168.518655 457.475912,169.253688 L457.475912,169.25517 C457.533351,169.279443 457.592643,169.303715 457.650267,169.327988 L458.222989,169.570528 C458.474793,169.676512 458.723078,169.782496 458.965618,169.884034 C459.086796,169.935543 459.205009,169.985756 459.323407,170.035598 L459.897611,170.278139 C461.194803,170.825105 462.135875,171.21921 462.135875,171.21921 C462.943726,173.310542 460.115878,178.008489 460.115878,178.008489 C460.214266,178.314583 460.279487,178.669222 460.312838,179.064809 C460.317471,179.122248 460.321917,179.18154 460.32655,179.240461 C460.428087,180.767965 460.135519,182.868562 459.699168,185.158521 C458.92782,189.199997 457.709374,193.832908 457.41977,196.948505 C457.318233,198.041327 457.330462,198.948861 457.518343,199.57791 C457.524457,199.60663 457.533351,199.634052 457.542615,199.661289 C457.662311,200.021857 457.795717,200.511385 457.938203,201.100968 C458.733824,204.374429 459.821828,210.736251 460.547782,215.194622" id="Fill-134" fill="#464462"></path>
                    <path d="M464.150573,289.518862 L450.748964,280.807048 C449.834018,280.212277 449.287607,279.190791 449.300577,278.099637 L450.109354,210.632268 C450.109354,210.046392 448.768989,209.445136 448.183112,209.445136 C447.597421,209.445136 445.852946,209.691753 445.852946,210.27763 L447.414172,278.542287 C447.431589,279.304557 447.053048,280.021432 446.413624,280.436845 L432.442629,289.518862 C432.049635,289.774373 432.230661,290.384708 432.699251,290.384708 L446.955032,284.134058 C447.810315,283.759222 448.783256,283.759222 449.63817,284.134058 L463.89395,290.384708 C464.362911,290.384708 464.543751,289.774373 464.150573,289.518862" id="Fill-135" fill="#464462"></path>
                    <path d="M493.11592,172.85785 C493.11592,172.85785 489.335884,177.342531 484.521762,175.466502 C484.521762,175.466502 483.486195,172.961796 483.471557,171.115598 C483.469889,170.888251 483.46711,170.66813 483.46359,170.458571 C483.437835,168.379468 483.367796,167.212902 483.367796,167.212902 C483.367796,167.212902 483.369093,167.212346 483.372614,167.21179 C483.591623,167.120444 490.731649,164.189207 490.72572,164.432674 C490.60306,170.055757 493.11592,172.85785 493.11592,172.85785" id="Fill-136" fill="#F5BEA5"></path>
                    <path d="M490.008753,165.77352 C489.320227,167.049776 486.957821,169.546515 483.463682,170.458497 C483.437742,168.379394 483.367704,167.213013 483.367704,167.213013 C483.367704,167.213013 483.369001,167.212457 483.372706,167.211902 C483.570222,167.15891 490.21368,165.397388 490.008753,165.77352" id="Fill-137" fill="#FA9350"></path>
                    <path d="M460.547615,215.194622 C458.36401,215.43568 454.373303,215.704346 450.055009,215.14163 C448.702601,214.965237 447.316841,214.70843 445.944607,214.343785 C441.697093,213.210942 437.582799,211.043086 434.958212,207.056085 C436.759385,203.08298 438.811807,200.054468 439.374337,197.596453 C440.077871,194.516987 438.578531,187.339161 437.492379,182.860224 L438.500154,168.803997 L438.500154,168.802144 L438.533321,168.792324 L440.903324,168.157346 C440.903324,168.157346 440.09955,177.152279 452.842279,177.681458 C456.852811,177.848031 459.10701,178.394997 460.312301,179.065365 C460.771256,184.181319 456.419611,196.289069 457.542819,199.660548 C458.328806,202.020361 459.691034,209.933589 460.547615,215.194622" id="Fill-138" fill="#FFB2A8"></path>
                    <path d="M481.872421,166.996876 C481.872421,166.996876 489.902009,168.884578 491.00076,163.866085 C492.099325,158.847592 493.875484,155.711243 488.795291,154.293799 C483.714913,152.876355 482.296357,154.57247 481.522229,156.158525 C480.748286,157.744395 479.812031,166.376351 481.872421,166.996876" id="Fill-139" fill="#F5BEA5"></path>
                    <path d="M490.725831,165.233409 C490.835521,165.303633 492.563506,165.834294 495.8353,159.31609 C496.3491,158.292936 496.698922,156.079315 495.501598,154.123613 C494.304275,152.167726 490.058799,150.629845 486.531679,149.960589 C483.00456,149.291333 482.157799,151.276126 481.326973,153.270738 C480.455014,155.364849 477.936966,157.088572 477.936966,157.088572 C480.978634,158.787837 484.641939,156.357616 485.911154,156.75728 C487.180369,157.156943 487.628577,159.157114 487.723815,159.798206 C487.819052,160.439484 487.965429,160.972184 489.561304,160.399647 C491.157179,159.826926 490.282996,162.661073 490.0273,163.203222 C490.0273,163.203222 489.8107,164.646977 490.725831,165.233409" id="Fill-140" fill="#464462"></path>
                    <path d="M511.410638,290.384689 L516.272563,290.384689 C517.291826,290.384689 518.424484,289.364129 518.707973,287.495883 C518.991462,285.626154 521.086499,284.606891 521.540267,283.077348 C521.993663,281.547991 519.670352,279.394773 519.670352,279.394773 L519.281991,278.895796 L518.878066,278.375696 L515.026695,279.281378 C515.026695,279.281378 514.931643,280.198362 514.872166,281.366595 C514.831032,282.210021 514.808427,283.185371 514.856601,284.040099 C514.969997,286.079921 514.285362,288.275569 512.473628,288.672454 C510.660782,289.069338 511.410638,290.384689 511.410638,290.384689" id="Fill-141" fill="#2A3967"></path>
                    <path d="M477.563057,290.384689 L490.451236,290.384689 C490.574637,290.360787 490.668207,290.333735 490.72472,290.305386 C491.585191,289.874409 491.315784,286.580195 491.212394,285.562415 C491.192569,285.373793 491.178302,285.263177 491.178302,285.263177 C491.178302,285.263177 486.646557,281.638782 486.022697,284.414193 C486.003056,284.500722 485.980451,284.585768 485.956179,284.669333 L485.956179,284.670815 C485.169451,287.267795 481.652522,288.447145 479.621223,288.775844 C478.069076,289.02839 477.666633,289.932775 477.563057,290.384689" id="Fill-142" fill="#2A3967"></path>
                    <path d="M480.160686,216.063691 C480.160686,216.063691 480.849026,224.650808 481.657988,234.97295 C482.75748,248.994528 484.079501,266.218233 484.210314,269.480948 C484.436364,275.146833 485.344084,284.20958 485.344084,284.20958 C485.344084,284.20958 487.495449,286.362798 491.801699,285.455449 C491.801699,285.455449 495.638803,272.517798 496.73496,258.829181 C496.752006,258.604798 496.769053,258.378748 496.786099,258.152699 C497.805547,244.217464 499.391231,214.873965 499.391231,214.873965 L480.160686,216.063691 Z" id="Fill-143" fill="#373551"></path>
                    <path d="M480.160686,216.063691 C480.160686,216.063691 480.849026,224.650808 481.657988,234.97295 L496.73496,258.829181 C496.752006,258.604798 496.769053,258.378748 496.786099,258.152699 C497.805547,244.217464 499.391231,214.873965 499.391231,214.873965 L480.160686,216.063691 Z" id="Fill-144" fill="#35334E"></path>
                    <path d="M483.303872,217.083306 C483.303872,217.083306 495.709379,248.182398 503.866815,262.797264 C512.023696,277.412131 514.572872,281.490664 514.572872,281.490664 C514.572872,281.490664 519.246175,279.62149 519.671038,278.346902 C519.671038,278.346902 516.551549,250.132171 511.089109,243.254139 C508.002417,239.367749 504.376354,227.704501 504.206631,223.626153 C504.036723,219.547621 503.101952,211.475231 503.101952,211.475231 L483.303872,217.083306 Z" id="Fill-145" fill="#464462"></path>
                    <path d="M502.702344,216.807729 C499.305481,218.814941 496.100575,220.302609 492.378163,221.088595 C487.967967,222.047084 482.579457,221.637415 480.774207,221.864947 C480.580212,221.888478 480.401966,221.835486 480.245213,221.729687 C480.113845,221.647235 479.402159,216.205918 478.726047,209.320104 C478.696586,209.05533 478.663235,208.763318 478.657491,208.496875 L478.645633,208.400711 C478.573,207.683281 478.500553,206.95603 478.43385,206.219145 C478.341762,205.184318 478.255604,204.135409 478.173151,203.078904 C478.110339,202.259566 478.04975,201.436337 477.991014,200.613293 C477.979156,200.432823 477.965445,200.252354 477.953772,200.073923 C477.744027,197.037813 477.589127,194.046729 477.542064,191.388604 C477.534282,190.947807 477.530391,190.516459 477.528353,190.093079 L477.528353,190.036381 C477.518533,188.277824 477.565596,186.700107 477.681215,185.398468 C477.71049,185.065507 477.744027,184.753669 477.785161,184.457581 C478.312302,180.466874 480.24299,177.657926 482.058245,175.548807 L483.821063,173.344079 C485.524405,173.49305 487.009664,173.745596 488.671686,172.67927 C490.473045,171.524563 491.273854,169.967783 491.638498,170.171784 C494.425768,171.802493 497.807993,176.28384 499.321045,181.729233 C500.134639,184.661582 500.740156,187.960613 501.118512,191.435667 C501.263592,192.76862 501.37532,194.125105 501.451843,195.499192 C501.845763,202.873236 503.002138,209.172987 503.670652,212.836477 C503.862795,213.889091 504.015656,214.72807 504.097924,215.308203 C504.180376,215.835529 503.153332,216.541287 502.702344,216.807729" id="Fill-146" fill="#4C55CE"></path>
                    <path d="M489.894764,182.340772 C489.894764,182.340772 488.326682,195.67753 478.173151,203.078997 C478.110339,202.259658 478.04975,201.436429 477.991014,200.6132 C477.979156,200.432916 477.965445,200.252447 477.953772,200.074015 C477.744027,197.037721 477.589127,194.046821 477.542064,191.388697 C477.534282,190.947714 477.530391,190.516552 477.528353,190.093172 L477.528353,190.036289 C477.538173,188.466168 477.587089,187.045204 477.681215,185.833799 C480.789957,183.928309 484.819944,182.595542 489.894764,182.340772" id="Fill-147" fill="#3D45BA"></path>
                    <path d="M457.476264,169.253984 C457.476264,169.253984 457.191108,187.41524 446.51655,194.034796 C435.842178,200.654352 443.423187,239.742825 440.318707,254.157952 C437.214227,268.572894 468.184359,256.812186 469.752441,240.543079 C471.320708,224.273786 456.227617,199.199666 456.358244,196.08833 C456.488871,192.976994 460.301517,173.092386 459.897963,170.277509 L457.476264,169.253984 Z" id="Fill-148" fill="#FF6755"></path>
                    <path d="M476.449891,198.114218 C475.047826,198.975802 473.93277,199.597439 473.312801,199.823674 C471.604642,200.445868 468.856839,200.784942 465.886135,200.955777 C459.373675,201.333947 451.79841,200.912049 451.79841,200.912049 C450.65482,201.733611 448.64242,201.591681 446.942784,200.634119 C445.245372,199.676371 445.613537,200.090673 444.393238,199.436425 C443.782903,199.10995 443.841824,198.648586 444.053051,198.267821 C444.280213,197.858337 444.6821,197.569475 445.136238,197.452003 C447.406186,196.862606 448.39358,197.035108 449.37282,197.331567 C449.163446,197.036776 449.060612,196.746802 449.108046,196.568927 C449.174749,196.323051 450.826766,197.305256 451.556611,197.753465 C454.008696,198.101063 459.783715,196.393275 464.092003,194.936735 C466.687501,194.061255 468.750669,193.276936 469.23538,193.088685 C469.630226,192.935823 470.879429,191.675132 472.427315,189.994951 C473.373019,192.796117 474.696893,195.861687 476.449891,198.114218" id="Fill-149" fill="#F5BEA5"></path>
                    <path d="M491.04647,188.26126 C485.957568,191.849894 476.492378,198.568579 474.023246,199.937292 C472.433115,200.818516 470.37254,202.536866 467.35848,203.212422 C463.04593,200.280814 464.091874,194.936587 464.091874,194.936587 C466.687556,194.061292 468.750725,193.276788 469.235435,193.088722 C470.529478,192.589374 481.05803,180.129578 481.05803,180.129578 C481.05803,180.129578 485.070415,174.975826 488.680172,175.824625 C491.816893,176.564475 493.173748,178.887415 493.731276,181.147729 C494.39312,183.841428 493.312713,186.66242 491.04647,188.26126" id="Fill-150" fill="#4C55CE"></path>
                    <path d="M395.430702,290.7359 L377.315397,290.7359 C375.531827,290.7359 374.114012,289.238042 374.217032,287.45688 L374.512008,282.37576 L374.514232,282.327585 L374.71323,278.902188 L375.264273,269.355286 L375.440295,266.348267 L375.861081,259.051302 L376.016722,256.385025 C376.110477,254.745608 377.468815,253.462682 379.110456,253.462682 L393.317877,253.462682 C393.82093,253.462682 394.296376,253.581636 394.717163,253.796569 C395.663978,254.276832 396.333975,255.227909 396.414019,256.353156 L396.560396,258.493404 L396.978773,264.653634 L397.045106,265.625648 L397.733446,275.767136 L398.284489,283.880289 L398.526844,287.424825 C398.648022,289.21766 397.225761,290.7359 395.430702,290.7359" id="Fill-151" fill="#9FA7CF"></path>
                    <path d="M375.265014,269.355175 C375.265014,269.355175 384.882325,270.468934 396.977847,264.655005 L397.352311,270.164137 C397.352311,270.164137 391.574143,277.315466 374.712674,278.901892 L375.265014,269.355175 Z" id="Fill-152" fill="#C5CAE1"></path>
                    <path d="M398.284545,283.880289 C398.284545,283.880289 395.201928,287.603071 388.652967,290.7359 L377.315453,290.7359 C375.531882,290.7359 374.114068,289.238042 374.216902,287.45688 L374.511879,282.37576 L374.514287,282.327585 C374.514287,282.327585 385.639092,281.582362 397.733317,275.767136 L398.284545,283.880289 Z" id="Fill-153" fill="#C5CAE1"></path>
                    <path d="M396.56034,258.493459 C394.520518,260.373194 388.314522,264.989985 375.440425,266.348323 L375.861026,259.051358 C380.189696,259.284819 387.319717,258.674114 394.717292,253.796439 C395.663923,254.276703 396.33392,255.227965 396.413963,256.353026 L396.56034,258.493459 Z" id="Fill-154" fill="#C5CAE1"></path>
                </g>
                <polygon id="Fill-98-Copy-10" fill="#E0E3EF" points="86.5889381 84.9787986 91.4801552 93.9226717 100.421692 98.8115529 91.4801552 103.70277 86.5889381 112.646643 81.697721 103.70277 72.7561837 98.8115529 81.697721 93.9226717"></polygon>
                <polygon id="Fill-98-Copy-20" fill="#E0E3EF" points="579.486724 107.522968 583.291004 114.479314 590.245533 118.281777 583.291004 122.086057 579.486724 129.042403 575.682444 122.086057 568.727915 118.281777 575.682444 114.479314"></polygon>
                <polygon id="Fill-98-Copy-18" fill="#E0E3EF" points="472.914026 108.547703 477.805244 117.491576 486.746781 122.380458 477.805244 127.271675 472.914026 136.215548 468.022809 127.271675 459.081272 122.380458 468.022809 117.491576"></polygon>
                <polygon id="Fill-98-Copy-15" fill="#4C55CE" points="237.225586 41.4275618 239.580617 45.7338711 243.885801 48.0877769 239.580617 50.4428073 237.225586 54.7491166 234.870556 50.4428073 230.565371 48.0877769 234.870556 45.7338711"></polygon>
                <polygon id="Fill-98-Copy-16" fill="#4C55CE" points="424.752088 3 427.107118 7.30630926 431.412303 9.66021506 427.107118 12.0152455 424.752088 16.3215548 422.397057 12.0152455 418.091873 9.66021506 422.397057 7.30630926"></polygon>
                <polygon id="Fill-98-Copy-21" fill="#4C55CE" points="153.197491 6.07420495 154.827896 9.05549597 157.808409 10.6851231 154.827896 12.3155288 153.197491 15.2968198 151.567085 12.3155288 148.586572 10.6851231 151.567085 9.05549597"></polygon>
                <polygon id="Fill-98-Copy-17" fill="#4C55CE" points="595.883003 223.318021 597.513409 226.299312 600.493921 227.928939 597.513409 229.559345 595.883003 232.540636 594.252597 229.559345 591.272085 227.928939 594.252597 226.299312"></polygon>
                <polygon id="Fill-98-Copy-19" fill="#4C55CE" points="4.61091812 214.095406 6.24132381 217.076697 9.22183623 218.706324 6.24132381 220.33673 4.61091812 223.318021 2.98051242 220.33673 0 218.706324 2.98051242 217.076697"></polygon>
            </g>
        </g>
    </g>
</svg>