<?xml version="1.0" encoding="UTF-8"?>
<svg width="1060px" height="714px" viewBox="0 0 1060 714" version="1.1" xmlns="http://www.w3.org/2000/svg" xmlns:xlink="http://www.w3.org/1999/xlink">
    <title>Group 15</title>
    <defs>
        <linearGradient x1="96.2955262%" y1="42.5322865%" x2="-0.503435265%" y2="73.246528%" id="linearGradient-1">
            <stop stop-color="#F6F8FF" offset="0%"></stop>
            <stop stop-color="#E1E9FB" offset="100%"></stop>
        </linearGradient>
    </defs>
    <g id="Page-1" stroke="none" stroke-width="1" fill="none" fill-rule="evenodd">
        <g id="Сollection" transform="translate(-732.000000, -7024.000000)" fill-rule="nonzero">
            <g id="Group-15" transform="translate(732.000000, 7024.000000)">
                <path d="M893.830838,608.241557 C1107.80781,537.729616 973.343162,476.466106 1023.90115,386.934007 C1074.45913,297.401909 1108.25079,104.758818 863.143662,234.613341 C786.971703,274.968239 713.134443,140.509953 607.307652,140.509953 C542.599869,140.509953 396.122272,128.676813 346.671384,107.759366 C28.9240381,-26.6459703 -42.0245337,213.167438 122.880198,370.809233 C287.78493,528.451028 -16.5473305,648.798606 204.355296,700.346184 C379.586169,741.236268 679.853868,678.753498 893.830838,608.241557 Z" id="Oval" fill="url(#linearGradient-1)"></path>
                <g id="freepik--planet-2--inject-54" transform="translate(797.000000, 525.000000)">
                    <g id="Group-2" transform="translate(45.679245, 0.000000)">
                        <circle id="Oval" fill="#F4F6FC" cx="73.5686251" cy="73.4575709" r="73.4575709"></circle>
                        <circle id="Oval" fill="#BDC8F7" cx="73.5686251" cy="73.4575709" r="73.4575709"></circle>
                        <circle id="Oval" fill="#FFFFFF" opacity="0.4" cx="73.5686251" cy="73.4575709" r="73.4575709"></circle>
                        <path d="M8.85534631,38.6183249 C7.20027524,46.8936803 12.9378549,50.3693295 25.5439796,49.652132 C55.4252671,47.9826365 84.6317055,40.1103318 111.304245,26.5363061 C117.152163,22.536551 117.731438,17.9851056 115.524677,13.1302305 C151.191458,41.4595303 153.674065,79.3330732 138.143981,108.434739 C134.36204,114.166947 128.691419,118.393073 122.117376,120.378836 C103.075046,127.875741 83.1071632,132.765646 62.7554941,134.915877 C43.9152684,137.674328 32.8538768,136.433025 28.605861,131.522981 C-3.53010219,106.614161 -6.23338493,68.4096041 8.85534631,38.6183249 Z" id="Path" fill="#FFFFFF" opacity="0.2"></path>
                        <path d="M0.110079805,73.4575709 C0.0362537272,87.596701 4.26984615,101.423229 12.248242,113.096523 C16.1100798,118.613427 28.605861,119.716807 48.1081151,116.98594 C73.4549341,114.374864 98.3214701,108.285857 122.007038,98.8904963 C134.916593,93.814945 143.467793,87.3325834 147.136534,79.1951506 C147.993496,66.1581759 145.405917,53.1251471 139.633545,41.4043612 C138.50258,51.5554638 131.551281,59.9687417 117.565931,66.2304272 C90.2170498,76.4707922 61.7703448,83.4968414 32.7987078,87.1670762 C14.3446653,89.2910841 1.62820264,86.2567872 0.110079805,73.4575709 Z" id="Path" fill="#FFFFFF" opacity="0.2"></path>
                    </g>
                    <path d="M89.7048519,8.79946118 C96.7119222,6.09165991 103.976546,4.10451723 111.386283,2.86878985 C121.123618,1.87574721 122.806273,3.53081828 121.730477,6.09617843 C118.836742,9.06112598 115.412122,11.4564885 111.634544,13.157815 C105.761011,15.7039049 99.5248664,17.3141333 93.1529166,17.9299366 C88.7118092,18.1230282 83.9948567,18.2333663 81.3191585,16.1921119 C79.9951016,13.7922589 83.9672722,11.2544833 89.7048519,8.79946118 Z" id="Path" fill="#4C55CE" opacity="0.1"></path>
                    <path d="M237.888881,37.3770216 C234.220141,26.0673693 210.083688,22.8951498 176.402991,27.3362571 C179.412641,30.9608853 182.020799,34.9008687 184.181825,39.0872617 L184.181825,39.0872617 C196.23626,39.5561985 204.208185,42.4249884 205.94601,47.7488003 C210.194026,60.9066153 174.858258,84.1327793 126.99912,99.6076938 C79.1399816,115.082608 36.9080848,117.013525 32.6600691,103.85571 C30.8119064,98.338806 35.2530137,91.5254301 45.8454686,83.5810889 C45.707546,83.5810889 46.5902506,83.0018141 46.452328,83.0845676 C45.8640675,78.5121143 45.6978595,73.8952254 45.9558067,69.2923087 C15.2266538,85.6775123 -3.08946599,102.752329 0.634443909,114.227488 C6.48236168,132.240178 64.3270955,129.647234 129.86791,108.407155 C195.408724,87.1670762 243.736799,55.3897117 237.888881,37.3770216 Z" id="Path" fill="#FFFFFF"></path>
                </g>
                <g id="Планета-кнопка">
                    <path d="M92.2428939,11.1749541 C82.0042073,5.22748175 68.7729635,10.497394 59.5882594,17.9505555 C50.4035552,25.403717 42.6492559,35.1342335 31.7330092,39.7077645 C24.7691966,42.6250373 16.807865,43.3025974 10.6533603,47.650275 C0.621706049,54.7270142 -1.14747876,68.9745983 0.584063819,81.1330386 C2.3156064,93.2914789 6.58799951,105.355814 5.10113142,117.551896 C3.99068564,126.473105 -0.187601897,135.431955 2.0709319,144.146132 C5.25170034,156.342214 19.2922521,162.157939 26.1243169,172.773048 C31.0366279,180.301494 32.3729271,190.634286 39.6943408,195.979482 C48.1826637,202.171629 59.9835028,198.557975 70.4668638,199.499031 C83.3593276,200.66594 94.388501,208.909588 106.641047,213.087876 C126.688294,219.628215 148.700612,215.03515 164.459512,201.023541 C172.232633,193.946802 177.973073,184.875025 185.614445,177.666537 C192.164194,171.474391 200.106704,166.656185 205.470722,159.428877 C210.83474,152.201569 212.999168,143.750888 215.201238,135.319029 C218.457291,123.010019 221.713344,110.19284 219.341884,97.6767987 C215.577661,77.7075957 198.52573,63.1588738 189.660985,44.86475 C186.1979,37.675084 183.65705,29.5820046 177.333155,24.9331892 C170.538732,20.002057 161.335207,20.4161216 153.373875,17.7247021 C141.949459,13.9604791 133.329388,3.68415032 121.660297,0.785698611 C110.645373,-1.85012055 99.1133621,2.26950941 92.261715,11.2878808" id="Path" fill="#F6F8FF"></path>
                    <path d="M164.250523,167.250523 C197.249826,134.25122 197.249826,80.7487796 164.250523,47.749477 C131.25122,14.7501743 77.7487796,14.7501743 44.749477,47.749477 C11.7501743,80.7487796 11.7501743,134.25122 44.749477,167.250523 C77.7487796,200.249826 131.25122,200.249826 164.250523,167.250523 Z" id="Oval" fill="#E6EBF7"></path>
                    <path d="M119.439491,71.1563893 C119.619852,63.5512731 125.927957,57.5304906 133.533218,57.7046042 C141.13848,57.8787178 147.164442,64.1818744 146.996576,71.7872767 C146.82871,79.3926789 140.530506,85.423817 132.924968,85.2621984 C129.264654,85.1844163 125.785703,83.6534485 123.255729,81.0070958 C120.725755,78.3607431 119.352689,74.8165007 119.439491,71.1563893 Z" id="Path" fill="#D8DFF1"></path>
                    <path d="M142,141.169562 C142.001833,137.872788 144.003678,134.906789 147.060424,133.671872 C150.117171,132.436955 153.617496,133.180093 155.908827,135.550435 C158.200158,137.920777 158.824248,141.444276 157.486451,144.457417 C156.148655,147.470558 153.11652,149.37074 149.821578,149.260848 C145.458553,149.115333 141.997575,145.535012 142,141.169562 L142,141.169562 Z" id="Path" fill="#D8DFF1"></path>
                </g>
            </g>
        </g>
    </g>
</svg>