<?xml version="1.0" encoding="UTF-8"?>
<svg width="24px" height="24px" viewBox="0 0 24 24" version="1.1" xmlns="http://www.w3.org/2000/svg" xmlns:xlink="http://www.w3.org/1999/xlink">
    <title>AF95CB7F-368B-4B30-AD08-BF231E350252</title>
    <g id="Page-1" stroke="none" stroke-width="1" fill="none" fill-rule="evenodd">
        <g id="LK_Customer_Message" transform="translate(-694.000000, -428.000000)" fill="#4C55CE" fill-rule="nonzero">
            <path d="M700.484337,428.3 C701.358313,428.3 702.03494,429.004819 702.03494,429.850602 L702.03494,429.850602 L702.03494,430.499036 L709.928916,430.499036 L709.928916,429.850602 C709.928916,428.976627 710.633735,428.3 711.479518,428.3 L711.479518,428.3 L713.114699,428.3 C713.960482,428.3 714.665301,429.004819 714.665301,429.850602 L714.665301,429.850602 L714.665301,430.499036 L715.87759,430.499036 C717.033494,430.499036 717.963855,431.429398 717.963855,432.585301 L717.963855,432.585301 L717.963855,449.613735 C717.963855,450.769639 717.033494,451.7 715.87759,451.7 L715.87759,451.7 L696.086265,451.7 C694.930361,451.7 694,450.769639 694,449.613735 L694,449.613735 L694,432.585301 C694,431.429398 694.930361,430.499036 696.086265,430.499036 L696.086265,430.499036 L697.298554,430.499036 L697.298554,429.850602 C697.298554,428.976627 698.003373,428.3 698.849157,428.3 L698.849157,428.3 Z M715.962169,436.870602 L695.973494,436.870602 L695.973494,449.613735 C695.973494,449.67012 696.02988,449.726506 696.086265,449.726506 L696.086265,449.726506 L715.87759,449.726506 C715.933976,449.726506 715.990361,449.67012 715.990361,449.613735 L715.990361,449.613735 L715.962169,449.613735 L715.962169,436.870602 Z M702.683373,446.117831 L702.683373,448.091325 L700.484337,448.091325 L700.484337,446.117831 L702.683373,446.117831 Z M707.081446,446.117831 L707.081446,448.091325 L704.88241,448.091325 L704.88241,446.117831 L707.081446,446.117831 Z M711.479518,446.117831 L711.479518,448.091325 L709.280482,448.091325 L709.280482,446.117831 L711.479518,446.117831 Z M702.683373,442.255422 L702.683373,444.228916 L700.484337,444.228916 L700.484337,442.255422 L702.683373,442.255422 Z M707.081446,442.255422 L707.081446,444.228916 L704.88241,444.228916 L704.88241,442.255422 L707.081446,442.255422 Z M711.479518,442.255422 L711.479518,444.228916 L709.280482,444.228916 L709.280482,442.255422 L711.479518,442.255422 Z M707.081446,438.393012 L707.081446,440.366506 L704.88241,440.366506 L704.88241,438.393012 L707.081446,438.393012 Z M711.479518,438.393012 L711.479518,440.366506 L709.280482,440.366506 L709.280482,438.393012 L711.479518,438.393012 Z M702.683373,438.393012 L702.683373,440.366506 L700.484337,440.366506 L700.484337,438.393012 L702.683373,438.393012 Z" id="Combined-Shape"></path>
        </g>
    </g>
</svg>