<?xml version="1.0" encoding="UTF-8"?>
<svg width="192px" height="160px" viewBox="0 0 192 160" version="1.1" xmlns="http://www.w3.org/2000/svg" xmlns:xlink="http://www.w3.org/1999/xlink">
    <title>6D8471C1-0793-403E-9CC8-F3FDA203538E</title>
    <defs>
        <rect id="path-1" x="0" y="0" width="192" height="160"></rect>
        <linearGradient x1="37.3449189%" y1="17.4249992%" x2="50%" y2="110.463681%" id="linearGradient-3">
            <stop stop-color="#F1BFA5" offset="0%"></stop>
            <stop stop-color="#FFD3C0" offset="100%"></stop>
        </linearGradient>
        <filter x="-73.8%" y="-133.7%" width="247.5%" height="367.4%" filterUnits="objectBoundingBox" id="filter-4">
            <feGaussianBlur stdDeviation="2" in="SourceGraphic"></feGaussianBlur>
        </filter>
    </defs>
    <g id="Page-1" stroke="none" stroke-width="1" fill="none" fill-rule="evenodd">
        <g id="Registration_Customer_3" transform="translate(-1198.000000, -584.000000)">
            <g id="Group-6" transform="translate(1198.000000, 584.000000)">
                <mask id="mask-2" fill="white">
                    <use xlink:href="#path-1"></use>
                </mask>
                <use id="Rectangle" fill-opacity="0" fill="#FFFFFF" xlink:href="#path-1"></use>
                <path d="M165.314091,72.1207459 L170.627729,65.6825736 C170.627729,65.6825736 171.962576,56.9652885 171.778016,55.7377436 C171.386807,54.1042155 170.896601,52.4959951 170.310112,50.9219908 C170.236083,50.7103257 170.259917,50.4767115 170.375164,50.2843565 C170.490411,50.0920014 170.685159,49.9607887 170.906716,49.9262202 C171.872442,49.7674119 173.45194,49.9262202 174.679485,52.2568385 C175.804019,54.4028959 176.396331,57.2957813 176.679611,59.1800197 C176.7561,59.6455816 177.030952,60.0549997 177.432881,60.3020868 C177.834809,60.549174 178.324214,60.6095859 178.774163,60.4676541 C181.215726,59.6927471 183.708331,59.0889573 186.233858,58.6606738 C187.688885,58.4932813 189.328473,59.8796344 189.64609,60.9183262 C189.886448,61.6994911 188.663195,63.193147 188.663195,63.193147 C188.663195,63.193147 189.929369,63.6910324 190.380041,64.5880844 C190.440131,64.7039715 190.495928,64.8155664 190.543142,64.9271614 C190.854697,65.6699525 190.750217,66.5221204 190.268446,67.1676454 L189.933661,67.5968568 C189.933661,67.5968568 191.478823,67.8586759 191.749226,68.7042225 C191.9149,69.3250589 191.96294,69.9714146 191.890866,70.6099214 L190.624692,72.2065882 C191.044722,72.5296505 191.346454,72.9822473 191.483115,73.4942226 C191.633339,74.2796796 189.710471,76.4557818 189.710471,76.4557818 L178.135009,79.0185867 L172.092258,81.9652886 L165.314091,72.1207459 Z" id="Path" fill="#F8BB9F" fill-rule="nonzero" mask="url(#mask-2)"></path>
                <path d="M189.50445,63.4335055 C189.442469,63.4818026 189.374702,63.5221744 189.30272,63.5536847 L188.697532,63.8584248 L186.46134,64.948622 L183.130659,66.5367045 C182.499718,66.8242762 181.843025,67.1719375 181.130534,67.4294644 C180.36658,67.751433 179.494342,67.6859353 178.787039,67.2534877 C178.446362,66.9959351 178.210122,66.624047 178.121761,66.2062116 C178.03889,65.8108976 178.053622,65.4013418 178.164682,65.0130037 C178.393313,64.2913402 178.859187,63.668157 179.486654,63.2446524 C180.032756,62.86574 180.606667,62.5285675 181.2035,62.2360054 L182.722908,61.43338 L184.929055,60.2873853 L185.534244,59.9826452 C185.603119,59.9434956 185.676669,59.9132107 185.753141,59.8925108 C185.692564,59.9429691 185.626303,59.9861828 185.555704,60.0212742 L184.971976,60.3603513 L182.800166,61.5707276 L181.293634,62.3991058 C180.712267,62.6948784 180.152858,63.0319585 179.619709,63.4077528 C179.034848,63.8090166 178.599998,64.3933467 178.38358,65.0688012 C178.139555,65.7842606 178.355387,66.5762124 178.928679,67.0689267 C179.238397,67.2820261 179.604335,67.398529 179.980247,67.4037117 C180.35147,67.4088655 180.72064,67.3478215 181.070444,67.2234429 C181.770059,66.9787923 182.418168,66.631131 183.053401,66.3650199 L186.401251,64.8198586 L188.667487,63.7940431 L189.289844,63.5236399 C189.357204,63.4844889 189.429335,63.454194 189.50445,63.4335055 L189.50445,63.4335055 Z" id="Path" fill="#AA6550" fill-rule="nonzero" mask="url(#mask-2)"></path>
                <path d="M190.564602,67.8801364 C190.417446,67.9786764 190.260702,68.0620817 190.096762,68.1290791 C189.787729,68.275011 189.341349,68.4767404 188.779082,68.7128067 C187.663132,69.1892314 186.096511,69.8030039 184.341036,70.3996078 C183.912237,70.5539338 183.475199,70.6843287 183.031941,70.7901903 C182.607619,70.8921349 182.164212,70.8832668 181.744306,70.7644376 C181.017453,70.5231889 180.494497,69.8849491 180.400874,69.1248497 C180.35046,68.6245603 180.496694,68.1242856 180.808625,67.7299124 C180.891602,67.6259654 180.986703,67.5323056 181.091905,67.4509249 C181.164871,67.3994196 181.207792,67.377959 181.212084,67.3822511 C181.216376,67.3865432 181.066152,67.5110146 180.877299,67.7814178 C180.614999,68.1692406 180.500758,68.6383911 180.55539,69.1033891 C180.6625,69.7877157 181.145425,70.3536166 181.804396,70.5670003 C182.195691,70.6682265 182.606308,70.6682265 182.997604,70.5670003 C183.433435,70.4597206 183.863253,70.3293424 184.285238,70.1764179 C186.040713,69.584106 187.607335,68.9960863 188.736161,68.5582906 L190.079593,68.0389447 C190.235534,67.969893 190.39802,67.9166896 190.564602,67.8801364 L190.564602,67.8801364 Z" id="Path" fill="#AA6550" fill-rule="nonzero" mask="url(#mask-2)"></path>
                <path d="M190.847882,72.0606563 C190.700343,72.1311156 190.54464,72.1830167 190.384333,72.2151724 L189.096699,72.5585416 C188.006502,72.837529 186.499969,73.2066509 184.834629,73.6015255 C184.425996,73.7081229 184.011924,73.7926567 183.594208,73.8547602 C183.188831,73.9165083 182.774271,73.8645026 182.396708,73.7045362 C182.039413,73.557827 181.766846,73.2584767 181.654172,72.8890344 C181.564038,72.5739576 181.58526,72.2374424 181.714261,71.9361849 C181.897933,71.5110327 182.22433,71.1633823 182.637066,70.9532906 C182.774404,70.8611176 182.929291,70.7982864 183.09203,70.7687297 C183.09203,70.7687297 182.937514,70.854572 182.662819,71.0262566 C182.293745,71.2527202 182.006554,71.5910343 181.843025,71.9919824 C181.73741,72.2667357 181.726833,72.5689405 181.81298,72.8504054 C181.920864,73.160953 182.159241,73.4087391 182.465381,73.5285595 C182.809698,73.666443 183.184701,73.7094275 183.551286,73.6530309 C183.960469,73.58886 184.365936,73.5028954 184.765955,73.395504 C186.431296,73.0006294 187.946412,72.6572602 189.05807,72.4169018 L190.345704,72.1422064 C190.509821,72.0977056 190.678117,72.0703755 190.847882,72.0606563 L190.847882,72.0606563 Z" id="Path" fill="#AA6550" fill-rule="nonzero" mask="url(#mask-2)"></path>
                <path d="M190.697658,75.8548857 C190.219755,75.9187176 189.737412,75.9431219 189.255507,75.9278517 C188.367039,75.9278517 187.135202,75.9278517 185.778894,75.9278517 L184.783123,75.9278517 C184.467628,75.939838 184.151868,75.9124434 183.84315,75.8463015 C183.545771,75.7826551 183.279168,75.6190579 183.087738,75.3827531 C182.91965,75.1679746 182.859519,74.8878944 182.924638,74.6230488 C183.034958,74.2637082 183.296793,73.9705162 183.641421,73.8204233 C183.759247,73.7555306 183.89371,73.727144 184.027711,73.7388731 C184.027711,73.7603337 183.890364,73.7775022 183.68005,73.8976814 C183.382828,74.0584224 183.165335,74.3349492 183.079154,74.6616778 C183.035355,74.877763 183.092214,75.102039 183.23367,75.2711581 C183.407642,75.4626866 183.63733,75.5947946 183.890364,75.6488642 C184.186453,75.7002426 184.487119,75.7203829 184.787416,75.7089538 L185.778894,75.7089538 C187.135202,75.7089538 188.354163,75.7432908 189.255507,75.7690435 C189.737701,75.7612197 190.219796,75.7899158 190.697658,75.8548857 Z" id="Path" fill="#AA6550" fill-rule="nonzero" mask="url(#mask-2)"></path>
                <path d="M181.740014,72.1507907 C180.969104,71.818077 180.166751,71.5635671 179.345014,71.3910863 C178.511254,71.2956583 177.669931,71.2855912 176.834127,71.3610415 C178.502153,70.8317027 180.322377,71.1247221 181.740014,72.1507907 L181.740014,72.1507907 Z" id="Path" fill="#AA6550" fill-rule="nonzero" mask="url(#mask-2)"></path>
                <path d="M134.136169,93.2980404 L166.636062,69.918891 L177.532729,81.7984859 L151.937928,105.161901 C140.572408,115.441516 133.963411,114.668744 117.834996,107.744388 C115.164018,106.49918 113.160784,105.565275 111.825294,104.942671 C110.577646,104.361018 108.706173,103.48854 106.210875,102.325234 L105.397406,159.964431 L58.2560756,160.027696 C58.3674808,159.70187 56.0229686,140.333588 51.2225391,101.922849 L33.5204132,116.389618 L50.9163545,129.99133 L44.4781823,144.88926 L13.2242359,124.43498 C2.44244347,117.262856 10.3876551,109.566026 19.5856572,100.449574 C36.1532204,84.0322351 43.9845891,72.5199125 58.148568,70.0991598 C65.4451632,67.9058891 69.737278,67.5238909 69.737278,67.5238909 C81.1371349,67.3607905 81.9869736,67.3994196 88.094653,67.6869913 C89.2834225,67.7487846 90.4665408,67.8921929 91.6356477,68.1162027 C98.299421,69.1090912 103.338513,74.3624844 108.770722,78.3478075 L134.136169,93.2980404 Z" id="Path" fill="#FF725E" fill-rule="nonzero" mask="url(#mask-2)"></path>
                <path d="M134.917334,104.230057 C134.815506,104.111301 134.731634,103.978263 134.668391,103.835182 C134.465247,103.462716 134.287437,103.076982 134.136169,102.680603 C133.907546,102.09344 133.725289,101.489264 133.59107,100.873623 C133.431166,100.118911 133.33355,99.3523349 133.299206,98.5816337 C133.276575,97.8096558 133.319651,97.0371518 133.42797,96.2724759 C133.523204,95.6485267 133.666705,95.0329069 133.857181,94.4311587 C133.973314,94.0256397 134.116711,93.62843 134.286393,93.2422429 C134.340153,93.0901629 134.413755,92.9458457 134.505291,92.8130314 C134.548212,92.8130314 134.282101,93.435388 134.003113,94.4569114 C133.846677,95.0569909 133.727699,95.6662155 133.646868,96.2810601 C133.552774,97.0340184 133.5169,97.7931128 133.539565,98.5515889 C133.572402,99.309678 133.66135,100.064293 133.805676,100.809241 C133.93098,101.41554 134.094405,102.013331 134.294977,102.599053 C134.64693,103.624869 134.955963,104.208596 134.917334,104.230057 Z" id="Path" fill="#263238" fill-rule="nonzero" mask="url(#mask-2)"></path>
                <path d="M104.765583,120.75562 C108.137064,116.693494 110.193229,107.820515 109.183538,102.638983 C108.173846,97.4574513 104.891349,93.002903 100.241338,90.5038736 L104.765583,120.75562 Z" id="Path" fill="#FF725E" fill-rule="nonzero" mask="url(#mask-2)"></path>
                <path d="M100.224169,91.3494202 C100.307175,91.3847241 100.385117,91.4309117 100.455944,91.4867679 C100.597583,91.5854865 100.825066,91.7228342 101.086885,91.9159794 C101.850025,92.4827472 102.567574,93.1084501 103.232942,93.7873414 C105.404167,96.0571063 107.159201,98.6911101 108.417817,101.568946 C109.157152,103.150874 109.543784,104.874608 109.550935,106.620765 C109.541446,108.035984 109.315648,109.441436 108.881365,110.788408 C108.597976,111.694722 108.253827,112.580905 107.851258,113.440935 L107.503596,114.131966 C107.466752,114.214656 107.422203,114.293694 107.370541,114.368032 C107.391517,114.280069 107.423231,114.195019 107.464967,114.114797 C107.542225,113.930236 107.645236,113.685586 107.769707,113.406598 C108.138469,112.537756 108.459426,111.649392 108.731141,110.745487 C109.134784,109.407644 109.341542,108.01817 109.344913,106.620765 C109.320624,104.910116 108.931381,103.224369 108.203211,101.676248 C106.949559,98.82197 105.229198,96.1964618 103.112763,93.9075207 C102.460716,93.2251489 101.763844,92.5870666 101.026795,91.9975296 C100.769268,91.7829238 100.554662,91.6369919 100.421607,91.5211048 C100.350136,91.4707288 100.283982,91.4132038 100.224169,91.3494202 Z" id="Path" fill="#263238" fill-rule="nonzero" mask="url(#mask-2)"></path>
                <path d="M22.073343,114.187763 C22.219675,114.113417 22.3757108,114.05996 22.5368914,114.028955 C22.7217341,113.973192 22.9094239,113.927344 23.0991584,113.891607 C23.3180563,113.848686 23.571291,113.788596 23.8502785,113.758552 C24.5094697,113.660738 25.1754753,113.616242 25.8418198,113.625496 C26.6560207,113.642219 27.4673107,113.728374 28.2668646,113.883023 C29.0656962,114.050454 29.8494792,114.283005 30.6103593,114.578346 C31.2271843,114.827162 31.8240951,115.122748 32.3958791,115.462521 C32.6448217,115.599869 32.8508433,115.754385 33.0396963,115.891733 C33.2285494,116.02908 33.3787734,116.132091 33.5032447,116.23081 C33.6396461,116.323417 33.7636864,116.433034 33.8723666,116.557011 C33.8466139,116.591347 33.2972232,116.157844 32.3143289,115.612745 C31.7405423,115.295593 31.145359,115.018797 30.5331013,114.784367 C29.7816807,114.502323 29.0096861,114.278474 28.2239435,114.114797 C27.4364373,113.964555 26.6386846,113.874163 25.8375277,113.844394 C25.18119,113.828959 24.524543,113.856199 23.8717391,113.925944 C22.7557892,114.037539 22.0819272,114.226392 22.073343,114.187763 Z" id="Path" fill="#263238" fill-rule="nonzero" mask="url(#mask-2)"></path>
                <path d="M58.9039802,91.4009256 C58.9045018,91.3153896 58.9160424,91.2302773 58.9383171,91.1476908 C58.9769461,90.9588378 59.0198673,90.7184793 59.0799569,90.4266155 C59.2452908,89.5493234 59.3642047,88.6639162 59.4362024,87.7740886 C59.5415583,86.4545671 59.5012556,85.1274554 59.3160232,83.8167587 C59.0873646,82.2139414 58.568095,80.6663145 57.7837382,79.2499486 C57.0057144,77.8312358 55.9097939,76.6119141 54.5818206,75.6874933 C53.4875544,74.9489463 52.2480521,74.4528527 50.9463993,74.2324664 C50.0680922,74.0883995 49.1721795,74.0883995 48.2938724,74.2324664 C47.6672236,74.3354771 47.3367308,74.4556563 47.3281465,74.4299036 C47.4054628,74.3928567 47.4858934,74.3626953 47.568505,74.3397692 C47.799936,74.2594599 48.0365447,74.1949303 48.2767039,74.1466241 C49.164788,73.9702189 50.0766585,73.9484385 50.972152,74.0822423 C52.3052073,74.2821563 53.5774885,74.7746522 54.6977077,75.5243929 C56.0620831,76.4553407 57.1859563,77.696897 57.9768834,79.1469378 C58.7731746,80.5863979 59.2956301,82.1610408 59.5177526,83.791006 C59.6960323,85.1171646 59.7205165,86.459479 59.5907185,87.791257 C59.5061613,88.6867469 59.3627812,89.5757037 59.1615071,90.4523682 C59.0928332,90.7614005 59.0327436,90.9974668 58.9855304,91.1605672 C58.9663291,91.2431768 58.939013,91.3236874 58.9039802,91.4009256 Z" id="Path" fill="#263238" fill-rule="nonzero" mask="url(#mask-2)"></path>
                <path d="M41.9973399,89.0316782 C41.8931561,87.8572758 41.8616206,86.6775589 41.9029134,85.4992677 C41.8718989,84.320165 41.9163415,83.1402857 42.035969,81.9668572 C42.1400213,83.1412744 42.1701255,84.3210722 42.1261034,85.4992677 C42.1571286,86.6782722 42.1141229,87.8580617 41.9973399,89.0316782 Z" id="Path" fill="#FAFAFA" fill-rule="nonzero" mask="url(#mask-2)"></path>
                <path d="M33.8380297,99.3198774 C33.2259768,98.773578 32.662986,98.1746822 32.1555207,97.5300656 C31.5936835,96.9309164 31.0879589,96.2815201 30.6446962,95.5900297 C31.2573906,96.1372284 31.8204259,96.7376079 32.3272053,97.3841337 C32.8895164,97.9813363 33.3952862,98.6293537 33.8380297,99.3198774 L33.8380297,99.3198774 Z" id="Path" fill="#FAFAFA" fill-rule="nonzero" mask="url(#mask-2)"></path>
                <path d="M47.5212917,97.2982914 C46.5345366,97.6733258 45.5217806,97.976005 44.4910586,98.2039276 C43.4785425,98.5068841 42.4458553,98.7378045 41.400736,98.8949581 C42.3888338,98.5195653 43.403043,98.2168805 44.4352611,97.9893218 C45.4462678,97.6861583 46.4775427,97.455233 47.5212917,97.2982914 Z" id="Path" fill="#FAFAFA" fill-rule="nonzero" mask="url(#mask-2)"></path>
                <path d="M53.2212202,92.8216156 C53.1220362,92.545099 53.0613775,92.2562484 53.0409513,91.9631926 C52.9679854,91.4223862 52.8950194,90.6755582 52.8606825,89.8171352 C52.8323829,89.1018155 52.8409785,88.3855125 52.8864352,87.6710778 C52.8831309,87.3740549 52.9206809,87.077988 52.9980302,86.7911943 C53.0624119,86.7911943 53.0237829,88.1389183 53.0838725,89.7956747 C53.1439621,91.452431 53.2856019,92.8130314 53.2212202,92.8216156 Z" id="Path" fill="#FAFAFA" fill-rule="nonzero" mask="url(#mask-2)"></path>
                <path d="M31.906578,111.60391 C31.7961378,110.629466 31.7588352,109.648119 31.794983,108.668104 C31.7588496,107.687978 31.7975912,106.706524 31.9108701,105.732297 C32.0211172,106.706756 32.0569886,107.688196 32.018173,108.668104 C32.0543208,109.648119 32.0170182,110.629466 31.906578,111.60391 L31.906578,111.60391 Z" id="Path" fill="#FAFAFA" fill-rule="nonzero" mask="url(#mask-2)"></path>
                <path d="M22.4639254,108.470666 C21.2287454,108.101376 20.0162873,107.659961 18.8327963,107.148695 C17.6225109,106.706636 16.4387762,106.195022 15.2875094,105.61641 C16.5227824,105.987102 17.7352421,106.429951 18.9186386,106.942673 C20.1280272,107.38535 21.3116467,107.895482 22.4639254,108.470666 Z" id="Path" fill="#FAFAFA" fill-rule="nonzero" mask="url(#mask-2)"></path>
                <path d="M14.2659861,119.166616 C14.26128,118.179655 14.3330299,117.193812 14.4805919,116.217933 C14.5511945,115.234351 14.6946586,114.257361 14.9098033,113.295003 C14.9146128,114.281968 14.8428623,115.267819 14.6951976,116.243686 C14.6255162,117.227369 14.4820421,118.204428 14.2659861,119.166616 L14.2659861,119.166616 Z" id="Path" fill="#FAFAFA" fill-rule="nonzero" mask="url(#mask-2)"></path>
                <path d="M27.6659686,127.965452 C27.2824935,127.9128 26.9046421,127.825161 26.5371424,127.703633 C25.8461119,127.523364 24.8975545,127.274421 23.8374021,127.029771 C22.7772498,126.78512 21.8158161,126.600559 21.1162014,126.441751 C20.7346717,126.3862 20.3584978,126.298617 19.9916673,126.179932 C20.379306,126.173022 20.7665197,126.209009 21.1462462,126.287235 C21.850153,126.390246 22.8244631,126.56193 23.8889075,126.810873 C24.953352,127.059815 25.9019094,127.330219 26.5800635,127.553409 C26.9547948,127.654423 27.3185528,127.79245 27.6659686,127.965452 L27.6659686,127.965452 Z" id="Path" fill="#FAFAFA" fill-rule="nonzero" mask="url(#mask-2)"></path>
                <path d="M32.3486658,124.00383 C31.7806668,122.078055 31.3574294,120.112512 31.082492,118.123632 C31.4006256,119.077167 31.6487957,120.052634 31.8250278,121.042271 C32.0713123,122.01542 32.2463222,123.00523 32.3486658,124.00383 L32.3486658,124.00383 Z" id="Path" fill="#FAFAFA" fill-rule="nonzero" mask="url(#mask-2)"></path>
                <path d="M37.0785764,136.764287 C36.7432811,136.782107 36.4070935,136.756136 36.0785136,136.687029 C34.4885565,136.452755 32.9304796,136.038036 31.4344454,135.4509 C31.116997,135.346668 30.8141131,135.202437 30.5331013,135.021688 C30.8603384,135.083852 31.1808547,135.177276 31.4902429,135.300676 C32.0739705,135.489529 32.8808881,135.729887 33.7865243,135.983122 C34.6921605,136.236357 35.5033702,136.412334 36.1171426,136.528221 C36.4446945,136.574633 36.766778,136.653716 37.0785764,136.764287 L37.0785764,136.764287 Z" id="Path" fill="#FAFAFA" fill-rule="nonzero" mask="url(#mask-2)"></path>
                <path d="M42.4050908,135.476653 C42.3848747,135.125437 42.4006951,134.773075 42.4523041,134.425084 C42.5038095,133.776975 42.5724833,132.884215 42.6111123,131.892737 C42.6497414,130.901258 42.6583256,130.008498 42.6626177,129.360389 C42.6418887,129.008124 42.6533821,128.654702 42.6969546,128.304529 C42.7811758,128.648663 42.8229768,129.00181 42.821426,129.356097 C42.860055,130.004206 42.8772235,130.909842 42.821426,131.905613 C42.7903519,132.754414 42.7158578,133.601068 42.598236,134.442253 C42.5734739,134.793285 42.5086717,135.140337 42.4050908,135.476653 L42.4050908,135.476653 Z" id="Path" fill="#FAFAFA" fill-rule="nonzero" mask="url(#mask-2)"></path>
                <path d="M62.9256918,105.457602 C62.8741864,105.496231 62.0071792,104.384573 60.8483082,103.101231 C59.6894372,101.817888 58.6764981,100.834994 58.7237114,100.783489 C58.9867037,100.946641 59.2288451,101.141219 59.4447866,101.362924 C59.8739981,101.749214 60.4276809,102.302897 61.0114086,102.951007 C61.5951362,103.599116 62.0887294,104.21718 62.4278064,104.667852 C62.6280191,104.907885 62.7954463,105.173459 62.9256918,105.457602 Z" id="Path" fill="#FAFAFA" fill-rule="nonzero" mask="url(#mask-2)"></path>
                <path d="M75.046624,94.6543486 C74.4688572,95.261644 73.8367093,95.8147735 73.1580935,96.3068128 C72.5260393,96.8576354 71.84669,97.3517076 71.1279232,97.7833003 C71.7083138,97.1787466 72.340207,96.62584 73.0164537,96.1308361 C73.6485079,95.5800136 74.3278572,95.0859413 75.046624,94.6543486 Z" id="Path" fill="#FAFAFA" fill-rule="nonzero" mask="url(#mask-2)"></path>
                <path d="M68.2951274,88.6453879 C68.2010155,87.2768379 68.1823881,85.9041417 68.2393299,84.5335419 C68.221286,83.1622463 68.2786006,81.7909949 68.4110145,80.425988 C68.50228,81.7946733 68.5194736,83.1672922 68.4625199,84.537834 C68.4804073,85.9090295 68.4245291,87.2801947 68.2951274,88.6453879 L68.2951274,88.6453879 Z" id="Path" fill="#FAFAFA" fill-rule="nonzero" mask="url(#mask-2)"></path>
                <path d="M87.9401369,77.1596887 C88.4025578,76.0431392 88.9314347,74.9552866 89.5239273,73.9019735 C90.0525658,72.8163353 90.6474298,71.7642144 91.3051549,70.7515612 C90.8464721,71.8683992 90.3174822,72.9550506 89.7213645,74.0049843 C89.1940653,75.092708 88.5991582,76.1463386 87.9401369,77.1596887 Z" id="Path" fill="#FAFAFA" fill-rule="nonzero" mask="url(#mask-2)"></path>
                <path d="M86.5151548,89.9501908 C85.6315259,88.9186696 84.8047827,87.8397482 84.0386045,86.7182283 C83.2128738,85.6389169 82.4463197,84.5155928 81.7423231,83.3532103 C82.6284703,84.382688 83.4553233,85.4617528 84.2188733,86.5851728 C85.0428454,87.6657545 85.8093341,88.7889828 86.5151548,89.9501908 Z" id="Path" fill="#FAFAFA" fill-rule="nonzero" mask="url(#mask-2)"></path>
                <path d="M101.262861,81.211445 C100.632392,82.0684252 99.9410027,82.8788713 99.1940619,83.6364899 C98.5017913,84.4452187 97.754625,85.205292 96.9578701,85.9113108 C97.5922622,85.0562117 98.2849399,84.2459365 99.0309616,83.4862659 C99.7238401,82.6795034 100.469442,81.9195634 101.262861,81.211445 Z" id="Path" fill="#FAFAFA" fill-rule="nonzero" mask="url(#mask-2)"></path>
                <path d="M96.6745905,101.830765 C95.8546751,100.846451 95.0936442,99.814545 94.3954776,98.7404419 C93.636626,97.7096173 92.9373019,96.6362695 92.3009255,95.5256479 C93.1186396,96.5101922 93.8795777,97.5405397 94.5800385,98.6116785 C95.3406506,99.6427698 96.0400391,100.71765 96.6745905,101.830765 L96.6745905,101.830765 Z" id="Path" fill="#FAFAFA" fill-rule="nonzero" mask="url(#mask-2)"></path>
                <path d="M80.2830041,108.354779 C80.5910017,107.315799 80.9695885,106.299065 81.4161224,105.31167 C81.7972815,104.295585 82.2460975,103.306182 82.7595543,102.35011 C82.4512118,103.390372 82.0726361,104.408511 81.626436,105.397512 C81.2447933,106.412007 80.7959889,107.39995 80.2830041,108.354779 L80.2830041,108.354779 Z" id="Path" fill="#FAFAFA" fill-rule="nonzero" mask="url(#mask-2)"></path>
                <path d="M69.3123586,117.44977 C69.2823138,117.501276 67.3851991,116.561303 65.0760413,115.346634 C62.7668835,114.131966 60.916982,113.097566 60.9470268,113.046061 C60.9770716,112.994555 62.8698943,113.930236 65.179052,115.149197 C67.4882098,116.368157 69.3381113,117.393973 69.3123586,117.44977 Z" id="Path" fill="#FAFAFA" fill-rule="nonzero" mask="url(#mask-2)"></path>
                <path d="M76.5016509,133.146034 C76.6479987,132.770455 76.8351097,132.412066 77.0596258,132.077298 C77.5567083,131.243873 78.0953318,130.435938 78.673461,129.656545 C79.2523927,128.876805 79.8712847,128.127545 80.5276546,127.411769 C80.7821506,127.095642 81.0699509,126.807842 81.3860776,126.553346 C81.1626187,126.888789 80.9128921,127.205971 80.6392496,127.501903 C80.167117,128.072755 79.5232997,128.871088 78.8494377,129.776724 C78.1755757,130.68236 77.6004323,131.532199 77.1883893,132.145972 C76.9851869,132.49627 76.7556107,132.83059 76.5016509,133.146034 L76.5016509,133.146034 Z" id="Path" fill="#FAFAFA" fill-rule="nonzero" mask="url(#mask-2)"></path>
                <path d="M62.5136487,130.257441 C62.3812118,129.483574 62.3222903,128.698913 62.337672,127.913946 C62.2758365,127.130281 62.2916512,126.34242 62.3848853,125.561867 C62.5146665,126.337502 62.5735684,127.12334 62.560862,127.909654 C62.6177618,128.692026 62.6019563,129.477989 62.5136487,130.257441 Z" id="Path" fill="#FAFAFA" fill-rule="nonzero" mask="url(#mask-2)"></path>
                <path d="M75.4286222,145.777728 C75.3771168,145.816357 74.6174125,144.863508 73.6087655,143.75185 C72.6001185,142.640192 71.7331114,141.781769 71.7760325,141.734556 C73.2147798,142.864598 74.4500532,144.231963 75.4286222,145.777728 Z" id="Path" fill="#FAFAFA" fill-rule="nonzero" mask="url(#mask-2)"></path>
                <path d="M68.393846,151.786689 C67.5696713,152.525122 66.6948018,153.204938 65.775656,153.821151 C64.9011954,154.498148 63.9836054,155.117522 63.0287025,155.675345 C63.8528773,154.936912 64.7277468,154.257095 65.6468926,153.640883 C66.5200694,152.962113 67.4377791,152.342659 68.393846,151.786689 L68.393846,151.786689 Z" id="Path" fill="#FAFAFA" fill-rule="nonzero" mask="url(#mask-2)"></path>
                <path d="M84.691006,152.567854 C84.3613815,152.668431 84.0240218,152.741645 83.682359,152.786752 C83.0557102,152.906931 82.1972873,153.082908 81.2616062,153.336142 C80.3259252,153.589377 79.4889628,153.864072 78.8923589,154.074386 C78.5736397,154.210057 78.2432083,154.31637 77.9051725,154.392003 C78.1940435,154.200082 78.5054105,154.044399 78.8322693,153.928454 C79.6033375,153.607469 80.3948188,153.337907 81.2015166,153.121537 C82.0083215,152.903988 82.8284134,152.73911 83.6566063,152.627943 C83.9973669,152.563347 84.3450578,152.543149 84.691006,152.567854 L84.691006,152.567854 Z" id="Path" fill="#FAFAFA" fill-rule="nonzero" mask="url(#mask-2)"></path>
                <path d="M91.5540976,151.13858 C91.494008,151.13858 91.1248861,149.112701 90.7385958,146.588938 C90.3523054,144.065174 90.0861943,142.013543 90.1462839,142.004932 C90.2063735,141.996375 90.5754954,144.030837 90.9617857,146.554601 C91.3480761,149.078364 91.6141872,151.129995 91.5540976,151.13858 Z" id="Path" fill="#FAFAFA" fill-rule="nonzero" mask="url(#mask-2)"></path>
                <path d="M93.1722249,134.549556 C92.7718417,134.500753 92.3776757,134.410124 91.9961854,134.279153 C91.2794022,134.077423 90.2793395,133.764099 89.2320635,133.373516 C88.1847874,132.982934 87.2104774,132.583767 86.5323232,132.274735 C86.1577358,132.124974 85.7984078,131.939561 85.4592945,131.721052 C85.8495256,131.823769 86.2300936,131.960199 86.596705,132.128803 C87.2877354,132.399206 88.244877,132.77262 89.3093215,133.163203 C90.373766,133.553785 91.3394918,133.88857 92.0433987,134.128929 C92.4308355,134.237137 92.8084506,134.377845 93.1722249,134.549556 Z" id="Path" fill="#FAFAFA" fill-rule="nonzero" mask="url(#mask-2)"></path>
                <path d="M105.134349,143.103741 C104.602141,144.127061 104.004288,145.11488 103.344537,146.061008 C102.746137,147.047917 102.085233,147.995547 101.365872,148.898096 C101.897233,147.874299 102.495118,146.886427 103.155684,145.940829 C103.754084,144.953919 104.414988,144.006289 105.134349,143.103741 L105.134349,143.103741 Z" id="Path" fill="#FAFAFA" fill-rule="nonzero" mask="url(#mask-2)"></path>
                <path d="M102.962539,158.036008 C102.073132,157.4952 101.222647,156.892833 100.417315,156.23332 C99.5665396,155.631306 98.7603837,154.968594 98.0051461,154.250363 C98.8945534,154.791171 99.7450375,155.393538 100.55037,156.053051 C101.401145,156.655065 102.207301,157.317777 102.962539,158.036008 L102.962539,158.036008 Z" id="Path" fill="#FAFAFA" fill-rule="nonzero" mask="url(#mask-2)"></path>
                <path d="M100.597583,125.300048 C100.385854,126.480265 100.099132,127.645789 99.7391605,128.789538 C99.4519628,129.955435 99.0921541,131.102236 98.6618397,132.22323 C98.8751734,131.043355 99.1618706,129.87793 99.5202627,128.73374 C99.8070263,127.567722 100.166843,126.420894 100.597583,125.300048 L100.597583,125.300048 Z" id="Path" fill="#FAFAFA" fill-rule="nonzero" mask="url(#mask-2)"></path>
                <path d="M97.103802,118.780326 C95.4146374,118.072532 93.9011899,117.003009 92.6700474,115.647082 C92.7172607,115.599869 93.6186048,116.415371 94.8461496,117.273794 C96.0736945,118.132217 97.103802,118.737405 97.103802,118.780326 Z" id="Path" fill="#FAFAFA" fill-rule="nonzero" mask="url(#mask-2)"></path>
                <path d="M102.305845,108.346195 C101.987244,109.03235 101.603484,109.686323 101.159851,110.299107 C100.775389,110.950526 100.328325,111.562903 99.8250028,112.127548 C100.143604,111.441393 100.527364,110.78742 100.970997,110.174636 C101.355459,109.523217 101.802523,108.91084 102.305845,108.346195 Z" id="Path" fill="#FAFAFA" fill-rule="nonzero" mask="url(#mask-2)"></path>
                <path d="M111.057467,88.7784435 C111.270777,87.6422577 111.557519,86.5210954 111.91589,85.4220097 C112.208076,84.3019659 112.569304,83.20108 112.997503,82.1256655 C112.783127,83.2616149 112.496402,84.3827091 112.13908,85.4820993 C111.849633,86.6029468 111.488348,87.7040038 111.057467,88.7784435 L111.057467,88.7784435 Z" id="Path" fill="#FAFAFA" fill-rule="nonzero" mask="url(#mask-2)"></path>
                <path d="M117.705953,102.706356 C117.351226,102.520791 117.017397,102.297759 116.710182,102.041078 C115.945706,101.454896 115.217566,100.82279 114.529788,100.148256 C113.843585,99.4747727 113.201309,98.7579472 112.606921,98.0021982 C112.342135,97.7014942 112.114451,97.3700552 111.928767,97.0150118 C112.215625,97.2903194 112.482417,97.5857991 112.7271,97.8991874 C113.212109,98.4571624 113.890263,99.2082825 114.688596,99.9980316 C115.48693,100.787781 116.250926,101.453058 116.808901,101.925191 C117.128339,102.161157 117.42832,102.422384 117.705953,102.706356 Z" id="Path" fill="#FAFAFA" fill-rule="nonzero" mask="url(#mask-2)"></path>
                <path d="M123.045344,96.8476193 C122.989546,96.8132824 123.599027,95.8046354 124.169878,94.4740798 C124.740729,93.1435242 125.06693,92.0061138 125.131312,92.0232823 C124.830009,93.7745385 124.114852,95.4285229 123.045344,96.8476193 L123.045344,96.8476193 Z" id="Path" fill="#FAFAFA" fill-rule="nonzero" mask="url(#mask-2)"></path>
                <path d="M127.21728,107.95132 C127.286977,107.148615 127.430658,106.354061 127.646491,105.577781 C127.786857,104.78644 127.998019,104.009306 128.277432,103.255747 C128.20996,104.058748 128.066242,104.853509 127.84822,105.629286 C127.710262,106.421165 127.499041,107.198516 127.21728,107.95132 L127.21728,107.95132 Z" id="Path" fill="#FAFAFA" fill-rule="nonzero" mask="url(#mask-2)"></path>
                <path d="M137.132065,114.475335 C136.28832,113.950777 135.484895,113.363989 134.72848,112.71986 C133.925334,112.13425 133.16775,111.488582 132.462244,110.788408 C133.305988,111.312966 134.109414,111.899754 134.865828,112.543883 C135.670157,113.127992 136.427853,113.773756 137.132065,114.475335 L137.132065,114.475335 Z" id="Path" fill="#FAFAFA" fill-rule="nonzero" mask="url(#mask-2)"></path>
                <path d="M144.029493,100.76632 C143.907671,101.100817 143.753874,101.422785 143.570237,101.727754 C143.269789,102.311481 142.870622,103.122691 142.48004,104.045496 C142.089457,104.968301 141.780425,105.813847 141.565819,106.436204 C141.469638,106.778652 141.343239,107.111884 141.188113,107.431974 C141.221241,107.076747 141.296156,106.726667 141.411303,106.388991 C141.646649,105.560748 141.933345,104.747965 142.269726,103.955361 C142.605895,103.16288 142.992994,102.392983 143.428597,101.650496 C143.594291,101.333681 143.795918,101.037002 144.029493,100.76632 Z" id="Path" fill="#FAFAFA" fill-rule="nonzero" mask="url(#mask-2)"></path>
                <path d="M149.377468,93.7916336 C147.998854,93.4877546 146.637695,93.1094955 145.299959,92.6585152 C143.940558,92.279552 142.602373,91.8282368 141.291124,91.3064991 C142.668702,91.6162476 144.02963,91.995875 145.368633,92.4439095 C146.726855,92.8250291 148.064855,93.2748493 149.377468,93.7916336 L149.377468,93.7916336 Z" id="Path" fill="#FAFAFA" fill-rule="nonzero" mask="url(#mask-2)"></path>
                <path d="M155.094565,100.079582 C154.87326,100.394789 154.632431,100.695827 154.37349,100.980926 C153.197779,102.416608 152.221766,104.004795 151.47202,105.702252 C151.335927,106.062629 151.17383,106.412643 150.987011,106.749528 C151.052774,106.366176 151.166702,105.992666 151.326088,105.63787 C152.004151,103.888941 152.996196,102.278687 154.253311,100.886499 C154.497252,100.581911 154.780082,100.310626 155.094565,100.079582 L155.094565,100.079582 Z" id="Path" fill="#FAFAFA" fill-rule="nonzero" mask="url(#mask-2)"></path>
                <path d="M157.875856,90.4695367 C157.846458,90.055153 157.846458,89.6392071 157.875856,89.2248234 C157.897316,88.4565348 157.910193,87.3963825 157.875856,86.220343 C157.841519,85.0443036 157.755676,83.9927354 157.687003,83.2158627 C157.629298,82.8034781 157.600613,82.3875513 157.601153,81.9711494 C157.726559,82.3688913 157.808585,82.7790256 157.845811,83.1944021 C157.98203,84.1908527 158.066555,85.1936891 158.099046,86.1988825 C158.132676,87.2007304 158.112617,88.2036607 158.038956,89.2033628 C158.03077,89.6300943 157.97608,90.0546611 157.875856,90.4695367 L157.875856,90.4695367 Z" id="Path" fill="#FAFAFA" fill-rule="nonzero" mask="url(#mask-2)"></path>
                <path d="M168.352908,90.3064363 C167.498598,89.7493366 166.687911,89.1280485 165.927863,88.4479506 C165.113568,87.8285978 164.346059,87.1500339 163.631582,86.4177803 C164.484449,86.9788249 165.296281,87.5998908 166.060919,88.276266 C166.874456,88.8949067 167.640589,89.5735226 168.352908,90.3064363 L168.352908,90.3064363 Z" id="Path" fill="#FAFAFA" fill-rule="nonzero" mask="url(#mask-2)"></path>
                <path d="M172.503383,83.1600652 C172.324696,82.7780873 172.174073,82.3835994 172.052711,81.9797336 C171.790892,81.245782 171.417478,80.2414271 170.962514,79.1426457 C170.50755,78.0438643 170.06117,77.0695542 169.726385,76.3656474 C169.526317,75.9946793 169.355543,75.6086446 169.215623,75.2110685 C169.469634,75.5497868 169.688244,75.913658 169.868024,76.2969736 C170.237146,76.9837119 170.726447,77.9537299 171.155659,79.0568034 C171.58487,80.1598769 171.962576,81.1814002 172.190059,81.9325203 C172.337772,82.3294216 172.442806,82.7409227 172.503383,83.1600652 L172.503383,83.1600652 Z" id="Path" fill="#FAFAFA" fill-rule="nonzero" mask="url(#mask-2)"></path>
                <path d="M83.4512451,109.188687 C81.7343992,113.708284 77.0645783,115.742746 72.7209581,116.030318 L72.4720154,116.030318 C70.4939824,115.937177 68.5147463,116.186941 66.6218629,116.768562 C69.0395833,120.813427 74.1031785,122.406775 78.4014822,120.475224 C82.6997859,118.543673 84.8704804,113.699415 83.4512451,109.205856 L83.4512451,109.188687 Z" id="Path" fill="#D15341" fill-rule="nonzero" mask="url(#mask-2)"></path>
                <path d="M58.3354946,129.681585 C59.5703049,133.58741 61.3162458,138.179972 62.5510561,142.085797 C63.6340455,145.519489 65.2888938,149.275089 66.3718832,152.695905 L66.8475888,152.657276 C68.9325964,144.699695 65.3901077,135.214121 58.3354946,129.681585 Z" id="Path" fill="#D15341" fill-rule="nonzero" mask="url(#mask-2)" transform="translate(62.888332, 141.188745) rotate(16.000000) translate(-62.888332, -141.188745) "></path>
                <path d="M67.5869284,73.2624484 C67.1576424,73.3913525 66.7465688,73.5745327 66.3636757,73.807547 C66.0214036,74.096166 65.7196614,74.4296705 65.4666237,74.7990255 C65.440871,74.7990255 65.4666237,74.6273409 65.5739266,74.3912746 C65.7297561,74.0860792 65.9564046,73.8226372 66.2349123,73.622986 C66.5108501,73.4230784 66.8298767,73.2907633 67.1663012,73.2366957 C67.4281202,73.2023588 67.5869284,73.2409878 67.5869284,73.2624484 Z" id="Path" fill="#263238" fill-rule="nonzero" mask="url(#mask-2)"></path>
                <path d="M72.8147243,79.9710239 C72.7889716,79.9710239 72.7160056,79.790755 72.690253,79.4688464 C72.667656,79.0449012 72.7394898,78.6212285 72.9005666,78.2284252 C73.0573242,77.8333892 73.3025283,77.4795318 73.6173498,77.1940256 C73.8577082,76.9794198 74.0465612,76.8978696 74.0465612,76.9193302 C73.6586999,77.3306201 73.337234,77.7997865 73.0937118,78.3099754 C72.9181597,78.8465878 72.824117,79.4065036 72.8147243,79.9710239 Z" id="Path" fill="#263238" fill-rule="nonzero" mask="url(#mask-2)"></path>
                <path d="M67.234975,79.67916 C67.2070197,79.4000696 67.236228,79.1182096 67.3208173,78.8507819 C67.6475558,77.5227296 68.4769284,76.3733023 69.6342672,75.6445721 C69.8603575,75.480376 70.1173079,75.3635803 70.3896794,75.3012029 C68.7658005,76.2481653 67.6194127,77.8390709 67.234975,79.67916 Z" id="Path" fill="#263238" fill-rule="nonzero" mask="url(#mask-2)"></path>
                <path d="M63.5437563,71.7172871 C63.5222957,71.7172871 63.5995538,71.528434 63.8141595,71.2880756 C64.4014703,70.7199115 65.2415831,70.4972897 66.0331829,70.7000559 C66.3293388,70.7858982 66.4623944,70.8974931 66.4623944,70.9232458 C65.9455462,70.8174427 65.4126206,70.8174427 64.8957725,70.9232458 C64.3971328,71.0961469 63.9376356,71.3660103 63.5437563,71.7172871 L63.5437563,71.7172871 Z" id="Path" fill="#263238" fill-rule="nonzero" mask="url(#mask-2)"></path>
                <path d="M78.785056,79.5976099 C78.661401,79.2439231 78.5736853,78.8786806 78.523237,78.5074127 C78.4017959,78.1542604 78.3127253,77.790795 78.2571259,77.4215077 C78.5171746,77.7104942 78.6846206,78.0708021 78.7378427,78.4559073 C78.861382,78.8243246 78.8777549,79.2202504 78.785056,79.5976099 Z" id="Path" fill="#263238" fill-rule="nonzero" mask="url(#mask-2)"></path>
                <path d="M84.9485329,79.67916 C84.6554173,78.3229132 83.9842853,77.0773756 83.0127891,76.0866599 C83.6298938,76.4523043 84.1243949,76.9931182 84.4334791,77.6404055 C84.807895,78.2520533 84.9875211,78.9630733 84.9485329,79.67916 L84.9485329,79.67916 Z" id="Path" fill="#263238" fill-rule="nonzero" mask="url(#mask-2)"></path>
                <path d="M87.5452623,74.8805757 C87.4851727,74.9063284 87.3220724,74.5629592 86.9400741,74.3440613 C86.5580759,74.1251635 86.188954,74.1337477 86.1803698,74.069366 C86.1717856,74.0049843 86.2662121,73.9964 86.4336046,73.9878158 C86.6514647,73.9827854 86.8661239,74.0409223 87.0516691,74.1552083 C87.2373544,74.2639764 87.3866962,74.4252656 87.4808806,74.6187567 C87.5667229,74.7646886 87.571015,74.8719915 87.5452623,74.8805757 Z" id="Path" fill="#263238" fill-rule="nonzero" mask="url(#mask-2)"></path>
                <path d="M92.4769023,72.8117763 C92.2543299,72.6686371 92.0394282,72.5139078 91.833085,72.3482279 C91.3131357,72.0038309 90.7293069,71.7673802 90.1162391,71.6529053 C89.4972328,71.5427524 88.8624598,71.5573449 88.2491692,71.6958265 C87.7813286,71.8074215 87.5066333,71.940477 87.4894648,71.9061401 C87.6977998,71.7304314 87.9449722,71.6068452 88.2105401,71.5456025 C89.488224,71.1533598 90.8767639,71.4045127 91.9360958,72.2194645 C92.156784,72.3758016 92.341231,72.577815 92.4769023,72.8117763 Z" id="Path" fill="#263238" fill-rule="nonzero" mask="url(#mask-2)"></path>
                <path d="M91.1248861,68.9789178 C90.709003,68.9132735 90.2882903,68.88312 89.8672964,68.8887834 C89.453345,68.9647694 89.04583,69.0723878 88.6483358,69.210692 C89.3209759,68.5701355 90.3450713,68.474293 91.1248861,68.9789178 Z" id="Path" fill="#263238" fill-rule="nonzero" mask="url(#mask-2)"></path>
                <path d="M50.4313455,131.158785 C50.5086036,131.300425 52.2340338,132.639565 52.2340338,132.639565 L57.5144596,132.624109 C57.5144596,132.624109 60.986176,130.433879 64.0924888,135.834134 C67.1988016,141.23439 63.3211744,151.716841 62.0954668,151.8566 C60.9794405,151.983853 56.330265,149.300869 48.1479405,143.807647 L45.2035497,143.202459 L50.4313455,131.158785 Z" id="Path" fill="#F8BB9F" fill-rule="nonzero" mask="url(#mask-2)"></path>
                <ellipse id="Oval-Copy-88" stroke="#979797" fill="#D8D8D8" mask="url(#mask-2)" transform="translate(73.899642, 44.588608) rotate(-3.000000) translate(-73.899642, -44.588608) " cx="73.8996418" cy="44.5886079" rx="3.36565508" ry="1.9632988"></ellipse>
                <path d="M79.0282181,30.6223251 C76.9198699,30.5742497 70.6834525,29.8713303 72.703174,30.4780989 L69.0294818,32.3845775 C78.0018111,35.0800617 77.5940306,34.7150968 79.5073183,30.7119792 L79.0282181,30.6223251 Z" id="Path-21-Copy" stroke="#979797" mask="url(#mask-2)" transform="translate(74.268400, 32.175595) rotate(-3.000000) translate(-74.268400, -32.175595) "></path>
                <path d="M80.0381113,32.4001661 C78.0876108,29.3684581 78.7185519,29.1511301 73.0238291,30.5007747 C71.7482975,30.8030746 68.4858772,32.1441629 69.7087533,32.6163281 C78.5550652,36.0319817 78.3254221,35.4479311 79.4959343,31.6893118" id="Path-20-Copy" stroke="#979797" mask="url(#mask-2)" transform="translate(74.738686, 32.291081) rotate(-3.000000) translate(-74.738686, -32.291081) "></path>
                <path d="M78.467114,19.2000988 C84.7502311,18.1225282 93.6305057,24.7740522 94.4399458,31.0969963 C95.3391366,38.1199965 95.0588309,42.1152448 93.6007181,46.5491694 C92.0779584,51.1796767 91.0938302,52.9659018 90.1644538,54.5216274 L90.000916,54.7943065 C89.5930002,55.4726825 89.190201,56.1361206 88.7509681,57.0090641 C87.8319576,58.8355309 84.1285231,60.2034514 84.1285231,60.2034514 C84.1285231,60.2034514 84.4759658,63.9038517 84.6826349,67.7519918 C87.4676969,68.1110815 89.3832009,68.4371124 89.3568409,68.5136889 C88.2679674,71.6768952 85.7585322,79.119313 77.3402672,78.4799464 C76.1893646,78.3925355 75.0757566,78.1361699 74.0152852,77.7571691 C67.3189492,75.3639724 62.7413158,68.0809686 64.2710211,67.5702876 C64.7476372,67.4111727 66.0732574,67.1794681 67.9297015,67.0097979 C68.5139369,64.5831486 69.1008948,62.2411474 69.2737816,58.3422533 C69.3463753,56.7051429 65.2742509,56.2725064 65.2379293,54.9238936 C65.0658365,48.5341222 64.2031286,39.9986113 62.6498056,29.3173607 C62.4865713,27.3882794 68.2170181,21.7632049 70.1253446,21.4361754 C71.4977795,20.663838 74.2783693,19.9184791 78.467114,19.2000988 Z" id="Combined-Shape-Copy-4" fill="url(#linearGradient-3)" mask="url(#mask-2)" transform="translate(78.800276, 48.801610) rotate(-3.000000) translate(-78.800276, -48.801610) "></path>
                <path d="M79.9109509,33.8007647 C79.5861395,34.1964154 78.6704756,33.7902699 78.3608816,33.6669571 C77.3770021,33.27393 75.8500036,32.7253783 74.5021279,32.849342 C72.3754294,33.3392704 71.4734256,33.6911788 71.4492878,33.5668165 C71.3926163,33.2761129 71.5364709,32.3824 76.1504722,31.7380246 C76.6993458,31.6614131 79.6390518,31.7280145 80.1858264,32.2616708 C80.6213571,32.6872314 80.0841137,33.5892962 79.9109509,33.8007647 Z" id="Fill-1" fill="#413F62" mask="url(#mask-2)" transform="translate(75.896980, 32.840788) rotate(-9.000000) translate(-75.896980, -32.840788) "></path>
                <path d="M87.203657,33.108982 C87.4982406,33.5237398 88.4154494,33.1303195 88.7309235,33.0295318 C89.733569,32.7080988 91.2656259,32.5532488 92.5932903,32.7695843 C94.6676945,33.4027213 95.3988241,32.9119173 91.1926091,31.265844 C90.8026938,31.1132534 87.4750249,31.3062936 86.8959677,31.7974455 C86.4346894,32.1891454 87.0466466,32.8873319 87.203657,33.108982 Z" id="Fill-1-Copy" fill="#413F62" mask="url(#mask-2)" transform="translate(90.490930, 32.254959) rotate(12.000000) translate(-90.490930, -32.254959) "></path>
                <path d="M85.8284423,36.0069573 C85.8284423,36.0069573 85.8167656,36.1475296 85.7817353,36.3883246 C85.7446444,36.634326 85.710301,36.9584232 85.6848868,37.357362 C85.6656545,37.5545536 85.6670283,37.7693168 85.658099,37.9931911 C85.6450485,38.2164146 85.6718363,38.4533049 85.6670283,38.6940999 C85.6938161,39.1795948 85.7563211,39.6885184 85.8421797,40.1954897 C85.9417756,40.6992069 86.0667856,41.1983685 86.2137754,41.6630379 C86.3044421,41.8882138 86.3648865,42.1192469 86.45624,42.3255497 C86.5441591,42.5331541 86.6197146,42.7355521 86.7076338,42.9151722 C86.8724821,43.2802695 87.029775,43.5848427 87.1451689,43.7976535 C87.2619365,44.0098135 87.3244415,44.1406238 87.3244415,44.1406238 C87.3244415,44.1406238 87.2028658,44.0625281 86.998179,43.9108923 C86.8930882,43.8367014 86.77426,43.7384309 86.6492499,43.6147794 C86.5173712,43.4963343 86.3731289,43.3564128 86.2398764,43.1865547 C85.9458968,42.8631084 85.6732101,42.4342329 85.428685,41.9513412 C85.3235941,41.7033873 85.193776,41.4528303 85.1168467,41.1801462 C85.0186246,40.9133192 84.9657357,40.6302223 84.8997964,40.3503794 C84.8620186,40.065981 84.8118772,39.7835349 84.8091297,39.500438 C84.7850894,39.2199443 84.8159984,38.941403 84.8269883,38.6752268 C84.8853721,38.1422237 84.9890892,37.6508716 85.1491296,37.2525836 C85.214382,37.0508364 85.3009275,36.8712163 85.3826648,36.7150249 C85.4568466,36.5562303 85.5337758,36.4273725 85.6038364,36.3264988 C85.7418969,36.1214977 85.8284423,36.0069573 85.8284423,36.0069573" id="Fill-4" fill="#C39886" mask="url(#mask-2)" transform="translate(86.062321, 40.073791) rotate(-3.000000) translate(-86.062321, -40.073791) "></path>
                <path d="M76.8274872,37.011003 C76.8638383,37.4505648 77.1391451,37.568194 77.1774094,37.8149991 C77.5074396,37.6992494 77.7195251,37.823164 78.2442251,37.7710288 C78.7220514,37.724155 79.1386546,37.7456787 79.4653366,37.785378 C79.7307956,37.2798101 79.7413183,36.722107 79.4653366,36.3547692 C79.2041823,36.0075201 78.782796,35.9582547 78.3623664,35.9094677 C78.1978296,35.8898572 77.1331238,35.765498 76.8480543,36.2825452 C76.8059635,36.3585956 76.7810916,36.4489952 76.8274872,37.011003 Z" id="Fill-8" fill="#545A83" mask="url(#mask-2)" transform="translate(78.235450, 36.848680) rotate(10.000000) translate(-78.235450, -36.848680) "></path>
                <path d="M89.1562121,36.717989 C89.1913111,37.1523241 89.3136039,37.1272996 89.3505502,37.37117 C89.808968,37.509185 91.3877696,37.4439288 91.7031988,37.483156 C91.9595139,36.9835998 92.2247775,36.4643438 91.9583022,36.1013739 C91.7061436,35.7582538 91.0441689,35.6777587 90.6382212,35.6295518 C90.4793521,35.6101745 89.6161755,35.292035 89.3409254,35.8029341 C89.3002845,35.8780802 89.1114147,36.1626639 89.1562121,36.717989 Z" id="Fill-8-Copy" fill="#545A83" mask="url(#mask-2)" transform="translate(90.609289, 36.498569) rotate(12.000000) translate(-90.609289, -36.498569) "></path>
                <path d="M79.4495939,35.0320527 C78.3251422,34.4190328 75.5593885,34.1662595 73.7614146,36.0791227 C73.4320899,36.4294909 72.6981288,37.7221697 73.1285586,37.6604242 C74.6786368,37.4380642 75.8495431,35.8509098 77.4106816,35.7283012 C78.1509915,35.6701588 79.1057697,36.691242 79.7969486,37.0343169 C81.4682973,37.8639106 81.5913235,37.1524873 80.9208766,36.6710781 L79.4495939,35.0320527 Z" id="Path-19" fill="#CAA199" mask="url(#mask-2)" transform="translate(77.149022, 36.123284) rotate(3.000000) translate(-77.149022, -36.123284) "></path>
                <path d="M92.0356486,34.6169712 C90.9831591,34.0039513 89.0396616,33.6423136 87.3567537,35.5551768 C85.6738458,37.46804 86.2121179,36.8801451 86.6150012,36.8183996 C87.0370055,36.7537237 87.3870348,36.6097051 87.7072135,36.4349539 C88.4878292,36.0088996 89.0910079,35.4001661 90.1272219,35.3132197 C90.8201537,35.2550773 92.0404271,36.3068732 92.6873721,36.649948 C94.2517585,37.4795418 94.0706429,37.0312008 93.4127727,36.2559966 L92.0356486,34.6169712 Z" id="Path-19-Copy" fill="#CAA199" mask="url(#mask-2)" transform="translate(90.049017, 35.610205) scale(-1, 1) rotate(-6.000000) translate(-90.049017, -35.610205) "></path>
                <path d="M73.8539991,36.8496641 C74.0400768,36.7366472 74.3290054,36.5537217 74.54212,36.4243174 C74.7536443,36.2920877 75.1169277,36.0746287 75.3591998,35.9378783 C75.8357919,35.64799 76.183526,35.6001714 76.7677357,35.4193444 C77.0609009,35.3379723 77.3423579,35.2590628 77.6662709,35.2217673 C77.8279624,35.2048147 78.2744132,35.1983652 78.4737443,35.2452672 C78.5765907,35.2701309 78.6688343,35.3051662 78.7658492,35.3616746 C78.8103806,35.3871034 78.9459084,35.5114914 79.0206576,35.5787364 C79.3164734,35.844326 79.3861082,36.095154 79.4979669,36.2985843 C79.6087653,36.5116211 79.7179733,36.6771908 79.8616401,36.8241127 C80.1351903,37.1004389 80.4686457,37.2501862 80.7034959,37.3332536 C80.941527,37.4168861 81.0883746,37.4507912 81.0883746,37.4507912 C81.0883746,37.4507912 80.9447078,37.489782 80.6807001,37.5005186 C80.4214636,37.5061694 80.0731697,37.2456962 79.297149,37.144505 C78.5211283,37.0433139 77.0300767,36.7357238 76.7655388,36.8176611 C76.2338125,36.964583 74.2102261,37.3354739 74.1057893,37.3688138 C73.2702952,37.6366638 72.8892927,37.7576319 72.8892927,37.7576319 C72.8892927,37.7576319 73.0921938,37.3028617 73.8539991,36.8496641 Z" id="Fill-6" fill="#464462" mask="url(#mask-2)" transform="translate(76.988834, 36.483382) rotate(3.000000) translate(-76.988834, -36.483382) "></path>
                <path d="M86.8329896,36.4424727 C87.0071587,36.3294558 87.2775966,36.1465303 87.4770724,36.017126 C87.6750596,35.8848963 88.0150937,35.6674373 88.241861,35.5306869 C88.6879524,35.2407986 89.2687034,34.7559406 90.2808893,34.8975326 C91.2930751,35.0391246 92.491274,36.3609386 92.6257465,36.5078605 C92.8817901,36.7841867 93.0243145,36.8429948 93.2441348,36.9260622 C93.4669324,37.0096947 93.6043822,37.0435998 93.6043822,37.0435998 C93.6043822,37.0435998 93.2477117,36.9410325 93.0005999,36.9517691 C92.757954,36.9574199 91.9875561,37.0292803 91.0292835,36.5025228 C90.0710109,35.9757652 90.0040698,36.2318393 89.7564617,36.3137766 C89.2587646,36.4606985 87.3364822,37.0900698 87.2387292,37.1234098 C86.4567046,37.3912597 86.2570269,36.9720254 86.2570269,36.9720254 C86.2570269,36.9720254 86.119938,36.8956703 86.8329896,36.4424727 Z" id="Fill-6-Copy" fill="#464462" mask="url(#mask-2)" transform="translate(89.925418, 36.042511) scale(-1, 1) rotate(-6.000000) translate(-89.925418, -36.042511) "></path>
                <path d="M79.110586,50.6563496 C79.8431769,50.9990855 80.9106505,51.4186705 82.2546688,51.676704 C83.0680354,51.833207 83.6873159,51.8730339 83.8449408,51.8825699 C84.7637646,51.9369813 86.2727,51.9055686 88.1288588,51.2935803 C87.9499181,51.7198966 87.6015728,52.3975151 86.9441482,53.0353068 C86.5840231,53.384213 85.9092092,54.0393939 84.9197066,54.23348 C83.6850722,54.4763681 82.661913,53.8638189 81.7952568,53.345508 C80.4478729,52.5394336 79.6070201,51.4646677 79.110586,50.6563496 Z M85.3325603,49.2719435 C85.6006909,49.0789792 86.0118617,49.0509321 86.24297,49.2876499 C86.3759134,49.4239589 86.4269592,49.618045 86.5077349,49.7908153 C86.8493489,50.5183577 87.6952502,50.8358512 88.4598149,51.0843487 C86.8342034,51.3631372 85.1979341,51.6436084 83.5493241,51.6222926 C81.9001531,51.6015377 80.2195693,51.2616066 78.8233834,50.3842925 C79.5941184,50.466751 80.3721457,50.5486486 81.1423198,50.4594588 C81.9124938,50.3713908 82.6843507,50.095968 83.23744,49.5529757 C83.345141,49.4469575 83.4477935,49.3291596 83.5846635,49.2652121 C83.8314782,49.149658 84.135509,49.2427744 84.3419359,49.4217151 C84.5478018,49.6000948 84.6773795,49.8491533 84.8013478,50.0920414 C84.9118535,49.7795964 85.0638689,49.4654686 85.3325603,49.2719435 Z" id="Combined-Shape" fill="#CB8E8E" mask="url(#mask-2)" transform="translate(83.641599, 51.703468) rotate(2.000000) translate(-83.641599, -51.703468) "></path>
                <path d="M85.0276001,46.3679692 C86.1382455,46.3679692 88.2894583,44.7676175 88.2894583,44.3768197 C88.2894583,43.986022 86.3430521,45.0801598 85.2324067,45.0801598 C84.1217613,45.0801598 83.0165987,45.2695695 83.0165987,45.6603673 C83.0165987,46.051165 83.9169547,46.3679692 85.0276001,46.3679692 Z" id="Oval-Copy-89" fill="#D2A29A" opacity="0.496651786" mask="url(#mask-2)" transform="translate(85.653029, 45.330226) rotate(-3.000000) translate(-85.653029, -45.330226) "></path>
                <ellipse id="Oval-Copy-90" fill="#E35C86" opacity="0.192196801" filter="url(#filter-4)" mask="url(#mask-2)" transform="translate(72.598545, 45.050183) rotate(11.000000) translate(-72.598545, -45.050183) " cx="72.5985446" cy="45.0501826" rx="4.06683323" ry="2.24377006"></ellipse>
                <path d="M81.9485658,10.716204 C83.6558225,11.3045333 85.2613285,12.1274917 86.7129741,13.1583685 C89.3282225,14.3611464 91.605302,16.1282849 93.3591235,18.3161446 C94.9105589,20.2679905 95.411022,21.7200883 95.3609757,21.7578051 C95.3109294,21.795522 94.5201977,20.4848622 92.8886882,18.7027421 C91.9404282,17.6499307 90.8693653,16.7010344 89.6957339,15.8739801 C91.7257158,18.3040058 92.8981403,21.2712665 93.0488364,24.3602662 L91.2471694,23.8322306 L78.8757227,26.1046695 C78.3352226,22.9175976 75.282398,20.0228311 73.7409718,18.7310297 L73.6408792,18.7310297 C76.8238242,30.3383833 64.9628498,37.0236909 64.9628498,37.0236909 C66.0492133,42.1326559 67.1688185,45.8806539 68.3216653,48.2676852 C69.3152489,50.3249534 71.4152894,53.2434045 74.6217867,57.0230386 C58.4268023,60.6249956 52.971755,42.907516 52.971755,42.907516 L53.1118847,42.8320823 C52.5890315,41.4869656 52.1380494,40.1180144 51.7606345,38.7303774 C50.7943273,33.9935538 51.1089813,29.8784471 52.1164851,26.3867995 C50.9896574,27.4002614 49.4369122,27.9139907 47.8570226,27.7642099 C46.1976757,27.4082165 44.8440828,26.2822486 44.2636979,24.7751513 C43.7010592,23.2852543 43.5630107,21.6824084 43.8633275,20.1265523 C44.1347412,17.3854483 45.5406365,14.8551602 47.7769486,13.0829349 C50.1391342,11.4516821 53.7124404,11.2913856 55.7843574,13.1772269 C56.9324211,14.2248603 57.4802357,15.7260763 57.2586258,17.2172711 L57.2842934,17.0017697 C59.8187035,14.090648 62.4189197,12.3899225 63.5014977,11.904284 C66.4342112,10.5841951 70.7882397,6.76536631 81.9485658,10.716204 Z" id="Combined-Shape" fill="#4F4F59" fill-rule="nonzero" mask="url(#mask-2)" transform="translate(69.536403, 33.239927) rotate(15.000000) translate(-69.536403, -33.239927) "></path>
                <path d="M67.4845483,46.6876656 C66.634555,47.9933531 64.9836167,48.5213382 63.5337107,47.9511793 C62.1316398,47.3349149 61.106048,46.0888033 60.7709531,44.5943817 C60.4982275,43.7148988 60.5689845,42.764733 60.9689664,41.9353453 C61.7738739,40.9744425 63.0035714,40.476203 64.2503304,40.6058272 L67.4845483,46.6876656 Z" id="Path" fill="#F6C4AE" fill-rule="nonzero" mask="url(#mask-2)" transform="translate(64.046095, 44.382361) rotate(15.000000) translate(-64.046095, -44.382361) "></path>
                <path d="M65.3280982,46.155691 C65.3280982,46.0519697 64.9132131,46.155691 64.3851775,46.0613989 C63.6635386,45.9380782 63.0627736,45.4386024 62.8097729,44.751608 C62.5567721,44.0646136 62.6900916,43.294795 63.1593806,42.7328889 C63.5271197,42.280287 63.8948588,42.1105613 63.8571419,42.0162692 C63.8194251,41.9219772 63.3762524,41.9314064 62.8199292,42.3934375 C62.09862,43.0443033 61.8462039,44.0687257 62.1825557,44.9801975 C62.5189075,45.8916693 63.3762646,46.5065626 64.3474607,46.5328593 C65.0169344,46.5234301 65.3752442,46.2216955 65.3280982,46.155691 Z" id="Path" fill="#EB996E" fill-rule="nonzero" mask="url(#mask-2)" transform="translate(63.683874, 44.250844) rotate(15.000000) translate(-63.683874, -44.250844) "></path>
                <path d="M84.4061907,58.5589465 C80.9650345,60.024631 77.1774393,60.4792732 73.4871692,59.8696062 C73.4871692,59.8696062 78.2772063,64.0184572 85.2453901,60.3316374 L84.4061907,58.5589465 Z" id="Path" fill="#CF987F" fill-rule="nonzero" opacity="0.533668155" mask="url(#mask-2)" transform="translate(79.366280, 60.208701) rotate(15.000000) translate(-79.366280, -60.208701) "></path>
            </g>
        </g>
    </g>
</svg>