<?xml version="1.0" encoding="UTF-8"?>
<svg width="21px" height="23px" viewBox="0 0 21 23" version="1.1" xmlns="http://www.w3.org/2000/svg" xmlns:xlink="http://www.w3.org/1999/xlink">
    <title>BC33F492-108A-4E5F-8FCC-072F0A521034</title>
    <g id="Page-1" stroke="none" stroke-width="1" fill="none" fill-rule="evenodd">
        <g id="LK_Customer_my-data" transform="translate(-360.000000, -280.000000)" fill="#FFFFFF" fill-rule="nonzero">
            <g id="Без-названия-Copy" transform="translate(360.291245, 280.000000)">
                <path d="M9.87964522,10.189273 C15.0018684,10.189273 19.1576904,14.3450951 19.1576904,19.4673183 C19.1576904,21.1767053 17.7743957,22.56 16.0650087,22.56 L16.0650087,22.56 L3.69428174,22.56 C1.98489469,22.56 0.6016,21.1767053 0.6016,19.4673183 C0.6016,14.3450951 4.75742201,10.189273 9.87964522,10.189273 Z M9.73545739,0.0961252174 C12.2032763,0.0961252174 14.20528,2.09812897 14.20528,4.56594783 C14.20528,7.03376669 12.2032763,9.03577043 9.73545739,9.03577043 C7.26763853,9.03577043 5.26563478,7.03376669 5.26563478,4.56594783 C5.26563478,2.09812897 7.26763853,0.0961252174 9.73545739,0.0961252174 Z" id="Combined-Shape"></path>
            </g>
        </g>
    </g>
</svg>