<?xml version="1.0" encoding="UTF-8"?>
<svg width="440px" height="202px" viewBox="0 0 440 202" version="1.1" xmlns="http://www.w3.org/2000/svg" xmlns:xlink="http://www.w3.org/1999/xlink">
    <title>Group 10</title>
    <defs>
        <rect id="path-1" x="0" y="0" width="207.136526" height="124.281916" rx="4"></rect>
        <linearGradient x1="40.7836917%" y1="17.4249992%" x2="50%" y2="110.463681%" id="linearGradient-3">
            <stop stop-color="#E9AA89" offset="0%"></stop>
            <stop stop-color="#FFC3A9" offset="100%"></stop>
        </linearGradient>
        <filter x="-61.3%" y="-111.2%" width="222.7%" height="322.4%" filterUnits="objectBoundingBox" id="filter-4">
            <feGaussianBlur stdDeviation="2" in="SourceGraphic"></feGaussianBlur>
        </filter>
        <rect id="path-5" x="0" y="0" width="207.136526" height="124.281916" rx="4"></rect>
        <linearGradient x1="37.3449189%" y1="17.4249992%" x2="50%" y2="110.463681%" id="linearGradient-7">
            <stop stop-color="#F1BFA5" offset="0%"></stop>
            <stop stop-color="#FFD3C0" offset="100%"></stop>
        </linearGradient>
        <filter x="-63.3%" y="-114.7%" width="226.6%" height="329.5%" filterUnits="objectBoundingBox" id="filter-8">
            <feGaussianBlur stdDeviation="2" in="SourceGraphic"></feGaussianBlur>
        </filter>
    </defs>
    <g id="Page-1" stroke="none" stroke-width="1" fill="none" fill-rule="evenodd">
        <g id="LK_Customer_Message_Payment_Ok" transform="translate(-343.000000, -313.000000)">
            <g id="Group-10" transform="translate(343.045050, 313.000000)">
                <g id="Group-7" transform="translate(0.000000, 37.482518)">
                    <g id="Group-2" transform="translate(-0.000000, -0.000000)">
                        <mask id="mask-2" fill="white">
                            <use xlink:href="#path-1"></use>
                        </mask>
                        <rect stroke="#C2CAEC" x="0.5" y="0.5" width="206.136526" height="123.281916" rx="4"></rect>
                        <g id="freepik--Character--inject-974" mask="url(#mask-2)">
                            <g transform="translate(-3.656659, 98.616314)">
                                <path d="M137.105033,53.3478193 L185.83466,70.4019306 L181.189449,108.343763 L170.850835,45.0320712 C157.383825,57.2123915 149.552821,56.2967332 130.442256,48.0920606 C127.277412,46.6166136 124.90378,45.5100284 123.321358,44.7723049 C121.843018,44.0831045 119.625509,43.049304 116.66883,41.6709032 L115.253772,108.436722 L60.8471503,107.862702 C60.9791543,107.476631 57.8678131,85.2537693 51.5131266,41.1941161 L30.5378698,58.3357975 L51.1503283,74.4524718 L43.5217352,92.1050361 L6.48892048,67.8687498 C-6.28643005,59.3704971 3.12785473,50.2505205 14.0265714,39.4484327 C33.6574842,19.9955203 42.9368764,6.35456428 59.7197812,3.48621329 C68.36552,0.887405913 73.4512487,0.434776057 73.4512487,0.434776057 C86.9589442,0.241518366 87.9659184,0.287289924 95.2029104,0.628033748 C96.6114839,0.701252693 98.0133613,0.871177227 99.3986366,1.13660662 C107.294544,2.31308063 113.265366,8.53782851 119.701994,13.2600395 C123.993079,16.4081802 129.794092,29.7707735 137.105033,53.3478193 Z" id="Path" fill="#4E50C0" fill-rule="nonzero"></path>
                                <path d="M114.956303,63.5090749 C118.951172,58.6958602 121.387523,48.1822633 120.191139,42.0426641 C118.994755,35.9030649 115.105323,30.6248686 109.595523,27.6637676 L114.956303,63.5090749 Z" id="Path" fill="#4E50C0" fill-rule="nonzero"></path>
                                <path d="M109.57518,28.6656562 C109.673534,28.7074878 109.765886,28.7622154 109.849809,28.8283995 C110.017638,28.9453712 110.287182,29.1081146 110.597411,29.3369723 C111.501656,30.0085358 112.35188,30.7499314 113.140276,31.5543501 C115.712961,34.2437954 117.792502,37.3648277 119.283836,40.7747762 C120.159875,42.6492036 120.617995,44.6916572 120.626468,46.7606789 C120.615225,48.4375733 120.347676,50.1028931 119.833095,51.6989215 C119.497307,52.7728127 119.089524,53.8228522 118.61252,54.8419018 L118.200576,55.6607042 C118.156919,55.7586842 118.104133,55.8523358 118.042918,55.9404193 C118.067773,55.8361918 118.10535,55.7354163 118.154804,55.6403613 C118.246347,55.4216749 118.368405,55.1317884 118.515891,54.801216 C118.952837,53.7717243 119.333139,52.7191011 119.655094,51.6480642 C120.133371,50.0628529 120.378359,48.416465 120.382353,46.7606789 C120.353573,44.733731 119.892358,42.7362879 119.029549,40.9019194 C117.544096,37.5198836 115.50564,34.4089178 112.997875,31.6967505 C112.225265,30.8882079 111.399541,30.1321439 110.526211,29.4336012 C110.221067,29.1793148 109.966781,29.0064 109.809123,28.8690853 C109.724437,28.8093948 109.646051,28.7412333 109.57518,28.6656562 Z" id="Path" fill="#263238" fill-rule="nonzero"></path>
                                <path d="M90.7434553,51.6697753 C90.7577096,51.7419739 90.7577096,51.816263 90.7434553,51.8884616 C90.7434553,52.030862 90.7434553,52.2393769 90.7027694,52.5089205 C90.6228304,53.2686878 90.473015,54.0194672 90.2552253,54.7517269 C88.8079387,59.746002 84.6118775,63.4588925 79.4785662,64.2874682 C78.7245031,64.4165413 77.959975,64.4744343 77.195074,64.460383 C76.9255303,64.460383 76.7119297,64.4298686 76.5746151,64.4247829 C76.5003085,64.4244004 76.4265199,64.4123883 76.3559287,64.3891828 C76.6348319,64.3626957 76.9149295,64.3508128 77.195074,64.3535827 C77.949769,64.3299034 78.7014096,64.2465767 79.4429661,64.104382 C84.4656255,63.1911481 88.5640213,59.5611964 90.0772248,54.6856124 C90.3028076,53.9639282 90.4728283,53.2260382 90.5857977,52.4784062 C90.6237464,52.2062195 90.6763757,51.9362823 90.7434553,51.6697753 L90.7434553,51.6697753 Z" id="Path" fill="#263238" fill-rule="nonzero"></path>
                                <path d="M16.9742313,55.7268186 C17.1476203,55.6387255 17.3325071,55.5753846 17.52349,55.5386467 C17.7425103,55.4725735 17.964904,55.4182483 18.1897205,55.3759034 C18.4490926,55.3250461 18.7491506,55.2538459 19.079723,55.2182458 C19.8607989,55.102346 20.6499493,55.0496226 21.4395011,55.0605882 C22.4042482,55.0804035 23.3655461,55.1824882 24.3129379,55.3657319 C25.2594737,55.5641206 26.1881785,55.8396704 27.0897457,56.18962 C27.8206219,56.4844431 28.5279017,56.8346827 29.2054089,57.2372801 C29.5003811,57.4000234 29.7444961,57.5831096 29.9682682,57.7458529 C30.1920402,57.9085963 30.3700408,58.0306538 30.5175269,58.1476255 C30.6791489,58.2573562 30.8261243,58.3872414 30.9548996,58.5341409 C30.9243852,58.5748267 30.2734119,58.0611681 29.10878,57.4152806 C28.4289,57.0394864 27.7236671,56.7115107 26.9982026,56.4337349 C26.1078441,56.0995412 25.1931074,55.8343016 24.2620806,55.6403613 C23.3289641,55.4623397 22.3837066,55.3552332 21.4344154,55.3199603 C20.6567206,55.301671 19.8786594,55.3339486 19.1051516,55.4165892 C17.7828622,55.5488181 16.9844028,55.7725902 16.9742313,55.7268186 Z" id="Path" fill="#263238" fill-rule="nonzero"></path>
                                <path d="M60.6148694,28.7266849 C60.6154874,28.6253332 60.629162,28.5244836 60.6555552,28.4266269 C60.7013268,28.2028548 60.7521841,27.918054 60.8233843,27.5722245 C61.0192885,26.5327207 61.1601897,25.4836012 61.2454998,24.4292441 C61.370336,22.8657426 61.3225813,21.2932473 61.1030994,19.7402023 C60.8321617,17.8410234 60.2168789,16.0072395 59.2874942,14.3289869 C58.3656135,12.6479536 57.0670568,11.2031787 55.4935406,10.1078321 C54.1969442,9.23272741 52.7282573,8.64490586 51.1859284,8.38377004 C50.1452219,8.21306514 49.0836545,8.21306514 48.042948,8.38377004 C47.3004316,8.50582753 46.9088305,8.64822793 46.8986591,8.61771356 C46.9902712,8.57381667 47.0855734,8.53807834 47.1834599,8.51091326 C47.4576827,8.4157547 47.7380404,8.33929352 48.0226051,8.28205546 C49.0748963,8.0730329 50.1553721,8.04722536 51.2164428,8.20576953 C52.7959806,8.44264769 54.3035071,9.02620635 55.6308553,9.91457438 C57.2475043,11.0176548 58.5791822,12.4887754 59.516352,14.2069294 C60.4598778,15.9125463 61.0789355,17.7783414 61.3421286,19.7096879 C61.5533723,21.2810538 61.5823837,22.8715627 61.428586,24.449587 C61.3283941,25.5106534 61.1585029,26.5639786 60.9200131,27.6027389 C60.8386415,27.9689113 60.7674413,28.2486264 60.7114983,28.4418841 C60.6887467,28.5397683 60.6563798,28.6351653 60.6148694,28.7266849 Z" id="Path" fill="#263238" fill-rule="nonzero"></path>
                                <path d="M40.582184,25.9193626 C40.4587366,24.5278127 40.4213701,23.1299657 40.470298,21.7338079 C40.4335488,20.3366886 40.4862089,18.9386491 40.6279556,17.5482532 C40.7512472,18.9398206 40.7869177,20.3377636 40.7347559,21.7338079 C40.7715177,23.1308108 40.7205602,24.5287439 40.582184,25.9193626 Z" id="Path" fill="#FAFAFA" fill-rule="nonzero"></path>
                                <path d="M30.9142137,38.1098544 C30.188992,37.462544 29.521904,36.7529121 28.9206081,35.9891055 C28.2548869,35.2791734 27.6556536,34.5097034 27.1304316,33.6903561 C27.8564134,34.3387322 28.5235541,35.050122 29.1240372,35.8161907 C29.79032,36.5238164 30.3896067,37.2916526 30.9142137,38.1098544 L30.9142137,38.1098544 Z" id="Path" fill="#FAFAFA" fill-rule="nonzero"></path>
                                <path d="M47.1275169,35.7144762 C45.9583103,36.1588546 44.7582953,36.5174993 43.5369924,36.7875649 C42.3372616,37.1465383 41.11363,37.4201559 39.8752677,37.6063672 C41.0460653,37.1615641 42.2478022,36.8029128 43.4708779,36.5332785 C44.6688201,36.1740598 45.8907783,35.9004364 47.1275169,35.7144762 Z" id="Path" fill="#FAFAFA" fill-rule="nonzero"></path>
                                <path d="M53.8813646,30.4100611 C53.7638414,30.0824165 53.691967,29.7401572 53.667764,29.3929154 C53.5813066,28.7521135 53.4948492,27.8671967 53.4541634,26.850051 C53.4206311,26.0024684 53.4308161,25.1537206 53.4846778,24.3071866 C53.4807625,23.955244 53.5252555,23.6044342 53.6169067,23.2646123 C53.6931926,23.2646123 53.6474211,24.8615311 53.7186213,26.8246224 C53.7898215,28.7877136 53.9576505,30.3998896 53.8813646,30.4100611 Z" id="Path" fill="#FAFAFA" fill-rule="nonzero"></path>
                                <path d="M28.6256358,52.66521 C28.4947752,51.5105911 28.4505753,50.3477927 28.4934069,49.1865715 C28.4505924,48.0252206 28.4964973,46.8622957 28.6307215,45.7079331 C28.7613534,46.86257 28.8038574,48.0254791 28.7578647,49.1865715 C28.8006963,50.3477927 28.7564964,51.5105911 28.6256358,52.66521 L28.6256358,52.66521 Z" id="Path" fill="#FAFAFA" fill-rule="nonzero"></path>
                                <path d="M17.4370326,48.952628 C15.9734673,48.5150564 14.5368252,47.9920235 13.1345061,47.3862236 C11.7004384,46.8624276 10.2978308,46.2562158 8.93369422,45.5706184 C10.3973697,46.0098514 11.8340137,46.5345831 13.2362207,47.1421086 C14.6692258,47.6666366 16.0716971,48.2710915 17.4370326,48.952628 Z" id="Path" fill="#FAFAFA" fill-rule="nonzero"></path>
                                <path d="M7.72329078,61.626264 C7.71771451,60.4568134 7.80273093,59.2886877 7.97757722,58.1323683 C8.06123427,56.9669212 8.23122494,55.8092847 8.48615009,54.6689871 C8.49184879,55.8384418 8.40683168,57.006577 8.23186365,58.1628827 C8.14929815,59.3284487 7.97929558,60.4861662 7.72329078,61.626264 L7.72329078,61.626264 Z" id="Path" fill="#FAFAFA" fill-rule="nonzero"></path>
                                <path d="M29.1494659,67.3578802 C28.4764435,65.0760287 27.9749494,62.747056 27.6491759,60.3904319 C28.0261326,61.520276 28.3201895,62.6761067 28.529007,63.8487274 C28.8208295,65.0018126 29.0281988,66.1746388 29.1494659,67.3578802 L29.1494659,67.3578802 Z" id="Path" fill="#FAFAFA" fill-rule="nonzero"></path>
                                <path d="M65.3801972,45.3824464 C65.3191685,45.428218 64.2918513,44.1110143 62.9187045,42.5903814 C61.5455578,41.0697485 60.3453258,39.9051166 60.4012688,39.8440879 C60.7128886,40.0374077 60.999802,40.2679631 61.2556712,40.5306612 C61.7642441,40.9883768 62.4203031,41.6444358 63.1119622,42.4123809 C63.8036213,43.1803259 64.3884801,43.9126708 64.7902527,44.4466724 C65.0274848,44.731087 65.2258694,45.045766 65.3801972,45.3824464 Z" id="Path" fill="#FAFAFA" fill-rule="nonzero"></path>
                                <path d="M79.7422951,32.5816673 C79.057699,33.3012518 78.3086666,33.9566552 77.5045745,34.5396728 C76.7556532,35.1923427 75.9506919,35.7777691 75.0990248,36.2891635 C75.7867299,35.5728275 76.5354604,34.9176883 77.3367454,34.3311579 C78.0856667,33.678488 78.890628,33.0930617 79.7422951,32.5816673 Z" id="Path" fill="#FAFAFA" fill-rule="nonzero"></path>
                                <path d="M71.7424438,25.4616471 C71.6309306,23.8400516 71.608859,22.2135432 71.6763294,20.589519 C71.6549491,18.9646702 71.7228612,17.3398739 71.8797585,15.7224766 C71.9878991,17.3442323 72.0082718,18.970649 71.9407873,20.5946047 C71.9619821,22.2193349 71.895772,23.8440291 71.7424438,25.4616471 L71.7424438,25.4616471 Z" id="Path" fill="#FAFAFA" fill-rule="nonzero"></path>
                                <path d="M95.0198242,11.852237 C95.5677469,10.529237 96.1944134,9.24024006 96.8964581,7.99216893 C97.5228421,6.70579579 98.2276967,5.45913728 99.0070355,4.25924405 C98.463542,5.58258579 97.8367416,6.87015959 97.1304016,8.11422642 C96.5056044,9.40307072 95.8006988,10.6515181 95.0198242,11.852237 Z" id="Path" fill="#FAFAFA" fill-rule="nonzero"></path>
                                <path d="M93.3313622,27.0077086 C92.28435,25.7854587 91.3047416,24.5070443 90.3968968,23.1781549 C89.4184881,21.8992783 88.5101978,20.5682511 87.6760319,19.1909436 C88.7260281,20.4107721 89.7057666,21.6893564 90.6104974,23.0204973 C91.5868222,24.300879 92.495035,25.6317928 93.3313622,27.0077086 Z" id="Path" fill="#FAFAFA" fill-rule="nonzero"></path>
                                <path d="M110.805926,16.6531649 C110.058883,17.6686012 109.239655,18.628899 108.354605,19.5266017 C107.534333,20.4848648 106.649015,21.3854759 105.70494,22.2220379 C106.456632,21.2088306 107.277386,20.2487351 108.161347,19.3486011 C108.982339,18.3926679 109.865803,17.4922147 110.805926,16.6531649 Z" id="Path" fill="#FAFAFA" fill-rule="nonzero"></path>
                                <path d="M105.369282,41.0850057 C104.397764,39.9186924 103.496018,38.6959862 102.66876,37.423281 C101.769597,36.2018564 100.940967,34.9300462 100.186925,33.6140702 C101.155834,34.7806571 102.05747,36.0015163 102.887446,37.2707091 C103.788696,38.4924497 104.617402,39.7660754 105.369282,41.0850057 L105.369282,41.0850057 Z" id="Path" fill="#FAFAFA" fill-rule="nonzero"></path>
                                <path d="M85.9468841,48.8153133 C86.3118307,47.5842259 86.7604183,46.3794963 87.2895165,45.2095317 C87.7411522,44.0055722 88.2729544,42.8332286 88.8813496,41.7003788 C88.5159944,42.9329846 88.0674199,44.1393781 87.5387172,45.3112462 C87.0865086,46.5133219 86.5547201,47.6839362 85.9468841,48.8153133 L85.9468841,48.8153133 Z" id="Path" fill="#FAFAFA" fill-rule="nonzero"></path>
                                <path d="M72.9477616,59.5919725 C72.9121615,59.6530012 70.6642694,58.5392266 67.9281473,57.0999654 C65.1920253,55.6607042 63.0000762,54.4350436 63.0356763,54.3740148 C63.0712764,54.3129861 65.3140828,55.4216749 68.0502048,56.8660219 C70.7863268,58.3103688 72.9782759,59.525858 72.9477616,59.5919725 Z" id="Path" fill="#FAFAFA" fill-rule="nonzero"></path>
                                <path d="M105.877855,61.1685484 C103.876363,60.3298826 102.083078,59.0626049 100.624297,57.4559664 C100.68024,57.4000234 101.748243,58.3663118 103.202762,59.3834576 C104.65728,60.4006033 105.877855,61.1176911 105.877855,61.1685484 Z" id="Path" fill="#FAFAFA" fill-rule="nonzero"></path>
                                <path d="M112.041758,48.8051419 C111.664248,49.6181674 111.20953,50.3930599 110.683869,51.1191484 C110.22832,51.8910144 109.698593,52.6166211 109.102207,53.2856689 C109.479718,52.4726433 109.934435,51.6977508 110.460097,50.9716623 C110.915645,50.1997963 111.445372,49.4741896 112.041758,48.8051419 Z" id="Path" fill="#FAFAFA" fill-rule="nonzero"></path>
                                <path d="M122.411559,25.6193047 C122.66431,24.2730377 123.004071,22.944572 123.428705,21.6422648 C123.774916,20.3151245 124.202935,19.0106842 124.710308,17.7364251 C124.456294,19.082412 124.116554,20.4107971 123.693163,21.713465 C123.350196,23.0415577 122.92211,24.3462006 122.411559,25.6193047 L122.411559,25.6193047 Z" id="Path" fill="#FAFAFA" fill-rule="nonzero"></path>
                                <path d="M130.289353,42.1224943 C129.869036,41.9026181 129.473483,41.6383477 129.109464,41.3342064 C128.203635,40.6396386 127.340861,39.8906556 126.525914,39.0914 C125.712831,38.2933899 124.951798,37.444023 124.247507,36.5485357 C123.933762,36.1922314 123.663979,35.7995092 123.443962,35.3788181 C123.78386,35.7050302 124.099983,36.0551442 124.389908,36.4264782 C124.964595,37.0876229 125.76814,37.9776254 126.714086,38.9133995 C127.660031,39.8491736 128.565291,40.6374615 129.226436,41.1968917 C129.604937,41.4764877 129.960385,41.786016 130.289353,42.1224943 Z" id="Path" fill="#FAFAFA" fill-rule="nonzero"></path>
                                <path d="M136.615999,35.1804746 C136.549885,35.1397888 137.272058,33.9446426 137.94846,32.3680667 C138.624862,30.7914908 139.011378,29.4437726 139.087663,29.4641156 C138.73065,31.5391799 137.88326,33.4989867 136.615999,35.1804746 L136.615999,35.1804746 Z" id="Path" fill="#FAFAFA" fill-rule="nonzero"></path>
                                <path d="M141.559328,48.3372548 C141.641913,47.3861284 141.81216,46.4446612 142.067901,45.5248468 C142.234221,44.5871866 142.484426,43.6663605 142.815503,42.7734676 C142.735555,43.7249443 142.565263,44.6666566 142.30693,45.5858756 C142.143463,46.5241728 141.893187,47.4452563 141.559328,48.3372548 L141.559328,48.3372548 Z" id="Path" fill="#FAFAFA" fill-rule="nonzero"></path>
                                <path d="M153.307361,56.0675625 C152.307608,55.4460135 151.355629,54.7507288 150.459353,53.9874994 C149.507705,53.2936102 148.610043,52.5285577 147.774088,51.6989215 C148.773841,52.3204704 149.72582,53.0157552 150.622096,53.7789845 C151.575146,54.4710957 152.47294,55.2362609 153.307361,56.0675625 L153.307361,56.0675625 Z" id="Path" fill="#FAFAFA" fill-rule="nonzero"></path>
                                <path d="M161.480127,39.823745 C161.33578,40.2200901 161.153546,40.6015905 160.935954,40.9629482 C160.579953,41.6546073 160.10698,42.61581 159.644179,43.7092417 C159.181378,44.8026734 158.815205,45.8045619 158.560919,46.5419926 C158.446953,46.9477599 158.297184,47.3426066 158.113375,47.7218816 C158.152628,47.3009722 158.241394,46.8861622 158.377833,46.4860496 C158.656694,45.5046646 158.9964,44.5415981 159.394978,43.6024414 C159.793305,42.6634296 160.251979,41.7511781 160.768125,40.8714051 C160.964456,40.4960116 161.203364,40.1444759 161.480127,39.823745 Z" id="Path" fill="#FAFAFA" fill-rule="nonzero"></path>
                                <path d="M167.816945,31.5594358 C166.183425,31.1993695 164.570586,30.7511701 162.985503,30.2168034 C161.374748,29.7677696 159.789132,29.2330061 158.235432,28.6147989 C159.867724,28.9818201 161.480289,29.4316407 163.066874,29.962517 C164.676232,30.4141058 166.261629,30.9470979 167.816945,31.5594358 L167.816945,31.5594358 Z" id="Path" fill="#FAFAFA" fill-rule="nonzero"></path>
                                <path d="M174.591136,39.0100284 C174.328911,39.3835181 174.043552,39.7402173 173.736733,40.0780314 C172.343633,41.7791715 171.187154,43.6610152 170.298781,45.672333 C170.137523,46.0993439 169.945455,46.5140749 169.724093,46.9132508 C169.802016,46.4590161 169.937009,46.0164446 170.125866,45.596047 C170.929303,43.5237395 172.104777,41.615749 173.594333,39.9661454 C173.883379,39.6052387 174.218504,39.2837929 174.591136,39.0100284 L174.591136,39.0100284 Z" id="Path" fill="#FAFAFA" fill-rule="nonzero"></path>
                                <path d="M177.886688,27.6230818 C177.851854,27.1320784 177.851854,26.6392238 177.886688,26.1482204 C177.912116,25.237875 177.927374,23.9817 177.886688,22.5882103 C177.846002,21.1947207 177.744287,19.9487171 177.662916,19.0282002 C177.594541,18.5395656 177.560553,18.0467338 177.561192,17.5533389 C177.709786,18.0246236 177.806979,18.5105918 177.851088,19.0027716 C178.012494,20.1834663 178.112647,21.3717276 178.151146,22.5627817 C178.190994,23.7498718 178.167227,24.9382443 178.079946,26.1227918 C178.070246,26.6284261 178.005444,27.1314955 177.886688,27.6230818 L177.886688,27.6230818 Z" id="Path" fill="#FAFAFA" fill-rule="nonzero"></path>
                                <path d="M190.300952,27.4298241 C189.28868,26.7697163 188.328095,26.0335518 187.427515,25.2277035 C186.462657,24.4938321 185.553235,23.6898015 184.70665,22.8221539 C185.717213,23.4869358 186.679153,24.2228372 187.585173,25.0242744 C188.549134,25.757302 189.456925,26.5613943 190.300952,27.4298241 L190.300952,27.4298241 Z" id="Path" fill="#FAFAFA" fill-rule="nonzero"></path>
                                <g id="Group" opacity="0.182314918" stroke-width="1" fill="none" fill-rule="evenodd" transform="translate(69.495334, 49.630496)">
                                    <path d="M20.2056002,0.172914776 C18.1713087,5.52818711 12.6380359,7.93882252 7.4912784,8.27956635 L7.19630613,8.27956635 C4.85253398,8.16920352 2.50733618,8.46514925 0.264457893,9.15431169 C3.12921586,13.9470738 9.12907194,15.835033 14.2221339,13.5463375 C19.3151958,11.257642 21.8872527,5.51767802 20.2056002,0.193257691 L20.2056002,0.172914776 Z" id="Path" fill="#000000" fill-rule="nonzero"></path>
                                </g>
                                <g id="Group" opacity="0.3" stroke-width="1" fill="none" fill-rule="evenodd" transform="translate(111.706883, 30.329472)">
                                    <path d="M12.765038,10.2113236 C10.6577725,5.87663061 5.16352337,2.39314351 0.64244001,0.722833181 C3.18530437,4.38455786 7.27605182,7.96262474 7.56593836,12.7076096 L13.091009,14.2972802 C14.2708981,13.158077 13.47704,11.6810992 12.765038,10.2113236 Z" id="Path" fill="#000000" fill-rule="nonzero"></path>
                                </g>
                                <path d="M70.9032986,7.23439535 C70.3946374,7.38713387 69.9075561,7.60418417 69.4538659,7.8802829 C69.0483075,8.22226767 68.690773,8.61743736 68.3909486,9.05508623 C68.3604343,9.05508623 68.3909486,8.85165708 68.5180918,8.571942 C68.7027343,8.21031581 68.9712902,7.89816324 69.3012941,7.66159656 C69.628253,7.42472594 70.0062676,7.26794566 70.4048972,7.20388098 C70.7151266,7.16319515 70.9032986,7.20896671 70.9032986,7.23439535 Z" id="Path" fill="#263238" fill-rule="nonzero"></path>
                                <path d="M77.0977162,15.1833893 C77.0672018,15.1833893 76.9807444,14.9697887 76.9502301,14.5883591 C76.9234549,14.0860262 77.0085708,13.5840163 77.1994308,13.1185835 C77.3851729,12.6505051 77.6757153,12.2312194 78.0487475,11.8929229 C78.3335483,11.6386364 78.5573203,11.5420076 78.5573203,11.5674362 C78.0977432,12.0547738 77.7168382,12.6106893 77.4282885,13.2152123 C77.2202768,13.8510445 77.1088456,14.514489 77.0977162,15.1833893 Z" id="Path" fill="#263238" fill-rule="nonzero"></path>
                                <path d="M70.4862689,14.8375598 C70.4531446,14.5068654 70.4877535,14.1728894 70.5879834,13.8560141 C70.975136,12.2824044 71.9578599,10.9204475 73.3291912,10.0569748 C73.5970857,9.86241874 73.9015464,9.72402751 74.2242795,9.65011649 C72.3001447,10.7721726 70.9417892,12.6572374 70.4862689,14.8375598 Z" id="Path" fill="#263238" fill-rule="nonzero"></path>
                                <path d="M66.1125422,5.40353301 C66.0871135,5.40353301 66.1786566,5.17976095 66.4329431,4.89496014 C67.1288478,4.22174223 68.1242979,3.9579576 69.0622648,4.19821531 C69.4131801,4.29992988 69.5708377,4.43215883 69.5708377,4.4626732 C68.9584241,4.33730699 68.3269603,4.33730699 67.7145467,4.4626732 C67.1237084,4.66754378 66.57925,4.98730506 66.1125422,5.40353301 L66.1125422,5.40353301 Z" id="Path" fill="#263238" fill-rule="nonzero"></path>
                                <path d="M84.1719648,14.7409309 C84.025446,14.3218473 83.9215116,13.8890713 83.8617354,13.4491558 C83.7178398,13.0307056 83.6123,12.6000352 83.5464202,12.1624665 C83.8545521,12.5048868 84.0529589,12.9318158 84.1160218,13.3881271 C84.2624036,13.8246649 84.2818038,14.2937976 84.1719648,14.7409309 Z" id="Path" fill="#263238" fill-rule="nonzero"></path>
                                <path d="M91.4750713,14.8375598 C91.1277585,13.2305423 90.3325339,11.7547042 89.1814076,10.5808048 C89.9126152,11.014057 90.4985498,11.6548676 90.8647838,12.4218386 C91.3084294,13.1465804 91.5212684,13.9890683 91.4750713,14.8375598 L91.4750713,14.8375598 Z" id="Path" fill="#263238" fill-rule="nonzero"></path>
                                <path d="M94.5519371,9.15171507 C94.4807369,9.18222945 94.2874792,8.77537115 93.8348494,8.51599899 C93.3822195,8.25662682 92.9448469,8.26679828 92.9346754,8.19051235 C92.9245039,8.11422642 93.03639,8.10405496 93.2347334,8.0938835 C93.4928759,8.08792298 93.7472257,8.15680938 93.9670783,8.29222692 C94.1870968,8.42110628 94.3640521,8.61221794 94.4756512,8.84148562 C94.5773658,9.0144004 94.5824515,9.14154362 94.5519371,9.15171507 Z" id="Path" fill="#263238" fill-rule="nonzero"></path>
                                <path d="M100.395439,6.70039383 C100.131713,6.53078803 99.8770762,6.34744932 99.6325801,6.15113513 C99.0164919,5.74305891 98.324713,5.46288843 97.5982886,5.32724708 C96.8648277,5.19672685 96.112685,5.21401749 95.3859966,5.37810437 C94.8316522,5.51033331 94.5061656,5.6679909 94.4858227,5.62730508 C94.7326788,5.41910776 95.0255535,5.27267039 95.3402251,5.20010386 C96.8541533,4.73533533 98.4994348,5.03292657 99.7546376,5.99856327 C100.016131,6.18380722 100.234682,6.42317293 100.395439,6.70039383 Z" id="Path" fill="#263238" fill-rule="nonzero"></path>
                                <path d="M98.7934349,2.15883809 C98.3006549,2.0810561 97.8021521,2.04532723 97.3033164,2.05203779 C96.8128251,2.14207361 96.3299604,2.26959067 95.8589694,2.43346744 C96.6559809,1.67447175 97.8694321,1.56090787 98.7934349,2.15883809 Z" id="Path" fill="#263238" fill-rule="nonzero"></path>
                            </g>
                        </g>
                        <g id="Group-5-Copy-3" mask="url(#mask-2)">
                            <g transform="translate(33.446496, 15.966774)">
                                <ellipse id="Oval-Copy-88" stroke="#979797" stroke-width="1" fill="#D8D8D8" fill-rule="evenodd" transform="translate(42.975085, 51.161296) rotate(3.000000) translate(-42.975085, -51.161296) " cx="42.9750848" cy="51.1612959" rx="4.04764012" ry="2.36112341"></ellipse>
                                <path d="M50.7008678,34.4931504 C48.1653036,34.4353334 40.6651965,33.5899811 43.0941756,34.3196995 L38.6760806,36.6124893 C49.4664793,39.8541612 48.9760699,39.4152433 51.2770484,34.6009711 L50.7008678,34.4931504 Z" id="Path-21-Copy" stroke="#979797" stroke-width="1" fill="none" transform="translate(44.976565, 36.361161) rotate(3.000000) translate(-44.976565, -36.361161) "></path>
                                <path d="M51.8977805,36.6895949 C49.5520487,33.0435698 50.3108379,32.7822045 43.4621894,34.4053286 C41.928196,34.7688838 38.0047092,36.3817177 39.4753775,36.9495581 C50.1142237,41.057328 49.8380479,40.3549307 51.2457418,35.8346997" id="Path-20-Copy" stroke="#979797" stroke-width="1" fill="none" transform="translate(45.524529, 36.558406) rotate(3.000000) translate(-45.524529, -36.558406) "></path>
                                <path d="M47.809155,21.337277 C55.3654245,20.0413576 66.0451153,28.0406846 67.0185728,35.6448512 C68.0999673,44.0909269 68.5510735,45.8025158 66.7975023,51.1348897 C62.3600784,64.6284985 57.5742774,72.7016077 57.5742774,72.7016077 C57.5742774,72.7016077 57.8275878,77.2318105 58.1938047,83.3115921 C58.6156111,83.4167379 60.2392366,85.4544973 60.0583055,86.307649 C59.7979892,87.5351291 59.2016022,89.0852353 58.1859823,90.5987554 C58.0458527,90.9763816 57.8472836,91.2435456 57.5783598,91.4324321 C55.9121443,93.545236 53.369747,95.4496197 49.7132645,96.1182267 C44.7702515,97.0220825 39.8851463,93.4310421 36.7297074,90.0334492 C36.3378276,89.8168478 36.0320292,89.5172061 35.8773693,89.0716639 C34.106133,86.9818819 33.0850508,85.1456364 33.2312628,84.7350787 C33.331652,84.45319 34.3383115,84.1461463 36.2512414,83.8139476 C36.756192,77.5639447 36.2635669,72.5981843 36.1131533,67.0133558 C35.9061892,59.3288206 34.9228987,47.6711184 33.1632817,32.0402493 C32.9669711,29.7202769 35.482075,24.4197472 37.7770869,24.0264515 C39.4276193,23.0976148 42.771642,22.2012233 47.809155,21.337277 Z" id="Combined-Shape-Copy-4" stroke="none" fill="url(#linearGradient-3)" fill-rule="evenodd" transform="translate(50.562683, 58.729011) rotate(3.000000) translate(-50.562683, -58.729011) "></path>
                                <g id="Group-11-Copy" stroke="none" stroke-width="1" fill="none" fill-rule="evenodd" transform="translate(37.514264, 47.987049) rotate(3.000000) translate(-37.514264, -47.987049) translate(2.876979, 1.962164)">
                                    <path d="M8.64245145,87.8133706 C8.50059169,88.196056 7.90366617,91.4792784 8.11656853,91.3445442 C18.5212022,84.760023 34.6899905,81.3147785 34.6899905,81.3147785 C34.2360845,71.844439 33.8764479,65.3381657 33.6110809,61.7959587 C32.6692592,49.2242123 31.8677858,43.0756227 32.0273416,42.7602523 C50.2958063,6.65166281 67.913215,25.8420496 67.913215,25.8420496 C67.913215,25.8420496 67.5430536,20.2598473 62.6086384,15.2069768 C59.571224,12.0966466 55.7113343,10.1396021 51.0926935,10.2100221 C50.1874198,10.2238247 43.6086073,4.20425753 32.1391205,11.413417 C5.95838176,29.5630639 16.4735943,66.6878256 8.64245145,87.8133706 Z" id="Fill-1" fill="#3B395D"></path>
                                    <path d="M55.4009111,62.1398476 C55.4009111,62.1398476 55.240587,67.9763365 55.4465572,73.8212041 C49.226812,72.2634403 42.8531125,69.635781 39.8231287,67.2547839 C35.2481967,63.659748 33.4406777,59.0695183 31.7286062,55.45362 L55.4009111,62.1398476 Z" id="Fill-6" fill="#CD9388"></path>
                                    <path d="M52.7839977,70.1435207 C52.7839977,70.1435207 33.3720281,64.5147941 32.3093462,59.4526128 C31.9480623,57.7316043 31.7083159,55.0710997 31.4832163,54.1413749 C31.157764,52.7971648 28.7359046,56.0746618 27.4935056,52.1347524 C26.2511065,48.194843 26.5830186,43.8790444 27.1090293,42.7295672 C28.3673693,39.9797506 31.44257,43.9568126 31.4177051,42.2550463 C31.2557142,31.168274 34.3728062,20.8812418 47.4603945,19.601906 C64.2448325,17.9611749 65.2070219,28.7234069 66.7506854,34.2772716 C68.2947871,39.830912 66.1897519,63.6354401 55.1101516,70.4982508 C54.2379043,70.4296616 53.4625197,70.3114183 52.7839977,70.1435207 Z" id="Fill-8" fill="#FBC0A6"></path>
                                    <path d="M63.2548479,18.0987527 C59.8245067,16.4471786 56.8203318,17.3569004 55.1671437,18.8913681 C27.6330137,11.0183243 23.6469349,43.2555688 23.9818397,52.4245482 C24.0981744,55.6095457 24.9296666,65.990508 26.4763161,83.5674348 L30.5137998,82.3484794 C28.3672903,64.9266096 27.169384,54.1043884 26.920081,49.8818157 C26.8647635,48.9448748 26.8250231,48.1000036 26.8008597,47.3472019 C26.7313631,45.1820543 27.519743,42.468045 29.9152666,42.286852 C32.2046323,42.1136885 32.1455216,48.973523 32.371534,48.4122812 C33.0789707,46.6555495 34.1614411,38.9936601 34.4502069,37.8928975 C40.056699,16.5211954 55.4726071,23.1602851 55.9242659,21.214094 C57.5713769,22.584914 58.4535308,21.7973942 61.4597066,24.0626438 C65.5983021,27.1812081 67.5581532,34.4657916 66.3352549,40.1286588 C66.3352549,40.1286588 66.2808265,48.1446256 66.9819884,46.7618502 C67.1386671,46.452861 66.9688167,43.8603168 67.6859879,39.9709691 C68.7231451,34.34628 70.4296101,26.1186535 65.2234812,20.0035308 L63.2548479,18.0987527 Z" id="Fill-10" fill="#565478"></path>
                                    <path d="M50.1640168,13.4626095 C35.6255052,2.53040562 7.25105367,24.6338629 19.4385964,85.2055587 C19.6985694,86.497616 21.9537609,83.789384 22.7308245,84.4024941 C23.073223,84.6726496 6.51763079,10.6969054 50.5600757,14.3491288 C51.5933024,14.4348093 51.7605916,14.839021 52.8412151,16.205561 C53.1491002,16.6813974 52.2567007,15.7670802 50.1640168,13.4626095 Z" id="Path-25" fill="#545278" opacity="0.465820312"></path>
                                    <path d="M54.8463733,18.4167626 C53.4337317,16.8174222 53.0937508,15.7336449 52.1675537,14.6312115 C45.6798752,6.90906146 49.4359896,10.3200094 52.7536281,14.0654425 C54.3926875,15.9158514 55.7266446,17.7867178 55.2716472,18.3154254 L54.8463733,18.4167626 Z" id="Path-29" fill="#555379" opacity="0.63625372"></path>
                                </g>
                                <g id="Group-22-Copy" stroke="none" stroke-width="1" fill="none" fill-rule="evenodd" transform="translate(55.261497, 50.153227) rotate(3.000000) translate(-55.261497, -50.153227) translate(41.020861, 35.481056)">
                                    <path d="M10.9175259,3.66371765 C10.5268977,4.13953937 9.42569226,3.65109638 9.05336492,3.5027965 C7.87012123,3.03013009 6.03370596,2.37042505 4.4127093,2.51950756 C1.85507642,3.10871048 0.770299005,3.53192638 0.741270094,3.38236437 C0.673115257,3.03275531 0.846119157,1.95794881 6.39505875,1.18300308 C7.05515096,1.09086783 10.5905317,1.17096469 11.2480996,1.81275606 C11.7718822,2.3245484 11.1257768,3.40939914 10.9175259,3.66371765 Z" id="Fill-1" fill="#413F62" transform="translate(6.090201, 2.509220) rotate(-6.000000) translate(-6.090201, -2.509220) "></path>
                                    <path d="M19.7007774,3.75127947 C20.0550527,4.25007994 21.1581161,3.77694052 21.537515,3.65573013 C22.7433273,3.26916503 24.5858259,3.08293763 26.1825159,3.3431093 C28.677258,4.10453936 29.556537,3.51428338 24.4980136,1.53466511 C24.0290896,1.35115491 20.0271327,1.58331101 19.3307409,2.17398535 C18.7759934,2.64505569 19.5119518,3.48471617 19.7007774,3.75127947 Z" id="Fill-1-Copy" fill="#413F62" transform="translate(23.654153, 2.724206) rotate(15.000000) translate(-23.654153, -2.724206) "></path>
                                    <path d="M17.5620774,6.94484646 C17.5620774,6.94484646 17.5480346,7.11390296 17.5059061,7.40349049 C17.4612994,7.69933937 17.419997,8.08910852 17.3894332,8.56888461 C17.3663038,8.80603331 17.3679559,9.06431407 17.3572173,9.3335522 C17.3415223,9.60200767 17.3737382,9.88689918 17.3679559,10.1764867 C17.4001718,10.7603578 17.4753423,11.3724049 17.5785984,11.982104 C17.6983755,12.5878898 17.8487164,13.188197 18.0254908,13.7470226 C18.1345293,14.0178261 18.2072216,14.2956736 18.3170861,14.5437796 C18.4228204,14.793451 18.5136857,15.0368611 18.61942,15.2528777 C18.8176717,15.691955 19.0068369,16.0582441 19.1456132,16.3141769 C19.2860415,16.569327 19.3612119,16.7266434 19.3612119,16.7266434 C19.3612119,16.7266434 19.2150013,16.6327232 18.9688387,16.4503613 C18.8424532,16.361137 18.6995467,16.242954 18.5492058,16.0942469 C18.3906045,15.9518011 18.2171342,15.7835273 18.0568807,15.5792507 C17.7033318,15.1902642 17.3753903,14.6744854 17.0813169,14.093745 C16.9549314,13.7955481 16.7988082,13.4942205 16.7062907,13.1662822 C16.5881657,12.8453879 16.52456,12.5049269 16.4452593,12.1683793 C16.3998266,11.8263529 16.339525,11.4866746 16.3362208,11.1462136 C16.3073091,10.8088832 16.3444813,10.4739009 16.3576981,10.1537893 C16.4279122,9.5127834 16.5526456,8.92186832 16.745115,8.4428749 C16.8235897,8.20024752 16.9276718,7.98423088 17.0259716,7.79639032 C17.1151849,7.60541909 17.2077024,7.45045063 17.2919594,7.32913694 C17.4579952,7.08259621 17.5620774,6.94484646 17.5620774,6.94484646" id="Fill-4" fill="#C39886"></path>
                                    <path d="M6.95314349,7.66502835 C6.99686049,8.19365893 7.32795286,8.33512336 7.37397075,8.63193878 C7.7708751,8.49273465 8.02593568,8.64175818 8.65695607,8.5790588 C9.23160453,8.52268688 9.73262437,8.54857194 10.1255022,8.59631551 C10.4447513,7.98830407 10.4574062,7.31759324 10.1255022,6.87582145 C9.81143002,6.45820905 9.30465794,6.39896101 8.79903632,6.34028819 C8.60115937,6.31670402 7.32071143,6.16714586 6.97787811,6.78896267 C6.92725843,6.88042324 6.89734679,6.98914051 6.95314349,7.66502835 Z" id="Fill-8" fill="#545A83" transform="translate(8.646403, 7.469814) rotate(13.000000) translate(-8.646403, -7.469814) "></path>
                                    <path d="M21.7816888,8.09203742 C21.8238999,8.61438216 21.9709729,8.58428693 22.0154057,8.87757298 C22.566713,9.04355406 24.4654283,8.96507498 24.8447731,9.01225084 C25.1530255,8.41146913 25.4720397,7.78699595 25.1515684,7.35047717 C24.8483147,6.93783051 24.0522035,6.84102462 23.5639984,6.78304947 C23.3729375,6.75974573 22.3348548,6.37714147 22.0038307,6.99156439 C21.9549546,7.08193741 21.7278141,7.42418642 21.7816888,8.09203742 Z" id="Fill-8-Copy" fill="#545A83" transform="translate(23.529203, 7.828156) rotate(15.000000) translate(-23.529203, -7.828156) "></path>
                                    <path d="M10.1540172,5.21789701 C8.80171705,4.48066042 5.4755368,4.1766675 3.31323811,6.47713547 C2.91718219,6.89849906 2.03449803,8.45311429 2.55214609,8.37885725 C4.41631772,8.1114403 5.8244856,6.2026796 7.70195871,6.05522678 C8.59227806,5.98530296 9.74052371,7.213289 10.5717566,7.6258813 C12.5817719,8.62357625 12.729727,7.76799667 11.923427,7.18903924 L10.1540172,5.21789701 Z" id="Path-19" fill="#CAA199" transform="translate(7.387279, 6.530245) rotate(6.000000) translate(-7.387279, -6.530245) "></path>
                                    <path d="M25.3014252,5.53148914 C24.0356691,4.79425256 21.6983593,4.35933605 19.6744426,6.65980402 C17.6505259,8.96027199 18.2978685,8.2532516 18.7823883,8.17899456 C19.2899035,8.10121326 19.7108596,7.92801209 20.0959163,7.71785094 C21.0347087,7.20546495 21.7601099,6.47338338 23.0062927,6.36881892 C23.8396337,6.2988951 25.307172,7.5638172 26.0852079,7.9764095 C27.966587,8.97410445 27.7487718,8.43491576 26.9575969,7.50263138 L25.3014252,5.53148914 Z" id="Path-19-Copy" fill="#CAA199" transform="translate(22.912241, 6.725983) scale(-1, 1) rotate(-3.000000) translate(-22.912241, -6.725983) "></path>
                                    <path d="M3.40218227,7.3931363 C3.62596503,7.25721876 3.97343945,7.03722691 4.22973765,6.88160133 C4.48412318,6.72257781 4.92101893,6.46105491 5.21238281,6.29659469 C5.78554719,5.9479662 6.20374281,5.89045804 6.90633141,5.67298998 C7.25890082,5.57512935 7.59738967,5.48023039 7.98693743,5.4353776 C8.18139254,5.41498997 8.71830802,5.40723362 8.95802972,5.4636394 C9.08171592,5.49354126 9.19265096,5.53567569 9.30932402,5.60363446 C9.36287887,5.63421591 9.52586875,5.7838087 9.61576439,5.86467964 C9.9715216,6.18408586 10.0552665,6.48573929 10.1897912,6.73039086 C10.3230408,6.98659542 10.4543777,7.18571462 10.6271558,7.36240742 C10.9561356,7.6947258 11.3571594,7.87481654 11.6395975,7.97471593 C11.9258609,8.07529491 12.1024644,8.11607017 12.1024644,8.11607017 C12.1024644,8.11607017 11.9296862,8.16296173 11.6121825,8.17587389 C11.3004168,8.18266977 10.8815477,7.86941664 9.94828143,7.74772105 C9.01501514,7.62602546 7.22183065,7.25610827 6.90368935,7.35464849 C6.26421897,7.53134129 3.83059184,7.97738604 3.70499297,8.01748171 C2.70020201,8.33960628 2.24199677,8.48508629 2.24199677,8.48508629 C2.24199677,8.48508629 2.48601184,7.93816563 3.40218227,7.3931363 Z" id="Fill-6" fill="#464462" transform="translate(7.172231, 6.952634) rotate(6.000000) translate(-7.172231, -6.952634) "></path>
                                    <path d="M19.0175418,7.71840134 C19.227003,7.5824838 19.5522399,7.36249195 19.7921356,7.20686637 C20.0302411,7.04784285 20.4391765,6.78631995 20.7118938,6.62185973 C21.248377,6.27323124 21.9468061,5.69012608 23.1640918,5.86040896 C24.3813776,6.03069184 25.8223684,7.62034599 25.9840892,7.79703879 C26.292015,8.12935717 26.4634192,8.20008158 26.7277819,8.29998097 C26.9957251,8.40055995 27.1610264,8.44133522 27.1610264,8.44133522 C27.1610264,8.44133522 26.7320836,8.31798469 26.4348994,8.33089686 C26.1430859,8.33769273 25.2165817,8.4241142 24.0641337,7.79061941 C22.9116857,7.15712462 22.8311802,7.46508722 22.5333992,7.56362744 C21.9348534,7.74032024 19.6230576,8.49722151 19.5054967,8.53731719 C18.56501,8.85944176 18.3248714,8.35525776 18.3248714,8.35525776 C18.3248714,8.35525776 18.1600041,8.26343068 19.0175418,7.71840134 Z" id="Fill-6-Copy" fill="#464462" transform="translate(22.736591, 7.237395) scale(-1, 1) rotate(-3.000000) translate(-22.736591, -7.237395) "></path>
                                    <path d="M8.75498532,24.3911255 C9.63602165,24.8033102 10.9197982,25.307916 12.5361558,25.6182351 C13.5143355,25.8064503 14.2591013,25.8543474 14.4486658,25.8658157 C15.5536715,25.9312526 17.3683635,25.8934746 19.600637,25.1574787 C19.3854375,25.6701798 18.9665067,26.4851046 18.1758677,27.2521325 C17.7427702,27.6717378 16.9312184,28.4596784 15.7412122,28.6930923 C14.2564029,28.985197 13.0259203,28.2485265 11.9836529,27.62519 C10.3632477,26.6557801 9.35201224,25.3632337 8.75498532,24.3911255 Z M16.2377227,22.7261962 C16.5601847,22.4941315 17.0546714,22.4604012 17.3326094,22.7450852 C17.4924911,22.9090146 17.5538803,23.1424285 17.6510237,23.3502074 C18.0618592,24.2251722 19.0791661,24.6069996 19.998655,24.9058504 C18.0436448,25.2411299 16.0758171,25.5784333 14.093148,25.5527982 C12.1098044,25.5278378 10.0886827,25.1190261 8.4095867,24.0639412 C9.33649629,24.1631084 10.2721758,24.261601 11.1984107,24.1543385 C12.1246457,24.0484253 13.0529045,23.7171934 13.7180667,23.0641741 C13.8475912,22.9366735 13.9710442,22.7950061 14.1356483,22.7181009 C14.4324752,22.5791319 14.798112,22.6911166 15.0463673,22.9063162 C15.2939479,23.1208411 15.4497821,23.4203665 15.5988702,23.7124712 C15.7317677,23.3367152 15.9145861,22.9589355 16.2377227,22.7261962 Z" id="Combined-Shape" fill="#CB8E8E" transform="translate(14.204121, 25.650423) rotate(5.000000) translate(-14.204121, -25.650423) "></path>
                                </g>
                                <path d="M56.1872481,54.7738327 C57.5229443,54.7738327 60.1100589,52.8492006 60.1100589,52.3792153 C60.1100589,51.9092299 57.7692511,53.2250736 56.4335548,53.2250736 C55.0978586,53.2250736 53.7687561,53.4528635 53.7687561,53.9228489 C53.7687561,54.3928343 54.8515518,54.7738327 56.1872481,54.7738327 Z" id="Oval-Copy-89" stroke="none" fill="#D2A29A" fill-rule="evenodd" opacity="0.496651786" transform="translate(56.939408, 53.525810) rotate(3.000000) translate(-56.939408, -53.525810) "></path>
                                <ellipse id="Oval-Copy-90" stroke="none" fill="#E35C86" fill-rule="evenodd" opacity="0.192196801" filter="url(#filter-4)" transform="translate(41.360893, 51.549799) rotate(17.000000) translate(-41.360893, -51.549799) " cx="41.360893" cy="51.5497992" rx="4.89089848" ry="2.69842675"></ellipse>
                            </g>
                        </g>
                    </g>
                    <g id="Group-4" transform="translate(151.162219, 94.700565)">
                        <path d="M22.2914286,11.1457143 C22.2914286,17.3012929 17.3012929,22.291249 11.1457143,22.291249 C4.99013576,22.291249 4.32687103e-13,17.3012929 4.32687103e-13,11.1457143 C4.32687103e-13,4.99013576 4.99013576,-1.46178075e-13 11.1457143,-1.46178075e-13 C17.3012929,-1.46178075e-13 22.2914286,4.99013576 22.2914286,11.1457143" id="Fill-174" fill="#4C55CE"></path>
                        <path d="M16.6921119,7.34523555 L14.2532684,9.43254215 L14.2532684,8.53349142 C14.2532684,8.09465406 13.8976,7.73880601 13.4587626,7.73880601 L5.98774977,7.73880601 C5.54891241,7.73880601 5.19306436,8.09465406 5.19306436,8.53349142 L5.19306436,13.7578654 C5.19306436,14.1968824 5.54891241,14.5525508 5.98774977,14.5525508 L13.4587626,14.5525508 C13.8976,14.5525508 14.2532684,14.1968824 14.2532684,13.7578654 L14.2532684,12.8588146 L16.6921119,14.9461212 C16.8518034,15.0829997 17.0984361,14.9694732 17.0984361,14.7591259 L17.0984361,7.53223091 C17.0984361,7.32206321 16.8518034,7.20853672 16.6921119,7.34523555" id="Fill-176" fill="#FFFFFF"></path>
                        <path d="M49.1187434,11.1457143 C49.1187434,17.3012929 44.1286076,22.291249 37.9730291,22.291249 C31.8174505,22.291249 26.8274944,17.3012929 26.8274944,11.1457143 C26.8274944,4.99013576 31.8174505,-1.46178075e-13 37.9730291,-1.46178075e-13 C44.1286076,-1.46178075e-13 49.1187434,4.99013576 49.1187434,11.1457143" id="Fill-178" fill="#4C55CE"></path>
                        <path d="M37.973065,14.0748055 L37.973065,14.0748055 C36.7524756,14.0748055 35.7630707,13.0854006 35.7630707,11.8648112 L35.7630707,7.06831714 C35.7630707,5.84772778 36.7524756,4.85814326 37.973065,4.85814326 C39.1936544,4.85814326 40.1830593,5.84772778 40.1830593,7.06831714 L40.1830593,11.8648112 C40.1830593,13.0854006 39.1936544,14.0748055 37.973065,14.0748055" id="Fill-180" fill="#FFFFFF"></path>
                        <path d="M37.973065,17.4332315 C37.6849376,17.4332315 37.4505198,17.1988137 37.4505198,16.9106863 L37.4505198,16.2341978 C35.4203357,15.9803799 33.793961,14.2480232 33.646664,12.1601777 C33.6366047,12.0180899 33.686542,11.8767207 33.7835425,11.772535 C33.8803633,11.6688882 34.0170621,11.6094305 34.1589702,11.6094305 C34.4289549,11.6094305 34.6536727,11.8192389 34.6712765,12.087068 C34.7030711,12.5738667 34.8706663,13.5047121 35.6358923,14.2683214 C36.5299134,15.1607258 37.6515264,15.2350929 37.9739632,15.2367095 C38.2953221,15.2350929 39.4171147,15.1607258 40.3111358,14.2683214 C41.0760026,13.5047121 41.2437775,12.5738667 41.2755721,12.087068 C41.2931758,11.8192389 41.5178936,11.6094305 41.787519,11.6094305 C41.9314031,11.6094305 42.0645093,11.6674512 42.1624079,11.7727146 C42.2599473,11.8776189 42.3098846,12.0198862 42.2992864,12.1630518 C42.1483967,14.238862 40.5218424,15.9692428 38.4957898,16.231683 L38.4957898,16.9106863 C38.4957898,17.1988137 38.2611923,17.4332315 37.973065,17.4332315" id="Fill-182" fill="#FFFFFF"></path>
                    </g>
                    <path d="M3.87662451,0.726514463 L203.328398,0.726514463 C204.985252,0.726514463 206.328398,2.06966021 206.328398,3.72651446 L206.328398,17.9878916 L206.328398,17.9878916 L0.876624505,17.9878916 L0.876624505,3.72651446 C0.876624505,2.06966021 2.21977026,0.726514463 3.87662451,0.726514463 Z" id="Rectangle-Copy-25" fill="#F0F2F9"></path>
                    <path d="M24.6860365,9.8712078 C24.6860365,11.0217992 23.7532957,11.95454 22.6027044,11.95454 C21.452113,11.95454 20.5193722,11.0217992 20.5193722,9.8712078 C20.5193722,8.72061644 21.452113,7.78787562 22.6027044,7.78787562 C23.7532957,7.78787562 24.6860365,8.72061644 24.6860365,9.8712078" id="Fill-86" fill="#F58B7F"></path>
                    <path d="M17.9062353,9.8712078 C17.9062353,11.0217992 16.9734945,11.95454 15.8229032,11.95454 C14.6723118,11.95454 13.739571,11.0217992 13.739571,9.8712078 C13.739571,8.72061644 14.6723118,7.78787562 15.8229032,7.78787562 C16.9734945,7.78787562 17.9062353,8.72061644 17.9062353,9.8712078" id="Fill-88" fill="#FFA79E"></path>
                    <path d="M11.2086192,9.8712078 C11.2086192,11.0217992 10.2758784,11.95454 9.12528705,11.95454 C7.97469568,11.95454 7.04195486,11.0217992 7.04195486,9.8712078 C7.04195486,8.72061644 7.97469568,7.78787562 9.12528705,7.78787562 C10.2758784,7.78787562 11.2086192,8.72061644 11.2086192,9.8712078" id="Fill-90" fill="#FFD0CC"></path>
                </g>
                <g id="Group-5" transform="translate(156.833878, -0.000000)">
                    <path d="M35.1434845,-5.5516567e-14 C15.7343131,-5.5516567e-14 5.42828655e-13,15.7337446 5.42828655e-13,35.1429159 L5.42828655e-13,35.1429159 C0.0153498099,38.1956331 0.449692578,47.9641763 7.62999253,57.0038878 L7.62999253,57.0038878 C13.6363163,64.5654694 21.0940498,67.5020207 24.171213,68.5234463 L24.171213,68.5234463 C21.4199964,73.4530093 18.6691589,78.3825723 15.9179423,83.3119459 L15.9179423,83.3119459 C26.1769214,78.9698447 36.4355215,74.627933 46.6943111,70.2862109 L46.6943111,70.2862109 L98.0187692,70.2862109 C117.427751,70.2862109 133.162064,54.5518978 133.162064,35.1429159 L133.162064,35.1429159 C133.162064,15.7337446 117.427751,-5.5516567e-14 98.0187692,-5.5516567e-14 L98.0187692,-5.5516567e-14 L35.1434845,-5.5516567e-14 Z" id="Fill-60" fill="#FFF1EB"></path>
                    <ellipse id="Oval" fill="#F2DFD7" cx="54.5169295" cy="28.9879674" rx="2.84272685" ry="2.94080828"></ellipse>
                    <ellipse id="Oval-Copy-6" fill="#F2DFD7" cx="54.7588637" cy="38.6506231" rx="2.84272685" ry="2.94080828"></ellipse>
                    <ellipse id="Oval-Copy-2" fill="#F2DFD7" cx="63.7104291" cy="28.9879674" rx="2.84272685" ry="2.94080828"></ellipse>
                    <ellipse id="Oval-Copy-7" fill="#F2DFD7" cx="63.9523633" cy="38.6506231" rx="2.84272685" ry="2.94080828"></ellipse>
                    <ellipse id="Oval-Copy-3" fill="#F2DFD7" cx="72.1781261" cy="28.9879674" rx="2.84272685" ry="2.94080828"></ellipse>
                    <ellipse id="Oval-Copy-8" fill="#F2DFD7" cx="72.4200603" cy="38.6506231" rx="2.84272685" ry="2.94080828"></ellipse>
                    <ellipse id="Oval-Copy-4" fill="#F2DFD7" cx="80.7063067" cy="28.9879674" rx="2.84272685" ry="2.94080828"></ellipse>
                    <ellipse id="Oval-Copy-9" fill="#F2DFD7" cx="80.9482409" cy="38.6506231" rx="2.84272685" ry="2.94080828"></ellipse>
                </g>
                <g id="Group-9" transform="translate(230.370463, 76.478049)">
                    <g id="Group-6" transform="translate(0.000000, -0.000000)">
                        <g id="Group-2-Copy" transform="translate(-0.000000, -0.000000)">
                            <mask id="mask-6" fill="white">
                                <use xlink:href="#path-5"></use>
                            </mask>
                            <rect stroke="#C2CAEC" x="0.5" y="0.5" width="206.136526" height="123.281916" rx="4"></rect>
                            <g id="Group-3" mask="url(#mask-6)">
                                <g transform="translate(42.965286, 106.685861) scale(-1, 1) translate(-42.965286, -106.685861) translate(-64.267952, 9.891256)">
                                    <g id="freepik--Character--inject-974" transform="translate(0.000000, 64.006976)">
                                        <path d="M183.300328,26.0212838 L189.49171,18.5196094 C189.49171,18.5196094 191.047057,8.36234235 190.832009,6.9320231 C190.376178,5.02865745 189.804996,3.15477997 189.121628,1.32077067 C189.03537,1.07414121 189.063141,0.801937092 189.197425,0.577807465 C189.33171,0.353677839 189.558628,0.200790553 189.816783,0.160511698 C190.942034,-0.0245296029 192.782445,0.160511698 194.212764,2.87611782 C195.523056,5.37667595 196.213211,8.7474283 196.543284,10.9429183 C196.632409,11.4853849 196.952663,11.9624336 197.420984,12.2503363 C197.889306,12.538239 198.459555,12.6086302 198.983829,12.4432532 C201.828707,11.5403416 204.733058,10.8368136 207.675769,10.3377833 C209.371147,10.1427397 211.281574,11.7581003 211.651656,12.9683704 C211.931719,13.8785736 210.506401,15.618962 210.506401,15.618962 C210.506401,15.618962 211.98173,16.1990915 212.506847,17.2443248 C212.576863,17.3793549 212.641877,17.509384 212.69689,17.639413 C213.05991,18.5049034 212.938171,19.4978384 212.376818,20.2499957 L211.986731,20.7501073 C211.986731,20.7501073 213.787133,21.0551754 214.102203,22.0403953 C214.295244,22.7637858 214.35122,23.516911 214.26724,24.2608909 L212.791911,26.1213061 C213.281325,26.4977341 213.632898,27.0250941 213.792134,27.621641 C213.967173,28.5368453 211.726673,31.0724112 211.726673,31.0724112 L198.239095,34.058558 L191.198161,37.4920167 L183.300328,26.0212838 Z" id="Path" fill="#F8BB9F" fill-rule="nonzero"></path>
                                        <path d="M211.48662,15.8990245 C211.4144,15.9552997 211.335439,16.0023404 211.251567,16.0390558 L210.54641,16.394135 L207.940828,17.6644186 L204.059962,19.5148316 C203.324798,19.8499064 202.559627,20.2549968 201.729442,20.5550638 C200.839293,20.9302174 199.822973,20.8539003 198.998832,20.350018 C198.60188,20.0499211 198.326616,19.6166019 198.223659,19.1297456 C198.127099,18.6691309 198.144265,18.1919218 198.27367,17.7394353 C198.540067,16.8985624 199.082899,16.1724375 199.814014,15.6789754 C200.450325,15.2374716 201.119039,14.8446026 201.814461,14.5037131 L203.584856,13.5685044 L206.15543,12.2332063 L206.860587,11.8781271 C206.94084,11.8325105 207.026539,11.7972229 207.115644,11.7731036 C207.04506,11.8318971 206.967854,11.8822491 206.885593,11.9231371 L206.205441,12.3182253 L203.674876,13.7285401 L201.919484,14.6937555 C201.242083,15.0383859 200.590267,15.4311472 199.969049,15.8690178 C199.287576,16.3365652 198.780894,17.017419 198.528727,17.8044498 C198.244392,18.6380938 198.495877,19.5608657 199.163869,20.13497 C199.524748,20.3832706 199.951135,20.5190183 200.389143,20.5250571 C200.821686,20.5310622 201.251839,20.4599346 201.659426,20.3150102 C202.474608,20.0299466 203.229777,19.6248561 203.969942,19.3147869 L207.870812,17.5143851 L210.511402,16.3191183 L211.236564,16.004048 C211.315051,15.9584298 211.399097,15.9231305 211.48662,15.8990245 L211.48662,15.8990245 Z" id="Path" fill="#AA6550" fill-rule="nonzero"></path>
                                        <path d="M212.721895,21.080181 C212.550431,21.1949985 212.367795,21.2921812 212.176774,21.3702457 C211.816693,21.5402837 211.296577,21.7753361 210.641431,22.0503975 C209.341141,22.6055214 207.515733,23.320681 205.470277,24.0158362 C204.970646,24.1956548 204.461415,24.3475893 203.944936,24.4709378 C203.450522,24.5897223 202.933871,24.5793893 202.444601,24.4409311 C201.597682,24.1598313 200.98834,23.4161625 200.879252,22.5305047 C200.82051,21.947574 200.9909,21.3646604 201.354358,20.9051419 C201.451042,20.7840242 201.561852,20.6748931 201.684432,20.5800693 C201.769451,20.5200559 201.819462,20.4950504 201.824463,20.5000515 C201.829464,20.5050526 201.654425,20.650085 201.434376,20.9651553 C201.128747,21.4170414 200.995635,21.9636894 201.059292,22.5054991 C201.184096,23.3028674 201.746793,23.9622478 202.514617,24.2108797 C202.970549,24.3288272 203.448995,24.3288272 203.904927,24.2108797 C204.412752,24.0858788 204.91357,23.9339638 205.405262,23.7557782 C207.450719,23.0656241 209.276126,22.3804712 210.59142,21.8703573 L212.156769,21.2652223 C212.338469,21.1847642 212.527796,21.1227722 212.721895,21.080181 L212.721895,21.080181 Z" id="Path" fill="#AA6550" fill-rule="nonzero"></path>
                                        <path d="M213.051969,25.9512682 C212.880059,26.0333666 212.698636,26.0938409 212.511848,26.1313084 L211.011514,26.5313977 C209.74123,26.8564702 207.985838,27.2865662 206.045405,27.7466689 C205.569272,27.8708749 205.0868,27.9693726 204.600082,28.0417348 C204.127743,28.1136829 203.644703,28.0530864 203.204771,27.8666957 C202.788456,27.6957521 202.470865,27.346953 202.339578,26.9164836 C202.234555,26.5493602 202.259283,26.1572571 202.409594,25.8062358 C202.623606,25.3108539 203.003919,24.9057763 203.484834,24.6609802 C203.644858,24.5535814 203.82533,24.4803712 204.014952,24.4459322 C204.014952,24.4459322 203.834912,24.5459545 203.51484,24.7459992 C203.0848,25.0098716 202.750169,25.4040708 202.559627,25.8712503 C202.436567,26.1913892 202.424242,26.5435144 202.524619,26.8714736 C202.650325,27.2333196 202.928078,27.5220368 203.284789,27.6616499 C203.685982,27.82231 204.12293,27.872395 204.550071,27.8066823 C205.026846,27.7319112 205.49929,27.6317464 205.965387,27.5066153 C207.90582,27.0465126 209.671214,26.6464233 210.966503,26.3663608 L212.466838,26.0462894 C212.658065,25.9944377 212.854161,25.962593 213.051969,25.9512682 L213.051969,25.9512682 Z" id="Path" fill="#AA6550" fill-rule="nonzero"></path>
                                        <path d="M212.87693,30.372255 C212.320084,30.446631 211.758064,30.4750666 211.196555,30.4572739 C210.161324,30.4572739 208.726003,30.4572739 207.145651,30.4572739 L205.985392,30.4572739 C205.61778,30.4712403 205.249861,30.4393203 204.890147,30.3622527 C204.543645,30.2880927 204.233003,30.0974715 204.009951,29.8221322 C203.814096,29.571875 203.744033,29.2455292 203.819908,28.9369346 C203.948453,28.5182356 204.253539,28.1766122 204.655095,28.0017259 C204.792384,27.9261137 204.949058,27.893038 205.105195,27.9067046 C205.105195,27.9317102 204.945159,27.9517147 204.700105,28.0917459 C204.353785,28.2790393 204.100365,28.6012446 203.999949,28.9819446 C203.948915,29.2337242 204.015166,29.4950477 204.179989,29.6921031 C204.382699,29.9152697 204.650328,30.0692001 204.945159,30.1322014 C205.290159,30.1920667 205.640491,30.215534 205.990393,30.202217 L207.145651,30.202217 C208.726003,30.202217 210.14632,30.2422259 211.196555,30.2722326 C211.758401,30.2631165 212.320132,30.2965529 212.87693,30.372255 Z" id="Path" fill="#AA6550" fill-rule="nonzero"></path>
                                        <path d="M202.4396,26.0562916 C201.541346,25.6686181 200.606454,25.3720664 199.648977,25.1710941 C198.677492,25.0599025 197.697193,25.0481725 196.723324,25.1360862 C198.666887,24.5193075 200.787788,24.8607299 202.4396,26.0562916 L202.4396,26.0562916 Z" id="Path" fill="#AA6550" fill-rule="nonzero"></path>
                                        <path d="M146.97222,50.6967914 L184.840672,23.4557112 L197.537327,37.2976603 L167.714598,64.5204078 C154.471642,76.4980812 146.770925,75.5976569 127.978306,67.5294874 C124.866117,66.0785878 122.531975,64.9904131 120.97588,64.2649633 C119.522136,63.5872293 117.34152,62.5706283 114.434032,61.2151603 L113.486189,128.375601 L58.5577244,128.449316 C58.6875323,128.069669 55.9557373,105.501999 50.3623393,60.7463056 L29.7360529,77.6027968 L50.005577,93.4513342 L42.5039026,110.810209 L6.08721157,86.9771472 C-6.47559244,78.6202819 2.78206466,69.6520365 13.4994568,59.0296655 C32.8037655,39.9003959 41.9287743,26.4863876 58.4324579,23.6657581 C66.9343555,21.1101877 71.9354718,20.6650883 71.9354718,20.6650883 C85.2184365,20.4750459 86.2086575,20.5200559 93.325246,20.8551307 C94.7103847,20.9271315 96.0889387,21.094229 97.4511669,21.3552424 C105.215709,22.5121431 111.087193,28.6333284 117.416732,33.2769749 L146.97222,50.6967914 Z" id="Path" fill="#FF725E" fill-rule="nonzero"></path>
                                        <path d="M147.882423,63.4346345 C147.763775,63.2962621 147.666048,63.1412472 147.592358,62.9745318 C147.355658,62.5405391 147.148476,62.0910872 146.97222,61.6292315 C146.705832,60.9450767 146.493468,60.2410984 146.337078,59.5237616 C146.15076,58.6443807 146.037019,57.7511765 145.997002,56.8531655 C145.970633,55.9536669 146.020825,55.0535553 146.147036,54.1625649 C146.258001,53.4355474 146.425207,52.7182352 146.647147,52.0170861 C146.782464,51.5445807 146.949548,51.0817571 147.147259,50.6317769 C147.2099,50.4545753 147.29566,50.2864187 147.402316,50.1316653 C147.452327,50.1316653 147.142258,50.8568271 146.817185,52.0470928 C146.634908,52.7462976 146.496276,53.4561582 146.402093,54.1725672 C146.292456,55.0499043 146.250656,55.9343912 146.277065,56.8181577 C146.315327,57.7014732 146.418967,58.5807413 146.587134,59.4487448 C146.733137,60.1551964 146.923557,60.8517346 147.157261,61.5342103 C147.567353,62.7294771 147.927433,63.4096289 147.882423,63.4346345 Z" id="Path" fill="#263238" fill-rule="nonzero"></path>
                                        <path d="M112.749997,82.6900052 C116.678402,77.9568691 119.074219,67.6181894 117.897739,61.5807361 C116.72126,55.5432829 112.896537,50.3529012 107.478405,47.4410647 L112.749997,82.6900052 Z" id="Path" fill="#FF725E" fill-rule="nonzero"></path>
                                        <path d="M107.4584,48.4262846 C107.555118,48.4674203 107.645934,48.5212374 107.728461,48.5863203 C107.893498,48.701346 108.158557,48.8613817 108.463625,49.086432 C109.352826,49.7468224 110.188905,50.4758833 110.964183,51.2669186 C113.494066,53.9116191 115.539009,56.980726 117.005531,60.3339424 C117.866996,62.1771845 118.317494,64.1856573 118.325826,66.2202562 C118.31477,67.8692517 118.051673,69.5068652 117.545652,71.0763401 C117.215451,72.1323647 116.814453,73.1649344 116.345384,74.1670299 L115.940294,74.9722097 C115.897363,75.0685595 115.845456,75.1606531 115.785259,75.247271 C115.809701,75.1447777 115.846653,75.0456788 115.895284,74.9522052 C115.985304,74.7371572 116.10533,74.4520936 116.250363,74.127021 C116.680039,73.1146572 117.054014,72.0795467 117.370613,71.0263289 C117.840932,69.4674911 118.081844,67.8484946 118.085772,66.2202562 C118.057471,64.2270311 117.603929,62.2628199 116.755476,60.4589703 C115.294736,57.1332022 113.290194,54.0739943 110.824152,51.4069499 C110.064396,50.6118592 109.25241,49.868374 108.393609,49.1814532 C108.093542,48.9313974 107.843486,48.7613594 107.688452,48.6263293 C107.605175,48.5676318 107.528093,48.5006043 107.4584,48.4262846 Z" id="Path" fill="#263238" fill-rule="nonzero"></path>
                                        <path d="M59.3126543,48.486298 C59.3132621,48.3866326 59.3267091,48.2874608 59.3526633,48.1912321 C59.3976733,47.971183 59.4476845,47.6911205 59.5177001,47.3510446 C59.7103451,46.3288353 59.848902,45.2971703 59.9327928,44.2603548 C60.0555521,42.7228655 60.0085918,41.1765323 59.7927615,39.6493256 C59.5263315,37.7817438 58.9212853,35.978469 58.007363,34.3281379 C57.1008198,32.6750723 55.8238675,31.2543345 54.2765303,30.1772114 C53.0015056,29.3166661 51.5572537,28.7386243 50.0405848,28.481833 C49.0171928,28.3139682 47.973287,28.3139682 46.949895,28.481833 C46.219732,28.6018598 45.8346461,28.7418911 45.8246438,28.7118844 C45.9147317,28.6687178 46.0084484,28.633574 46.1047063,28.6068609 C46.3743668,28.5132855 46.6500601,28.4380965 46.9298905,28.3818107 C47.9646745,28.1762657 49.0271741,28.1508875 50.0705915,28.3067939 C51.6238502,28.5397311 53.1062956,29.113581 54.4115604,29.987169 C56.0013129,31.0718972 57.3108353,32.5185424 58.2324132,34.2081111 C59.1602414,35.8853512 59.7689997,37.7201047 60.027814,39.6193189 C60.2355431,41.1645416 60.2640719,42.7285889 60.1128329,44.2803592 C60.014308,45.3237724 59.8472433,46.3595732 59.6127213,47.3810513 C59.5327035,47.7411317 59.4626878,48.0161931 59.4076756,48.2062355 C59.3853025,48.3024912 59.3534741,48.396301 59.3126543,48.486298 Z" id="Path" fill="#263238" fill-rule="nonzero"></path>
                                        <path d="M39.6132574,45.7256818 C39.4918639,44.3572835 39.455119,42.9826927 39.5032329,41.6097632 C39.4670952,40.235888 39.5188791,38.8611081 39.6582675,37.4938445 C39.7795079,38.8622601 39.8145849,40.2369451 39.7632909,41.6097632 C39.7994411,42.9835238 39.7493315,44.3581991 39.6132574,45.7256818 Z" id="Path" fill="#FAFAFA" fill-rule="nonzero"></path>
                                        <path d="M52.6911764,50.1416675 C52.5756085,49.819474 52.5049299,49.4829089 52.4811296,49.1414442 C52.3961106,48.5113036 52.3110916,47.6411094 52.2710827,46.6408861 C52.2381083,45.8074049 52.2481238,44.9727779 52.3010894,44.140328 C52.2972393,43.7942407 52.340992,43.4492674 52.4311184,43.1150992 C52.5061351,43.1150992 52.4611251,44.6854497 52.5311407,46.6158805 C52.6011563,48.5463114 52.7661932,50.1316653 52.6911764,50.1416675 Z" id="Path" fill="#FAFAFA" fill-rule="nonzero"></path>
                                        <path d="M70.2550967,45.2755814 C70.1454387,43.6809648 70.1237343,42.081517 70.1900822,40.484512 C70.1690577,38.8866962 70.2358399,37.288932 70.3901268,35.6984438 C70.4964683,37.293218 70.516502,38.8925756 70.4501402,40.4895131 C70.4709824,42.0872123 70.4058738,43.6848761 70.2550967,45.2755814 L70.2550967,45.2755814 Z" id="Path" fill="#FAFAFA" fill-rule="nonzero"></path>
                                        <path d="M93.1452058,31.8925943 C93.6840126,30.5916054 94.3002531,29.3240537 94.9906177,28.0967471 C95.6065804,26.8317756 96.2997081,25.6058581 97.0660809,24.4259277 C96.5316297,25.7272527 95.9152575,26.9934049 95.220669,28.2167739 C94.6062668,29.4841753 93.9130888,30.711852 93.1452058,31.8925943 Z" id="Path" fill="#FAFAFA" fill-rule="nonzero"></path>
                                        <path d="M91.4848352,46.7959207 C90.4552424,45.5940057 89.4919319,44.3368605 88.5991911,43.0300802 C87.6370604,41.7724806 86.7438816,40.463598 85.9235939,39.109205 C86.9561211,40.308739 87.9195595,41.5660512 88.809238,42.8750456 C89.7693195,44.1341253 90.6624222,45.4428963 91.4848352,46.7959207 Z" id="Path" fill="#FAFAFA" fill-rule="nonzero"></path>
                                        <path d="M108.668671,36.613648 C107.934056,37.6121902 107.128458,38.5565114 106.258133,39.4392787 C105.451508,40.381599 104.580919,41.2672264 103.652551,42.0898703 C104.391736,41.09352 105.198835,40.1493979 106.06809,39.2642396 C106.875423,38.3242105 107.744188,37.4387383 108.668671,36.613648 Z" id="Path" fill="#FAFAFA" fill-rule="nonzero"></path>
                                        <path d="M120.081218,45.430616 C120.329764,44.1067471 120.663872,42.8003835 121.081441,41.5197431 C121.421892,40.2146827 121.842791,38.9319447 122.341722,37.6788858 C122.091934,39.0024792 121.757846,40.3087636 121.341499,41.5897587 C121.004239,42.8957556 120.583275,44.1786929 120.081218,45.430616 L120.081218,45.430616 Z" id="Path" fill="#FAFAFA" fill-rule="nonzero"></path>
                                        <path d="M134.049336,54.8327145 C133.984321,54.7927056 134.69448,53.6174433 135.359628,52.0670972 C136.024776,50.5167512 136.404861,49.1914554 136.479878,49.2114599 C136.128804,51.2520008 135.295512,53.1792019 134.049336,54.8327145 L134.049336,54.8327145 Z" id="Path" fill="#FAFAFA" fill-rule="nonzero"></path>
                                        <path d="M164.731184,51.2719198 C163.124841,50.917844 161.538835,50.4771014 159.980123,49.9516251 C158.396167,49.510062 156.836931,48.9841954 155.309081,48.3762734 C156.914216,48.7371884 158.499952,49.1795253 160.060141,49.7015693 C161.642724,50.1456448 163.201744,50.6697694 164.731184,51.2719198 L164.731184,51.2719198 Z" id="Path" fill="#FAFAFA" fill-rule="nonzero"></path>
                                        <path d="M174.633394,47.4010558 C174.59914,46.9182213 174.59914,46.4335665 174.633394,45.9507321 C174.658399,45.0555323 174.673403,43.8202565 174.633394,42.4499507 C174.593385,41.0796448 174.493363,39.8543714 174.413345,38.9491693 C174.346108,38.4686642 174.312685,37.9840318 174.313314,37.4988456 C174.459435,37.9622894 174.555011,38.4401724 174.598386,38.9241637 C174.757107,40.085215 174.855594,41.2537069 174.893452,42.4249451 C174.932638,43.5922853 174.909266,44.7608866 174.823436,45.9257265 C174.813898,46.4229484 174.750174,46.9176481 174.633394,47.4010558 L174.633394,47.4010558 Z" id="Path" fill="#FAFAFA" fill-rule="nonzero"></path>
                                        <path d="M186.841119,47.2110134 C185.845688,46.561888 184.901085,45.8379712 184.015488,45.04553 C183.066682,44.3238681 182.172391,43.5332144 181.339891,42.680002 C182.333641,43.3337239 183.279577,44.0573818 184.170523,44.8454854 C185.118446,45.5663175 186.011134,46.3570319 186.841119,47.2110134 L186.841119,47.2110134 Z" id="Path" fill="#FAFAFA" fill-rule="nonzero"></path>
                                        <path d="M191.677198,38.8841548 C191.468994,38.4390791 191.29349,37.979427 191.152081,37.5088478 C190.847013,36.653657 190.411916,35.4833958 189.881797,34.20311 C189.351679,32.9228242 188.831563,31.7875709 188.441476,30.9673878 C188.20836,30.5351405 188.009376,30.085338 187.846343,29.6220875 C188.142313,30.0167576 188.397035,30.4407356 188.606513,30.8873699 C189.036609,31.6875485 189.606736,32.8178008 190.106848,34.1030877 C190.606959,35.3883746 191.047057,36.5786402 191.312117,37.4538356 C191.484231,37.9162997 191.606615,38.3957755 191.677198,38.8841548 L191.677198,38.8841548 Z" id="Path" fill="#FAFAFA" fill-rule="nonzero"></path>
                                        <path d="M69.4299125,27.3515807 C68.9297141,27.5017781 68.4507364,27.7152173 68.0045944,27.9867225 C67.6057833,28.3230176 67.2541972,28.7116128 66.9593611,29.1419804 C66.9293544,29.1419804 66.9593611,28.9419357 67.084389,28.6668743 C67.2659596,28.3112646 67.5300474,28.0043054 67.8545609,27.7716745 C68.1760801,27.5387448 68.5478057,27.3845729 68.9398031,27.321574 C69.2448712,27.2815651 69.4299125,27.3265752 69.4299125,27.3515807 Z" id="Path" fill="#263238" fill-rule="nonzero"></path>
                                        <path d="M75.5212721,35.1683254 C75.4912654,35.1683254 75.4062464,34.9582786 75.3762397,34.5831948 C75.34991,34.0892194 75.4336098,33.5955615 75.6212944,33.1378722 C75.8039464,32.6775814 76.089655,32.2652714 76.4564808,31.9326032 C76.7365434,31.6825474 76.9565925,31.5875262 76.9565925,31.6125318 C76.5046615,32.0917614 76.1300936,32.638428 75.8463447,33.2328934 C75.6417937,33.8581472 75.5322163,34.5105538 75.5212721,35.1683254 Z" id="Path" fill="#263238" fill-rule="nonzero"></path>
                                        <path d="M69.019821,34.8282495 C68.9872478,34.503057 69.0212809,34.1746374 69.1198433,33.8630341 C69.5005547,32.3156049 70.4669288,30.9763072 71.815445,30.1272003 C72.0788824,29.9358811 72.3782777,29.7997923 72.6956414,29.727111 C70.8035189,30.8304991 69.4677627,32.6842017 69.019821,34.8282495 Z" id="Path" fill="#263238" fill-rule="nonzero"></path>
                                        <path d="M64.718861,25.5511789 C64.6938554,25.5511789 64.7838755,25.3311298 65.0339313,25.0510673 C65.7182582,24.3890498 66.6971467,24.1296539 67.6195084,24.3659143 C67.9645855,24.4659367 68.1196201,24.5959657 68.1196201,24.6259724 C67.5173953,24.5026919 66.8964374,24.5026919 66.2942126,24.6259724 C65.7132042,24.8274345 65.1778041,25.1418758 64.718861,25.5511789 L64.718861,25.5511789 Z" id="Path" fill="#263238" fill-rule="nonzero"></path>
                                        <path d="M82.4778248,34.7332283 C82.3337436,34.3211171 82.2315384,33.8955413 82.1727567,33.4629448 C82.0312552,33.0514564 81.9274713,32.6279512 81.8626875,32.1976624 C82.1656929,32.5343858 82.3607988,32.9542118 82.4228125,33.4029314 C82.5667589,33.8322064 82.5858364,34.293534 82.4778248,34.7332283 Z" id="Path" fill="#263238" fill-rule="nonzero"></path>
                                        <path d="M89.6594277,34.8282495 C89.3178933,33.2479684 88.535899,31.7966842 87.4039243,30.6423152 C88.1229667,31.0683592 88.6991529,31.6985085 89.0592938,32.4527193 C89.4955583,33.1654034 89.7048563,33.9938746 89.6594277,34.8282495 L89.6594277,34.8282495 Z" id="Path" fill="#263238" fill-rule="nonzero"></path>
                                        <path d="M92.6851031,29.2370016 C92.6150874,29.2670083 92.425045,28.866919 91.9799457,28.611862 C91.5348463,28.3568051 91.1047503,28.3668073 91.0947481,28.2917906 C91.0847459,28.2167739 91.1947704,28.2067716 91.389814,28.1967694 C91.6436617,28.190908 91.8937798,28.2586484 92.1099747,28.3918129 C92.3263327,28.5185481 92.5003439,28.7064802 92.6100863,28.9319335 C92.7101087,29.1019714 92.7151098,29.2269993 92.6851031,29.2370016 Z" id="Path" fill="#263238" fill-rule="nonzero"></path>
                                        <path d="M98.4313856,26.8264635 C98.1720472,26.6596795 97.9216466,26.479391 97.6812182,26.286343 C97.07538,25.885056 96.3951103,25.6095468 95.6807717,25.4761621 C94.9595136,25.3478134 94.2198844,25.3648164 93.5052861,25.5261733 C92.9601645,25.6562023 92.640093,25.8112369 92.6200886,25.771228 C92.8628377,25.5664945 93.1508398,25.4224935 93.4602761,25.3511342 C94.9490167,24.8940982 96.5669253,25.1867383 97.801245,26.1363095 C98.0583881,26.3184715 98.2733033,26.5538548 98.4313856,26.8264635 Z" id="Path" fill="#263238" fill-rule="nonzero"></path>
                                        <path d="M96.856034,22.3604667 C96.3714525,22.2839788 95.8812435,22.2488444 95.390707,22.2554433 C94.9083761,22.3439812 94.433545,22.4693767 93.9703899,22.630527 C94.7541414,21.8841589 95.9474041,21.7724844 96.856034,22.3604667 Z" id="Path" fill="#263238" fill-rule="nonzero"></path>
                                    </g>
                                    <g id="Group-3" transform="translate(76.120341, 54.951933) rotate(15.000000) translate(-76.120341, -54.951933) translate(37.212706, 9.401531)">
                                        <path d="M8.87321371,16.2818853 C13.50543,15.6817264 16.4962656,17.112646 18.0333,18.5678244 C19.4754048,19.9366245 18.9150347,18.6221119 18.6366662,20.5704534 C18.3582977,22.5187949 17.1469289,24.2196516 15.3766533,25.1477669 L15.3766533,25.1477669 L16.0052945,25.5543223 C15.3606092,27.7685309 14.3220841,29.8538388 12.9375254,31.7142534 C11.5144782,33.58346 13.2770204,37.0150541 10.9090755,36.7815465 C8.8247381,36.3164184 3.04252159,32.4144267 2.31348906,30.4453076 C1.60674784,28.4986618 1.09865364,22.8092356 1.47588726,20.7764101 C1.61546919,19.31011 5.66195672,16.697942 8.87321371,16.2818853 Z M47.8817011,3.28553905 C49.5092708,4.2058918 53.1553826,7.8651698 54.0931308,9.48637216 C55.0334898,11.1360811 54.3754516,17.4100751 53.4860456,19.1244241 C52.2713175,20.9006063 50.9185815,17.6847696 48.7964268,17.5840384 C46.7027364,17.4617543 44.6543971,16.9690168 42.7456999,16.1285082 L42.8294816,15.4566716 C41.1574424,16.1435501 39.2749651,15.9940367 37.7633941,15.054304 C36.2518232,14.1145712 36.8367339,15.2669105 36.7267701,13.4721736 C36.6121488,11.5614601 37.3594334,8.6576972 40.4679311,5.79750719 C42.6228789,3.81469712 46.7847516,2.52987155 47.8817011,3.28553905 Z" id="Combined-Shape-Copy" fill="#403F4C" fill-rule="nonzero" transform="translate(27.949746, 19.929559) rotate(-4.000000) translate(-27.949746, -19.929559) "></path>
                                        <g id="Group-5-Copy-3" transform="translate(47.753618, 51.604221) rotate(-18.000000) translate(-47.753618, -51.604221) translate(28.299801, 16.492453)">
                                            <ellipse id="Oval-Copy-88" stroke="#979797" fill="#D8D8D8" cx="13.4188605" cy="29.6476237" rx="3.92161745" ry="2.28761018"></ellipse>
                                            <path d="M20.150982,13.416602 C17.6943622,13.3605851 10.4277699,12.5415527 12.7811231,13.2485515 L8.50058481,15.4699556 C18.955026,18.6106986 18.4798855,18.1854463 20.7092234,13.5210658 L20.150982,13.416602 Z" id="Path-21-Copy" stroke="#979797"></path>
                                            <path d="M21.319903,15.5166133 C19.0472052,11.9841067 19.7823696,11.7308789 13.1469528,13.3034673 C11.6607201,13.6557032 7.85939043,15.2183217 9.28426974,15.7684826 C19.591877,19.7483576 19.3242999,19.0678294 20.6881654,14.6883352" id="Path-20-Copy" stroke="#979797"></path>
                                            <path d="M18.4760803,0.357382671 C25.7970865,-0.898188514 36.1442667,6.85208062 37.0874157,14.2194926 C38.1351412,22.402601 37.8085326,27.0578122 36.1095586,32.2241634 C34.1739589,38.1100617 32.9852625,40.0518827 31.8114907,42.0035727 L31.5473351,42.4445375 C31.1946399,43.0371609 30.8383471,43.6573617 30.4586931,44.4118963 C29.5663439,46.1853757 26.4209567,47.5878189 25.3972818,48.0060367 L25.2221326,48.0763756 C25.1259543,48.1142772 25.0726803,48.1339548 25.0726803,48.1339548 C25.0726803,48.1339548 25.4774962,52.4454012 25.7183065,56.9290852 C28.9638107,57.3478851 31.19536,57.7277167 31.1646482,57.8169352 C29.895907,61.502662 26.9719457,70.1744703 17.163093,69.4294887 C15.8220764,69.3276386 14.5245149,69.0289247 13.2888674,68.5873179 C5.48638399,65.7987963 0.152585148,57.3127352 1.93497783,56.7176963 C2.49025588,56.5323207 4.03453736,56.2623855 6.19722042,56.0646945 C6.87863594,53.2376479 7.56266426,50.5086903 7.76412922,45.965311 C7.84871436,44.0577713 3.40729071,40.9903421 3.36496929,39.418956 C3.16444899,31.9736777 2.05811212,22.8826538 0.0459586659,12.1458844 C-0.14423978,9.89814405 6.53280216,3.34388052 8.75635925,2.96283003 C10.3555025,2.06291258 13.5954095,1.19443013 18.4760803,0.357382671 Z" id="Combined-Shape-Copy-4" fill="url(#linearGradient-7)"></path>
                                            <g id="Group-22-Copy" transform="translate(10.558756, 13.905682)">
                                                <path d="M10.5776102,3.31264376 C10.1991441,3.77365085 9.13222455,3.30041546 8.77148956,3.15673288 C7.62508599,2.69878287 5.84584724,2.05961764 4.27532007,2.20405849 C1.79731871,2.77491666 0.746315682,3.1849558 0.718190581,3.04005038 C0.652157735,2.70132634 0.819775184,1.65998379 6.19594936,0.909165875 C6.83548969,0.819899251 10.2607968,0.8975023 10.8978915,1.51931159 C11.4053662,2.01516935 10.7793772,3.06624342 10.5776102,3.31264376 Z" id="Fill-1" fill="#413F62" transform="translate(5.900615, 2.194091) rotate(-6.000000) translate(-5.900615, -2.194091) "></path>
                                                <path d="M19.0873966,3.39748275 C19.4306416,3.88075314 20.4993613,3.42234485 20.8669477,3.30490833 C22.0352171,2.93037887 23.8203498,2.74994963 25.3673271,3.0020209 C27.7843958,3.73974395 28.6362986,3.16786549 23.7352716,1.24988235 C23.2809474,1.07208571 19.4035909,1.29701366 18.7288811,1.86929745 C18.1914056,2.32570109 18.9044501,3.13921886 19.0873966,3.39748275 Z" id="Fill-1-Copy" fill="#413F62" transform="translate(22.917684, 2.402387) rotate(15.000000) translate(-22.917684, -2.402387) "></path>
                                                <path d="M17.0152847,6.4916185 C17.0152847,6.4916185 17.0016791,6.65541146 16.9608623,6.93598272 C16.9176444,7.22262038 16.8776279,7.60025413 16.8480157,8.06509246 C16.8256065,8.29485757 16.8272071,8.5450968 16.8168029,8.80595224 C16.8015966,9.06604938 16.8328095,9.34207084 16.8272071,9.6226421 C16.85842,10.1883344 16.93125,10.7813256 17.0312913,11.3720418 C17.1473391,11.9589666 17.2929992,12.5405832 17.4642698,13.0820099 C17.5699134,13.3443819 17.6403424,13.6135787 17.7467863,13.85396 C17.8492286,14.0958579 17.9372649,14.3316895 18.0397071,14.5409804 C18.2317863,14.9663871 18.4150619,15.3212719 18.5495173,15.5692362 C18.6855734,15.8164422 18.7584034,15.9688607 18.7584034,15.9688607 C18.7584034,15.9688607 18.616745,15.8778646 18.3782467,15.7011805 C18.2557962,15.6147342 18.1173391,15.5002308 17.9716791,15.3561537 C17.8180157,15.218143 17.6499464,15.0551083 17.4946824,14.8571918 C17.1521411,14.4803164 16.8344101,13.9805962 16.5494926,13.4179371 C16.4270421,13.1290245 16.2757798,12.8370788 16.1861428,12.5193508 C16.0716956,12.2084475 16.0100702,11.8785867 15.9332385,11.5525174 C15.8892204,11.22114 15.8307963,10.8920375 15.827595,10.5621767 C15.7995834,10.2353491 15.8355983,9.91079636 15.8484036,9.60065138 C15.9164316,8.9796031 16.0372814,8.40708608 16.2237583,7.94300605 C16.2997897,7.70793283 16.4006313,7.49864184 16.4958705,7.31664967 C16.5823062,7.1316243 16.6719431,6.98148076 16.7535768,6.86394415 C16.9144431,6.62507943 17.0152847,6.4916185 17.0152847,6.4916185" id="Fill-4" fill="#C39886"></path>
                                                <path d="M6.73665839,7.18937764 C6.77901427,7.70154937 7.09979812,7.83860933 7.14438326,8.12618345 C7.52893005,7.99131342 7.77604935,8.13569713 8.38742301,8.07494988 C8.94417989,8.02033309 9.42960054,8.04541223 9.81024613,8.0916693 C10.1195555,7.50258821 10.1318164,6.85275987 9.81024613,6.42474257 C9.50595259,6.02013247 9.01495879,5.96272911 8.52507962,5.90588306 C8.33336354,5.88303318 7.09278216,5.73813149 6.7606229,6.34058813 C6.71157925,6.42920109 6.68259892,6.53453347 6.73665839,7.18937764 Z" id="Fill-8" fill="#545A83" transform="translate(8.377198, 7.000242) rotate(13.000000) translate(-8.377198, -7.000242) "></path>
                                                <path d="M21.1035191,7.60309184 C21.144416,8.10917345 21.2869099,8.08001523 21.3299593,8.36416987 C21.8641017,8.52498315 23.7037008,8.4489475 24.0712348,8.49465455 C24.3698898,7.91257809 24.6789715,7.30754779 24.368478,6.88461996 C24.0746661,6.48482099 23.3033417,6.39102914 22.8303368,6.33485903 C22.6452245,6.31228085 21.6394624,5.94158892 21.3187446,6.53688187 C21.2713903,6.62444115 21.0513218,6.95603429 21.1035191,7.60309184 Z" id="Fill-8-Copy" fill="#545A83" transform="translate(22.796625, 7.347427) rotate(15.000000) translate(-22.796625, -7.347427) "></path>
                                                <path d="M9.83787335,4.81843736 C8.52767688,4.10415453 5.30505677,3.80962638 3.21008093,6.03846962 C2.82635615,6.44671412 1.97115424,7.95292664 2.4726854,7.88098158 C4.27881632,7.62189061 5.6431411,5.77255889 7.46215936,5.629697 C8.32475875,5.56195025 9.43725393,6.75170312 10.2426065,7.15144942 C12.1900403,8.11808129 12.3333888,7.28914005 11.5521928,6.72820837 L9.83787335,4.81843736 Z" id="Path-19" fill="#CAA199" transform="translate(7.157278, 6.089926) rotate(6.000000) translate(-7.157278, -6.089926) "></path>
                                                <path d="M24.5136691,5.12226585 C23.2873221,4.40798302 21.0227841,3.98660758 19.0618817,6.21545082 C17.1009794,8.44429405 17.728167,7.75928664 18.1976014,7.68734159 C18.6893152,7.611982 19.0971649,7.44417341 19.470233,7.2405556 C20.3797961,6.74412267 21.0826121,6.03483436 22.2899951,5.93352549 C23.0973902,5.86577874 24.5192369,7.09131768 25.2730488,7.49106398 C27.0958515,8.45769584 26.8848179,7.93529471 26.1182761,7.03203686 L24.5136691,5.12226585 Z" id="Path-19-Copy" fill="#CAA199" transform="translate(22.198871, 6.279570) scale(-1, 1) rotate(-3.000000) translate(-22.198871, -6.279570) "></path>
                                                <path d="M3.29625583,6.92595091 C3.51307114,6.79426514 3.849727,6.5811227 4.09804539,6.4303425 C4.34451066,6.27627015 4.76780373,6.02288973 5.05009603,5.86354995 C5.60541503,5.52577596 6.01059019,5.47005831 6.6913038,5.25936108 C7.03289601,5.16454733 7.36084606,5.07260304 7.73826531,5.02914673 C7.92666609,5.00939387 8.44686478,5.00187901 8.67912278,5.0565286 C8.79895803,5.08549947 8.90643912,5.12632206 9.01947959,5.19216494 C9.07136701,5.22179424 9.22928223,5.36672948 9.31637898,5.44508251 C9.66105974,5.75454407 9.7421973,6.04680557 9.87253357,6.28383995 C10.0016344,6.53206762 10.1288822,6.72498727 10.2962809,6.89617876 C10.6150179,7.21815046 11.0035559,7.3926341 11.2772003,7.48942314 C11.5545509,7.58687061 11.7256559,7.62637634 11.7256559,7.62637634 C11.7256559,7.62637634 11.5582572,7.67180793 11.2506389,7.68431807 C10.9485799,7.69090236 10.5427523,7.38740233 9.63854315,7.26949571 C8.73433397,7.15158909 6.99698002,6.79318922 6.688744,6.8886614 C6.06918343,7.0598529 3.71132693,7.49201011 3.58963856,7.53085741 C2.61613162,7.84295268 2.17219253,7.98390319 2.17219253,7.98390319 C2.17219253,7.98390319 2.40861022,7.45401083 3.29625583,6.92595091 Z" id="Fill-6" fill="#464462" transform="translate(6.948924, 6.499163) rotate(6.000000) translate(-6.948924, -6.499163) "></path>
                                                <path d="M18.4254334,7.24108887 C18.6283731,7.1094031 18.9434838,6.89626066 19.1759104,6.74548046 C19.4066024,6.59140811 19.8028058,6.33802769 20.067032,6.17868791 C20.5868119,5.84091392 21.2634955,5.27596365 22.4428813,5.4409448 C23.622267,5.60592595 25.0183928,7.14608645 25.1750784,7.31727794 C25.473417,7.63924964 25.6394845,7.70777206 25.8956164,7.8045611 C26.1552172,7.90200857 26.3153719,7.9415143 26.3153719,7.9415143 C26.3153719,7.9415143 25.8997841,7.82200427 25.6118527,7.83451442 C25.3291248,7.84109871 24.4314672,7.92482946 23.3149004,7.31105843 C22.1983337,6.69728741 22.1203348,6.99566164 21.8318251,7.09113382 C21.251915,7.26232532 19.0120965,7.99566059 18.898196,8.03450789 C17.9869912,8.34660315 17.7543293,7.85811685 17.7543293,7.85811685 C17.7543293,7.85811685 17.5945951,7.76914879 18.4254334,7.24108887 Z" id="Fill-6-Copy" fill="#464462" transform="translate(22.028690, 6.775059) scale(-1, 1) rotate(-3.000000) translate(-22.028690, -6.775059) "></path>
                                                <path d="M8.48240014,23.3947102 C9.33600554,23.7940616 10.5798119,24.2829566 12.1458444,24.5836139 C13.0935687,24.7659691 13.8151463,24.8123749 13.9988087,24.8234862 C15.0694102,24.8868856 16.8276021,24.8502839 18.9903741,24.1372031 C18.7818748,24.6339413 18.3759874,25.4234936 17.6099647,26.1666401 C17.1903517,26.5731811 16.4040674,27.3365893 15.2511119,27.5627359 C13.8125319,27.845746 12.6203601,27.1320116 11.6105437,26.5280825 C10.0405895,25.5888552 9.06083872,24.336552 8.48240014,23.3947102 Z M15.7321636,21.7816182 C16.0445858,21.5567788 16.5236767,21.5240987 16.7929611,21.7999191 C16.947865,21.9587446 17.0073429,22.1848912 17.1014617,22.3862009 C17.4995059,23.2339239 18.485139,23.6038631 19.3759998,23.8934092 C17.4818586,24.2182499 15.5752989,24.5450513 13.6543599,24.5202144 C11.7327674,24.4960311 9.77457309,24.0999477 8.14775545,23.0777128 C9.04580585,23.1737924 9.95235308,23.2692184 10.8497499,23.1652956 C11.7471467,23.0626799 12.6465043,22.7417609 13.2909567,22.1090733 C13.4164485,21.9855423 13.5360578,21.8482857 13.6955369,21.773775 C13.9831222,21.6391328 14.337375,21.7476309 14.5779009,21.9561302 C14.8177731,22.1639759 14.9687554,22.4541756 15.1132016,22.7371857 C15.2419614,22.3731289 15.4190878,22.0071112 15.7321636,21.7816182 Z" id="Combined-Shape" fill="#CB8E8E" transform="translate(13.761878, 24.614799) rotate(5.000000) translate(-13.761878, -24.614799) "></path>
                                            </g>
                                            <path d="M26.3210195,32.4364634 C27.615129,32.4364634 30.1216942,30.5717545 30.1216942,30.116402 C30.1216942,29.6610496 27.853767,30.9359246 26.5596575,30.9359246 C25.2655479,30.9359246 23.9778269,31.1566224 23.9778269,31.6119748 C23.9778269,32.0673273 25.0269099,32.4364634 26.3210195,32.4364634 Z" id="Oval-Copy-89" fill="#D2A29A" opacity="0.496651786"></path>
                                            <ellipse id="Oval-Copy-90" fill="#E35C86" opacity="0.192196801" filter="url(#filter-8)" transform="translate(11.876769, 30.105365) rotate(14.000000) translate(-11.876769, -30.105365) " cx="11.8767693" cy="30.1053651" rx="4.73862108" ry="2.61441163"></ellipse>
                                        </g>
                                        <path d="M48.8730588,3.01442705 C50.5006285,3.9347798 54.1467403,7.5940578 55.0844885,9.21526016 C55.7229629,10.335361 55.6245784,13.5872509 55.2172203,16.096326 C57.0274067,17.2991004 58.635035,18.7636077 59.9789669,20.4401378 C61.7866793,22.7144031 62.3698124,24.4063686 62.3114991,24.4503158 C62.2531858,24.4942629 61.3318356,22.9670993 59.4308219,20.8905962 C58.3259218,19.663874 57.0779331,18.5582325 55.7104332,17.5945595 C60.4274393,23.2776925 59.720812,27.9101031 59.8964011,31.5093653 L57.5181456,26.8674093 L43.1962152,20.8759148 C35.708708,35.4118564 26.8919989,42.237927 26.8919989,42.237927 C28.1578156,48.1908263 29.4623649,52.5579449 30.805647,55.3392825 C31.3333084,56.4318338 32.4017873,59.6916277 33.4650859,61.2010787 C34.3115005,62.4026428 35.5211693,63.5891165 37.0940925,64.7604999 C29.5861443,67.3820392 15.7081532,57.548974 11.6434664,41.2802127 C11.2746222,39.4721439 11.035495,37.7673672 10.9094374,36.1611922 C8.38771478,35.056042 3.93836477,31.8853297 3.30484676,30.1741956 C2.59810553,28.2275498 2.09001133,22.5381236 2.46724495,20.5052981 C2.60682688,19.038998 6.65331441,16.42683 9.86457141,16.0107733 C13.0427063,15.599008 15.4482027,16.1433215 17.1416416,16.9955887 C17.8763213,16.293586 18.6316698,15.6885334 19.379848,15.1726027 C20.6831286,14.273883 28.6422189,9.7997677 38.2474383,10.0497002 C38.7832552,8.63973823 39.7744308,7.07666624 41.4592887,5.52639519 C43.6142366,3.54358512 47.7761093,2.25875955 48.8730588,3.01442705 Z" id="Combined-Shape" fill="#4F4F59" fill-rule="nonzero" transform="translate(32.327241, 33.988388) rotate(-4.000000) translate(-32.327241, -33.988388) "></path>
                                        <path d="M33.1797513,53.6979578 C32.1893502,55.2193279 30.2656984,55.8345292 28.5762868,55.1701875 C26.9426121,54.4521243 25.7476059,53.0001713 25.3571577,51.2588907 C25.0393813,50.2341287 25.1218265,49.1270079 25.5878802,48.1606162 C26.525748,47.0409848 27.9585754,46.4604426 29.4112828,46.611479 L33.1797513,53.6979578 Z" id="Path" fill="#F6C4AE" fill-rule="nonzero"></path>
                                        <path d="M30.6418031,53.1925655 C30.6418031,53.0717109 30.1583844,53.1925655 29.5431242,53.0826977 C28.70228,52.9390059 28.0022765,52.3570232 27.7074832,51.5565463 C27.41269,50.7560694 27.5680321,49.8590868 28.1148417,49.2043612 C28.5433264,48.6769953 28.9718112,48.4792331 28.927864,48.3693652 C28.8839169,48.2594973 28.3675378,48.2704841 27.7193173,48.8088368 C26.8788572,49.5672171 26.5847453,50.7608608 26.976658,51.8228958 C27.3685707,52.8849308 28.3675521,53.6013966 29.4991771,53.6320371 C30.2792391,53.6210503 30.6967371,53.2694731 30.6418031,53.1925655 Z" id="Path" fill="#EB996E" fill-rule="nonzero"></path>
                                        <path d="M57.0611649,62.2817222 C53.0515745,63.9895187 48.6383179,64.519262 44.3384633,63.8088859 C44.3384633,63.8088859 49.9197521,68.643073 58.0389891,64.3472386 L57.0611649,62.2817222 Z" id="Path" fill="#CF987F" fill-rule="nonzero" opacity="0.533668155"></path>
                                    </g>
                                </g>
                            </g>
                        </g>
                        <path d="M3.87662451,0.726514463 L203.328398,0.726514463 C204.985252,0.726514463 206.328398,2.06966021 206.328398,3.72651446 L206.328398,17.9878916 L206.328398,17.9878916 L0.876624505,17.9878916 L0.876624505,3.72651446 C0.876624505,2.06966021 2.21977026,0.726514463 3.87662451,0.726514463 Z" id="Rectangle-Copy-26" fill="#F0F2F9"></path>
                        <path d="M24.2043578,8.94723266 C24.2043578,10.0753735 23.2898168,10.9899145 22.161676,10.9899145 C21.0335352,10.9899145 20.1189942,10.0753735 20.1189942,8.94723266 C20.1189942,7.81909187 21.0335352,6.90455086 22.161676,6.90455086 C23.2898168,6.90455086 24.2043578,7.81909187 24.2043578,8.94723266" id="Fill-86-Copy" fill="#F58B7F"></path>
                        <path d="M17.5568454,8.94723266 C17.5568454,10.0753735 16.6423044,10.9899145 15.5141636,10.9899145 C14.3860228,10.9899145 13.4714818,10.0753735 13.4714818,8.94723266 C13.4714818,7.81909187 14.3860228,6.90455086 15.5141636,6.90455086 C16.6423044,6.90455086 17.5568454,7.81909187 17.5568454,8.94723266" id="Fill-88-Copy" fill="#FFA79E"></path>
                        <path d="M10.9899145,8.94723266 C10.9899145,10.0753735 10.0753735,10.9899145 8.94723266,10.9899145 C7.81909187,10.9899145 6.90455086,10.0753735 6.90455086,8.94723266 C6.90455086,7.81909187 7.81909187,6.90455086 8.94723266,6.90455086 C10.0753735,6.90455086 10.9899145,7.81909187 10.9899145,8.94723266" id="Fill-90-Copy" fill="#FFD0CC"></path>
                        <g id="Group-4-Copy-4" transform="translate(149.974928, 96.860980)">
                            <path d="M22.2914286,11.1457143 C22.2914286,17.3012929 17.3012929,22.291249 11.1457143,22.291249 C4.99013576,22.291249 4.32687103e-13,17.3012929 4.32687103e-13,11.1457143 C4.32687103e-13,4.99013576 4.99013576,-1.46178075e-13 11.1457143,-1.46178075e-13 C17.3012929,-1.46178075e-13 22.2914286,4.99013576 22.2914286,11.1457143" id="Fill-174" fill="#4C55CE"></path>
                            <path d="M16.6921119,7.34523555 L14.2532684,9.43254215 L14.2532684,8.53349142 C14.2532684,8.09465406 13.8976,7.73880601 13.4587626,7.73880601 L5.98774977,7.73880601 C5.54891241,7.73880601 5.19306436,8.09465406 5.19306436,8.53349142 L5.19306436,13.7578654 C5.19306436,14.1968824 5.54891241,14.5525508 5.98774977,14.5525508 L13.4587626,14.5525508 C13.8976,14.5525508 14.2532684,14.1968824 14.2532684,13.7578654 L14.2532684,12.8588146 L16.6921119,14.9461212 C16.8518034,15.0829997 17.0984361,14.9694732 17.0984361,14.7591259 L17.0984361,7.53223091 C17.0984361,7.32206321 16.8518034,7.20853672 16.6921119,7.34523555" id="Fill-176" fill="#FFFFFF"></path>
                            <path d="M49.1187434,11.1457143 C49.1187434,17.3012929 44.1286076,22.291249 37.9730291,22.291249 C31.8174505,22.291249 26.8274944,17.3012929 26.8274944,11.1457143 C26.8274944,4.99013576 31.8174505,-1.46178075e-13 37.9730291,-1.46178075e-13 C44.1286076,-1.46178075e-13 49.1187434,4.99013576 49.1187434,11.1457143" id="Fill-178" fill="#4C55CE"></path>
                            <path d="M37.973065,14.0748055 L37.973065,14.0748055 C36.7524756,14.0748055 35.7630707,13.0854006 35.7630707,11.8648112 L35.7630707,7.06831714 C35.7630707,5.84772778 36.7524756,4.85814326 37.973065,4.85814326 C39.1936544,4.85814326 40.1830593,5.84772778 40.1830593,7.06831714 L40.1830593,11.8648112 C40.1830593,13.0854006 39.1936544,14.0748055 37.973065,14.0748055" id="Fill-180" fill="#FFFFFF"></path>
                            <path d="M37.973065,17.4332315 C37.6849376,17.4332315 37.4505198,17.1988137 37.4505198,16.9106863 L37.4505198,16.2341978 C35.4203357,15.9803799 33.793961,14.2480232 33.646664,12.1601777 C33.6366047,12.0180899 33.686542,11.8767207 33.7835425,11.772535 C33.8803633,11.6688882 34.0170621,11.6094305 34.1589702,11.6094305 C34.4289549,11.6094305 34.6536727,11.8192389 34.6712765,12.087068 C34.7030711,12.5738667 34.8706663,13.5047121 35.6358923,14.2683214 C36.5299134,15.1607258 37.6515264,15.2350929 37.9739632,15.2367095 C38.2953221,15.2350929 39.4171147,15.1607258 40.3111358,14.2683214 C41.0760026,13.5047121 41.2437775,12.5738667 41.2755721,12.087068 C41.2931758,11.8192389 41.5178936,11.6094305 41.787519,11.6094305 C41.9314031,11.6094305 42.0645093,11.6674512 42.1624079,11.7727146 C42.2599473,11.8776189 42.3098846,12.0198862 42.2992864,12.1630518 C42.1483967,14.238862 40.5218424,15.9692428 38.4957898,16.231683 L38.4957898,16.9106863 C38.4957898,17.1988137 38.2611923,17.4332315 37.973065,17.4332315" id="Fill-182" fill="#FFFFFF"></path>
                        </g>
                    </g>
                </g>
            </g>
        </g>
    </g>
</svg>