<?xml version="1.0" encoding="UTF-8"?>
<svg width="217px" height="151px" viewBox="0 0 217 151" version="1.1" xmlns="http://www.w3.org/2000/svg" xmlns:xlink="http://www.w3.org/1999/xlink">
    <title>817F88F5-544B-4589-A3B5-0C84257B189C</title>
    <defs>
        <polygon id="path-1" points="0.000160933055 0 216.549571 0 216.549571 150.993482 0.000160933055 150.993482"></polygon>
        <polygon id="path-3" points="0.0853488372 0.448001269 43.6453488 0.448001269 43.6453488 31.393314 0.0853488372 31.393314"></polygon>
        <polygon id="path-5" points="0.162717549 0.422521458 112.216278 0.422521458 112.216278 97.6744186 0.162717549 97.6744186"></polygon>
    </defs>
    <g id="Page-1" stroke="none" stroke-width="1" fill="none" fill-rule="evenodd">
        <g id="LK_Customer_Sketches_canceling_ок" transform="translate(-797.000000, -520.000000)">
            <g id="Group-2" transform="translate(797.000000, 520.000000)">
                <g id="Group-3">
                    <mask id="mask-2" fill="white">
                        <use xlink:href="#path-1"></use>
                    </mask>
                    <g id="Clip-2"></g>
                    <path d="M205.893425,106.825475 C201.200475,114.84984 194.859561,121.769768 187.309924,127.58888 C184.463374,129.790511 181.446995,131.829192 178.27853,133.712166 C177.967477,133.900463 177.652441,134.085139 177.337406,134.266194 C172.278724,137.202909 166.85395,139.748545 161.154334,141.906722 C160.560835,142.134852 159.95937,142.355739 159.358266,142.573005 C158.898748,142.739576 158.438506,142.902525 157.975367,143.061854 C157.935535,143.076338 157.89172,143.090823 157.848266,143.105307 C155.885629,143.786075 153.894022,144.423389 151.877067,145.013629 C151.218389,145.209168 150.558986,145.397465 149.893065,145.578521 C148.687238,145.915283 147.470185,146.23394 146.246252,146.534492 C145.598075,146.697441 144.946276,146.853149 144.29484,147.005235 C139.453425,148.135019 134.499756,149.02219 129.473665,149.670367 C75.0557269,156.695307 12.663758,135.682046 1.01865252,88.176794 C-2.45036427,74.0327652 3.40495947,65.3819499 11.5886525,59.9249475 C15.6584103,57.2091201 20.3118899,55.2826933 24.6753192,53.866842 C24.8632544,53.8016621 25.055535,53.7401034 25.2438324,53.6821657 C25.2510746,53.6785446 25.2583168,53.6785446 25.265559,53.6749235 C29.0061585,52.4908228 32.503782,51.6724535 35.2091082,51.0423815 C35.2091082,51.0423815 35.3467101,50.7237245 35.6327772,50.1407269 C38.895029,43.4778971 61.3100194,2.04885635 115.242367,0.0463863309 C149.15436,-1.21375755 151.062319,23.5111345 164.402825,34.4468659 L164.406446,34.4468659 C167.943902,37.3473695 172.285605,39.2774175 178.242681,39.4946837 L178.24594,39.4946837 C178.488554,39.505547 178.738772,39.5091681 178.984645,39.5127892 L178.988266,39.5127892 C179.317787,39.5164103 179.650928,39.5164103 179.991674,39.5091681 C180.158245,39.5091681 180.331696,39.5019259 180.50225,39.4946837 C180.560187,39.4946837 180.614142,39.4946837 180.672441,39.4910626 C180.6757,39.4946837 180.679322,39.4946837 180.683305,39.4910626 C180.925919,39.4838204 181.168533,39.469336 181.418027,39.4548516 C181.42201,39.4584727 181.425631,39.4548516 181.425631,39.4548516 C181.588581,39.4476094 181.755151,39.4331249 181.918101,39.4222616 C182.356254,39.3896717 182.804909,39.3498396 183.26153,39.2991441 L183.265151,39.2991441 C183.304621,39.2991441 183.344453,39.2919019 183.384648,39.2882808 C183.742775,39.2484487 184.094384,39.2158588 184.445631,39.1832688 L184.44889,39.1832688 C185.162609,39.1253312 185.861482,39.0891201 186.553113,39.0673935 L186.556734,39.0673935 C190.496132,38.9551393 194.106372,39.4729571 197.35088,40.5448036 C217.908245,47.3126453 223.807022,76.1909427 205.893425,106.825475" id="Fill-1" fill="#EFF1FB" mask="url(#mask-2)"></path>
                </g>
                <g id="Group-15" transform="translate(25.000000, 26.000000)">
                    <g id="Group-3" transform="translate(123.255814, 62.211512)">
                        <mask id="mask-4" fill="white">
                            <use xlink:href="#path-3"></use>
                        </mask>
                        <g id="Clip-2"></g>
                        <path d="M0.0853488372,6.67302326 C0.0853488372,6.67302326 30.1562791,-1.0955814 34.3737209,0.724186047 C38.59,2.54395349 45.3086047,30.6672093 43.2702326,31.357907 C41.2318605,32.0497674 31.5411628,22.3730233 31.5411628,22.3730233 C31.5411628,22.3730233 29.1516279,27.1590698 25.3911628,25.5672093 C21.6295349,23.974186 17.5493023,17.3206977 17.5493023,17.3206977 C17.5493023,17.3206977 16.4911628,20.5811628 12.6213953,19.2067442 C8.75162791,17.8323256 3.64465116,10.38 3.64465116,10.38 L0.0853488372,6.67302326 Z" id="Fill-1" fill="#7E8CCC" mask="url(#mask-4)"></path>
                    </g>
                    <path d="M48.0180233,28.5843023 C48.0180233,28.5843023 32.2482558,1.82732558 27.9796512,0.131976744 C23.7110465,-1.5622093 -0.926162791,13.5726744 0.0273255814,15.502907 C0.979651163,17.4331395 14.675,17.4424419 14.675,17.4424419 C14.675,17.4424419 12.9796512,22.5168605 16.7645349,24.0505814 C20.5494186,25.5831395 28.1412791,23.7633721 28.1412791,23.7633721 C28.1412791,23.7633721 26.5831395,26.8168605 30.2912791,28.5819767 C33.9994186,30.3459302 42.8796512,28.6889535 42.8796512,28.6889535 L48.0180233,28.5843023 Z" id="Fill-4" fill="#7E8CCC"></path>
                    <g id="Group-8" transform="translate(27.906977, 1.746395)">
                        <mask id="mask-6" fill="white">
                            <use xlink:href="#path-5"></use>
                        </mask>
                        <g id="Clip-7"></g>
                        <path d="M111.897791,45.0365116 L86.4733721,95.9772093 C85.7187209,97.49 83.8803488,98.1086047 82.3640698,97.3504651 L1.85360465,57.167907 C0.341976744,56.4132558 -0.268488372,54.5725581 0.486162791,53.0609302 L25.9105814,2.12023256 C26.0815116,1.7772093 26.3117442,1.47837209 26.5838372,1.23302326 C27.4838372,0.398139535 28.8454651,0.160930233 30.0152326,0.744651163 L110.524535,40.9272093 C111.694302,41.5109302 112.323372,42.7411628 112.201279,43.9655814 C112.168721,44.3295349 112.068721,44.6946512 111.897791,45.0365116" id="Fill-6" fill="#FF6755" mask="url(#mask-6)"></path>
                    </g>
                    <path d="M32.5787209,55.5794186 L80.1740698,51.1596512 C82.5798837,50.9363953 84.9054651,52.0875581 86.1880233,54.1352326 L111.87407,95.1561628 L88.2682558,51.7689535 C86.9926744,49.2526744 84.2194186,47.8689535 81.4415116,48.3619767 L32.5787209,55.5794186 Z" id="Fill-9" fill="#FEDFDB"></path>
                    <path d="M139.959186,46.010814 L81.7068605,55.5863953 L54.3417442,3.27825581 C55.3277907,2.26895349 56.7522093,1.90616279 57.9219767,2.49104651 L138.431279,42.6736047 C139.601047,43.2573256 140.168488,44.6131395 139.959186,46.010814" id="Fill-11" fill="#FF9C90"></path>
                    <path d="M56.0401163,6.52523256 L79.8459302,51.8182558 C81.0168605,54.0682558 83.3343023,55.2368605 85.8366279,54.839186 L135.971512,46.8740698 L84.9656977,58.3856977 C82.0598837,59.1345349 79.2866279,57.750814 78.1389535,54.9787209 L56.0401163,6.52523256 Z" id="Fill-13" fill="#FEDFDB"></path>
                </g>
            </g>
        </g>
    </g>
</svg>