<?xml version="1.0" encoding="UTF-8"?>
<svg width="22px" height="12px" viewBox="0 0 22 12" version="1.1" xmlns="http://www.w3.org/2000/svg" xmlns:xlink="http://www.w3.org/1999/xlink">
    <title>DDB7EAB5-6B0C-49D9-B30B-70B0969A3DA9</title>
    <g id="Page-1" stroke="none" stroke-width="1" fill="none" fill-rule="evenodd">
        <g id="Authorization_Customer" transform="translate(-1431.000000, -478.000000)" fill="#7E8CCC" fill-rule="nonzero">
            <g id="Icons/keyclose" transform="translate(1431.000000, 478.000000)">
                <path d="M21.6442796,0.867973491 C21.9729773,1.05117304 22.0725739,1.43684052 21.8667349,1.7293859 C20.5841595,3.55222496 19.0012721,4.90658649 17.1291085,5.7867337 C17.1695244,5.80609892 17.2082059,5.83179235 17.2444374,5.86173869 L17.317782,5.93208233 L19.4548706,8.30555973 C19.7083338,8.58705907 19.6856059,9.02073185 19.4041066,9.27419499 C19.1481981,9.50461603 18.7665264,9.50678007 18.5088159,9.29377461 L18.4354713,9.22343097 L16.2983827,6.84995356 C16.1313952,6.66449518 16.084288,6.41298614 16.1520797,6.19047517 C14.8314502,6.67602649 13.3776632,6.94511374 11.7973681,6.99775897 C11.8440177,7.07317995 11.8756714,7.16089951 11.8883879,7.25463593 L11.8946491,7.34770423 L11.8946491,10.5415331 C11.8946491,10.9203278 11.5875753,11.2274016 11.2087805,11.2274016 C10.861552,11.2274016 10.574589,10.9693743 10.5291732,10.6346014 L10.522912,10.5415331 L10.522912,7.34770423 C10.522912,7.21897962 10.5583736,7.0985375 10.6200606,6.99561406 C8.91345086,6.94122901 7.33154816,6.63960685 5.87894557,6.09458125 C5.90396548,6.26045237 5.8665069,6.43461472 5.76652011,6.57969055 L5.70283656,6.6588869 L3.5246505,8.99470547 C3.26631312,9.27173839 2.83230974,9.28689412 2.55527682,9.02855674 C2.3034287,8.79370458 2.26800802,8.4136739 2.45774199,8.13837941 L2.52142554,8.05918306 L4.6996116,5.72336449 C4.73140697,5.68926813 4.76586331,5.65913866 4.80236048,5.63299776 C3.04354691,4.78763765 1.49435119,3.55029351 0.16133228,1.92617433 C-0.0674369402,1.64744724 0.000984839345,1.25643765 0.314156602,1.05282997 C0.627328365,0.849222278 1.06665833,0.910118584 1.29542756,1.18884567 C3.80733908,4.24930014 7.09794686,5.76101799 11.230079,5.75736128 C15.3461172,5.75370131 18.4688325,4.20345196 20.6764152,1.06596163 C20.8822542,0.773416248 21.3155819,0.684773937 21.6442796,0.867973491 Z" id="Combined-Shape"></path>
            </g>
        </g>
    </g>
</svg>