<?xml version="1.0" encoding="UTF-8"?>
<svg width="19px" height="19px" viewBox="0 0 19 19" version="1.1" xmlns="http://www.w3.org/2000/svg" xmlns:xlink="http://www.w3.org/1999/xlink">
    <title>573DEC3A-B222-4FFB-A3BD-09459FECC798</title>
    <g id="Page-1" stroke="none" stroke-width="1" fill="none" fill-rule="evenodd">
        <g id="LK_Customer_Message" transform="translate(-1105.000000, -738.000000)" fill="#FFFFFF" fill-rule="nonzero">
            <g id="Icons/clip2" transform="translate(1105.000000, 738.000000)">
                <g id="grab" transform="translate(1.275595, 0.000000)">
                    <path d="M14.7605647,1.54538281 C12.7322619,-0.515115234 9.43200055,-0.515115234 7.40369778,1.54538281 L0.274008087,8.78824219 C-0.082374115,9.15024414 -0.0823375854,9.73720313 0.274008087,10.0992422 C0.63035376,10.4612812 1.20814151,10.4612812 1.56452371,10.0992422 L8.69424994,2.8563457 C10.0109938,1.51873828 12.1534148,1.51873828 13.4700856,2.8563457 C14.7900075,4.19718164 14.7898979,6.36722656 13.4700856,7.70795117 L4.53908771,16.780748 C4.05865118,17.2688848 3.27677289,17.2688848 2.79633636,16.780748 C2.31582678,16.2926855 2.31589984,15.4984336 2.79633636,15.010334 L11.3129797,6.35843164 C11.6693619,5.99642969 11.6693253,5.4094707 11.3129797,5.04743164 C10.956634,4.68539258 10.3788463,4.68539258 10.0224641,5.04743164 L1.50578421,13.6992598 C0.313752228,14.9102871 0.313752228,16.8807578 1.50578421,18.0917109 C2.69792578,19.3027754 4.63757135,19.3026641 5.8295668,18.091748 L14.7605647,9.01898828 C16.793872,6.95348047 16.7936163,3.61066797 14.7605647,1.54538281 Z" id="Path"></path>
                </g>
            </g>
        </g>
    </g>
</svg>