<?xml version="1.0" encoding="UTF-8"?>
<svg width="209px" height="126px" viewBox="0 0 209 126" version="1.1" xmlns="http://www.w3.org/2000/svg" xmlns:xlink="http://www.w3.org/1999/xlink">
    <title>6BC30664-322E-418E-8208-C5E51C3C8D3A</title>
    <defs>
        <rect id="path-1" x="0" y="0" width="207.136526" height="124.281916" rx="4"></rect>
        <linearGradient x1="37.3449189%" y1="17.4249992%" x2="50%" y2="110.463681%" id="linearGradient-3">
            <stop stop-color="#F1BFA5" offset="0%"></stop>
            <stop stop-color="#FFD3C0" offset="100%"></stop>
        </linearGradient>
        <filter x="-63.3%" y="-114.7%" width="226.6%" height="329.5%" filterUnits="objectBoundingBox" id="filter-4">
            <feGaussianBlur stdDeviation="2" in="SourceGraphic"></feGaussianBlur>
        </filter>
    </defs>
    <g id="Page-1" stroke="none" stroke-width="1" fill="none" fill-rule="evenodd">
        <g id="LK_Customer_Message_Payment_Ok" transform="translate(-573.000000, -389.000000)">
            <g id="Group-9" transform="translate(573.415513, 389.478049)">
                <g id="Group-6" transform="translate(0.000000, -0.000000)">
                    <g id="Group-2-Copy" transform="translate(-0.000000, -0.000000)">
                        <mask id="mask-2" fill="white">
                            <use xlink:href="#path-1"></use>
                        </mask>
                        <rect stroke="#C2CAEC" x="0.5" y="0.5" width="206.136526" height="123.281916" rx="4"></rect>
                        <g id="Group-3" mask="url(#mask-2)">
                            <g transform="translate(42.965286, 106.685861) scale(-1, 1) translate(-42.965286, -106.685861) translate(-64.267952, 9.891256)">
                                <g id="freepik--Character--inject-974" transform="translate(0.000000, 64.006976)">
                                    <path d="M146.97222,50.6967914 L184.840672,23.4557112 L197.537327,37.2976603 L167.714598,64.5204078 C154.471642,76.4980812 146.770925,75.5976569 127.978306,67.5294874 C124.866117,66.0785878 122.531975,64.9904131 120.97588,64.2649633 C119.522136,63.5872293 117.34152,62.5706283 114.434032,61.2151603 L113.486189,128.375601 L58.5577244,128.449316 C58.6875323,128.069669 55.9557373,105.501999 50.3623393,60.7463056 L29.7360529,77.6027968 L50.005577,93.4513342 L42.5039026,110.810209 L6.08721157,86.9771472 C-6.47559244,78.6202819 2.78206466,69.6520365 13.4994568,59.0296655 C32.8037655,39.9003959 41.9287743,26.4863876 58.4324579,23.6657581 C66.9343555,21.1101877 71.9354718,20.6650883 71.9354718,20.6650883 C85.2184365,20.4750459 86.2086575,20.5200559 93.325246,20.8551307 C94.7103847,20.9271315 96.0889387,21.094229 97.4511669,21.3552424 C105.215709,22.5121431 111.087193,28.6333284 117.416732,33.2769749 L146.97222,50.6967914 Z" id="Path" fill="#FF725E" fill-rule="nonzero"></path>
                                    <path d="M147.882423,63.4346345 C147.763775,63.2962621 147.666048,63.1412472 147.592358,62.9745318 C147.355658,62.5405391 147.148476,62.0910872 146.97222,61.6292315 C146.705832,60.9450767 146.493468,60.2410984 146.337078,59.5237616 C146.15076,58.6443807 146.037019,57.7511765 145.997002,56.8531655 C145.970633,55.9536669 146.020825,55.0535553 146.147036,54.1625649 C146.258001,53.4355474 146.425207,52.7182352 146.647147,52.0170861 C146.782464,51.5445807 146.949548,51.0817571 147.147259,50.6317769 C147.2099,50.4545753 147.29566,50.2864187 147.402316,50.1316653 C147.452327,50.1316653 147.142258,50.8568271 146.817185,52.0470928 C146.634908,52.7462976 146.496276,53.4561582 146.402093,54.1725672 C146.292456,55.0499043 146.250656,55.9343912 146.277065,56.8181577 C146.315327,57.7014732 146.418967,58.5807413 146.587134,59.4487448 C146.733137,60.1551964 146.923557,60.8517346 147.157261,61.5342103 C147.567353,62.7294771 147.927433,63.4096289 147.882423,63.4346345 Z" id="Path" fill="#263238" fill-rule="nonzero"></path>
                                    <path d="M112.749997,82.6900052 C116.678402,77.9568691 119.074219,67.6181894 117.897739,61.5807361 C116.72126,55.5432829 112.896537,50.3529012 107.478405,47.4410647 L112.749997,82.6900052 Z" id="Path" fill="#FF725E" fill-rule="nonzero"></path>
                                    <path d="M107.4584,48.4262846 C107.555118,48.4674203 107.645934,48.5212374 107.728461,48.5863203 C107.893498,48.701346 108.158557,48.8613817 108.463625,49.086432 C109.352826,49.7468224 110.188905,50.4758833 110.964183,51.2669186 C113.494066,53.9116191 115.539009,56.980726 117.005531,60.3339424 C117.866996,62.1771845 118.317494,64.1856573 118.325826,66.2202562 C118.31477,67.8692517 118.051673,69.5068652 117.545652,71.0763401 C117.215451,72.1323647 116.814453,73.1649344 116.345384,74.1670299 L115.940294,74.9722097 C115.897363,75.0685595 115.845456,75.1606531 115.785259,75.247271 C115.809701,75.1447777 115.846653,75.0456788 115.895284,74.9522052 C115.985304,74.7371572 116.10533,74.4520936 116.250363,74.127021 C116.680039,73.1146572 117.054014,72.0795467 117.370613,71.0263289 C117.840932,69.4674911 118.081844,67.8484946 118.085772,66.2202562 C118.057471,64.2270311 117.603929,62.2628199 116.755476,60.4589703 C115.294736,57.1332022 113.290194,54.0739943 110.824152,51.4069499 C110.064396,50.6118592 109.25241,49.868374 108.393609,49.1814532 C108.093542,48.9313974 107.843486,48.7613594 107.688452,48.6263293 C107.605175,48.5676318 107.528093,48.5006043 107.4584,48.4262846 Z" id="Path" fill="#263238" fill-rule="nonzero"></path>
                                    <path d="M59.3126543,48.486298 C59.3132621,48.3866326 59.3267091,48.2874608 59.3526633,48.1912321 C59.3976733,47.971183 59.4476845,47.6911205 59.5177001,47.3510446 C59.7103451,46.3288353 59.848902,45.2971703 59.9327928,44.2603548 C60.0555521,42.7228655 60.0085918,41.1765323 59.7927615,39.6493256 C59.5263315,37.7817438 58.9212853,35.978469 58.007363,34.3281379 C57.1008198,32.6750723 55.8238675,31.2543345 54.2765303,30.1772114 C53.0015056,29.3166661 51.5572537,28.7386243 50.0405848,28.481833 C49.0171928,28.3139682 47.973287,28.3139682 46.949895,28.481833 C46.219732,28.6018598 45.8346461,28.7418911 45.8246438,28.7118844 C45.9147317,28.6687178 46.0084484,28.633574 46.1047063,28.6068609 C46.3743668,28.5132855 46.6500601,28.4380965 46.9298905,28.3818107 C47.9646745,28.1762657 49.0271741,28.1508875 50.0705915,28.3067939 C51.6238502,28.5397311 53.1062956,29.113581 54.4115604,29.987169 C56.0013129,31.0718972 57.3108353,32.5185424 58.2324132,34.2081111 C59.1602414,35.8853512 59.7689997,37.7201047 60.027814,39.6193189 C60.2355431,41.1645416 60.2640719,42.7285889 60.1128329,44.2803592 C60.014308,45.3237724 59.8472433,46.3595732 59.6127213,47.3810513 C59.5327035,47.7411317 59.4626878,48.0161931 59.4076756,48.2062355 C59.3853025,48.3024912 59.3534741,48.396301 59.3126543,48.486298 Z" id="Path" fill="#263238" fill-rule="nonzero"></path>
                                    <path d="M39.6132574,45.7256818 C39.4918639,44.3572835 39.455119,42.9826927 39.5032329,41.6097632 C39.4670952,40.235888 39.5188791,38.8611081 39.6582675,37.4938445 C39.7795079,38.8622601 39.8145849,40.2369451 39.7632909,41.6097632 C39.7994411,42.9835238 39.7493315,44.3581991 39.6132574,45.7256818 Z" id="Path" fill="#FAFAFA" fill-rule="nonzero"></path>
                                    <path d="M52.6911764,50.1416675 C52.5756085,49.819474 52.5049299,49.4829089 52.4811296,49.1414442 C52.3961106,48.5113036 52.3110916,47.6411094 52.2710827,46.6408861 C52.2381083,45.8074049 52.2481238,44.9727779 52.3010894,44.140328 C52.2972393,43.7942407 52.340992,43.4492674 52.4311184,43.1150992 C52.5061351,43.1150992 52.4611251,44.6854497 52.5311407,46.6158805 C52.6011563,48.5463114 52.7661932,50.1316653 52.6911764,50.1416675 Z" id="Path" fill="#FAFAFA" fill-rule="nonzero"></path>
                                    <path d="M70.2550967,45.2755814 C70.1454387,43.6809648 70.1237343,42.081517 70.1900822,40.484512 C70.1690577,38.8866962 70.2358399,37.288932 70.3901268,35.6984438 C70.4964683,37.293218 70.516502,38.8925756 70.4501402,40.4895131 C70.4709824,42.0872123 70.4058738,43.6848761 70.2550967,45.2755814 L70.2550967,45.2755814 Z" id="Path" fill="#FAFAFA" fill-rule="nonzero"></path>
                                    <path d="M93.1452058,31.8925943 C93.6840126,30.5916054 94.3002531,29.3240537 94.9906177,28.0967471 C95.6065804,26.8317756 96.2997081,25.6058581 97.0660809,24.4259277 C96.5316297,25.7272527 95.9152575,26.9934049 95.220669,28.2167739 C94.6062668,29.4841753 93.9130888,30.711852 93.1452058,31.8925943 Z" id="Path" fill="#FAFAFA" fill-rule="nonzero"></path>
                                    <path d="M91.4848352,46.7959207 C90.4552424,45.5940057 89.4919319,44.3368605 88.5991911,43.0300802 C87.6370604,41.7724806 86.7438816,40.463598 85.9235939,39.109205 C86.9561211,40.308739 87.9195595,41.5660512 88.809238,42.8750456 C89.7693195,44.1341253 90.6624222,45.4428963 91.4848352,46.7959207 Z" id="Path" fill="#FAFAFA" fill-rule="nonzero"></path>
                                    <path d="M108.668671,36.613648 C107.934056,37.6121902 107.128458,38.5565114 106.258133,39.4392787 C105.451508,40.381599 104.580919,41.2672264 103.652551,42.0898703 C104.391736,41.09352 105.198835,40.1493979 106.06809,39.2642396 C106.875423,38.3242105 107.744188,37.4387383 108.668671,36.613648 Z" id="Path" fill="#FAFAFA" fill-rule="nonzero"></path>
                                    <path d="M120.081218,45.430616 C120.329764,44.1067471 120.663872,42.8003835 121.081441,41.5197431 C121.421892,40.2146827 121.842791,38.9319447 122.341722,37.6788858 C122.091934,39.0024792 121.757846,40.3087636 121.341499,41.5897587 C121.004239,42.8957556 120.583275,44.1786929 120.081218,45.430616 L120.081218,45.430616 Z" id="Path" fill="#FAFAFA" fill-rule="nonzero"></path>
                                    <path d="M134.049336,54.8327145 C133.984321,54.7927056 134.69448,53.6174433 135.359628,52.0670972 C136.024776,50.5167512 136.404861,49.1914554 136.479878,49.2114599 C136.128804,51.2520008 135.295512,53.1792019 134.049336,54.8327145 L134.049336,54.8327145 Z" id="Path" fill="#FAFAFA" fill-rule="nonzero"></path>
                                    <path d="M69.4299125,27.3515807 C68.9297141,27.5017781 68.4507364,27.7152173 68.0045944,27.9867225 C67.6057833,28.3230176 67.2541972,28.7116128 66.9593611,29.1419804 C66.9293544,29.1419804 66.9593611,28.9419357 67.084389,28.6668743 C67.2659596,28.3112646 67.5300474,28.0043054 67.8545609,27.7716745 C68.1760801,27.5387448 68.5478057,27.3845729 68.9398031,27.321574 C69.2448712,27.2815651 69.4299125,27.3265752 69.4299125,27.3515807 Z" id="Path" fill="#263238" fill-rule="nonzero"></path>
                                    <path d="M75.5212721,35.1683254 C75.4912654,35.1683254 75.4062464,34.9582786 75.3762397,34.5831948 C75.34991,34.0892194 75.4336098,33.5955615 75.6212944,33.1378722 C75.8039464,32.6775814 76.089655,32.2652714 76.4564808,31.9326032 C76.7365434,31.6825474 76.9565925,31.5875262 76.9565925,31.6125318 C76.5046615,32.0917614 76.1300936,32.638428 75.8463447,33.2328934 C75.6417937,33.8581472 75.5322163,34.5105538 75.5212721,35.1683254 Z" id="Path" fill="#263238" fill-rule="nonzero"></path>
                                    <path d="M69.019821,34.8282495 C68.9872478,34.503057 69.0212809,34.1746374 69.1198433,33.8630341 C69.5005547,32.3156049 70.4669288,30.9763072 71.815445,30.1272003 C72.0788824,29.9358811 72.3782777,29.7997923 72.6956414,29.727111 C70.8035189,30.8304991 69.4677627,32.6842017 69.019821,34.8282495 Z" id="Path" fill="#263238" fill-rule="nonzero"></path>
                                    <path d="M64.718861,25.5511789 C64.6938554,25.5511789 64.7838755,25.3311298 65.0339313,25.0510673 C65.7182582,24.3890498 66.6971467,24.1296539 67.6195084,24.3659143 C67.9645855,24.4659367 68.1196201,24.5959657 68.1196201,24.6259724 C67.5173953,24.5026919 66.8964374,24.5026919 66.2942126,24.6259724 C65.7132042,24.8274345 65.1778041,25.1418758 64.718861,25.5511789 L64.718861,25.5511789 Z" id="Path" fill="#263238" fill-rule="nonzero"></path>
                                    <path d="M82.4778248,34.7332283 C82.3337436,34.3211171 82.2315384,33.8955413 82.1727567,33.4629448 C82.0312552,33.0514564 81.9274713,32.6279512 81.8626875,32.1976624 C82.1656929,32.5343858 82.3607988,32.9542118 82.4228125,33.4029314 C82.5667589,33.8322064 82.5858364,34.293534 82.4778248,34.7332283 Z" id="Path" fill="#263238" fill-rule="nonzero"></path>
                                    <path d="M89.6594277,34.8282495 C89.3178933,33.2479684 88.535899,31.7966842 87.4039243,30.6423152 C88.1229667,31.0683592 88.6991529,31.6985085 89.0592938,32.4527193 C89.4955583,33.1654034 89.7048563,33.9938746 89.6594277,34.8282495 L89.6594277,34.8282495 Z" id="Path" fill="#263238" fill-rule="nonzero"></path>
                                    <path d="M92.6851031,29.2370016 C92.6150874,29.2670083 92.425045,28.866919 91.9799457,28.611862 C91.5348463,28.3568051 91.1047503,28.3668073 91.0947481,28.2917906 C91.0847459,28.2167739 91.1947704,28.2067716 91.389814,28.1967694 C91.6436617,28.190908 91.8937798,28.2586484 92.1099747,28.3918129 C92.3263327,28.5185481 92.5003439,28.7064802 92.6100863,28.9319335 C92.7101087,29.1019714 92.7151098,29.2269993 92.6851031,29.2370016 Z" id="Path" fill="#263238" fill-rule="nonzero"></path>
                                    <path d="M98.4313856,26.8264635 C98.1720472,26.6596795 97.9216466,26.479391 97.6812182,26.286343 C97.07538,25.885056 96.3951103,25.6095468 95.6807717,25.4761621 C94.9595136,25.3478134 94.2198844,25.3648164 93.5052861,25.5261733 C92.9601645,25.6562023 92.640093,25.8112369 92.6200886,25.771228 C92.8628377,25.5664945 93.1508398,25.4224935 93.4602761,25.3511342 C94.9490167,24.8940982 96.5669253,25.1867383 97.801245,26.1363095 C98.0583881,26.3184715 98.2733033,26.5538548 98.4313856,26.8264635 Z" id="Path" fill="#263238" fill-rule="nonzero"></path>
                                    <path d="M96.856034,22.3604667 C96.3714525,22.2839788 95.8812435,22.2488444 95.390707,22.2554433 C94.9083761,22.3439812 94.433545,22.4693767 93.9703899,22.630527 C94.7541414,21.8841589 95.9474041,21.7724844 96.856034,22.3604667 Z" id="Path" fill="#263238" fill-rule="nonzero"></path>
                                </g>
                                <g id="Group-3" transform="translate(76.120341, 54.951933) rotate(15.000000) translate(-76.120341, -54.951933) translate(37.212706, 9.401531)">
                                    <path d="M8.87321371,16.2818853 C13.50543,15.6817264 16.4962656,17.112646 18.0333,18.5678244 C19.4754048,19.9366245 18.9150347,18.6221119 18.6366662,20.5704534 C18.3582977,22.5187949 17.1469289,24.2196516 15.3766533,25.1477669 L15.3766533,25.1477669 L16.0052945,25.5543223 C15.3606092,27.7685309 14.3220841,29.8538388 12.9375254,31.7142534 C11.5144782,33.58346 13.2770204,37.0150541 10.9090755,36.7815465 C8.8247381,36.3164184 3.04252159,32.4144267 2.31348906,30.4453076 C1.60674784,28.4986618 1.09865364,22.8092356 1.47588726,20.7764101 C1.61546919,19.31011 5.66195672,16.697942 8.87321371,16.2818853 Z M47.8817011,3.28553905 C49.5092708,4.2058918 53.1553826,7.8651698 54.0931308,9.48637216 C55.0334898,11.1360811 54.3754516,17.4100751 53.4860456,19.1244241 C52.2713175,20.9006063 50.9185815,17.6847696 48.7964268,17.5840384 C46.7027364,17.4617543 44.6543971,16.9690168 42.7456999,16.1285082 L42.8294816,15.4566716 C41.1574424,16.1435501 39.2749651,15.9940367 37.7633941,15.054304 C36.2518232,14.1145712 36.8367339,15.2669105 36.7267701,13.4721736 C36.6121488,11.5614601 37.3594334,8.6576972 40.4679311,5.79750719 C42.6228789,3.81469712 46.7847516,2.52987155 47.8817011,3.28553905 Z" id="Combined-Shape-Copy" fill="#403F4C" fill-rule="nonzero" transform="translate(27.949746, 19.929559) rotate(-4.000000) translate(-27.949746, -19.929559) "></path>
                                    <g id="Group-5-Copy-3" transform="translate(47.753618, 51.604221) rotate(-18.000000) translate(-47.753618, -51.604221) translate(28.299801, 16.492453)">
                                        <ellipse id="Oval-Copy-88" stroke="#979797" fill="#D8D8D8" cx="13.4188605" cy="29.6476237" rx="3.92161745" ry="2.28761018"></ellipse>
                                        <path d="M20.150982,13.416602 C17.6943622,13.3605851 10.4277699,12.5415527 12.7811231,13.2485515 L8.50058481,15.4699556 C18.955026,18.6106986 18.4798855,18.1854463 20.7092234,13.5210658 L20.150982,13.416602 Z" id="Path-21-Copy" stroke="#979797"></path>
                                        <path d="M21.319903,15.5166133 C19.0472052,11.9841067 19.7823696,11.7308789 13.1469528,13.3034673 C11.6607201,13.6557032 7.85939043,15.2183217 9.28426974,15.7684826 C19.591877,19.7483576 19.3242999,19.0678294 20.6881654,14.6883352" id="Path-20-Copy" stroke="#979797"></path>
                                        <path d="M18.4760803,0.357382671 C25.7970865,-0.898188514 36.1442667,6.85208062 37.0874157,14.2194926 C38.1351412,22.402601 37.8085326,27.0578122 36.1095586,32.2241634 C34.1739589,38.1100617 32.9852625,40.0518827 31.8114907,42.0035727 L31.5473351,42.4445375 C31.1946399,43.0371609 30.8383471,43.6573617 30.4586931,44.4118963 C29.5663439,46.1853757 26.4209567,47.5878189 25.3972818,48.0060367 L25.2221326,48.0763756 C25.1259543,48.1142772 25.0726803,48.1339548 25.0726803,48.1339548 C25.0726803,48.1339548 25.4774962,52.4454012 25.7183065,56.9290852 C28.9638107,57.3478851 31.19536,57.7277167 31.1646482,57.8169352 C29.895907,61.502662 26.9719457,70.1744703 17.163093,69.4294887 C15.8220764,69.3276386 14.5245149,69.0289247 13.2888674,68.5873179 C5.48638399,65.7987963 0.152585148,57.3127352 1.93497783,56.7176963 C2.49025588,56.5323207 4.03453736,56.2623855 6.19722042,56.0646945 C6.87863594,53.2376479 7.56266426,50.5086903 7.76412922,45.965311 C7.84871436,44.0577713 3.40729071,40.9903421 3.36496929,39.418956 C3.16444899,31.9736777 2.05811212,22.8826538 0.0459586659,12.1458844 C-0.14423978,9.89814405 6.53280216,3.34388052 8.75635925,2.96283003 C10.3555025,2.06291258 13.5954095,1.19443013 18.4760803,0.357382671 Z" id="Combined-Shape-Copy-4" fill="url(#linearGradient-3)"></path>
                                        <g id="Group-22-Copy" transform="translate(10.558756, 13.905682)">
                                            <path d="M10.5776102,3.31264376 C10.1991441,3.77365085 9.13222455,3.30041546 8.77148956,3.15673288 C7.62508599,2.69878287 5.84584724,2.05961764 4.27532007,2.20405849 C1.79731871,2.77491666 0.746315682,3.1849558 0.718190581,3.04005038 C0.652157735,2.70132634 0.819775184,1.65998379 6.19594936,0.909165875 C6.83548969,0.819899251 10.2607968,0.8975023 10.8978915,1.51931159 C11.4053662,2.01516935 10.7793772,3.06624342 10.5776102,3.31264376 Z" id="Fill-1" fill="#413F62" transform="translate(5.900615, 2.194091) rotate(-6.000000) translate(-5.900615, -2.194091) "></path>
                                            <path d="M19.0873966,3.39748275 C19.4306416,3.88075314 20.4993613,3.42234485 20.8669477,3.30490833 C22.0352171,2.93037887 23.8203498,2.74994963 25.3673271,3.0020209 C27.7843958,3.73974395 28.6362986,3.16786549 23.7352716,1.24988235 C23.2809474,1.07208571 19.4035909,1.29701366 18.7288811,1.86929745 C18.1914056,2.32570109 18.9044501,3.13921886 19.0873966,3.39748275 Z" id="Fill-1-Copy" fill="#413F62" transform="translate(22.917684, 2.402387) rotate(15.000000) translate(-22.917684, -2.402387) "></path>
                                            <path d="M17.0152847,6.4916185 C17.0152847,6.4916185 17.0016791,6.65541146 16.9608623,6.93598272 C16.9176444,7.22262038 16.8776279,7.60025413 16.8480157,8.06509246 C16.8256065,8.29485757 16.8272071,8.5450968 16.8168029,8.80595224 C16.8015966,9.06604938 16.8328095,9.34207084 16.8272071,9.6226421 C16.85842,10.1883344 16.93125,10.7813256 17.0312913,11.3720418 C17.1473391,11.9589666 17.2929992,12.5405832 17.4642698,13.0820099 C17.5699134,13.3443819 17.6403424,13.6135787 17.7467863,13.85396 C17.8492286,14.0958579 17.9372649,14.3316895 18.0397071,14.5409804 C18.2317863,14.9663871 18.4150619,15.3212719 18.5495173,15.5692362 C18.6855734,15.8164422 18.7584034,15.9688607 18.7584034,15.9688607 C18.7584034,15.9688607 18.616745,15.8778646 18.3782467,15.7011805 C18.2557962,15.6147342 18.1173391,15.5002308 17.9716791,15.3561537 C17.8180157,15.218143 17.6499464,15.0551083 17.4946824,14.8571918 C17.1521411,14.4803164 16.8344101,13.9805962 16.5494926,13.4179371 C16.4270421,13.1290245 16.2757798,12.8370788 16.1861428,12.5193508 C16.0716956,12.2084475 16.0100702,11.8785867 15.9332385,11.5525174 C15.8892204,11.22114 15.8307963,10.8920375 15.827595,10.5621767 C15.7995834,10.2353491 15.8355983,9.91079636 15.8484036,9.60065138 C15.9164316,8.9796031 16.0372814,8.40708608 16.2237583,7.94300605 C16.2997897,7.70793283 16.4006313,7.49864184 16.4958705,7.31664967 C16.5823062,7.1316243 16.6719431,6.98148076 16.7535768,6.86394415 C16.9144431,6.62507943 17.0152847,6.4916185 17.0152847,6.4916185" id="Fill-4" fill="#C39886"></path>
                                            <path d="M6.73665839,7.18937764 C6.77901427,7.70154937 7.09979812,7.83860933 7.14438326,8.12618345 C7.52893005,7.99131342 7.77604935,8.13569713 8.38742301,8.07494988 C8.94417989,8.02033309 9.42960054,8.04541223 9.81024613,8.0916693 C10.1195555,7.50258821 10.1318164,6.85275987 9.81024613,6.42474257 C9.50595259,6.02013247 9.01495879,5.96272911 8.52507962,5.90588306 C8.33336354,5.88303318 7.09278216,5.73813149 6.7606229,6.34058813 C6.71157925,6.42920109 6.68259892,6.53453347 6.73665839,7.18937764 Z" id="Fill-8" fill="#545A83" transform="translate(8.377198, 7.000242) rotate(13.000000) translate(-8.377198, -7.000242) "></path>
                                            <path d="M21.1035191,7.60309184 C21.144416,8.10917345 21.2869099,8.08001523 21.3299593,8.36416987 C21.8641017,8.52498315 23.7037008,8.4489475 24.0712348,8.49465455 C24.3698898,7.91257809 24.6789715,7.30754779 24.368478,6.88461996 C24.0746661,6.48482099 23.3033417,6.39102914 22.8303368,6.33485903 C22.6452245,6.31228085 21.6394624,5.94158892 21.3187446,6.53688187 C21.2713903,6.62444115 21.0513218,6.95603429 21.1035191,7.60309184 Z" id="Fill-8-Copy" fill="#545A83" transform="translate(22.796625, 7.347427) rotate(15.000000) translate(-22.796625, -7.347427) "></path>
                                            <path d="M9.83787335,4.81843736 C8.52767688,4.10415453 5.30505677,3.80962638 3.21008093,6.03846962 C2.82635615,6.44671412 1.97115424,7.95292664 2.4726854,7.88098158 C4.27881632,7.62189061 5.6431411,5.77255889 7.46215936,5.629697 C8.32475875,5.56195025 9.43725393,6.75170312 10.2426065,7.15144942 C12.1900403,8.11808129 12.3333888,7.28914005 11.5521928,6.72820837 L9.83787335,4.81843736 Z" id="Path-19" fill="#CAA199" transform="translate(7.157278, 6.089926) rotate(6.000000) translate(-7.157278, -6.089926) "></path>
                                            <path d="M24.5136691,5.12226585 C23.2873221,4.40798302 21.0227841,3.98660758 19.0618817,6.21545082 C17.1009794,8.44429405 17.728167,7.75928664 18.1976014,7.68734159 C18.6893152,7.611982 19.0971649,7.44417341 19.470233,7.2405556 C20.3797961,6.74412267 21.0826121,6.03483436 22.2899951,5.93352549 C23.0973902,5.86577874 24.5192369,7.09131768 25.2730488,7.49106398 C27.0958515,8.45769584 26.8848179,7.93529471 26.1182761,7.03203686 L24.5136691,5.12226585 Z" id="Path-19-Copy" fill="#CAA199" transform="translate(22.198871, 6.279570) scale(-1, 1) rotate(-3.000000) translate(-22.198871, -6.279570) "></path>
                                            <path d="M3.29625583,6.92595091 C3.51307114,6.79426514 3.849727,6.5811227 4.09804539,6.4303425 C4.34451066,6.27627015 4.76780373,6.02288973 5.05009603,5.86354995 C5.60541503,5.52577596 6.01059019,5.47005831 6.6913038,5.25936108 C7.03289601,5.16454733 7.36084606,5.07260304 7.73826531,5.02914673 C7.92666609,5.00939387 8.44686478,5.00187901 8.67912278,5.0565286 C8.79895803,5.08549947 8.90643912,5.12632206 9.01947959,5.19216494 C9.07136701,5.22179424 9.22928223,5.36672948 9.31637898,5.44508251 C9.66105974,5.75454407 9.7421973,6.04680557 9.87253357,6.28383995 C10.0016344,6.53206762 10.1288822,6.72498727 10.2962809,6.89617876 C10.6150179,7.21815046 11.0035559,7.3926341 11.2772003,7.48942314 C11.5545509,7.58687061 11.7256559,7.62637634 11.7256559,7.62637634 C11.7256559,7.62637634 11.5582572,7.67180793 11.2506389,7.68431807 C10.9485799,7.69090236 10.5427523,7.38740233 9.63854315,7.26949571 C8.73433397,7.15158909 6.99698002,6.79318922 6.688744,6.8886614 C6.06918343,7.0598529 3.71132693,7.49201011 3.58963856,7.53085741 C2.61613162,7.84295268 2.17219253,7.98390319 2.17219253,7.98390319 C2.17219253,7.98390319 2.40861022,7.45401083 3.29625583,6.92595091 Z" id="Fill-6" fill="#464462" transform="translate(6.948924, 6.499163) rotate(6.000000) translate(-6.948924, -6.499163) "></path>
                                            <path d="M18.4254334,7.24108887 C18.6283731,7.1094031 18.9434838,6.89626066 19.1759104,6.74548046 C19.4066024,6.59140811 19.8028058,6.33802769 20.067032,6.17868791 C20.5868119,5.84091392 21.2634955,5.27596365 22.4428813,5.4409448 C23.622267,5.60592595 25.0183928,7.14608645 25.1750784,7.31727794 C25.473417,7.63924964 25.6394845,7.70777206 25.8956164,7.8045611 C26.1552172,7.90200857 26.3153719,7.9415143 26.3153719,7.9415143 C26.3153719,7.9415143 25.8997841,7.82200427 25.6118527,7.83451442 C25.3291248,7.84109871 24.4314672,7.92482946 23.3149004,7.31105843 C22.1983337,6.69728741 22.1203348,6.99566164 21.8318251,7.09113382 C21.251915,7.26232532 19.0120965,7.99566059 18.898196,8.03450789 C17.9869912,8.34660315 17.7543293,7.85811685 17.7543293,7.85811685 C17.7543293,7.85811685 17.5945951,7.76914879 18.4254334,7.24108887 Z" id="Fill-6-Copy" fill="#464462" transform="translate(22.028690, 6.775059) scale(-1, 1) rotate(-3.000000) translate(-22.028690, -6.775059) "></path>
                                            <path d="M8.48240014,23.3947102 C9.33600554,23.7940616 10.5798119,24.2829566 12.1458444,24.5836139 C13.0935687,24.7659691 13.8151463,24.8123749 13.9988087,24.8234862 C15.0694102,24.8868856 16.8276021,24.8502839 18.9903741,24.1372031 C18.7818748,24.6339413 18.3759874,25.4234936 17.6099647,26.1666401 C17.1903517,26.5731811 16.4040674,27.3365893 15.2511119,27.5627359 C13.8125319,27.845746 12.6203601,27.1320116 11.6105437,26.5280825 C10.0405895,25.5888552 9.06083872,24.336552 8.48240014,23.3947102 Z M15.7321636,21.7816182 C16.0445858,21.5567788 16.5236767,21.5240987 16.7929611,21.7999191 C16.947865,21.9587446 17.0073429,22.1848912 17.1014617,22.3862009 C17.4995059,23.2339239 18.485139,23.6038631 19.3759998,23.8934092 C17.4818586,24.2182499 15.5752989,24.5450513 13.6543599,24.5202144 C11.7327674,24.4960311 9.77457309,24.0999477 8.14775545,23.0777128 C9.04580585,23.1737924 9.95235308,23.2692184 10.8497499,23.1652956 C11.7471467,23.0626799 12.6465043,22.7417609 13.2909567,22.1090733 C13.4164485,21.9855423 13.5360578,21.8482857 13.6955369,21.773775 C13.9831222,21.6391328 14.337375,21.7476309 14.5779009,21.9561302 C14.8177731,22.1639759 14.9687554,22.4541756 15.1132016,22.7371857 C15.2419614,22.3731289 15.4190878,22.0071112 15.7321636,21.7816182 Z" id="Combined-Shape" fill="#CB8E8E" transform="translate(13.761878, 24.614799) rotate(5.000000) translate(-13.761878, -24.614799) "></path>
                                        </g>
                                        <path d="M26.3210195,32.4364634 C27.615129,32.4364634 30.1216942,30.5717545 30.1216942,30.116402 C30.1216942,29.6610496 27.853767,30.9359246 26.5596575,30.9359246 C25.2655479,30.9359246 23.9778269,31.1566224 23.9778269,31.6119748 C23.9778269,32.0673273 25.0269099,32.4364634 26.3210195,32.4364634 Z" id="Oval-Copy-89" fill="#D2A29A" opacity="0.496651786"></path>
                                        <ellipse id="Oval-Copy-90" fill="#E35C86" opacity="0.192196801" filter="url(#filter-4)" transform="translate(11.876769, 30.105365) rotate(14.000000) translate(-11.876769, -30.105365) " cx="11.8767693" cy="30.1053651" rx="4.73862108" ry="2.61441163"></ellipse>
                                    </g>
                                    <path d="M48.8730588,3.01442705 C50.5006285,3.9347798 54.1467403,7.5940578 55.0844885,9.21526016 C55.7229629,10.335361 55.6245784,13.5872509 55.2172203,16.096326 C57.0274067,17.2991004 58.635035,18.7636077 59.9789669,20.4401378 C61.7866793,22.7144031 62.3698124,24.4063686 62.3114991,24.4503158 C62.2531858,24.4942629 61.3318356,22.9670993 59.4308219,20.8905962 C58.3259218,19.663874 57.0779331,18.5582325 55.7104332,17.5945595 C60.4274393,23.2776925 59.720812,27.9101031 59.8964011,31.5093653 L57.5181456,26.8674093 L43.1962152,20.8759148 C35.708708,35.4118564 26.8919989,42.237927 26.8919989,42.237927 C28.1578156,48.1908263 29.4623649,52.5579449 30.805647,55.3392825 C31.3333084,56.4318338 32.4017873,59.6916277 33.4650859,61.2010787 C34.3115005,62.4026428 35.5211693,63.5891165 37.0940925,64.7604999 C29.5861443,67.3820392 15.7081532,57.548974 11.6434664,41.2802127 C11.2746222,39.4721439 11.035495,37.7673672 10.9094374,36.1611922 C8.38771478,35.056042 3.93836477,31.8853297 3.30484676,30.1741956 C2.59810553,28.2275498 2.09001133,22.5381236 2.46724495,20.5052981 C2.60682688,19.038998 6.65331441,16.42683 9.86457141,16.0107733 C13.0427063,15.599008 15.4482027,16.1433215 17.1416416,16.9955887 C17.8763213,16.293586 18.6316698,15.6885334 19.379848,15.1726027 C20.6831286,14.273883 28.6422189,9.7997677 38.2474383,10.0497002 C38.7832552,8.63973823 39.7744308,7.07666624 41.4592887,5.52639519 C43.6142366,3.54358512 47.7761093,2.25875955 48.8730588,3.01442705 Z" id="Combined-Shape" fill="#4F4F59" fill-rule="nonzero" transform="translate(32.327241, 33.988388) rotate(-4.000000) translate(-32.327241, -33.988388) "></path>
                                    <path d="M33.1797513,53.6979578 C32.1893502,55.2193279 30.2656984,55.8345292 28.5762868,55.1701875 C26.9426121,54.4521243 25.7476059,53.0001713 25.3571577,51.2588907 C25.0393813,50.2341287 25.1218265,49.1270079 25.5878802,48.1606162 C26.525748,47.0409848 27.9585754,46.4604426 29.4112828,46.611479 L33.1797513,53.6979578 Z" id="Path" fill="#F6C4AE" fill-rule="nonzero"></path>
                                    <path d="M30.6418031,53.1925655 C30.6418031,53.0717109 30.1583844,53.1925655 29.5431242,53.0826977 C28.70228,52.9390059 28.0022765,52.3570232 27.7074832,51.5565463 C27.41269,50.7560694 27.5680321,49.8590868 28.1148417,49.2043612 C28.5433264,48.6769953 28.9718112,48.4792331 28.927864,48.3693652 C28.8839169,48.2594973 28.3675378,48.2704841 27.7193173,48.8088368 C26.8788572,49.5672171 26.5847453,50.7608608 26.976658,51.8228958 C27.3685707,52.8849308 28.3675521,53.6013966 29.4991771,53.6320371 C30.2792391,53.6210503 30.6967371,53.2694731 30.6418031,53.1925655 Z" id="Path" fill="#EB996E" fill-rule="nonzero"></path>
                                    <path d="M57.0611649,62.2817222 C53.0515745,63.9895187 48.6383179,64.519262 44.3384633,63.8088859 C44.3384633,63.8088859 49.9197521,68.643073 58.0389891,64.3472386 L57.0611649,62.2817222 Z" id="Path" fill="#CF987F" fill-rule="nonzero" opacity="0.533668155"></path>
                                </g>
                            </g>
                        </g>
                    </g>
                    <path d="M3.87662451,0.726514463 L203.328398,0.726514463 C204.985252,0.726514463 206.328398,2.06966021 206.328398,3.72651446 L206.328398,17.9878916 L206.328398,17.9878916 L0.876624505,17.9878916 L0.876624505,3.72651446 C0.876624505,2.06966021 2.21977026,0.726514463 3.87662451,0.726514463 Z" id="Rectangle-Copy-26" fill="#F0F2F9"></path>
                    <path d="M24.2043578,8.94723266 C24.2043578,10.0753735 23.2898168,10.9899145 22.161676,10.9899145 C21.0335352,10.9899145 20.1189942,10.0753735 20.1189942,8.94723266 C20.1189942,7.81909187 21.0335352,6.90455086 22.161676,6.90455086 C23.2898168,6.90455086 24.2043578,7.81909187 24.2043578,8.94723266" id="Fill-86-Copy" fill="#F58B7F"></path>
                    <path d="M17.5568454,8.94723266 C17.5568454,10.0753735 16.6423044,10.9899145 15.5141636,10.9899145 C14.3860228,10.9899145 13.4714818,10.0753735 13.4714818,8.94723266 C13.4714818,7.81909187 14.3860228,6.90455086 15.5141636,6.90455086 C16.6423044,6.90455086 17.5568454,7.81909187 17.5568454,8.94723266" id="Fill-88-Copy" fill="#FFA79E"></path>
                    <path d="M10.9899145,8.94723266 C10.9899145,10.0753735 10.0753735,10.9899145 8.94723266,10.9899145 C7.81909187,10.9899145 6.90455086,10.0753735 6.90455086,8.94723266 C6.90455086,7.81909187 7.81909187,6.90455086 8.94723266,6.90455086 C10.0753735,6.90455086 10.9899145,7.81909187 10.9899145,8.94723266" id="Fill-90-Copy" fill="#FFD0CC"></path>
                    <g id="Group-4-Copy-4" transform="translate(149.974928, 96.860980)">
                        <path d="M22.2914286,11.1457143 C22.2914286,17.3012929 17.3012929,22.291249 11.1457143,22.291249 C4.99013576,22.291249 4.32687103e-13,17.3012929 4.32687103e-13,11.1457143 C4.32687103e-13,4.99013576 4.99013576,-1.46178075e-13 11.1457143,-1.46178075e-13 C17.3012929,-1.46178075e-13 22.2914286,4.99013576 22.2914286,11.1457143" id="Fill-174" fill="#4C55CE"></path>
                        <path d="M16.6921119,7.34523555 L14.2532684,9.43254215 L14.2532684,8.53349142 C14.2532684,8.09465406 13.8976,7.73880601 13.4587626,7.73880601 L5.98774977,7.73880601 C5.54891241,7.73880601 5.19306436,8.09465406 5.19306436,8.53349142 L5.19306436,13.7578654 C5.19306436,14.1968824 5.54891241,14.5525508 5.98774977,14.5525508 L13.4587626,14.5525508 C13.8976,14.5525508 14.2532684,14.1968824 14.2532684,13.7578654 L14.2532684,12.8588146 L16.6921119,14.9461212 C16.8518034,15.0829997 17.0984361,14.9694732 17.0984361,14.7591259 L17.0984361,7.53223091 C17.0984361,7.32206321 16.8518034,7.20853672 16.6921119,7.34523555" id="Fill-176" fill="#FFFFFF"></path>
                        <path d="M49.1187434,11.1457143 C49.1187434,17.3012929 44.1286076,22.291249 37.9730291,22.291249 C31.8174505,22.291249 26.8274944,17.3012929 26.8274944,11.1457143 C26.8274944,4.99013576 31.8174505,-1.46178075e-13 37.9730291,-1.46178075e-13 C44.1286076,-1.46178075e-13 49.1187434,4.99013576 49.1187434,11.1457143" id="Fill-178" fill="#4C55CE"></path>
                        <path d="M37.973065,14.0748055 L37.973065,14.0748055 C36.7524756,14.0748055 35.7630707,13.0854006 35.7630707,11.8648112 L35.7630707,7.06831714 C35.7630707,5.84772778 36.7524756,4.85814326 37.973065,4.85814326 C39.1936544,4.85814326 40.1830593,5.84772778 40.1830593,7.06831714 L40.1830593,11.8648112 C40.1830593,13.0854006 39.1936544,14.0748055 37.973065,14.0748055" id="Fill-180" fill="#FFFFFF"></path>
                        <path d="M37.973065,17.4332315 C37.6849376,17.4332315 37.4505198,17.1988137 37.4505198,16.9106863 L37.4505198,16.2341978 C35.4203357,15.9803799 33.793961,14.2480232 33.646664,12.1601777 C33.6366047,12.0180899 33.686542,11.8767207 33.7835425,11.772535 C33.8803633,11.6688882 34.0170621,11.6094305 34.1589702,11.6094305 C34.4289549,11.6094305 34.6536727,11.8192389 34.6712765,12.087068 C34.7030711,12.5738667 34.8706663,13.5047121 35.6358923,14.2683214 C36.5299134,15.1607258 37.6515264,15.2350929 37.9739632,15.2367095 C38.2953221,15.2350929 39.4171147,15.1607258 40.3111358,14.2683214 C41.0760026,13.5047121 41.2437775,12.5738667 41.2755721,12.087068 C41.2931758,11.8192389 41.5178936,11.6094305 41.787519,11.6094305 C41.9314031,11.6094305 42.0645093,11.6674512 42.1624079,11.7727146 C42.2599473,11.8776189 42.3098846,12.0198862 42.2992864,12.1630518 C42.1483967,14.238862 40.5218424,15.9692428 38.4957898,16.231683 L38.4957898,16.9106863 C38.4957898,17.1988137 38.2611923,17.4332315 37.973065,17.4332315" id="Fill-182" fill="#FFFFFF"></path>
                    </g>
                </g>
            </g>
        </g>
    </g>
</svg>