<?xml version="1.0" encoding="UTF-8"?>
<svg width="1168px" height="937px" viewBox="0 0 1168 937" version="1.1" xmlns="http://www.w3.org/2000/svg" xmlns:xlink="http://www.w3.org/1999/xlink">
    <title>Group 7</title>
    <defs>
        <linearGradient x1="38.5245967%" y1="17.4249992%" x2="50%" y2="110.463681%" id="linearGradient-1">
            <stop stop-color="#F1BFA5" offset="0%"></stop>
            <stop stop-color="#FFD3C0" offset="100%"></stop>
        </linearGradient>
        <filter x="-97.2%" y="-176.1%" width="294.4%" height="452.3%" filterUnits="objectBoundingBox" id="filter-2">
            <feGaussianBlur stdDeviation="2" in="SourceGraphic"></feGaussianBlur>
        </filter>
    </defs>
    <g id="Page-1" stroke="none" stroke-width="1" fill="none" fill-rule="evenodd">
        <g id="Authorization_Customer" transform="translate(-714.000000, -26.000000)">
            <g id="Group-7" transform="translate(714.000000, 26.000000)">
                <g id="Group-5" fill-rule="nonzero">
                    <path d="M675.22408,3.05036371 C630.894976,9.54828654 589.789569,30.0024529 557.872822,61.4446813 C523.671282,95.2020455 502.558123,140.123029 468.29736,173.969228 C434.352229,207.5729 391.918921,231.327774 345.527157,242.698037 C307.357646,251.966507 271.201732,244.770858 233.476397,256.082536 C110.247823,292.678763 19.9450981,398.153644 2.77146376,525.549215 C-4.30573802,577.488177 1.67583001,632.151417 26.4608421,678.43454 C46.1204744,714.852233 76.3903072,744.430125 113.252802,763.242515 C174.312175,794.09793 245.883709,792.113945 313.813001,800.168333 C377.38084,807.670215 431.977106,802.575952 490.676836,828.100255 C527.132872,843.989084 562.265934,863.247476 597.895367,881.071055 C633.980016,899.122356 670.5738,915.701947 709.566692,925.818941 C802.310608,949.86366 906.603096,933.073813 982.261048,874.264931 C1057.919,815.456049 1107.88096,735.674001 1088.66296,641.804839 C1076.81827,584.210038 1044.24537,533.218651 1024.6128,477.874341 C1007.66528,430.27594 1000.27913,379.800568 1002.87779,329.341939 C1005.33557,281.785512 1016.58802,233.192674 1004.1511,187.205669 C994.823405,152.530341 972.614613,122.563277 947.089308,97.3044778 C880.018756,30.7965481 771.610238,-12.1108384 675.22408,3.05036371 Z" id="Path" fill="#EDF0FC"></path>
                    <polygon id="Path" fill="#FFFFFF" points="714.44 781.622126 702.737143 781.622126 699.834286 772.456412 697 781.622126 685 781.622126 694.462857 789.804984 689.937143 804.456412 699.834286 794.422126 709.982857 804.456412 705.297143 789.644984"></polygon>
                    <polygon id="Path" fill="#FFFFFF" points="991.785466 477.671854 987.106814 477.671854 985.922345 474 984.797099 477.671854 980 477.671854 983.790301 480.958755 981.983985 486.821876 985.922345 482.794682 990.008762 486.821876 988.113612 480.86992"></polygon>
                    <polygon id="Path-Copy" fill="#FFFFFF" points="654.785466 101.671854 650.106814 101.671854 648.922345 98 647.797099 101.671854 643 101.671854 646.790301 104.958755 644.983985 110.821876 648.922345 106.794682 653.008762 110.821876 651.113612 104.86992"></polygon>
                    <polygon id="Path" fill="#FFFFFF" points="304.366204 742.608225 297.881237 742.608225 296.282204 737.515009 294.683171 742.608225 288.050145 742.608225 293.29142 747.138819 290.804035 755.252431 296.282204 749.685427 301.908431 755.252431 299.3026 747.049984"></polygon>
                    <polygon id="Path-Copy-3" fill="#FFFFFF" points="786.316059 58.0932163 779.831092 58.0932163 778.232059 53 776.633026 58.0932163 770 58.0932163 775.241275 62.62381 772.75389 70.737422 778.232059 65.1704181 783.858286 70.737422 781.252455 62.5349748"></polygon>
                    <polygon id="Path" fill="#FFFFFF" points="846.556851 888.742078 840.101495 888.742078 838.472851 883.678473 836.903429 888.742078 830.240792 888.742078 835.511678 893.272672 832.994682 901.386284 838.472851 895.848892 844.099078 901.386284 841.493246 893.183836"></polygon>
                    <polygon id="Path-Copy-2" fill="#FFFFFF" points="159.316059 358.063605 152.860704 358.063605 151.232059 353 149.662638 358.063605 143 358.063605 148.270887 362.594198 145.75389 370.70781 151.232059 365.170418 156.858286 370.70781 154.252455 362.505363"></polygon>
                    <circle id="Oval" fill="#FFFFFF" transform="translate(933.137030, 754.546775) rotate(-22.500000) translate(-933.137030, -754.546775) " cx="933.13703" cy="754.546775" r="8.5"></circle>
                    <path d="M1010,538.941201 C1010,541.570167 1008.41635,543.940268 1005.9875,544.94633 C1003.55865,545.952392 1000.76293,545.396288 998.903968,543.537328 C997.045008,541.678368 996.488904,538.882643 997.494966,536.453795 C998.501028,534.024947 1000.87113,532.441296 1003.50009,532.441296 C1007.08989,532.441296 1010,535.351403 1010,538.941201 L1010,538.941201 Z" id="Path" fill="#FFFFFF"></path>
                    <path d="M118.894675,448.077789 L108.530777,451.360915 C102.38929,450.309325 96.3882268,453.853995 94.344733,459.740237 L86.3329254,467.213023 C85.9779196,467.539138 85.8968807,468.06799 86.1379455,468.485444 C86.3790103,468.902897 86.8775624,469.097056 87.337464,468.95259 L97.7258627,465.81647 C104.012638,467.113705 110.275932,463.5031 112.303922,457.412647 L120.04622,449.915359 C120.438255,449.555941 120.517823,448.967882 120.235399,448.517205 C119.952974,448.066528 119.38907,447.881711 118.894675,448.077789 Z" id="Path" fill="#FFFFFF"></path>
                </g>
                <g id="moon-phase" opacity="0.694266183" transform="translate(172.000000, 606.000000) rotate(-34.000000) translate(-172.000000, -606.000000) translate(91.000000, 525.000000)" fill-rule="nonzero">
                    <path d="M162.000069,81 C162.000069,81.4826939 161.996694,81.9653878 161.986776,82.4447755 C155.282382,88.4183063 145.225075,88.6153451 138.291854,82.9089971 C131.358634,77.2026492 129.617772,67.2951947 134.190401,59.5671277 C138.763031,51.8390606 148.285073,48.5957673 156.624245,51.9259592 C160.190547,61.2037777 162.013019,71.0603692 162.000069,81 L162.000069,81 Z" id="Path" fill="#C3C5E7"></path>
                    <path d="M149.85,87.0733469 C154.327996,87.0802048 158.650523,85.4317335 161.986776,82.4447755 C161.216449,126.512082 125.252449,162.000002 81,162.000002 C50.3760233,162.007155 22.3664381,144.742146 8.61244898,117.380571 L8.66865306,117.354122 C15.3664925,118.041478 21.8976392,114.979979 25.6539799,109.392187 C29.4103205,103.804395 29.7798041,96.6007754 26.614883,90.6579826 C23.449962,84.7151899 17.2663224,81.0015315 10.5333061,81 C6.78843428,80.9937051 3.13333922,82.1462438 0.0694285714,84.2995102 C0.0253469388,83.2051837 0.00330612245,82.1053469 0.00330612245,81 C0.00330612245,38.8833061 32.1487347,4.27481633 73.2405306,0.366979592 L73.2570612,0.542204082 C71.9285335,6.99642478 74.3566823,13.6477371 79.5309688,17.7280202 C84.7052553,21.8083033 91.7393991,22.6186636 97.7059537,19.8218482 C103.672508,17.0250328 107.549489,11.1000956 107.723388,4.51285714 C130.182477,12.3901752 148.057003,29.7208881 156.624245,51.9259592 C149.805208,49.1971614 142.014549,50.8280609 136.862616,56.0628662 C131.710682,61.2976715 130.2043,69.1133617 133.041557,75.8879893 C135.878813,82.6626168 142.505233,87.0722384 149.85,87.0733469 L149.85,87.0733469 Z" id="Path" fill="#FCFDFF"></path>
                    <path d="M107.723388,4.51285714 C107.542524,11.09477 103.664649,17.0117815 97.7017401,19.8042729 C91.7388314,22.5967643 84.7107878,21.7871067 79.5390685,17.7118635 C74.3673491,13.6366202 71.9365272,6.99282255 73.2570612,0.542204082 L73.2405306,0.366979592 C75.7928571,0.125632653 78.3793469,0.00330612245 81,-4.11865009e-05 C90.0981922,-0.00918066058 99.1327477,1.51651132 107.723388,4.51285714 L107.723388,4.51285714 Z" id="Path" fill="#C3C5E7"></path>
                    <path d="M10.5333061,80.9999744 C17.2679886,80.9991476 23.4542102,84.7123703 26.6206159,90.6562599 C29.7870215,96.6001496 29.417436,103.805756 25.6595063,109.394487 C21.9015767,114.983218 15.367906,118.04402 8.66865306,117.354122 L8.61244898,117.380571 C3.43316294,107.090867 0.520031231,95.8103735 0.0694285714,84.2995102 C3.13333922,82.1462438 6.78843428,80.9937051 10.5333061,80.9999744 L10.5333061,80.9999744 Z" id="Path" fill="#DDDFF8"></path>
                    <circle id="Oval" fill="#D3DAE9" cx="116.64" cy="132.433347" r="8.1"></circle>
                    <path d="M87.0766531,67.6366521 C93.5618938,67.6384789 98.8179108,72.8969626 98.8166939,79.3822035 C98.8154766,85.8674443 93.5574862,91.1239549 87.0722452,91.1233464 C80.5870042,91.122738 75.3299999,85.865241 75.3299999,79.38 C75.3296489,76.2647902 76.567232,73.2771189 78.770328,71.074643 C80.9734239,68.8721671 83.9614435,67.6354251 87.0766531,67.6366521 L87.0766531,67.6366521 Z" id="Path" fill="#C3C5E7"></path>
                    <circle id="Oval" fill="#D3DAE9" cx="47.3866531" cy="42.5266531" r="8.1"></circle>
                    <circle id="Oval" fill="#D3DAE9" cx="56.2966531" cy="129.6" r="4.05"></circle>
                    <path d="M0.00330612244,81 C0.00330612244,38.8833061 32.1487347,4.27481633 73.2405306,0.366979592 L73.2570612,0.542204082 C73.1601918,1.01729388 73.0854735,1.50064898 73.0279469,1.98830204 C37.2661527,10.0537795 10.4622524,41.7710782 9.9297506,79.8443372 L9.92167347,81 L9.92167347,81.0099184 L9.98779592,84.2995102 C10.4188474,95.2662546 13.085169,106.029419 17.8233061,115.929184 L17.8233061,115.928522 L18.5308163,117.380571 C31.4852545,143.140635 57.1545473,160.074456 85.9340571,161.845935 C84.3014939,161.944127 82.6573592,162.000002 81,162.000002 C50.6821177,162.006959 22.9267079,145.085321 9.02932823,118.197729 L8.61244898,117.380571 C3.43316294,107.090867 0.520031231,95.8103735 0.0694285714,84.2995102 L0.0694285714,84.2995102 C0.0253469388,83.2040816 0.00330612244,82.1042449 0.00330612244,81 Z" id="Combined-Shape" fill="#D7DEFA"></path>
                </g>
                <g id="freepik--planet-2--inject-54" transform="translate(878.000000, 241.000000)" fill-rule="nonzero">
                    <g id="Group-2" transform="translate(45.679245, 0.000000)">
                        <circle id="Oval" fill="#F4F6FC" cx="73.5686251" cy="73.4575709" r="73.4575709"></circle>
                        <circle id="Oval" fill="#BDC8F7" cx="73.5686251" cy="73.4575709" r="73.4575709"></circle>
                        <circle id="Oval" fill="#FFFFFF" opacity="0.4" cx="73.5686251" cy="73.4575709" r="73.4575709"></circle>
                        <path d="M8.85534631,38.6183249 C7.20027524,46.8936803 12.9378549,50.3693295 25.5439796,49.652132 C55.4252671,47.9826365 84.6317055,40.1103318 111.304245,26.5363061 C117.152163,22.536551 117.731438,17.9851056 115.524677,13.1302305 C151.191458,41.4595303 153.674065,79.3330732 138.143981,108.434739 C134.36204,114.166947 128.691419,118.393073 122.117376,120.378836 C103.075046,127.875741 83.1071632,132.765646 62.7554941,134.915877 C43.9152684,137.674328 32.8538768,136.433025 28.605861,131.522981 C-3.53010219,106.614161 -6.23338493,68.4096041 8.85534631,38.6183249 Z" id="Path" fill="#FFFFFF" opacity="0.2"></path>
                        <path d="M0.110079805,73.4575709 C0.0362537272,87.596701 4.26984615,101.423229 12.248242,113.096523 C16.1100798,118.613427 28.605861,119.716807 48.1081151,116.98594 C73.4549341,114.374864 98.3214701,108.285857 122.007038,98.8904963 C134.916593,93.814945 143.467793,87.3325834 147.136534,79.1951506 C147.993496,66.1581759 145.405917,53.1251471 139.633545,41.4043612 C138.50258,51.5554638 131.551281,59.9687417 117.565931,66.2304272 C90.2170498,76.4707922 61.7703448,83.4968414 32.7987078,87.1670762 C14.3446653,89.2910841 1.62820264,86.2567872 0.110079805,73.4575709 Z" id="Path" fill="#FFFFFF" opacity="0.2"></path>
                    </g>
                    <path d="M89.7048519,8.79946118 C96.7119222,6.09165991 103.976546,4.10451723 111.386283,2.86878985 C121.123618,1.87574721 122.806273,3.53081828 121.730477,6.09617843 C118.836742,9.06112598 115.412122,11.4564885 111.634544,13.157815 C105.761011,15.7039049 99.5248664,17.3141333 93.1529166,17.9299366 C88.7118092,18.1230282 83.9948567,18.2333663 81.3191585,16.1921119 C79.9951016,13.7922589 83.9672722,11.2544833 89.7048519,8.79946118 Z" id="Path" fill="#4C55CE" opacity="0.1"></path>
                    <path d="M237.888881,37.3770216 C234.220141,26.0673693 210.083688,22.8951498 176.402991,27.3362571 C179.412641,30.9608853 182.020799,34.9008687 184.181825,39.0872617 L184.181825,39.0872617 C196.23626,39.5561985 204.208185,42.4249884 205.94601,47.7488003 C210.194026,60.9066153 174.858258,84.1327793 126.99912,99.6076938 C79.1399816,115.082608 36.9080848,117.013525 32.6600691,103.85571 C30.8119064,98.338806 35.2530137,91.5254301 45.8454686,83.5810889 C45.707546,83.5810889 46.5902506,83.0018141 46.452328,83.0845676 C45.8640675,78.5121143 45.6978595,73.8952254 45.9558067,69.2923087 C15.2266538,85.6775123 -3.08946599,102.752329 0.634443909,114.227488 C6.48236168,132.240178 64.3270955,129.647234 129.86791,108.407155 C195.408724,87.1670762 243.736799,55.3897117 237.888881,37.3770216 Z" id="Path" fill="#FFFFFF"></path>
                </g>
                <g id="Group-6" transform="translate(767.447355, 541.000000)">
                    <g id="freepik--Character--inject-9" transform="translate(304.552645, 106.000000) scale(-1, 1) translate(-304.552645, -106.000000) translate(209.552645, 0.000000)">
                        <path d="M67.164335,43.8503531 L69.5741678,43.8503531 C82.6743621,43.8503531 93.2941678,54.4701588 93.2941678,67.5703531 L93.2941678,108.371356 C93.2941678,121.471551 82.6743621,132.091356 69.5741678,132.091356 L67.164335,132.091356 C54.0641408,132.091356 43.444335,121.471551 43.444335,108.371356 L43.444335,67.5703531 C43.444335,54.4701588 54.0641408,43.8503531 67.164335,43.8503531 Z" id="Rectangle" fill="#FF725E" fill-rule="nonzero" transform="translate(68.369251, 87.970855) rotate(-26.220000) translate(-68.369251, -87.970855) "></path>
                        <path d="M67.1631767,43.6812044 L69.5730095,43.6812044 C82.6732038,43.6812044 93.2930095,54.3010101 93.2930095,67.4012044 L93.2930095,108.202208 C93.2930095,121.302402 82.6732038,131.922208 69.5730095,131.922208 L67.1631767,131.922208 C54.0629825,131.922208 43.4431767,121.302402 43.4431767,108.202208 L43.4431767,67.4012044 C43.4431767,54.3010101 54.0629825,43.6812044 67.1631767,43.6812044 Z" id="Rectangle" fill="#000000" fill-rule="nonzero" opacity="0.4" transform="translate(68.368093, 87.801706) rotate(-26.220000) translate(-68.368093, -87.801706) "></path>
                        <path d="M66.640602,106.35786 C66.640602,106.415117 65.8103679,106.744348 64.4934448,107.409967 C61.0626924,109.141867 58.0379346,111.581188 55.6185284,114.567157 C54.6880936,115.705151 54.1870903,116.47097 54.1298328,116.442341 C54.199889,116.234901 54.3012619,116.039396 54.4304348,115.862609 C54.7298138,115.367218 55.0571899,114.889297 55.4109699,114.431171 C57.7596444,111.300432 60.8550837,108.80784 64.4147157,107.180936 C64.9473899,106.930926 65.4947253,106.713426 66.0537124,106.529632 C66.239403,106.442688 66.4373367,106.384757 66.640602,106.35786 Z" id="Path" fill="#263238" fill-rule="nonzero"></path>
                        <path d="M60.220602,115.998595 C60.220602,115.998595 60.3279599,115.755251 60.7001338,115.490435 C61.2406022,115.116554 61.9063504,114.970038 62.5538462,115.082475 C63.5329156,115.285633 64.3200936,116.012258 64.6008027,116.971973 C64.9203746,118.177788 64.4223816,119.451723 63.3697659,120.121137 C62.8389037,120.473191 62.1954275,120.613632 61.5661538,120.514783 C60.9920056,120.432279 60.4545788,120.18347 60.0202007,119.799064 C59.2512243,119.147377 58.9372412,118.104504 59.2185953,117.136589 C59.3819809,116.506452 59.7588746,115.952494 60.2850167,115.569164 C60.4671493,115.418518 60.6877947,115.321831 60.9220067,115.290033 C60.9220067,115.290033 60.7001338,115.411706 60.3780602,115.683679 C59.9212481,116.078594 59.6048194,116.610998 59.4762542,117.201003 C59.2673014,118.06323 59.5638417,118.96948 60.2420736,119.541405 C61.0450715,120.27202 62.2326047,120.388445 63.1622074,119.827692 C64.0722664,119.242067 64.5162662,118.147822 64.2715719,117.093645 C64.0816559,116.375341 63.5657519,115.787741 62.87806,115.506477 C62.190368,115.225212 61.4105566,115.282866 60.7717057,115.662207 C60.406689,115.826823 60.2492308,116.020067 60.220602,115.998595 Z" id="Path" fill="#263238" fill-rule="nonzero"></path>
                        <path d="M67.164335,43.8503531 L69.5741678,43.8503531 C82.6743621,43.8503531 93.2941678,54.4701588 93.2941678,67.5703531 L93.2941678,108.371356 C93.2941678,121.471551 82.6743621,132.091356 69.5741678,132.091356 L67.164335,132.091356 C54.0641408,132.091356 43.444335,121.471551 43.444335,108.371356 L43.444335,67.5703531 C43.444335,54.4701588 54.0641408,43.8503531 67.164335,43.8503531 Z" id="Rectangle" fill="#FF725E" fill-rule="nonzero" transform="translate(68.369251, 87.970855) rotate(-26.220000) translate(-68.369251, -87.970855) "></path>
                        <path d="M67.1631767,43.6812044 L69.5730095,43.6812044 C82.6732038,43.6812044 93.2930095,54.3010101 93.2930095,67.4012044 L93.2930095,108.202208 C93.2930095,121.302402 82.6732038,131.922208 69.5730095,131.922208 L67.1631767,131.922208 C54.0629825,131.922208 43.4431767,121.302402 43.4431767,108.202208 L43.4431767,67.4012044 C43.4431767,54.3010101 54.0629825,43.6812044 67.1631767,43.6812044 Z" id="Rectangle" fill="#000000" fill-rule="nonzero" opacity="0.4" transform="translate(68.368093, 87.801706) rotate(-26.220000) translate(-68.368093, -87.801706) "></path>
                        <path d="M66.640602,106.35786 C66.640602,106.415117 65.8103679,106.744348 64.4934448,107.409967 C61.0626924,109.141867 58.0379346,111.581188 55.6185284,114.567157 C54.6880936,115.705151 54.1870903,116.47097 54.1298328,116.442341 C54.199889,116.234901 54.3012619,116.039396 54.4304348,115.862609 C54.7298138,115.367218 55.0571899,114.889297 55.4109699,114.431171 C57.7596444,111.300432 60.8550837,108.80784 64.4147157,107.180936 C64.9473899,106.930926 65.4947253,106.713426 66.0537124,106.529632 C66.239403,106.442688 66.4373367,106.384757 66.640602,106.35786 Z" id="Path" fill="#263238" fill-rule="nonzero"></path>
                        <path d="M60.220602,115.998595 C60.220602,115.998595 60.3279599,115.755251 60.7001338,115.490435 C61.2406022,115.116554 61.9063504,114.970038 62.5538462,115.082475 C63.5329156,115.285633 64.3200936,116.012258 64.6008027,116.971973 C64.9203746,118.177788 64.4223816,119.451723 63.3697659,120.121137 C62.8389037,120.473191 62.1954275,120.613632 61.5661538,120.514783 C60.9920056,120.432279 60.4545788,120.18347 60.0202007,119.799064 C59.2512243,119.147377 58.9372412,118.104504 59.2185953,117.136589 C59.3819809,116.506452 59.7588746,115.952494 60.2850167,115.569164 C60.4671493,115.418518 60.6877947,115.321831 60.9220067,115.290033 C60.9220067,115.290033 60.7001338,115.411706 60.3780602,115.683679 C59.9212481,116.078594 59.6048194,116.610998 59.4762542,117.201003 C59.2673014,118.06323 59.5638417,118.96948 60.2420736,119.541405 C61.0450715,120.27202 62.2326047,120.388445 63.1622074,119.827692 C64.0722664,119.242067 64.5162662,118.147822 64.2715719,117.093645 C64.0816559,116.375341 63.5657519,115.787741 62.87806,115.506477 C62.190368,115.225212 61.4105566,115.282866 60.7717057,115.662207 C60.406689,115.826823 60.2492308,116.020067 60.220602,115.998595 Z" id="Path" fill="#263238" fill-rule="nonzero"></path>
                        <path d="M62.9403344,25.6462207 C63.1194146,26.0240872 62.95898,26.4756125 62.5816251,26.6557681 C62.2042702,26.8359237 61.7522898,26.6767757 61.5710602,26.2999354 C61.3898306,25.9230951 61.5476907,25.4706633 61.9240134,25.2883612 C62.1061054,25.2001503 62.3158895,25.1883313 62.5067372,25.2555312 C62.6975849,25.3227311 62.8536826,25.4633817 62.9403344,25.6462207 Z" id="Path" fill="#263238" fill-rule="nonzero"></path>
                        <path d="M63.2552508,24.5797993 C63.2051505,24.7086288 62.4894314,24.5225418 61.7307692,24.830301 C60.972107,25.1380602 60.5784615,25.767893 60.4567893,25.7106355 C60.3351171,25.6533779 60.4138462,25.4744482 60.5784615,25.1881605 C60.8024225,24.8176547 61.1419001,24.5309847 61.5446823,24.3722408 C61.9445808,24.2096359 62.3860793,24.1795337 62.8043478,24.2863545 C63.1192642,24.379398 63.2767224,24.5153846 63.2552508,24.5797993 Z" id="Path" fill="#263238" fill-rule="nonzero"></path>
                        <ellipse id="Oval" fill="#DFE1E8" cx="49.25" cy="27.25" rx="28.25" ry="26.75"></ellipse>
                        <path d="M54.9600669,29.4610033 C55.1206782,29.8385287 54.9552442,30.2755621 54.5848987,30.4520998 C54.2145532,30.6286376 53.7708732,30.481959 53.5787291,30.1194649 C53.4469472,29.8708485 53.4621196,29.5699875 53.6182448,29.3358902 C53.7743701,29.101793 54.0462986,28.972169 54.3264668,28.9982922 C54.6066349,29.0244154 54.8499117,29.2020778 54.9600669,29.4610033 L54.9600669,29.4610033 Z" id="Path" fill="#263238" fill-rule="nonzero"></path>
                        <path d="M55.0244816,28.5019398 C54.9815385,28.6379264 54.2658194,28.4446823 53.5071572,28.7595987 C52.748495,29.0745151 52.3548495,29.6971906 52.2331773,29.6327759 C52.111505,29.5683612 52.1902341,29.3965886 52.3548495,29.1174582 C52.5784302,28.7449733 52.9177774,28.4558998 53.3210702,28.2943813 C53.7215195,28.1331496 54.1633273,28.1055366 54.5807358,28.2156522 C54.8956522,28.3015385 55.0531104,28.4446823 55.0244816,28.5019398 Z" id="Path" fill="#263238" fill-rule="nonzero"></path>
                        <path d="M60.6929766,33.4905017 C61.0453565,33.2079185 61.4297061,32.9677 61.8381271,32.7747826 C62.0170569,32.6745819 62.1959866,32.5600669 62.1673579,32.4026087 C62.0943076,32.1836241 61.957168,31.9916286 61.7737124,31.851505 L60.5355184,30.5560535 C59.6623411,29.6327759 58.8822074,28.7810702 58.3311037,28.1512375 C58.0068225,27.8344727 57.7231354,27.4786617 57.4865552,27.0919732 C57.8583147,27.350481 58.1971987,27.6533135 58.4957191,27.9937793 C59.0969231,28.5806689 59.9271572,29.4252174 60.7717057,30.3270234 L61.9955853,31.6439465 C62.2216728,31.8241535 62.3784548,32.0770276 62.4393311,32.3596656 C62.4497681,32.5202971 62.3801054,32.6756985 62.2532441,32.7747826 C62.1604422,32.8517143 62.056723,32.9144282 61.9454849,32.9608696 C61.5515473,33.1886434 61.1308171,33.3665521 60.6929766,33.4905017 Z" id="Path" fill="#263238" fill-rule="nonzero"></path>
                        <path d="M58.5816054,35.3656856 C59.9905216,35.5713688 61.4287211,35.4060868 62.7542475,34.8861538 C62.5665963,35.9361245 61.6729262,36.7136176 60.6070903,36.7541806 C58.7247492,36.8472241 58.5816054,35.3656856 58.5816054,35.3656856 Z" id="Path" fill="#FFFFFF" fill-rule="nonzero"></path>
                        <g id="Group-3" transform="translate(26.517583, 11.285188)">
                            <g id="Group-5-Copy-3" transform="translate(30.055832, 29.178337) rotate(-18.000000) translate(-30.055832, -29.178337) translate(17.555832, 5.178337)">
                                <ellipse id="Oval-Copy-88" stroke="#979797" fill="#D8D8D8" cx="8.74152983" cy="19.3135316" rx="2.55468308" ry="1.4902318"></ellipse>
                                <path d="M13.1270767,8.74005854 C11.5267459,8.70356716 6.7930255,8.17001987 8.32608466,8.63058441 L5.53758761,10.0776872 C12.3479877,12.1236804 12.0384641,11.8466557 13.4907352,8.80811002 L13.1270767,8.74005854 Z" id="Path-21-Copy" stroke="#979797"></path>
                                <path d="M13.888554,10.1080817 C12.4080366,7.80687942 12.8869492,7.64191773 8.56439935,8.66635851 C7.59621372,8.89581771 5.11989046,9.91376379 6.04810824,10.2721584 C12.7628555,12.8647926 12.5885461,12.421472 13.4770173,9.56851141" id="Path-20-Copy" stroke="#979797"></path>
                                <path d="M12.0359851,0.232811838 C16.8051526,-0.585112528 23.5456791,4.46369238 24.1600803,9.26309032 C24.8426065,14.5938623 24.6298419,17.6264348 23.523069,20.9919824 C22.2731458,24.7928304 21.5013331,26.0689823 20.74316,27.3293788 L20.5964624,27.5738035 C20.3518346,27.9830959 20.1055079,28.4075925 19.8418913,28.9315113 C19.1443211,30.3178815 15.1733213,31.8271968 15.1733213,31.8271968 C15.1733213,31.8271968 23.4455399,32.6069283 23.7389027,37.3863146 C23.9111546,40.1857998 21.7329119,42.2046428 18.8985809,43.4415026 C17.9214301,45.1448238 16.1329038,46.9016954 13.2377708,47.4310856 C10.1170492,48.0017259 7.03289781,45.7337211 5.0413877,43.5887572 C4.79416806,43.4523217 4.60241877,43.2636431 4.50521878,42.983692 C3.38704941,41.6642476 2.74282799,40.5056498 2.83509437,40.2465695 C2.90003675,40.0642139 3.56588396,39.8651791 4.83263599,39.6494653 C5.22490716,36.9077928 5.44000469,34.5748731 4.7651665,31.807287 C4.64452682,31.3125303 4.1102362,30.5986857 3.54253041,29.8656572 L3.200939,29.4251373 C2.57849032,28.6191609 2.00762633,27.8383488 1.99444082,27.3487735 C1.86381466,22.4986506 1.2089807,16.0198151 0.0299389279,7.91226717 C-0.0939632014,6.44800799 4.25570279,2.17832428 5.7042081,1.93009424 C6.74594772,1.34385555 8.85654004,0.778094748 12.0359851,0.232811838 Z" id="Combined-Shape-Copy-4" fill="url(#linearGradient-1)"></path>
                                <g id="Group-22-Copy" transform="translate(6.878354, 8.359542)">
                                    <path d="M6.89063697,2.85709809 C6.64409054,3.15741474 5.94906064,2.84913213 5.71406485,2.75553212 C4.96725621,2.45720696 3.8081959,2.04083167 2.78509784,2.13492565 C1.17083836,2.50680326 0.486177075,2.77391754 0.467855369,2.67952093 C0.424839191,2.45886387 0.534031244,1.78049576 4.03626505,1.29138589 C4.4528847,1.23323439 6.68425334,1.28378782 7.0992798,1.68885682 C7.42986709,2.01187645 7.02207529,2.69658402 6.89063697,2.85709809 Z" id="Fill-1" fill="#413F62" transform="translate(3.843853, 2.128432) rotate(-6.000000) translate(-3.843853, -2.128432) "></path>
                                    <path d="M12.4342187,2.91236306 C12.6578209,3.22718283 13.3540235,2.92855913 13.5934825,2.85205674 C14.3545354,2.60807475 15.5174352,2.49053663 16.525192,2.65474495 C18.0997578,3.13532436 18.654718,2.7627821 15.4620122,1.51333869 C15.166049,1.39751555 12.6401991,1.54404173 12.2006688,1.91684803 C11.8505379,2.21416582 12.3150408,2.74412065 12.4342187,2.91236306 Z" id="Fill-1-Copy" fill="#413F62" transform="translate(14.929406, 2.264122) rotate(15.000000) translate(-14.929406, -2.264122) "></path>
                                    <path d="M11.0843703,4.92799472 C11.0843703,4.92799472 11.0755071,5.03469536 11.0489175,5.2174696 C11.0207639,5.40419571 10.9946957,5.65019996 10.9754052,5.95301242 C10.9608071,6.1026897 10.9618498,6.26570456 10.9550721,6.43563521 C10.9451661,6.60507187 10.9654993,6.7848822 10.9618498,6.96765644 C10.982183,7.33616883 11.0296271,7.72246465 11.0947976,8.10727853 C11.1703953,8.48962248 11.2652835,8.86850854 11.3768554,9.22121342 C11.4456754,9.39213204 11.4915554,9.56749651 11.5608968,9.72408958 C11.6276314,9.88167061 11.6849814,10.0352998 11.751716,10.1716395 C11.8768433,10.4487647 11.9962356,10.6799495 12.0838248,10.8414824 C12.1724566,11.0025213 12.2199007,11.1018122 12.2199007,11.1018122 C12.2199007,11.1018122 12.1276193,11.042534 11.9722529,10.9274357 C11.8924842,10.8711214 11.8022883,10.7965298 11.7074001,10.7026727 C11.6072982,10.6127676 11.4978118,10.5065609 11.3966672,10.377631 C11.1735235,10.1321207 10.9665421,9.80658498 10.7809365,9.44004853 C10.7011679,9.25184046 10.6026301,9.06165645 10.5442374,8.85467697 C10.4696823,8.65214336 10.4295373,8.43726013 10.3794864,8.22484682 C10.3508114,8.00897562 10.3127518,7.79458638 10.3106664,7.57970315 C10.2924186,7.36679586 10.31588,7.15537053 10.3242218,6.95333089 C10.3685377,6.54875764 10.4472637,6.1757994 10.5687415,5.87348092 C10.618271,5.72034575 10.6839629,5.58400604 10.7460052,5.46544978 C10.8023125,5.34491758 10.8607052,5.24710866 10.9138843,5.17054107 C11.0186784,5.01493598 11.0843703,4.92799472 11.0843703,4.92799472" id="Fill-4" fill="#C39886"></path>
                                    <path d="M4.38850231,5.38254019 C4.41609445,5.71618733 4.62506463,5.80547313 4.65410899,5.99280929 C4.90461664,5.90495009 5.06559907,5.99900684 5.46386993,5.95943389 C5.82656145,5.92385455 6.14278197,5.940192 6.39074824,5.97032553 C6.59224353,5.58657685 6.60023073,5.16325523 6.39074824,4.88442932 C6.19252045,4.62085171 5.87266938,4.58345709 5.55354441,4.54642552 C5.42865364,4.53154028 4.62049417,4.4371461 4.40411365,4.82960808 C4.37216485,4.88733376 4.35328601,4.95595107 4.38850231,5.38254019 Z" id="Fill-8" fill="#545A83" transform="translate(5.457209, 5.259330) rotate(13.000000) translate(-5.457209, -5.259330) "></path>
                                    <path d="M13.7475937,5.65204855 C13.7742354,5.98172836 13.8670611,5.96273365 13.895105,6.14784223 C14.2430646,6.2526018 15.4414458,6.20306944 15.6808707,6.23284466 C15.8754253,5.85365905 16.0767724,5.45952049 15.8745057,5.18401004 C15.683106,4.92356657 15.1806375,4.86246717 14.872505,4.82587594 C14.7519162,4.8111677 14.0967265,4.5696856 13.8877993,4.95748091 C13.856951,5.01452018 13.7135904,5.23053191 13.7475937,5.65204855 Z" id="Fill-8-Copy" fill="#545A83" transform="translate(14.850544, 5.485499) rotate(15.000000) translate(-14.850544, -5.485499) "></path>
                                    <path d="M6.40874561,3.83802416 C5.55523636,3.37271456 3.45590536,3.1808483 2.09116252,4.63279719 C1.84119036,4.89874238 1.28408098,5.87994355 1.61079647,5.83307595 C2.78737531,5.66429474 3.67614569,4.45957335 4.86111981,4.36650796 C5.42304817,4.32237528 6.14776767,5.09742322 6.67240339,5.35783238 C7.94103202,5.98753125 8.03441442,5.44752902 7.52551516,5.08211789 L6.40874561,3.83802416 Z" id="Path-19" fill="#CAA199" transform="translate(4.662509, 4.666317) rotate(6.000000) translate(-4.662509, -4.666317) "></path>
                                    <path d="M15.9690884,4.035949 C15.1702017,3.5706394 13.695,3.29614023 12.4175974,4.74808912 C11.1401949,6.20003802 11.5487676,5.75379948 11.854574,5.70693187 C12.1748942,5.65783991 12.4405822,5.54852335 12.6836121,5.41587936 C13.2761344,5.09248504 13.7339741,4.63042905 14.520507,4.5644328 C15.0464732,4.52030012 15.9727155,5.31866039 16.4637757,5.57906955 C17.6512151,6.20876842 17.5137403,5.86845748 17.0143873,5.28004273 L15.9690884,4.035949 Z" id="Path-19-Copy" fill="#CAA199" transform="translate(14.461146, 4.789858) scale(-1, 1) rotate(-3.000000) translate(-14.461146, -4.789858) "></path>
                                    <path d="M2.14729996,5.21093451 C2.28854128,5.12514965 2.50785105,4.98630098 2.66961461,4.88807732 C2.83017098,4.78770903 3.10591935,4.62264788 3.28981474,4.5188482 C3.65156957,4.29881004 3.91551529,4.26251355 4.35895669,4.12525778 C4.58148218,4.06349268 4.79512067,4.00359685 5.04098519,3.97528785 C5.16371625,3.96242012 5.50259245,3.95752467 5.65389369,3.99312538 C5.73195869,4.01199805 5.80197575,4.03859136 5.87561439,4.08148379 C5.90941573,4.10078538 6.0122874,4.19520143 6.06902536,4.24624342 C6.29356284,4.44783784 6.34641878,4.63822752 6.43132453,4.79264027 C6.51542548,4.95434473 6.59831925,5.08001955 6.70736881,5.19153986 C6.91500562,5.40128384 7.16811328,5.51494878 7.34637511,5.57800065 C7.52705133,5.64148145 7.63851527,5.66721691 7.63851527,5.66721691 C7.63851527,5.66721691 7.52946571,5.69681268 7.32907204,5.70496225 C7.13229995,5.70925149 6.86792921,5.51154061 6.27889473,5.43473199 C5.68986024,5.35792337 4.5580852,5.12444876 4.35728914,5.18664278 C3.95368504,5.2981631 2.41769225,5.5796859 2.33842006,5.60499243 C1.70424252,5.80830255 1.41504458,5.9001228 1.41504458,5.9001228 C1.41504458,5.9001228 1.56905559,5.5549318 2.14729996,5.21093451 Z" id="Fill-6" fill="#464462" transform="translate(4.526780, 4.932910) rotate(6.000000) translate(-4.526780, -4.932910) "></path>
                                    <path d="M12.0029921,5.41622675 C12.1351943,5.33044189 12.3404687,5.19159322 12.4918798,5.09336955 C12.6421609,4.99300127 12.9002621,4.82794012 13.0723886,4.72414044 C13.410992,4.50410228 13.8518081,4.13607329 14.6201025,4.24354797 C15.3883969,4.35102264 16.2978836,5.35433875 16.3999543,5.46585906 C16.5943028,5.67560304 16.7024852,5.72024102 16.8693387,5.78329289 C17.0384521,5.84677369 17.1427826,5.87250914 17.1427826,5.87250914 C17.1427826,5.87250914 16.8720537,5.794656 16.6844848,5.80280556 C16.5003056,5.80709481 15.9155391,5.86164004 15.1881672,5.46180745 C14.4607954,5.06197486 14.4099841,5.2563466 14.2220385,5.31854062 C13.8442641,5.43006094 12.3851656,5.90778199 12.3109666,5.93308852 C11.7173749,6.13639864 11.5658106,5.81818104 11.5658106,5.81818104 C11.5658106,5.81818104 11.461754,5.76022403 12.0029921,5.41622675 Z" id="Fill-6-Copy" fill="#464462" transform="translate(14.350284, 5.112638) scale(-1, 1) rotate(-3.000000) translate(-14.350284, -5.112638) "></path>
                                    <path d="M5.52574146,15.9392784 C6.08181081,16.1994303 6.89207113,16.5179142 7.91224124,16.7137732 C8.52962298,16.832566 8.99968467,16.8627964 9.11932899,16.8700346 C9.81675747,16.9113354 10.9621071,16.8874916 12.3710148,16.4229651 C12.2351908,16.7465583 11.9707811,17.2609012 11.4717663,17.7450136 C11.1984152,18.0098491 10.6862013,18.5071607 9.93512445,18.6544808 C8.99798154,18.8388437 8.22135789,18.3738914 7.563527,17.9804702 C6.5408022,17.3686236 5.90255721,16.5528282 5.52574146,15.9392784 Z M10.2484989,14.8884521 C10.452022,14.7419836 10.7641191,14.7206946 10.9395407,14.900374 C11.0404507,15.0038387 11.0791967,15.1511587 11.1405091,15.2822991 C11.3998094,15.8345364 12.0418864,16.0755282 12.6222253,16.264149 C11.3883133,16.4757619 10.1463116,16.6886521 8.89494266,16.6724725 C7.64314795,16.6567186 6.36750953,16.3986956 5.30774184,15.7327749 C5.89276426,15.7953646 6.48332183,15.8575286 7.06791848,15.7898295 C7.65251512,15.7229819 8.23838911,15.5139237 8.6582087,15.1017682 C8.73995855,15.0212957 8.81787639,14.9318817 8.92176683,14.8833428 C9.10911026,14.795632 9.3398833,14.8663115 9.49657053,15.0021355 C9.65283197,15.1375337 9.75118727,15.3265803 9.84528477,15.5109432 C9.92916353,15.2737835 10.04455,15.0353464 10.2484989,14.8884521 Z" id="Combined-Shape" fill="#CB8E8E" transform="translate(8.964984, 16.734089) rotate(5.000000) translate(-8.964984, -16.734089) "></path>
                                </g>
                                <path d="M17.1464616,21.1302824 C17.9894913,21.1302824 19.6223583,19.9155437 19.6223583,19.6189107 C19.6223583,19.3222777 18.1449487,20.1527773 17.301919,20.1527773 C16.4588894,20.1527773 15.6200214,20.2965478 15.6200214,20.5931808 C15.6200214,20.8898138 16.303432,21.1302824 17.1464616,21.1302824 Z" id="Oval-Copy-89" fill="#D2A29A" opacity="0.496651786"></path>
                                <ellipse id="Oval-Copy-90" fill="#E35C86" opacity="0.192196801" filter="url(#filter-2)" transform="translate(7.736956, 19.611721) rotate(14.000000) translate(-7.736956, -19.611721) " cx="7.736956" cy="19.6117209" rx="3.08690872" ry="1.70312205"></ellipse>
                            </g>
                            <path d="M29.0259524,1.32270092 C30.3218367,1.76926924 31.5404877,2.39393154 32.6423518,3.17641329 C34.6274426,4.08937564 36.355848,5.43071294 37.6870771,7.09139657 C38.8646862,8.57293503 39.24456,9.67514239 39.2065727,9.70377115 C39.1685853,9.73239991 38.5683845,8.73755042 37.3299956,7.38484139 C36.6102238,6.5857103 35.797239,5.86545552 34.9064002,5.23768419 C36.4472475,7.08218263 37.3371702,9.33446652 37.4515553,11.6791558 L36.0840093,11.2783531 L26.6935267,13.003236 C26.2832629,10.5841056 23.9660321,8.38684807 22.7960205,7.40631296 L22.7200458,7.40631296 C25.1360437,16.2168146 16.1330325,21.2912628 16.1330325,21.2912628 C16.9576311,25.1691962 17.8074616,28.0140947 18.682524,29.8259584 C19.4366985,31.3875172 21.0307234,33.6027525 23.4645986,36.4716641 C11.1718795,39.205711 7.03125406,25.7573497 7.03125406,25.7573497 L7.13761875,25.7000922 C6.74074973,24.6790883 6.39843408,23.639993 6.11195924,22.5867143 C5.37866351,18.9921092 5.6172116,15.8691903 6.38151956,13.2192791 C5.52556349,13.9870418 4.34754471,14.3765346 3.14894289,14.2629016 C1.88942416,13.9926867 0.861986485,13.1380265 0.421448351,11.9940722 C-0.00561964514,10.8631735 -0.110404645,9.64654168 0.117549238,8.46557717 C0.32356439,6.38495634 1.39070196,4.46435425 3.08816307,3.11915577 C4.88116783,1.88096179 7.59346742,1.75928955 9.16614533,3.19072767 C10.0375772,3.98592835 10.453393,5.12541857 10.2851811,6.2573023 L10.3036359,6.09490808 C12.2276917,3.88451514 14.2019291,2.59319395 15.0238007,2.22450694 C17.2498617,1.22250025 20.5547646,-1.67616196 29.0259524,1.32270092 Z" id="Combined-Shape" fill="#746862" fill-rule="nonzero"></path>
                            <path d="M20.3781047,29.4170666 C19.7329217,30.408142 18.4797855,30.8089063 17.3792418,30.3761301 C16.3150072,29.9083578 15.536537,28.9625033 15.282185,27.8281703 C15.075174,27.1606034 15.1288818,26.4393849 15.432486,25.8098425 C16.0434469,25.0804742 16.9768424,24.7022881 17.9231883,24.8006786 L20.3781047,29.4170666 Z" id="Path" fill="#F6C4AE" fill-rule="nonzero"></path>
                            <path d="M18.7247937,29.0878358 C18.7247937,29.0091067 18.4098773,29.0878358 18.0090746,29.0162639 C17.4613183,28.922658 17.0053108,28.5435334 16.8132719,28.0220739 C16.6212329,27.5006143 16.7224284,26.9162875 17.0786398,26.4897756 C17.3577703,26.1462305 17.6369007,26.017401 17.6082719,25.9458291 C17.5796432,25.8742572 17.2432552,25.8814144 16.820981,26.2321168 C16.2734749,26.7261531 16.0818799,27.5037356 16.3371859,28.1955836 C16.592492,28.8874315 17.2432645,29.3541631 17.9804458,29.3741235 C18.4886064,29.3669663 18.7605796,29.1379362 18.7247937,29.0878358 Z" id="Path" fill="#EB996E" fill-rule="nonzero"></path>
                            <path d="M35.4783821,35.3022709 C32.8663903,36.4147911 29.9914358,36.759885 27.1903554,36.2971204 C27.1903554,36.2971204 30.8262082,39.4462843 36.1153721,36.6478228 L35.4783821,35.3022709 Z" id="Path" fill="#CF987F" fill-rule="nonzero"></path>
                        </g>
                        <path d="M41.0822742,61.0456856 C41.0822742,61.0456856 72.573913,118.847157 77.8058194,125.267157 L120.341003,106.35786 L94.5751171,62.112107 C89.864288,53.9367967 81.4109233,48.6246315 72.0013378,47.9265552 L71.7007358,47.9265552 C61.5876254,47.2680936 39.5577926,58.2257525 41.0822742,61.0456856 Z" id="Path" fill="#FF725E" fill-rule="nonzero"></path>
                        <path d="M107.450903,84.2206689 L107.307759,84.299398 L106.871171,84.5069565 L105.167759,85.2727759 L98.7692308,88.0855518 L89.0426087,92.3154515 L83.1665552,94.8562542 L81.6134448,95.5290301 C81.0237257,95.7674626 80.357659,95.7253398 79.8026756,95.4145151 C79.2676521,95.1077061 78.8040859,94.6904966 78.4428094,94.1906355 C78.0749716,93.6995216 77.7629076,93.1690129 77.5123746,92.6088963 L77.5123746,92.6088963 C75.651505,89.5670903 73.7476923,86.2604682 71.9082943,82.7892308 C70.4768562,80.0551839 69.11699,77.3497659 67.8716388,74.7016054 C67.2561204,73.3846823 66.6644593,72.0820736 66.0966555,70.7937793 C65.5096717,69.5286581 65.1279443,68.1781162 64.9658194,66.7929097 C64.8416437,65.4410411 65.2018421,64.0890288 65.9821405,62.9781271 C66.7315772,61.9777551 67.6379377,61.105232 68.666087,60.3943813 C73.0765276,57.1850124 78.2041475,55.1015329 83.6031438,54.3250836 C84.7268227,54.1676254 85.6071572,54.0960535 86.201204,54.0674247 L86.9169231,54.0674247 C86.9954519,54.0594837 87.0745815,54.0594837 87.1531104,54.0674247 L86.9240803,54.0674247 L86.2441472,54.1246823 C85.6501003,54.1747826 84.7769231,54.2678261 83.6604013,54.4467559 C80.50746,54.9527985 77.4407452,55.8971443 74.5492977,57.2523746 C72.5557856,58.1868925 70.6594652,59.3160542 68.8879599,60.6234114 C67.8927157,61.3212563 67.0135463,62.1714422 66.2827425,63.1427425 C65.5577727,64.1876207 65.2256638,65.455212 65.3451505,66.7213378 C65.5094898,68.0676769 65.8863462,69.3794268 66.4616722,70.6076923 C67.0199331,71.8888294 67.6211371,73.1914381 68.2438127,74.5083612 C69.4820067,77.1422074 70.8275585,79.8404682 72.273311,82.5745151 C74.112709,86.0385953 76.0022074,89.3380602 77.8559197,92.372709 L77.8559197,92.372709 L77.8559197,92.372709 C78.2886211,93.4477075 79.0373207,94.3661124 80.0030769,95.0065552 C80.468414,95.2753025 81.0329922,95.3097604 81.5275585,95.0995987 L83.0878261,94.4339799 L88.9638796,91.921806 L98.7191304,87.7706355 L105.160602,85.0580602 L106.892642,84.3423411 L107.336388,84.1705686 C107.400803,84.2278261 107.450903,84.2135117 107.450903,84.2206689 Z" id="Path" fill="#263238" fill-rule="nonzero"></path>
                        <g id="Group" opacity="0.7" transform="translate(71.571906, 66.277592)" fill="#FFFFFF" fill-rule="nonzero">
                            <path d="M4.38020067,1.989699 C4.38020067,3.0846266 3.49258647,3.9722408 2.39765886,3.9722408 C1.30273126,3.9722408 0.415117057,3.0846266 0.415117057,1.989699 C0.415117057,0.894771391 1.30273126,0.00715719064 2.39765886,0.00715719064 C3.49258647,0.00715719064 4.38020067,0.894771391 4.38020067,1.989699 L4.38020067,1.989699 Z" id="Path"></path>
                        </g>
                        <g id="Group" opacity="0.7" transform="translate(75.866221, 74.150502)" fill="#FFFFFF" fill-rule="nonzero">
                            <path d="M4.0509699,2.62668896 C4.0509699,3.72161657 3.1633557,4.60923077 2.06842809,4.60923077 C0.973500488,4.60923077 0.0858862876,3.72161657 0.0858862876,2.62668896 C0.0858862876,1.53176136 0.973500488,0.644147157 2.06842809,0.644147157 C3.1633557,0.644147157 4.0509699,1.53176136 4.0509699,2.62668896 L4.0509699,2.62668896 Z" id="Path"></path>
                        </g>
                        <g id="Group" opacity="0.7" transform="translate(80.160535, 82.739130)" fill="#FFFFFF" fill-rule="nonzero">
                            <circle id="Oval" cx="2.53364548" cy="2.31892977" r="1.98254181"></circle>
                        </g>
                        <path d="M88.6060201,61.510903 C88.1616216,61.8425813 87.6814849,62.1234613 87.1745819,62.3482943 C86.2727759,62.8206689 85.0274247,63.4433445 83.5959866,64.0803344 C82.1645485,64.7173244 80.8834114,65.2612709 79.9386622,65.6262876 C79.4402326,65.8640299 78.9135042,66.0372009 78.3712375,66.1416054 C78.8305612,65.8349146 79.3226826,65.5804518 79.8384615,65.3829431 L83.4170569,63.7439465 L86.9956522,62.112107 C87.5076546,61.8507149 88.0479844,61.6489918 88.6060201,61.510903 L88.6060201,61.510903 Z" id="Path" fill="#263238" fill-rule="nonzero"></path>
                        <path d="M93.7591973,69.8561873 C93.2433275,70.1693659 92.696477,70.4284004 92.1273579,70.6291639 L88.1336455,72.3254181 L84.1470903,74.0574582 C83.6124598,74.332855 83.0513428,74.5534651 82.4723077,74.7159197 C82.9598008,74.3602094 83.4855425,74.0601285 84.0397324,73.8212709 C85.0345819,73.3131104 86.4230769,72.6546488 87.9833445,71.9818729 C89.543612,71.309097 90.9822074,70.7579933 92.0343144,70.3786622 C92.5896097,70.145183 93.1676796,69.970083 93.7591973,69.8561873 L93.7591973,69.8561873 Z" id="Path" fill="#263238" fill-rule="nonzero"></path>
                        <path d="M96.9513043,79.1963211 C95.4850414,80.0503326 93.9561847,80.7920314 92.3778595,81.4150502 C90.8509,82.1559735 89.2721692,82.7850738 87.6541137,83.2973913 C89.1203767,82.4433798 90.6492333,81.7016809 92.2275585,81.0786622 C93.7551205,80.3391052 95.3337512,79.7100448 96.9513043,79.1963211 L96.9513043,79.1963211 Z" id="Path" fill="#263238" fill-rule="nonzero"></path>
                        <path d="M50.5798662,54.2964548 C50.2654251,53.1183906 50.7198942,51.8693151 51.7178595,51.1687625 C53.464214,49.7373244 67.2346488,46.3018729 67.2346488,46.3018729 C67.2346488,46.3018729 71.0136455,45.743612 71.9870234,47.9050836 L50.5798662,54.2964548 Z" id="Path" fill="#FF725E" fill-rule="nonzero"></path>
                        <polygon id="Path" fill="#000000" fill-rule="nonzero" opacity="0.2" points="77.8058194 104.203545 110.299465 89.1018729 108.560268 86.1244816"></polygon>
                        <g id="Group" opacity="0.2" transform="translate(50.816054, 48.384615)" fill="#000000" fill-rule="nonzero">
                            <path d="M20.8417391,0.157458194 C20.6500341,0.364018309 20.428004,0.540194361 20.1832776,0.67993311 C19.5349722,1.08583718 18.8466479,1.42400348 18.1291639,1.68909699 C17.2273579,2.03264214 16.1251505,2.34755853 14.9084281,2.70541806 C13.6917057,3.06327759 12.353311,3.42113712 10.9361873,3.81478261 C8.51702472,4.46035394 6.05629188,4.93863049 3.57143813,5.24622074 C2.61953177,5.36073579 1.84655518,5.41083612 1.30976589,5.43230769 C1.03141509,5.46181173 0.750725374,5.46181173 0.472374582,5.43230769 C0.740319447,5.35535276 1.01680732,5.3120764 1.29545151,5.30347826 C1.82508361,5.23906355 2.5980602,5.14602007 3.54280936,5.00287625 C6.00127088,4.60762896 8.43790061,4.08685907 10.8431438,3.4426087 L14.8153846,2.36187291 C16.0392642,2.02548495 17.1414716,1.73919732 18.0432776,1.42428094 C19.0123474,1.08715016 19.9489754,0.66315232 20.8417391,0.157458194 Z" id="Path"></path>
                        </g>
                        <g id="Group" opacity="0.2" transform="translate(54.394649, 49.816054)" fill="#000000" fill-rule="nonzero">
                            <path d="M1.08789298,3.34956522 C0.554373459,2.9889458 0.239314925,2.383064 0.250501672,1.73919732 C0.128794937,1.1079217 0.336421579,0.458077273 0.801605351,0.0143143813 C0.68820546,0.572763457 0.628291284,1.14074985 0.622675585,1.71056856 C0.730697808,2.26917422 0.886338411,2.81750804 1.08789298,3.34956522 Z" id="Path"></path>
                        </g>
                        <g id="Group" opacity="0.2" transform="translate(58.688963, 48.384615)" fill="#000000" fill-rule="nonzero">
                            <path d="M1.78214047,4.2012709 C0.550143389,3.3722668 0.0446214351,1.80840064 0.55826087,0.415117057 C0.621003121,1.08434831 0.726186975,1.74891902 0.873177258,2.40481605 C1.1308526,3.02550481 1.43469156,3.62600543 1.78214047,4.2012709 L1.78214047,4.2012709 Z" id="Path"></path>
                        </g>
                        <g id="Group" opacity="0.2" transform="translate(63.698997, 46.953177)" fill="#000000" fill-rule="nonzero">
                            <path d="M2.01832776,3.64301003 C1.9109699,3.64301003 1.70341137,2.81993311 1.15946488,1.91812709 C0.615518395,1.01632107 -0.00715719064,0.415117057 0.0644147157,0.329230769 C0.135986622,0.243344482 0.916120401,0.744347826 1.49585284,1.72488294 C1.88899132,2.28347216 2.07387018,2.9622055 2.01832776,3.64301003 Z" id="Path"></path>
                        </g>
                        <path d="M112.282007,108.819933 C112.282007,108.819933 178.679264,121.838863 180.074916,129.174983 C181.470569,136.511104 178.643478,201.340936 178.643478,201.340936 L159.462207,201.727425 L157.379465,145.250033 L77.8058194,124.44408 L112.282007,108.819933 Z" id="Path" fill="#FF725E" fill-rule="nonzero"></path>
                        <path d="M112.282007,108.819933 C112.282007,108.819933 178.679264,121.838863 180.074916,129.174983 C181.470569,136.511104 178.643478,201.340936 178.643478,201.340936 L159.462207,201.727425 L157.379465,145.250033 L77.8058194,124.44408 L112.282007,108.819933 Z" id="Path" fill="#000000" fill-rule="nonzero" opacity="0.2"></path>
                        <path d="M179.237525,186.182007 L179.316254,199.444281 C179.316254,199.444281 190.710502,197.139666 189.780067,201.727425 C189.393579,203.631237 160.09204,212.291438 159.641137,211.883478 L159.132977,193.145953 L179.237525,186.182007 Z" id="Path" fill="#FF725E" fill-rule="nonzero"></path>
                        <path d="M179.237525,186.182007 L179.316254,199.444281 C179.316254,199.444281 190.710502,197.139666 189.780067,201.727425 C189.393579,203.631237 160.09204,212.291438 159.641137,211.883478 L159.132977,193.145953 L179.237525,186.182007 Z" id="Path" fill="#000000" fill-rule="nonzero" opacity="0.4"></path>
                        <path d="M189.100134,202.321472 C188.767437,201.459772 188.078538,200.783921 187.210635,200.467759 C186.598673,200.245891 185.950343,200.141479 185.299666,200.16 C181.486227,200.492027 177.726,201.27771 174.098662,202.500401 C170.461242,203.718198 166.963274,205.318434 163.663478,207.274247 C162.403813,208.025753 161.401806,208.705686 160.714716,209.12796 C160.374756,209.395834 160.013286,209.635218 159.63398,209.843679 C159.945235,209.552148 160.277771,209.284206 160.628829,209.042074 C161.294448,208.548227 162.274983,207.861137 163.527492,207.073846 C166.812658,205.051802 170.321765,203.418541 173.984147,202.206957 C177.641157,200.963819 181.44546,200.205846 185.299666,199.952441 C185.982069,199.946935 186.658645,200.078357 187.289365,200.33893 C187.765768,200.537654 188.191384,200.840967 188.534716,201.226421 C188.751585,201.465836 188.91937,201.745477 189.028562,202.049498 C189.066723,202.135776 189.090883,202.227586 189.100134,202.321472 L189.100134,202.321472 Z" id="Path" fill="#263238" fill-rule="nonzero"></path>
                        <path d="M179.208896,189.774916 C178.987576,189.941101 178.747325,190.080447 178.493177,190.190033 C178.013645,190.440535 177.305084,190.776923 176.424749,191.184883 C174.66408,192.00796 172.202007,193.074381 169.439331,194.14796 C166.676656,195.221538 164.135853,196.094716 162.28214,196.674448 C161.358863,196.967893 160.600201,197.196923 160.077726,197.340067 C159.810873,197.431569 159.534911,197.493961 159.254649,197.526154 C159.501644,197.387747 159.763306,197.27732 160.034783,197.196923 L162.18194,196.423946 C164.014181,195.779799 166.526355,194.870836 169.28903,193.797258 C172.051706,192.723679 174.513779,191.700201 176.303077,190.934381 L178.450234,190.04689 C178.691226,189.925963 178.945965,189.834642 179.208896,189.774916 Z" id="Path" fill="#263238" fill-rule="nonzero"></path>
                        <path d="M167.19913,197.340067 C167.19913,197.340067 167.19913,197.218395 167.37806,197.096722 C167.615585,196.93593 167.913995,196.893677 168.186823,196.982207 C168.383444,197.038939 168.559755,197.150685 168.694983,197.304281 C168.842368,197.48775 168.92759,197.713336 168.938328,197.948428 C168.948056,198.481084 168.661172,198.975076 168.193707,199.230603 C167.726243,199.48613 167.155546,199.460913 166.712441,199.165151 C166.522743,199.020248 166.386748,198.816256 166.325953,198.585418 C166.284729,198.387263 166.299601,198.181537 166.368896,197.991371 C166.452147,197.716243 166.654413,197.492963 166.92,197.38301 C167.106087,197.325753 167.220602,197.38301 167.213445,197.38301 C167.206288,197.38301 167.113244,197.425953 166.984415,197.518997 C166.796763,197.646072 166.66587,197.841129 166.619398,198.062943 C166.531263,198.371821 166.649181,198.702566 166.912843,198.88602 C167.249053,199.105199 167.67863,199.121464 168.030452,198.928337 C168.382274,198.735209 168.599186,198.364062 168.594783,197.962742 C168.598921,197.643485 168.400878,197.356465 168.100936,197.247023 C167.89168,197.164482 167.658888,197.164482 167.449632,197.247023 C167.299331,197.254181 167.227759,197.354381 167.19913,197.340067 Z" id="Path" fill="#263238" fill-rule="nonzero"></path>
                        <path d="M163.133846,211.282274 C163.122879,209.852941 163.365196,208.432965 163.849565,207.088161 C163.860532,208.517494 163.618216,209.937469 163.133846,211.282274 Z" id="Path" fill="#263238" fill-rule="nonzero"></path>
                        <path d="M166.046823,210.444883 C166.037555,209.536348 166.153151,208.630848 166.390368,207.753779 C166.505822,206.849231 166.74671,205.965174 167.106087,205.12709 C167.111283,206.037738 166.995762,206.945059 166.762542,207.825351 C166.642477,208.726665 166.401746,209.607738 166.046823,210.444883 L166.046823,210.444883 Z" id="Path" fill="#263238" fill-rule="nonzero"></path>
                        <path d="M169.23893,209.571706 C169.345501,207.626239 169.699039,205.702222 170.291037,203.845953 C170.184466,205.79142 169.830928,207.715437 169.23893,209.571706 L169.23893,209.571706 Z" id="Path" fill="#263238" fill-rule="nonzero"></path>
                        <path d="M172.874783,208.476656 C172.981528,206.404692 173.334719,204.352821 173.92689,202.364415 C173.820144,204.436378 173.466954,206.488249 172.874783,208.476656 L172.874783,208.476656 Z" id="Path" fill="#263238" fill-rule="nonzero"></path>
                        <path d="M176.317391,207.410234 C176.424137,205.338271 176.777327,203.2864 177.369498,201.297993 C177.262753,203.369957 176.909562,205.421827 176.317391,207.410234 L176.317391,207.410234 Z" id="Path" fill="#263238" fill-rule="nonzero"></path>
                        <path d="M180.067759,206.036054 C180.062535,205.094762 180.177991,204.156683 180.411304,203.244749 C180.531329,202.313364 180.771917,201.401532 181.127023,200.532174 C181.136362,201.471345 181.020835,202.407591 180.783478,203.316321 C180.668119,204.250925 180.427381,205.165729 180.067759,206.036054 L180.067759,206.036054 Z" id="Path" fill="#263238" fill-rule="nonzero"></path>
                        <path d="M183.825284,204.61893 C183.929959,203.022642 184.284998,201.452744 184.877391,199.966756 C184.881982,200.769696 184.763714,201.568614 184.526689,202.335786 C184.413045,203.128679 184.176398,203.89899 183.825284,204.61893 L183.825284,204.61893 Z" id="Path" fill="#263238" fill-rule="nonzero"></path>
                        <path d="M160.750502,44.1761873 L160.750502,44.1332441 C164.109979,42.7502659 167.392705,41.1877452 170.584482,39.4524415 C174.878796,36.8615385 174.678395,36.4750502 174.284749,36.01699 C173.246957,34.8074247 166.519197,40.3113043 167.285017,38.271505 C168.050836,36.2317057 176.288763,32.5457525 175.157926,31.3004013 C173.669231,29.711505 166.733913,35.5947157 166.111237,36.0313043 C165.488562,36.467893 164.815786,35.6018729 165.395518,35.2225418 C166.240067,34.6785953 174.928896,28.7309699 173.483144,27.156388 C172.681538,26.2832107 171.2501,27.872107 171.2501,27.872107 C171.2501,27.872107 163.527492,34.027291 162.86903,33.2614716 C162.210569,32.4956522 166.612241,28.7166555 168.19398,27.5357191 C169.775719,26.3547826 169.832977,25.1738462 168.752241,24.9090301 C168.036522,24.7229431 163.09806,28.1798662 161.59505,29.3679599 C160.09204,30.5560535 155.912241,33.8913043 156.620803,30.5846823 C157.329365,27.2780602 156.620803,24.4724415 155.905084,23.8426087 C155.189365,23.2127759 154.051371,23.9857525 154.280401,25.0092308 C154.41808,26.1422768 154.396398,27.2890217 154.215987,28.4160535 C154.108623,29.3299017 153.844724,30.218443 153.435853,31.0427425 C152.963478,32.001806 152.519732,32.789097 152.126087,33.4547157 C151.475489,34.5084754 151.264732,35.7755866 151.539197,36.9832107 C152.090301,38.7510368 158.495987,45.0064214 158.495987,45.0064214 L160.750502,44.1761873 Z" id="Path" fill="#FF725E" fill-rule="nonzero"></path>
                        <g id="Group" opacity="0.7" transform="translate(151.016722, 23.334448)" fill="#FFFFFF" fill-rule="nonzero">
                            <path d="M9.73377926,20.8417391 L9.73377926,20.798796 C13.0932562,19.4158177 16.3759831,17.853297 19.5677592,16.1179933 C23.8620736,13.5270903 23.6616722,13.140602 23.2680268,12.6825418 C22.2302341,11.4729766 15.5024749,16.9768562 16.2682943,14.9370569 C17.0341137,12.8972575 25.2720401,9.21130435 24.141204,7.96595318 C22.6525084,6.37705686 15.7171906,12.2602676 15.0945151,12.6968562 C14.4718395,13.1334448 13.7990635,12.2674247 14.378796,11.8880936 C15.2233445,11.3441472 23.9121739,5.39652174 22.4664214,3.8219398 C21.6648161,2.94876254 20.2333779,4.53765886 20.2333779,4.53765886 C20.2333779,4.53765886 12.5107692,10.6928428 11.8523077,9.92702341 C11.1938462,9.16120401 15.5955184,5.38220736 17.1772575,4.2012709 C18.7589967,3.02033445 18.8162542,1.83939799 17.7355184,1.57458194 C17.0197993,1.38849498 12.0813378,4.84541806 10.5783278,6.03351171 C9.07531773,7.22160535 4.89551839,10.5568562 5.60408027,7.25023411 C6.31264214,3.94361204 5.60408027,1.13799331 4.8883612,0.508160535 C4.17264214,-0.121672241 3.03464883,0.651304348 3.26367893,1.67478261 C3.40135743,2.80782868 3.37967528,3.95457358 3.19926421,5.08160535 C3.09190091,5.9954535 2.82800171,6.88399486 2.41913043,7.70829431 C1.94675585,8.66735786 1.50301003,9.45464883 1.10936455,10.1202676 C0.458766579,11.1740272 0.248009749,12.4411384 0.522474916,13.6487625 C1.0735786,15.4165886 7.47926421,21.6719732 7.47926421,21.6719732 L9.73377926,20.8417391 Z" id="Path"></path>
                        </g>
                        <path d="M77.0543144,49.1361204 C78.54301,50.2454849 120.154916,51.6697659 120.154916,51.6697659 L147.30214,36.3748495 L158.173913,46.7599331 C158.173913,46.7599331 126.481873,68.081204 122.953378,68.8255518 C119.424883,69.5698997 93.6947826,68.8255518 93.6947826,68.8255518 L77.0543144,49.1361204 Z" id="Path" fill="#FF725E" fill-rule="nonzero"></path>
                        <path d="M147.781672,36.9903679 L157.150435,46.9030769 C157.752471,47.5464555 158.733289,47.6557726 159.462207,47.1607358 L159.526622,47.1177926 C159.964171,46.8215733 160.249123,46.3477479 160.305657,45.822392 C160.362191,45.2970361 160.184575,44.7734329 159.820067,44.390903 L150.379732,34.5211371 C149.814034,33.9220503 148.911398,33.7888745 148.196789,34.1990635 L148.196789,34.1990635 C147.716846,34.4704719 147.388835,34.9479932 147.307729,35.4933641 C147.226622,36.038735 147.40148,36.5910419 147.781672,36.9903679 L147.781672,36.9903679 Z" id="Path" fill="#FF725E" fill-rule="nonzero"></path>
                        <path d="M147.781672,36.9903679 L157.150435,46.9030769 C157.752471,47.5464555 158.733289,47.6557726 159.462207,47.1607358 L159.526622,47.1177926 C159.964171,46.8215733 160.249123,46.3477479 160.305657,45.822392 C160.362191,45.2970361 160.184575,44.7734329 159.820067,44.390903 L150.379732,34.5211371 C149.814034,33.9220503 148.911398,33.7888745 148.196789,34.1990635 L148.196789,34.1990635 C147.716846,34.4704719 147.388835,34.9479932 147.307729,35.4933641 C147.226622,36.038735 147.40148,36.5910419 147.781672,36.9903679 L147.781672,36.9903679 Z" id="Path" fill="#FFFFFF" fill-rule="nonzero" opacity="0.5"></path>
                        <path d="M123.039264,68.8040803 C122.804742,68.7102456 122.585294,68.5824348 122.38796,68.4247492 C121.854191,68.0142949 121.360524,67.5541775 120.913579,67.0505686 C117.849704,63.6521756 116.968616,58.8145036 118.637592,54.5541137 C118.878653,53.9262126 119.178186,53.322354 119.532241,52.7505017 C119.648556,52.5307361 119.79825,52.3303389 119.975987,52.1564548 C120.040401,52.1564548 119.43204,53.0654181 118.888094,54.6471572 C117.396271,58.82962 118.24436,63.4900185 121.11398,66.878796 C122.216187,68.1456187 123.103679,68.7468227 123.039264,68.8040803 Z" id="Path" fill="#263238" fill-rule="nonzero"></path>
                        <path d="M154.595318,43.6537124 C154.497712,43.7553255 154.389769,43.8464767 154.273244,43.9256856 L153.314181,44.6414047 C152.476789,45.2640803 151.25291,46.1515719 149.735585,47.2323077 C146.693779,49.3794649 142.435251,52.313913 137.661405,55.4129766 C132.887559,58.5120401 128.485886,61.2246154 125.250836,63.1284281 C123.647625,64.0874916 122.33786,64.8461538 121.428896,65.3543144 L120.376789,65.9340468 C120.25782,66.0102759 120.130557,66.0727072 119.997458,66.1201338 C120.100289,66.0216857 120.215829,65.9374378 120.341003,65.8696321 L121.357324,65.2326421 L125.114849,62.9065552 C128.292642,60.9454849 132.665686,58.2114381 137.439532,55.1123746 C142.213378,52.013311 146.514849,49.1003344 149.585284,47.0247492 L153.242609,44.5268896 L154.237458,43.8612709 C154.346451,43.7756888 154.466911,43.7058217 154.595318,43.6537124 Z" id="Path" fill="#263238" fill-rule="nonzero"></path>
                        <path d="M120.026094,65.6549164 C120.026094,65.7551171 114.529365,65.6549164 107.758662,65.3543144 C100.98796,65.0537124 95.4983946,64.7888963 95.4983946,64.6886957 C95.4983946,64.588495 100.995117,64.6886957 107.772977,64.9821405 C114.550836,65.2755853 120.033244,65.5618729 120.026094,65.6549164 Z" id="Path" fill="#263238" fill-rule="nonzero"></path>
                        <g id="Group" opacity="0.2" transform="translate(79.444816, 49.100334)" fill="#000000" fill-rule="nonzero">
                            <path d="M21.7149164,19.9041472 C20.0542688,15.2813989 17.7013687,10.9375834 14.7366555,7.02120401 C11.9739799,3.29946488 5.05297659,0.372173913 0.422274247,0.579732441 C7.03551839,3.56428094 15.767291,12.5179264 18.9379264,19.9614047 L21.7149164,19.9041472 Z" id="Path"></path>
                        </g>
                        <path d="M42.1486957,59.1919732 C41.8838796,57.8893645 16.0965217,78.7883612 5.26053512,87.6346488 C2.27747861,90.0699603 0.548105515,93.7179388 0.551099787,97.5688294 L0.551099787,97.5688294 C0.551099787,100.970413 1.90237739,104.232676 4.30766002,106.637959 C6.71294266,109.043241 9.97520598,110.394515 13.3767893,110.394515 L44.789699,110.394515 L44.789699,94.4626087 L24.3344482,94.4626087 L50.5941806,77.1636789 L42.1486957,59.1919732 Z" id="Path" fill="#FF725E" fill-rule="nonzero"></path>
                        <path d="M48.8120401,108.626689 L48.8120401,108.576589 C52.402019,109.126996 56.0194187,109.480612 59.6480268,109.635853 C64.6580602,109.635853 64.6938462,109.192107 64.5936455,108.605217 C64.3288294,107.030635 55.7402007,108.254515 57.4364548,106.923278 C59.132709,105.59204 68.1149833,106.63699 67.7714381,105.005151 C67.3205351,102.857993 58.3525753,104.325217 57.5795987,104.396789 C56.8066221,104.468361 56.692107,103.351839 57.3863545,103.330368 C58.3883612,103.330368 68.8951171,102.686221 68.4728428,100.589164 C68.2366555,99.429699 66.189699,100.045217 66.189699,100.045217 C66.189699,100.045217 56.3986622,101.340669 56.2340468,100.345819 C56.0694314,99.3509699 61.7880268,98.377592 63.7419398,98.1986622 C65.6958528,98.0197324 66.3686288,97.0248829 65.5741806,96.237592 C65.0373913,95.7008027 59.0396656,96.1230769 57.1143813,96.352107 C55.189097,96.5811371 49.9142475,97.3040134 52.2260201,94.8347826 C54.5377926,92.3655518 55.3823411,89.5957191 55.0888963,88.6867559 C54.9108593,88.2701945 54.4861682,88.0143643 54.0346979,88.0517162 C53.5832277,88.089068 53.2063548,88.4112146 53.0991973,88.8513712 C52.6273145,89.8844816 52.0156095,90.8477965 51.2812709,91.7142475 C50.7195828,92.4411544 50.0368134,93.0658157 49.2629431,93.5608027 C48.3611371,94.1405351 47.5738462,94.5914381 46.893913,94.9564548 C45.7960106,95.5261521 44.9639483,96.5020276 44.5749833,97.6761873 C44.1312375,99.4797993 46.4000669,108.132843 46.4000669,108.132843 L48.8120401,108.626689 Z" id="Path" fill="#FF725E" fill-rule="nonzero"></path>
                        <g id="Group" opacity="0.7" transform="translate(44.374582, 87.749164)" fill="#FFFFFF" fill-rule="nonzero">
                            <path d="M4.43745819,20.8775251 L4.43745819,20.8274247 C8.02743709,21.3778318 11.6448367,21.7314481 15.2734448,21.886689 C20.2834783,21.886689 20.3192642,21.4429431 20.2190635,20.8560535 C19.9542475,19.2814716 11.3656187,20.5053512 13.0618729,19.1741137 C14.7581271,17.8428763 23.7404013,18.8878261 23.3968562,17.2559866 C22.9459532,15.1088294 13.9779933,16.5760535 13.2050167,16.6476254 C12.4320401,16.7191973 12.3175251,15.6026756 13.0117726,15.581204 C14.0137793,15.581204 24.5205351,14.9370569 24.0982609,12.84 C23.8620736,11.6805351 21.8151171,12.2960535 21.8151171,12.2960535 C21.8151171,12.2960535 12.0240803,13.591505 11.8594649,12.5966555 C11.6948495,11.601806 17.4134448,10.6284281 19.3673579,10.4494983 C21.3212709,10.2705686 21.9940468,9.27571906 21.1995987,8.48842809 C20.6628094,7.9516388 14.6650836,8.37391304 12.7397993,8.60294314 C10.8145151,8.83197324 5.53966555,9.5548495 7.85143813,7.08561873 C10.1632107,4.61638796 11.0077592,1.84655518 10.7143144,0.937591973 C10.5362774,0.521030577 10.1115863,0.265200433 9.660116,0.302552289 C9.20864573,0.339904146 8.83177282,0.662050741 8.72461538,1.10220736 C8.25273255,2.13531776 7.6410276,3.09863264 6.90668896,3.96508361 C6.34500082,4.69199051 5.66223144,5.31665186 4.8883612,5.8116388 C3.98655518,6.39137124 3.19926421,6.84227425 2.5193311,7.20729097 C1.42142862,7.77698818 0.589366329,8.75286371 0.200401338,9.92702341 C-0.243344482,11.7306355 2.02548495,20.3836789 2.02548495,20.3836789 L4.43745819,20.8775251 Z" id="Path"></path>
                        </g>
                        <path d="M1.57458194,92.1723077 C1.78774634,91.9096115 2.02760481,91.669753 2.290301,91.4565886 C2.9888233,90.834461 3.74904201,90.2852809 4.55913043,89.817592 C7.25836742,88.2404527 10.3878401,87.5589342 13.4984615,87.8708361 C16.6006508,88.2342728 19.5125557,89.5551368 21.8294314,91.6498328 C22.5260042,92.2752406 23.1589259,92.968098 23.7189298,93.7182609 C23.9384229,93.9825341 24.1235947,94.2735185 24.2700334,94.5842809 C23.4665069,93.6109546 22.5934236,92.6972071 21.6576589,91.8502341 C19.3423187,89.8694952 16.4892638,88.6236197 13.4626756,88.2716388 C10.4226248,87.9706171 7.36281176,88.5995509 4.68795987,90.0752508 C3.60074802,90.697944 2.56021608,91.398808 1.57458194,92.1723077 Z" id="Path" fill="#263238" fill-rule="nonzero"></path>
                        <path d="M46.9082274,72.5759197 C46.9654849,72.6546488 41.1824749,76.8702341 33.9608696,82.0663545 C26.7392642,87.2624749 20.8632107,91.3349164 20.798796,91.2490301 C20.7343813,91.1631438 26.5245485,86.9547157 33.7461538,81.7585953 C40.9677592,76.5624749 46.8438127,72.4900334 46.9082274,72.5759197 Z" id="Path" fill="#263238" fill-rule="nonzero"></path>
                        <path d="M42.2632107,102.915251 C42.1330345,102.955389 41.9984307,102.979425 41.862408,102.986823 L40.695786,103.108495 C39.6866221,103.215853 38.219398,103.344682 36.4014716,103.487826 C32.7799331,103.766957 27.7555853,104.060401 22.2087625,104.203545 C16.6619398,104.346689 11.6304348,104.361003 7.99458194,104.296589 C6.17665552,104.296589 4.70227425,104.21786 3.70026756,104.174916 L2.53364548,104.117659 C2.39614807,104.117279 2.25918932,104.100459 2.12568562,104.067559 C2.26116416,104.050934 2.39816694,104.050934 2.53364548,104.067559 L8.00889632,104.067559 C11.6447492,104.067559 16.669097,104.067559 22.2159197,103.867157 C27.7627425,103.666756 32.7727759,103.45204 36.4014716,103.237324 L40.695786,102.979666 L41.8695652,102.922408 C42.0000106,102.904144 42.1321876,102.901741 42.2632107,102.915251 Z" id="Path" fill="#263238" fill-rule="nonzero"></path>
                        <g id="Group" opacity="0.2" transform="translate(14.314381, 86.317726)" fill="#000000" fill-rule="nonzero">
                            <path d="M12.804214,6.37705686 C12.7040134,3.83625418 10.6570569,1.63183946 8.28802676,0.801605351 C5.91899666,-0.0286287625 2.68394649,0.722876254 0.322073579,1.66046823 C4.08675585,2.75551839 7.94448161,4.87404682 10.0486957,8.18782609 L12.804214,6.37705686 Z" id="Path"></path>
                        </g>
                        <path d="M42.4135117,94.999398 L42.764214,108.633846 C42.7871554,109.511355 43.440892,110.243782 44.3101672,110.365886 L44.3888963,110.365886 C44.914087,110.437627 45.444247,110.274708 45.8385175,109.920416 C46.2327879,109.566124 46.4512473,109.056333 46.4358528,108.526488 L46.0064214,94.8777258 C45.9773938,94.0499174 45.386127,93.3492663 44.5749833,93.1814716 L44.5749833,93.1814716 C44.0355179,93.0692122 43.4743731,93.2107385 43.0526731,93.5654133 C42.6309732,93.9200881 42.3953693,94.4486749 42.4135117,94.999398 Z" id="Path" fill="#FF725E" fill-rule="nonzero"></path>
                        <path d="M42.4135117,94.999398 L42.764214,108.633846 C42.7871554,109.511355 43.440892,110.243782 44.3101672,110.365886 L44.3888963,110.365886 C44.914087,110.437627 45.444247,110.274708 45.8385175,109.920416 C46.2327879,109.566124 46.4512473,109.056333 46.4358528,108.526488 L46.0064214,94.8777258 C45.9773938,94.0499174 45.386127,93.3492663 44.5749833,93.1814716 L44.5749833,93.1814716 C44.0355179,93.0692122 43.4743731,93.2107385 43.0526731,93.5654133 C42.6309732,93.9200881 42.3953693,94.4486749 42.4135117,94.999398 Z" id="Path" fill="#FFFFFF" fill-rule="nonzero" opacity="0.5"></path>
                        <path d="M48.4828094,79.0173913 C49.7861069,78.0941203 50.9378671,76.9737498 51.8967893,75.6964548 C52.8944093,74.2894456 53.6224384,72.7096223 54.0439465,71.0371237 C54.293829,70.0526031 54.4448778,69.0456109 54.4948495,68.0311037 C54.5372435,66.9422583 54.4556035,65.8521248 54.251505,64.7817391 C53.836388,62.5916388 52.8200669,60.573311 51.1595987,59.5283612 C49.6786763,58.6468192 47.9606338,58.2466928 46.2426087,58.3832107 C45.0784522,58.4629784 43.9224932,58.6352953 42.7856856,58.8985284 C42.3666521,59.0017851 41.9409753,59.0759198 41.5117057,59.1204013 C41.5117057,59.1204013 41.6119064,59.070301 41.8194649,58.9987291 C42.0270234,58.9271572 42.3419398,58.8412709 42.7427425,58.733913 C43.8785723,58.4068938 45.0435252,58.1911618 46.2211371,58.0897659 C48.0031857,57.9078228 49.7966473,58.3016318 51.3385284,59.2134448 C52.2307116,59.795967 52.9676529,60.5869507 53.4856856,61.5180602 C54.0366602,62.50013 54.4211935,63.5666658 54.6236789,64.6743813 C54.8342132,65.7753005 54.9158776,66.8969852 54.8670234,68.0167893 C54.8111881,69.0585347 54.6505328,70.0920037 54.3874916,71.1015385 C53.9292447,72.8066364 53.1521079,74.409481 52.0971906,75.8252843 C51.3869363,76.7770445 50.5376745,77.6166555 49.5778595,78.3159866 C49.3184212,78.5068474 49.0457628,78.6790527 48.7619398,78.8313043 C48.6776092,78.9055009 48.5837334,78.9680848 48.4828094,79.0173913 Z" id="Path" fill="#263238" fill-rule="nonzero"></path>
                        <path d="M167.32796,103.895786 L142.428094,131.45097 L128.514515,121.638462 L151.417525,94.3051505 L90.967893,126.247692 C85.141631,129.256295 77.9817073,127.291985 74.5063545,121.731505 L74.5063545,121.731505 C72.6038481,118.68843 72.0888323,114.978623 73.0904562,111.532381 C74.0920802,108.086139 76.5153448,105.23032 79.7525753,103.68107 L145.090569,72.4184615 C154.579615,67.8716835 165.958553,70.6475455 172.287893,79.0531773 L172.287893,79.0531773 C178.457391,87.2553177 175.20087,95.8868896 167.32796,103.895786 Z" id="Path" fill="#FF725E" fill-rule="nonzero"></path>
                        <path d="M157.515452,86.7328428 C157.515452,86.7328428 157.515452,86.6970569 157.44388,86.6111706 L157.257793,86.2318395 C157.038924,85.7397852 156.765218,85.2740056 156.441873,84.8433445 C155.945246,84.1336424 155.271658,83.5661511 154.48796,83.1971906 C153.421231,82.7347264 152.222116,82.6787168 151.116923,83.0397324 L151.116923,83.0397324 L117.191839,100.796722 L87.9117726,115.969967 L79.0225418,120.536254 L76.5819398,121.752977 L75.9449498,122.060736 L75.7230769,122.153779 C75.7230769,122.153779 75.7874916,122.103679 75.9234783,122.02495 L76.5461538,121.681405 L78.9366555,120.400268 L87.775786,115.733779 L117.005753,100.453177 L151.002408,82.8464883 L151.002408,82.8464883 C152.158929,82.4768535 153.41162,82.5508414 154.516589,83.0540468 C155.31652,83.4434187 155.99834,84.0387764 156.491973,84.7789298 C156.806376,85.2255904 157.070411,85.705655 157.279264,86.2103679 L157.436722,86.5968562 C157.508294,86.6898997 157.522609,86.7328428 157.515452,86.7328428 Z" id="Path" fill="#263238" fill-rule="nonzero"></path>
                        <path d="M160.521472,83.0325753 C160.600201,83.09699 158.460201,85.8954515 155.740468,89.216388 C153.020736,92.5373244 150.730435,95.2427425 150.673177,95.1783278 C150.61592,95.113913 152.734448,92.3154515 155.454181,88.9873579 C157.042682,86.9189788 158.733903,84.9315557 160.521472,83.0325753 L160.521472,83.0325753 Z" id="Path" fill="#263238" fill-rule="nonzero"></path>
                        <path d="M155.017592,117.537391 L141.762475,132.782207 C141.762475,132.782207 149.327625,141.714381 148.06796,142.766488 C146.808294,143.818595 125.823411,125.102542 125.823411,125.102542 L139.565217,107.538796 L155.017592,117.537391 Z" id="Path" fill="#FF725E" fill-rule="nonzero"></path>
                        <path d="M155.017592,117.537391 L141.762475,132.782207 C141.762475,132.782207 149.327625,141.714381 148.06796,142.766488 C146.808294,143.818595 125.823411,125.102542 125.823411,125.102542 L139.565217,107.538796 L155.017592,117.537391 Z" id="Path" fill="#000000" fill-rule="nonzero" opacity="0.4"></path>
                        <path d="M151.675184,121.645619 C151.625084,121.738662 147.903344,119.777592 143.358528,117.265418 C138.813712,114.753244 135.170702,112.64903 135.220803,112.563144 C135.270903,112.477258 138.992642,114.431171 143.537458,116.943344 C148.082274,119.455518 151.732441,121.559732 151.675184,121.645619 Z" id="Path" fill="#263238" fill-rule="nonzero"></path>
                        <path d="M134.197324,122.003478 C134.197324,122.003478 134.125753,122.132308 134.025552,122.361338 C133.895631,122.678667 133.863237,123.027519 133.932508,123.363344 C134.014555,123.855396 134.314383,124.284098 134.748428,124.529967 C135.301816,124.743824 135.928692,124.623741 136.363872,124.220514 C136.799051,123.817288 136.966501,123.201371 136.795385,122.633311 C136.582792,122.184701 136.181385,121.85413 135.700334,121.731505 C135.370799,121.635479 135.020706,121.635479 134.691171,121.731505 C134.454983,121.810234 134.340468,121.903278 134.318997,121.874649 C134.297525,121.84602 134.390569,121.731505 134.633913,121.602676 C134.980298,121.425313 135.377804,121.374675 135.757592,121.459532 C136.34443,121.568816 136.845579,121.947993 137.110301,122.48301 C137.355942,123.187864 137.160151,123.971284 136.61179,124.477702 C136.063429,124.98412 135.266937,125.117087 134.583813,124.816254 C134.071718,124.509482 133.734709,123.978758 133.674849,123.384816 C133.617988,122.998196 133.696362,122.6038 133.896722,122.268294 C134.047023,122.060736 134.190167,121.989164 134.197324,122.003478 Z" id="Path" fill="#263238" fill-rule="nonzero"></path>
                        <polyline id="Path" fill="#000000" fill-rule="nonzero" opacity="0.2" points="133.782207 103.68107 150.966622 94.6057525 159.86301 83.8341806 133.782207 103.68107"></polyline>
                    </g>
                    <path d="M340.288846,123.721925 C349.142314,138.769536 347.997495,161.82409 334.692992,174.819992 C328.743246,180.631732 310.056868,190.231463 303.218691,175.915064 C296.078202,160.965742 310.692043,153.401981 318.581653,153.699552 C327.388241,154.031708 334.630935,164.653923 339.575341,172.925401 C353.541157,196.288763 338.774576,230.182286 308.514152,242.670718 C177.453903,296.759086 12.3242324,147.174999 0.768923254,141.330046" id="Path-45" stroke="#73718A"></path>
                </g>
            </g>
        </g>
    </g>
</svg>