<?xml version="1.0" encoding="UTF-8"?>
<svg width="24px" height="13px" viewBox="0 0 24 13" version="1.1" xmlns="http://www.w3.org/2000/svg" xmlns:xlink="http://www.w3.org/1999/xlink">
    <title>B0C5D917-89DA-4271-929D-04D5E106FE3D</title>
    <g id="Page-1" stroke="none" stroke-width="1" fill="none" fill-rule="evenodd">
        <g id="Authorization_Customer" transform="translate(-1462.000000, -475.000000)" fill="#7E8CCC" fill-rule="nonzero">
            <g id="eye" transform="translate(1462.000000, 475.000000)">
                <path d="M11.7123725,0.000640522876 C14.0296471,0.000640522876 16.2430654,0.533326797 18.2912745,1.58378431 C20.2444118,2.58551634 21.972451,4.04723529 23.2885425,5.81086928 L23.2885425,5.81086928 L23.4248824,5.99346405 L23.4248824,6.4510719 L23.288634,6.63366667 C21.9725425,8.39734641 20.2445033,9.85906536 18.291366,10.8607974 C16.2431569,11.9112549 14.0297386,12.4438954 11.7124641,12.4438954 C9.39518954,12.4438954 7.18177124,11.9112549 5.13356209,10.8607974 C3.18037908,9.85906536 1.45238562,8.39734641 0.136294118,6.63366667 L0.136294118,6.63366667 L-2.43360887e-13,6.4510719 L-2.43360887e-13,5.99538562 L0.136202614,5.81086928 C1.45229412,4.04718954 3.18033333,2.58551634 5.13347059,1.58373856 C7.18167974,0.533281046 9.39509804,0.000640522876 11.7123725,0.000640522876 Z M11.7124183,1.37318954 C7.72154902,1.37318954 4.04824183,3.13366667 1.55418301,6.22222222 C4.04824183,9.31082353 7.72154902,11.0712549 11.7124183,11.0712549 C15.7032876,11.0712549 19.3766405,9.31086928 21.8706536,6.22222222 C19.3765948,3.13366667 15.7032876,1.37318954 11.7124183,1.37318954 Z M11.7124183,2.56273203 C13.7306144,2.56273203 15.372549,4.20466667 15.372549,6.22286275 C15.372549,8.24105882 13.7306144,9.88299346 11.7124183,9.88299346 C9.69422222,9.88299346 8.05228758,8.24105882 8.05228758,6.22286275 C8.05228758,4.20466667 9.69422222,2.56273203 11.7124183,2.56273203 Z M11.7124183,3.93528105 C10.4510458,3.93528105 9.4248366,4.9614902 9.4248366,6.22286275 C9.4248366,7.48423529 10.4510458,8.51044444 11.7124183,8.51044444 C12.9737908,8.51044444 14,7.48423529 14,6.22286275 C14,4.9614902 12.9737908,3.93528105 11.7124183,3.93528105 Z M11.7124183,5.30769281 C12.2177769,5.30769281 12.627451,5.7173669 12.627451,6.22272549 C12.627451,6.72808408 12.2177769,7.13775817 11.7124183,7.13775817 C11.2070597,7.13775817 10.7973856,6.72808408 10.7973856,6.22272549 C10.7973856,5.7173669 11.2070597,5.30769281 11.7124183,5.30769281 Z" id="Combined-Shape"></path>
            </g>
        </g>
    </g>
</svg>