<?xml version="1.0" standalone="no"?>
<!DOCTYPE svg PUBLIC "-//W3C//DTD SVG 1.1//EN" "http://www.w3.org/Graphics/SVG/1.1/DTD/svg11.dtd" >
<svg xmlns="http://www.w3.org/2000/svg">
<metadata>Generated by IcoMoon</metadata>
<defs>
<font id="icomoon" horiz-adv-x="1024">
<font-face units-per-em="1024" ascent="960" descent="-64" />
<missing-glyph horiz-adv-x="1024" />
<glyph unicode="&#x20;" horiz-adv-x="512" d="" />
<glyph unicode="&#xe900;" glyph-name="arrow-procces-bottom" d="M257.6 572.72c4.8 3.2 11.2 4.8 14.4 1.6l1.6-1.6 238.4-225.6 236.8 225.6c4.8 3.2 11.2 4.8 14.4 1.6l1.6-1.6c4.8-3.2 4.8-9.6 1.6-14.4l-1.6-1.6-244.8-233.6c-4.8-3.2-11.2-4.8-14.4-1.6l-1.6 1.6-246.4 233.6c-3.2 4.8-3.2 11.2 0 16v0z" />
<glyph unicode="&#xe901;" glyph-name="arrow-procces-top" d="M257.6 323.12c4.8-3.2 11.2-4.8 14.4-1.6l1.6 1.6 238.4 225.6 236.8-225.6c4.8-3.2 11.2-4.8 14.4-1.6l1.6 1.6c4.8 3.2 4.8 9.6 1.6 14.4l-1.6 1.6-244.8 233.6c-4.8 3.2-11.2 4.8-14.4 1.6l-1.6-1.6-246.4-233.6c-3.2-4.8-3.2-11.2 0-16v0z" />
<glyph unicode="&#xe902;" glyph-name="star" d="M495.796-53.987l-159.229 318.457c-1.757 3.514-4.601 6.34-8.097 8.097l-318.457 159.229c-13.351 6.684-13.351 25.723 0 32.407l318.457 159.229c3.514 1.757 6.34 4.601 8.097 8.097l159.229 318.457c6.684 13.351 25.723 13.351 32.407 0l159.229-318.457c1.757-3.514 4.601-6.34 8.097-8.097l318.457-159.229c13.351-6.684 13.351-25.723 0-32.407l-318.457-159.229c-3.514-1.757-6.34-4.601-8.097-8.097l-159.229-318.457c-6.666-13.351-25.723-13.351-32.407 0z" />
<glyph unicode="&#xe903;" glyph-name="rating" horiz-adv-x="964" d="M961.243 565.73c-6.346 20.364-23.655 34.782-44.052 36.707l-278.21 26.357-109.95 268.616c-8.118 19.735-26.589 32.472-47.148 32.472s-39.037-12.737-47.103-32.472l-109.95-268.616-278.254-26.357c-20.397-1.964-37.67-16.382-44.052-36.707-6.346-20.364-0.485-42.7 14.941-56.819l210.305-192.431-62.008-284.989c-4.537-20.955 3.257-42.624 19.919-55.192 8.956-6.791 19.478-10.182 30.037-10.182 9.074 0 18.155 2.517 26.265 7.581l239.9 149.685 239.857-149.685c17.596-10.972 39.721-9.967 56.346 2.602 16.662 12.568 24.456 34.237 19.919 55.192l-62.008 284.989 210.305 192.431c15.419 14.119 21.287 36.409 14.941 56.819z" />
<glyph unicode="&#xe904;" glyph-name="arrow-bottom" d="M512-64c-281.6 0-512 230.4-512 512s230.4 512 512 512 512-230.4 512-512-230.4-512-512-512zM512 928c-264.533 0-480-215.467-480-480s215.467-480 480-480c264.533 0 480 215.467 480 480s-215.467 480-480 480zM509.867 785.067c8.533 0 14.933-6.4 14.933-12.8v-597.333l128 185.6c4.267 6.4 14.933 8.533 21.333 4.267s8.533-12.8 6.4-19.2l-2.133-2.133-155.733-228.267v2.133c0 0-2.133-2.133-2.133-2.133v0c-2.133-2.133-2.133-2.133-4.267-2.133h-4.267v-6.4c0 0 0 0 0 0s0 0-2.133 0v0 0c0 0 0 0-2.133 0h2.133c0 0-2.133 0-2.133 0v0h-2.133c0 0 0 0-2.133 0v0c0 0 0 0-2.133 0v0c0 0 0 0 0 0s0 0 0 0v0 0c0 0 0 0-2.133 2.133v0l-157.867 219.733c-4.267 6.4-4.267 17.067 4.267 21.333 6.4 4.267 14.933 4.267 21.333-2.133l2.133-2.133 130.133-179.2v597.333c-4.267 14.933 2.133 21.333 10.667 21.333v0z" />
<glyph unicode="&#xe905;" glyph-name="arrow-slide-left" horiz-adv-x="614" d="M566.016 922.368c-12.749 14.49-33.946 17.101-49.664 6.912l-4.557-3.43-493.363-434.176c-15.616-13.722-17.254-37.12-4.557-52.838l3.84-4.096 499.968-463.872c15.565-14.438 39.834-13.568 54.272 1.997 13.107 14.131 13.568 35.482 1.843 50.125l-3.891 4.096-468.787 435.098 461.414 406.016c14.49 12.749 17.101 33.946 6.912 49.664l-3.43 4.506z" />
<glyph unicode="&#xe906;" glyph-name="arrow-slide-right" horiz-adv-x="614" d="M15.36 906.752c12.8 14.49 33.997 17.101 49.664 6.912l4.608-3.43 493.312-434.176c15.667-13.722 17.254-37.171 4.608-52.89l-3.84-4.096-500.019-463.872c-15.514-14.438-39.834-13.517-54.272 2.048-13.107 14.131-13.517 35.482-1.843 50.074l3.891 4.198 468.838 435.046-461.466 406.016c-14.438 12.698-17.050 33.946-6.861 49.664l3.43 4.506z" />
<glyph unicode="&#xe907;" glyph-name="icons-facebook" d="M674.261 790.272h93.312v162.56c-16.085 2.133-71.467 7.168-135.936 7.168-134.571 0-226.731-84.651-226.731-240.213v-143.104h-148.48v-181.717h148.48v-457.173h182.016v457.131h142.507l22.613 181.717h-165.12v125.141c0 52.523 14.165 88.491 87.339 88.491z" />
<glyph unicode="&#xe908;" glyph-name="icons-instagram" d="M946.773 882.773c-23.68 23.68-52.053 35.499-85.12 35.499h-699.307c-33.067 0-61.44-11.861-85.12-35.541-23.68-23.637-35.499-52.053-35.499-85.077v-699.307c0-33.024 11.819-61.44 35.499-85.077 23.723-23.68 52.053-35.541 85.12-35.541h699.307c33.024 0 61.44 11.861 85.12 35.541 23.68 23.637 35.499 52.053 35.499 85.077v699.307c0 33.067-11.819 61.44-35.499 85.077zM379.435 579.328c36.949 35.712 81.365 53.547 133.205 53.547 52.224 0 96.853-17.835 133.76-53.547 36.949-35.755 55.467-78.933 55.467-129.536s-18.517-93.781-55.467-129.493c-36.949-35.712-81.493-53.589-133.76-53.589-51.84 0-96.256 17.877-133.205 53.589s-55.424 78.891-55.424 129.493c0 50.603 18.475 93.781 55.467 129.536zM875.733 123.435c0-10.667-3.669-19.499-11.008-26.667-7.381-7.125-16.128-10.667-26.368-10.667h-654.549c-10.624 0-19.499 3.541-26.624 10.667-7.168 7.168-10.752 16.043-10.752 26.667v396.8h86.357c-8.149-25.728-12.245-52.48-12.245-80.213 0-78.421 28.587-145.237 85.717-200.576 57.173-55.296 125.952-82.987 206.379-82.987 53.035 0 102.016 12.672 146.944 37.973 44.928 25.344 80.427 59.733 106.539 103.211 26.155 43.477 39.211 90.923 39.211 142.379 0 27.733-4.096 54.485-12.245 80.213h82.645v-396.8zM875.733 670.251c0-11.861-4.053-21.845-12.245-29.995-8.149-8.192-18.176-12.288-29.995-12.288h-106.539c-11.861 0-21.845 4.096-30.037 12.288-8.149 8.107-12.245 18.133-12.245 29.995v101.077c0 11.435 4.096 21.333 12.245 29.696 8.192 8.363 18.176 12.544 30.037 12.544h106.539c11.819 0 21.845-4.181 29.995-12.544 8.149-8.405 12.245-18.261 12.245-29.696v-101.035z" />
<glyph unicode="&#xe909;" glyph-name="icons-telegram" d="M400.64 327.040l-16.469-232.277c23.637 0 33.835 10.155 46.123 22.315l110.763 105.899 229.547-168.107c42.112-23.467 71.765-11.093 83.115 38.741l150.699 706.005c13.397 62.251-22.485 86.613-63.488 71.296l-885.675-339.029c-60.416-23.467-59.52-57.173-10.24-72.405l226.432-70.443 525.909 329.088c24.747 16.384 47.275 7.339 28.757-9.045l-425.429-382.037z" />
<glyph unicode="&#xe90a;" glyph-name="icons-whatsapp" d="M506.795 960h-0.256c-279.339 0-506.539-227.243-506.539-506.667 0-110.848 35.712-213.589 96.427-296.96l-63.147-188.331 194.773 62.293c80.128-53.077 175.701-83.755 278.741-83.755 279.381 0 506.581 227.328 506.581 506.709-0.043 279.381-227.2 506.709-506.581 506.709zM801.621 244.48c-12.203-34.517-60.715-63.147-99.413-71.467-26.453-5.675-61.056-10.155-177.493 38.101-148.907 61.696-244.779 212.992-252.245 222.805-7.168 9.813-60.16 80.128-60.16 152.832s36.907 108.117 51.797 123.307c12.245 12.501 32.427 18.176 51.797 18.176 6.272 0 11.947-0.299 16.981-0.555 14.891-0.64 22.357-1.493 32.171-25.003 12.245-29.44 41.984-102.187 45.568-109.653s7.211-17.579 2.133-27.435c-4.736-10.112-8.96-14.592-16.384-23.211-7.509-8.619-14.592-15.232-22.059-24.448-6.827-8.064-14.549-16.64-5.973-31.573 8.619-14.507 38.4-63.147 82.219-102.144 56.576-50.347 102.4-66.432 118.827-73.259 12.203-5.12 26.795-3.84 35.712 5.632 11.349 12.203 25.344 32.469 39.595 52.437 10.112 14.293 22.912 16.085 36.352 11.008 13.653-4.736 86.059-40.533 100.949-47.957 14.891-7.467 24.747-11.008 28.331-17.28 3.541-6.272 3.541-35.712-8.704-70.315z" />
<glyph unicode="&#xe90b;" glyph-name="reviews" horiz-adv-x="964" d="M118.072 867.788h727.621c61.814 0 111.942-50.116 111.942-111.942v-391.796c0-61.803-50.127-111.942-111.942-111.942h-55.971v-195.887c0-7.164-2.731-14.306-8.228-19.802-10.937-10.937-28.646-10.948-39.571 0l-232.055 215.689h-391.796c-61.803 0-111.942 50.139-111.942 111.953v391.785c0 61.825 50.139 111.942 111.942 111.942zM761.737 699.875h-447.767c-15.47 0-27.985-12.515-27.985-27.985s12.515-27.985 27.985-27.985h447.767c15.47 0 27.985 12.515 27.985 27.985s-12.515 27.985-27.985 27.985zM537.853 420.021h223.883c15.47 0 27.985 12.515 27.985 27.985s-12.515 27.985-27.985 27.985h-223.883c-15.47 0-27.985-12.515-27.985-27.985s12.515-27.985 27.985-27.985z" />
<glyph unicode="&#xe90c;" glyph-name="rounding-arrow" horiz-adv-x="1755" d="M1484.020 906.729c39.109 44.923 104.793 47.36 146.709 5.446 38.105-38.105 43.449-99.746 14.722-144.39l-9.641-12.842-682.201-783.59c-37.618-43.208-99.332-46.81-140.966-10.802l-10.824 10.802-682.201 783.59c-39.109 44.921-36.835 115.317 5.081 157.232 38.105 38.103 95.853 39.553 135.422 5.75l11.287-11.197 606.207-696.39 606.404 696.39z" />
<glyph unicode="&#xe90d;" glyph-name="ckecked" d="M512 960c283.676 0 512-230.054 512-512s-230.054-512-512-512c-281.946 0-512 230.054-512 512s228.324 512 512 512zM743.003 695.742l-316.541-316.541-112.432 114.163-98.595-96.865 209.297-211.027 5.189 3.46 411.676 408.216-98.595 98.595z" />
<glyph unicode="&#xe90e;" glyph-name="competition" horiz-adv-x="964" d="M112.56 958.186c-67.122-8.247-111.696-81.461-112.56-138.745 0-84.886 45.628-155.14 97.257-216.958 48.624-58.219 102.758-110.889 139.765-162.888-4.445-14.454-19.356-26.502-27.885-35.027l45.908-46.248c10.869 10.845 20.299 19.923 28.565 30.605 16.841-35.945 37.227-69.32 62.232-98.617-6.356-9.864-6.8-23.241-1.113-33.505s17.263-16.981 28.998-16.823h28.905v-87.055h-32.646c-20.342-1.088-32.657-13.611-42.848-28.224-5.087-8.479-8.894-15.933-10.541-26.185-33.666 0-60.345-11.406-73.453-31.966-11.596-19.132-14.623-40.911-14.623-65.972 0.002-17.092 15.554-32.646 32.646-32.646h435.277c17.092 0 32.644 15.554 32.646 32.646 0.001 25.061-3.027 46.84-14.622 65.972-7.142 21.084-28.906 31.966-73.453 31.966-1.649 10.252-5.455 17.706-10.542 26.185-9.917 15.9-26.66 27.951-42.848 28.224h-32.646v87.055h28.906c11.782-0.12 23.377 6.702 29.004 17.054s5.045 23.79-1.459 33.615c25.028 29.362 45.708 62.594 62.571 98.617 8.305-10.775 17.624-20.029 28.565-30.946l45.909 46.248c-11.594 10.393-21.905 21.91-27.885 35.027 37.006 52 91.14 104.67 139.764 162.888 51.629 61.818 97.257 132.072 97.257 216.958-3.982 63.738-56.287 137.303-112.559 138.745-11.945-0.109-23.555-7.343-28.906-18.023-21.252-42.41-32.314-76.299-43.187-93.176-5.117-7.941-8.832-13.031-14.623-16.323 1.109 16.618 2.307 33.442 3.401 48.969 1.305 17.868-14.73 35.072-32.646 35.026h-500.568c-17.916 0.044-33.951-17.158-32.646-35.026 1.094-15.527 2.296-32.351 3.401-48.969-5.791 3.292-9.506 8.382-14.622 16.323-10.874 16.877-21.936 50.767-43.188 93.176-5.351 10.68-16.961 17.919-28.905 18.023zM96.238 881.333c10.619-24.971 19.956-48.435 33.665-69.712 15.086-23.414 40.976-41.928 74.474-48.629 5.335-68.711 12.609-141.683 27.544-212.878-28.594 31.997-58.267 62.985-84.335 94.197-48.121 57.617-82.295 114.040-82.295 175.131 5.206 25.492 13.576 45.472 30.946 61.891zM861.373 881.333c16.624-15.182 28.486-38.64 30.945-61.891 0-61.091-34.174-117.513-82.295-175.131-26.164-31.328-55.982-62.412-84.674-94.537 15.038 71.302 22.506 144.396 27.885 213.218 33.497 6.7 59.387 25.215 74.473 48.629 13.709 21.277 23.047 44.741 33.666 69.712z" />
<glyph unicode="&#xe90f;" glyph-name="bell" d="M871.48 278.741h-18.4c50.699 0 91.517-40.885 91.517-91.318v-18.335c0-20.305-16.371-36.505-36.565-36.505h-803.817c-20.215 0-36.565 16.344-36.565 36.505v18.335c0 50.411 40.974 91.318 91.517 91.318h-18.4c20.090 0 36.501 16.374 36.501 36.571v219.219c0 181.692 147.233 328.841 328.855 328.841 181.662 0 328.855-147.227 328.855-328.841v-219.219c0-20.325 16.342-36.571 36.501-36.571zM378.236 96.043h255.776c0-70.631-57.257-127.888-127.888-127.888s-127.888 57.257-127.888 127.888z" />
<glyph unicode="&#xe910;" glyph-name="icons-art" d="M824.847 914.273v-606.777h-155.054l43.415-109.571h43.415c14.472 0 26.876-11.371 26.876-26.876 0-14.472-11.371-26.876-26.876-26.876v0h-21.708l70.291-175.727c5.168-13.438-2.067-29.977-15.505-35.145-3.101-1.034-7.236-2.067-10.337-2.067-10.337 0-20.674 7.236-24.809 17.573v0l-77.527 195.368h-302.871l-77.527-194.334c-4.135-11.371-14.472-17.573-24.809-17.573-4.135 0-7.236 1.034-10.337 2.067-14.472 5.168-20.674 21.708-15.505 35.145v0l69.257 174.694h-21.708c-14.472 0-26.876 11.371-26.876 26.876 0 14.472 11.371 26.876 26.876 26.876v0h43.415l43.415 109.571h-161.256v606.777h605.743zM498.201 307.496h-58.92l-43.415-109.571h102.335v109.571zM611.907 307.496h-58.92v-108.538h102.335l-43.415 108.538zM771.095 859.487h-498.239v-378.331l76.493 74.426c25.842 24.809 67.19 24.809 94.066 0v0l36.179-34.112 118.874 136.447c26.876 29.977 74.426 29.977 101.302 0v0l71.325-79.594v281.164zM395.865 802.634c35.966 0 65.123-29.156 65.123-65.123s-29.156-65.123-65.123-65.123c-35.966 0-65.123 29.156-65.123 65.123s29.156 65.123 65.123 65.123z" />
<glyph unicode="&#xe911;" glyph-name="icons-artist" horiz-adv-x="983" d="M333.078 858.46c97.381-0.024 189.949-30.572 267.687-88.331 54.138-40.223 98.571-92.756 129.555-152.048v0l-0.486-0.413c-27.567-23.458-56.767-49.018-86.17-75.353-0.841 6.261-2.643 12.498-5.56 18.501-14.774 30.456-51.662 43.27-82.415 28.599-30.675-14.635-43.58-51.216-28.784-81.626 8.595-17.655 24.62-29.327 42.542-33.215-35.452-32.975-69.426-65.468-99.202-95.020-51.883-10.019-91.396-33.928-117.609-71.219-24.004-34.153-31.807-72.524-37.507-100.537-1.548-7.6-4.437-21.813-7.050-29.616-29.98-3.257-53.981-26.025-58.7-55.984-4.82-30.581 11.791-60.224 40.396-72.078 6.455-2.665 64.624-25.876 133.68-25.879 52.466 0 98.119 13.169 135.713 39.148 43.030 29.734 72.98 74.4 89.156 132.903 38.138 38.936 80.764 84.528 123.109 131.482-17.048-85.059-58.988-163.244-122.229-225.932-84.343-83.611-196.483-129.655-315.774-129.655v0c-65.86 0.018-145.789 23.030-208.723 60.051-77.104 45.358-119.579 105.982-119.597 170.701-0.024 78.154 44.041 110.823 79.444 137.070 28.863 21.397 51.659 38.296 51.65 75.362-0.012 37.070-22.82 53.984-51.698 75.402-35.415 26.262-79.49 58.949-79.514 137.094-0.015 64.727 42.432 125.336 119.515 170.655 62.888 36.975 142.776 59.938 208.496 59.938v0zM485.942 332.992l117.066-118.001c-12.738-50.059-36.696-87.639-71.447-111.652-29.324-20.265-65.69-30.541-108.082-30.541v0l-8.648 0.141c-57.053 1.842-104.38 21.181-106.464 22.042-7.776 3.22-12.331 11.348-11.020 19.658 1.308 8.313 8.14 14.644 16.529 15.318 34.044 2.731 39.868 24.055 48.839 68.16 10.28 50.539 24.295 118.863 123.227 134.875v0zM251.133 254.088c-26.662 21.069-65.498 16.741-86.743-9.651-21.26-26.444-16.875-64.943 9.791-86.018 26.659-21.072 65.498-16.747 86.74 9.697 21.242 26.398 16.853 64.9-9.788 85.972zM966.901 723.308c8.859 0 14.474-3.785 17.621-6.959 16.019-16.143 3.199-42.414-26.071-85.247-22.098-32.338-54.994-74.877-97.776-126.429-67.747-81.651-152.934-176.786-225.959-252.688v0l-111.090 111.973c71.001 69.353 160.263 150.852 237.683 216.729 160.764 136.8 192.716 142.383 204.225 142.611zM238.258 638.434c-21.3 26.405-60.12 30.714-86.768 9.697-26.65-21.057-31.021-59.556-9.761-86.009 21.257-26.408 60.139-30.763 86.728-9.7 26.629 21.099 31.015 59.598 9.8 86.012zM415.954 720.598c-33.245 7.557-66.333-13.038-73.914-46.032-7.588-32.912 13.224-65.741 46.451-73.219 33.248-7.518 66.354 13.081 73.939 45.992 7.527 32.948-13.275 65.738-46.475 73.259z" />
<glyph unicode="&#xe912;" glyph-name="icons-meeting" horiz-adv-x="983" d="M547.514 401.451c10.634 0 20.347-6.008 25.105-15.516 4.751-9.509 3.727-20.888-2.653-29.388v0l-84.568-112.757v-171.014c0-65.405-52.936-118.246-118.246-118.246v0h-240.49c-65.2 0-118.246 53.046-118.246 118.246v0 210.43c0 65.2 53.046 118.246 118.246 118.246v0zM788.012 401.451c55.589 0 100.654-45.065 100.654-100.662 0-55.538-44.977-100.567-100.494-100.654 98.433-0.088 178.199-79.912 178.199-178.367v0-39.174c0-15.502-12.564-28.065-28.065-28.065v0h-300.604c-15.494 0-28.065 12.564-28.065 28.065v0 39.182c0 98.454 79.774 178.272 178.206 178.36-55.516 0.088-100.494 45.116-100.494 100.654 0 55.597 45.065 100.662 100.662 100.662zM246.911 145.934h-90.188c-15.494 0-28.065-12.564-28.065-28.065s12.571-28.065 28.065-28.065v0h90.188c15.494 0 28.065 12.564 28.065 28.065s-12.571 28.065-28.065 28.065v0zM337.092 266.176h-180.369c-15.494 0-28.065-12.564-28.065-28.065s12.571-28.065 28.065-28.065v0h180.369c15.494 0 28.065 12.564 28.065 28.065s-12.571 28.065-28.065 28.065v0zM848.125 912.484c65.2 0 118.246-53.046 118.246-118.246v0-210.43c0-65.2-53.046-118.246-118.246-118.246v0h-420.852c-10.634 0-20.347 6.008-25.105 15.516-4.751 9.509-3.727 20.888 2.653 29.388v0l84.568 112.757v171.014c0 65.405 52.936 118.246 118.246 118.246v0zM186.79 912.484c55.597 0 100.662-45.072 100.662-100.662 0-55.538-44.977-100.567-100.494-100.654 98.425-0.088 178.191-79.912 178.191-178.367v0-39.174c0-15.502-12.564-28.065-28.065-28.065v0h-300.596c-15.502 0-28.065 12.564-28.065 28.065v0 39.174c0 98.454 79.766 178.279 178.199 178.367-55.516 0.088-100.494 45.116-100.494 100.654 0 55.589 45.065 100.662 100.662 100.662zM727.877 611.873c-15.487 0-28.065-12.571-28.065-28.065 0-15.487 12.578-28.065 28.065-28.065 15.494 0 28.065 12.578 28.065 28.065 0 15.494-12.571 28.065-28.065 28.065zM727.847 822.303c-48.61 0-88.157-39.554-88.157-88.157v0c0-15.531 12.571-28.080 28.065-28.080 15.502 0 28.065 12.578 28.065 28.080 0 17.658 14.369 32.026 32.056 32.026 8.566 0 16.605-3.333 22.679-9.414 6.052-6.044 9.377-14.084 9.377-22.649 0-17.672-14.376-32.056-32.056-32.056-15.494 0-28.065-12.564-28.065-28.065 0-15.494 12.571-28.065 28.065-28.065 48.632 0 88.193 39.562 88.186 88.186 0 23.57-9.172 45.723-25.821 62.343-16.642 16.664-38.787 25.851-62.394 25.851z" />
<glyph unicode="&#xe913;" glyph-name="icons-settings" d="M949.392 551.363l-77.52 9.855c-6.391 19.669-14.267 38.636-23.462 56.656l47.873 61.645c19.38 24.947 17.112 60.161-5.031 81.603l-64.944 64.944c-21.648 22.349-56.862 24.576-81.85 5.237l-61.563-47.873c-18.019 9.195-36.987 17.071-56.697 23.462l-9.855 77.397c-3.711 31.049-30.060 54.429-61.274 54.429h-92.365c-31.214 0-57.563-23.38-61.274-54.305l-9.855-77.52c-19.71-6.391-38.678-14.226-56.697-23.462l-61.604 47.873c-24.905 19.339-60.119 17.112-81.603-5.031l-64.944-64.903c-22.349-21.689-24.617-56.903-5.237-81.891l47.873-61.604c-9.236-18.019-17.071-36.987-23.462-56.656l-77.397-9.855c-31.049-3.711-54.429-30.060-54.429-61.274v-92.365c0-31.214 23.38-57.563 54.305-61.274l77.52-9.855c6.391-19.669 14.267-38.636 23.462-56.656l-47.873-61.645c-19.38-24.947-17.112-60.161 5.031-81.603l64.944-64.944c21.689-22.308 56.862-24.534 81.85-5.196l61.604 47.873c18.019-9.236 36.987-17.112 56.656-23.462l9.855-77.355c3.711-31.132 30.060-54.512 61.274-54.512h92.365c31.214 0 57.563 23.38 61.274 54.305l9.855 77.52c19.669 6.391 38.636 14.267 56.656 23.462l61.645-47.873c24.947-19.38 60.161-17.112 81.603 5.031l64.944 64.944c22.349 21.689 24.617 56.862 5.237 81.85l-47.873 61.604c9.236 18.019 17.112 36.987 23.462 56.656l77.355 9.855c31.049 3.711 54.429 30.060 54.429 61.274v92.365c0.041 31.214-23.339 57.563-54.264 61.274zM508.887 237.735c-113.683 0-206.171 92.488-206.171 206.171s92.488 206.171 206.171 206.171c113.683 0 206.171-92.488 206.171-206.171s-92.488-206.171-206.171-206.171z" />
<glyph unicode="&#xe914;" glyph-name="icons-sketsh" d="M600.538 69.341c51.209 0 94.726-35.396 109.83-81.617 5.824-17.821-9.339-35.818-28.088-35.818v0h-336.749c-18.751 0-33.912 17.996-28.088 35.818 15.105 46.221 58.621 81.617 109.83 81.617v0zM542.783 684.508l226.168-339.254c7.643-11.449 6.12-26.706-3.61-36.436-53.013-53.013-86.9-121.3-99.977-194.566-20.060 8.14-41.878 12.843-64.826 12.843v0h-173.264c-22.948 0-44.766-4.705-64.826-12.843-13.078 73.258-46.964 141.553-99.977 194.566-9.73 9.73-11.253 24.987-3.61 36.436v0l226.168 339.254v-273.958c-33.54-11.961-57.755-43.715-57.755-81.313 0-47.771 38.861-86.632 86.632-86.632s86.632 38.861 86.632 86.632c0 37.598-24.215 69.352-57.755 81.313v0 273.958zM513.906 358.115c15.933 0 28.877-12.945 28.877-28.877s-12.945-28.877-28.877-28.877c-15.933 0-28.877 12.945-28.877 28.877s12.945 28.877 28.877 28.877zM167.377 937.588c15.961 0 28.877-12.916 28.877-28.877v0-28.877h236.338c11.961 33.54 43.715 57.755 81.313 57.755s69.352-24.215 81.313-57.755v0h236.338v28.877c0 15.961 12.916 28.877 28.877 28.877v0h117.435c15.961 0 28.877-12.916 28.877-28.877v0-115.51c0-15.961-12.916-28.877-28.877-28.877v0h-117.435c-15.961 0-28.877 12.916-28.877 28.877v0 28.877h-118.598c100.218-62.608 166.299-172.186 174.198-295.348 34.649-11.341 59.909-43.595 59.909-81.983 0-47.771-38.861-86.632-86.632-86.632s-86.632 38.861-86.632 86.632c0 36.848 23.219 68.176 55.714 80.68-9.853 137.312-105.664 253.045-238.937 286.063-14.414-27.871-43.189-47.166-76.673-47.166s-62.26 19.296-76.673 47.166c-133.273-33.020-229.084-148.753-238.937-286.065 32.495-12.502 55.714-43.83 55.714-80.678 0-47.771-38.861-86.632-86.632-86.632s-86.632 38.861-86.632 86.632c0 38.388 25.26 70.642 59.909 81.983 7.899 123.162 73.98 233.125 174.198 295.733v0h-118.598v-29.262c0-15.961-12.916-28.877-28.877-28.877v0h-117.435c-15.961 0-28.877 12.916-28.877 28.877v0 115.51c0 15.961 12.916 28.877 28.877 28.877v0z" />
<glyph unicode="&#xe915;" glyph-name="style" horiz-adv-x="964" d="M474.743 901.403c-260.672 0-471.99-197.804-471.99-444.992s211.318-467.854 471.99-467.854c37.569 0 104.973 5.665 113.371 53.278 11.099 62.9-47.961 79.653-80.75 112.485-53.542 53.616-25.194 137.278 68.101 137.278 133.807 0 133.058 0 227.164 0 42.369 0 145.57-8.176 144.093 159.654 0.016 247.189-211.308 450.151-471.979 450.151zM203.353 310.091c-41.008 0-74.252 33.286-74.252 74.346s33.243 74.346 74.252 74.346c41.008 0 74.252-33.286 74.252-74.346 0-41.050-33.243-74.346-74.252-74.346zM287.954 559.263c-41.008 0-74.252 33.286-74.252 74.346s33.243 74.346 74.252 74.346c41.008 0 74.252-33.286 74.252-74.346 0.011-41.061-33.233-74.346-74.252-74.346zM556.707 624.041c-41.008 0-74.252 33.286-74.252 74.346s33.243 74.346 74.252 74.346c41.008 0 74.252-33.286 74.252-74.346 0.011-41.050-33.243-74.346-74.252-74.346zM745.828 429.698c-41.008 0-74.252 33.286-74.252 74.346s33.243 74.346 74.252 74.346c41.008 0 74.252-33.286 74.252-74.346s-33.233-74.346-74.252-74.346z" />
<glyph unicode="&#xe916;" glyph-name="close" d="M10.438 952.675c9.427 9.666 24.823 9.78 34.388 0.253v0l470.605-468.705 463.744 461.828c9.565 9.526 24.961 9.413 34.388-0.253 8.57-8.788 9.256-22.445 2.124-32.013l-2.374-2.739-463.245-461.332 469.059-467.501c7.132-9.568 6.446-23.225-2.124-32.013-9.427-9.666-24.823-9.78-34.388-0.253v0l-467.184 465.284-474.045-472.161c-9.565-9.526-24.961-9.413-34.388 0.253-8.57 8.788-9.256 22.445-2.124 32.013l2.374 2.739 473.545 471.639-472.479 470.947c-7.133 9.568-6.446 23.225 2.124 32.013z" />
<glyph unicode="&#xe917;" glyph-name="table-calendar" d="M0 838.932l144.276-1.793v-36.113c0-59.638 48.455-108.163 108.128-108.163s108.163 48.561 108.163 108.163v0 36.113h288.518v-36.113c0-59.602 48.315-108.163 108.093-108.163 59.708 0 108.128 48.561 108.128 108.163v0 36.113h142.975l1.090-900.927-72.050-0.211h-937.322v902.932zM937.322 584.734h-865.166v-576.824h865.166v576.824zM474.393 170.963v-100.216h-113.614v100.216h113.614zM293.862 170.963v-100.216h-113.543v100.216h113.543zM658.193 170.963v-100.216h-113.719v100.216h113.719zM828.455 170.963v-100.216h-113.614v100.216h113.614zM474.393 340.804v-100.216h-113.614v100.216h113.614zM658.193 340.804v-100.216h-113.719v100.216h113.719zM828.455 340.804v-100.216h-113.614v100.216h113.614zM293.862 340.804v-100.216h-113.543v100.216h113.543zM474.393 507.339v-100.287h-113.614v100.287h113.614zM658.193 507.339v-100.287h-113.719v100.287h113.719zM828.455 507.339v-100.287h-113.614v100.287h113.614zM755.948 960c39.278 0 71.031-31.682 71.031-71.031v0-74.195c0-39.313-31.788-70.89-71.031-70.89s-70.96 31.577-70.995 70.855v0 74.23c0 39.383 31.718 71.031 70.995 71.031zM251.279 960c39.243 0 71.066-31.647 71.066-71.031v0-74.195c0-39.313-31.823-70.89-71.066-70.89-39.278 0-70.96 31.577-70.96 70.855v0 74.23c0 39.383 31.718 71.031 70.96 71.031z" />
<glyph unicode="&#xe918;" glyph-name="table-clock" horiz-adv-x="1088" d="M543.345 960c282.658 0 511.856-228.942 511.856-511.6s-229.196-511.6-511.856-511.6c-282.66 0-511.345 228.942-511.345 511.6s228.685 511.6 511.345 511.6zM543.6 857.679c-226.127 0-409.281-183.15-409.281-409.279s183.155-409.281 409.281-409.281c226.129 0 409.281 183.155 409.281 409.281s-183.155 409.279-409.281 409.279zM569.18 704.199v-268.59l230.22-136.597-38.627-62.927-268.334 161.154v306.96h76.74z" />
<glyph unicode="&#xe919;" glyph-name="table-skype" horiz-adv-x="1088" d="M979.256 397.478c2.16 17.868 3.242 35.848 3.242 53.846-1.644 259.088-212.716 467.944-471.808 466.858-17.98-0.186-35.932-1.454-53.76-3.798-139.886 87.406-324.144 44.864-411.55-95.022-61.098-97.782-60.456-222 1.652-319.144-2.142-17.854-3.212-35.82-3.2-53.802 1.622-259.088 212.674-467.966 471.766-466.902 17.994 0.188 35.96 1.456 53.802 3.798 139.91-87.368 324.156-44.774 411.524 95.138 61.046 97.756 60.396 221.914-1.668 319.028zM514.914 107.338c-165.632-0.848-256.512 97.328-256.768 148.016v21.334c-0.262 35.346 28.178 64.21 63.522 64.474 33.512 0.248 61.542-25.396 64.264-58.798 16.682-32.81 75.862-47.274 128.426-46.934 5.248 0 128 1.664 127.53 86.016 0 40.746-54.442 57.13-143.744 79.318-107.434 26.752-240.982 59.946-241.755 196.096-0.933 172.118 133.039 192.682 233.647 193.245 142.592 0.719 234.966-57.437 235.434-148.103 0.29-35.346-28.128-64.234-63.472-64.524-32.302-0.266-59.738 23.582-63.974 55.606-31.992 22.668-71.114 32.976-110.122 29.014-25.416 1.668-50.918-1.458-75.178-9.216-13.312-5.93-28.544-17.578-28.374-55.466 0-31.658 64.384-49.194 132.266-67.754 112.426-30.678 252.33-68.906 253.061-207.574 0.805-129.494-99.205-213.76-254.725-214.57l-0.038-0.18z" />
<glyph unicode="&#xe91a;" glyph-name="table-timer" horiz-adv-x="896" d="M549.615 960v-84.556h-84.556v-86.67c72.408-7.248 141.692-33.179 201.064-75.255v0l64.992 64.992 59.781-59.802-60.754-60.754c158.174-167.471 153.163-430.748-11.268-592.079s-427.755-161.332-592.186 0c-164.431 161.332-169.442 424.608-11.268 592.079v0l-60.754 60.754 59.781 59.802 64.992-64.992c59.372 42.076 128.656 68.007 201.064 75.255v0 86.67h-84.556v84.556h253.668zM422.781 706.332c-186.796 0-338.225-151.428-338.225-338.225s151.428-338.225 338.225-338.225c186.709 0.21 338.015 151.515 338.225 338.225 0 186.796-151.428 338.225-338.225 338.225zM422.781 621.775c140.097 0 253.668-113.571 253.668-253.668s-113.571-253.668-253.668-253.668c-140.097 0-253.668 113.571-253.668 253.668v0h253.668z" />
<glyph unicode="&#xe91b;" glyph-name="table-zoom" d="M833.393 448.038c0 49.752 0.008 99.503-0.017 149.255-0.002 4.085 0.082 8.206-0.409 12.246-1.912 15.668-7.848 18.617-20.503 9.456-45.796-33.154-91.356-66.633-137.11-99.851-5.163-3.749-7.519-8.083-7.487-14.557 0.197-37.822 0.168-75.647 0.029-113.473-0.022-6.355 2.117-10.796 7.393-14.612 44.708-32.336 89.206-64.962 133.927-97.28 4.989-3.606 10.067-10.022 17.117-6.588 7.581 3.688 6.678 11.9 7.022 18.996 0.152 3.058 0.039 6.132 0.039 9.198 0 49.069 0 98.139-0.002 147.21zM376.993 624.806c-57.601 0-115.201 0.027-172.802-0.014-17.693-0.012-23.142-5.371-23.158-23.293-0.076-78.732-0.299-157.466 0.079-236.195 0.244-50.532 43.956-93.876 94.584-93.976 115.199-0.227 230.401-0.098 345.602-0.059 17.415 0.006 23.819 6.549 23.829 24.287 0.045 77.026 0.18 154.056-0.035 231.082-0.149 54.547-43.876 98.026-98.365 98.137-56.58 0.117-113.158 0.027-169.734 0.033zM1025.467 447.248c-3.814-128.137-43.995-242.677-130.038-338.969-86.879-97.224-195.68-154.573-325.375-168.801-150.638-16.527-284.577 25.903-397.921 125.927-110.924 97.893-168.308 224.191-171.957 371.135-3.293 132.524 40.031 251.427 129.222 351.237 86.891 97.233 195.688 154.635 325.388 168.769 151.362 16.496 285.79-26.122 399.302-127.4 113.404-101.182 167.255-230.836 171.38-381.898z" />
</font>
</defs>
</svg>
