<?xml version="1.0" encoding="UTF-8"?>
<svg width="1749px" height="675px" viewBox="0 0 1749 675" version="1.1" xmlns="http://www.w3.org/2000/svg" xmlns:xlink="http://www.w3.org/1999/xlink">
    <title>36C74DCC-B63B-4E4E-9B6C-95E5B3E88B8D</title>
    <defs>
        <rect id="path-1" x="0.654860232" y="0" width="1747" height="675"></rect>
        <linearGradient x1="50%" y1="48.4511189%" x2="65.3192754%" y2="52.7946134%" id="linearGradient-3">
            <stop stop-color="#6B28D4" stop-opacity="0.498060533" offset="0%"></stop>
            <stop stop-color="#968DFF" offset="100%"></stop>
        </linearGradient>
        <filter x="-6.4%" y="-24.2%" width="112.8%" height="148.4%" filterUnits="objectBoundingBox" id="filter-4">
            <feGaussianBlur stdDeviation="40" in="SourceGraphic"></feGaussianBlur>
        </filter>
    </defs>
    <g id="Page-1" stroke="none" stroke-width="1" fill="none" fill-rule="evenodd">
        <g id="Index_Customer" transform="translate(-812.000000, -405.000000)">
            <g id="svet" transform="translate(812.099786, 405.000000)">
                <mask id="mask-2" fill="white">
                    <use xlink:href="#path-1"></use>
                </mask>
                <use id="Rectangle" fill-opacity="0" fill="#201F22" xlink:href="#path-1"></use>
                <path d="M1883.70257,457.873584 C1833.00837,412.66915 1792.55028,361.208437 1731.61997,322.260289 C1638.84331,262.955174 1612.49681,300.087623 1505.47395,253.12433 C1489.47071,246.101861 1388.65692,163.835494 1369.6115,163.405356 C1322.73439,162.346645 1321.46979,161.710196 1275.82267,172.644556 C1184.54048,194.510394 1119.13232,224.284454 1046.34723,267.31624 C1008.42931,289.733958 982.289509,321.093842 937.131714,337.282098 C899.042204,350.936502 863.741553,348.094712 822.810374,349.496006 C605.681592,356.92949 948.798212,350.706447 667.847212,356.372121 C637.373244,356.98666 606.813326,355.816785 576.392871,357.187617 C564.570444,357.720369 553.322103,360.984749 541.580426,362.062059 C500.784486,365.805126 500.237629,360.883271 457.566392,369.623932 C364.333277,388.721553 237.938181,454.924275 165.100898,501.400688 C128.309759,524.87658 91.5271404,554.789183 80.6909579,589.316728 C78.396939,596.626206 73.0440607,605.033629 78.1107414,611.668734 C81.6515784,616.305661 92.9701522,614.450013 100.554529,615.3292 C189.612312,625.652848 278.752454,635.656478 367.982367,645.270881 C384.206096,647.018965 400.521686,648.422873 416.883613,649.41323 C790.129209,672.005085 1163.89091,648.585108 1532.65661,608.740362 C1634.17112,597.771826 1728.90115,633.307297 1826.44535,612.088627 C1880.07664,600.422278 1909.70599,534.675068 1956.79505,513.901873 C1958.56745,513.119986 1948.28611,507.56984 1947.38887,504.356862" id="Свечение1" fill="url(#linearGradient-3)" filter="url(#filter-4)" mask="url(#mask-2)"></path>
            </g>
        </g>
    </g>
</svg>