<?xml version="1.0" encoding="UTF-8"?>
<svg width="1358px" height="1343px" viewBox="0 0 1358 1343" version="1.1" xmlns="http://www.w3.org/2000/svg" xmlns:xlink="http://www.w3.org/1999/xlink">
    <title>orbit</title>
    <g id="Page-1" stroke="none" stroke-width="1" fill="none" fill-rule="evenodd">
        <g id="Index_Customer" transform="translate(-601.000000, -1283.000000)" stroke="#FFFFFF">
            <g id="orbit" transform="translate(602.000000, 1284.000000)">
                <path d="M354.178102,752.375021 C425.942438,826.623607 583.82783,790.611155 706.824995,671.938957 C829.82216,553.26676 871.354574,396.873565 799.590238,322.624979 C727.825902,248.376393 569.94051,284.388845 446.943345,403.061043 C323.94618,521.73324 282.413766,678.126435 354.178102,752.375021 Z" id="Oval" opacity="0.393778"></path>
                <path d="M271.75546,892.329173 C378.751925,1003.18949 614.149892,949.419416 797.531535,772.230357 C980.913178,595.041297 1042.8356,361.531142 935.839134,250.670827 C828.842669,139.810512 593.444702,193.580584 410.06306,370.769643 C226.681417,547.958703 164.758995,781.468858 271.75546,892.329173 Z" id="Oval-Copy-3" opacity="0.284659"></path>
                <path d="M168.557742,1067.15981 C316.636689,1220.63617 642.418322,1146.19623 896.211386,900.893545 C1150.00445,655.590858 1235.70267,332.316561 1087.62373,178.840194 C939.544778,25.3638267 613.763145,99.8037674 359.970081,345.106455 C106.177018,590.409142 20.4787945,913.683439 168.557742,1067.15981 Z" id="Oval-Copy-7" opacity="0.301478795"></path>
                <path d="M92.4589346,1238.83807 C281.077811,1435.22339 696.049465,1339.97152 1019.32407,1026.08706 C1342.59867,712.202615 1451.7587,298.547241 1263.13982,102.161927 C1074.52094,-94.2233859 659.549291,1.02848477 336.27469,314.912935 C13.00009,628.797385 -96.1599421,1042.45276 92.4589346,1238.83807 Z" id="Oval-Copy-9" opacity="0.285528274"></path>
            </g>
        </g>
    </g>
</svg>