<?xml version="1.0" encoding="UTF-8"?>
<svg width="2376px" height="897px" viewBox="0 0 2376 897" version="1.1" xmlns="http://www.w3.org/2000/svg" xmlns:xlink="http://www.w3.org/1999/xlink">
    <title>stars</title>
    <g id="Page-1" stroke="none" stroke-width="1" fill="none" fill-rule="evenodd">
        <g id="Index_Customer" transform="translate(-50.000000, -51.000000)" fill="#FFFFFF">
            <g id="stars" transform="translate(50.000000, 51.000000)">
                <circle id="Oval-Copy-12" opacity="0.829892113" cx="1000.51629" cy="133.483715" r="1.5"></circle>
                <circle id="Oval-Copy-45" opacity="0.314918155" cx="948.284743" cy="121.715257" r="1.7847427"></circle>
                <circle id="Oval-Copy-51" opacity="0.314918155" cx="1684.78474" cy="455.784743" r="1.7847427"></circle>
                <circle id="Oval-Copy-50" opacity="0.314918155" cx="1724.78474" cy="137.784743" r="1.7847427"></circle>
                <circle id="Oval-Copy-49" opacity="0.314918155" cx="1622.78474" cy="233.784743" r="1.7847427"></circle>
                <circle id="Oval-Copy-48" opacity="0.314918155" cx="1359.78474" cy="198.784743" r="1.7847427"></circle>
                <circle id="Oval-Copy-47" opacity="0.314918155" cx="572.784743" cy="285.784743" r="1.7847427"></circle>
                <circle id="Oval-Copy-46" opacity="0.314918155" cx="1119.78474" cy="42.7847427" r="1.7847427"></circle>
                <circle id="Oval-Copy-27" opacity="0.829892113" cx="1308.5" cy="1.5" r="1.5"></circle>
                <circle id="Oval-Copy-21" opacity="0.829892113" cx="1754.5" cy="424.5" r="1.5"></circle>
                <circle id="Oval-Copy-20" opacity="0.829892113" cx="1461.5" cy="324.5" r="1.5"></circle>
                <circle id="Oval-Copy-29" opacity="0.829892113" cx="2054.5" cy="92.5" r="1.5"></circle>
                <circle id="Oval-Copy-16" opacity="0.829892113" cx="1370.5" cy="99.5" r="1.5"></circle>
                <circle id="Oval-Copy-13" opacity="0.829892113" cx="775.5" cy="257.5" r="1.5"></circle>
                <circle id="Oval-Copy-40" opacity="0.829892113" cx="2143.5" cy="702.5" r="1.5"></circle>
                <circle id="Oval-Copy-39" opacity="0.829892113" cx="1247.5" cy="895.5" r="1.5"></circle>
                <circle id="Oval-Copy-37" opacity="0.829892113" cx="1430.5" cy="200.5" r="1.5"></circle>
                <circle id="Oval-Copy-36" opacity="0.829892113" cx="1393.5" cy="780.5" r="1.5"></circle>
                <circle id="Oval-Copy-35" opacity="0.829892113" cx="1945.5" cy="604.5" r="1.5"></circle>
                <circle id="Oval-Copy-44" opacity="0.829892113" cx="2371.5" cy="175.5" r="1.5"></circle>
                <circle id="Oval-Copy-41" opacity="0.829892113" cx="2215.5" cy="379.5" r="1.5"></circle>
                <circle id="Oval-Copy-34" opacity="0.829892113" cx="1992.5" cy="361.5" r="1.5"></circle>
                <circle id="Oval-Copy-31" opacity="0.829892113" cx="1303.5" cy="563.5" r="1.5"></circle>
                <circle id="Oval-Copy-17" opacity="0.829892113" cx="486.5" cy="225.5" r="1.5"></circle>
                <circle id="Oval-Copy-26" opacity="0.829892113" cx="873.5" cy="40.5" r="1.5"></circle>
                <circle id="Oval-Copy-28" opacity="0.829892113" cx="1583.5" cy="418.5" r="1.5"></circle>
                <circle id="Oval-Copy-23" opacity="0.829892113" cx="159.5" cy="444.5" r="1.5"></circle>
                <circle id="Oval-Copy-25" opacity="0.829892113" cx="1.5" cy="204.5" r="1.5"></circle>
                <circle id="Oval-Copy-15" opacity="0.829892113" cx="1043.5" cy="491.5" r="1.5"></circle>
                <circle id="Oval-Copy-14" opacity="0.829892113" cx="741.5" cy="168.5" r="1.5"></circle>
                <circle id="Oval-Copy-38" opacity="0.829892113" cx="1805.5" cy="630.5" r="1.5"></circle>
                <circle id="Oval-Copy-43" opacity="0.829892113" cx="2374.5" cy="577.5" r="1.5"></circle>
                <circle id="Oval-Copy-42" opacity="0.829892113" cx="2197.5" cy="211.5" r="1.5"></circle>
                <circle id="Oval-Copy-30" opacity="0.829892113" cx="1786.5" cy="148.5" r="1.5"></circle>
                <circle id="Oval-Copy-24" opacity="0.829892113" cx="296.5" cy="630.5" r="1.5"></circle>
                <circle id="Oval-Copy-22" opacity="0.829892113" cx="340.5" cy="69.5" r="1.5"></circle>
                <circle id="Oval-Copy-19" opacity="0.829892113" cx="980.5" cy="657.5" r="1.5"></circle>
                <circle id="Oval-Copy-18" opacity="0.829892113" cx="666.5" cy="448.5" r="1.5"></circle>
            </g>
        </g>
    </g>
</svg>