<?xml version="1.0" encoding="UTF-8"?>
<svg width="238px" height="138px" viewBox="0 0 238 138" version="1.1" xmlns="http://www.w3.org/2000/svg" xmlns:xlink="http://www.w3.org/1999/xlink">
    <title>Group 36</title>
    <defs>
        <linearGradient x1="38.9759491%" y1="17.4249992%" x2="50%" y2="110.463681%" id="linearGradient-1">
            <stop stop-color="#E9AA89" offset="0%"></stop>
            <stop stop-color="#FFC3A9" offset="100%"></stop>
        </linearGradient>
        <filter x="-81.7%" y="-148.1%" width="263.4%" height="396.1%" filterUnits="objectBoundingBox" id="filter-2">
            <feGaussianBlur stdDeviation="2" in="SourceGraphic"></feGaussianBlur>
        </filter>
    </defs>
    <g id="Page-1" stroke="none" stroke-width="1" fill="none" fill-rule="evenodd">
        <g id="Index_Customer" transform="translate(-853.000000, -1615.000000)">
            <g id="Group-36" transform="translate(854.189947, 1615.550742)">
                <rect id="Rectangle" stroke="#7E8CCC" fill="#FAFAFA" fill-rule="nonzero" x="0" y="32.4539386" width="168" height="104" rx="8"></rect>
                <g id="Group-9" transform="translate(16.000000, 88.453939)" fill="#7E8CCC">
                    <circle id="Oval" opacity="0.10139974" cx="16" cy="16" r="16"></circle>
                    <circle id="Oval-Copy-82" opacity="0.10139974" cx="56" cy="16" r="16"></circle>
                    <circle id="Oval-Copy-83" opacity="0.10139974" cx="96" cy="16" r="16"></circle>
                    <circle id="Oval-Copy-85" opacity="0.10139974" cx="136" cy="16" r="16"></circle>
                    <path d="M17.6179791,15.5649911 C19.3286873,14.8050234 20.4256276,13.1026831 20.4107942,11.2308248 C20.5326387,9.58876027 19.7284725,8.01583918 18.326021,7.15308101 C16.9235694,6.29032284 15.1570216,6.28179566 13.7463064,7.13097459 C12.3355913,7.98015351 11.5162778,9.54523802 11.6222645,11.1884023 C11.5926227,13.0851181 12.709017,14.8127383 14.4504317,15.5649911 C7.69111196,16.5831313 8.00221036,23.9292958 8.00221036,23.9292958 L23.9813554,24 C23.9813554,24 24.3207355,16.5760609 17.6179791,15.5649911 Z" id="Path" fill-rule="nonzero" opacity="0.342564174"></path>
                    <path d="M57.6179791,15.5649911 C59.3286873,14.8050234 60.4256276,13.1026831 60.4107942,11.2308248 C60.5326387,9.58876027 59.7284725,8.01583918 58.326021,7.15308101 C56.9235694,6.29032284 55.1570216,6.28179566 53.7463064,7.13097459 C52.3355913,7.98015351 51.5162778,9.54523802 51.6222645,11.1884023 C51.5926227,13.0851181 52.709017,14.8127383 54.4504317,15.5649911 C47.691112,16.5831313 48.0022104,23.9292958 48.0022104,23.9292958 L63.9813554,24 C63.9813554,24 64.3207355,16.5760609 57.6179791,15.5649911 Z" id="Path-Copy" fill-rule="nonzero" opacity="0.342564174"></path>
                    <path d="M97.6179791,15.5649911 C99.3286873,14.8050234 100.425628,13.1026831 100.410794,11.2308248 C100.532639,9.58876027 99.7284725,8.01583918 98.326021,7.15308101 C96.9235694,6.29032284 95.1570216,6.28179566 93.7463064,7.13097459 C92.3355913,7.98015351 91.5162778,9.54523802 91.6222645,11.1884023 C91.5926227,13.0851181 92.709017,14.8127383 94.4504317,15.5649911 C87.691112,16.5831313 88.0022104,23.9292958 88.0022104,23.9292958 L103.981355,24 C103.981355,24 104.320735,16.5760609 97.6179791,15.5649911 Z" id="Path-Copy-2" fill-rule="nonzero" opacity="0.342564174"></path>
                    <path d="M137.617979,15.5649911 C139.328687,14.8050234 140.425628,13.1026831 140.410794,11.2308248 C140.532639,9.58876027 139.728473,8.01583918 138.326021,7.15308101 C136.923569,6.29032284 135.157022,6.28179566 133.746306,7.13097459 C132.335591,7.98015351 131.516278,9.54523802 131.622264,11.1884023 C131.592623,13.0851181 132.709017,14.8127383 134.450432,15.5649911 C127.691112,16.5831313 128.00221,23.9292958 128.00221,23.9292958 L143.981355,24 C143.981355,24 144.320735,16.5760609 137.617979,15.5649911 Z" id="Path-Copy-3" fill-rule="nonzero" opacity="0.342564174"></path>
                </g>
                <path d="M197.468875,61.5824912 L197.579464,61.6197059 C198.684204,61.9930384 206.058993,64.5099513 206.995954,64.8297383 L207.082624,64.8593194 C207.090021,64.8618439 207.093794,64.8631317 207.093794,64.8631317 C207.481792,65.0830472 207.875626,65.2596144 208.273026,65.4408451 L208.456686,65.5249961 L208.456686,65.5249961 L208.640803,65.6108582 C210.883469,66.6701785 213.216531,68.3423773 215.237897,79.1287791 C215.648785,80.9589015 215.809301,82.7992256 215.809301,84.5736347 L215.809301,106.544577 L202.281234,106.283491 L199.015234,113.129491 L202.604214,132.385652 C202.923647,133.799386 203.247041,135.280252 203.569666,136.820686 L154.527234,136.820686 L163.721641,116.30944 L158.39459,98.6924189 C157.955663,97.2366828 157.664555,95.7510315 157.519847,94.2569993 L154.787295,93.4240906 L156.377021,79.2927228 C157.468873,69.1808267 164.63582,64.9399533 168.410014,63.3906497 L168.419514,63.3702912 L168.494544,63.3561671 C169.205289,63.0680585 169.789767,62.8771922 170.182085,62.7614404 L170.343128,62.7149968 C170.515845,62.6663811 170.634613,62.6369642 170.690329,62.6236895 L170.726505,62.615276 L170.610234,62.9764912 L176.349681,61.9484926 L197.468875,61.5824912 Z" id="Combined-Shape" fill="#4D50BF" fill-rule="nonzero"></path>
                <path d="M197.468875,61.5824912 L197.579464,61.6197059 C198.684204,61.9930384 206.058993,64.5099513 206.995954,64.8297383 L207.082624,64.8593194 C207.090021,64.8618439 207.093794,64.8631317 207.093794,64.8631317 C207.481792,65.0830472 207.875626,65.2596144 208.273026,65.4408451 L208.456686,65.5249961 L208.456686,65.5249961 L208.640803,65.6108582 C210.883469,66.6701785 213.216531,68.3423773 215.237897,79.1287791 C215.648785,80.9589015 215.809301,82.7992256 215.809301,84.5736347 L215.809301,106.544577 L202.281234,106.283491 L199.015234,113.129491 L202.604214,132.385652 C202.923647,133.799386 203.247041,135.280252 203.569666,136.820686 L154.527234,136.820686 L163.721641,116.30944 L158.39459,98.6924189 C157.955663,97.2366828 157.664555,95.7510315 157.519847,94.2569993 L154.787295,93.4240906 L156.377021,79.2927228 C157.468873,69.1808267 164.63582,64.9399533 168.410014,63.3906497 L168.419514,63.3702912 L168.494544,63.3561671 C169.205289,63.0680585 169.789767,62.8771922 170.182085,62.7614404 L170.343128,62.7149968 C170.515845,62.6663811 170.634613,62.6369642 170.690329,62.6236895 L170.726505,62.615276 L170.610234,62.9764912 L176.349681,61.9484926 L197.468875,61.5824912 Z" id="Combined-Shape-Copy-5" fill="#22235E" fill-rule="nonzero" opacity="0.481608073" style="mix-blend-mode: lighten;"></path>
                <g id="Group" opacity="0.219494048" transform="translate(138.010053, 61.049258)" fill="#FFFFFF" fill-rule="nonzero">
                    <path d="M16.8809738,64.2443823 L16.7942268,65.8905908 C33.9281595,67.8862727 51.3553621,68.0875858 68.5648596,66.4886274 L68.4304017,64.881002 C51.2936856,66.4848391 33.9361117,66.2704784 16.8809738,64.2443823 L16.8809738,64.2443823 Z" id="Path"></path>
                    <path d="M41.8207475,45.8081333 C30.4698975,46.3643717 20.6197712,42.0784422 20.567723,42.0527202 L7.58169121,35.7958419 C7.29542598,36.271699 6.9961487,36.7604172 6.68385936,37.2812878 L19.422662,43.4192019 C19.8563972,43.6056864 29.9364032,47.9977192 41.9768922,47.4125435 C54.0173812,46.8273679 63.9542545,40.1492917 64.3706403,39.8663496 C64.4350595,39.8224241 64.4918789,39.7727442 64.539797,39.718448 C65.7075316,38.4722965 78.9819197,34.9670081 80.3953552,33.8695598 C81.8087908,32.7721115 80.1293494,33.3372387 80.1944097,32.559148 C78.020032,34.0523384 64.4954066,36.9320495 62.8005189,38.7345812 C61.7899159,39.3969229 52.5383442,45.2776169 41.8207475,45.8081333 Z" id="Path"></path>
                    <path d="M1.19277179,46.2839905 L0.299277285,47.7501449 L16.2347084,52.9363447 C16.6337447,52.3672453 16.9807329,51.8624509 17.227962,51.505558 L1.19277179,46.2839905 Z" id="Path"></path>
                    <path d="M17.709408,53.4122018 C18.4467578,53.5793949 35.9262862,57.476279 49.3720773,56.3059277 C60.892084,55.3156304 65.9104003,52.4476265 67.3070276,51.4573292 L67.1682323,49.7725377 C67.1682323,49.7725377 67.2202805,49.2034383 67.3113649,48.251724 C66.6925564,48.8397963 66.2236744,49.5066253 65.9277497,50.2194576 C65.0602793,50.8625078 60.4540115,53.7562337 49.1421976,54.720809 C36.5118287,55.8043485 19.5397705,52.1486082 18.399047,51.8881729 L17.5619381,51.6148765 L17.4708537,53.338251 L17.5879622,53.3800493 L17.709408,53.4122018 Z" id="Path"></path>
                    <path d="M32.3956817,42.5028553 C41.7643619,43.6828524 53.1368988,39.6509278 60.2544933,35.1302849 C62.8091936,33.5065832 78.1751418,29.6989387 81.1071917,28.1202505 C81.1679147,27.2907157 81.3289655,27.4100906 81.359327,26.8827895 C78.0239033,28.6543927 61.8636509,31.9889847 58.8448539,33.9084896 C52.1132837,38.1879886 41.4347232,42.0141372 32.7600193,40.9177366 C25.7031477,40.0271121 14.1744662,34.1882164 9.8848251,31.915034 C9.63325868,32.3426623 9.3339814,32.850672 8.9913306,33.4229867 C13.6583213,35.8890841 25.0178461,41.5736478 32.3956817,42.5028553 Z" id="Path"></path>
                    <path d="M35.3043511,35.6291092 C44.6730313,36.8091063 56.0455682,32.7771816 63.1631627,28.2565388 C65.717863,26.632837 75.586578,26.2404026 78.5186279,24.6617143 C78.5793509,23.8321796 78.6270617,23.1312549 78.6574232,22.6039537 C75.3219996,24.375557 64.7723203,25.1152386 61.7535233,27.0347434 C55.0219531,31.3142424 44.3433926,35.140391 35.6686887,34.0439905 C28.6118171,33.153366 17.0831356,27.3144702 12.7934945,25.0412878 C12.5419281,25.4689162 12.2426508,25.9769258 11.9,26.5492405 C16.5669907,29.015338 27.9265155,34.6999017 35.3043511,35.6291092 Z" id="Path-Copy-10"></path>
                    <path d="M38.6043511,28.6506282 C47.9730313,29.8306253 51.8047677,28.5565202 58.9223622,24.0358773 C61.4770625,22.4121756 73.9322997,21.5413806 76.8643496,19.9626924 C76.9250725,19.1331576 76.9727834,18.4322329 77.0031448,17.9049318 C73.6677212,19.676535 62.480227,20.3570363 59.4614301,22.2765411 C52.7298598,26.5560402 47.6433926,28.16191 38.9686887,27.0655095 C31.9118171,26.1748849 20.3831356,20.3359892 16.0934945,18.0628068 C15.8419281,18.4904352 15.5426508,18.9984448 15.2,19.5707595 C19.8669907,22.036857 31.2265155,27.7214206 38.6043511,28.6506282 Z" id="Path-Copy-22"></path>
                    <path d="M39.3043511,21.6721472 C48.6730313,22.8521443 74.7093249,15.57238 81.8269195,11.0517372 C84.3816198,9.42803545 72.8754552,10.8978412 75.8075052,9.31915301 C75.8682281,8.48961827 75.915939,7.78869356 75.9463004,7.26139241 C72.6108768,9.03299568 83.7717845,8.91084518 80.7529876,10.83035 C74.0214173,15.109849 48.3433926,21.183429 39.6686887,20.0870284 C32.6118171,19.1964039 21.0831356,13.3575082 16.7934945,11.0843258 C16.5419281,11.5119542 16.2426508,12.0199638 15.9,12.5922785 C20.5669907,15.058376 31.9265155,20.7429396 39.3043511,21.6721472 Z" id="Path-Copy-23"></path>
                    <path d="M42.3410104,16.8402653 C51.7096906,18.0202624 73.7712624,9.21671273 80.888857,4.6960699 C83.4435573,3.07236817 77.602216,4.38976094 80.5342659,2.81107273 C80.5949888,1.98153798 80.6426997,1.28061328 80.6730612,0.75331212 C77.3376375,2.52491539 81.041192,1.06926813 78.022395,2.98877295 C71.2908248,7.26827196 52.0942943,16.8326892 43.4195904,15.7362886 C36.3627188,14.8456641 25.8098963,6.84942792 21.5202553,4.5762455 C21.2686888,5.00387387 21.0751324,3.99169411 20.7324816,4.56400878 C25.3994723,7.03010626 34.9631747,15.9110578 42.3410104,16.8402653 Z" id="Path-Copy-24"></path>
                    <path d="M69.1157033,73.1827799 L68.9812454,71.5751544 C57.8819618,71.9995676 35.8091777,72.5718822 16.4992868,71.4047461 L16.4125398,73.0123716 C24.9788099,73.5268118 34.0655622,73.7068658 42.5103865,73.7068658 C53.2236458,73.7068658 62.8916033,73.4207085 69.1157033,73.1827799 Z" id="Path"></path>
                    <path d="M24.6621832,61.3506564 C37.8303837,62.7621516 62.2756993,61.3699479 68.1094377,61.0034093 L67.719076,56.2416227 C67.6233548,56.3817107 67.5379287,56.5255355 67.4631723,56.6724663 C67.3908342,56.8083015 67.3713003,56.9564468 67.4067867,57.1000947 L67.9706424,59.3957838 C62.3320849,59.7462462 37.7696608,61.1320193 24.9701352,59.7591072 C22.4327843,59.4858109 19.7956743,59.1514248 17.1629017,58.7945319 L17.0761546,60.4182336 C19.6351923,60.7622655 22.1898926,61.0837906 24.6621832,61.3506564 Z" id="Path"></path>
                    <path d="M18.0737456,48.020226 C18.941216,48.3996256 31.1205003,53.7305117 44.1542429,52.5762366 C57.3744916,51.4091005 80.8092947,40.1883257 81.1779696,39.9150294 C81.2756427,39.8482659 81.3513235,39.7657634 81.3991746,39.6738856 C81.6747176,39.3481902 82.0121648,39.0536443 82.4011029,38.7993373 C82.4661632,38.0823364 82.5312234,37.3331829 82.6006211,36.5486617 C80.5750777,37.693291 79.8030291,38.4778122 79.5254385,38.8475661 C78.45845,39.5967196 55.5614785,49.9365155 43.8983391,50.9686111 C31.4327896,52.0746574 19.2925415,46.6762511 19.175433,46.6215918 L19.1190474,46.5958698 L4.48048457,40.8952299 C4.18120728,41.3807328 3.88193,41.8598052 3.58699006,42.3613843 L18.0737456,48.020226 Z" id="Path"></path>
                </g>
                <path d="M158.717568,97.6857319 C158.673965,97.6216782 158.641359,97.5507953 158.621094,97.4760055 C158.57076,97.3333915 158.47848,97.1236651 158.39459,96.8426316 C158.157198,96.0548421 158.008077,95.2431141 157.94997,94.4223885 C157.813012,91.6941725 158.368548,88.9756545 159.564863,86.5198961 C159.908815,85.8026316 160.294711,85.1189234 160.676413,84.4855496 C161.058116,83.8521757 161.418845,83.2271909 161.746018,82.6231787 C162.32851,81.5627395 162.811545,80.4506353 163.188936,79.3011119 C163.516109,78.3195921 163.751003,77.5142426 163.918784,76.9605648 C163.99848,76.7046985 164.065593,76.4907775 164.120122,76.3229964 C164.136188,76.2462572 164.164515,76.1726082 164.204012,76.1048809 C164.196662,76.1828397 164.182628,76.2600231 164.162067,76.33558 C164.120122,76.5075556 164.065593,76.7214766 164.002675,76.9815374 C163.855866,77.5436043 163.64614,78.3573429 163.339939,79.3514462 C162.974546,80.5123085 162.499835,81.6358842 161.922188,82.7070693 C161.59921,83.3110815 161.23848,83.9360663 160.860973,84.5820237 C160.483465,85.2279812 160.105957,85.8907167 159.762006,86.5995921 C158.577237,89.0237862 158.001339,91.700273 158.084195,94.3972213 C158.13247,95.2111277 158.257462,96.0186604 158.457508,96.8090754 C158.650456,97.3753368 158.734347,97.6815374 158.717568,97.6857319 Z" id="Path" fill="#263238" fill-rule="nonzero"></path>
                <path d="M196.661277,80.9999494 C196.651989,80.9401332 196.651989,80.8792942 196.661277,80.8195313 C196.661277,80.69789 196.715805,80.5259143 196.770334,80.3077988 C196.933559,79.68537 197.145333,79.0766965 197.403708,78.4873733 C198.235325,76.5243373 199.48162,74.7643571 201.057143,73.3281027 C202.902736,71.6502912 205.062918,70.7107167 206.686201,70.5177684 C207.328749,70.4318938 207.981227,70.4560071 208.615684,70.5890754 C208.787012,70.6249078 208.9553,70.6739916 209.119027,70.7358839 C209.17726,70.7538141 209.233485,70.7777099 209.286809,70.8071909 C208.443255,70.5990462 207.567774,70.5534927 206.707173,70.672966 C204.639701,71.0668644 202.728436,72.0450598 201.199757,73.4916894 C199.192123,75.3630365 197.696249,77.7165828 196.854225,80.3287714 C196.732584,80.7608079 196.678055,81.0040906 196.661277,80.9999494 Z" id="Path" fill="#263238" fill-rule="nonzero"></path>
                <path d="M215.809301,106.544577 C215.776045,106.550925 215.741888,106.550925 215.708632,106.544577 L214.274103,106.544577 L210.079574,106.494243 L195.981763,106.271933 L195.872705,106.271933 L195.872705,106.162875 C195.872705,105.63017 195.902067,105.063908 195.918845,104.485063 C196.090821,98.5539994 196.250213,93.189197 196.363465,89.2840906 C196.434772,87.3504128 196.489301,85.781659 196.527052,84.6701088 C196.548024,84.1415982 196.568997,83.7221453 196.581581,83.4117502 L196.581581,83.0887714 C196.577094,83.051154 196.577094,83.0131366 196.581581,82.9755192 C196.58494,83.0131952 196.58494,83.0510954 196.581581,83.0887714 L196.581581,83.4159447 C196.581581,83.7179508 196.581581,84.1374037 196.581581,84.6743034 C196.581581,85.781659 196.527052,87.3504128 196.489301,89.2882851 C196.392827,93.189197 196.254407,98.5581939 196.107599,104.485063 C196.107599,105.055519 196.074043,105.621781 196.061459,106.162875 L195.952401,106.049623 L210.02924,106.355823 L214.223769,106.469075 L215.364681,106.511021 L215.658298,106.511021 L215.809301,106.544577 Z" id="Path" fill="#263238" fill-rule="nonzero"></path>
                <polygon id="Path" fill="#263238" fill-rule="nonzero" points="158.612705 98.0506559 153.193374 88.0508991 136.704681 88.0508991 136.180365 89.0450024 150.139757 112.249136 165.940547 113.01254"></polygon>
                <polygon id="Path" fill="#464462" fill-rule="nonzero" points="158.092584 99.0447593 152.673252 89.0450024 136.180365 89.0450024 149.615441 113.24324 165.420426 114.002449"></polygon>
                <path d="M144.552644,93.2395313 C144.816384,93.4564913 145.185319,93.4919176 145.485525,93.3291094 C145.785732,93.1663012 145.957279,92.8377592 145.919297,92.4983664 C145.881314,92.1589735 145.641383,91.8764814 145.312614,91.7840639 C144.983845,91.6916465 144.631868,91.8077525 144.422614,92.0776468 C144.144507,92.4363465 144.202125,92.9511833 144.552644,93.2395313 Z" id="Path" fill="#EBEBEB" fill-rule="nonzero"></path>
                <path d="M164.002675,95.7729209 C166.737965,95.7694042 168.680894,97.3503535 170.402174,99.4761522 L170.402174,99.4761522 L172.88403,103.953764 L172.818441,104.169915 L198.691429,111.213088 L198.968267,106.372601 L214.735502,106.544577 L214.735502,121.061841 C214.776725,124.15605 213.545338,127.131395 211.329544,129.291507 C208.848043,131.724742 205.118078,132.364785 201.967356,130.898012 L168.610441,113.963915 L166.662006,113.650109 C166.662006,113.650109 164.480851,113.30406 162.165995,112.921309 L161.585681,112.825036 C159.456337,112.470543 157.358017,112.106872 156.867781,111.972297 C155.798176,111.67868 152.597751,110.026036 152.304134,109.833088 C152.010517,109.640139 151.897264,109.153574 152.400608,108.327252 C152.903951,107.500929 155.248693,109.254243 156.595137,109.350717 C157.941581,109.447191 159.619392,108.327252 159.619392,108.327252 C159.619392,108.327252 157.241726,107.6328 154.768032,106.908427 L153.877297,106.647508 C151.610522,105.983283 149.494211,105.361226 149.305046,105.298802 C148.789119,105.126826 148.680061,103.738437 149.544134,103.738437 L149.544134,103.738437 L157.28304,103.809744 C157.28304,103.809744 155.610218,103.665019 153.829894,103.507027 L153.294137,103.459362 C151.597275,103.307998 149.94466,103.156523 149.678359,103.117647 C148.273191,102.912115 147.350395,102.295519 147.321033,101.511142 C147.291489,100.765975 148.374344,100.701606 149.079771,100.696772 L149.394136,100.69644 C149.453939,100.69619 149.506018,100.695398 149.548328,100.693209 C149.66997,100.686917 150.268214,100.683771 151.097158,100.682592 L153.177238,100.682684 C153.271278,100.68278 153.365747,100.682885 153.460459,100.682999 L154.030182,100.683771 C155.549364,100.686059 157.036377,100.690011 157.734478,100.691997 L158.038965,100.692882 C158.062444,100.692952 158.082286,100.693012 158.098308,100.69306 L158.147112,100.693209 L148.608754,100.051446 L148.608754,99.3719325 C149.00304,97.9919325 160.17307,97.5221453 160.17307,97.5221453 L160.17307,97.5221453 L161.725046,95.7729209 Z" id="Combined-Shape" fill="#F9BC9F" fill-rule="nonzero"></path>
                <path d="M138.487356,92.9584979 C138.487356,92.9584979 136.763404,93.56251 137.64845,95.7772213 C138.483474,97.8135699 139.667294,99.6886614 141.146687,101.318194 C140.988616,102.056033 141.253703,102.820581 141.83459,103.302206 C141.83459,103.302206 140.613982,103.608407 141.377386,105.66792 C141.143974,106.263637 141.166988,106.929309 141.440985,107.507483 C141.714982,108.085657 142.215627,108.52498 142.824498,108.721537 C142.824498,108.721537 142.216292,110.479045 144.431003,111.317951 C146.645714,112.156857 148.780729,110.70555 148.780729,110.70555 L138.487356,92.9584979 Z" id="Path" fill="#F4D6C9" fill-rule="nonzero"></path>
                <path d="M141.985593,101.133635 C143.550152,101.553088 145.274103,101.892844 146.721216,102.442328 C147.199392,102.622692 147.673374,102.631081 147.979574,103.033756 C148.327133,103.430489 148.339516,104.019546 148.008936,104.430534 C147.648204,104.69826 147.187218,104.791994 146.750578,104.686401 C145.078741,104.423841 143.44216,103.972128 141.87234,103.339957" id="Path" fill="#F4D6C9" fill-rule="nonzero"></path>
                <path d="M142.610578,103.746826 C144.175137,104.166279 145.899088,104.506036 147.350395,105.055519 C147.824377,105.240078 148.298359,105.248467 148.608754,105.646948 C148.956954,106.04504 148.969331,106.635589 148.638116,107.04792 C148.276426,107.313493 147.816438,107.407024 147.379757,107.303787 C145.711062,107.041396 144.077397,106.591118 142.509909,105.961537" id="Path" fill="#F4D6C9" fill-rule="nonzero"></path>
                <path d="M143.499818,106.439714 C145.068571,106.859167 146.788328,107.198923 148.239635,107.748407 C148.717812,107.928771 149.187599,107.941355 149.497994,108.339835 C149.842626,108.738244 149.853217,109.326048 149.523161,109.736613 C149.162673,110.004886 148.701432,110.098672 148.264802,109.99248 C146.60091,109.72675 144.971783,109.27656 143.407538,108.65023" id="Path" fill="#F4D6C9" fill-rule="nonzero"></path>
                <path d="M141.977204,103.394486 C142.002371,103.331568 143.109726,103.717464 144.493921,104.103361 C145.878116,104.489258 147.010638,104.73254 147.010638,104.803847 C145.258873,104.656175 143.550945,104.177955 141.977204,103.394486 Z" id="Path" fill="#EB996E" fill-rule="nonzero"></path>
                <path d="M141.687781,105.705671 C142.655834,105.928482 143.612008,106.200075 144.552644,106.51941 C146.129787,106.980808 147.421702,107.312176 147.409119,107.383483 C145.430135,107.107398 143.502443,106.542092 141.687781,105.705671 Z" id="Path" fill="#EB996E" fill-rule="nonzero"></path>
                <path d="M142.711246,108.671203 C143.623207,108.773149 144.524353,108.955624 145.404134,109.216492 C146.303166,109.401497 147.184506,109.663934 148.038298,110.000869 C147.125888,109.901803 146.224484,109.719276 145.34541,109.45558 C144.445795,109.272904 143.564252,109.010406 142.711246,108.671203 L142.711246,108.671203 Z" id="Path" fill="#EB996E" fill-rule="nonzero"></path>
                <path d="M140.681094,100.810656 C140.706261,100.743543 142.09465,101.230109 143.839574,101.649562 C145.584498,102.069015 147.027416,102.366826 147.014833,102.438133 C146.692484,102.457929 146.368965,102.431087 146.054286,102.358437 C145.289083,102.240023 144.530315,102.08323 143.780851,101.88865 C143.02949,101.697377 142.288813,101.466353 141.561945,101.196553 C141.251126,101.111437 140.954384,100.981436 140.681094,100.810656 L140.681094,100.810656 Z" id="Path" fill="#EB996E" fill-rule="nonzero"></path>
                <path d="M156.377021,97.6437866 C157.675956,97.516 158.98153,97.4683717 160.286322,97.5011727 C161.593041,97.4531348 162.901485,97.4867565 164.204012,97.6018414 C162.903669,97.7295355 161.596705,97.7771633 160.290517,97.7444553 C158.985195,97.7924276 157.678151,97.7588059 156.377021,97.6437866 Z" id="Path" fill="#EB996E" fill-rule="nonzero"></path>
                <path d="M202.575562,119.954486 C202.533617,119.954486 202.604924,119.392419 202.546201,118.49479 C202.514701,117.970867 202.440349,117.450405 202.323891,116.938619 C202.178441,116.312984 201.979158,115.701099 201.728267,115.109805 C201.465897,114.525198 201.154384,113.963913 200.797082,113.431993 C200.499982,112.999533 200.168969,112.591378 199.807173,112.211385 C199.186383,111.557039 198.733374,111.229866 198.758541,111.196309 C198.879675,111.250139 198.992636,111.320739 199.094103,111.406036 C199.392776,111.61419 199.673401,111.847109 199.933009,112.102328 C200.316923,112.475663 200.666477,112.882775 200.977447,113.318741 C201.354159,113.855578 201.678618,114.427243 201.946383,115.025914 C202.204584,115.629974 202.402682,116.257988 202.537812,116.900869 C202.646194,117.424183 202.706566,117.956301 202.718176,118.490595 C202.729792,118.850691 202.712962,119.211142 202.667842,119.568589 C202.657683,119.701292 202.626536,119.831543 202.575562,119.954486 Z" id="Path" fill="#EB996E" fill-rule="nonzero"></path>
                <rect id="Rectangle" fill="#FF725E" x="48" y="56.4539386" width="80" height="16" rx="8"></rect>
                <path d="M59.9454545,68.4539386 C60.0187879,68.4539386 60.0787879,68.4306053 60.1254545,68.3839386 C60.1721212,68.3372719 60.1954545,68.2806053 60.1954545,68.2139386 L60.1954545,68.2139386 L60.1954545,65.7439386 L63.1954545,65.7439386 C63.2687879,65.7439386 63.3287879,65.7206053 63.3754545,65.6739386 C63.4221212,65.6272719 63.4454545,65.5706053 63.4454545,65.5039386 L63.4454545,65.5039386 L63.4454545,64.7839386 C63.4454545,64.7172719 63.4221212,64.6606053 63.3754545,64.6139386 C63.3287879,64.5672719 63.2687879,64.5439386 63.1954545,64.5439386 L63.1954545,64.5439386 L60.1954545,64.5439386 L60.1954545,62.6639386 L63.3954545,62.6639386 C63.4687879,62.6639386 63.5287879,62.6406053 63.5754545,62.5939386 C63.6221212,62.5472719 63.6454545,62.4906053 63.6454545,62.4239386 L63.6454545,62.4239386 L63.6454545,61.7039386 C63.6454545,61.6306053 63.6221212,61.5706053 63.5754545,61.5239386 C63.5287879,61.4772719 63.4687879,61.4539386 63.3954545,61.4539386 L63.3954545,61.4539386 L59.0454545,61.4539386 C58.9721212,61.4539386 58.9137879,61.4772719 58.8704545,61.5239386 C58.8271212,61.5706053 58.8054545,61.6306053 58.8054545,61.7039386 L58.8054545,61.7039386 L58.8054545,68.2139386 C58.8054545,68.2806053 58.8287879,68.3372719 58.8754545,68.3839386 C58.9221212,68.4306053 58.9787879,68.4539386 59.0454545,68.4539386 L59.0454545,68.4539386 L59.9454545,68.4539386 Z M65.4618182,62.4039386 C65.5284848,62.4039386 65.5868182,62.3806053 65.6368182,62.3339386 C65.6868182,62.2872719 65.7118182,62.2306053 65.7118182,62.1639386 L65.7118182,62.1639386 L65.7118182,61.4339386 C65.7118182,61.3606053 65.6884848,61.3006053 65.6418182,61.2539386 C65.5951515,61.2072719 65.5351515,61.1839386 65.4618182,61.1839386 L65.4618182,61.1839386 L64.5418182,61.1839386 C64.4751515,61.1839386 64.4184848,61.2072719 64.3718182,61.2539386 C64.3251515,61.3006053 64.3018182,61.3606053 64.3018182,61.4339386 L64.3018182,61.4339386 L64.3018182,62.1639386 C64.3018182,62.2306053 64.3251515,62.2872719 64.3718182,62.3339386 C64.4184848,62.3806053 64.4751515,62.4039386 64.5418182,62.4039386 L64.5418182,62.4039386 L65.4618182,62.4039386 Z M65.4318182,68.4539386 C65.4984848,68.4539386 65.5551515,68.4306053 65.6018182,68.3839386 C65.6484848,68.3372719 65.6718182,68.2806053 65.6718182,68.2139386 L65.6718182,68.2139386 L65.6718182,63.4939386 C65.6718182,63.4272719 65.6484848,63.3706053 65.6018182,63.3239386 C65.5551515,63.2772719 65.4984848,63.2539386 65.4318182,63.2539386 L65.4318182,63.2539386 L64.5818182,63.2539386 C64.5151515,63.2539386 64.4584848,63.2756053 64.4118182,63.3189386 C64.3651515,63.3622719 64.3418182,63.4206053 64.3418182,63.4939386 L64.3418182,63.4939386 L64.3418182,68.2139386 C64.3418182,68.2806053 64.3651515,68.3372719 64.4118182,68.3839386 C64.4584848,68.4306053 64.5151515,68.4539386 64.5818182,68.4539386 L64.5818182,68.4539386 L65.4318182,68.4539386 Z M67.7581818,68.4539386 C67.8315152,68.4539386 67.8898485,68.4306053 67.9331818,68.3839386 C67.9765152,68.3372719 67.9981818,68.2806053 67.9981818,68.2139386 L67.9981818,68.2139386 L67.9981818,65.4639386 C67.9981818,65.0839386 68.1015152,64.7839386 68.3081818,64.5639386 C68.5148485,64.3439386 68.7881818,64.2339386 69.1281818,64.2339386 C69.4815152,64.2339386 69.7531818,64.3422719 69.9431818,64.5589386 C70.1331818,64.7756053 70.2281818,65.0772719 70.2281818,65.4639386 L70.2281818,65.4639386 L70.2281818,68.2139386 C70.2281818,68.2806053 70.2515152,68.3372719 70.2981818,68.3839386 C70.3448485,68.4306053 70.4015152,68.4539386 70.4681818,68.4539386 L70.4681818,68.4539386 L71.3681818,68.4539386 C71.4415152,68.4539386 71.4998485,68.4306053 71.5431818,68.3839386 C71.5865152,68.3372719 71.6081818,68.2806053 71.6081818,68.2139386 L71.6081818,68.2139386 L71.6081818,65.4039386 C71.6081818,64.7039386 71.4281818,64.1539386 71.0681818,63.7539386 C70.7081818,63.3539386 70.2215152,63.1539386 69.6081818,63.1539386 C68.9015152,63.1539386 68.3448485,63.4039386 67.9381818,63.9039386 L67.9381818,63.9039386 L67.9381818,63.4939386 C67.9381818,63.4206053 67.9165152,63.3622719 67.8731818,63.3189386 C67.8298485,63.2756053 67.7715152,63.2539386 67.6981818,63.2539386 L67.6981818,63.2539386 L66.8681818,63.2539386 C66.8015152,63.2539386 66.7448485,63.2756053 66.6981818,63.3189386 C66.6515152,63.3622719 66.6281818,63.4206053 66.6281818,63.4939386 L66.6281818,63.4939386 L66.6281818,68.2139386 C66.6281818,68.2806053 66.6515152,68.3372719 66.6981818,68.3839386 C66.7448485,68.4306053 66.8015152,68.4539386 66.8681818,68.4539386 L66.8681818,68.4539386 L67.7581818,68.4539386 Z M74.4445455,68.5539386 C75.1378788,68.5539386 75.6678788,68.3172719 76.0345455,67.8439386 L76.0345455,67.8439386 L76.0345455,68.2139386 C76.0345455,68.2806053 76.0578788,68.3372719 76.1045455,68.3839386 C76.1512121,68.4306053 76.2078788,68.4539386 76.2745455,68.4539386 L76.2745455,68.4539386 L77.0845455,68.4539386 C77.1578788,68.4539386 77.2162121,68.4306053 77.2595455,68.3839386 C77.3028788,68.3372719 77.3245455,68.2806053 77.3245455,68.2139386 L77.3245455,68.2139386 L77.3245455,61.5939386 C77.3245455,61.5206053 77.3028788,61.4622719 77.2595455,61.4189386 C77.2162121,61.3756053 77.1578788,61.3539386 77.0845455,61.3539386 L77.0845455,61.3539386 L76.2145455,61.3539386 C76.1478788,61.3539386 76.0912121,61.3756053 76.0445455,61.4189386 C75.9978788,61.4622719 75.9745455,61.5206053 75.9745455,61.5939386 L75.9745455,61.5939386 L75.9745455,63.8139386 C75.5945455,63.3739386 75.0845455,63.1539386 74.4445455,63.1539386 C73.7712121,63.1539386 73.2528788,63.3722719 72.8895455,63.8089386 C72.5262121,64.2456053 72.3312121,64.8172719 72.3045455,65.5239386 L72.3045455,65.5239386 L72.2945455,65.8539386 L72.3045455,66.1839386 C72.3378788,66.9039386 72.5345455,67.4789386 72.8945455,67.9089386 C73.2545455,68.3389386 73.7712121,68.5539386 74.4445455,68.5539386 Z M74.8245455,67.4739386 C74.1112121,67.4739386 73.7312121,67.0339386 73.6845455,66.1539386 L73.6845455,66.1539386 L73.6745455,65.8539386 L73.6845455,65.5539386 C73.7312121,64.6739386 74.1112121,64.2339386 74.8245455,64.2339386 C75.1912121,64.2339386 75.4712121,64.3506053 75.6645455,64.5839386 C75.8578788,64.8172719 75.9612121,65.1006053 75.9745455,65.4339386 C75.9812121,65.5139386 75.9845455,65.6439386 75.9845455,65.8239386 C75.9845455,65.9972719 75.9812121,66.1239386 75.9745455,66.2039386 C75.9545455,66.5639386 75.8528788,66.8656053 75.6695455,67.1089386 C75.4862121,67.3522719 75.2045455,67.4739386 74.8245455,67.4739386 Z M81.7172727,68.5539386 C82.1172727,68.5539386 82.4506061,68.4856053 82.7172727,68.3489386 C82.9839394,68.2122719 83.1906061,68.0372719 83.3372727,67.8239386 L83.3372727,67.8239386 L83.3372727,68.2139386 C83.3372727,68.2806053 83.3606061,68.3372719 83.4072727,68.3839386 C83.4539394,68.4306053 83.5106061,68.4539386 83.5772727,68.4539386 L83.5772727,68.4539386 L84.4072727,68.4539386 C84.4806061,68.4539386 84.5389394,68.4306053 84.5822727,68.3839386 C84.6256061,68.3372719 84.6472727,68.2806053 84.6472727,68.2139386 L84.6472727,68.2139386 L84.6472727,65.0739386 C84.6472727,64.5006053 84.4672727,64.0372719 84.1072727,63.6839386 C83.7472727,63.3306053 83.1739394,63.1539386 82.3872727,63.1539386 C81.9072727,63.1539386 81.5039394,63.2322719 81.1772727,63.3889386 C80.8506061,63.5456053 80.6089394,63.7289386 80.4522727,63.9389386 C80.2956061,64.1489386 80.2139394,64.3372719 80.2072727,64.5039386 C80.2072727,64.5706053 80.2289394,64.6239386 80.2722727,64.6639386 C80.3156061,64.7039386 80.3672727,64.7239386 80.4272727,64.7239386 L80.4272727,64.7239386 L81.2072727,64.7239386 C81.2806061,64.7239386 81.3306061,64.6839386 81.3572727,64.6039386 L81.3572727,64.6039386 L81.4185227,64.5426886 C81.4460227,64.5151886 81.4806061,64.4806053 81.5222727,64.4389386 C81.6056061,64.3556053 81.7139394,64.2739386 81.8472727,64.1939386 C81.9806061,64.1139386 82.1572727,64.0739386 82.3772727,64.0739386 C82.6972727,64.0739386 82.9306061,64.1472719 83.0772727,64.2939386 C83.2239394,64.4406053 83.2972727,64.6572719 83.2972727,64.9439386 L83.2972727,64.9439386 L83.2972727,65.1539386 L81.9272727,65.3539386 C81.2872727,65.4539386 80.7839394,65.6439386 80.4172727,65.9239386 C80.0506061,66.2039386 79.8672727,66.5706053 79.8672727,67.0239386 C79.8672727,67.3039386 79.9489394,67.5606053 80.1122727,67.7939386 C80.2756061,68.0272719 80.4989394,68.2122719 80.7822727,68.3489386 C81.0656061,68.4856053 81.3772727,68.5539386 81.7172727,68.5539386 Z M82.0572727,67.5939386 C81.8106061,67.5939386 81.5989394,67.5356053 81.4222727,67.4189386 C81.2456061,67.3022719 81.1572727,67.1372719 81.1572727,66.9239386 C81.1572727,66.5306053 81.5406061,66.2739386 82.3072727,66.1539386 L82.3072727,66.1539386 L83.3072727,65.9939386 L83.3072727,66.1939386 C83.3072727,66.6472719 83.1906061,66.9939386 82.9572727,67.2339386 C82.7239394,67.4739386 82.4239394,67.5939386 82.0572727,67.5939386 Z M86.6936364,68.4539386 C86.7669697,68.4539386 86.825303,68.4306053 86.8686364,68.3839386 C86.9119697,68.3372719 86.9336364,68.2806053 86.9336364,68.2139386 L86.9336364,68.2139386 L86.9336364,65.4639386 C86.9336364,65.0839386 87.0369697,64.7839386 87.2436364,64.5639386 C87.450303,64.3439386 87.7236364,64.2339386 88.0636364,64.2339386 C88.4169697,64.2339386 88.6886364,64.3422719 88.8786364,64.5589386 C89.0686364,64.7756053 89.1636364,65.0772719 89.1636364,65.4639386 L89.1636364,65.4639386 L89.1636364,68.2139386 C89.1636364,68.2806053 89.1869697,68.3372719 89.2336364,68.3839386 C89.280303,68.4306053 89.3369697,68.4539386 89.4036364,68.4539386 L89.4036364,68.4539386 L90.3036364,68.4539386 C90.3769697,68.4539386 90.435303,68.4306053 90.4786364,68.3839386 C90.5219697,68.3372719 90.5436364,68.2806053 90.5436364,68.2139386 L90.5436364,68.2139386 L90.5436364,65.4039386 C90.5436364,64.7039386 90.3636364,64.1539386 90.0036364,63.7539386 C89.6436364,63.3539386 89.1569697,63.1539386 88.5436364,63.1539386 C87.8369697,63.1539386 87.280303,63.4039386 86.8736364,63.9039386 L86.8736364,63.9039386 L86.8736364,63.4939386 C86.8736364,63.4206053 86.8519697,63.3622719 86.8086364,63.3189386 C86.765303,63.2756053 86.7069697,63.2539386 86.6336364,63.2539386 L86.6336364,63.2539386 L85.8036364,63.2539386 C85.7369697,63.2539386 85.680303,63.2756053 85.6336364,63.3189386 C85.5869697,63.3622719 85.5636364,63.4206053 85.5636364,63.4939386 L85.5636364,63.4939386 L85.5636364,68.2139386 C85.5636364,68.2806053 85.5869697,68.3372719 85.6336364,68.3839386 C85.680303,68.4306053 85.7369697,68.4539386 85.8036364,68.4539386 L85.8036364,68.4539386 L86.6936364,68.4539386 Z M93.6863636,68.4539386 C93.8263636,68.4539386 93.9230303,68.3906053 93.9763636,68.2639386 L93.9763636,68.2639386 L94.4363636,67.0539386 L97.3963636,67.0539386 L97.8563636,68.2639386 C97.909697,68.3906053 98.0063636,68.4539386 98.1463636,68.4539386 L98.1463636,68.4539386 L99.0363636,68.4539386 C99.089697,68.4539386 99.1380303,68.4339386 99.1813636,68.3939386 C99.224697,68.3539386 99.2463636,68.3039386 99.2463636,68.2439386 L99.2463636,68.2439386 L99.2263636,68.1539386 L96.8263636,61.7039386 C96.759697,61.5372719 96.639697,61.4539386 96.4663636,61.4539386 L96.4663636,61.4539386 L95.3663636,61.4539386 C95.1930303,61.4539386 95.0730303,61.5372719 95.0063636,61.7039386 L95.0063636,61.7039386 L92.6063636,68.1539386 L92.5863636,68.2439386 C92.5863636,68.3039386 92.6063636,68.3539386 92.6463636,68.3939386 C92.6863636,68.4339386 92.7363636,68.4539386 92.7963636,68.4539386 L92.7963636,68.4539386 L93.6863636,68.4539386 Z M97.0463636,65.8939386 L94.7863636,65.8939386 L95.9163636,62.8139386 L97.0463636,65.8939386 Z M100.812727,68.4539386 C100.879394,68.4539386 100.936061,68.4306053 100.982727,68.3839386 C101.029394,68.3372719 101.052727,68.2806053 101.052727,68.2139386 L101.052727,68.2139386 L101.052727,65.4739386 C101.052727,65.1606053 101.142727,64.9139386 101.322727,64.7339386 C101.502727,64.5539386 101.749394,64.4639386 102.062727,64.4639386 L102.062727,64.4639386 L102.852727,64.4639386 C102.926061,64.4639386 102.984394,64.4406053 103.027727,64.3939386 C103.071061,64.3472719 103.092727,64.2906053 103.092727,64.2239386 L103.092727,64.2239386 L103.092727,63.4939386 C103.092727,63.4206053 103.071061,63.3622719 103.027727,63.3189386 C102.984394,63.2756053 102.926061,63.2539386 102.852727,63.2539386 L102.852727,63.2539386 L102.432727,63.2539386 C101.806061,63.2539386 101.326061,63.4739386 100.992727,63.9139386 L100.992727,63.9139386 L100.992727,63.5039386 C100.992727,63.4306053 100.969394,63.3706053 100.922727,63.3239386 C100.876061,63.2772719 100.816061,63.2539386 100.742727,63.2539386 L100.742727,63.2539386 L99.9227273,63.2539386 C99.8560606,63.2539386 99.7993939,63.2772719 99.7527273,63.3239386 C99.7060606,63.3706053 99.6827273,63.4306053 99.6827273,63.5039386 L99.6827273,63.5039386 L99.6827273,68.2139386 C99.6827273,68.2806053 99.7060606,68.3372719 99.7527273,68.3839386 C99.7993939,68.4306053 99.8560606,68.4539386 99.9227273,68.4539386 L99.9227273,68.4539386 L100.812727,68.4539386 Z M106.689091,68.4539386 C106.762424,68.4539386 106.820758,68.4306053 106.864091,68.3839386 C106.907424,68.3372719 106.929091,68.2806053 106.929091,68.2139386 L106.929091,68.2139386 L106.929091,67.5839386 C106.929091,67.5106053 106.907424,67.4522719 106.864091,67.4089386 C106.820758,67.3656053 106.762424,67.3439386 106.689091,67.3439386 L106.689091,67.3439386 L105.989091,67.3439386 C105.762424,67.3439386 105.599091,67.2706053 105.499091,67.1239386 C105.399091,66.9772719 105.349091,66.7606053 105.349091,66.4739386 L105.349091,66.4739386 L105.349091,64.3239386 L106.599091,64.3239386 C106.665758,64.3239386 106.722424,64.3006053 106.769091,64.2539386 C106.815758,64.2072719 106.839091,64.1506053 106.839091,64.0839386 L106.839091,64.0839386 L106.839091,63.4939386 C106.839091,63.4272719 106.815758,63.3706053 106.769091,63.3239386 C106.722424,63.2772719 106.665758,63.2539386 106.599091,63.2539386 L106.599091,63.2539386 L105.349091,63.2539386 L105.349091,61.5939386 C105.349091,61.5206053 105.327424,61.4622719 105.284091,61.4189386 C105.240758,61.3756053 105.182424,61.3539386 105.109091,61.3539386 L105.109091,61.3539386 L104.279091,61.3539386 C104.212424,61.3539386 104.155758,61.3756053 104.109091,61.4189386 C104.062424,61.4622719 104.039091,61.5206053 104.039091,61.5939386 L104.039091,61.5939386 L104.039091,63.2539386 L103.249091,63.2539386 C103.182424,63.2539386 103.125758,63.2772719 103.079091,63.3239386 C103.032424,63.3706053 103.009091,63.4272719 103.009091,63.4939386 L103.009091,63.4939386 L103.009091,64.0839386 C103.009091,64.1506053 103.032424,64.2072719 103.079091,64.2539386 C103.125758,64.3006053 103.182424,64.3239386 103.249091,64.3239386 L103.249091,64.3239386 L104.039091,64.3239386 L104.039091,66.5839386 C104.039091,67.1972719 104.192424,67.6622719 104.499091,67.9789386 C104.805758,68.2956053 105.262424,68.4539386 105.869091,68.4539386 L105.869091,68.4539386 L106.689091,68.4539386 Z M108.575455,62.4039386 C108.642121,62.4039386 108.700455,62.3806053 108.750455,62.3339386 C108.800455,62.2872719 108.825455,62.2306053 108.825455,62.1639386 L108.825455,62.1639386 L108.825455,61.4339386 C108.825455,61.3606053 108.802121,61.3006053 108.755455,61.2539386 C108.708788,61.2072719 108.648788,61.1839386 108.575455,61.1839386 L108.575455,61.1839386 L107.655455,61.1839386 C107.588788,61.1839386 107.532121,61.2072719 107.485455,61.2539386 C107.438788,61.3006053 107.415455,61.3606053 107.415455,61.4339386 L107.415455,61.4339386 L107.415455,62.1639386 C107.415455,62.2306053 107.438788,62.2872719 107.485455,62.3339386 C107.532121,62.3806053 107.588788,62.4039386 107.655455,62.4039386 L107.655455,62.4039386 L108.575455,62.4039386 Z M108.545455,68.4539386 C108.612121,68.4539386 108.668788,68.4306053 108.715455,68.3839386 C108.762121,68.3372719 108.785455,68.2806053 108.785455,68.2139386 L108.785455,68.2139386 L108.785455,63.4939386 C108.785455,63.4272719 108.762121,63.3706053 108.715455,63.3239386 C108.668788,63.2772719 108.612121,63.2539386 108.545455,63.2539386 L108.545455,63.2539386 L107.695455,63.2539386 C107.628788,63.2539386 107.572121,63.2756053 107.525455,63.3189386 C107.478788,63.3622719 107.455455,63.4206053 107.455455,63.4939386 L107.455455,63.4939386 L107.455455,68.2139386 C107.455455,68.2806053 107.478788,68.3372719 107.525455,68.3839386 C107.572121,68.4306053 107.628788,68.4539386 107.695455,68.4539386 L107.695455,68.4539386 L108.545455,68.4539386 Z M111.721818,68.5539386 C112.455152,68.5539386 113.026818,68.4072719 113.436818,68.1139386 C113.846818,67.8206053 114.051818,67.4372719 114.051818,66.9639386 C114.051818,66.1506053 113.451818,65.6272719 112.251818,65.3939386 C111.865152,65.3206053 111.575152,65.2489386 111.381818,65.1789386 C111.188485,65.1089386 111.060152,65.0339386 110.996818,64.9539386 C110.933485,64.8739386 110.901818,64.7739386 110.901818,64.6539386 C110.901818,64.4806053 110.968485,64.3406053 111.101818,64.2339386 C111.235152,64.1272719 111.425152,64.0739386 111.671818,64.0739386 C111.851818,64.0739386 112.005152,64.1006053 112.131818,64.1539386 C112.258485,64.2072719 112.373485,64.2789386 112.476818,64.3689386 C112.580152,64.4589386 112.655152,64.5206053 112.701818,64.5539386 C112.741818,64.6072719 112.798485,64.6339386 112.871818,64.6339386 L112.871818,64.6339386 L113.621818,64.6339386 C113.681818,64.6339386 113.733485,64.6122719 113.776818,64.5689386 C113.820152,64.5256053 113.841818,64.4739386 113.841818,64.4139386 C113.841818,64.2606053 113.756818,64.0839386 113.586818,63.8839386 C113.416818,63.6839386 113.168485,63.5122719 112.841818,63.3689386 C112.515152,63.2256053 112.125152,63.1539386 111.671818,63.1539386 C111.231818,63.1539386 110.853485,63.2289386 110.536818,63.3789386 C110.220152,63.5289386 109.981818,63.7222719 109.821818,63.9589386 C109.661818,64.1956053 109.581818,64.4472719 109.581818,64.7139386 C109.581818,65.1206053 109.716818,65.4472719 109.986818,65.6939386 C110.256818,65.9406053 110.675152,66.1239386 111.241818,66.2439386 C111.635152,66.3306053 111.930152,66.4089386 112.126818,66.4789386 C112.323485,66.5489386 112.460152,66.6256053 112.536818,66.7089386 C112.613485,66.7922719 112.651818,66.9006053 112.651818,67.0339386 C112.651818,67.2272719 112.568485,67.3756053 112.401818,67.4789386 C112.235152,67.5822719 112.018485,67.6339386 111.751818,67.6339386 C111.571818,67.6339386 111.406818,67.6056053 111.256818,67.5489386 C111.106818,67.4922719 110.973485,67.4139386 110.856818,67.3139386 C110.740152,67.2139386 110.665152,67.1506053 110.631818,67.1239386 C110.591818,67.0706053 110.545152,67.0439386 110.491818,67.0439386 L110.491818,67.0439386 L109.671818,67.0439386 C109.611818,67.0439386 109.560152,67.0639386 109.516818,67.1039386 C109.473485,67.1439386 109.451818,67.1972719 109.451818,67.2639386 C109.451818,67.4106053 109.533485,67.5856053 109.696818,67.7889386 C109.860152,67.9922719 110.111818,68.1706053 110.451818,68.3239386 C110.791818,68.4772719 111.215152,68.5539386 111.721818,68.5539386 Z M117.868182,68.4539386 C117.941515,68.4539386 117.999848,68.4306053 118.043182,68.3839386 C118.086515,68.3372719 118.108182,68.2806053 118.108182,68.2139386 L118.108182,68.2139386 L118.108182,67.5839386 C118.108182,67.5106053 118.086515,67.4522719 118.043182,67.4089386 C117.999848,67.3656053 117.941515,67.3439386 117.868182,67.3439386 L117.868182,67.3439386 L117.168182,67.3439386 C116.941515,67.3439386 116.778182,67.2706053 116.678182,67.1239386 C116.578182,66.9772719 116.528182,66.7606053 116.528182,66.4739386 L116.528182,66.4739386 L116.528182,64.3239386 L117.778182,64.3239386 C117.844848,64.3239386 117.901515,64.3006053 117.948182,64.2539386 C117.994848,64.2072719 118.018182,64.1506053 118.018182,64.0839386 L118.018182,64.0839386 L118.018182,63.4939386 C118.018182,63.4272719 117.994848,63.3706053 117.948182,63.3239386 C117.901515,63.2772719 117.844848,63.2539386 117.778182,63.2539386 L117.778182,63.2539386 L116.528182,63.2539386 L116.528182,61.5939386 C116.528182,61.5206053 116.506515,61.4622719 116.463182,61.4189386 C116.419848,61.3756053 116.361515,61.3539386 116.288182,61.3539386 L116.288182,61.3539386 L115.458182,61.3539386 C115.391515,61.3539386 115.334848,61.3756053 115.288182,61.4189386 C115.241515,61.4622719 115.218182,61.5206053 115.218182,61.5939386 L115.218182,61.5939386 L115.218182,63.2539386 L114.428182,63.2539386 C114.361515,63.2539386 114.304848,63.2772719 114.258182,63.3239386 C114.211515,63.3706053 114.188182,63.4272719 114.188182,63.4939386 L114.188182,63.4939386 L114.188182,64.0839386 C114.188182,64.1506053 114.211515,64.2072719 114.258182,64.2539386 C114.304848,64.3006053 114.361515,64.3239386 114.428182,64.3239386 L114.428182,64.3239386 L115.218182,64.3239386 L115.218182,66.5839386 C115.218182,67.1972719 115.371515,67.6622719 115.678182,67.9789386 C115.984848,68.2956053 116.441515,68.4539386 117.048182,68.4539386 L117.048182,68.4539386 L117.868182,68.4539386 Z" id="FindanArtist" fill="#FFFFFF" fill-rule="nonzero"></path>
                <g id="freepik--Arrow--inject-79" transform="translate(123.500000, 56.453939)" fill="#464462" fill-rule="nonzero">
                    <polygon id="Path" points="0.22 0.52 3.36 17.15 5.93 12.51 11.47 20.8 14.23 18.94 8.7 10.65 13.78 9.87"></polygon>
                </g>
                <g id="Group-5" transform="translate(180.990611, 42.958368) scale(-1, 1) rotate(9.000000) translate(-180.990611, -42.958368) translate(162.990611, 12.958368)">
                    <ellipse id="Oval-Copy-88" stroke="#979797" fill="#D8D8D8" cx="14.2297946" cy="24.7269737" rx="3.03947368" ry="1.77302632"></ellipse>
                    <path d="M19.4475667,12.1470206 C17.5435484,12.1036044 11.9115314,11.4688083 13.7355122,12.0167721 L10.4178548,13.7384849 C18.5206336,16.1727371 18.152373,15.8431427 19.880235,12.2279859 L19.4475667,12.1470206 Z" id="Path-21-Copy" stroke="#979797"></path>
                    <path d="M20.3535461,13.7746473 C18.5920777,11.0367563 19.1618714,10.8404906 14.0190508,12.0593349 C12.867137,12.3323375 9.92089313,13.5434546 11.0252546,13.9698601 C19.0142289,17.0544867 18.8068416,16.5270391 19.863914,13.1326852" id="Path-20-Copy" stroke="#979797"></path>
                    <path d="M18.1494236,2.02539234 C23.8236144,1.05225418 31.84326,7.05914787 32.5742534,12.7693058 C33.3862995,19.1116742 33.7250463,20.3969489 32.4082461,24.4011611 C29.0760741,34.5338477 25.482297,40.5961463 25.482297,40.5961463 C25.482297,40.5961463 25.6346526,43.3208729 25.8637868,47.1659106 C28.4491906,47.0704204 30.6955553,47.2837296 31.9979518,48.0077535 C33.78307,49.0001305 28.6389638,56.9826583 21.3639335,59.1025753 C18.7353215,59.8685432 15.715737,59.2076195 12.9450666,57.998378 C12.00338,57.7768353 11.1854372,57.4258963 10.5446116,56.8999592 C10.4317898,56.8073643 10.3244579,56.7093451 10.222908,56.6056533 C6.61873887,54.4922465 3.96479581,51.8729105 4.11980382,51.2985677 C4.22223601,50.9190313 5.98372175,50.3796987 9.40426103,49.6805697 C9.72481532,46.3477347 9.65718125,43.5167026 9.54027885,40.7076171 L9.4934477,39.6238939 C9.44560481,38.5392232 9.39687598,37.4486551 9.36660491,36.3246964 C9.21119042,30.5541877 8.4728131,21.8001291 7.15147294,10.0625205 C7.00405846,8.32039549 8.89271252,4.34009584 10.6160941,4.04476032 C11.8555199,3.34727377 14.3666297,2.67415111 18.1494236,2.02539234 Z" id="Combined-Shape-Copy-4" fill="url(#linearGradient-1)"></path>
                    <g id="Group-11-Copy" transform="translate(-0.000000, 0.000000)">
                        <path d="M25.6019227,34.6623577 C25.6019227,34.6623577 25.4815313,39.0451225 25.6361995,43.434179 C20.965638,42.2644154 16.1794684,40.2912407 13.9041783,38.5032907 C10.468748,35.8036888 9.11143693,32.3567711 7.82579987,29.6415031 L25.6019227,34.6623577 Z" id="Fill-6" fill="#CD9388"></path>
                        <path d="M23.6368173,40.672515 C23.6368173,40.672515 9.05988629,36.4457642 8.26189201,32.6444463 C7.99059495,31.3520982 7.81056337,29.3542591 7.64153052,28.6561056 C7.3971403,27.6467048 5.5785058,30.1078588 4.64555745,27.1492828 C3.71260909,24.1907068 3.29429456,22.0018325 3.68928912,21.1386615 C4.63420795,19.0737557 7.00780294,21.7851062 6.98913132,20.5072076 C6.86748826,12.1818744 9.81139544,3.68024407 19.6391912,2.71955896 C32.2430433,1.48749315 32.9655753,9.56912093 34.1247506,13.7396561 C35.284255,17.9100229 33.7035317,35.7854354 25.3835841,40.9388907 C24.7285919,40.8873854 24.1463363,40.7985935 23.6368173,40.672515 Z" id="Fill-8" fill="#FBC0A6"></path>
                        <path d="M31.4996392,1.59080373 C28.9237107,0.350595638 26.667801,1.03372842 25.4263809,2.18599836 C14.0781904,-3.413829 7.95043722,9.34569866 7.95043722,9.34569866 C2.90425062,16.0148401 1.7570718,20.4816829 2.00856013,27.3668977 C2.09591879,29.7585916 2.86110602,37.9324131 4.30412184,51.8883623 L7.00053957,50.5838789 C5.22460822,36.9508799 4.26623918,27.9409842 4.12543244,23.554192 C4.07324567,21.9283288 5.65688234,20.3852476 6.47192804,20.4623832 C6.89609815,20.5025264 8.13887204,24.775437 8.30859033,24.3539866 C8.83982219,23.034813 9.65267614,17.2813096 9.86951758,16.4547196 C14.079572,0.406176686 25.655761,5.39163438 25.9949228,3.93019102 C27.2317794,4.9595739 27.8942108,4.36820566 30.1516229,6.069238 C33.2593973,8.41104546 34.7310982,13.8812205 33.8127935,18.1336084 C33.8127935,18.1336084 33.7719218,24.1529973 34.2984418,23.1146368 C34.4160957,22.8826092 34.2885508,20.9358033 34.8270925,18.0151953 C35.6059197,13.7914763 36.8873467,7.61314679 32.977935,3.02114899 L31.4996392,1.59080373 Z" id="Fill-10" fill="#464462"></path>
                    </g>
                    <g id="Group-22-Copy" transform="translate(12.710058, 11.822368)">
                        <path d="M8.19824185,3.39927662 C7.90490943,3.756583 7.07798685,3.389799 6.79839699,3.27843693 C5.90986986,2.92349996 4.53085994,2.42811103 3.31361321,2.5400608 C1.39302304,2.98250793 0.57843669,3.30031128 0.556638158,3.18800145 C0.505458995,2.9254713 0.635371928,2.11837236 4.80220874,1.53644633 C5.2978884,1.46725968 7.95269374,1.5274064 8.44647788,2.00934351 C8.83979922,2.39366111 8.35462263,3.20830253 8.19824185,3.39927662 Z" id="Fill-1" fill="#413F62" transform="translate(4.573283, 2.532335) rotate(-6.000000) translate(-4.573283, -2.532335) "></path>
                        <path d="M14.7938039,3.46502897 C15.0598381,3.83959066 15.8881558,3.4842985 16.1730559,3.3932786 C17.0785304,3.10299725 18.4621084,2.96315446 19.6611026,3.15852384 C21.5344666,3.73030062 22.1947391,3.28706271 18.396168,1.8005181 C18.0440413,1.66271572 15.0388723,1.83704751 14.5159343,2.28059957 C14.0993606,2.63433802 14.6520101,3.26485996 14.7938039,3.46502897 Z" id="Fill-1-Copy" fill="#413F62" transform="translate(17.762492, 2.693774) rotate(15.000000) translate(-17.762492, -2.693774) "></path>
                        <path d="M13.1878009,5.86315789 C13.1878009,5.86315789 13.1772558,5.99010663 13.1456205,6.20756511 C13.1121242,6.42972539 13.0811092,6.72241274 13.0581581,7.08268855 C13.0407896,7.26076941 13.0420302,7.45471886 13.0339663,7.65689647 C13.0221806,7.85848636 13.0463723,8.07241848 13.0420302,8.28987696 C13.066222,8.72832027 13.1226693,9.1879217 13.2002069,9.64575995 C13.2901505,10.1006596 13.4030452,10.5514451 13.5357896,10.9710812 C13.6176693,11.1744343 13.6722557,11.3830769 13.7547557,11.5693859 C13.8341542,11.7568704 13.9023873,11.939653 13.9817858,12.1018653 C14.1306579,12.4315794 14.2727068,12.706635 14.3769173,12.8988212 C14.4823684,13.0904198 14.5388158,13.2085526 14.5388158,13.2085526 C14.5388158,13.2085526 14.4290226,13.1380256 14.244173,13.0010855 C14.149267,12.9340848 14.0419549,12.8453382 13.9290602,12.7336703 C13.8099625,12.6267043 13.6796993,12.5003433 13.559361,12.3469469 C13.2938723,12.0548472 13.0476129,11.6675361 12.8267859,11.2314437 C12.7318799,11.0075202 12.6146431,10.7812458 12.5451694,10.5349888 C12.4564664,10.2940213 12.4087032,10.0383607 12.3491544,9.78563865 C12.3150378,9.52880256 12.2697559,9.27372964 12.2672747,9.018069 C12.2455642,8.76475926 12.2734777,8.51321269 12.2834025,8.27283292 C12.3361281,7.79148564 12.4297935,7.3477528 12.5743235,6.98806472 C12.6332521,6.80586978 12.71141,6.64365751 12.7852258,6.50260336 C12.8522182,6.35919831 12.9216919,6.24282864 12.9849626,6.15173117 C13.109643,5.9665976 13.1878009,5.86315789 13.1878009,5.86315789" id="Fill-4" fill="#C39886"></path>
                        <path d="M5.22128846,6.40396039 C5.25411664,6.80092224 5.50274214,6.90715141 5.53729812,7.13003749 C5.83534347,7.02550565 6.0268748,7.13741113 6.50072372,7.0903286 C6.93224155,7.04799752 7.30846981,7.06743526 7.60349151,7.10328709 C7.84322364,6.64671617 7.85272654,6.14306273 7.60349151,5.81132529 C7.36764693,5.49772975 6.98709917,5.45323892 6.60741531,5.40918004 C6.45882459,5.3914701 5.49730437,5.27916316 5.2398623,5.74610087 C5.20185072,5.81478089 5.17938933,5.8964194 5.22128846,6.40396039 Z" id="Fill-8" fill="#545A83" transform="translate(6.492799, 6.257369) rotate(13.000000) translate(-6.492799, -6.257369) "></path>
                        <path d="M16.3564121,6.72461213 C16.3881095,7.11685379 16.4985503,7.09425453 16.5319159,7.31449033 C16.9459063,7.43912965 18.3716989,7.38019775 18.6565583,7.41562328 C18.8880327,6.96448135 19.1275884,6.4955489 18.8869385,6.16775608 C18.6592178,5.85788944 18.0613981,5.78519549 17.6947927,5.7416605 C17.5513203,5.72416115 16.7717982,5.43685409 16.5232239,5.89823954 C16.4865217,5.9661029 16.3159562,6.2231062 16.3564121,6.72461213 Z" id="Fill-8-Copy" fill="#545A83" transform="translate(17.668664, 6.526457) rotate(15.000000) translate(-17.668664, -6.526457) "></path>
                        <path d="M7.62490416,4.56634858 C6.60942834,4.01273928 4.11171683,3.78446343 2.48799294,5.51194207 C2.19058469,5.82835448 1.5277552,6.99575374 1.91647001,6.93999228 C3.31632286,6.73918223 4.37375116,5.30584633 5.78359244,5.19512034 C6.45215539,5.1426128 7.31440162,6.06473808 7.93859507,6.3745639 C9.44796561,7.12375786 9.55906875,6.48128187 8.95359799,6.04652833 L7.62490416,4.56634858 Z" id="Path-19" fill="#CAA199" transform="translate(5.547292, 5.551823) rotate(6.000000) translate(-5.547292, -5.551823) "></path>
                        <path d="M18.9994697,4.80183271 C18.048982,4.24822342 16.2938379,3.92163379 14.7740285,5.64911243 C13.2542191,7.37659107 13.7403247,6.84567187 14.1041627,6.78991041 C14.4852685,6.7315025 14.8013749,6.60144143 15.0905236,6.44362619 C15.7954861,6.0588628 16.340208,5.50912454 17.2759976,5.43060448 C17.9017741,5.37809694 19.0037851,6.32795842 19.5880317,6.63778425 C21.0008061,7.38697821 20.8372432,6.982088 20.2431303,6.28201246 L18.9994697,4.80183271 Z" id="Path-19-Copy" fill="#CAA199" transform="translate(17.205372, 5.698808) scale(-1, 1) rotate(-3.000000) translate(-17.205372, -5.698808) "></path>
                        <path d="M2.55478332,6.19978989 C2.72282736,6.09772603 2.98375455,5.93252867 3.17621525,5.81566555 C3.36723967,5.69625083 3.69531556,5.49986678 3.91410795,5.3763695 C4.34451134,5.1145757 4.65854484,5.07139139 5.1861361,4.90808921 C5.45088925,4.83460323 5.70506895,4.76334124 5.99759005,4.72966017 C6.14361123,4.71435059 6.54679442,4.70852615 6.72680741,4.75088265 C6.81968646,4.7733367 6.90299034,4.8049765 6.99060304,4.85600843 C7.03081871,4.8789728 7.15321187,4.99130575 7.22071674,5.05203375 C7.48786368,5.29188382 7.55074985,5.5184029 7.65176777,5.70211785 C7.75182818,5.89450823 7.85045232,6.04403179 7.98019573,6.17671481 C8.22723483,6.42626095 8.52837358,6.56149557 8.74046335,6.63651251 C8.95542567,6.71203976 9.08804162,6.74265892 9.08804162,6.74265892 C9.08804162,6.74265892 8.95829822,6.77787095 8.71987676,6.78756702 C8.48576412,6.79267021 8.17122495,6.55744065 7.47041206,6.4660564 C6.76959918,6.37467215 5.42305233,6.09689213 5.18415212,6.17088843 C4.70395789,6.30357145 2.87648673,6.63851755 2.78217141,6.66862639 C2.02764888,6.91051775 1.68357116,7.01976231 1.68357116,7.01976231 C1.68357116,7.01976231 1.86680815,6.60906598 2.55478332,6.19978989 Z" id="Fill-6" fill="#464462" transform="translate(5.385806, 5.869006) rotate(6.000000) translate(-5.385806, -5.869006) "></path>
                        <path d="M14.2807453,6.4440395 C14.438035,6.34197564 14.6822634,6.17677828 14.8624071,6.05991516 C15.0412064,5.94050044 15.3482862,5.74411639 15.5530764,5.62061912 C15.955935,5.35882531 16.4804028,4.92095714 17.3944929,5.04882679 C18.3085831,5.17669644 19.390659,6.37040729 19.5120991,6.50309031 C19.7433283,6.75263646 19.87204,6.80574518 20.0705565,6.88076212 C20.2717617,6.95628938 20.3958906,6.98690853 20.3958906,6.98690853 C20.3958906,6.98690853 20.0737867,6.89428156 19.8506237,6.90397762 C19.6314937,6.90908082 18.9357587,6.97397685 18.0703568,6.49826984 C17.2049549,6.02256284 17.1445013,6.25381962 16.9208901,6.32781592 C16.4714272,6.46049894 14.7354422,7.02887495 14.6471628,7.05898379 C13.940928,7.30087514 13.7606019,6.92227083 13.7606019,6.92227083 C13.7606019,6.92227083 13.636799,6.85331559 14.2807453,6.4440395 Z" id="Fill-6-Copy" fill="#464462" transform="translate(17.073472, 6.082840) scale(-1, 1) rotate(-3.000000) translate(-17.073472, -6.082840) "></path>
                        <path d="M6.57433632,18.9640029 C7.23592843,19.2735227 8.19994816,19.6524437 9.41371132,19.88547 C10.1482508,20.0268056 10.707514,20.0627727 10.8498626,20.0713845 C11.679639,20.1205227 13.0423363,20.0921542 14.7186061,19.5394766 C14.5570074,19.9244766 14.2424218,20.536424 13.6487113,21.1124042 C13.3234876,21.4274963 12.7140732,22.0191806 11.8204679,22.1944569 C10.7054876,22.4138056 9.78148764,21.8606213 8.99882316,21.3925424 C7.78202053,20.6645884 7.02265869,19.6939832 6.57433632,18.9640029 Z M12.19331,17.7137661 C12.4354547,17.5395029 12.8067771,17.514174 13.0154876,17.7279503 C13.0755172,17.7894996 13.1170567,17.8640934 13.1527072,17.9428031 L13.2545929,18.1823516 C13.5630995,18.8393845 14.3270205,19.1261082 15.0174876,19.3505227 C13.5494218,19.6022924 12.0717311,19.8555819 10.5828955,19.8363319 C9.09355343,19.8175884 7.5758429,19.5106016 6.3149679,18.7183121 C7.01100737,18.7927792 7.71363237,18.8667398 8.40916527,18.7861937 C9.10469816,18.7066608 9.8017508,18.4579306 10.3012376,17.9675621 C10.3985008,17.8718187 10.4912047,17.7654371 10.61481,17.7076871 C10.8377047,17.6033319 11.1122705,17.687424 11.2986916,17.8490227 C11.4846061,18.0101148 11.6016258,18.2350358 11.7135797,18.4543845 C11.8133758,18.17222 11.9506587,17.8885358 12.19331,17.7137661 Z" id="Combined-Shape" fill="#CB8E8E" transform="translate(10.666228, 19.909641) rotate(5.000000) translate(-10.666228, -19.909641) "></path>
                    </g>
                    <path d="M24.2296921,26.888481 C25.2326996,26.888481 27.1754284,25.4432269 27.1754284,25.0903032 C27.1754284,24.7373795 25.4176575,25.7254792 24.4146499,25.7254792 C23.4116424,25.7254792 22.4135863,25.8965324 22.4135863,26.2494561 C22.4135863,26.6023798 23.2266845,26.888481 24.2296921,26.888481 Z" id="Oval-Copy-89" fill="#D2A29A" opacity="0.496651786"></path>
                    <ellipse id="Oval-Copy-90" fill="#E35C86" opacity="0.192196801" filter="url(#filter-2)" transform="translate(13.034587, 25.081749) rotate(14.000000) translate(-13.034587, -25.081749) " cx="13.0345873" cy="25.081749" rx="3.67269737" ry="2.02631579"></ellipse>
                </g>
                <g id="Group-13" transform="translate(193.149946, 39.000000) rotate(18.000000) translate(-193.149946, -39.000000) translate(157.649946, 10.000000)" fill="#464462">
                    <path d="M9.68083333,3.62913379 C12.5508401,2.10068551 17.5872211,-0.452627298 22.6872499,1.08633822 C25.2338451,1.85495891 34.3555531,5.80382444 38.1073943,12.4758934 C39.6570679,15.2319279 42.2634097,19.2554959 40.3524626,24.1844614 C40.1094452,24.8113579 39.4436099,29.2922789 37.3948918,30.7684858 C37.181837,30.9220122 35.2263344,36.0405753 34.9182465,36.3348402 C34.5584565,36.6784874 33.3482281,30.6103524 34.1197499,30.0022658 C36.9067821,27.8056243 34.8291836,24.7024945 34.3895048,24.2951299 C33.167218,23.1626751 33.4153287,22.6826 31.4185619,22.8850189 C30.7075402,22.9570976 31.3554309,26.7775324 30.5914389,26.4002408 C27.6292643,24.9373938 29.2678238,23.449619 22.8169794,18.4027584 C16.366135,13.3558978 2.66187519,18.1729828 1.28283085,15.6879828 C0.145302747,13.6385 1.6704232,11.4152681 3.6114692,8.12445632" id="Fill-3"></path>
                    <path d="M39.9365529,23.5496379 C43.3694859,22.1163621 51.7471636,27.7196379 54.349134,30.2680862 C56.7446148,32.6141207 61.2688743,37.0449828 62.5353334,43.7055 C63.3160913,47.8118793 62.3790483,50.243431 64.2639758,51.8020517 C66.4164391,53.5815345 69.9743001,52.3436034 70.2174843,53.2623966 C70.3854448,53.8967069 68.8112527,54.9422241 67.5941644,55.5655 C63.8173042,57.4992931 53.6214163,60.2773966 45.3583254,53.9251552 C34.2565848,45.3908448 36.4694273,24.9970517 39.9365529,23.5496379" id="Fill-11"></path>
                </g>
                <path d="M195.932661,106.234517 C195.886969,100.734948 196.046322,92.188949 196.35492,87.81666 L196.798384,79.2004257 C197.862946,88.1178526 199.174989,97.0598152 200.734513,106.026313 C199.065178,106.202655 197.520265,106.402718 196.099774,106.6265 L195.932661,106.234517 Z" id="Path-35" fill="#2F2487" opacity="0.442127046"></path>
                <path d="M163.677088,76.5433147 C161.663453,81.5314647 159.878171,84.6959549 158.391744,89.8657617 C157.951219,91.3979099 158.017006,98.1415715 158.755472,97.0644544 C159.00326,96.7030331 159.398041,94.1752816 159.779441,91.9961667 C160.552284,87.5805645 162.896514,82.4519955 164.035293,78.1163281 C164.19822,76.8831911 164.255998,76.1626125 164.208628,75.9545922 C164.176397,75.813054 163.999217,76.0092948 163.677088,76.5433147 Z" id="Path-36" fill="#2F2487" opacity="0.442127046"></path>
            </g>
        </g>
    </g>
</svg>