<?xml version="1.0" encoding="UTF-8"?>
<svg width="222px" height="165px" viewBox="0 0 222 165" version="1.1" xmlns="http://www.w3.org/2000/svg" xmlns:xlink="http://www.w3.org/1999/xlink">
    <title>Иллюстрация-3</title>
    <defs>
        <polygon id="path-1" points="0 0.012725 214.846968 0.012725 214.846968 2.262725 0 2.262725"></polygon>
        <path d="M11.6995193,3.92179642 C11.6995193,3.92179642 4.84397595,7.89426205 2.7513378,11.1877603 C0.658699658,14.4812586 1.43900541,23.7182546 1.43900541,23.7182546 C0.582849038,26.9423946 0.100013664,30.2542372 -1.49213975e-13,33.5886156 C-1.49213975e-13,38.9240829 4.12954016,42.8357454 5.18345961,45.6985555 C6.23737907,48.5613655 3.89669032,74.4465786 3.89669032,74.4465786 L46.305618,74.2976616 L44.5280969,35.7065884 L49.7166234,36.177812 C49.7166234,36.177812 51.4039079,9.93116407 43.5603151,6.61233118 C35.7167222,3.29349829 26.2821163,-3.62376795e-13 26.2821163,-3.62376795e-13 L11.6995193,3.92179642 Z" id="path-3"></path>
        <filter x="-88.4%" y="-160.3%" width="276.9%" height="420.6%" filterUnits="objectBoundingBox" id="filter-5">
            <feGaussianBlur stdDeviation="2" in="SourceGraphic"></feGaussianBlur>
        </filter>
    </defs>
    <g id="Page-1" stroke="none" stroke-width="1" fill="none" fill-rule="evenodd">
        <g id="Index_Customer" transform="translate(-854.000000, -2567.000000)">
            <g id="Иллюстрация-3" transform="translate(854.355161, 2568.633741)">
                <g id="Group-3" transform="translate(0.000000, 144.226496)">
                    <mask id="mask-2" fill="white">
                        <use xlink:href="#path-1"></use>
                    </mask>
                    <g id="Clip-2"></g>
                    <path d="M214.846968,1.1366 C214.846968,1.46285 166.747896,1.72385 107.428517,1.72385 C48.0888941,1.72385 -5.62364935e-05,1.46285 -5.62364935e-05,1.1366 C-5.62364935e-05,0.8126 48.0888941,0.5516 107.428517,0.5516 C166.747896,0.5516 214.846968,0.8126 214.846968,1.1366" id="Fill-1" fill="#263238" mask="url(#mask-2)"></path>
                </g>
                <g id="freepik--Character--inject-311" transform="translate(16.654288, 70.311966)">
                    <path d="M114.841752,27.0295244 L114.188119,27.369008 C113.826679,35.8713005 113.465238,44.3719041 113.103798,52.8708186 C112.906188,57.55772 111.926686,70.7252461 113.669707,75.3209429 L142.712682,75.2620292 C143.829631,73.358719 144.314599,70.372093 144.498437,68.1729184 C145.399563,58.7602229 145.683918,49.2986558 145.34968,39.8488331 C145.268609,36.8897516 145.532089,30.0291413 142.81622,28.1949161 C138.220523,25.1091615 133.969377,26.1681479 129.323011,25.1243623 C124.676644,24.0805767 119.903605,26.5887023 115.135633,26.5380331" id="Path" fill="#312F45" fill-rule="nonzero"></path>
                    <path d="M101.338409,57.0155596 L93.0691947,43.9226371 C92.7246441,43.9226371 68.6770397,48.7463454 68.6770397,48.7463454 C68.6770397,48.7463454 51.9258007,50.1954846 51.5153802,50.4690983 C51.1049596,50.742712 46.0025707,60.1874518 46.0025707,60.1874518 C49.3771397,60.7397461 50.7553421,56.3973953 50.7553421,56.3973953 L54.134978,54.4668986 L58.2695851,54.9735906 C57.0889926,55.5106842 56.0908093,56.0477778 55.7867941,56.4227299 C54.8899492,57.5222516 54.4085917,59.660492 54.9608861,59.7314289 C55.5131804,59.8023658 56.5164306,58.2113528 59.1157608,57.8668022 C61.715091,57.5222516 68.3071545,56.1440492 68.3071545,56.1440492 L68.3071545,56.1440492 L70.6734064,56.4227299 L101.338409,57.0155596 Z" id="Path" fill="#F9BCA0" fill-rule="nonzero"></path>
                    <path d="M62.3991253,53.2609715 C61.6352661,53.6392914 60.8522094,53.9775448 60.0531411,54.2743556 C59.2891636,54.6561488 58.5042296,54.9944824 57.70209,55.2877397 C58.3857114,54.7637911 59.1440509,54.345338 59.9518027,54.0463442 C60.7224635,53.6605722 61.547896,53.3956818 62.3991253,53.2609715 L62.3991253,53.2609715 Z" id="Path" fill="#A36957" fill-rule="nonzero"></path>
                    <g id="Group-38" transform="translate(87.900936, 0.711940)">
                        <mask id="mask-4" fill="white">
                            <use xlink:href="#path-3"></use>
                        </mask>
                        <use id="Path" fill="#4F5BAA" fill-rule="nonzero" xlink:href="#path-3"></use>
                        <path d="M4.90236903,68.9680062 C6.28308091,68.9680062 7.40236903,70.0872943 7.40236903,71.4680062 C7.40236903,72.848718 6.28308091,73.9680062 4.90236903,73.9680062 C3.52165716,73.9680062 2.40236903,72.848718 2.40236903,71.4680062 C2.40236903,70.0872943 3.52165716,68.9680062 4.90236903,68.9680062 Z M41.3787924,68.9031801 C42.7595043,68.9031801 43.8787924,70.0224683 43.8787924,71.4031801 C43.8787924,72.783892 42.7595043,73.9031801 41.3787924,73.9031801 C39.9980805,73.9031801 38.8787924,72.783892 38.8787924,71.4031801 C38.8787924,70.0224683 39.9980805,68.9031801 41.3787924,68.9031801 Z M28.7057262,68.864032 C30.0864381,68.864032 31.2057262,69.9833201 31.2057262,71.364032 C31.2057262,72.7447438 30.0864381,73.864032 28.7057262,73.864032 C27.3250144,73.864032 26.2057262,72.7447438 26.2057262,71.364032 C26.2057262,69.9833201 27.3250144,68.864032 28.7057262,68.864032 Z M15.9901443,68.7444827 C17.3708562,68.7444827 18.4901443,69.8637708 18.4901443,71.2444827 C18.4901443,72.6251946 17.3708562,73.7444827 15.9901443,73.7444827 C14.6094324,73.7444827 13.4901443,72.6251946 13.4901443,71.2444827 C13.4901443,69.8637708 14.6094324,68.7444827 15.9901443,68.7444827 Z M9.95879867,50.7266374 C11.3395105,50.7266374 12.4587987,51.8459255 12.4587987,53.2266374 C12.4587987,54.6073492 11.3395105,55.7266374 9.95879867,55.7266374 C8.5780868,55.7266374 7.45879867,54.6073492 7.45879867,53.2266374 C7.45879867,51.8459255 8.5780868,50.7266374 9.95879867,50.7266374 Z M22.0917883,50.6037205 C23.4725002,50.6037205 24.5917883,51.7230086 24.5917883,53.1037205 C24.5917883,54.4844324 23.4725002,55.6037205 22.0917883,55.6037205 C20.7110764,55.6037205 19.5917883,54.4844324 19.5917883,53.1037205 C19.5917883,51.7230086 20.7110764,50.6037205 22.0917883,50.6037205 Z M16.293227,44.3543237 C17.6739389,44.3543237 18.793227,45.4736118 18.793227,46.8543237 C18.793227,48.2350356 17.6739389,49.3543237 16.293227,49.3543237 C14.9125151,49.3543237 13.793227,48.2350356 13.793227,46.8543237 C13.793227,45.4736118 14.9125151,44.3543237 16.293227,44.3543237 Z M22.4011852,38.1470217 C23.7818971,38.1470217 24.9011852,39.2663098 24.9011852,40.6470217 C24.9011852,42.0277336 23.7818971,43.1470217 22.4011852,43.1470217 C21.0204734,43.1470217 19.9011852,42.0277336 19.9011852,40.6470217 C19.9011852,39.2663098 21.0204734,38.1470217 22.4011852,38.1470217 Z M9.73990562,37.9891661 C11.1206175,37.9891661 12.2399056,39.1084543 12.2399056,40.4891661 C12.2399056,41.869878 11.1206175,42.9891661 9.73990562,42.9891661 C8.35919374,42.9891661 7.23990562,41.869878 7.23990562,40.4891661 C7.23990562,39.1084543 8.35919374,37.9891661 9.73990562,37.9891661 Z M16.0200316,31.7469254 C17.4007435,31.7469254 18.5200316,32.8662136 18.5200316,34.2469254 C18.5200316,35.6276373 17.4007435,36.7469254 16.0200316,36.7469254 C14.6393198,36.7469254 13.5200316,35.6276373 13.5200316,34.2469254 C13.5200316,32.8662136 14.6393198,31.7469254 16.0200316,31.7469254 Z M28.7082519,31.7073563 C30.0889638,31.7073563 31.2082519,32.8266444 31.2082519,34.2073563 C31.2082519,35.5880682 30.0889638,36.7073563 28.7082519,36.7073563 C27.3275401,36.7073563 26.2082519,35.5880682 26.2082519,34.2073563 C26.2082519,32.8266444 27.3275401,31.7073563 28.7082519,31.7073563 Z M3.77506979,31.6038031 C5.15578166,31.6038031 6.27506979,32.7230912 6.27506979,34.1038031 C6.27506979,35.4845149 5.15578166,36.6038031 3.77506979,36.6038031 C2.39435791,36.6038031 1.27506979,35.4845149 1.27506979,34.1038031 C1.27506979,32.7230912 2.39435791,31.6038031 3.77506979,31.6038031 Z M41.3051265,31.2910386 C42.6858383,31.2910386 43.8051265,32.4103267 43.8051265,33.7910386 C43.8051265,35.1717504 42.6858383,36.2910386 41.3051265,36.2910386 C39.9244146,36.2910386 38.8051265,35.1717504 38.8051265,33.7910386 C38.8051265,32.4103267 39.9244146,31.2910386 41.3051265,31.2910386 Z M9.99626306,25.6444396 C11.3769749,25.6444396 12.4962631,26.7637277 12.4962631,28.1444396 C12.4962631,29.5251514 11.3769749,30.6444396 9.99626306,30.6444396 C8.61555119,30.6444396 7.49626306,29.5251514 7.49626306,28.1444396 C7.49626306,26.7637277 8.61555119,25.6444396 9.99626306,25.6444396 Z M22.6158688,25.6444396 C23.9965807,25.6444396 25.1158688,26.7637277 25.1158688,28.1444396 C25.1158688,29.5251514 23.9965807,30.6444396 22.6158688,30.6444396 C21.2351569,30.6444396 20.1158688,29.5251514 20.1158688,28.1444396 C20.1158688,26.7637277 21.2351569,25.6444396 22.6158688,25.6444396 Z M34.9900617,25.5846649 C36.3707736,25.5846649 37.4900617,26.703953 37.4900617,28.0846649 C37.4900617,29.4653768 36.3707736,30.5846649 34.9900617,30.5846649 C33.6093499,30.5846649 32.4900617,29.4653768 32.4900617,28.0846649 C32.4900617,26.703953 33.6093499,25.5846649 34.9900617,25.5846649 Z M47.4993791,25.380505 C48.8800909,25.380505 49.9993791,26.4997932 49.9993791,27.880505 C49.9993791,29.2612169 48.8800909,30.380505 47.4993791,30.380505 C46.1186672,30.380505 44.9993791,29.2612169 44.9993791,27.880505 C44.9993791,26.4997932 46.1186672,25.380505 47.4993791,25.380505 Z M4.08404576,19.8698723 C5.46475763,19.8698723 6.58404576,20.9891604 6.58404576,22.3698723 C6.58404576,23.7505842 5.46475763,24.8698723 4.08404576,24.8698723 C2.70333388,24.8698723 1.58404576,23.7505842 1.58404576,22.3698723 C1.58404576,20.9891604 2.70333388,19.8698723 4.08404576,19.8698723 Z M16.447715,19.563422 C17.8284269,19.563422 18.947715,20.6827102 18.947715,22.063422 C18.947715,23.4441339 17.8284269,24.563422 16.447715,24.563422 C15.0670031,24.563422 13.947715,23.4441339 13.947715,22.063422 C13.947715,20.6827102 15.0670031,19.563422 16.447715,19.563422 Z M28.8791569,19.4510289 C30.2598688,19.4510289 31.3791569,20.570317 31.3791569,21.9510289 C31.3791569,23.3317407 30.2598688,24.4510289 28.8791569,24.4510289 C27.498445,24.4510289 26.3791569,23.3317407 26.3791569,21.9510289 C26.3791569,20.570317 27.498445,19.4510289 28.8791569,19.4510289 Z M41.0639232,19.1849896 C42.444635,19.1849896 43.5639232,20.3042777 43.5639232,21.6849896 C43.5639232,23.0657015 42.444635,24.1849896 41.0639232,24.1849896 C39.6832113,24.1849896 38.5639232,23.0657015 38.5639232,21.6849896 C38.5639232,20.3042777 39.6832113,19.1849896 41.0639232,19.1849896 Z M22.7156335,13.6600446 C24.0963454,13.6600446 25.2156335,14.7793328 25.2156335,16.1600446 C25.2156335,17.5407565 24.0963454,18.6600446 22.7156335,18.6600446 C21.3349216,18.6600446 20.2156335,17.5407565 20.2156335,16.1600446 C20.2156335,14.7793328 21.3349216,13.6600446 22.7156335,13.6600446 Z M10.2454644,13.5308135 C11.6261763,13.5308135 12.7454644,14.6501017 12.7454644,16.0308135 C12.7454644,17.4115254 11.6261763,18.5308135 10.2454644,18.5308135 C8.86475252,18.5308135 7.74546439,17.4115254 7.74546439,16.0308135 C7.74546439,14.6501017 8.86475252,13.5308135 10.2454644,13.5308135 Z M46.8536445,13.4760903 C48.2343564,13.4760903 49.3536445,14.5953784 49.3536445,15.9760903 C49.3536445,17.3568022 48.2343564,18.4760903 46.8536445,18.4760903 C45.4729327,18.4760903 44.3536445,17.3568022 44.3536445,15.9760903 C44.3536445,14.5953784 45.4729327,13.4760903 46.8536445,13.4760903 Z M35.028789,13.1852151 C36.4095009,13.1852151 37.528789,14.3045032 37.528789,15.6852151 C37.528789,17.065927 36.4095009,18.1852151 35.028789,18.1852151 C33.6480771,18.1852151 32.528789,17.065927 32.528789,15.6852151 C32.528789,14.3045032 33.6480771,13.1852151 35.028789,13.1852151 Z M15.9594151,7.44137705 C17.340127,7.44137705 18.4594151,8.56066517 18.4594151,9.94137705 C18.4594151,11.3220889 17.340127,12.441377 15.9594151,12.441377 C14.5787032,12.441377 13.4594151,11.3220889 13.4594151,9.94137705 C13.4594151,8.56066517 14.5787032,7.44137705 15.9594151,7.44137705 Z M4.59906413,7.28806042 C5.979776,7.28806042 7.09906413,8.40734855 7.09906413,9.78806042 C7.09906413,11.1687723 5.979776,12.2880604 4.59906413,12.2880604 C3.21835225,12.2880604 2.09906413,11.1687723 2.09906413,9.78806042 C2.09906413,8.40734855 3.21835225,7.28806042 4.59906413,7.28806042 Z M41.3303834,7.05452566 C42.7110952,7.05452566 43.8303834,8.17381379 43.8303834,9.55452566 C43.8303834,10.9352375 42.7110952,12.0545257 41.3303834,12.0545257 C39.9496715,12.0545257 38.8303834,10.9352375 38.8303834,9.55452566 C38.8303834,8.17381379 39.9496715,7.05452566 41.3303834,7.05452566 Z M32.9661429,6.94718388 C34.3468547,6.94718388 35.4661429,8.066472 35.4661429,9.44718388 C35.4661429,10.8278958 34.3468547,11.9471839 32.9661429,11.9471839 C31.585431,11.9471839 30.4661429,10.8278958 30.4661429,9.44718388 C30.4661429,8.066472 31.585431,6.94718388 32.9661429,6.94718388 Z" id="Combined-Shape" fill="#6164FC" mask="url(#mask-4)"></path>
                    </g>
                    <path d="M119.158555,35.7835398 C120.376045,2.94525867 117.560159,45.5616524 118.894929,36.1758928" id="Path-34" stroke="#42439F"></path>
                    <g id="Group" opacity="0.3" transform="translate(94.244720, 35.577419)" fill="#000000" fill-rule="nonzero">
                        <path d="M0.410420556,24.3516197 C6.08030453,20.9770506 13.6806852,21.5496127 18.7830741,17.3694033 C21.1898613,15.3983712 22.7504728,12.5608958 23.6878531,9.59674732 C24.6252334,6.63259886 24.9748509,3.51644279 25.3244684,0.440822079 L26.2973171,17.6278162 C26.3631871,18.7982748 26.3885217,20.1004734 25.6234167,20.9973183 C24.9799178,21.7522895 23.9361322,22.0107024 22.9683504,22.2235131 L10.5341276,24.9900516 C7.16969243,25.7348889 3.57724583,26.4695924 0.359751352,25.2332638" id="Path"></path>
                    </g>
                    <g id="Group" opacity="0.2" transform="translate(100.831717, 37.097495)" fill="#000000" fill-rule="nonzero">
                        <path d="M12.738238,10.1743763 C12.8345095,10.3213169 12.7129034,10.6253322 12.3075498,10.9800166 C11.7115249,11.4578856 11.0003441,11.7706654 10.2453131,11.8869954 C9.11674596,12.0772875 7.95821193,11.9743455 6.88087796,11.5880471 C5.58119709,11.1073518 4.41786677,10.3178869 3.49110819,9.28766518 C2.60421491,8.30889525 1.89285564,7.18443337 1.3883362,5.96376536 C0.994232626,5.02230616 0.698772587,4.0425335 0.506692044,3.04015227 C0.207743738,1.34273392 0.268546784,0.273613704 0.608030453,0.172275295 C0.947514123,0.0709368862 1.55047766,0.982982566 2.2801142,2.44732257 C3.00975074,3.91166258 3.92686334,5.88776156 5.4266718,7.51424302 C6.09955015,8.26551382 6.90296194,8.88867296 7.79799056,9.35353514 C8.53236995,9.71740389 9.32451187,9.95058852 10.1389078,10.0426363 C11.5627125,10.189577 12.5254273,9.85009334 12.738238,10.1743763 Z" id="Path"></path>
                    </g>
                    <polygon id="Path" fill="#DDDDE7" fill-rule="nonzero" points="97.7408954 75.7479644 65.9409027 91.1159342 7.64598295 75.2210047 36.2639496 59.5844882"></polygon>
                    <polygon id="Path" fill="#455A64" fill-rule="nonzero" points="62.6778059 75.0993986 71.1192954 77.8862049 78.9375536 73.6401255 65.9257019 69.4649831 58.3303882 73.4019803"></polygon>
                    <path d="M0.22801142,32.2940547 C0.491491283,33.3530411 7.64598295,75.2210047 7.64598295,75.2210047 L65.9155681,91.1159342 L58.2695851,46.3344913 L0.22801142,32.2940547 Z" id="Path" fill="#EBEBED" fill-rule="nonzero"></path>
                    <path d="M61.6998903,66.3944293 C61.7708271,66.3944293 62.7791443,71.9072387 63.9496029,78.7323806 C65.1200616,85.5575224 66.0118396,91.1058003 65.9409027,91.1159481 C65.8699658,91.126068 64.8616486,85.6081916 63.69119,78.7779829 C62.5207314,71.9477741 61.6289534,66.4045631 61.6998903,66.3944293 Z" id="Path" fill="#455A64" fill-rule="nonzero"></path>
                    <ellipse id="Oval" fill="#FFFFFF" fill-rule="nonzero" transform="translate(29.941779, 59.591979) rotate(-21.170000) translate(-29.941779, -59.591979) " cx="29.9417788" cy="59.5919795" rx="3.06041995" ry="3.55697815"></ellipse>
                    <path d="M90.6522737,69.5511207 C90.6522737,69.5511207 124.788117,72.4747338 130.437733,68.3806621 C136.087349,64.2865904 136.092416,36.8036139 136.092416,36.8036139 L119.179036,35.2430024 L118.935824,54.3452925 C117.770432,55.3181412 88.336691,60.1925187 85.8032308,59.9999757 C85.8032308,59.9999757 70.3744581,61.6467248 69.5333493,61.6467248 C68.6922405,61.6467248 63.1084941,68.00571 63.1084941,68.2995914 C63.1473269,68.7491803 63.3689576,69.1631352 63.7215915,69.4447154 C63.3234461,69.9458081 63.3558849,70.6637856 63.7975953,71.126933 C63.7975953,71.126933 63.5695839,72.2011201 64.4106927,72.4291316 C65.2518015,72.657143 65.3278053,73.0422289 66.3209217,72.4291316 C67.3140381,71.8160342 72.2086833,68.00571 72.2086833,68.00571 L75.8822006,67.6966279 C75.8822006,67.6966279 66.9340191,72.8192844 67.6991241,73.9694754 C68.464229,75.1196663 70.2325843,73.8174678 72.2086833,72.7432806 C74.1847822,71.6690935 77.4884144,69.7639314 78.0964448,69.6068569 C78.7044753,69.4497823 90.6522737,69.5511207 90.6522737,69.5511207 Z" id="Path" fill="#F9BCA0" fill-rule="nonzero"></path>
                    <path d="M74.4837305,64.7375463 C74.4837305,64.7882155 73.7743617,64.7831486 72.6799069,65.0668961 C71.2600224,65.46441 69.924268,66.1168351 68.7378428,66.9923259 C67.5577871,67.8833818 66.44977,68.8660269 65.4240768,69.9311398 C65.010388,70.3889031 64.5669114,70.8188384 64.0965436,71.2181376 C64.1813655,71.0742513 64.2816059,70.940031 64.3954919,70.8178509 C64.6032357,70.5746387 64.902184,70.2250212 65.2872699,69.8044668 C66.2820301,68.6830021 67.387119,67.6644869 68.5858351,66.7643145 C69.7959751,65.8667192 71.1745988,65.2222126 72.6393715,64.8692862 C73.0838872,64.7693357 73.5368604,64.7116537 73.9922393,64.697011 C74.1571839,64.6836797 74.3231987,64.6973716 74.4837305,64.7375463 Z" id="Path" fill="#A36957" fill-rule="nonzero"></path>
                    <path d="M72.5633677,63.486017 C72.5633677,63.5366862 71.9502703,63.5265523 71.0078231,63.7849653 C69.7835372,64.1366226 68.6380105,64.719706 67.6332541,65.5026513 C66.6289162,66.2975178 65.6948457,67.177341 64.8413809,68.132383 C64.4968423,68.5395073 64.1243669,68.922141 63.7266584,69.277507 C64.0124768,68.82416 64.33986,68.3983923 64.7045741,68.00571 C65.5271622,67.0057778 66.4546483,66.0969773 67.4711126,65.2949076 C68.4999772,64.4869454 69.6906141,63.9097716 70.9622208,63.6025561 C71.3462676,63.5133722 71.7385054,63.4641302 72.1326795,63.4556154 C72.2769042,63.4398684 72.4227851,63.4501659 72.5633677,63.486017 Z" id="Path" fill="#A36957" fill-rule="nonzero"></path>
                    <path d="M124.301692,60.1469164 C124.25609,60.1469164 124.144618,59.6959605 123.840603,59.0068593 C123.03495,57.1999877 121.629868,55.7268885 119.86307,54.8367838 C119.18917,54.502367 118.733147,54.3655602 118.748348,54.3300917 C119.164662,54.3740985 119.569689,54.4925174 119.944141,54.6797092 C121.80942,55.5054604 123.268366,57.0410007 123.997677,58.9460562 C124.170205,59.3248743 124.273183,59.731638 124.301692,60.1469164 L124.301692,60.1469164 Z" id="Path" fill="#AA6550" fill-rule="nonzero"></path>
                </g>
                <path d="M62.1474605,51.9254931 L62.148139,55.8956247 C66.6044373,56.5785073 70.0175982,60.4286 70.0175982,65.0758792 L70.0175982,65.0758792 L70.0175982,74.5535343 L73.4670628,78.5053482 L64.8012104,78.5054194 C64.5820477,79.0578204 64.2365623,79.5633976 63.777634,79.9764552 C62.6510218,80.9904602 61.0416535,81.2660849 59.6418218,80.6847655 C58.6454306,80.2709861 57.8816705,79.4755558 57.4964689,78.5055118 L47.9923761,78.5053482 L51.453004,74.0846751 L51.453004,65.0758792 C51.450041,62.6136077 52.4260982,60.2511699 54.166141,58.5090331 C55.649056,57.0243337 57.5831589,56.0939717 59.646457,55.8514309 L59.6468778,51.9254931 L62.1474605,51.9254931 Z" id="Combined-Shape" fill="#FF725E" fill-rule="nonzero"></path>
                <g id="freepik--Message--inject-448" transform="translate(177.500000, 11.000000)" fill-rule="nonzero">
                    <polygon id="Path" fill="#FF725E" points="0.278893281 11.6911067 29.6461067 11.4782016 30.4641107 31.4439723 0.0547826087 31.1625889"></polygon>
                    <path d="M0.277648221,11.6911067 L14.1774901,0.444486166 C14.766187,-0.0312805691 15.6080867,-0.0281604963 16.1932411,0.451956522 L29.6461067,11.4782016" id="Path" fill="#FF725E"></path>
                    <g id="Group" opacity="0.3" transform="translate(0.249012, 0.000000)" fill="#000000">
                        <path d="M0.0286363636,11.6911067 L13.9284783,0.444486166 C14.5171752,-0.0312805691 15.3590748,-0.0281604963 15.9442292,0.451956522 L29.3970949,11.4782016" id="Path"></path>
                    </g>
                    <path d="M0.0547826087,31.1625889 C0.0186758893,31.1277273 2.36934783,28.560415 5.30644269,25.4290909 C8.24353755,22.2977668 10.6527273,19.7864822 10.6900791,19.8200988 C10.7274308,19.8537154 8.37551383,22.4210277 5.43841897,25.5535968 C2.50132411,28.686166 0.0921343874,31.1962055 0.0547826087,31.1625889 Z" id="Path" fill="#263238"></path>
                    <path d="M30.4641107,31.4439723 C30.4267589,31.4775889 28.1370949,28.9625692 25.3506522,25.8275099 C22.5642095,22.6924506 20.3355534,20.1226482 20.370415,20.0890316 C20.4052767,20.055415 22.6974308,22.5704348 25.4838735,25.7067391 C28.2703162,28.8430435 30.5039526,31.4103557 30.4641107,31.4439723 Z" id="Path" fill="#263238"></path>
                    <g id="Group" opacity="0.5" transform="translate(0.249012, 11.454545)" fill="#000000">
                        <polyline id="Path" points="29.3970949 0.0236561265 14.6493676 11.8044071 0.0298814229 0.236561265"></polyline>
                    </g>
                    <polygon id="Path" fill="#EDEFF8" points="1.75677866 12.7817787 1.71195652 3.61067194 27.426166 3.30563241 27.7162648 12.956087 14.8971344 23.1045652"></polygon>
                    <path d="M1.75677866,12.7817787 C1.75677866,12.7817787 1.84019763,12.8440316 1.99832016,12.9672925 L2.69555336,13.5101383 L5.35375494,15.5856522 L14.9170553,23.0833992 L14.8846838,23.0833992 L27.7000791,12.9311858 L27.6876285,12.957332 C27.6328458,11.1171344 27.5743281,9.18480237 27.5145652,7.22009881 C27.4759684,5.89660079 27.4361265,4.58928854 27.3975296,3.30687747 L27.4299012,3.33800395 L1.7156917,3.63059289 L1.73561265,3.61067194 C1.74557312,6.49547431 1.75428854,8.78762846 1.75926877,10.3588933 C1.75926877,11.1445257 1.75926877,11.7496245 1.75926877,12.159249 L1.75926877,12.6236561 C1.75926877,12.7282411 1.75926877,12.7817787 1.75926877,12.7817787 C1.75926877,12.7817787 1.75926877,12.7294862 1.75926877,12.6261462 C1.75926877,12.5228063 1.75926877,12.3671739 1.75926877,12.1642292 C1.75926877,11.7546047 1.75055336,11.150751 1.74432806,10.3663636 C1.73436759,8.7926087 1.71942688,6.49920949 1.70075099,3.61067194 L1.70075099,3.58950593 L1.72067194,3.58950593 L27.4361265,3.27450593 L27.467253,3.27450593 L27.467253,3.30687747 C27.5058498,4.58804348 27.5444466,5.89535573 27.5842885,7.21885375 C27.6440514,9.18480237 27.7013241,11.1158893 27.7573518,12.957332 L27.7573518,12.9735178 L27.7449012,12.9834783 L14.9207905,23.1269763 L14.9046047,23.1394269 L14.888419,23.1269763 L5.33134387,15.6043281 L2.68932806,13.5188538 L1.99209486,12.9710277 C1.83521739,12.8465217 1.75677866,12.7817787 1.75677866,12.7817787 Z" id="Path" fill="#263238"></path>
                    <path d="M23.3622925,7.92480237 C23.3622925,7.9422332 19.4291502,7.98083004 14.5796443,8.0094664 C9.73013834,8.03810277 5.79575099,8.0493083 5.79575099,8.03063241 C5.79575099,8.01195652 9.72764822,7.97460474 14.5796443,7.94472332 C19.4316403,7.9148419 23.3622925,7.90612648 23.3622925,7.92480237 Z" id="Path" fill="#263238"></path>
                    <path d="M23.3622925,10.5145257 C23.3622925,10.5332016 19.4291502,10.5717984 14.5796443,10.6004348 C9.73013834,10.6290711 5.79575099,10.6390316 5.79575099,10.6216008 C5.79575099,10.60417 9.72764822,10.5655731 14.5796443,10.5356917 C19.4316403,10.5058103 23.3622925,10.4970949 23.3622925,10.5145257 Z" id="Path" fill="#263238"></path>
                    <path d="M23.3622925,13.5014229 C23.3622925,13.5188538 19.4291502,13.5574506 14.5796443,13.587332 C9.73013834,13.6172134 5.79575099,13.6259289 5.79575099,13.607253 C5.79575099,13.5885771 9.72764822,13.5512253 14.5796443,13.5225889 C19.4316403,13.4939526 23.3622925,13.482747 23.3622925,13.5014229 Z" id="Path" fill="#263238"></path>
                    <path d="M23.3622925,16.4870751 C23.3622925,16.505751 19.6109289,16.5418577 14.9830435,16.5704941 C10.3551581,16.5991304 6.60379447,16.6066008 6.6025491,16.58917 C6.60130435,16.5717391 10.353913,16.5343874 14.9830435,16.505751 C19.6121739,16.4771146 23.3622925,16.4696443 23.3622925,16.4870751 Z" id="Path" fill="#263238"></path>
                    <path d="M20.0728458,19.1079249 C20.0391264,19.1136328 20.0049421,19.1161341 19.970751,19.1153953 L19.6744269,19.1241107 L18.5887352,19.1415415 L15.0042095,19.1925889 C13.6047628,19.2162451 12.3360474,19.2237154 11.4184387,19.2249605 L10.332747,19.2249605 L10.0364229,19.2249605 C10.0022804,19.2255811 9.96814226,19.2234995 9.93432806,19.2187352 C9.9680475,19.2130273 10.0022318,19.210526 10.0364229,19.2112648 L10.332747,19.2037945 L11.4184387,19.1851186 L15.0029644,19.1340711 C16.4024111,19.110415 17.6711265,19.1029447 18.5874901,19.1016996 L19.6744269,19.1016996 L19.970751,19.1016996 C20.0048801,19.1016099 20.0389805,19.1036891 20.0728458,19.1079249 L20.0728458,19.1079249 Z" id="Path" fill="#263238"></path>
                    <path d="M16.7622332,21.6279249 C16.7622332,21.6453557 15.9243083,21.6602964 14.8946443,21.6602964 C13.8649802,21.6602964 13.0270553,21.6453557 13.0270553,21.6279249 C13.0270553,21.6104941 13.8662253,21.5955534 14.8946443,21.5955534 C15.9230632,21.5955534 16.7622332,21.609249 16.7622332,21.6279249 Z" id="Path" fill="#263238"></path>
                    <circle id="Oval" fill="#263238" cx="25.4178854" cy="16.4870751" r="3.10642292"></circle>
                    <circle id="Oval" fill="#455A64" cx="24.6098419" cy="16.4870751" r="3.10642292"></circle>
                    <polygon id="Path" fill="#EBEBEB" points="25.0045257 15.0415613 25.0045257 17.6238142 24.527668 17.6238142 24.527668 15.4387352 23.981087 15.4387352 23.981087 15.036581"></polygon>
                </g>
                <circle id="Oval" stroke="#7E8CCC" cx="192" cy="28.5" r="28.5"></circle>
                <circle id="Oval-Copy-6" stroke="#7E8CCC" cx="61" cy="68.5" r="28.5"></circle>
                <g id="Group-5-Copy-2" transform="translate(131.121225, 47.687214) scale(-1, 1) rotate(9.000000) translate(-131.121225, -47.687214) translate(104.121225, 12.187214)">
                    <ellipse id="Oval-Copy-88" stroke="#979797" fill="#D8D8D8" cx="29.9205741" cy="38.921441" rx="2.80729167" ry="1.63758681"></ellipse>
                    <path d="M34.7397664,27.3024565 C32.981194,27.2623569 27.7794005,26.6760521 29.4640495,27.1821575 L26.3998242,28.7723507 C33.8836407,31.020653 33.5435112,30.7162359 35.1393838,27.377237 L34.7397664,27.3024565 Z" id="Path-21-Copy" stroke="#979797"></path>
                    <path d="M35.5765391,28.8057506 C33.9496273,26.2770041 34.4758951,26.0957309 29.7259289,27.221469 C28.6620085,27.4736173 25.9408249,28.5922185 26.9608254,28.9860513 C34.3395309,31.8350467 34.1479857,31.3478903 35.1243094,28.2128273" id="Path-20-Copy" stroke="#979797"></path>
                    <g id="Group-14" transform="translate(8.381674, 0.291864)" fill="#3B3958">
                        <path d="M33.9181574,0.0358469377 C33.9181574,0.0358469377 28.5761241,0.191889459 27.4544116,2.4334557 C27.4544116,2.4334557 31.3108515,-0.114747926 34.1588422,1.07161849 C37.0067047,2.25800981 38.7389041,6.60289676 38.964424,9.24020225 C39.1899438,11.8775077 37.2666209,15.9137411 35.365126,16.2098367 C34.6448263,16.3219307 33.6614333,16.1146573 34.0869356,16.9317072 C34.5124379,17.748757 33.9461388,17.7236263 34.3244391,18.7170938 C37.823651,27.9058164 33.2688635,33.1014104 31.4907559,36.2951814 C30.466526,38.1348651 24.5093367,40.9188074 24.5093367,40.9188074 C23.7717612,32.2884556 23.3102484,27.8538953 23.124798,27.6151265 C8.19951513,8.39870208 0.00318178602,21.7466014 0.00318178602,21.7466014 C0.00318178602,21.7466014 -0.17608841,17.0764342 2.15663736,13.5279619 C4.48936314,9.97948969 15.016637,2.5879677 21.9142787,7.10406722 C21.9970476,6.4513139 23.136651,-0.559608345 33.9181574,0.0358469377 Z" id="Fill-1" transform="translate(19.491251, 20.459404) scale(-1, 1) translate(-19.491251, -20.459404) "></path>
                    </g>
                    <path d="M33.5407871,17.9540082 C38.7815327,17.055207 46.1885665,22.6032407 46.8637202,27.877206 C47.6137349,33.735088 47.9266053,34.9221819 46.710394,38.6205168 C43.6327629,47.9791788 39.4972124,52.5973468 39.4972124,52.5973468 C39.4972124,52.5973468 39.8580884,55.7661726 40.8023748,59.6971438 C43.2490268,59.6201684 45.3288463,59.8150504 46.3314416,60.4238279 C47.8828865,61.3658678 43.2290429,68.7131497 36.5097442,70.6711286 C34.1570809,71.356686 31.5110518,70.7921839 29.1218436,69.7322689 C28.0877076,69.5376272 27.1949549,69.1932612 26.5168982,68.6367679 C26.2517939,68.4191919 26.0195085,68.1691896 25.8244829,67.8829817 C23.1053893,66.0251518 21.3653731,63.9428093 21.9904074,63.535709 C23.1395671,62.7872327 24.3051727,62.1814969 25.4872239,61.7185016 C25.8976594,57.177416 25.5366398,53.6343959 25.4288781,49.6332265 C25.2853356,44.3035206 24.6033621,36.2181748 23.3829576,25.3771891 C23.246804,23.7681431 24.9911859,20.0918941 26.5829202,19.8191189 C27.7276677,19.1749126 30.0469566,18.553209 33.5407871,17.9540082 Z" id="Combined-Shape-Copy-4" fill="#FFCCB6"></path>
                    <g id="Group-22-Copy" transform="translate(0.516928, 0.002604)">
                        <g id="Group-11-Copy" transform="translate(26.450427, 28.528679) rotate(5.000000) translate(-26.450427, -28.528679) translate(2.450427, 2.528679)">
                            <path d="M21.6753468,27.8955553 C34.6193561,4.62289015 47.5620766,19.9929285 47.5620766,19.9929285 C47.5620766,19.9929285 47.296092,14.6785376 43.7998421,11.4218676 C42.4694098,10.1826029 40.726961,9.82752428 38.8286213,8.91452551 C37.656158,8.35063405 36.4334626,6.89899042 35.1839856,6.91631964 C34.5425594,6.9252157 31.9170943,2.88237923 22.7790331,6.71829463 C22.4103989,6.950756 22.054761,7.18106658 21.7115248,7.41004553 C16.472626,10.9050074 14.1229106,14.0897437 12.5480433,19.8770331 C12.3652986,20.5485792 10.6072955,30.8219289 15.6707877,36.7295143 C20.7342799,42.6370997 23.1172778,43.5033689 23.5683136,43.2849739 C29.3749594,40.4733526 21.434098,28.3293083 21.6753468,27.8955553 Z" id="Fill-1" fill="#3B395D"></path>
                            <path d="M38.423998,43.0978721 C38.423998,43.0978721 38.0181306,48.1883964 39.2184477,51.8250386 C34.9046653,50.7446319 29.7213146,48.2967709 27.6198313,46.6454004 C24.4468297,44.1520181 23.1932022,40.9684066 22.0057735,38.4605549 L38.423998,43.0978721 Z" id="Fill-6" fill="#CD9388"></path>
                            <path d="M36.6090048,48.6489201 C36.6090048,48.6489201 23.1455894,44.7450461 22.408553,41.2341067 C22.1579801,40.0404796 21.9917009,38.1952532 21.8355803,37.5504308 C21.6098588,36.618137 19.9301477,38.8912863 19.0684663,36.1587126 C18.2067848,33.4261389 17.8204248,31.4044703 18.1852462,30.607236 C19.0579837,28.7000661 21.2502624,31.2042995 21.2330171,30.0240181 C21.1206662,22.3346479 23.8396916,14.4824476 32.916753,13.5951482 C44.5578108,12.4571985 45.2251494,19.9214798 46.2957766,23.7734324 C47.3667077,27.6252295 45.9067341,44.1351591 38.2223381,48.8949477 C37.61738,48.8473768 37.0796023,48.7653676 36.6090048,48.6489201 Z" id="Fill-8" fill="#FBC0A6"></path>
                            <path d="M43.8711946,12.5526173 C41.4920383,11.4071474 39.4084551,12.0380964 38.2618657,13.1023457 C27.7805509,7.93028294 22.1208899,19.7151245 22.1208899,19.7151245 C17.4601759,25.8748176 16.4006288,30.0004432 16.6329062,36.3597041 C16.672014,37.4303906 17.0754648,38.2635623 17.8432588,38.8592194 C18.7939668,40.5930516 19.1947155,40.6800372 19.045505,39.1201762 C18.7888546,36.4371279 18.6363773,34.3431514 18.588073,32.8382468 C18.5398727,31.3365814 20.0025372,29.9113745 20.7553224,29.9826178 C21.1470906,30.0196945 22.2949304,33.9662022 22.4516841,33.5769459 C22.9423358,32.3585426 23.6930967,27.0445429 23.8933739,26.2810952 C27.7818269,11.4584826 38.4737237,16.0631068 38.7869773,14.7133014 C39.9293518,15.6640509 40.5411808,15.1178566 42.6261517,16.688949 C45.4965267,18.8518684 46.855806,23.9041828 46.0076496,27.8317355 C46.0076496,27.8317355 45.9699,33.39131 46.4561997,32.4322688 C46.5648662,32.2179654 46.4470643,30.4198738 46.9444674,27.7223679 C47.6638008,23.821294 48.847341,18.1149203 45.2365649,13.8737001 L43.8711946,12.5526173 Z" id="Fill-10" fill="#4E4C77"></path>
                            <path d="M34.7918841,9.33716196 C27.9242364,4.17304839 15.8465783,8.50945559 12.1269109,26.617554 C12.0824401,26.8340471 12.5915645,30.0055248 12.7885179,30.7969616 C12.8674581,31.1141751 13.1812649,32.0823518 13.729938,33.7014917 C18.2442236,17.0632955 25.3564362,9.14680446 35.0665758,9.9520186 C35.7831832,10.0114433 35.1463488,10.6223314 35.8958288,11.5701124 C38.1062999,12.2370082 37.7383183,11.4926914 34.7918841,9.33716196 Z" id="Path-25" fill="#545278" opacity="0.465820312"></path>
                            <path d="M38.0393914,12.7731771 C37.059636,11.6639345 36.823838,10.9122671 36.1814623,10.1476606 C31.6818514,4.79186639 34.2869518,7.15757218 36.5879416,9.75526437 C37.7247319,11.0386387 38.6499146,12.3362016 38.3343454,12.7028934 L38.0393914,12.7731771 Z" id="Path-29" fill="#555379" opacity="0.63625372"></path>
                        </g>
                        <path d="M35.5719873,30.1396097 C35.3010622,30.4696218 34.5373073,30.130856 34.279075,30.0280008 C33.4584215,29.7001771 32.1847526,29.2426303 31.06049,29.3460284 C29.2866116,29.7546775 28.5342506,30.0482042 28.5141172,29.9444736 C28.4668475,29.7019978 28.5868366,28.9565522 32.4353733,28.4190789 C32.8931886,28.3551773 35.3451963,28.4107295 35.8012608,28.855852 C36.1645368,29.210812 35.7164223,29.9632239 35.5719873,30.1396097 Z" id="Fill-1" fill="#413F62" transform="translate(32.223935, 29.338893) rotate(-6.000000) translate(-32.223935, -29.338893) "></path>
                        <path d="M41.6637217,30.2003393 C41.9094338,30.5462886 42.6744773,30.2181368 42.9376142,30.1340698 C43.7739204,29.8659627 45.0518085,29.7368024 46.1592129,29.9172477 C47.8894726,30.4453471 48.4993076,30.0359676 44.9909052,28.6629785 C44.665677,28.5357027 41.8900695,28.6967175 41.4070782,29.1063871 C41.0223261,29.4331039 41.5327594,30.0154609 41.6637217,30.2003393 Z" id="Fill-1-Copy" fill="#413F62" transform="translate(44.405635, 29.487999) rotate(15.000000) translate(-44.405635, -29.487999) "></path>
                        <path d="M40.1803994,32.4152778 C40.1803994,32.4152778 40.1706599,32.532529 40.1414411,32.7333761 C40.1105036,32.9385658 40.0818578,33.2088951 40.0606599,33.5416498 C40.0446182,33.7061273 40.045764,33.8852612 40.0383161,34.0719947 C40.0274307,34.2581853 40.0497745,34.4557754 40.045764,34.6566225 C40.0681078,35.0615736 40.1202432,35.4860666 40.1918578,35.9089311 C40.2749307,36.3290814 40.3792015,36.745432 40.5018057,37.1330125 C40.5774306,37.3208317 40.6278473,37.5135363 40.7040452,37.6856134 C40.7773785,37.8587761 40.8403994,38.0275962 40.9137327,38.1774173 C41.0512327,38.4819448 41.1824306,38.7359892 41.2786806,38.9134946 C41.3760764,39.0904572 41.4282118,39.199566 41.4282118,39.199566 C41.4282118,39.199566 41.3268056,39.1344264 41.1560764,39.007947 C41.0684202,38.9460644 40.9693056,38.8640971 40.8650348,38.7609594 C40.7550348,38.6621644 40.6347223,38.5454559 40.5235765,38.4037773 C40.2783682,38.1339909 40.0509203,37.776266 39.846962,37.3734862 C39.7593057,37.166668 39.6510245,36.9576785 39.5868578,36.7302327 C39.5049308,36.5076725 39.4608162,36.2715414 39.4058162,36.0381246 C39.3743058,35.8009079 39.3324829,35.5653197 39.3301912,35.3291887 C39.3101391,35.095229 39.3359204,34.8628978 39.345087,34.6408804 C39.3937849,34.1963027 39.4802954,33.7864661 39.6137849,33.4542542 C39.668212,33.285977 39.7403995,33.1361559 39.8085766,33.0058767 C39.8704516,32.8734262 39.9346182,32.7659459 39.9930557,32.6818073 C40.1082119,32.5108158 40.1803994,32.4152778 40.1803994,32.4152778" id="Fill-4" fill="#C39886"></path>
                        <path d="M32.82244,32.914769 C32.8527605,33.2814074 33.0823938,33.3795218 33.1143101,33.5853819 C33.3895881,33.4888351 33.5664885,33.5921922 34.0041407,33.5487063 C34.4026953,33.5096088 34.7501839,33.5275617 35.0226692,33.5606749 C35.2440885,33.1389809 35.2528655,32.673801 35.0226692,32.3674046 C34.8048406,32.0777643 34.4533624,32.0366721 34.1026822,31.9959788 C33.9654422,31.9796217 33.0773714,31.8758938 32.839595,32.3071626 C32.8044871,32.3705962 32.7837415,32.4459985 32.82244,32.914769 Z" id="Fill-8" fill="#545A83" transform="translate(33.996821, 32.779376) rotate(13.000000) translate(-33.996821, -32.779376) "></path>
                        <path d="M43.1069639,33.2109265 C43.13624,33.5732052 43.2382443,33.5523323 43.2690612,33.7557445 C43.6514274,33.8708628 44.9683052,33.8164326 45.2314046,33.8491521 C45.4451969,33.4324724 45.6664532,32.9993611 45.4441863,32.6966081 C45.2338609,32.4104118 44.681708,32.3432708 44.3431072,32.3030614 C44.2105945,32.2868988 43.4906192,32.0215388 43.2610332,32.4476796 C43.2271346,32.5103589 43.0695984,32.74773 43.1069639,33.2109265 Z" id="Fill-8-Copy" fill="#545A83" transform="translate(44.318975, 33.027908) rotate(15.000000) translate(-44.318975, -33.027908) "></path>
                        <path d="M35.0424462,31.2175303 C34.1045415,30.7062106 31.7976273,30.4953725 30.2979379,32.0908909 C30.0232484,32.383133 29.4110517,33.4613559 29.770073,33.409854 C31.0629926,33.2243836 32.0396452,31.9005386 33.3417902,31.7982709 C33.9592824,31.7497743 34.7556626,32.6014595 35.3321746,32.887618 C36.726246,33.5795819 36.8288621,32.9861839 36.2696426,32.5846407 L35.0424462,31.2175303 Z" id="Path-19" fill="#CAA199" transform="translate(33.123540, 32.127726) rotate(6.000000) translate(-33.123540, -32.127726) "></path>
                        <path d="M45.5481214,31.435026 C44.6702403,30.9237064 43.0491697,30.6220645 41.6454569,32.217583 C40.241744,33.8131015 40.6907166,33.3227386 41.0267614,33.2712367 C41.378755,33.2172905 41.6707144,33.0971647 41.9377753,32.9514047 C42.5888865,32.596033 43.0919977,32.0882886 43.9563034,32.0157666 C44.5342775,31.9672701 45.5521071,32.8445727 46.0917237,33.1307313 C47.3965778,33.8226952 47.2455093,33.4487341 46.6967801,32.8021365 L45.5481214,31.435026 Z" id="Path-19-Copy" fill="#CAA199" transform="translate(43.891072, 32.263482) scale(-1, 1) rotate(-3.000000) translate(-43.891072, -32.263482) "></path>
                        <path d="M30.3596263,32.7261948 C30.5148336,32.6319275 30.7558289,32.4793494 30.9335877,32.3714133 C31.11002,32.2611206 31.4130345,32.0797381 31.6151136,31.9656746 C32.0126389,31.7238789 32.3026838,31.6839934 32.7899729,31.5331657 C33.0345019,31.4652933 33.2692651,31.3994749 33.5394408,31.3683667 C33.6743076,31.3542266 34.0466921,31.3488471 34.2129541,31.387968 C34.2987382,31.4087068 34.3756786,31.4379297 34.4565986,31.4850633 C34.4937423,31.5062735 34.606786,31.6100255 34.6691342,31.6661145 C34.9158741,31.8876427 34.9739565,32.0968582 35.0672577,32.2665394 C35.1596746,32.4442333 35.250765,32.5823349 35.3705974,32.7048824 C35.5987655,32.935366 35.8769006,33.0602702 36.0727891,33.1295567 C36.2713307,33.1993145 36.3938162,33.2275947 36.3938162,33.2275947 C36.3938162,33.2275947 36.2739838,33.2601169 36.0537751,33.2690723 C35.837546,33.2737857 35.5470342,33.056525 34.8997556,32.9721215 C34.252477,32.887718 33.0087914,32.6311573 32.7881405,32.6995011 C32.3446278,32.8220486 30.6567551,33.1314086 30.5696444,33.1592174 C29.872759,33.382631 29.554965,33.4835305 29.554965,33.4835305 C29.554965,33.4835305 29.7242047,33.1042068 30.3596263,32.7261948 Z" id="Fill-6" fill="#464462" transform="translate(32.974391, 32.420679) rotate(6.000000) translate(-32.974391, -32.420679) "></path>
                        <path d="M41.1898551,32.9517865 C41.3351295,32.8575192 41.5607016,32.7049411 41.7270843,32.597005 C41.8922254,32.4867122 42.1758477,32.3053297 42.3649942,32.1912663 C42.7370789,31.9494706 43.2214831,31.5450507 44.065747,31.6631525 C44.9100108,31.7812544 45.9094281,32.883779 46.0215915,33.0063265 C46.2351574,33.2368101 46.3540369,33.2858619 46.537389,33.3551483 C46.7232244,33.4249062 46.8378712,33.4531864 46.8378712,33.4531864 C46.8378712,33.4531864 46.5403725,33.367635 46.3342566,33.3765904 C46.1318657,33.3813038 45.4892771,33.4412425 44.6899823,33.0018742 C43.8906875,32.562506 43.8348519,32.7760973 43.6283221,32.8444411 C43.2131932,32.9669886 41.6098181,33.491947 41.5282823,33.5197559 C40.875996,33.7431694 40.7094448,33.3934863 40.7094448,33.3934863 C40.7094448,33.3934863 40.595099,33.3297984 41.1898551,32.9517865 Z" id="Fill-6-Copy" fill="#464462" transform="translate(43.769248, 32.618179) scale(-1, 1) rotate(-3.000000) translate(-43.769248, -32.618179) "></path>
                        <path d="M34.0721301,44.5153638 C34.6831839,44.8012397 35.5735632,45.1512154 36.6946084,45.3664411 C37.3730372,45.4969801 37.8895789,45.5301997 38.0210537,45.5381537 C38.7874443,45.5835383 40.0460467,45.5573369 41.5942681,45.0468777 C41.4450138,45.402468 41.1544591,45.9676694 40.6061014,46.4996511 C40.3057212,46.7906737 39.7428592,47.3371598 38.9175155,47.499047 C37.8877073,47.7016399 37.0342907,47.1907128 36.3114131,46.7583899 C35.1875606,46.0860435 34.4862056,45.1895817 34.0721301,44.5153638 Z M39.2618766,43.3606312 C39.4855242,43.1996798 39.8284816,43.1762857 40.021249,43.3737319 C40.132137,43.4874272 40.1747143,43.6493143 40.2420893,43.793422 C40.5270294,44.4002649 41.2325954,44.665086 41.8703184,44.8723577 C40.5143966,45.1048951 39.1495849,45.338836 37.7744799,45.3210565 C36.398907,45.3037449 34.9971327,45.0202084 33.8325745,44.2884411 C34.4754443,44.3572197 35.1243966,44.4255305 35.7667985,44.3511372 C36.4092004,44.2776798 37.0530059,44.0479497 37.5143375,43.59504 C37.6041709,43.5066103 37.6897933,43.4083551 37.8039565,43.3550166 C38.0098245,43.2586329 38.2634165,43.3363013 38.4355971,43.4855556 C38.6073098,43.6343421 38.7153905,43.8420817 38.8187924,44.0446746 C38.9109651,43.7840643 39.0377612,43.5220504 39.2618766,43.3606312 Z" id="Combined-Shape" fill="#CB8E8E" transform="translate(37.851446, 45.388765) rotate(5.000000) translate(-37.851446, -45.388765) "></path>
                    </g>
                    <path d="M39.1565906,40.9178331 C40.0829795,40.9178331 41.8773054,39.5829804 41.8773054,39.2570161 C41.8773054,38.9310519 40.2538086,39.8436718 39.3274197,39.8436718 C38.4010308,39.8436718 37.4792151,40.0016584 37.4792151,40.3276226 C37.4792151,40.6535869 38.2302017,40.9178331 39.1565906,40.9178331 Z" id="Oval-Copy-89" fill="#D2A29A" opacity="0.496651786"></path>
                    <ellipse id="Oval-Copy-90" fill="#E35C86" opacity="0.192196801" filter="url(#filter-5)" transform="translate(28.816667, 39.249115) rotate(14.000000) translate(-28.816667, -39.249115) " cx="28.8166674" cy="39.2491154" rx="3.3921441" ry="1.87152778"></ellipse>
                </g>
            </g>
        </g>
    </g>
</svg>