<?xml version="1.0" encoding="UTF-8"?>
<svg width="210px" height="144px" viewBox="0 0 210 144" version="1.1" xmlns="http://www.w3.org/2000/svg" xmlns:xlink="http://www.w3.org/1999/xlink">
    <title>Group 18</title>
    <defs>
        <linearGradient x1="40.7836917%" y1="17.4249992%" x2="50%" y2="110.463681%" id="linearGradient-1">
            <stop stop-color="#E9AA89" offset="0%"></stop>
            <stop stop-color="#FFC3A9" offset="100%"></stop>
        </linearGradient>
        <filter x="-86.4%" y="-156.6%" width="272.8%" height="413.2%" filterUnits="objectBoundingBox" id="filter-2">
            <feGaussianBlur stdDeviation="2" in="SourceGraphic"></feGaussianBlur>
        </filter>
    </defs>
    <g id="Page-1" stroke="none" stroke-width="1" fill="none" fill-rule="evenodd">
        <g id="Index_Customer" transform="translate(-854.000000, -2880.000000)">
            <g id="Group-18" transform="translate(854.000000, 2880.000000)">
                <g id="freepik--Character--inject-974" transform="translate(46.401389, 50.164529)" fill-rule="nonzero">
                    <path d="M133.221111,19.4741667 L137.691667,14.0575 C137.691667,14.0575 138.814722,6.72333333 138.659444,5.69055556 C138.330307,4.31620941 137.917878,2.96315552 137.424444,1.63888889 C137.362161,1.46080737 137.382213,1.26425939 137.479175,1.10242412 C137.576137,0.940588852 137.739985,0.830194902 137.926389,0.801111111 C138.738889,0.6675 140.067778,0.801111111 141.100556,2.76194444 C142.046667,4.5675 142.545,7.00138889 142.783333,8.58666667 C142.847687,8.97836066 143.07893,9.32281892 143.417087,9.53070224 C143.755243,9.73858556 144.166997,9.78941232 144.545556,9.67 C146.599731,9.01804273 148.69685,8.51005256 150.821667,8.14972222 C152.045833,8.00888889 153.425278,9.17527778 153.6925,10.0491667 C153.894722,10.7063889 152.865556,11.9630556 152.865556,11.9630556 C152.865556,11.9630556 153.930833,12.3819444 154.31,13.1366667 C154.360556,13.2341667 154.4075,13.3280556 154.447222,13.4219444 C154.709345,14.0468813 154.621442,14.763841 154.216111,15.3069444 L153.934444,15.6680556 C153.934444,15.6680556 155.234444,15.8883333 155.461944,16.5997222 C155.601332,17.1220543 155.64175,17.6658567 155.581111,18.2030556 L154.515833,19.5463889 C154.86922,19.8181929 155.123078,20.198979 155.238056,20.6297222 C155.364444,21.2905556 153.746667,23.1213889 153.746667,23.1213889 L144.007813,25.2775691 L138.923828,27.7567358 L133.221111,19.4741667 Z" id="Path" fill="#F8BB9F"></path>
                    <path d="M153.573333,12.1652778 C153.521187,12.2059119 153.464172,12.2398781 153.403611,12.2663889 L152.894444,12.5227778 L151.013056,13.44 L148.210833,14.7761111 C147.68,15.0180556 147.1275,15.3105556 146.528056,15.5272222 C145.885314,15.7981061 145.151469,15.7430005 144.556389,15.3791667 C144.269765,15.1624784 144.071008,14.8495955 143.996667,14.4980556 C143.926944,14.1654636 143.939339,13.8208895 144.032778,13.4941667 C144.225133,12.8870051 144.61709,12.3626986 145.145,12.0063889 C145.604456,11.6875962 146.087307,11.4039208 146.589444,11.1577778 L147.867778,10.4825 L149.723889,9.51833333 L150.233056,9.26194444 C150.291003,9.2290065 150.352883,9.20352671 150.417222,9.18611111 C150.366256,9.22856358 150.310509,9.26492079 150.251111,9.29444444 L149.76,9.57972222 L147.932778,10.5980556 L146.665278,11.295 C146.176153,11.5438442 145.705502,11.8274418 145.256944,12.1436111 C144.76488,12.4812089 144.399024,12.9728268 144.216944,13.5411111 C144.011637,14.1430529 144.193225,14.8093506 144.675556,15.2238889 C144.936132,15.4031771 145.24401,15.5011952 145.560278,15.5055556 C145.872601,15.5098916 146.183197,15.4585332 146.4775,15.3538889 C147.066111,15.1480556 147.611389,14.8555556 148.145833,14.6316667 L150.9625,13.3316667 L152.869167,12.4686111 L153.392778,12.2411111 C153.44945,12.208172 153.510137,12.1826838 153.573333,12.1652778 L153.573333,12.1652778 Z" id="Path" fill="#AA6550"></path>
                    <path d="M154.465278,15.9063889 C154.34147,15.9892942 154.209595,16.059466 154.071667,16.1158333 C153.811667,16.2386111 153.436111,16.4083333 152.963056,16.6069444 C152.024167,17.0077778 150.706111,17.5241667 149.229167,18.0261111 C148.868403,18.1559511 148.500707,18.2656571 148.127778,18.3547222 C147.770781,18.4404919 147.397727,18.4330308 147.044444,18.3330556 C146.432917,18.1300844 145.992935,17.5931101 145.914167,16.9536111 C145.871752,16.5326996 145.994784,16.1118004 146.257222,15.78 C146.327034,15.6925456 146.407046,15.6137463 146.495556,15.5452778 C146.556944,15.5019444 146.593056,15.4838889 146.596667,15.4875 C146.600278,15.4911111 146.473889,15.5958333 146.315,15.8233333 C146.094317,16.1496227 145.998202,16.5443359 146.044167,16.9355556 C146.134282,17.5113042 146.540584,17.987417 147.095,18.1669444 C147.424211,18.2521097 147.769678,18.2521097 148.098889,18.1669444 C148.465569,18.0766861 148.827191,17.9669942 149.182222,17.8383333 C150.659167,17.34 151.977222,16.8452778 152.926944,16.4769444 L154.057222,16.04 C154.188421,15.9819044 154.325126,15.9371424 154.465278,15.9063889 L154.465278,15.9063889 Z" id="Path" fill="#AA6550"></path>
                    <path d="M154.703611,19.4236111 C154.579481,19.4828911 154.448483,19.5265573 154.313611,19.5536111 L153.230278,19.8425 C152.313056,20.0772222 151.045556,20.3877778 149.644444,20.72 C149.300647,20.8096843 148.952273,20.8808056 148.600833,20.9330556 C148.259775,20.9850065 147.910991,20.9412521 147.593333,20.8066667 C147.292728,20.6832349 147.063408,20.4313807 146.968611,20.1205556 C146.892778,19.85547 146.910633,19.5723477 147.019167,19.3188889 C147.173696,18.9611929 147.448306,18.6687022 147.795556,18.4919444 C147.911103,18.414396 148.041415,18.3615338 148.178333,18.3366667 C148.178333,18.3366667 148.048333,18.4088889 147.817222,18.5533333 C147.506707,18.7438653 147.265083,19.0285012 147.1275,19.3658333 C147.038643,19.5969931 147.029744,19.851249 147.102222,20.0880556 C147.192989,20.3493305 147.393544,20.5578019 147.651111,20.6586111 C147.940797,20.7746175 148.2563,20.8107819 148.564722,20.7633333 C148.908983,20.709344 149.250116,20.637019 149.586667,20.5466667 C150.987778,20.2144444 152.2625,19.9255556 153.197778,19.7233333 L154.281111,19.4922222 C154.419188,19.4547821 154.560782,19.4317883 154.703611,19.4236111 L154.703611,19.4236111 Z" id="Path" fill="#AA6550"></path>
                    <path d="M154.577222,22.6158333 C154.175146,22.6695374 153.769332,22.6900696 153.363889,22.6772222 C152.616389,22.6772222 151.58,22.6772222 150.438889,22.6772222 L149.601111,22.6772222 C149.335673,22.6873068 149.070013,22.6642586 148.810278,22.6086111 C148.560082,22.555063 148.335779,22.4174229 148.174722,22.2186111 C148.033303,22.0379102 147.982714,21.8022686 148.0375,21.5794444 C148.130317,21.2771182 148.350608,21.0304453 148.640556,20.9041667 C148.739687,20.8495701 148.852815,20.8256874 148.965556,20.8355556 C148.965556,20.8536111 148.85,20.8680556 148.673056,20.9691667 C148.422992,21.1044039 148.240007,21.3370558 148.1675,21.6119444 C148.130651,21.7937447 148.178488,21.9824362 148.2975,22.1247222 C148.443869,22.2858621 148.637114,22.3970092 148.85,22.4425 C149.099111,22.4857264 149.352072,22.5026712 149.604722,22.4930556 L150.438889,22.4930556 C151.58,22.4930556 152.605556,22.5219444 153.363889,22.5436111 C153.769576,22.5370287 154.17518,22.5611718 154.577222,22.6158333 Z" id="Path" fill="#AA6550"></path>
                    <path d="M147.040833,19.4994444 C146.392239,19.2195205 145.71719,19.0053921 145.025833,18.8602778 C144.324361,18.7799907 143.616526,18.7715209 142.913333,18.835 C144.316704,18.3896481 145.848124,18.6361759 147.040833,19.4994444 L147.040833,19.4994444 Z" id="Path" fill="#AA6550"></path>
                    <path d="M106.99,37.2913889 L134.333333,17.6216667 L143.501093,27.6163986 L121.967263,47.2728835 C112.405041,55.9214946 106.844652,55.2713333 93.2752354,49.4456226 C91.0280447,48.3979845 89.3426516,47.612256 88.2190563,47.088437 C87.1693644,46.5990716 85.5948265,45.8650237 83.4954427,44.8862931 L82.4906836,92.2932243 L43.859375,91.885642 C43.9531042,91.6115135 41.7439028,75.8322167 37.2317708,44.5477514 L22.3383333,56.7191667 L36.9741667,68.1627778 L31.5575,80.6969444 L5.26242682,63.4880197 C-3.80868429,57.453853 2.87590906,50.9782325 10.6145202,43.3082325 C24.5534091,29.4957325 31.1422222,19.81 43.0588889,17.7733333 C49.1977778,15.9280556 52.8088889,15.6066667 52.8088889,15.6066667 C62.4,15.4694444 63.115,15.5019444 68.2536111,15.7438889 C69.2537658,15.7958778 70.2491659,15.9165324 71.2327778,16.105 C76.8392507,16.9403529 81.0788205,21.3602222 85.6491345,24.7132184 L106.99,37.2913889 Z" id="Path" fill="#4E50C0"></path>
                    <path d="M107.647222,46.4888889 C107.561551,46.3889756 107.490986,46.2770454 107.437778,46.1566667 C107.266866,45.8432975 107.117267,45.5187658 106.99,45.1852778 C106.797652,44.6912763 106.644312,44.182961 106.531389,43.665 C106.396856,43.0300333 106.314728,42.3850854 106.285833,41.7366667 C106.266793,41.0871738 106.303035,40.4372383 106.394167,39.7938889 C106.47429,39.2689379 106.595023,38.7509947 106.755278,38.2447222 C106.852984,37.9035445 106.973629,37.5693576 107.116389,37.2444444 C107.161619,37.1164941 107.223543,36.9950748 107.300556,36.8833333 C107.336667,36.8833333 107.112778,37.4069444 106.878056,38.2663889 C106.74644,38.7712574 106.64634,39.2838201 106.578333,39.8011111 C106.499169,40.434602 106.468987,41.0732556 106.488056,41.7113889 C106.515683,42.3491966 106.590518,42.9840818 106.711944,43.6108333 C106.817367,44.1209345 106.954863,44.6238776 107.123611,45.1166667 C107.419722,45.9797222 107.679722,46.4708333 107.647222,46.4888889 Z" id="Path" fill="#263238"></path>
                    <path d="M82.2794666,60.3924415 C85.1160151,56.9748285 86.8459409,49.5096708 85.9964508,45.1502612 C85.1469607,40.7908515 82.3852775,37.0430792 78.4730556,34.9405556 L82.2794666,60.3924415 Z" id="Path" fill="#4E50C0"></path>
                    <path d="M78.4586111,35.6519444 C78.528447,35.6816469 78.594022,35.7205062 78.6536111,35.7675 C78.7727778,35.8505556 78.9641667,35.9661111 79.1844444,36.1286111 C79.8265016,36.6054533 80.4302017,37.1318798 80.99,37.7030556 C82.8167299,39.6126906 84.2933034,41.8287732 85.3522222,44.25 C85.974252,45.5809332 86.2995395,47.0311732 86.3055556,48.5002778 C86.2975725,49.6909532 86.1076,50.87341 85.7422222,52.0066667 C85.5037968,52.7691809 85.2142518,53.5147592 84.8755556,54.2383333 L84.5830556,54.8197222 C84.5520571,54.8892927 84.5145769,54.9557899 84.4711111,55.0183333 C84.4887594,54.9443269 84.5154411,54.8727714 84.5505556,54.8052778 C84.6155556,54.65 84.7022222,54.4441667 84.8069444,54.2094444 C85.1171969,53.478456 85.38723,52.7310431 85.6158333,51.9705556 C85.9554325,50.8449795 86.1293857,49.6759652 86.1322222,48.5002778 C86.1117869,47.0610476 85.7843021,45.6427673 85.1716667,44.3402778 C84.1169237,41.9388703 82.6695223,39.7299355 80.8888889,37.8041667 C80.3402987,37.2300627 79.7539952,36.693221 79.1338889,36.1972222 C78.9172222,36.0166667 78.7366667,35.8938889 78.6247222,35.7963889 C78.564591,35.7540058 78.5089334,35.7056078 78.4586111,35.6519444 Z" id="Path" fill="#263238"></path>
                    <path d="M65.0871842,51.9859715 C65.0973055,52.0372359 65.0973055,52.0899848 65.0871842,52.1412492 C65.0871842,52.2423603 65.0871842,52.3904159 65.0582954,52.5818048 C65.0015348,53.121276 64.8951587,53.6543653 64.7405176,54.1743048 C63.7128747,57.7204795 60.7334702,60.3568096 57.0885731,60.9451381 C56.5531522,61.0367862 56.0103006,61.077893 55.4671842,61.0679159 C55.2757954,61.0679159 55.1241287,61.0462492 55.0266287,61.0426381 C54.9738675,61.0423665 54.921474,61.0338374 54.8713509,61.0173603 C55.0693856,60.9985532 55.2682683,60.9901158 55.4671842,60.9920826 C56.0030539,60.9752691 56.5367547,60.9161032 57.0632954,60.8151381 C60.6296243,60.1666983 63.5396817,57.5892586 64.6141287,54.1273603 C64.7743033,53.61493 64.8950262,53.0909927 64.9752398,52.5601381 C65.0021852,52.3668726 65.0395545,52.1752042 65.0871842,51.9859715 L65.0871842,51.9859715 Z" id="Path" fill="#263238"></path>
                    <path d="M12.7075,54.8666667 C12.8306145,54.8041163 12.961893,54.7591412 13.0975,54.7330556 C13.2530149,54.6861404 13.4109251,54.6475669 13.5705556,54.6175 C13.7547222,54.5813889 13.9677778,54.5308333 14.2025,54.5055556 C14.7571013,54.4232611 15.3174359,54.385825 15.8780556,54.3936111 C16.5630722,54.4076809 17.2456398,54.480166 17.9183333,54.6102778 C18.5904192,54.7511433 19.249844,54.9467968 19.89,55.1952778 C20.4089571,55.4046163 20.9111597,55.6533032 21.3922222,55.9391667 C21.6016667,56.0547222 21.775,56.1847222 21.9338889,56.3002778 C22.0927778,56.4158333 22.2191667,56.5025 22.3238889,56.5855556 C22.4386483,56.6634696 22.5430079,56.7556943 22.6344444,56.86 C22.6127778,56.8888889 22.1505556,56.5241667 21.3236111,56.0655556 C20.8408637,55.7987237 20.3401146,55.5658452 19.825,55.3686111 C19.1928028,55.1313176 18.5432959,54.9429847 17.8822222,54.8052778 C17.2196648,54.6788739 16.5484867,54.6028232 15.8744444,54.5777778 C15.3222439,54.5647914 14.7697831,54.5877101 14.2205556,54.6463889 C13.2816667,54.7402778 12.7147222,54.8991667 12.7075,54.8666667 Z" id="Path" fill="#263238"></path>
                    <path d="M43.6944444,35.6952778 C43.6948833,35.6233132 43.7045928,35.5517052 43.7233333,35.4822222 C43.7558333,35.3233333 43.7919444,35.1211111 43.8425,34.8755556 C43.9816014,34.137458 44.081648,33.3925329 44.1422222,32.6438889 C44.2308619,31.5337278 44.1969538,30.4171809 44.0411111,29.3144444 C43.8487324,27.9659364 43.4118521,26.663862 42.7519444,25.4722222 C42.0973649,24.278608 41.1753274,23.2527486 40.0580556,22.475 C39.13741,21.8536337 38.0945719,21.4362523 36.9994444,21.2508333 C36.260493,21.1296247 35.5067293,21.1296247 34.7677778,21.2508333 C34.2405556,21.3375 33.9625,21.4386111 33.9552778,21.4169444 C34.0203267,21.3857755 34.0879959,21.3603996 34.1575,21.3411111 C34.3522113,21.273544 34.5512787,21.2192529 34.7533333,21.1786111 C35.5005105,21.0301951 36.2677001,21.0118705 37.0211111,21.1244444 C38.1426587,21.2926393 39.2130747,21.7069939 40.1555556,22.3377778 C41.3034539,23.1210177 42.249009,24.1655838 42.9144444,25.3855556 C43.584393,26.5966253 44.0239536,27.9214292 44.2108333,29.2927778 C44.3608264,30.4085228 44.3814259,31.5378604 44.2722222,32.6583333 C44.2010812,33.4117413 44.0804503,34.1596527 43.9111111,34.8972222 C43.8533333,35.1572222 43.8027778,35.3558333 43.7630556,35.4930556 C43.7469008,35.562558 43.7239188,35.6302945 43.6944444,35.6952778 Z" id="Path" fill="#263238"></path>
                    <path d="M29.4702778,33.7019444 C29.3826242,32.7138773 29.3560922,31.7213389 29.3908333,30.73 C29.3647397,29.7379783 29.4021309,28.7453033 29.5027778,27.7580556 C29.5903207,28.7461351 29.6156485,29.7387416 29.5786111,30.73 C29.6047138,31.721939 29.5685315,32.7145385 29.4702778,33.7019444 Z" id="Path" fill="#FAFAFA"></path>
                    <path d="M22.6055556,42.3577778 C22.0906134,41.8981564 21.6169489,41.3942837 21.19,40.8519444 C20.7173061,40.3478587 20.2918217,39.8014981 19.9188889,39.2197222 C20.4343708,39.6801003 20.9080727,40.1852212 21.3344444,40.7291667 C21.8075371,41.2316148 22.2330595,41.7768153 22.6055556,42.3577778 L22.6055556,42.3577778 Z" id="Path" fill="#FAFAFA"></path>
                    <path d="M34.1177778,40.6569444 C33.2875851,40.9724745 32.4355169,41.2271294 31.5683333,41.4188889 C30.7164669,41.6737772 29.8476299,41.8680588 28.9683333,42.0002778 C29.7996557,41.6844463 30.6529465,41.4297866 31.5213889,41.2383333 C32.3719853,40.9832709 33.2396341,40.7889851 34.1177778,40.6569444 Z" id="Path" fill="#FAFAFA"></path>
                    <path d="M38.9133333,36.8905556 C38.8298862,36.6579122 38.7788519,36.4148917 38.7616667,36.1683333 C38.7002778,35.7133333 38.6388889,35.085 38.61,34.3627778 C38.5861905,33.7609535 38.5934223,33.1583019 38.6316667,32.5572222 C38.6288867,32.3073261 38.6604788,32.0582343 38.7255556,31.8169444 C38.7797222,31.8169444 38.7472222,32.9508333 38.7977778,34.3447222 C38.8483333,35.7386111 38.9675,36.8833333 38.9133333,36.8905556 Z" id="Path" fill="#FAFAFA"></path>
                    <path d="M20.9805556,52.6927778 C20.8876383,51.8729431 20.8562542,51.0473005 20.8866667,50.2227778 C20.8562663,49.3981629 20.888861,48.5724305 20.9841667,47.7527778 C21.0769215,48.5726253 21.1071014,49.3983465 21.0744444,50.2227778 C21.1048569,51.0473005 21.0734728,51.8729431 20.9805556,52.6927778 L20.9805556,52.6927778 Z" id="Path" fill="#FAFAFA"></path>
                    <path d="M13.0361111,50.0566667 C11.9969096,49.7459698 10.9768248,49.3745915 9.98111111,48.9444444 C8.96285431,48.5725242 7.96693565,48.1420848 6.99833333,47.6552778 C8.03761309,47.9671543 9.05769919,48.3397389 10.0533333,48.7711111 C11.0708356,49.1435511 12.0666574,49.5727431 13.0361111,50.0566667 Z" id="Path" fill="#FAFAFA"></path>
                    <path d="M6.13888889,59.0555556 C6.13492947,58.2251896 6.1952952,57.3957644 6.31944444,56.5747222 C6.37884496,55.7471989 6.49954648,54.9252215 6.68055556,54.1155556 C6.68460191,54.9459244 6.62423568,55.7753564 6.5,56.5963889 C6.44137453,57.4239966 6.32066456,58.2460315 6.13888889,59.0555556 L6.13888889,59.0555556 Z" id="Path" fill="#FAFAFA"></path>
                    <path d="M17.4127778,66.4583333 C17.0901464,66.4140355 16.7722464,66.340302 16.4630556,66.2380556 C15.8816667,66.0863889 15.0836111,65.8769444 14.1916667,65.6711111 C13.2997222,65.4652778 12.4908333,65.31 11.9022222,65.1763889 C11.5812275,65.1296517 11.2647389,65.0559654 10.9561111,64.9561111 C11.2822455,64.9502978 11.6080224,64.9805744 11.9275,65.0463889 C12.5197222,65.1330556 13.3394444,65.2775 14.235,65.4869444 C15.1305556,65.6963889 15.9286111,65.9238889 16.4991667,66.1116667 C16.8144416,66.1966536 17.1204843,66.3127805 17.4127778,66.4583333 L17.4127778,66.4583333 Z" id="Path" fill="#FAFAFA"></path>
                    <path d="M21.3525,63.1252778 C20.8746219,61.5050538 20.518537,59.8513716 20.2872222,58.1780556 C20.5548795,58.980299 20.763674,59.8009942 20.9119444,60.6336111 C21.1191525,61.4523569 21.2663946,62.2851197 21.3525,63.1252778 L21.3525,63.1252778 Z" id="Path" fill="#FAFAFA"></path>
                    <path d="M25.3319444,73.8611111 C25.0498485,73.8761038 24.7670016,73.854253 24.4905556,73.7961111 C23.1528673,73.5990083 21.842001,73.2500901 20.5833333,72.7561111 C20.3162526,72.6684168 20.0614254,72.5470705 19.825,72.395 C20.1003164,72.4473007 20.3699784,72.5259017 20.6302778,72.6297222 C21.1213889,72.7886111 21.8002778,72.9908333 22.5622222,73.2038889 C23.3241667,73.4169444 24.0066667,73.565 24.5230556,73.6625 C24.7986368,73.7015479 25.0696172,73.7680833 25.3319444,73.8611111 L25.3319444,73.8611111 Z" id="Path" fill="#FAFAFA"></path>
                    <path d="M29.8133333,72.7777778 C29.7963248,72.4822877 29.809635,72.1858325 29.8530556,71.8930556 C29.8963889,71.3477778 29.9541667,70.5966667 29.9866667,69.7625 C30.0191667,68.9283333 30.0263889,68.1772222 30.03,67.6319444 C30.01256,67.3355714 30.0222298,67.0382248 30.0588889,66.7436111 C30.1297472,67.033144 30.1649159,67.3302587 30.1636111,67.6283333 C30.1961111,68.1736111 30.2105556,68.9355556 30.1636111,69.7733333 C30.1374674,70.4874598 30.0747928,71.1997803 29.9758333,71.9075 C29.9550001,72.2028362 29.9004796,72.4948237 29.8133333,72.7777778 L29.8133333,72.7777778 Z" id="Path" fill="#FAFAFA"></path>
                    <path d="M47.0780556,47.5216667 C47.0347222,47.5541667 46.3052778,46.6188889 45.3302778,45.5391667 C44.3552778,44.4594444 43.5030556,43.6325 43.5427778,43.5891667 C43.7640427,43.726433 43.967765,43.8901384 44.1494444,44.0766667 C44.5105556,44.4016667 44.9763889,44.8675 45.4675,45.4127778 C45.9586111,45.9580556 46.3738889,46.4780556 46.6591667,46.8572222 C46.8276128,47.0591703 46.9684754,47.2826074 47.0780556,47.5216667 Z" id="Path" fill="#FAFAFA"></path>
                    <path d="M57.2758333,38.4325 C56.7897373,38.9434395 56.2578884,39.4088073 55.6869444,39.8227778 C55.1551744,40.2862047 54.5836134,40.7018855 53.9788889,41.065 C54.4671924,40.5563671 54.998827,40.0911869 55.5677778,39.6747222 C56.0995478,39.2112953 56.6711089,38.7956145 57.2758333,38.4325 Z" id="Path" fill="#FAFAFA"></path>
                    <path d="M51.5955556,33.3769444 C51.5163758,32.225534 51.5007039,31.070635 51.5486111,29.9175 C51.5334301,28.7637795 51.581651,27.6100962 51.6930556,26.4616667 C51.7698406,27.613191 51.7843061,28.7680248 51.7363889,29.9211111 C51.7514382,31.0747474 51.7044259,32.2283582 51.5955556,33.3769444 L51.5955556,33.3769444 Z" id="Path" fill="#FAFAFA"></path>
                    <path d="M68.1236111,23.7136111 C68.5126625,22.7742177 68.9576258,21.8589681 69.4561111,20.9727778 C69.9008738,20.0593912 70.4013543,19.1742039 70.9547222,18.3222222 C70.5688158,19.2618583 70.1237575,20.1760974 69.6222222,21.0594444 C69.1785863,21.9745857 68.6780695,22.8610431 68.1236111,23.7136111 Z" id="Path" fill="#FAFAFA"></path>
                    <path d="M66.9247222,34.4747222 C66.1812934,33.6068662 65.4857245,32.6991307 64.8411111,31.7555556 C64.1463941,30.8474919 63.5014644,29.9023988 62.9091667,28.9244444 C63.6547143,29.7905812 64.3503756,30.6984373 64.9927778,31.6436111 C65.6860152,32.5527435 66.3308898,33.497756 66.9247222,34.4747222 Z" id="Path" fill="#FAFAFA"></path>
                    <path d="M79.3325,27.1225 C78.8020635,27.8435084 78.2203727,28.5253659 77.5919444,29.1627778 C77.0095122,29.8431905 76.3808942,30.4826676 75.7105556,31.0766667 C76.2442925,30.357241 76.8270673,29.6755272 77.4547222,29.0363889 C78.0376659,28.3576305 78.6649674,27.7182655 79.3325,27.1225 Z" id="Path" fill="#FAFAFA"></path>
                    <path d="M75.4722222,44.4702778 C74.7823978,43.6421394 74.142115,42.7739595 73.5547222,41.8702778 C72.916273,41.0030078 72.3279064,40.0999616 71.7925,39.1655556 C72.4804723,39.9938882 73.120677,40.8607567 73.71,41.7619444 C74.3499304,42.6294388 74.9383512,43.5337741 75.4722222,44.4702778 L75.4722222,44.4702778 Z" id="Path" fill="#FAFAFA"></path>
                    <path d="M61.6813889,49.9591667 C61.9405184,49.0850356 62.2590371,48.2296199 62.6347222,47.3988889 C62.9554052,46.54402 63.3330103,45.7115998 63.765,44.9072222 C63.5055803,45.7824314 63.1870709,46.6390286 62.8116667,47.4711111 C62.4905769,48.3246424 62.1129815,49.1558347 61.6813889,49.9591667 L61.6813889,49.9591667 Z" id="Path" fill="#FAFAFA"></path>
                    <path d="M52.4513889,57.6111111 C52.4261111,57.6544444 50.83,56.8636111 48.8872222,55.8416667 C46.9444444,54.8197222 45.3880556,53.9494444 45.4133333,53.9061111 C45.4386111,53.8627778 47.0311111,54.65 48.9738889,55.6755556 C50.9166667,56.7011111 52.4730556,57.5641667 52.4513889,57.6111111 Z" id="Path" fill="#FAFAFA"></path>
                    <path d="M58.5,70.8169444 C58.6231277,70.5009564 58.7805509,70.1994303 58.9694444,69.9177778 C59.3876579,69.2165877 59.8408212,68.5368428 60.3272222,67.8811111 C60.8142983,67.2250877 61.3349945,66.5947079 61.8872222,65.9925 C62.1013389,65.7265312 62.3434757,65.4843945 62.6094444,65.2702778 C62.4214404,65.5524985 62.2113365,65.8193547 61.9811111,66.0683333 C61.5838889,66.5486111 61.0422222,67.2202778 60.4752778,67.9822222 C59.9083333,68.7441667 59.4244444,69.4591667 59.0777778,69.9755556 C58.9068162,70.2702778 58.7136655,70.5515502 58.5,70.8169444 L58.5,70.8169444 Z" id="Path" fill="#FAFAFA"></path>
                    <path d="M46.7313889,68.3866667 C46.6199649,67.7355847 46.5703922,67.0754208 46.5833333,66.415 C46.5313088,65.7556737 46.5446143,65.0928186 46.6230556,64.4361111 C46.7322451,65.0886801 46.7818015,65.7498344 46.7711111,66.4113889 C46.8189829,67.0696265 46.8056852,67.7308859 46.7313889,68.3866667 Z" id="Path" fill="#FAFAFA"></path>
                    <path d="M57.5972222,81.4444444 C57.5538889,81.4769444 56.9147222,80.6752778 56.0661111,79.74 C55.2175,78.8047222 54.4880556,78.0825 54.5241667,78.0427778 C55.7346367,78.9935227 56.7739168,80.1439362 57.5972222,81.4444444 Z" id="Path" fill="#FAFAFA"></path>
                    <path d="M51.6786111,86.5 C50.9852031,87.1212703 50.2491438,87.6932246 49.4758333,88.2116667 C48.7401181,88.7812488 47.9681165,89.3023498 47.1647222,89.7716667 C47.8581302,89.1503964 48.5941895,88.5784421 49.3675,88.06 C50.1021352,87.4889265 50.8742375,86.9677574 51.6786111,86.5 L51.6786111,86.5 Z" id="Path" fill="#FAFAFA"></path>
                    <path d="M65.39,87.1572222 C65.112675,87.2418415 64.8288422,87.3034393 64.5413889,87.3413889 C64.0141667,87.4425 63.2919444,87.5905556 62.5047222,87.8036111 C61.7175,88.0166667 61.0133333,88.2477778 60.5113889,88.4247222 C60.2432389,88.5388671 59.9652351,88.6283118 59.6808333,88.6919444 C59.9238709,88.5304751 60.1858353,88.3994929 60.4608333,88.3019444 C61.1095608,88.0318883 61.7754627,87.8050957 62.4541667,87.6230556 C63.1329608,87.4400243 63.8229336,87.3013059 64.5197222,87.2077778 C64.8064164,87.1534305 65.0989413,87.1364373 65.39,87.1572222 L65.39,87.1572222 Z" id="Path" fill="#FAFAFA"></path>
                    <path d="M71.1641667,85.9547222 C71.1136111,85.9547222 70.8030556,84.2502778 70.4780556,82.1269444 C70.1530556,80.0036111 69.9291667,78.2775 69.9797222,78.270255 C70.0302778,78.2630556 70.3408333,79.9747222 70.6658333,82.0980556 C70.9908333,84.2213889 71.2147222,85.9475 71.1641667,85.9547222 Z" id="Path" fill="#FAFAFA"></path>
                    <path d="M72.5255556,71.9977778 C72.1886988,71.9567184 71.8570727,71.8804686 71.5361111,71.7702778 C70.9330556,71.6005556 70.0916667,71.3369444 69.2105556,71.0083333 C68.3294444,70.6797222 67.5097222,70.3438889 66.9391667,70.0838889 C66.6240127,69.9578899 66.3216971,69.801895 66.0363889,69.6180556 C66.3647043,69.7044753 66.68489,69.8192588 66.9933333,69.9611111 C67.5747222,70.1886111 68.38,70.5027778 69.2755556,70.8313889 C70.1711111,71.16 70.9836111,71.4416667 71.5758333,71.6438889 C71.901798,71.7349283 72.2194991,71.8533113 72.5255556,71.9977778 Z" id="Path" fill="#FAFAFA"></path>
                    <path d="M82.5897222,79.1947222 C82.1419563,80.0556787 81.6389615,80.886766 81.0838889,81.6827778 C80.580433,82.5131004 80.0243908,83.3103756 79.4191667,84.0697222 C79.8662195,83.2083653 80.3692418,82.3772324 80.925,81.5816667 C81.4284559,80.7513441 81.9844981,79.9540688 82.5897222,79.1947222 L82.5897222,79.1947222 Z" id="Path" fill="#FAFAFA"></path>
                    <path d="M80.7625,91.7577778 C80.0142096,91.3027762 79.2986666,90.7959836 78.6211111,90.2411111 C77.9053233,89.7346148 77.2270753,89.1770514 76.5916667,88.5727778 C77.3399571,89.0277793 78.0555,89.534572 78.7330556,90.0894444 C79.4488434,90.5959408 80.1270914,91.1535041 80.7625,91.7577778 L80.7625,91.7577778 Z" id="Path" fill="#FAFAFA"></path>
                    <path d="M78.7727778,64.2158333 C78.5946418,65.2087918 78.3534122,66.1893898 78.0505556,67.1516667 C77.8089258,68.1325778 77.5062057,69.0974228 77.1441667,70.0405556 C77.323652,69.0478843 77.5648607,68.0673707 77.8663889,67.1047222 C78.1076535,66.1237089 78.4103807,65.1588413 78.7727778,64.2158333 L78.7727778,64.2158333 Z" id="Path" fill="#FAFAFA"></path>
                    <path d="M75.8333333,58.7305556 C74.4121782,58.1350626 73.1388601,57.2352348 72.1030556,56.0944444 C72.1427778,56.0547222 72.9011111,56.7408333 73.9338889,57.4630556 C74.9666667,58.1852778 75.8333333,58.6944444 75.8333333,58.7305556 Z" id="Path" fill="#FAFAFA"></path>
                    <path d="M80.21,49.9519444 C79.9419493,50.5292316 79.6190784,51.0794423 79.2458333,51.595 C78.9223721,52.1430618 78.5462406,52.6582774 78.1227778,53.1333333 C78.3908285,52.5560462 78.7136994,52.0058354 79.0869444,51.4902778 C79.4104056,50.942216 79.7865372,50.4270004 80.21,49.9519444 Z" id="Path" fill="#FAFAFA"></path>
                    <path d="M87.5730556,33.4888889 C87.7525208,32.5329748 87.9937675,31.5897005 88.2952778,30.665 C88.5411043,29.7226668 88.8450186,28.7964517 89.2052778,27.8916667 C89.0249156,28.8473819 88.7836836,29.7905989 88.4830556,30.7155556 C88.2395329,31.658565 87.9355713,32.584924 87.5730556,33.4888889 L87.5730556,33.4888889 Z" id="Path" fill="#FAFAFA"></path>
                    <path d="M93.1666667,45.2069444 C92.8682216,45.0508218 92.5873599,44.8631771 92.3288889,44.6472222 C91.6857074,44.1540458 91.0730964,43.622232 90.4944444,43.0547222 C89.9171168,42.4880968 89.3767471,41.8850056 88.8766667,41.2491667 C88.6538928,40.9961736 88.4623339,40.717322 88.3061111,40.4186111 C88.5474553,40.6502374 88.7719173,40.8988351 88.9777778,41.1625 C89.3858333,41.6319444 89.9563889,42.2638889 90.6280556,42.9283333 C91.2997222,43.5927778 91.9425,44.1525 92.4119444,44.5497222 C92.680699,44.7482488 92.9330836,44.9680287 93.1666667,45.2069444 Z" id="Path" fill="#FAFAFA"></path>
                    <path d="M97.6588889,40.2777778 C97.6119444,40.2488889 98.1247222,39.4002778 98.605,38.2808333 C99.0852778,37.1613889 99.3597222,36.2044444 99.4138889,36.2188889 C99.1603919,37.692284 98.5587045,39.0838407 97.6588889,40.2777778 L97.6588889,40.2777778 Z" id="Path" fill="#FAFAFA"></path>
                    <path d="M101.168889,49.6197222 C101.227528,48.9443769 101.348412,48.2758901 101.53,47.6227778 C101.648095,46.9569941 101.825753,46.3031634 102.060833,45.6691667 C102.004066,46.3447607 101.883151,47.0134216 101.699722,47.6661111 C101.583653,48.3323471 101.405945,48.9863605 101.168889,49.6197222 L101.168889,49.6197222 Z" id="Path" fill="#FAFAFA"></path>
                    <path d="M109.510556,55.1086111 C108.800683,54.6672816 108.124732,54.1735961 107.488333,53.6316667 C106.812617,53.1389721 106.175235,52.5957481 105.581667,52.0066667 C106.291539,52.4479962 106.96749,52.9416817 107.603889,53.4836111 C108.2806,53.9750432 108.918076,54.5183472 109.510556,55.1086111 L109.510556,55.1086111 Z" id="Path" fill="#FAFAFA"></path>
                    <path d="M115.313611,43.5747222 C115.211118,43.8561463 115.081723,44.1270299 114.927222,44.3836111 C114.674444,44.8747222 114.338611,45.5572222 114.01,46.3336111 C113.681389,47.11 113.421389,47.8213889 113.240833,48.345 C113.159912,48.6331142 113.053569,48.9134743 112.923056,49.1827778 C112.950927,48.8839119 113.013955,48.5893769 113.110833,48.3052778 C113.308838,47.6084474 113.550046,46.924624 113.833056,46.2577778 C114.115887,45.5910344 114.441567,44.9432921 114.808056,44.3186111 C114.94746,44.0520637 115.117096,43.8024566 115.313611,43.5747222 Z" id="Path" fill="#FAFAFA"></path>
                    <path d="M119.813056,37.7066667 C118.653178,37.4510023 117.507985,37.1327593 116.3825,36.7533333 C115.238787,36.4344978 114.112923,36.0547901 113.009722,35.6158333 C114.168728,35.876436 115.313726,36.1958302 116.440278,36.5727778 C117.582999,36.8934275 118.708707,37.2718774 119.813056,37.7066667 L119.813056,37.7066667 Z" id="Path" fill="#FAFAFA"></path>
                    <path d="M124.623056,42.9969444 C124.436864,43.26214 124.234245,43.5154136 124.016389,43.7552778 C123.027221,44.9631688 122.206066,46.299368 121.575278,47.7275 C121.460777,48.0306982 121.3244,48.3251771 121.167222,48.6086111 C121.222551,48.2860827 121.318402,47.9718358 121.4525,47.6733333 C122.022979,46.2018957 122.857622,44.847131 123.915278,43.6758333 C124.120515,43.4195723 124.358469,43.1913304 124.623056,42.9969444 L124.623056,42.9969444 Z" id="Path" fill="#FAFAFA"></path>
                    <path d="M126.963056,34.9116667 C126.938322,34.5630307 126.938322,34.2130804 126.963056,33.8644444 C126.981111,33.2180556 126.991944,32.3261111 126.963056,31.3366667 C126.934167,30.3472222 126.861944,29.4625 126.804167,28.8088889 C126.755617,28.4619349 126.731484,28.1120007 126.731938,27.7616667 C126.837446,28.0963013 126.906459,28.4413621 126.937778,28.7908333 C127.052384,29.6291832 127.123498,30.4729056 127.150833,31.3186111 C127.179128,32.161502 127.162252,33.0053034 127.100278,33.8463889 C127.093391,34.2054134 127.047378,34.5626168 126.963056,34.9116667 L126.963056,34.9116667 Z" id="Path" fill="#FAFAFA"></path>
                    <path d="M135.777778,34.7744444 C135.059016,34.3057363 134.376955,33.7830242 133.7375,33.2108333 C133.052404,32.6897494 132.406672,32.1188492 131.805556,31.5027778 C132.523104,31.9748048 133.206127,32.49733 133.849444,33.0663889 C134.533903,33.5868736 135.178479,34.1578177 135.777778,34.7744444 L135.777778,34.7744444 Z" id="Path" fill="#FAFAFA"></path>
                    <path d="M139.269722,28.7619444 C139.119386,28.4405727 138.992662,28.1086757 138.890556,27.7688889 C138.670278,27.1513889 138.356111,26.3063889 137.973333,25.3819444 C137.590556,24.4575 137.215,23.6377778 136.933333,23.0455556 C136.765009,22.7334467 136.621331,22.4086618 136.503611,22.0741667 C136.71732,22.3591426 136.901245,22.6652805 137.0525,22.9877778 C137.363056,23.5655556 137.774722,24.3816667 138.135833,25.3097222 C138.496944,26.2377778 138.814722,27.0972222 139.006111,27.7291667 C139.130388,28.063094 139.218757,28.4093048 139.269722,28.7619444 L139.269722,28.7619444 Z" id="Path" fill="#FAFAFA"></path>
                    <g id="Group" opacity="0.182314918" transform="translate(50.000000, 50.537986)" fill="#000000">
                        <path d="M14.3469444,0.122777778 C12.9025,3.92527778 8.97361111,5.63694444 5.31916667,5.87888889 L5.10972222,5.87888889 C3.44553167,5.80052599 1.78032884,6.01066164 0.187777778,6.5 C2.22189322,9.90309079 6.48207857,11.2436323 10.0983966,9.61854879 C13.7147147,7.9934653 15.5409983,3.91781581 14.3469444,0.137222222 L14.3469444,0.122777778 Z" id="Path"></path>
                    </g>
                    <g id="Group" opacity="0.3" transform="translate(46.917590, 77.453203) rotate(16.000000) translate(-46.917590, -77.453203) translate(42.917590, 66.953203)" fill="#000000">
                        <path d="M0.329501472,0.908358504 C1.36839198,4.19446961 2.83731503,8.0583585 3.87620553,11.3444696 C4.7873636,14.2333585 6.17964718,17.3930807 7.09080525,20.2711363 L7.49103356,20.2386363 C9.24522572,13.5436363 6.26480214,5.56308073 0.329501472,0.908358504 Z" id="Path"></path>
                    </g>
                    <g id="Group" opacity="0.3" transform="translate(79.972222, 36.833333)" fill="#000000">
                        <path d="M9.06378871,7.25052915 C7.56752925,4.17268936 3.66634905,1.69924658 0.456163194,0.513246199 C2.26171875,3.1132462 5.16634549,5.65384516 5.37217882,9.02301182 L9.29524377,10.1517541 C10.1330215,9.34286522 9.56934427,8.29414026 9.06378871,7.25052915 Z" id="Path"></path>
                    </g>
                    <path d="M50.9997222,20.4347222 C50.6385484,20.5431739 50.2926973,20.69729 49.9705556,20.8933333 C49.6825896,21.1361589 49.428723,21.4167483 49.2158333,21.7275 C49.1941667,21.7275 49.2158333,21.5830556 49.3061111,21.3844444 C49.4372161,21.1276725 49.6279037,20.9060292 49.8622222,20.7380556 C50.0943787,20.5698661 50.3627872,20.4585446 50.6458333,20.4130556 C50.8661111,20.3841667 50.9997222,20.4166667 50.9997222,20.4347222 Z" id="Path" fill="#263238"></path>
                    <path d="M55.3980556,26.0788889 C55.3763889,26.0788889 55.315,25.9272222 55.2933333,25.6563889 C55.2743217,25.2997085 55.334758,24.9432574 55.4702778,24.6127778 C55.6021636,24.2804197 55.8084627,23.9827067 56.0733333,23.7425 C56.2755556,23.5619444 56.4344444,23.4933333 56.4344444,23.5113889 C56.1081227,23.8574219 55.8376619,24.2521486 55.6327778,24.6813889 C55.4850795,25.1328602 55.405958,25.6039376 55.3980556,26.0788889 Z" id="Path" fill="#263238"></path>
                    <path d="M50.7036111,25.8333333 C50.6800913,25.5985245 50.7046653,25.3613855 50.7758333,25.1363889 C51.0507302,24.0190506 51.7485113,23.0519959 52.7222222,22.4388889 C52.9124401,22.3007448 53.1286218,22.2024804 53.3577778,22.15 C51.9915499,22.9467136 51.0270524,24.2851999 50.7036111,25.8333333 Z" id="Path" fill="#263238"></path>
                    <path d="M47.5980556,19.1347222 C47.58,19.1347222 47.645,18.9758333 47.8255556,18.7736111 C48.3196813,18.2955941 49.0264985,18.1082944 49.6925,18.2788889 C49.9416667,18.3511111 50.0536111,18.445 50.0536111,18.4666667 C49.6187681,18.3776507 49.1703986,18.3776507 48.7355556,18.4666667 C48.316032,18.6121346 47.9294405,18.8391804 47.5980556,19.1347222 L47.5980556,19.1347222 Z" id="Path" fill="#263238"></path>
                    <path d="M60.4211111,25.7647222 C60.3170757,25.4671528 60.2432773,25.1598611 60.2008333,24.8475 C60.0986606,24.5503802 60.0237223,24.2445837 59.9769444,23.9338889 C60.1957329,24.1770237 60.3366112,24.4801638 60.3813889,24.8041667 C60.485327,25.1141294 60.4991021,25.4472361 60.4211111,25.7647222 Z" id="Path" fill="#263238"></path>
                    <path d="M65.6066667,25.8333333 C65.3600579,24.6922739 64.7954104,23.6443581 63.9780556,22.8108333 C64.497248,23.1184631 64.9132896,23.5734693 65.1733333,24.1180556 C65.4883429,24.6326569 65.6394689,25.2308637 65.6066667,25.8333333 L65.6066667,25.8333333 Z" id="Path" fill="#263238"></path>
                    <path d="M67.7913889,21.7961111 C67.7408333,21.8177778 67.6036111,21.5288889 67.2822222,21.3447222 C66.9608333,21.1605556 66.6502778,21.1677778 66.6430556,21.1136111 C66.6358333,21.0594444 66.7152778,21.0522222 66.8561111,21.045 C67.0394047,21.0407677 67.2200052,21.0896804 67.3761111,21.1858333 C67.5323348,21.2773439 67.6579815,21.4130423 67.7372222,21.5758333 C67.8094444,21.6986111 67.8130556,21.7888889 67.7913889,21.7961111 Z" id="Path" fill="#263238"></path>
                    <path d="M71.9405556,20.0555556 C71.7532974,19.9351273 71.5724928,19.804948 71.3988889,19.6655556 C70.9614367,19.3758019 70.4702405,19.1768674 69.9544444,19.0805556 C69.4336521,18.9878799 68.8995946,19.0001571 68.3836111,19.1166667 C67.99,19.2105556 67.7588889,19.3225 67.7444444,19.2936111 C67.9197241,19.145781 68.1276792,19.0418035 68.3511111,18.9902778 C69.4260727,18.6602698 70.5943014,18.8715739 71.4855556,19.5572222 C71.6712285,19.6887543 71.8264104,19.8587154 71.9405556,20.0555556 Z" id="Path" fill="#263238"></path>
                    <path d="M70.8030556,16.8308333 C70.4531581,16.7756044 70.0991973,16.7502352 69.745,16.755 C69.3967277,16.8189297 69.0538707,16.909473 68.7194444,17.0258333 C69.2853608,16.48691 70.1469693,16.4062742 70.8030556,16.8308333 Z" id="Path" fill="#263238"></path>
                    <path d="M36.5661111,69.145 C36.6311111,69.2641667 38.0827778,70.3908333 38.0827778,70.3908333 L42.5253906,70.3778295 C42.5253906,70.3778295 45.446271,68.5351102 48.059724,73.0785402 C50.6731771,77.6219702 47.4107894,86.4412348 46.3795573,86.5588191 C45.4406041,86.6658815 41.529085,84.40859 34.645,79.7869444 L32.1677778,79.2777778 L36.5661111,69.145 Z" id="Path" fill="#F8BB9F"></path>
                </g>
                <polygon id="Rectangle" fill="#EDEEF5" fill-rule="nonzero" transform="translate(159.219983, 19.181303) rotate(-79.980000) translate(-159.219983, -19.181303) " points="144.05009 -1 174.389876 -1 174.389876 39.3626066 144.05009 39.3626066"></polygon>
                <polygon id="Path" fill="#407BFF" fill-rule="nonzero" points="136.722788 30.6098137 153.886934 14.4929891 160.431342 27.6306431 167.366461 22.4537237 176.466769 37.6371834"></polygon>
                <path d="M166.541626,14.3844583 C166.31784,15.6510646 165.353075,16.6581308 164.097232,16.9360309 C162.841388,17.2139309 161.541804,16.7079323 160.804515,15.653998 C160.067227,14.6000636 160.037443,13.2057657 160.729053,12.1213086 C161.420663,11.0368514 162.697455,10.4758187 163.96402,10.6998374 C165.691453,11.008403 166.843993,12.6559294 166.541626,14.3844583 Z" id="Path" fill="#407BFF" fill-rule="nonzero"></path>
                <path d="M153.886934,14.4929891 L160.431342,27.6306431 L167.366461,22.4537237 L176.466769,37.6371834 L136.722788,30.6098137 L153.886934,14.4929891 Z M163.96402,10.6998374 C165.691453,11.008403 166.843993,12.6559294 166.541626,14.3844583 C166.31784,15.6510646 165.353075,16.6581308 164.097232,16.9360309 C162.841388,17.2139309 161.541804,16.7079323 160.804515,15.653998 C160.067227,14.6000636 160.037443,13.2057657 160.729053,12.1213086 C161.420663,11.0368514 162.697455,10.4758187 163.96402,10.6998374 Z" id="Combined-Shape" fill="#C7CCE7" fill-rule="nonzero"></path>
                <path d="M199.526389,85.4653277 C199.224619,85.7682408 198.769994,85.8593413 198.374811,85.6960882 C197.979627,85.532835 197.721848,85.1474355 197.721848,84.7198589 C197.721848,84.2922823 197.979627,83.9068828 198.374811,83.7436296 C198.769994,83.5803765 199.224619,83.671477 199.526389,83.9743902 C199.937001,84.3865562 199.937001,85.0531616 199.526389,85.4653277 L199.526389,85.4653277 Z" id="Path" fill="#FFFFFF" fill-rule="nonzero"></path>
                <g id="Group-5-Copy-3" transform="translate(99.901389, 41.664529) rotate(3.000000) translate(-99.901389, -41.664529) translate(75.401389, 8.164529)">
                    <ellipse id="Oval-Copy-88" stroke="#979797" fill="#D8D8D8" cx="28.5842211" cy="34.7277231" rx="2.87401846" ry="1.67651077"></ellipse>
                    <path d="M33.5179612,22.8325659 C31.7175891,22.7915131 26.3921537,22.1912724 28.1168452,22.7094075 L24.9797861,24.337398 C32.6414862,26.6391405 32.2932721,26.3274877 33.9270771,22.9091238 L33.5179612,22.8325659 Z" id="Path-21-Copy" stroke="#979797"></path>
                    <path d="M34.3746232,24.3715919 C32.7090412,21.7827394 33.2478179,21.5971574 28.3849493,22.7496533 C27.2957404,23.0077949 24.5098768,24.1529843 25.5541218,24.5561782 C33.1082124,27.4728917 32.9121144,26.9741559 33.9116445,23.7645753" id="Path-20-Copy" stroke="#979797"></path>
                    <path d="M32.2904832,13.2619133 C37.6557967,12.3417484 45.238889,18.0216539 45.9300904,23.4209766 C46.6979323,29.4180951 47.0182394,30.6334053 45.7731198,34.4196463 C42.6223362,44.0007552 39.2241881,49.7330496 39.2241881,49.7330496 C39.2241881,49.7330496 39.404049,52.9496819 39.6640787,57.2665891 C39.9628605,57.3403965 41.1164772,58.7880221 40.9879671,59.393991 C40.8032449,60.265019 40.3801929,61.3648424 39.659872,62.4388785 C39.5596034,62.7083723 39.4182169,62.8987624 39.2265327,63.0332215 C38.0440653,64.5329712 36.2388213,65.8852189 33.6424922,66.3599713 C30.1318408,67.0019123 26.6623273,64.4506695 24.4218685,62.0376829 C24.1459762,61.8855497 23.9308298,61.6749613 23.8206201,61.3630739 C22.5622562,59.8755611 21.8355509,58.5692228 21.9394812,58.2773907 C22.0107471,58.0772788 22.7252347,57.8593132 24.0829438,57.623494 C24.4423507,53.1855506 24.0925625,49.6596189 23.9857615,45.6941182 C23.8388071,40.2377299 23.1406237,31.9602027 21.8912113,20.8615365 C21.7518214,19.2142449 23.5376657,15.4506148 25.1672341,15.171356 C26.3391912,14.5118375 28.7136076,13.8753566 32.2904832,13.2619133 Z" id="Combined-Shape-Copy-4" fill="url(#linearGradient-1)"></path>
                    <g id="Group-11-Copy" transform="translate(-0.000000, 0.000000)">
                        <path d="M6.1365547,62.3517014 C6.03582748,62.6234264 5.61198175,64.9546716 5.76315262,64.8590039 C13.1509412,60.1836783 24.6315557,57.7373896 24.6315557,57.7373896 C24.3092607,51.0129947 24.0539015,46.3932289 23.8654782,43.8780922 C23.1967396,34.9515497 22.6276551,30.5857565 22.7409474,30.3618284 C35.7124328,4.72299936 48.2216373,18.3490936 48.2216373,18.3490936 C48.2216373,18.3490936 47.9588049,14.3854625 44.4551336,10.7976823 C42.2984239,8.58919876 39.5577172,7.19960338 36.2782609,7.24960498 C35.6354732,7.25940551 30.9642011,2.98522433 22.8203158,8.10407305 C4.23073659,20.9911921 11.6970414,47.3515521 6.1365547,62.3517014 Z" id="Fill-1" fill="#3B395D"></path>
                        <path d="M39.3373019,44.1222697 C39.3373019,44.1222697 39.223464,48.2664565 39.3697128,52.4165927 C34.9533956,51.3105057 30.4277635,49.4447417 28.2763298,47.7541196 C25.0279089,45.2014719 23.7444837,41.9421888 22.5288309,39.3747277 L39.3373019,44.1222697 Z" id="Fill-6" fill="#CD9388"></path>
                        <path d="M37.4791679,49.8052612 C37.4791679,49.8052612 23.6957393,45.8085956 22.9411842,42.2142043 C22.6846553,40.9922057 22.5144238,39.10312 22.3545924,38.4429708 C22.1235056,37.4885172 20.4038694,39.8156971 19.5217065,37.0181727 C18.6395437,34.2206482 18.8752171,31.1562243 19.24871,30.3400404 C20.1421917,28.3875388 22.3257315,31.2114435 22.3080763,30.0031079 C22.1930549,22.1309682 24.4063396,14.8266824 33.6991546,13.9182926 C45.6169099,12.7532949 46.3001105,20.3949954 47.3961855,24.3385055 C48.4925717,28.2818563 46.9978959,45.1842121 39.1308487,50.0571366 C38.5115113,50.008435 37.960951,49.9244765 37.4791679,49.8052612 Z" id="Fill-8" fill="#FBC0A6"></path>
                        <path d="M44.9139734,12.8509818 C42.4782668,11.678285 40.3451586,12.3242311 39.1713158,13.4137767 C19.620764,7.82353828 16.790457,30.7135268 17.0282554,37.2239415 C17.1108587,39.4854425 17.701258,46.8564231 18.7994533,59.3368835 L21.6662601,58.4713668 C20.1421355,46.1010043 19.2915647,38.4167086 19.1145476,35.4184797 C19.0752695,34.7532067 19.0470519,34.1533076 19.0298948,33.6187824 C18.9805488,32.0814238 19.5403364,30.1543471 21.2412729,30.0256914 C22.8668323,29.9027371 22.8248609,34.7735483 22.9853405,34.3750397 C23.4876544,33.127676 24.2562603,27.6873674 24.4612979,26.9057732 C28.4421759,11.7308405 39.3882095,16.4449124 39.7089088,15.0630234 C40.8784366,16.0363713 41.5048082,15.4771945 43.639337,17.0856303 C46.5779382,19.2999603 47.9695263,24.4723637 47.10121,28.4932708 C47.10121,28.4932708 47.0625632,34.1849914 47.5604218,33.2031546 C47.6716711,32.9837575 47.5510692,31.1429269 48.0602951,28.3813036 C48.7967265,24.3875048 50.0083984,18.5454957 46.3117974,14.2034655 L44.9139734,12.8509818 Z" id="Fill-10" fill="#4E4C77"></path>
                        <path d="M35.6188559,9.5590979 C25.295816,1.79670926 5.1485956,17.4912232 13.802335,60.50003 C13.9869283,61.4174526 15.5882223,59.4944781 16.1399747,59.9298156 C16.3830941,60.121639 4.62783021,7.59531546 35.9000767,10.1885691 C36.6337172,10.2494063 36.7525005,10.536416 37.519795,11.5067249 C37.7384082,11.8445915 37.1047618,11.1953825 35.6188559,9.5590979 Z" id="Path-25" fill="#545278" opacity="0.465820312"></path>
                        <path d="M38.9435535,13.076784 C37.9405102,11.9411757 37.6991075,11.1716419 37.0414631,10.3888614 C32.4349005,4.90576474 35.1019218,7.32770123 37.457604,9.98713823 C38.6214148,11.3010172 39.5685883,12.629422 39.2455183,13.0048297 L38.9435535,13.076784 Z" id="Path-29" fill="#555379" opacity="0.63625372"></path>
                    </g>
                    <g id="Group-22-Copy" transform="translate(27.147212, 22.525586)">
                        <path d="M7.75196659,3.21423536 C7.47460186,3.55209158 6.69269322,3.20527365 6.42832296,3.09997363 C5.58816323,2.76435783 4.28422039,2.29593563 3.13323508,2.40179136 C1.31719316,2.82015367 0.546949209,3.12065724 0.52633729,3.01446105 C0.47794409,2.76622186 0.60078515,2.00305773 4.54079818,1.45280913 C5.00949528,1.38738869 7.51978501,1.44426129 7.98668977,1.89996393 C8.35860048,2.26336101 7.8998347,3.03365703 7.75196659,3.21423536 Z" id="Fill-1" fill="#413F62" transform="translate(4.324334, 2.394487) rotate(-6.000000) translate(-4.324334, -2.394487) "></path>
                        <path d="M13.9884961,3.27640844 C14.2400485,3.63058068 15.0232764,3.29462902 15.2926678,3.20856384 C16.1488523,2.93408409 17.4571146,2.80185371 18.590841,2.98658807 C20.3622275,3.5272399 20.9865577,3.10812986 17.3947637,1.70250602 C17.0618052,1.57220499 14.220224,1.73704694 13.7257524,2.15645403 C13.3318551,2.49093655 13.8544209,3.08713573 13.9884961,3.27640844 Z" id="Fill-1-Copy" fill="#413F62" transform="translate(16.795582, 2.547137) rotate(15.000000) translate(-16.795582, -2.547137) "></path>
                        <path d="M12.4699166,5.54399406 C12.4699166,5.54399406 12.4599455,5.66403227 12.4300322,5.86965329 C12.3983594,6.07972018 12.3690327,6.35647495 12.3473309,6.69713897 C12.3309079,6.86552591 12.332081,7.04891763 12.3244561,7.24008961 C12.3133119,7.43070585 12.3361868,7.63299248 12.332081,7.8386135 C12.3549559,8.25318993 12.4083305,8.68777274 12.4816473,9.12068834 C12.5666947,9.55082529 12.673444,9.9770721 12.7989623,10.3738651 C12.8763849,10.5661485 12.9279999,10.7634336 13.0060089,10.9396008 C13.0810853,11.1168794 13.1456041,11.2897122 13.2206805,11.4430944 C13.3614487,11.7548603 13.4957651,12.0149431 13.5943029,12.1966677 C13.6940137,12.3778364 13.7473883,12.4895387 13.7473883,12.4895387 C13.7473883,12.4895387 13.6435717,12.4228508 13.4687845,12.2933651 C13.3790448,12.2300116 13.2775743,12.146096 13.1708251,12.0405068 C13.0582105,11.9393635 12.9350383,11.819881 12.8212506,11.6748349 C12.5702139,11.3986358 12.3373598,11.0324081 12.1285536,10.6200546 C12.0388139,10.4083205 11.9279589,10.1943635 11.862267,9.9615116 C11.7783926,9.73366128 11.7332295,9.49191764 11.6769222,9.25295267 C11.6446628,9.01009758 11.6018458,8.76890968 11.5994997,8.52716605 C11.5789709,8.28764535 11.605365,8.04979184 11.6147495,7.82249725 C11.664605,7.36735235 11.7531716,6.94777432 11.8898341,6.60766604 C11.9455549,6.43538897 12.0194582,6.2820068 12.0892558,6.148631 C12.1526015,6.01303228 12.2182934,5.90299724 12.2781199,5.81685871 C12.3960133,5.64180298 12.4699166,5.54399406 12.4699166,5.54399406" id="Fill-4" fill="#C39886"></path>
                        <path d="M4.93706509,6.05535771 C4.96810626,6.43071075 5.20319771,6.53115728 5.23587262,6.74191045 C5.51769372,6.64306885 5.69879896,6.7488827 6.14685368,6.70436313 C6.55488163,6.66433637 6.91062972,6.682716 7.18959177,6.71661622 C7.41627397,6.28489896 7.42525957,5.80866213 7.18959177,5.49498299 C6.9665855,5.19845817 6.60675305,5.15638922 6.24773746,5.11472871 C6.10723535,5.09798282 5.19805595,4.99178936 4.95462786,5.43330909 C4.91868546,5.49825048 4.89744677,5.57544496 4.93706509,6.05535771 Z" id="Fill-8" fill="#545A83" transform="translate(6.139360, 5.916746) rotate(13.000000) translate(-6.139360, -5.916746) "></path>
                        <path d="M15.4660429,6.35855461 C15.4960148,6.72944441 15.6004437,6.70807535 15.6319931,6.91632251 C16.0234477,7.03417702 17.3716266,6.97845312 17.6409796,7.01195024 C17.8598535,6.58536644 18.0863689,6.14196055 17.8588189,5.8320113 C17.6434942,5.53901239 17.0782172,5.47027557 16.7315681,5.42911044 C16.5959057,5.41256367 15.8588173,5.1408963 15.6237743,5.57716602 C15.5890699,5.6413352 15.4277892,5.8843484 15.4660429,6.35855461 Z" id="Fill-8-Copy" fill="#545A83" transform="translate(16.706862, 6.171186) rotate(15.000000) translate(-16.706862, -6.171186) "></path>
                        <path d="M7.20983881,4.31777718 C6.24964091,3.79430388 3.88789353,3.57845433 2.35255784,5.21189684 C2.07133915,5.51108518 1.4445911,6.6149365 1.81214603,6.56221044 C3.13579722,6.37233159 4.1356639,5.01702001 5.46875979,4.91232145 C6.10092919,4.86267219 6.91623863,5.73460112 7.50645381,6.02756143 C8.93366103,6.73597266 9.03871622,6.12847015 8.46620455,5.71738263 L7.20983881,4.31777718 Z" id="Path-19" fill="#CAA199" transform="translate(5.245322, 5.249607) rotate(6.000000) translate(-5.245322, -5.249607) "></path>
                        <path d="M17.9652244,4.54044263 C17.0664769,4.01696932 15.4068749,3.70815776 13.9697971,5.34160026 C12.5327193,6.97504277 12.9923635,6.47302441 13.3363958,6.42029835 C13.6967559,6.3650699 13.9956549,6.24208877 14.2690637,6.09286428 C14.9356512,5.72904567 15.4507209,5.20923268 16.3355703,5.13498689 C16.9272824,5.08533763 17.9693049,5.98349294 18.5217477,6.27645325 C19.857617,6.98486448 19.7029578,6.60201466 19.1411857,5.94004808 L17.9652244,4.54044263 Z" id="Path-19-Copy" fill="#CAA199" transform="translate(16.268789, 5.388591) scale(-1, 1) rotate(-3.000000) translate(-16.268789, -5.388591) "></path>
                        <path d="M2.41571245,5.86230133 C2.57460894,5.76579336 2.82133243,5.6095886 3.00331643,5.49908698 C3.18394235,5.38617266 3.49415927,5.20047887 3.70104159,5.08370423 C4.10801577,4.8361613 4.4049547,4.79532775 4.90382627,4.640915 C5.15416745,4.57142927 5.39451076,4.50404646 5.67110834,4.47219883 C5.80918078,4.45772263 6.1904165,4.45221525 6.3606304,4.49226606 C6.44845352,4.51349781 6.52722272,4.54341528 6.61006618,4.59166926 C6.64809269,4.61338356 6.76382332,4.71960161 6.82765353,4.77702385 C7.0802582,5.00381757 7.13972112,5.21800596 7.23524009,5.3917203 C7.32985367,5.57363782 7.42310915,5.71502199 7.54578991,5.84048235 C7.77938132,6.07644433 8.06412744,6.20431738 8.264672,6.27525074 C8.46793274,6.34666663 8.59332968,6.37561902 8.59332968,6.37561902 C8.59332968,6.37561902 8.47064892,6.40891427 8.24520605,6.41808253 C8.02383745,6.42290792 7.72642036,6.20048319 7.06375657,6.11407349 C6.40109277,6.02766379 5.12784586,5.76500486 4.90195029,5.83497313 C4.44789567,5.96043349 2.71990378,6.27714664 2.63072256,6.30561649 C1.91727283,6.53434037 1.59192515,6.63763815 1.59192515,6.63763815 C1.59192515,6.63763815 1.76518754,6.24929827 2.41571245,5.86230133 Z" id="Fill-6" fill="#464462" transform="translate(5.092627, 5.549523) rotate(6.000000) translate(-5.092627, -5.549523) "></path>
                        <path d="M13.5033661,6.09325509 C13.6520935,5.99674713 13.8830273,5.84054237 14.0533648,5.73004075 C14.2224311,5.61712643 14.5127948,5.43143263 14.7064372,5.314658 C15.087366,5.06711506 15.5832841,4.65308245 16.4476153,4.77399146 C17.3119465,4.89490047 18.3351191,6.02363109 18.4499485,6.14909145 C18.6685906,6.38505342 18.7902958,6.43527115 18.978006,6.5062045 C19.1682586,6.5776204 19.2856304,6.60657279 19.2856304,6.60657279 C19.2856304,6.60657279 18.9810604,6.518988 18.7700454,6.52815626 C18.5628438,6.53298166 17.9049815,6.59434504 17.0866882,6.14453338 C16.2683948,5.69472172 16.2112321,5.91338993 15.9997933,5.9833582 C15.5747971,6.10881856 13.9333113,6.64625474 13.8498374,6.67472459 C13.1820468,6.90344847 13.0115369,6.54545367 13.0115369,6.54545367 C13.0115369,6.54545367 12.8944732,6.48025204 13.5033661,6.09325509 Z" id="Fill-6-Copy" fill="#464462" transform="translate(16.144069, 5.751718) scale(-1, 1) rotate(-3.000000) translate(-16.144069, -5.751718) "></path>
                        <path d="M6.21645914,17.9316882 C6.84203716,18.2243591 7.75358002,18.5826534 8.90127139,18.8029948 C9.59582585,18.9366367 10.1246453,18.9706459 10.2592451,18.978789 C11.0438522,19.0252523 12.3323704,18.9984281 13.9173916,18.4758357 C13.7645896,18.8398781 13.4671287,19.4185138 12.9057371,19.9631403 C12.5982171,20.2610802 12.0219764,20.8205558 11.177015,20.9862909 C10.1227292,21.1936992 9.24902763,20.6706278 8.50896787,20.228029 C7.35840248,19.5397016 6.64037687,18.6219317 6.21645914,17.9316882 Z M11.5295613,16.7495087 C11.7585247,16.5847316 12.109634,16.5607814 12.3069833,16.7629207 C12.3637451,16.8211196 12.4030234,16.8916528 12.4367332,16.9660779 L12.5330727,17.1925865 C12.8247856,17.8138535 13.5471222,18.0849692 14.2000034,18.2971676 C12.8118525,18.5352321 11.4146005,18.7747337 10.0068105,18.7565315 C8.59854145,18.7388084 7.16344823,18.4485326 5.97120957,17.6993718 C6.6293598,17.7697852 7.29373706,17.8397197 7.95140829,17.7635582 C8.60907951,17.6883547 9.26818775,17.4531642 9.74048478,16.9894892 C9.83245337,16.8989576 9.92011094,16.798367 10.0369877,16.7437606 C10.247749,16.645086 10.5073687,16.7246005 10.6836418,16.8774025 C10.859436,17.0297255 10.9700857,17.2424028 11.0759454,17.4498111 C11.170309,17.1830064 11.3001188,16.9147647 11.5295613,16.7495087 Z" id="Combined-Shape" fill="#CB8E8E" transform="translate(10.085606, 18.825850) rotate(5.000000) translate(-10.085606, -18.825850) "></path>
                    </g>
                    <path d="M38.0397693,36.7715677 C38.9881777,36.7715677 40.825153,35.4049867 40.825153,35.0712746 C40.825153,34.7375624 39.1630673,35.6718745 38.2146589,35.6718745 C37.2662506,35.6718745 36.3225241,35.8336163 36.3225241,36.1673284 C36.3225241,36.5010406 37.091361,36.7715677 38.0397693,36.7715677 Z" id="Oval-Copy-89" fill="#D2A29A" opacity="0.496651786"></path>
                    <ellipse id="Oval-Copy-90" fill="#E35C86" opacity="0.192196801" filter="url(#filter-2)" transform="translate(27.454075, 35.063186) rotate(14.000000) translate(-27.454075, -35.063186) " cx="27.4540755" cy="35.063186" rx="3.47277231" ry="1.91601231"></ellipse>
                </g>
                <g id="Group-2" transform="translate(22.000000, 96.702515) rotate(-12.000000) translate(-22.000000, -96.702515) translate(5.000000, 75.202515)" fill-rule="nonzero">
                    <polygon id="Path" fill="#7E8CCC" points="33.317037 42.7690741 -2.2632102e-14 42.7690741 -2.2632102e-14 -1.1316051e-14 24.732963 -1.1316051e-14 33.317037 8.14611111"></polygon>
                    <rect id="Rectangle" fill="#E2E8F1" x="1.1316051e-14" y="30.2512963" width="33.317037" height="12.5177778"></rect>
                    <polygon id="Path" fill="#6365CC" points="2.2632102e-14 30.2512963 10.535 20.1542593 20.0905556 30.2512963"></polygon>
                    <polygon id="Path" fill="#6365CC" points="13.537037 30.2512963 26.0468519 14.4368519 33.317037 23.6181481 33.317037 30.2512963"></polygon>
                    <path d="M10.9092593,13.4972222 C10.9092593,15.5598012 9.23720862,17.2318519 7.17462963,17.2318519 C5.11205064,17.2318519 3.44,15.5598012 3.44,13.4972222 C3.44,11.4346432 5.11205064,9.76259259 7.17462963,9.76259259 C9.23720862,9.76259259 10.9092593,11.4346432 10.9092593,13.4972222 Z" id="Path" fill="#FFFFFF"></path>
                    <polygon id="Path" fill="#EBEBEB" points="24.732963 -1.1316051e-14 33.317037 8.14611111 24.732963 8.14611111"></polygon>
                    <path d="M7.74,37.8957407 C7.85855379,37.8586366 7.98521772,37.9219685 8.02666667,38.0390741 C8.28926016,38.8924641 9.1378601,39.4242778 10.0203547,39.2885094 C10.9028494,39.152741 11.5523561,38.3904493 11.5462963,37.4975926 L11.5462963,33.3011111 C11.5462963,33.1735742 11.6496854,33.0701852 11.7772222,33.0701852 C11.9047591,33.0701852 12.0081481,33.1735742 12.0081481,33.3011111 L12.0081481,37.4975926 C12.0033824,38.6118315 11.19042,39.5577916 10.0895663,39.7300474 C8.98871257,39.9023033 7.92564568,39.2498946 7.58074074,38.1903704 C7.54889657,38.0656595 7.61821988,37.9374114 7.74,37.8957407 L7.74,37.8957407 Z" id="Path" fill="#A6A6A6"></path>
                    <path d="M13.8157407,33.3011111 C13.8198682,33.1753236 13.9208791,33.0743127 14.0466667,33.0701852 L15.9338889,33.0701852 C16.939399,33.1351922 17.7217026,33.9697055 17.7217026,34.9773148 C17.7217026,35.9849241 16.939399,36.8194374 15.9338889,36.8844444 L14.2855556,36.8844444 L14.2855556,39.5122222 C14.2812594,39.6410371 14.1755532,39.7432198 14.0466667,39.7431482 C13.9191298,39.7431482 13.8157407,39.6397591 13.8157407,39.5122222 L13.8157407,33.3011111 Z M15.9338889,36.4385185 C16.7306546,36.4255372 17.3709601,35.7781566 17.3751852,34.9812963 C17.3708333,34.1870999 16.7280853,33.5443519 15.9338889,33.54 L14.2855556,33.54 L14.2855556,36.4385185 L15.9338889,36.4385185 Z" id="Shape" fill="#A6A6A6"></path>
                    <path d="M22.5112963,36.7490741 C22.4486832,36.7512344 22.3878795,36.7278619 22.3428347,36.6843185 C22.2977898,36.6407752 22.2723701,36.5807985 22.2724074,36.5181481 C22.2724074,36.3862135 22.3793616,36.2792593 22.5112963,36.2792593 L24.5975926,36.2792593 C24.7183811,36.2949408 24.8096772,36.3963809 24.8125926,36.5181481 L24.8125926,38.8512963 C24.8015316,38.917124 24.7710256,38.978136 24.725,39.0264815 C24.1077061,39.5048738 23.3479961,39.7627827 22.567037,39.7591135 C20.6935644,39.7591135 19.1748148,38.2403245 19.1748148,36.3668519 C19.1748148,34.4933793 20.6935644,32.9746296 22.567037,32.9746296 C23.3536621,32.9753261 24.116953,33.2419167 24.732963,33.7311111 C24.8152041,33.8244008 24.8152041,33.9643029 24.732963,34.0575926 C24.6473931,34.1531505 24.5041308,34.1702055 24.3985185,34.0974074 C23.8716413,33.6707596 23.2131292,33.439999 22.5351852,33.4444444 C20.9211841,33.4444444 19.6127778,34.7528508 19.6127778,36.3668519 C19.6127778,37.9808529 20.9211841,39.2892593 22.5351852,39.2892593 C23.1702543,39.2899423 23.7891803,39.0892096 24.302963,38.7159259 L24.302963,36.7490741 L22.5112963,36.7490741 Z" id="Path" fill="#A6A6A6"></path>
                </g>
                <g id="freepik--color-palette--inject-1053" transform="translate(180.901389, 121.702515) rotate(78.000000) translate(-180.901389, -121.702515) translate(167.901389, 95.202515)" fill-rule="nonzero">
                    <rect id="Rectangle" fill="#407BFF" x="14.6422798" y="0.112590674" width="10.9405181" height="44.8962176"></rect>
                    <rect id="Rectangle" fill="#FFFFFF" opacity="0.7" x="14.6422798" y="0.112590674" width="10.9405181" height="44.8962176"></rect>
                    <rect id="Rectangle" fill="#263238" opacity="0.3" x="15.4606218" y="2.25181347" width="9.30658031" height="4.27569948"></rect>
                    <rect id="Rectangle" fill="#263238" opacity="0.416667" x="15.4606218" y="7.42274611" width="9.30658031" height="4.27569948"></rect>
                    <rect id="Rectangle" fill="#263238" opacity="0.533333" x="15.4606218" y="12.5936788" width="9.30658031" height="4.27569948"></rect>
                    <rect id="Rectangle" fill="#263238" opacity="0.65" x="15.4606218" y="17.7673575" width="9.30658031" height="4.27569948"></rect>
                    <rect id="Rectangle" fill="#263238" opacity="0.766667" x="15.4606218" y="22.9382902" width="9.30658031" height="4.27569948"></rect>
                    <rect id="Rectangle" fill="#263238" opacity="0.883333" x="15.4606218" y="28.1092228" width="9.30658031" height="4.27569948"></rect>
                    <rect id="Rectangle" fill="#263238" x="15.4606218" y="33.2829016" width="9.30658031" height="4.27569948"></rect>
                    <polygon id="Rectangle" fill="#407BFF" transform="translate(16.339263, 25.837560) rotate(-9.900000) translate(-16.339263, -25.837560) " points="10.8690039 3.3894511 21.8095221 3.3894511 21.8095221 48.2856687 10.8690039 48.2856687"></polygon>
                    <polygon id="Rectangle" fill="#FFFFFF" opacity="0.8" transform="translate(16.339263, 25.837560) rotate(-9.900000) translate(-16.339263, -25.837560) " points="10.8690039 3.3894511 21.8095221 3.3894511 21.8095221 48.2856687 10.8690039 48.2856687"></polygon>
                    <polygon id="Rectangle" fill="#407BFF" transform="translate(13.215922, 7.934659) rotate(-9.900000) translate(-13.215922, -7.934659) " points="8.5626316 5.79680901 17.8692119 5.79680901 17.8692119 10.0725085 8.5626316 10.0725085"></polygon>
                    <polygon id="Rectangle" fill="#407BFF" transform="translate(14.106420, 13.030507) rotate(-9.900000) translate(-14.106420, -13.030507) " points="9.45313 10.8926571 18.7597103 10.8926571 18.7597103 15.1683566 9.45313 15.1683566"></polygon>
                    <polygon id="Rectangle" fill="#407BFF" transform="translate(14.996446, 18.126396) rotate(-9.900000) translate(-14.996446, -18.126396) " points="10.3431563 15.988546 19.6497366 15.988546 19.6497366 20.2642455 10.3431563 20.2642455"></polygon>
                    <polygon id="Rectangle" fill="#407BFF" transform="translate(15.883767, 23.220011) rotate(-9.900000) translate(-15.883767, -23.220011) " points="11.2304773 21.082161 20.5370576 21.082161 20.5370576 25.3578605 11.2304773 25.3578605"></polygon>
                    <polygon id="Rectangle" fill="#407BFF" transform="translate(16.774266, 28.315859) rotate(-9.900000) translate(-16.774266, -28.315859) " points="12.1209757 26.1780091 21.427556 26.1780091 21.427556 30.4537086 12.1209757 30.4537086"></polygon>
                    <polygon id="Rectangle" fill="#407BFF" transform="translate(17.714275, 33.814659) rotate(-9.743641) translate(-17.714275, -33.814659) " points="13.0400921 31.6672106 22.3884582 31.6672106 22.3884582 35.9621076 13.0400921 35.9621076"></polygon>
                    <polygon id="Rectangle" fill="#407BFF" transform="translate(18.551613, 38.502617) rotate(-9.900000) translate(-18.551613, -38.502617) " points="13.898323 36.3647669 23.2049033 36.3647669 23.2049033 40.6404664 13.898323 40.6404664"></polygon>
                    <polygon id="Rectangle" fill="#000000" opacity="0.05" transform="translate(13.215922, 7.934659) rotate(-9.900000) translate(-13.215922, -7.934659) " points="8.5626316 5.79680901 17.8692119 5.79680901 17.8692119 10.0725085 8.5626316 10.0725085"></polygon>
                    <polygon id="Rectangle" fill="#000000" opacity="0.1" transform="translate(14.106420, 13.030507) rotate(-9.900000) translate(-14.106420, -13.030507) " points="9.45313 10.8926571 18.7597103 10.8926571 18.7597103 15.1683566 9.45313 15.1683566"></polygon>
                    <polygon id="Rectangle" fill="#000000" opacity="0.2" transform="translate(14.996446, 18.126396) rotate(-9.900000) translate(-14.996446, -18.126396) " points="10.3431563 15.988546 19.6497366 15.988546 19.6497366 20.2642455 10.3431563 20.2642455"></polygon>
                    <polygon id="Rectangle" fill="#000000" opacity="0.3" transform="translate(15.883767, 23.220011) rotate(-9.900000) translate(-15.883767, -23.220011) " points="11.2304773 21.082161 20.5370576 21.082161 20.5370576 25.3578605 11.2304773 25.3578605"></polygon>
                    <polygon id="Rectangle" fill="#000000" opacity="0.4" transform="translate(16.774266, 28.315859) rotate(-9.900000) translate(-16.774266, -28.315859) " points="12.1209757 26.1780091 21.427556 26.1780091 21.427556 30.4537086 12.1209757 30.4537086"></polygon>
                    <polygon id="Rectangle" fill="#000000" opacity="0.5" transform="translate(17.714275, 33.814659) rotate(-9.743641) translate(-17.714275, -33.814659) " points="13.0400921 31.6672106 22.3884582 31.6672106 22.3884582 35.9621076 13.0400921 35.9621076"></polygon>
                    <polygon id="Rectangle" fill="#000000" opacity="0.6" transform="translate(18.551613, 38.502617) rotate(-9.900000) translate(-18.551613, -38.502617) " points="13.898323 36.3647669 23.2049033 36.3647669 23.2049033 40.6404664 13.898323 40.6404664"></polygon>
                    <polygon id="Rectangle" fill="#407BFF" transform="translate(12.802697, 29.772075) rotate(-19.900000) translate(-12.802697, -29.772075) " points="7.33243802 7.32396658 18.2729562 7.32396658 18.2729562 52.2201842 7.33243802 52.2201842"></polygon>
                    <polygon id="Rectangle" fill="#FFFFFF" opacity="0.9" transform="translate(12.802697, 29.772075) rotate(-19.900000) translate(-12.802697, -29.772075) " points="7.33243802 7.32396658 18.2729562 7.32396658 18.2729562 52.2201842 7.33243802 52.2201842"></polygon>
                    <polygon id="Rectangle" fill="#FF725E" transform="translate(6.617788, 12.682875) rotate(-19.900000) translate(-6.617788, -12.682875) " points="1.96449735 10.5450252 11.2710777 10.5450252 11.2710777 14.8207247 1.96449735 14.8207247"></polygon>
                    <polygon id="Rectangle" fill="#FF725E" transform="translate(8.379521, 17.546427) rotate(-19.900000) translate(-8.379521, -17.546427) " points="3.72623073 15.408577 13.032811 15.408577 13.032811 19.6842765 3.72623073 19.6842765"></polygon>
                    <polygon id="Rectangle" fill="#FF725E" transform="translate(10.135926, 22.410913) rotate(-19.900000) translate(-10.135926, -22.410913) " points="5.48263586 20.2730636 14.7892162 20.2730636 14.7892162 24.5487631 5.48263586 24.5487631"></polygon>
                    <polygon id="Rectangle" fill="#FF725E" transform="translate(11.897659, 27.274465) rotate(-19.900000) translate(-11.897659, -27.274465) " points="7.24436924 25.1366154 16.5509496 25.1366154 16.5509496 29.4123149 7.24436924 29.4123149"></polygon>
                    <polygon id="Rectangle" fill="#FF725E" transform="translate(13.659393, 32.135271) rotate(-19.900000) translate(-13.659393, -32.135271) " points="9.00610262 29.9974211 18.3126829 29.9974211 18.3126829 34.2731206 9.00610262 34.2731206"></polygon>
                    <polygon id="Rectangle" fill="#FF725E" transform="translate(15.418380, 36.998823) rotate(-19.900000) translate(-15.418380, -36.998823) " points="10.7650899 34.8609729 20.0716702 34.8609729 20.0716702 39.1366724 10.7650899 39.1366724"></polygon>
                    <polygon id="Rectangle" fill="#FF725E" transform="translate(17.180113, 41.862374) rotate(-19.900000) translate(-17.180113, -41.862374) " points="12.5268233 39.7245247 21.8334036 39.7245247 21.8334036 44.0002242 12.5268233 44.0002242"></polygon>
                    <polygon id="Rectangle" fill="#FFFFFF" opacity="0.6" transform="translate(6.617788, 12.682875) rotate(-19.900000) translate(-6.617788, -12.682875) " points="1.96449735 10.5450252 11.2710777 10.5450252 11.2710777 14.8207247 1.96449735 14.8207247"></polygon>
                    <polygon id="Rectangle" fill="#FFFFFF" opacity="0.5" transform="translate(8.379521, 17.546427) rotate(-19.900000) translate(-8.379521, -17.546427) " points="3.72623073 15.408577 13.032811 15.408577 13.032811 19.6842765 3.72623073 19.6842765"></polygon>
                    <polygon id="Rectangle" fill="#FFFFFF" opacity="0.4" transform="translate(10.135926, 22.410913) rotate(-19.900000) translate(-10.135926, -22.410913) " points="5.48263586 20.2730636 14.7892162 20.2730636 14.7892162 24.5487631 5.48263586 24.5487631"></polygon>
                    <polygon id="Rectangle" fill="#FFFFFF" opacity="0.3" transform="translate(11.897659, 27.274465) rotate(-19.900000) translate(-11.897659, -27.274465) " points="7.24436924 25.1366154 16.5509496 25.1366154 16.5509496 29.4123149 7.24436924 29.4123149"></polygon>
                    <polygon id="Rectangle" fill="#FFFFFF" opacity="0.2" transform="translate(13.659393, 32.135271) rotate(-19.900000) translate(-13.659393, -32.135271) " points="9.00610262 29.9974211 18.3126829 29.9974211 18.3126829 34.2731206 9.00610262 34.2731206"></polygon>
                </g>
                <g id="Group-16" transform="translate(17.901389, 4.702515)">
                    <path d="M2.77,41.2322085 L9.9834375,41.2322085 C10.9609815,41.2322085 11.7534375,42.0246645 11.7534375,43.0022085 L11.7534375,45.1334585 C11.7534375,46.1110025 10.9609815,46.9034585 9.9834375,46.9034585 L2.77,46.9034585 C1.79245599,46.9034585 1,46.1110025 1,45.1334585 L1,43.0022085 C1,42.0246645 1.79245599,41.2322085 2.77,41.2322085 Z" id="Rectangle" fill="#263238" fill-rule="nonzero" transform="translate(6.376719, 44.067833) rotate(45.000000) translate(-6.376719, -44.067833) "></path>
                    <path d="M22.3578753,28.0909746 L9.25225033,41.1965996 L7.04225033,38.9825371 C8.95568783,37.0690996 7.85475033,32.6044121 7.85475033,32.6044121 L11.4906878,28.9684746 C17.3731878,28.1559746 29.7719378,19.3525371 29.7719378,19.3525371 L30.1781878,19.7587871 L22.3903753,27.5100371 C22.3077753,27.582 22.2577401,27.6842725 22.2516209,27.7936524 C22.2455018,27.9030324 22.2838174,28.0102476 22.3578753,28.0909746 Z" id="Path" fill="#CC5443" fill-rule="nonzero"></path>
                    <path d="M21.4763128,38.9662871 L17.8403753,42.6225371 C17.8403753,42.6225371 13.3716253,41.5094121 11.4622503,43.4350371 L9.25225033,41.2250371 L22.3578753,28.1194121 C22.4401788,28.192018 22.5483576,28.2282342 22.6577863,28.2198166 C22.7672149,28.2113991 22.868582,28.1590639 22.9388128,28.0747246 L30.7063128,20.3072246 L31.1125628,20.7134746 C31.1125628,20.7134746 22.3010003,33.0878496 21.4763128,38.9662871 Z" id="Path" fill="#FF725E" fill-rule="nonzero"></path>
                    <path d="M23.5066104,12.3057578 C26.7010625,13.1488258 29.5802181,14.7363338 31.950668,16.8748729 L32.4452453,16.3808304 L33.9390084,17.8745935 L33.4444478,18.3700386 C35.5765933,20.7378128 37.1595009,23.6119059 38.0009046,26.800052 C39.8715359,33.8880241 37.7884263,41.4344403 32.5466253,46.5590996 L32.3110003,46.3234746 C37.4714534,41.2835877 39.5238502,33.8584641 37.6843926,26.8837146 C36.8584456,23.7519365 35.3051129,20.9281291 33.2127189,18.6006167 L32.4452453,19.3683566 L30.9514822,17.8745935 L31.7191202,17.1057076 C29.3891113,15.0073714 26.5605923,13.449764 23.4229478,12.6222698 C16.4481983,10.7828122 9.02307467,12.835209 3.98318783,17.9956621 L3.74756283,17.7600371 C8.87222211,12.5182361 16.4186383,10.4351265 23.5066104,12.3057578 Z" id="Combined-Shape" fill="#4E50C0" fill-rule="nonzero"></path>
                    <path d="M32.4450628,19.6409746 L30.6819378,17.8778496 L32.4450628,16.1147246 L34.2122503,17.8778496 L32.4450628,19.6409746 Z M31.2263128,17.8778496 L32.4450628,19.0965996 L33.6638128,17.8778496 L32.4450628,16.6590996 L31.2263128,17.8778496 Z" id="Shape" fill="#4E50C0" fill-rule="nonzero"></path>
                    <polygon id="Rectangle" fill="#FFFFFF" fill-rule="nonzero" transform="translate(3.879095, 17.875943) rotate(45.000000) translate(-3.879095, -17.875943) " points="2.82284497 16.8196932 4.93534497 16.8196932 4.93534497 18.9321932 2.82284497 18.9321932"></polygon>
                    <path d="M3.88162533,19.6409746 L2.11850033,17.8778496 L3.88162533,16.1147246 L5.64475033,17.8778496 L3.88162533,19.6409746 Z M2.66287533,17.8778496 L3.88162533,19.0965996 L5.10037533,17.8778496 L3.88162533,16.6590996 L2.66287533,17.8778496 Z" id="Shape" fill="#4E50C0" fill-rule="nonzero"></path>
                    <polygon id="Rectangle" fill="#FFFFFF" fill-rule="nonzero" transform="translate(32.510405, 46.501358) rotate(45.000000) translate(-32.510405, -46.501358) " points="31.4541551 45.4451076 33.5666551 45.4451076 33.5666551 47.5576076 31.4541551 47.5576076"></polygon>
                    <path d="M32.5100628,48.2653496 L30.7469378,46.5022246 L32.5100628,44.7390996 L34.2731878,46.5022246 L32.5100628,48.2653496 Z M31.2913128,46.5022246 L32.5100628,47.7209746 L33.7288128,46.5022246 L32.5100628,45.2834746 L31.2913128,46.5022246 Z" id="Shape" fill="#4E50C0" fill-rule="nonzero"></path>
                    <path d="M51.3560003,36.7847246 C50.9433287,37.1967131 50.2748663,37.1963439 49.86265,36.7838998 C49.4504337,36.3714558 49.4504337,35.7029934 49.86265,35.2905493 C50.2748663,34.8781053 50.9433287,34.8777361 51.3560003,35.2897246 C51.7670816,35.7032814 51.7670816,36.3711677 51.3560003,36.7847246 L51.3560003,36.7847246 Z" id="Path" fill="#FFFFFF" fill-rule="nonzero"></path>
                    <line x1="15.3858337" y1="0.833662145" x2="50.2012122" y2="34.5" id="Line-3" stroke="#4E50C0" stroke-width="0.5" stroke-linecap="square"></line>
                </g>
                <path d="M32.3422889,5.98876528 C31.7472696,5.98907936 31.2348923,5.5690221 31.1185216,4.98549324 C31.0021509,4.40196439 31.3141998,3.81749527 31.8638224,3.5895412 C32.413445,3.36158712 33.0475539,3.55364055 33.3783347,4.04824357 C33.7091155,4.54284659 33.6444351,5.20223655 33.2238514,5.62313732 C32.9906042,5.8578323 32.6731748,5.98948506 32.3422889,5.98876528 L32.3422889,5.98876528 Z M32.3422889,3.87626232 C31.92956,3.87775842 31.5753377,4.1705369 31.4961777,4.57560612 C31.4170176,4.98067534 31.6349573,5.38526772 32.0167581,5.54203361 C32.3985588,5.6987995 32.8379309,5.5640967 33.0662619,5.22027647 C33.2945929,4.87645624 33.2483175,4.41923499 32.9557264,4.12813732 C32.7923087,3.96680268 32.5719283,3.87631537 32.3422889,3.87626232 Z" id="Shape" fill="#4E50C0" fill-rule="nonzero"></path>
                <path d="M68.8645964,41.1620167 C68.2695771,41.1623308 67.7571998,40.7422735 67.6408291,40.1587447 C67.5244584,39.5752158 67.8365073,38.9907467 68.3861299,38.7627926 C68.9357525,38.5348385 69.5698614,38.726892 69.9006422,39.221495 C70.2314229,39.716098 70.1667426,40.375488 69.7461589,40.7963887 C69.5129117,41.0310837 69.1954823,41.1627365 68.8645964,41.1620167 L68.8645964,41.1620167 Z M68.8645964,39.0495137 C68.4518675,39.0510098 68.0976452,39.3437883 68.0184852,39.7488575 C67.9393251,40.1539268 68.1572648,40.5585191 68.5390656,40.715285 C68.9208663,40.8720509 69.3602384,40.7373481 69.5885694,40.3935279 C69.8169004,40.0497077 69.770625,39.5924864 69.4780339,39.3013887 C69.3146162,39.1400541 69.0942358,39.0495668 68.8645964,39.0495137 Z" id="Shape-Copy" fill="#4E50C0" fill-rule="nonzero"></path>
            </g>
        </g>
    </g>
</svg>