<?xml version="1.0" encoding="UTF-8"?>
<svg width="197px" height="118px" viewBox="0 0 197 118" version="1.1" xmlns="http://www.w3.org/2000/svg" xmlns:xlink="http://www.w3.org/1999/xlink">
    <title>Group 17</title>
    <defs>
        <rect id="path-1" x="44.6062438" y="74.6212291" width="32.6338702" height="19.5244452" rx="9.76222258"></rect>
        <filter x="-3.1%" y="-5.1%" width="112.3%" height="115.4%" filterUnits="objectBoundingBox" id="filter-2">
            <feOffset dx="2" dy="1" in="SourceAlpha" result="shadowOffsetOuter1"></feOffset>
            <feColorMatrix values="0 0 0 0 0.231372549   0 0 0 0 0.160784314   0 0 0 0 0.768627451  0 0 0 1 0" type="matrix" in="shadowOffsetOuter1"></feColorMatrix>
        </filter>
    </defs>
    <g id="Page-1" stroke="none" stroke-width="1" fill="none" fill-rule="evenodd">
        <g id="Index_Customer" transform="translate(-854.000000, -3176.000000)" fill-rule="nonzero">
            <g id="Group-17" transform="translate(854.000000, 3176.000000)">
                <path d="M111.792423,10.6188421 C112.519279,15.6000233 110.218324,20.5350247 105.964006,23.1194074 C101.709688,25.7037901 96.3412943,25.4277107 92.365639,22.4200866 C88.3899837,19.4124626 86.591379,14.2666338 87.8096979,9.38548672 C89.0280167,4.50433963 93.0229109,0.850820189 97.9289322,0.130968839 C101.136415,-0.345991287 104.399034,0.491049454 106.998976,2.45793276 C109.598919,4.42481607 111.323187,7.36040674 111.792423,10.6188421 L111.792423,10.6188421 Z" id="Path" fill="#F5F5F5"></path>
                <path d="M108.911849,11.0453469 C109.462703,14.8398317 107.708038,18.5975336 104.466802,20.5646363 C101.225565,22.5317391 97.1367898,22.3204151 94.1088115,20.0292946 C91.0808333,17.7381741 89.710639,13.8189672 90.6377336,10.1008686 C91.5648282,6.38277002 94.6064287,3.59882826 98.3429418,3.04838062 C103.433615,2.29844369 108.161359,5.87569219 108.911849,11.0453469 Z" id="Path" fill="#EBEBEB"></path>
                <path d="M108.868116,10.7521248 C108.81272,10.7521248 108.713591,10.3552384 108.462853,9.65920611 C108.11179,8.68205745 107.614157,7.76590578 106.987579,6.9431994 C106.557987,6.38304642 106.069129,5.87252335 105.529799,5.42081396 C104.906052,4.90756042 104.220177,4.47755871 103.488906,4.14129935 C103.095236,3.95828258 102.688883,3.80484265 102.273118,3.68221425 C101.390655,3.42181213 100.474601,3.29799912 99.5558151,3.31494617 C98.5936785,3.33382923 97.6403941,3.50572555 96.7306368,3.82438254 C96.2897315,3.98018741 95.860919,4.16928565 95.4477901,4.39009386 C95.0488247,4.60253141 94.6667085,4.84613518 94.3048904,5.11870635 C93.9552139,5.37784781 93.6257489,5.66402163 93.3194309,5.97467793 C92.2431518,7.04462219 91.4421831,8.36685612 90.9869824,9.82506911 C90.6768004,10.816351 90.519443,11.8504142 90.5204927,12.8905729 C90.5204927,13.6339945 90.5671416,14.0486521 90.5204927,14.0575376 C90.4738437,14.0664231 90.3397279,13.6665748 90.2522611,12.9083439 C90.140235,11.8263348 90.2272369,10.7325974 90.5088304,9.68290082 C90.6988077,8.95932792 90.9708023,8.26059641 91.3193563,7.60072774 C91.7334711,6.84229821 92.2474573,6.14477672 92.84711,5.52744018 C93.1703218,5.18812254 93.5193232,4.87517568 93.8908807,4.59149894 C94.2761941,4.29103286 94.6847239,4.02261066 95.1125007,3.78884047 C95.5551814,3.54460158 96.0163298,3.33661359 96.4915608,3.1668542 C96.9817806,2.99649609 97.4836286,2.86285555 97.9930746,2.76700588 C98.5047534,2.67835247 99.022262,2.62884936 99.5412373,2.61891391 C100.044585,2.61045785 100.547763,2.64413926 101.045667,2.71961645 C101.525963,2.78867021 101.999873,2.89763646 102.462629,3.04541878 C102.907295,3.17274238 103.341167,3.33616981 103.760053,3.53412228 C105.213091,4.23500845 106.464136,5.3039544 107.392842,6.63812994 C108.009215,7.52587629 108.458037,8.52212989 108.716507,9.5762746 C108.903102,10.3196963 108.908934,10.7462012 108.868116,10.7521248 Z" id="Path" fill="#E0E0E0"></path>
                <path d="M101.526734,17.8457301 L101.783303,19.4777036 L100.348848,19.7087271 L100.101025,18.124143 C98.6694846,18.2663113 97.2350288,18.0382497 96.3486984,17.5317752 L96.8589215,15.6273124 C97.7716489,16.0827345 98.7860005,16.2869867 99.8007222,16.2196803 L99.4158682,13.790972 C97.7656608,13.6576893 95.9026176,13.4059329 95.5760748,11.3267217 C95.3340833,9.78360336 96.2262448,8.27898896 98.447902,7.65107901 L98.1942482,6.03391471 L99.6257885,5.7999294 L99.8765267,7.38747531 C100.910106,7.27871988 101.954335,7.42083711 102.923288,7.80213282 L102.488869,9.70955738 C101.753106,9.42093195 100.968141,9.28400045 100.179745,9.30674722 L100.57043,11.7828449 C102.217722,11.9013185 104.05161,12.1560367 104.375237,14.2085914 C104.614313,15.7191295 103.730898,17.2059728 101.526734,17.8457301 Z M99.0951565,11.6495622 L98.7686137,9.5762746 C98.036808,9.87245854 97.8035631,10.3463528 97.8793677,10.8261708 C97.9551723,11.3059888 98.4158309,11.5488596 99.0951565,11.6495622 Z M102.109846,14.7535698 C102.031126,14.2441335 101.570467,14.0368047 100.920297,13.9183311 L101.238094,15.9264582 C101.914504,15.6510072 102.168157,15.2215405 102.095268,14.7535698 L102.109846,14.7535698 Z" id="Shape" fill="#E0E0E0"></path>
                <path d="M72.097065,84.211665 L16.5293949,66.6420338 C15.1011876,66.1904886 14.3036564,64.648342 14.7479873,63.1974146 L25.4335171,28.3336034 C25.6450142,27.6339402 26.1224708,27.0488645 26.7600661,26.7080492 C27.3976614,26.3672339 28.1427322,26.2988292 28.8301452,26.5179958 L84.4007309,44.0905888 C85.8273783,44.5420726 86.6236323,46.0829473 86.1792229,47.5322462 L75.4791153,82.404943 C75.0359589,83.8523147 73.5220683,84.6610488 72.097065,84.211665 L72.097065,84.211665 Z" id="Path" fill="#E0E0E0"></path>
                <path d="M75.1671504,51.4122558 C74.4456304,53.7640322 71.9840975,55.0764109 69.6690133,54.3436152 C67.353929,53.6108196 66.0618711,51.1103135 66.7830426,48.7584267 C67.5042141,46.40654 69.9655525,45.093785 72.2807453,45.8262267 C73.3932201,46.1773487 74.3225933,46.9634568 74.8640284,48.0112904 C75.4054635,49.059124 75.514516,50.2826702 75.1671504,51.4122558 L75.1671504,51.4122558 Z" id="Path" fill="#FFFFFF"></path>
                <path d="M75.4791153,56.2933671 C75.2092674,56.2574639 74.9429665,56.1980072 74.6831673,56.1156567 C72.3809253,55.375011 71.0596079,52.9255204 71.6839717,50.5556745 C72.3083356,48.1858286 74.6574246,46.7342923 77.0160571,47.2609013 C79.3746895,47.7875104 80.9081689,50.105903 80.4968289,52.5233105 C80.0854889,54.940718 77.8748987,56.6016438 75.4791153,56.2933671 L75.4791153,56.2933671 Z M76.5666195,47.4374673 C74.3535921,47.1555746 72.30775,48.674679 71.9003564,50.9023197 C71.4929627,53.1299604 72.8651962,55.2941687 75.0302178,55.8385584 C77.1952394,56.3829481 79.4027805,55.1188659 80.0652922,52.9553741 L80.0652922,52.9553741 C80.7548279,50.6990079 79.5154875,48.301583 77.2955096,47.5974067 C77.0525129,47.5231175 76.8038224,47.4696177 76.5520417,47.4374673 L76.5666195,47.4374673 Z" id="Shape" fill="#FFFFFF"></path>
                <polygon id="Path" fill="#FFFFFF" points="23.7512386 53.0738477 22.7074679 56.497734 22.3605161 56.3881459 23.3139045 53.2782146 22.520872 53.0264582 22.6170855 52.7125033"></polygon>
                <path d="M26.2644518,57.2826214 L26.1682383,57.5965764 L23.8037187,56.847231 L23.8824388,56.5984365 L25.7104953,55.6476861 C26.2061406,55.3840824 26.3490031,55.1767536 26.4218921,54.9427683 C26.5443457,54.5458818 26.343172,54.2141558 25.83878,54.0542165 C25.4970592,53.9228734 25.1150704,53.9566645 24.8008404,54.1460335 L24.6200756,53.8498496 C25.0293051,53.6110635 25.5219538,53.5698102 25.9641491,53.7372997 C26.6493058,53.953514 26.9758486,54.4451793 26.800915,55.0168143 C26.6988704,55.3455785 26.5093589,55.6091822 25.9262468,55.9053661 L24.4276486,56.6872917 L26.2644518,57.2826214 Z" id="Path" fill="#FFFFFF"></path>
                <polygon id="Path" fill="#FFFFFF" points="29.9963694 57.8157525 29.3199594 57.6054619 29.0458967 58.4940137 28.698945 58.3814638 28.9730077 57.492912 27.0720621 56.9005441 27.1478667 56.6458259 29.6319244 54.9427683 30.0167784 55.0642037 27.6143564 56.7287574 29.0721367 57.1937662 29.3141283 56.3999933 29.6494177 56.5066195 29.4074262 57.3003924 30.0809207 57.5136449"></polygon>
                <polygon id="Path" fill="#FFFFFF" points="35.1627429 59.4506878 34.4892484 59.2374354 34.2122701 60.1259872 33.8653184 60.0163992 34.1422967 59.1278473 32.2384356 58.5354795 32.3171557 58.2807613 34.7982978 56.5747418 35.1831518 56.6961772 32.7836454 58.3636928 34.2414257 58.8257397 34.4834173 58.0349286 34.8216223 58.1415548 34.5767152 58.9323659 35.2531253 59.1456184"></polygon>
                <path d="M38.1424459,60.2740792 C37.9645967,60.8664471 37.4252179,61.1863257 36.6001143,60.9256838 C36.1519542,60.8007591 35.7679746,60.5060833 35.527188,60.1022925 L35.7808417,59.8771927 C35.9797513,60.2305331 36.3075703,60.4901417 36.6934122,60.5998815 C37.2765244,60.7835155 37.6584628,60.5998815 37.7867475,60.1793003 C37.9150321,59.7587191 37.7342674,59.3796037 36.8770925,59.1071145 L36.1598646,58.8820147 L36.8595992,57.2174609 L38.7051491,57.8098288 L38.6089356,58.1237838 L37.066604,57.6350803 L36.6176076,58.692457 L37.0520262,58.8287016 C38.0666413,59.1367329 38.3290417,59.6698639 38.1424459,60.2740792 Z" id="Path" fill="#FFFFFF"></path>
                <path d="M41.4778472,61.3136848 C41.2825047,61.9564039 40.6614902,62.2022366 40.0200669,62.0037934 C39.1249898,61.7076094 38.8305182,60.9345694 39.1628921,59.853498 C39.5185905,58.6894951 40.3291163,58.2777994 41.2475179,58.5680597 C41.5286114,58.6440359 41.7844034,58.7954458 41.9880703,59.0064119 L41.7635722,59.2463209 C41.600027,59.0676692 41.3896138,58.9402395 41.1571356,58.8790528 C40.431161,58.6480294 39.8159777,58.9767935 39.5331683,59.9068111 C39.5039136,59.9992043 39.479582,60.0931321 39.4602793,60.1881858 C39.7775468,59.8639599 40.2538177,59.7616111 40.6731525,59.927544 C41.3262381,60.1407964 41.658612,60.6887367 41.4778472,61.3136848 Z M41.1338111,61.2100204 C41.2708424,60.7598208 41.0317664,60.368858 40.5127967,60.202995 C39.9938269,60.037132 39.5477461,60.2533463 39.4165459,60.6768893 C39.2999234,61.0560048 39.5010971,61.5091662 40.0812937,61.6928002 C40.2827859,61.7841943 40.5131308,61.7837051 40.7142451,61.6914559 C40.9153593,61.5992067 41.0680486,61.4240017 41.1338111,61.2100204 Z" id="Shape" fill="#FFFFFF"></path>
                <path d="M46.0815175,62.8123755 C45.9036683,63.3840105 45.361374,63.7009273 44.5479326,63.4373236 C44.0982766,63.3123759 43.7124674,63.0178964 43.4691751,62.6139323 L43.7228289,62.3888325 C43.9241252,62.7455353 44.2565277,63.0065173 44.6470616,63.1144831 C45.2039337,63.2921935 45.5946188,63.1144831 45.7229035,62.6998256 C45.8511882,62.2851681 45.6470989,61.9297474 45.023169,61.7313041 L44.7811774,61.6542963 L44.8598976,61.3966163 L46.1602376,60.5080645 L44.4342257,59.963086 L44.5304392,59.6491311 L46.6996163,60.3362778 L46.6208962,60.5850723 L45.2943161,61.5032425 C46.0057129,61.7638844 46.2477044,62.2644352 46.0815175,62.8123755 Z" id="Path" fill="#FFFFFF"></path>
                <path d="M49.4723145,63.8430956 C49.2769719,64.4828529 48.6559575,64.7316474 47.9999564,64.5302424 C47.1048793,64.2340584 46.8104076,63.4610183 47.1427815,62.379947 C47.4984799,61.2159441 48.3090058,60.8072103 49.2274074,61.0974705 C49.5086682,61.1730371 49.7645612,61.3245068 49.9679598,61.5358228 L49.7434616,61.7757317 C49.5801857,61.5961238 49.3697758,61.4676684 49.137025,61.4055018 C48.4081349,61.1774402 47.7958671,61.5032425 47.5130577,62.4332601 C47.4834245,62.530553 47.4590913,62.6294309 47.4401687,62.729444 C47.7558574,62.4046974 48.2311156,62.3011567 48.6501264,62.4658403 C49.3207053,62.6672454 49.6647415,63.2151857 49.4723145,63.8430956 Z M49.1282783,63.7423931 C49.2653097,63.2951553 49.0262337,62.9012307 48.5072639,62.7383295 C47.9882941,62.5754284 47.5422133,62.785719 47.4110131,63.2122238 C47.2943907,63.5883774 47.4926488,64.0415389 48.0757609,64.2281347 C48.2776428,64.3194287 48.5083428,64.3185374 48.7095353,64.2256861 C48.9107278,64.1328348 49.0631543,63.9569115 49.1282783,63.7423931 Z" id="Shape" fill="#FFFFFF"></path>
                <polygon id="Path" fill="#FFFFFF" points="53.3208545 62.4214127 53.2421344 62.6702072 50.8601213 65.4010231 50.484014 65.2795877 52.8164625 62.6139323 51.0846195 62.065992 50.8863614 62.7057493 50.5452408 62.5961612 50.8367969 61.642449"></polygon>
                <polygon id="Path" fill="#FFFFFF" points="58.1315296 63.9437982 58.055725 64.1955545 55.6707964 66.9234086 55.2946891 66.804935 57.6271376 64.1392796 55.8778012 63.5913393 55.6824586 64.2340584 55.3384225 64.1244704 55.6299785 63.1707581"></polygon>
                <path d="M60.6913918,67.4654252 C60.5047959,68.0726023 59.8837815,68.2888165 59.0790868,68.0340983 C58.274392,67.7793802 57.8953692,67.2462491 58.081965,66.639072 C58.1979509,66.2356907 58.5762541,65.9700115 58.9887044,66.0022765 C58.7006256,65.7953119 58.5817968,65.4198885 58.6971483,65.0811445 C58.8662508,64.5243187 59.4406163,64.3258754 60.1549286,64.5509752 C60.869241,64.776075 61.2366016,65.273664 61.0674991,65.8304898 C60.9704412,66.1820176 60.6542614,66.4244316 60.2948756,66.4228577 C60.6525898,66.6318505 60.8178581,67.0663933 60.6913918,67.4654252 Z M60.338609,67.3469516 C60.4668936,66.9263704 60.1899154,66.5502168 59.5922254,66.3606591 C58.9945355,66.1711014 58.5630325,66.325117 58.4260012,66.7456982 C58.2889698,67.1662794 58.5659481,67.5483567 59.163638,67.7349526 C59.761328,67.9215484 60.2074087,67.7734565 60.338609,67.3469516 Z M59.6796923,66.0822462 C60.2044932,66.2481092 60.5893472,66.1059409 60.703054,65.735711 C60.8167609,65.3654811 60.5631071,65.0100603 60.0557996,64.8471592 C59.548492,64.684258 59.1519758,64.8175408 59.0353534,65.1996181 C58.9187309,65.5816953 59.1519758,65.9163832 59.6796923,66.0822462 L59.6796923,66.0822462 Z" id="Shape" fill="#FFFFFF"></path>
                <path d="M64.2075579,67.726067 C63.8518595,68.8900699 63.0413337,69.2988038 62.1229321,69.0085435 C61.8413886,68.9336706 61.5853236,68.7820991 61.3823797,68.5701913 L61.6068778,68.3302823 C61.7691451,68.5105338 61.9800587,68.6382666 62.2133145,68.6975504 C62.9392891,68.9285738 63.5544723,68.6027715 63.8372817,67.6727539 C63.8635218,67.5927843 63.8868463,67.4950436 63.9101707,67.37657 C63.5929032,67.7007959 63.1166324,67.8031448 62.6972975,67.6372119 C62.0296341,67.4269213 61.685598,66.8760191 61.878025,66.251071 C62.070452,65.6261229 62.694382,65.3625192 63.3358053,65.5639243 C64.2454602,65.845299 64.5399318,66.6301865 64.2075579,67.726067 Z M63.9393264,66.8937902 C64.0559488,66.5176366 63.8547751,66.0615133 63.2745785,65.8778793 C63.07299,65.7874757 62.8430627,65.7884567 62.6422288,65.8805773 C62.441395,65.9726979 62.2886187,66.1472595 62.2220611,66.3606591 C62.0821142,66.8108587 62.3211902,67.2047833 62.8430756,67.3676845 C63.3649609,67.5305856 63.8168728,67.3084477 63.9393264,66.8819428 L63.9393264,66.8937902 Z" id="Shape" fill="#FFFFFF"></path>
                <polygon id="Path" fill="#FFFFFF" points="68.1435648 67.1100045 67.093963 70.5368526 66.7470112 70.4272646 67.7003996 67.3143714 66.9044515 67.062615 67.000665 66.74866"></polygon>
                <path d="M70.6567781,71.3187782 L70.5605646,71.6327332 L68.1902138,70.8833878 L68.2660183,70.6345933 L70.0940749,69.6838429 C70.5926357,69.423201 70.7354982,69.2158722 70.8083872,68.9789251 C70.9279252,68.5850005 70.7296671,68.2532745 70.2252751,68.0903733 C69.8839309,67.9585765 69.5021542,67.9912594 69.1873355,68.1792285 L69.0094863,67.8830445 C69.4191613,67.6452352 69.9117927,67.6050689 70.3535597,67.7734565 C71.0358009,67.9896707 71.3623437,68.4783742 71.1874101,69.0500092 C71.0853655,69.3787734 70.895854,69.6423771 70.3127419,69.9385611 L68.8170593,70.7204867 L70.6567781,71.3187782 Z" id="Path" fill="#FFFFFF"></path>
                <path d="M73.8872192,71.6060766 C73.7122856,72.1777116 73.1670758,72.4946284 72.3507188,72.2310247 C71.9027961,72.1040574 71.5185671,71.8099892 71.2748769,71.4076334 L71.5285307,71.1825336 C71.7310692,71.5369175 72.0615419,71.7972055 72.4498478,71.9081842 C73.0096355,72.0858946 73.4003206,71.9081842 73.5286053,71.4935267 C73.6568899,71.0788692 73.4528007,70.7234485 72.8288707,70.5250053 L72.5868792,70.4479974 L72.6655993,70.1903174 L73.9659394,69.3017656 L72.2399275,68.7567871 L72.336141,68.4428322 L74.5053181,69.1270171 L74.4295135,69.3787734 L73.1000179,70.2939818 C73.8114147,70.5575855 74.0534062,71.0581363 73.8872192,71.6060766 Z" id="Path" fill="#FFFFFF"></path>
                <polygon id="Rectangle" fill="#FFFFFF" points="46.4616615 68.4277952 46.9174556 66.9402662 73.9232379 75.4798921 73.4674439 76.967421"></polygon>
                <polygon id="Rectangle" fill="#FFFFFF" points="58.7068728 75.5595704 59.1626668 74.0720414 73.0149267 78.4523299 72.5591327 79.9398588"></polygon>
                <g id="Group" opacity="0.5" transform="translate(22.415912, 40.773329)" fill="#EBEBEB">
                    <path d="M5.7027965,1.68389174 L8.59416597,1.69689744 C11.0844099,1.70809883 13.1003374,3.72414312 13.1113945,6.21438768 C13.1223247,8.67605456 11.13561,10.6804905 8.67394315,10.6914207 C8.6606632,10.6914797 8.64738306,10.6914793 8.63410311,10.6914196 L5.74273364,10.6784139 C3.25248973,10.6672125 1.23656225,8.65116821 1.22550516,6.16092365 C1.21457496,3.69925677 3.20128958,1.69482079 5.66295646,1.68389059 C5.67623641,1.68383162 5.68951655,1.68383201 5.7027965,1.68389174 Z" id="Rectangle" transform="translate(7.168450, 6.187656) rotate(17.290000) translate(-7.168450, -6.187656) "></path>
                </g>
                <path d="M23.3284823,47.0879703 L23.4975848,46.5370682 L29.3287061,48.3822941 C29.7691187,48.5344835 30.2561396,48.4319419 30.6007319,48.1144707 C30.9453241,47.7969995 31.0932257,47.3145901 30.9870287,46.8544893 C30.8808317,46.3943885 30.5372588,46.0290474 30.0896674,45.9002727 L24.2585461,44.0550468 L24.4276486,43.5041446 L30.2587699,45.3493706 C30.9085265,45.5324313 31.408613,46.0603874 31.5636873,46.7270106 C31.7187616,47.3936337 31.5042182,48.0931512 31.0038613,48.55232 C30.5035044,49.0114887 29.7967253,49.1574528 29.1596035,48.9331962 L23.3284823,47.0879703 Z" id="Path" fill="#E0E0E0"></path>
                <polygon id="Rectangle" fill="#E0E0E0" points="30.9380955 48.2413105 31.1086558 47.6926298 35.094373 48.9712558 34.9238127 49.5199366"></polygon>
                <polygon id="Rectangle" fill="#FFFFFF" points="28.7441694 34.214848 57.8879211 43.4305312 57.1097784 45.9700769 27.9660267 36.7543937"></polygon>
                <path d="M37.789663,100.747614 C38.2477799,103.895528 36.793218,107.013635 34.1048013,108.646758 C31.4163846,110.279882 28.0240972,110.106074 25.511073,108.206449 C22.9980487,106.306823 21.8596955,103.055864 22.627267,99.9707507 C23.3948386,96.885637 25.9170189,94.5745554 29.0167411,94.1160559 C31.045773,93.8135512 33.1099905,94.3422991 34.7552503,95.585971 C36.4005101,96.8296429 37.4920284,98.6863541 37.789663,100.747614 L37.789663,100.747614 Z" id="Path" fill="#F5F5F5"></path>
                <path d="M35.9674376,101.017142 C36.3167038,103.41714 35.2075852,105.794382 33.157777,107.039261 C31.1079687,108.284139 28.521644,108.151194 26.6060023,106.702478 C24.6903606,105.253762 23.8231208,102.774929 24.4090778,100.423004 C24.9950349,98.0710789 26.9186522,96.3098062 29.2820571,95.9612818 C32.5017924,95.4848298 35.4931754,97.7470814 35.9674376,101.017142 L35.9674376,101.017142 Z" id="Path" fill="#EBEBEB"></path>
                <path d="M35.938282,100.830546 C35.8293107,100.610225 35.7433199,100.378931 35.6817127,100.140437 C35.4593045,99.5225868 35.1446289,98.9431841 34.7487333,98.4225703 C33.9949942,97.427515 32.9495187,96.7014903 31.7631992,96.3492828 C31.4905552,96.2660945 31.2116778,96.2056696 30.9293489,96.1686106 C30.6394983,96.128822 30.3471349,96.1110018 30.0546807,96.1152974 C29.7508307,96.1244839 29.4479172,96.1541676 29.1479413,96.2041526 C28.8514659,96.2617578 28.5592251,96.339936 28.2732731,96.4381379 C27.9944699,96.5363567 27.7234988,96.6561695 27.4627473,96.7965205 C26.9688208,97.0628812 26.5151789,97.4000344 26.1157582,97.7976222 C25.7532361,98.1583308 25.4386133,98.5655685 25.1798633,99.0090145 C24.9544933,99.3972837 24.7716665,99.8094628 24.6346534,100.238178 C24.4403082,100.864861 24.3419739,101.518175 24.3430974,102.175221 C24.3707966,102.421239 24.3707966,102.669663 24.3430974,102.915681 C24.2383172,102.687098 24.1807655,102.439125 24.1739949,102.187068 C24.1055215,101.502409 24.1608551,100.810801 24.3372663,100.146361 C24.4618653,99.6851925 24.6379416,99.2400021 24.8620672,98.8194568 C25.1248671,98.3369715 25.4504503,97.8926492 25.8300333,97.4984764 C26.0339318,97.2836567 26.2542597,97.0855813 26.48895,96.9061086 C26.7332265,96.7172631 26.9915409,96.5479314 27.2615736,96.399634 C27.542746,96.2465467 27.8351783,96.1158341 28.1362418,96.0086712 C28.4465924,95.9005499 28.7642488,95.8154208 29.0867145,95.753953 C29.4104753,95.6975988 29.7379311,95.6659175 30.0663429,95.6591742 C30.3843657,95.6552949 30.7021895,95.6770835 31.0168157,95.7243347 C31.3211138,95.767566 31.6214385,95.8359145 31.9148083,95.9287016 C32.1955859,96.0161883 32.4694561,96.125099 32.7340809,96.2545039 C33.65318,96.6978026 34.4444101,97.3740873 35.0315427,98.2182034 C35.4233531,98.7791673 35.7099827,99.4087171 35.8770552,100.075277 C35.9512299,100.319526 35.9721235,100.57726 35.938282,100.830546 Z" id="Path" fill="#E0E0E0"></path>
                <path d="M31.2937939,105.317732 L31.4570653,106.348452 L30.550326,106.496544 L30.3928857,105.492481 C29.5844948,105.598704 28.7629986,105.47142 28.0225349,105.125213 L28.3432466,103.919744 C28.9216049,104.20348 29.5625031,104.33002 30.2033743,104.287012 L29.9613827,102.749818 C28.9146965,102.666886 27.7397255,102.509909 27.5327207,101.19189 C27.378196,100.217445 27.9438148,99.2666945 29.349115,98.8668462 L29.1887592,97.8450116 L30.0925829,97.6969197 L30.2529388,98.7009832 C30.9068159,98.6327423 31.5673008,98.7230845 32.1801244,98.9645869 L31.9060617,100.170056 C31.441523,99.9879581 30.9460149,99.9013779 30.4482813,99.9153374 L30.696104,101.48215 C31.7398747,101.556196 32.8973523,101.719098 33.1014415,103.016383 C33.2472196,103.973057 32.6903475,104.91196 31.2937939,105.317732 Z M29.7485468,101.399219 L29.541542,100.090086 C29.0779678,100.279644 28.9292743,100.578789 28.9788388,100.880897 C29.0284033,101.183005 29.3287061,101.334058 29.7485468,101.399219 L29.7485468,101.399219 Z M31.6553234,103.362918 C31.6057589,103.040078 31.3142029,102.909757 30.9031088,102.832749 L31.1042825,104.103378 C31.5416166,103.92863 31.7019724,103.65614 31.6553234,103.362918 L31.6553234,103.362918 Z" id="Shape" fill="#E0E0E0"></path>
                <path d="M90.0569185,88.0205904 L44.929871,39.5293562 C44.4555291,39.0176029 44.4776861,38.2125859 44.9794355,37.7285579 L74.6044472,9.28305251 C74.8460573,9.05086329 75.1685863,8.92571818 75.5010457,8.93466335 C75.8335052,8.94460477 76.1486467,9.08786249 76.377108,9.33340378 L121.50124,57.8275999 C121.975582,58.3393531 121.953425,59.1443702 121.451675,59.6283982 L91.8324949,88.0620562 C91.5922637,88.2970383 91.2696063,88.4248316 90.9362044,88.4173815 C90.6028025,88.4092594 90.2862666,88.2665388 90.0569185,88.0205904 Z" id="Path" fill="#FF725E"></path>
                <g id="Group" opacity="0.3" transform="translate(44.574173, 8.785463)" fill="#000000">
                    <path d="M45.4827459,79.2351269 L0.355698397,30.7438927 C-0.118643473,30.2321394 -0.0964864714,29.4271224 0.405262928,28.9430944 L30.0302745,0.497589015 C30.2718847,0.265399798 30.5944136,0.140254692 30.9268731,0.149199854 C31.2593326,0.15914128 31.5744741,0.302398996 31.8029354,0.547940284 L76.9270673,49.0421364 C77.4014092,49.5538896 77.3792522,50.3589067 76.8775028,50.8429347 L47.2583223,79.2765927 C47.0180911,79.5115748 46.6954337,79.6393681 46.3620318,79.631918 C46.0286299,79.6237959 45.712094,79.4810753 45.4827459,79.2351269 Z" id="Path"></path>
                </g>
                <path d="M121.168866,57.4721791 L76.7007352,9.6888245 C76.385229,9.34842529 75.9493209,9.14960605 75.4892657,9.13626885 C75.0292105,9.12293165 74.5828507,9.29617357 74.2487488,9.61774036 L65.8344408,17.7006 C65.6654245,17.8610179 65.58663,18.0967065 65.6245204,18.32851 C66.4671174,23.1089187 69.8316744,27.3828529 73.8434858,30.2143714 C78.6891476,33.6352958 84.4328021,35.439056 89.8790693,37.7226342 C95.3253366,40.0062123 100.815337,43.0154411 104.089512,48.0061405 C107.177091,52.7184269 107.905981,58.562136 109.477468,64.0000731 C109.904806,65.4774749 110.43883,66.9208444 111.075195,68.3184349 C111.169242,68.5243244 111.354772,68.6719133 111.574083,68.715299 C111.793393,68.7586847 112.019882,68.6926047 112.183108,68.537611 L121.101808,59.9719716 C121.439156,59.6507485 121.636053,59.2058234 121.648649,58.7362857 C121.661244,58.2667481 121.488492,57.8115897 121.168866,57.4721791 Z" id="Path" fill="#FF725E"></path>
                <path d="M76.0447341,23.5946604 C75.6423867,23.9826613 75.1059236,23.8908443 74.5286426,23.2599725 L73.3915739,22.0367329 L75.7240224,19.803506 L76.7969487,20.9586233 C77.3479897,21.5509912 77.3800609,22.0870841 77.027278,22.439543 C76.8157691,22.6524859 76.5020275,22.7217732 76.2225833,22.6172534 C76.3917862,22.9458104 76.3183742,23.3492615 76.0447341,23.5946604 L76.0447341,23.5946604 Z M75.8173204,20.7364854 L75.269195,21.2636928 L75.7706714,21.8175567 C76.0184941,22.0841223 76.2459078,22.1403972 76.4295881,21.9656487 C76.6132684,21.7909002 76.5666195,21.5598767 76.3187968,21.2933112 L75.8173204,20.7364854 Z M75.5869911,22.9904451 C75.7823336,22.8038493 75.7356847,22.5609784 75.4703687,22.2766418 L74.8872565,21.6398464 L74.3041444,22.1907485 L74.8872565,22.8305058 C75.1613192,23.1148424 75.388733,23.1829647 75.5869911,23.0022925 L75.5869911,22.9904451 Z" id="Shape" fill="#FFFFFF"></path>
                <path d="M77.7415904,25.6975663 L76.7182286,24.5987239 L76.0243252,24.8682513 L75.5053554,24.3084637 L78.8116011,23.1237279 L79.3130776,23.6657445 L77.9719197,26.9563481 L77.4354565,26.3817512 L77.7415904,25.6975663 Z M77.989413,25.131855 L78.5317073,23.9026917 L77.2925941,24.3825096 L77.989413,25.131855 Z" id="Shape" fill="#FFFFFF"></path>
                <polygon id="Path" fill="#FFFFFF" points="82.5406032 27.1488676 80.2081547 29.3820945 79.7970606 28.9259712 80.1148568 26.3935986 78.7008098 27.7412355 78.1993334 27.1992189 80.5317819 24.965992 80.9545382 25.4191534 80.6338265 27.9485642 82.0478735 26.5920418"></polygon>
                <polygon id="Path" fill="#FFFFFF" points="82.4502208 29.9122637 81.8292064 29.9122637 81.2460943 30.4779751 80.7271245 29.9300348 83.059573 27.6938461 83.563965 28.2388245 82.4764609 29.281392 84.5377622 29.281392 85.103381 29.8737598 83.1557865 29.8915309 82.8350748 32.1839945 82.2519627 31.5471991"></polygon>
                <polygon id="Path" fill="#FFFFFF" points="65.9568943 32.4446364 65.5662092 32.009246 64.9830971 32.5483008 64.7760923 32.3261628 65.3387955 31.7871081 64.1988112 30.5638684 64.3562515 30.4098528 66.8432247 30.1995622 67.073554 30.4483567 64.6623854 30.664571 65.5370536 31.6064359 66.0297833 31.1295797 66.230957 31.3487558 65.7382273 31.8226501 66.1405746 32.2550787"></polygon>
                <path d="M67.4933948,33.9877547 C67.1347808,34.3283663 66.6187266,34.3313281 66.1289124,33.8070825 C65.8532043,33.5294054 65.6916647,33.1556724 65.6770005,32.7615532 L65.9510632,32.7023164 C65.9547896,33.0442505 66.0909613,33.3709294 66.3300861,33.6116011 C66.6653755,33.9729455 67.0123273,34.0114494 67.2776433,33.7567313 C67.5429593,33.5020131 67.5312971,33.1643634 67.1581053,32.7645151 L67.0123273,32.6104994 L67.1755987,32.4535219 L68.4759387,32.3439339 L67.4438302,31.2332441 L67.6391728,31.0466482 L68.9365973,32.4416746 L68.7820726,32.5897665 L67.4496614,32.7052783 C67.8578398,33.1939818 67.8345154,33.6649142 67.4933948,33.9877547 Z" id="Path" fill="#FFFFFF"></path>
                <path d="M69.1406865,35.7382018 C68.7762414,36.0876988 68.2660183,36.102508 67.7616263,35.5723388 C67.4856835,35.2963123 67.3249043,34.9229838 67.31263,34.5297713 L67.5866927,34.4705345 C67.592634,34.8047452 67.7264946,35.1234608 67.9598845,35.3590864 C68.3010051,35.7293163 68.659619,35.7559728 68.9191039,35.5042165 C69.1785888,35.2524601 69.21066,34.9118486 68.6916902,34.352061 L68.2601872,33.890014 L69.4264115,32.9748057 L70.5314089,34.1595414 L70.3360664,34.3461373 L69.4234959,33.3687303 L68.6712813,33.946289 L68.9307662,34.2424729 C69.5401183,34.8703829 69.5167938,35.3620482 69.1406865,35.7382018 Z" id="Path" fill="#FFFFFF"></path>
                <path d="M70.9279252,37.6278553 C70.7404035,37.8057446 70.48783,37.8952241 70.232083,37.874372 C69.9763361,37.8535198 69.7410441,37.7242626 69.5838517,37.5182673 C69.0473886,36.9407086 69.1494332,36.2506 69.8229277,35.6019572 C70.5489023,34.9059249 71.301117,34.9444288 71.8492424,35.5338349 C72.0249596,35.7053452 72.1510124,35.9225243 72.2136874,36.1617448 L71.951287,36.2417145 C71.9075625,36.0431103 71.8059639,35.8624907 71.6597309,35.7233926 C71.2253124,35.255422 70.6509469,35.2376509 70.0707504,35.7944767 C70.0211858,35.8418662 69.9628746,35.9040648 69.9045634,35.9721871 C70.2638337,35.8663848 70.6505761,35.9887959 70.8871073,36.2831802 C71.2894547,36.712647 71.3186103,37.2546636 70.9279252,37.6278553 Z M70.7180048,37.4146029 C71.0095609,37.1450755 70.9833208,36.7629982 70.6713559,36.4283104 C70.5586017,36.2757266 70.3886962,36.1773722 70.2019992,36.1566106 C70.0153022,36.1358489 69.8284748,36.1945328 69.6858964,36.3187223 C69.449736,36.5438221 69.4118337,36.9555178 69.7617009,37.3287095 C69.8708687,37.4785907 70.0380091,37.5737847 70.2208318,37.5902055 C70.4036546,37.6066263 70.5846437,37.5427005 70.7180048,37.4146029 L70.7180048,37.4146029 Z" id="Shape" fill="#FFFFFF"></path>
                <polygon id="Path" fill="#FFFFFF" points="74.6540117 42.9295478 74.8435231 41.7685068 73.6772989 41.892904 73.4469696 41.6441095 74.8726787 41.4960175 75.0796835 40.1335714 75.3129284 40.3823659 75.1379947 41.4752847 76.2225833 41.3597729 76.4470815 41.6026438 75.0971769 41.7388884 74.8785099 43.1813041"></polygon>
                <polygon id="Path" fill="#FFFFFF" points="76.1934277 44.585216 76.3829391 43.4212131 75.2167149 43.5456104 74.98347 43.2968159 76.4091792 43.1516858 76.6190996 41.7892396 76.8494288 42.0350723 76.6774108 43.127991 77.7590838 43.0154411 77.9864975 43.258312 76.6336774 43.3945566 76.4150103 44.8369724"></polygon>
                <polygon id="Path" fill="#FFFFFF" points="77.7328437 46.2379224 77.9223552 45.0768813 76.7561309 45.2012786 76.5258016 44.9524841 77.9485952 44.807354 78.1585156 43.441946 78.3888449 43.6907405 78.2168268 44.7836592 79.3014153 44.6711094 79.5259135 44.9110183 78.1730934 45.047263 77.9544263 46.4896787"></polygon>
                <polygon id="Path" fill="#FFFFFF" points="79.2693442 47.8817432 79.4588556 46.7207022 78.2926314 46.8450995 78.0623021 46.5963049 79.4850957 46.448213 79.695016 45.0857669 79.9253453 45.3345614 79.7533272 46.4274801 80.8379158 46.3119684 81.062414 46.5548392 79.7095938 46.6910838 79.4938423 48.1334996"></polygon>
                <polygon id="Path" fill="#FFFFFF" points="84.5902423 53.6069787 84.7797538 52.4459377 83.6135295 52.570335 83.3832002 52.3215405 84.8059938 52.1764103 85.0159142 50.8110024 85.2462435 51.0597969 85.0742254 52.1527156 86.1588139 52.0372039 86.3833121 52.2800747 85.030492 52.4163193 84.8118249 53.8587351"></polygon>
                <polygon id="Path" fill="#FFFFFF" points="86.1296583 55.262647 86.3191698 54.0986441 85.1529455 54.2230413 84.9226162 53.9772087 86.3454098 53.8291167 86.5553302 52.4666706 86.7856595 52.7154651 86.6136414 53.8083838 87.69823 53.6928721 87.9227281 53.9357429 86.569908 54.0719875 86.3512409 55.5144033"></polygon>
                <polygon id="Path" fill="#FFFFFF" points="87.6690744 56.9183152 87.8615014 55.7543123 86.6952771 55.8787095 86.4649478 55.629915 87.8877414 55.4847849 88.0976618 54.1223388 88.3279911 54.3681715 88.155973 55.4610902 89.2405615 55.3485403 89.4650597 55.5884493 88.1122396 55.7246939 87.8964881 57.1671097"></polygon>
                <polygon id="Path" fill="#FFFFFF" points="89.2114059 58.5710215 89.4009174 57.4099805 88.2346931 57.5343778 88.0043638 57.2855832 89.4271574 57.1404531 89.6370778 55.7750452 89.8703226 56.0238397 89.695389 57.1167584 90.7799776 57.0012467 91.0044757 57.2441175 89.6516556 57.3803621 89.4359041 58.8227779"></polygon>
                <polygon id="Path" fill="#FFFFFF" points="96.1212846 61.6513345 93.9870942 63.7038892 93.7771739 63.4787894 95.7189373 61.6157924 95.2437009 61.106356 95.4390434 60.9167983"></polygon>
                <path d="M96.4157563,65.0604116 C96.0600579,65.403985 95.5410881,65.403985 95.0512739,64.8797394 C94.7755658,64.6020623 94.6140262,64.2283293 94.599362,63.8342101 L94.8734247,63.7749733 C94.8788619,64.1174112 95.0147141,64.4443853 95.2524476,64.6872198 C95.587737,65.0456024 95.9376043,65.0870682 96.2029203,64.83235 C96.4682363,64.5776318 96.4565741,64.2399821 96.0804668,63.8371719 L95.9376043,63.6831563 L96.0979601,63.5291406 L97.3983002,63.4165908 L96.3661917,62.3088628 L96.5615343,62.1193051 L97.8589588,63.5143315 L97.7044341,63.6653853 L96.3749384,63.780897 C96.7831169,64.2755242 96.762708,64.7375711 96.4157563,65.0604116 Z" id="Path" fill="#FFFFFF"></path>
                <polygon id="Path" fill="#FFFFFF" points="98.3720974 67.2729056 97.9668345 66.8375152 97.4070469 67.37657 97.1971265 67.154432 97.7598297 66.6153773 96.6198455 65.3921376 96.7802013 65.238122 99.264259 65.0307932 99.4945883 65.2766259 97.0834196 65.4928402 97.9580878 66.4347051 98.4508176 65.9608108 98.6549068 66.1770251 98.1592615 66.6509194 98.5645244 67.0863097"></polygon>
                <path d="M99.5616462,69.2988038 L99.3663036,69.4853996 L97.9493412,67.9630142 L98.1067814,67.8149222 L99.8153,67.8800827 C100.28179,67.8978537 100.468386,67.8060367 100.614164,67.6668303 C100.861986,67.4269213 100.850324,67.1040808 100.541275,66.7782784 C100.345874,66.541799 100.054975,66.4087621 99.7511576,66.416934 L99.7511576,66.1207501 C100.14382,66.1163768 100.517946,66.2901206 100.771604,66.5946444 C101.179782,67.0359585 101.2206,67.524662 100.861986,67.8682353 C100.657897,68.0637167 100.415905,68.1644193 99.8648645,68.1644193 L98.4624798,68.114068 L99.5616462,69.2988038 Z" id="Path" fill="#FFFFFF"></path>
                <path d="M84.1791483,68.925612 C84.8264027,68.3036257 85.5319684,68.3154731 85.9897114,68.8041766 C86.4474544,69.2928801 86.4182988,70.012607 85.7681288,70.6345933 C85.1179588,71.2565796 84.4182242,71.2476941 83.9575657,70.7560287 C83.4969071,70.2643634 83.5318938,69.5475983 84.1791483,68.925612 Z M85.3453725,70.1695845 C85.7914533,69.7430797 85.8293556,69.40543 85.6136041,69.1744065 C85.3978526,68.943383 85.0683943,68.9641159 84.6223135,69.3935826 C84.1762327,69.8230493 84.1383304,70.1577372 84.3511664,70.3857988 C84.5640023,70.6138604 84.8905451,70.5990512 85.3366258,70.1695845 L85.3453725,70.1695845 Z" id="Shape" fill="#FFFFFF"></path>
                <path d="M87.1413579,72.853011 C86.7419261,73.2380501 86.1792229,73.1491949 85.7856222,72.7256519 C85.2753991,72.1747498 85.295808,71.5053741 85.9284847,70.898197 C86.6078103,70.2465924 87.386265,70.3058291 87.9314748,70.898197 C88.1186844,71.0875856 88.2517095,71.3250984 88.3163288,71.5853437 L87.8235991,71.7334357 C87.7870591,71.5558207 87.6998544,71.3930644 87.5728609,71.2654651 C87.4387386,71.1016381 87.2407433,71.0056648 87.0310101,71.0028164 C86.8212768,70.999968 86.6208267,71.0905299 86.4824412,71.2506559 C86.7273319,71.2704048 86.9546732,71.3874762 87.1151178,71.5764582 C87.2887308,71.7401999 87.3895378,71.9684791 87.3944836,72.2090867 C87.3994294,72.4496944 87.3080909,72.6820495 87.1413579,72.853011 Z M86.7040238,72.4265061 C86.7890224,72.3444387 86.835171,72.2291986 86.830707,72.110159 C86.826243,71.9911194 86.7715977,71.8797801 86.6806993,71.8045199 C86.6096229,71.7098434 86.5030452,71.6493921 86.3864141,71.6376 C86.269783,71.6258079 86.1535673,71.6637335 86.065516,71.7423212 C85.9815125,71.8276133 85.9373035,71.9452519 85.9439841,72.0657139 C85.9506646,72.1861758 86.0076005,72.2980256 86.1005027,72.373193 C86.1701751,72.468645 86.2768107,72.5291445 86.3933529,72.539341 C86.5098951,72.5495374 86.6251431,72.5084509 86.7098549,72.4265061 L86.7040238,72.4265061 Z" id="Shape" fill="#FFFFFF"></path>
                <polygon id="Path" fill="#FFFFFF" points="89.7653625 72.1095893 90.1356387 72.503514 86.616557 74.1029072 86.2491963 73.7060207"></polygon>
                <path d="M89.502962,75.8918582 L89.1326858,76.2472789 L87.72447,74.7397027 L88.0160261,74.4583279 L89.4475663,74.5412594 C89.6443075,74.5802136 89.8479572,74.5293054 90.0044384,74.402053 C90.1589631,74.253961 90.1473009,74.0584796 89.9490428,73.848189 C89.804471,73.6780692 89.5852302,73.5934353 89.3659306,73.6230892 L89.2668016,73.0810726 C89.683654,73.0320096 90.0971042,73.1975702 90.3688835,73.5223867 C90.7828931,73.9696244 90.8324576,74.4790608 90.4767592,74.8226342 C90.2872478,75.0062682 90.0627496,75.1188181 89.5466954,75.083276 L88.6953517,75.0329248 L89.502962,75.8918582 Z" id="Path" fill="#FFFFFF"></path>
                <polygon id="Path" fill="#FFFFFF" points="91.3951608 77.8377867 91.1036048 77.5149462 90.6925107 77.9088708 90.27267 77.4586712 90.6866796 77.0647466 89.6866423 75.9895989 89.9927762 75.693415 92.1123888 75.4386968 92.5643007 75.9214766 90.5700572 76.1821185 91.0686181 76.7182114 91.4359787 76.3657525 91.8412416 76.8011429 91.473881 77.1536018 91.765437 77.4794041"></polygon>
                <path d="M100.605417,53.1686265 C101.71333,51.4389123 101.278911,49.140525 99.7919755,47.7366131 C99.3396531,47.3031609 98.8155561,46.9542329 98.2438128,46.705893 C96.8239347,46.1135251 94.9433981,46.5429918 94.1970146,47.9113616 C93.5876624,49.0279751 93.8325695,50.4230014 94.2611569,51.6225464 C94.7072377,52.8813281 95.4273812,54.1667664 96.6548322,54.6554699 C97.8822833,55.1441734 99.2555123,54.6969356 100.136012,53.7669181 C100.312243,53.5843505 100.469538,53.3838668 100.605417,53.1686265 L100.605417,53.1686265 Z" id="Path" fill="#FF725E"></path>
                <rect id="Rectangle" fill="#4E50C0" x="48.0028719" y="53.8824298" width="84.7291076" height="62.4681542" rx="7"></rect>
                <path d="M68.9016106,111.11109 C68.3216697,111.186712 67.7364805,111.212473 67.1522742,111.188098 C66.5680678,111.212473 65.9828786,111.186712 65.4029378,111.11109 C65.9827288,111.033708 66.5680672,111.007941 67.1522742,111.034082 C67.7364812,111.007941 68.3218195,111.033708 68.9016106,111.11109 Z M53.0672007,109.336948 C53.1084709,109.506379 53.1261365,109.680853 53.1196808,109.85527 C53.1196808,110.038904 53.1196808,110.2255 53.1371742,110.420982 L53.1367132,111.031637 L53.4172291,111.023638 C53.8917638,111.018341 54.3662166,111.047544 54.8369461,111.11109 C54.2570436,111.187166 53.6718164,111.212928 53.0876097,111.188098 C53.0497074,111.149594 53.0280229,111.127565 53.0163151,111.115626 L53.0097132,111.107637 C53.0174768,111.115394 53.0184676,111.116158 53.0180519,111.115452 L53.0118051,111.108128 L53.0118051,109.85527 C53.0034038,109.680614 53.0220974,109.505703 53.0672007,109.336948 Z M61.8692783,111.11109 C61.2893374,111.186712 60.7041483,111.212473 60.1199419,111.188098 C59.5357356,111.212473 58.9505464,111.186712 58.3706055,111.11109 C58.9503966,111.033708 59.5357349,111.007941 60.1199419,111.034082 C60.7041489,111.007941 61.2894872,111.033708 61.8692783,111.11109 Z M130.428687,111.11109 C129.849953,111.213754 129.258084,111.213754 128.67935,111.11109 C129.258084,111.008427 129.849953,111.008427 130.428687,111.11109 Z M104.05161,111.11109 C102.881733,111.213774 101.705319,111.213774 100.535443,111.11109 C101.705319,111.008406 102.881733,111.008406 104.05161,111.11109 Z M111.095604,111.11109 C109.925728,111.213774 108.749314,111.213774 107.579438,111.11109 C108.749314,111.008406 109.925728,111.008406 111.095604,111.11109 Z M118.127936,111.11109 C116.95806,111.213774 115.781646,111.213774 114.61177,111.11109 C115.781646,111.008406 116.95806,111.008406 118.127936,111.11109 Z M75.9339428,111.11109 C74.7640667,111.213774 73.5876527,111.213774 72.4177767,111.11109 C73.5876527,111.008406 74.7640667,111.008406 75.9339428,111.11109 Z M97.0309396,111.11109 C95.8610635,111.213774 94.6846495,111.213774 93.5147734,111.11109 C94.6846495,111.008406 95.8610635,111.008406 97.0309396,111.11109 Z M125.163184,111.11109 C123.993308,111.213774 122.816894,111.213774 121.647018,111.11109 C122.816894,111.008406 123.993308,111.008406 125.163184,111.11109 Z M89.9986073,111.11109 C88.8287312,111.213774 87.6523172,111.213774 86.4824412,111.11109 C87.6523172,111.008406 88.8287312,111.008406 89.9986073,111.11109 Z M82.9662751,111.11109 C81.796399,111.213774 80.619985,111.213774 79.4501089,111.11109 C80.619985,111.008406 81.796399,111.008406 82.9662751,111.11109 Z M53.0876097,102.690581 C53.1886748,103.79494 53.1886748,104.906443 53.0876097,106.010803 C52.9865446,104.906443 52.9865446,103.79494 53.0876097,102.690581 Z M53.0876097,96.0471751 C53.1886748,97.1515347 53.1886748,98.2630375 53.0876097,99.3673971 C52.9865446,98.2630375 52.9865446,97.1515347 53.0876097,96.0471751 Z M53.0876097,89.4037694 C53.1886748,90.508129 53.1886748,91.6196318 53.0876097,92.7239914 C52.9865446,91.6196318 52.9865446,90.508129 53.0876097,89.4037694 Z M53.0876097,82.7662874 C53.1886879,83.8716357 53.1886879,84.9841228 53.0876097,86.0894712 C52.9865314,84.9841228 52.9865314,83.8716357 53.0876097,82.7662874 Z M53.0876097,76.116958 C53.1886879,77.2223063 53.1886879,78.3347934 53.0876097,79.4401418 C52.9865314,78.3347934 52.9865314,77.2223063 53.0876097,76.116958 Z M53.0876097,69.4765141 C53.1886748,70.5808737 53.1886748,71.6923765 53.0876097,72.7967361 C52.9865446,71.6923765 52.9865446,70.5808737 53.0876097,69.4765141 Z M53.0876097,62.8331084 C53.1624739,63.3824931 53.1878473,63.9376703 53.1634142,64.4917384 C53.1879114,65.0467918 53.1625382,65.6029581 53.0876097,66.1533303 C53.0109262,65.6031238 52.9855455,65.0467917 53.0118051,64.4917384 C52.9856251,63.9376703 53.0110059,63.3823287 53.0876097,62.8331084 Z M53.7669353,57.6558132 L54.3238074,57.6735842 C54.4964571,57.6671752 54.6691478,57.6851171 54.8369461,57.7268973 C54.6694736,57.7707372 54.4966315,57.7896925 54.3238074,57.7831723 L53.7669353,57.7979815 L53.1647132,57.7976368 L53.1728673,58.1691429 C53.1728392,58.6173117 53.1443806,59.0651689 53.0876097,59.5099246 C53.0107908,58.9209879 52.9854236,58.3263007 53.0118051,57.732821 L53.0876097,57.6558132 L53.7669353,57.6558132 Z M69.0998687,57.732821 C68.5083955,57.8107421 67.911393,57.8365076 67.3155456,57.8098288 C66.7226081,57.8359951 66.1285538,57.8102306 65.5399691,57.732821 C66.1287019,57.6571783 66.7226087,57.6314202 67.3155456,57.6558132 C67.9113931,57.6309253 68.5082459,57.6566843 69.0998687,57.732821 Z M61.9713229,57.732821 C61.3798498,57.8107421 60.7828473,57.8365076 60.1869998,57.8098288 C59.5911523,57.8365076 58.9941498,57.8107421 58.4026767,57.732821 C58.9942995,57.6566843 59.5911522,57.6309253 60.1869998,57.6558132 C60.7828474,57.6309253 61.3797002,57.6566843 61.9713229,57.732821 Z M76.2429922,57.732821 C75.0555903,57.8354948 73.8617479,57.8354948 72.674346,57.732821 C73.8617479,57.6301472 75.0555903,57.6301472 76.2429922,57.732821 Z M83.3802847,57.732821 C82.1928828,57.8354948 80.9990404,57.8354948 79.8116384,57.732821 C80.9990404,57.6301472 82.1928828,57.6301472 83.3802847,57.732821 Z M90.5146615,57.732821 C89.3282358,57.8355554 88.1353566,57.8355554 86.9489309,57.732821 C88.1353566,57.6300866 89.3282358,57.6300866 90.5146615,57.732821 Z M97.651954,57.732821 C96.4645521,57.8354948 95.2707097,57.8354948 94.0833078,57.732821 C95.2707097,57.6301472 96.4645521,57.6301472 97.651954,57.732821 Z M104.786331,57.732821 C103.599905,57.8355554 102.407026,57.8355554 101.2206,57.732821 C102.407026,57.6300866 103.599905,57.6300866 104.786331,57.732821 Z M111.923623,57.732821 C110.736221,57.8354948 109.542379,57.8354948 108.354977,57.732821 C109.542379,57.6301472 110.736221,57.6301472 111.923623,57.732821 Z M119.058,57.732821 C117.871574,57.8355554 116.678695,57.8355554 115.492269,57.732821 C116.678695,57.6300866 117.871574,57.6300866 119.058,57.732821 Z M126.195293,57.732821 C125.007891,57.8354948 123.814048,57.8354948 122.626646,57.732821 C123.814048,57.6301472 125.007891,57.6301472 126.195293,57.732821 Z M131.513275,57.732821 C130.934542,57.8354843 130.342672,57.8354843 129.763939,57.732821 C130.342672,57.6301577 130.934542,57.6301577 131.513275,57.732821 Z" id="Combined-Shape" fill="#FFFFFF"></path>
                <g id="Rectangle">
                    <use fill="black" fill-opacity="1" filter="url(#filter-2)" xlink:href="#path-1"></use>
                    <use fill="#7E8CCC" xlink:href="#path-1"></use>
                </g>
                <ellipse id="Oval" fill="#363786" cx="67.4088435" cy="85.1179879" rx="6.98568328" ry="7.09656714"></ellipse>
                <path d="M69.1989977,90.9143075 C69.789932,90.6916028 70.3503839,90.3929937 70.8666984,90.0257557 C71.4159691,89.616548 71.8930867,89.1158343 72.2778298,88.544836 C73.2485202,87.1409227 73.5271694,85.3605191 73.03296,83.7199997 C72.8424036,83.0554892 72.5406048,82.4292855 72.1407984,81.8688501 C71.7640102,81.3566127 71.3229414,80.8965943 70.8287961,80.5004803 C70.8287961,80.5004803 70.8725295,80.5182513 70.942503,80.5656407 C71.0503855,80.633876 71.1545282,80.7080319 71.254468,80.7877787 C71.6215946,81.0814812 71.9490134,81.4230598 72.2282652,81.8036896 C72.6473731,82.3676425 72.9651869,83.0023302 73.1670758,83.6785339 C73.6928597,85.359126 73.4052711,87.1933226 72.3915366,88.6248057 C71.9948672,89.2014789 71.501419,89.7027596 70.9337563,90.1057254 C70.5526742,90.3796167 70.1368278,90.5998073 69.6975586,90.7602919 C69.5794933,90.8062871 69.4587556,90.8448638 69.3360291,90.8758036 C69.2932559,90.8975808 69.2467072,90.9106603 69.1989977,90.9143075 Z" id="Path" fill="#FAFAFA"></path>
                <path d="M136.949846,28.5052672 C137.35388,32.922273 135.096595,37.150996 131.23216,39.2165933 C127.367724,41.2821907 122.658607,40.7771113 119.303998,37.9372308 C115.949389,35.0973504 114.611167,30.4829891 115.914291,26.2490856 C117.217415,22.015182 120.904773,18.9971032 125.254343,18.6043126 C131.173651,18.0629358 136.406611,22.4929547 136.949846,28.5052672 L136.949846,28.5052672 Z" id="Path" fill="#FF725E"></path>
                <g id="Group" opacity="0.3" transform="translate(122.281199, 22.972993)" fill="#000000">
                    <path d="M5.09728988,10.8365948 L5.24592023,12.2821342 L3.97403432,12.4182723 L3.8302771,11.0098615 C2.56326432,11.0643167 1.31574404,10.7920405 0.5604095,10.3118442 L1.09645337,8.66086002 C1.8788477,9.10113666 2.7604902,9.32717833 3.65484456,9.31679826 L3.43311733,7.1608654 C1.98823544,6.96037107 0.363047893,6.65096624 0.172995976,4.80196297 C0.0316753195,3.433156 0.891782073,2.15593286 2.87514439,1.7103899 L2.72895061,0.277226728 L4.00083651,0.143563841 L4.14459373,1.54949939 C5.05903476,1.50591094 5.97068383,1.68231469 6.80532058,2.06434903 L6.33506391,3.71285797 C5.70115235,3.42387522 5.01704551,3.26569901 4.32246284,3.2475131 L4.54662664,5.44304978 C5.99150852,5.62869268 7.59233044,5.93809751 7.77750923,7.76482363 C7.91639332,9.11630393 7.06603282,10.3811509 5.09728988,10.8365948 Z M3.24306541,5.26235736 L3.05301349,3.42820552 C2.39757803,3.65345224 2.16854111,4.05691614 2.21239924,4.48265719 C2.25625738,4.90839823 2.6631634,5.14107067 3.24306541,5.26235736 Z M5.74785222,8.14353514 C5.70155752,7.69056647 5.30683431,7.48512166 4.74155168,7.34898354 L4.92429391,9.13115536 C5.54561748,8.92323532 5.78927379,8.5569 5.74785222,8.14353514 L5.74785222,8.14353514 Z" id="Shape"></path>
                </g>
                <path d="M118.022624,30.24536 C118.030785,30.2669081 118.036507,30.2893294 118.03968,30.3121914 C118.03968,30.3641714 118.059172,30.4285276 118.073792,30.5077353 C118.088411,30.5869429 118.10303,30.7032791 118.122523,30.8245658 C118.142242,30.9697682 118.170722,31.1136029 118.207803,31.2552573 C118.557936,32.7980918 119.327939,34.2098703 120.429948,35.3295002 L120.814925,35.6859345 C120.880712,35.742865 120.941626,35.8072212 121.012287,35.8641517 L121.229141,36.0275175 C121.375335,36.136428 121.519092,36.2577146 121.675032,36.3591994 L122.162344,36.6587033 C122.860001,37.0590659 123.610897,37.3550212 124.3918,37.537413 C126.082072,37.9301419 127.851618,37.7645133 129.442795,37.0646424 C130.177992,36.740681 130.86325,36.3104947 131.477325,35.7874193 L131.901287,35.4037573 C132.037734,35.2750449 132.144943,35.1290058 132.278954,34.9953429 C132.339868,34.9285115 132.403219,34.86168 132.461696,34.7948486 C132.520174,34.7280172 132.571342,34.6512848 132.627383,34.5819781 C132.732155,34.4384142 132.836927,34.2998009 132.941699,34.1611875 C133.296826,33.6297837 133.593429,33.0603655 133.826172,32.4631738 C134.162852,31.5938849 134.354715,30.6737172 134.393891,29.7404113 C134.403467,29.5945342 134.403467,29.4481711 134.393891,29.3022941 C134.393891,29.1785321 134.393891,29.0696216 134.393891,28.980513 C134.393891,28.8914044 134.393891,28.8344739 134.393891,28.7824939 C134.391872,28.7594372 134.391872,28.736244 134.393891,28.7131873 C134.396497,28.7353857 134.396497,28.7578202 134.393891,28.7800187 C134.393891,28.8319987 134.393891,28.8988302 134.40851,28.9780378 C134.42313,29.0572454 134.40851,29.1760569 134.425566,29.3022941 C134.4369,29.4489326 134.4369,29.596248 134.425566,29.7428865 C134.405439,30.6839848 134.224898,31.6144186 133.891959,32.4928767 C133.664591,33.1030027 133.368618,33.6844106 133.009923,34.2255437 L132.705353,34.6587105 C132.649312,34.7304924 132.598144,34.8072248 132.539666,34.8765315 L132.354488,35.0819763 C132.230223,35.2181144 132.110831,35.3641535 131.971947,35.4953411 L131.545549,35.8889041 C130.923938,36.4217478 130.229616,36.8602945 129.484216,37.1908796 C127.872946,37.9022517 126.079721,38.0705411 124.367434,37.6710759 C123.574526,37.4843057 122.812759,37.1807664 122.106304,36.770089 L121.618991,36.4656347 C121.460614,36.3616747 121.316857,36.2379127 121.168227,36.1290022 L120.951373,35.960686 C120.880712,35.9037555 120.817362,35.8369241 120.749138,35.7775183 L120.354415,35.4012821 C119.906749,34.9361576 119.511983,34.4213747 119.177555,33.8666341 C118.692695,33.0639655 118.348124,32.1821645 118.159071,31.2602078 C118.124314,31.1178286 118.099882,30.9730513 118.085974,30.8270411 C118.071355,30.7032791 118.059172,30.5943686 118.046989,30.50526 C118.034807,30.4161514 118.03237,30.359221 118.02506,30.3072409 C118.022392,30.2867326 118.021576,30.2660193 118.022624,30.24536 L118.022624,30.24536 Z" id="Path" fill="#263238"></path>
                <path d="M170.350751,84.3189339 C170.350751,74.8472252 160.556246,68.8481298 150.567285,73.5943812 C148.307061,74.6669452 146.458064,76.4667223 145.306704,78.7149263 C142.794112,83.6587215 143.904565,89.3043174 146.181762,93.993385 L153.960052,114.012897 C154.462714,115.318448 155.701644,116.177616 157.081602,116.177616 C158.461561,116.177616 159.700491,115.318448 160.203153,114.012897 L167.822807,93.8894145 C170.463331,87.7551576 170.350751,84.3189339 170.350751,84.3189339 Z M160.986099,92.5845853 C154.272207,96.5510583 147.466203,89.221141 151.145539,81.9847972 C151.630354,81.030528 152.369879,80.234225 153.279451,79.68705 C159.998461,75.7205771 166.804465,83.0504943 163.120012,90.2868382 C162.637264,91.2425933 161.897253,92.0394204 160.986099,92.5845853 L160.986099,92.5845853 Z" id="Shape" fill="#FF725E"></path>
                <g id="freepik--Floor--inject-9" transform="translate(0.000000, 115.142857)" fill="#263238">
                    <path d="M196.885242,0.687142857 C196.885242,0.889107143 152.84291,1.05067857 98.5266884,1.05067857 C44.2104666,1.05067857 0.156335384,0.889107143 0.156335384,0.687142857 C0.156335384,0.485178571 44.1898185,0.337071429 98.5266884,0.337071429 C152.863558,0.337071429 196.885242,0.498642857 196.885242,0.687142857 Z" id="Path"></path>
                </g>
            </g>
        </g>
    </g>
</svg>