<?xml version="1.0" encoding="UTF-8"?>
<svg width="176px" height="152px" viewBox="0 0 176 152" version="1.1" xmlns="http://www.w3.org/2000/svg" xmlns:xlink="http://www.w3.org/1999/xlink">
    <title>Group 31</title>
    <defs>
        <rect id="path-1" x="0.765156068" y="0" width="175.00565" height="152"></rect>
        <polygon id="path-3" points="0.0314741115 0.0569156056 38.6695682 0.0569156056 38.6695682 138.514537 0.0314741115 138.514537"></polygon>
        <path d="M32.5838196,11.3892656 C33.0370917,11.8451131 33.4714834,12.2808338 33.887781,12.6976098 L34.4987552,13.3087132 C34.5983552,13.4082449 34.696849,13.5066296 34.7942487,13.6038857 L35.365617,14.1740263 C36.2963449,15.1021812 37.1201282,15.9211691 37.8492539,16.6494641 L38.4802413,17.2809412 C43.2616437,22.0772874 43.4571695,22.581175 43.4644251,25.404566 L43.4646451,25.9050273 L43.4646451,25.9050273 C43.4646451,30.1480664 44.7967524,48.0136327 44.7967524,58.5093128 C44.7967524,69.0055195 46.112276,74.8220767 44.7967524,75.035203 C43.7953219,75.1973271 42.7274538,75.2007717 41.6070775,75.0787665 C41.4772154,76.888454 41.3759372,78.4728813 41.3759372,78.9632225 C41.3759372,79.1101637 41.2331428,80.4995225 40.9842128,82.8800765 C34.9768994,80.7082598 27.5536875,77.8624796 23.2574625,75.6157 C15.304096,71.4560506 13.0209573,67.0049763 9.24912629,66.8703241 C9.60496006,66.202118 9.92808442,65.6389326 10.1990037,65.1874358 L10.0450041,65.2090976 L10.0450041,65.2090976 L10.0410328,65.202911 L10.0099144,65.1541713 C9.41785657,64.2239933 1.54980231,51.7289296 2.93915173,46.7854354 C4.38245707,41.6489863 2.05061469,38.1875273 1.05175243,28.9196935 C0.731948924,25.954099 0.275737631,21.9251084 0.0869385111,17.816972 L0.0547710014,17.0460092 C-0.26243155,8.560503 0.665275479,-2.62900812e-13 6.38087986,-2.62900812e-13 L6.39897773,0.000485030507 C6.98763579,0.0176862523 21.8118075,0.556048964 32.5838196,11.3892656 Z" id="path-5"></path>
        <path d="M21.6751365,4.18120741 C29.8348392,10.1687572 44.0592872,25.8742692 45.3655588,26.1386582 C48.9153428,26.8568622 59.122172,26.5322571 59.122172,26.5322571 C59.122172,26.5322571 62.0133214,28.327855 62.4170908,38.3690178 C62.6337262,43.7528268 47.7939358,45.9585259 42.9101243,45.5794982 C38.0264873,45.200646 11.0975308,27.7169163 5.89443946,20.8782658 C0.691871824,14.0397908 -3.27564679,2.41492762 5.14834765,0.395318963 C5.14834765,0.395318963 13.5150847,-1.80616683 21.6751365,4.18120741 Z" id="path-7"></path>
    </defs>
    <g id="Page-1" stroke="none" stroke-width="1" fill="none" fill-rule="evenodd">
        <g id="Index_Customer" transform="translate(-854.000000, -3448.000000)">
            <g id="Group-31" transform="translate(854.000000, 3448.000000)">
                <g id="Group-50">
                    <path d="M56.7695055,39.9836786 C56.7695055,39.9836786 53.6273313,51.3501218 54.9519323,58.2323104 C56.4582556,66.0579429 57.9177956,73.1237643 57.9177956,73.1237643 L38.9851487,55.2608313 L44.3537278,32.6878774 L56.7695055,39.9836786 Z" id="Fill-26" fill="#F8BB9F"></path>
                    <mask id="mask-2" fill="white">
                        <use xlink:href="#path-1"></use>
                    </mask>
                    <use id="Rectangle" fill-opacity="0" fill="#D8D8D8" xlink:href="#path-1"></use>
                    <path d="M123.979931,79.4431345 C121.114093,82.0564772 121.351153,82.2553834 120.97479,82.5813929 C120.529823,82.966214 112.747007,84.1299819 112.747007,84.1299819 C112.747007,84.1299819 89.8302578,87.708713 88.5864805,87.8593409 L65.6323744,81.7115075 L59.0563275,92.1057156 C59.0563275,92.1057156 84.2228734,98.1373302 85.5994948,98.2254599 C86.9764654,98.3135895 117.454508,89.9396924 120.160269,89.2874978 C120.160269,89.2874978 123.655414,89.6735478 125.859649,89.8455938 C128.063884,90.017113 130.252932,89.2134127 130.882589,89.1682945 C130.975632,89.1614478 133.067622,88.8893343 135.566523,87.8816367 C137.720135,87.0135069 135.293154,86.8755191 135.293154,86.8755191 C135.293154,86.8755191 131.023638,87.7859581 131.015608,87.444324 C131.009673,87.1813395 133.367874,86.818463 135.760116,85.881866 C136.375633,85.6406506 136.981898,85.4008396 137.537365,85.1770043 C138.994286,84.5862547 139.06097,83.5467813 137.440656,83.927389 C136.868082,84.0613391 135.922986,84.307119 135.272381,84.5757213 C134.569407,84.865566 133.833091,84.9101575 133.206227,85.0657011 C131.961402,85.3748571 131.128028,85.5999213 131.144262,85.5432164 C131.165036,85.4687802 130.807177,85.3759105 131.452545,85.1001103 C132.228312,84.7693608 134.027556,84.42088 135.131856,83.8476861 C135.757847,83.5232566 137.107236,82.9214469 137.107236,82.9214469 C137.107236,82.9214469 138.588422,81.5893198 138.551414,81.4578276 C138.350141,80.7464703 137.219831,81.3231753 136.425384,81.8731956 C135.741961,81.9708053 134.340377,82.6428378 134.340377,82.6428378 C134.340377,82.6428378 131.208153,83.3824598 131.104287,82.950765 C131.064311,82.7855658 132.861286,82.3071727 134.623697,81.3405554 C136.641496,80.2333169 136.987484,79.1601365 136.852196,78.7879555 C136.645337,78.2180972 135.540339,79.0054707 135.540339,79.0054707 C135.540339,79.0054707 134.027731,80.0888334 133.582415,80.2635127 C133.06029,80.4683878 125.993191,81.9801099 125.930348,81.562284 C125.867504,81.1444582 126.447061,80.4671589 126.769134,80.2564904 C127.090683,80.0454708 127.718769,79.7226214 128.041016,79.5126551 C128.362391,79.3014599 128.46294,78.5283065 128.238275,78.1248764 C128.013435,77.7210951 126.514967,78.2544375 126.514967,78.2544375 C126.514967,78.2544375 124.807195,78.6887657 123.979931,79.4431345" id="Fill-1" fill="#F8A492" mask="url(#mask-2)"></path>
                    <path d="M120.361455,45.7268353 C120.131727,47.1379632 121.326975,48.3403536 122.730131,48.1093205 C123.579914,47.9694015 124.265257,47.2805155 124.405084,46.4260792 C124.636209,45.0140736 123.439564,43.8102787 122.035187,44.0425407 C121.185578,44.1831619 120.500584,44.872399 120.361455,45.7268353" id="Fill-3" fill="#00424C" mask="url(#mask-2)"></path>
                    <path d="M120.129598,33.1471523 C120.55606,32.6143365 121.084993,32.4484351 121.735772,32.6475168 C121.884502,32.6929861 122.039516,32.75724 122.201338,32.8404541 C125.012885,34.2914333 123.238954,40.9796314 121.969515,44.423008 C118.878314,40.0625213 118.751754,34.8690161 120.129598,33.1471523 M121.681832,45.9993351 L122.305902,46.7609017 L122.68436,45.8495849 C123.177332,44.6615901 127.368818,34.1692456 122.740919,31.7820204 C121.37547,31.0743498 120.086131,31.3032763 119.207719,32.4012102 C117.184857,34.9288811 117.813466,41.2812385 121.681832,45.9993351" id="Fill-5" fill="#00424C" mask="url(#mask-2)"></path>
                    <path d="M124.471908,44.5781654 C126.272199,42.4969362 129.611283,39.2508858 131.946093,39.2508858 C132.359289,39.2508858 132.74019,39.3518311 133.076577,39.5798797 C133.758604,40.0417704 133.961972,40.581784 133.697855,41.2313452 C132.978995,42.9965716 129.043073,45.0558562 124.471908,44.5781654 L124.471908,44.5781654 Z M122.266276,45.4164504 L123.231273,45.598152 C124.110034,45.7630001 124.985653,45.8398941 125.839801,45.8398941 C130.134629,45.8398941 133.885687,43.9103462 134.792903,41.6825269 C135.274877,40.4983944 134.889961,39.3723713 133.736783,38.5918445 C129.884303,35.9892108 123.582149,43.7481315 122.876905,44.643297 L122.266276,45.4164504 Z" id="Fill-7" fill="#00424C" mask="url(#mask-2)"></path>
                    <path d="M90.3255692,79.7581541 L150.723743,79.7581541 C153.235213,79.7581541 155.271168,77.7106319 155.271168,75.1848922 L155.271168,51.3338827 C155.271168,48.8083186 153.235213,46.7607963 150.724092,46.7607963 L90.3257438,46.7607963 C87.8142738,46.7607963 85.7783194,48.8083186 85.7783194,51.3340583 L85.7783194,75.1850677 C85.7783194,77.7106319 87.8142738,79.7581541 90.3255692,79.7581541" id="Fill-9" fill="#FF725E" mask="url(#mask-2)"></path>
                    <path d="M90.3257438,46.7608841 L112.045499,46.7608841 L112.045499,79.7582419 L90.3257438,79.7582419 C87.8142738,79.7582419 85.7783194,77.7105441 85.7783194,75.1851555 L85.7783194,51.3339705 C85.7783194,48.8082308 87.8142738,46.7608841 90.3257438,46.7608841" id="Fill-11" fill="#B24F41" mask="url(#mask-2)"></path>
                    <path d="M131.579645,46.7608841 L133.293701,46.7608841 C142.563115,57.2911489 136.884159,75.7365803 135.48659,79.7582419 L134.149071,79.7582419 C135.107783,77.0486939 141.730265,56.9863818 131.658898,46.8579672 C131.628698,46.8274202 131.602339,46.7949422 131.579645,46.7608841" id="Fill-13" fill="#00424C" mask="url(#mask-2)"></path>
                    <path d="M99.5283515,79.6334384 C99.5369052,79.6753965 99.5407456,79.7170035 99.5407456,79.7580839 L98.2704344,79.7580839 C94.5298506,60.9585539 98.657271,51.0137719 101.44438,46.7609017 L103.015117,46.7609017 C100.48043,50.3154059 95.6163446,60.1132466 99.5283515,79.6334384" id="Fill-15" fill="#00424C" mask="url(#mask-2)"></path>
                    <path d="M60.0604965,126.990909 L73.6062349,120.067815 L73.1638866,125.85997 C73.1638866,125.85997 85.6260986,182.151295 82.6282898,190.648258 C75.6165281,210.522021 34.9679662,244.009886 34.9679662,244.009886 L26.9742751,236.640526 C26.9742751,236.640526 58.2841207,193.31655 58.2841207,185.053956 C58.2841207,176.79101 48.0696107,129.894096 48.0696107,129.894096 L60.0604965,126.990909 Z" id="Fill-17" fill="#6B79B9" mask="url(#mask-2)"></path>
                    <g id="Group-23" mask="url(#mask-2)">
                        <g transform="translate(34.936614, 115.768107)">
                            <mask id="mask-4" fill="white">
                                <use xlink:href="#path-3"></use>
                            </mask>
                            <g id="Clip-22" stroke="none" fill="none"></g>
                            <path d="M38.6695682,4.29977913 C38.6695682,4.29977913 37.913177,13.8109351 37.913177,15.1513134 C37.913177,16.4908139 26.0121923,121.54224 29.7871654,138.514572 L15.5754607,138.514572 C15.5754607,138.514572 0.0314741115,42.2639978 0.0314741115,26.4083845 C0.0314741115,10.5527712 7.58142043,0.0569156056 7.58142043,0.0569156056 L38.6695682,4.29977913 Z" id="Fill-21" stroke="none" fill="#7E8CCC" fill-rule="evenodd" mask="url(#mask-4)"></path>
                        </g>
                    </g>
                    <g id="Group-44" mask="url(#mask-2)">
                        <g transform="translate(31.473872, 51.955759)">
                            <mask id="mask-6" fill="white">
                                <use xlink:href="#path-5"></use>
                            </mask>
                            <use id="Combined-Shape" stroke="none" fill="#4E50C0" fill-rule="evenodd" xlink:href="#path-5"></use>
                            <path d="M12.088273,69.6721365 L12.1786137,69.7837338 L14.9047781,73.2432524 L15.6381323,74.2051155 C15.7452254,74.3068631 15.839779,74.4210409 15.9197828,74.5452218 C15.8103063,74.4400191 15.7073733,74.3282126 15.6115615,74.2104297 L14.8144374,73.2698232 C14.1762953,72.5001556 13.3238153,71.4804272 12.3224897,70.2720369 L12.1229695,70.0315594 L8.49896946,74.5455594 L8.52778534,74.5824209 C9.72288103,76.1270703 10.8465964,77.5919416 11.8392145,78.8874597 L12.1109695,79.2415594 L14.7825525,75.8843903 C15.1120304,75.4858282 15.3777384,75.1616644 15.5849907,74.9012706 C15.6810866,74.7803693 15.7839938,74.6650422 15.893212,74.5558501 C15.8288935,74.6812914 15.750443,74.7989672 15.659389,74.9065847 L14.9207206,75.9109611 L12.1998704,79.4980195 L12.1042155,79.6255594 L12.0085606,79.4980195 L8.28864811,74.7524741 L8.19299322,74.6302484 L8.12390913,74.5399076 L8.19299322,74.4548811 L11.9979323,69.7837338 L12.088273,69.6721365 Z M28.7215959,65.7556 L28.8119366,65.8725116 L31.5327869,69.3320302 C31.8356941,69.7199639 32.064203,70.0388135 32.2714552,70.2938933 C32.3667817,70.3901415 32.4505992,70.4971425 32.5212208,70.6127429 C32.4117442,70.5075402 32.3088112,70.3957337 32.2129995,70.2779508 L31.4158754,69.3426585 L28.7359695,66.1185594 L25.1279695,70.6185594 L25.1557941,70.6552562 L28.7389695,75.3155594 L28.9197298,75.0905322 C29.9244045,73.8335302 30.7724191,72.7663065 31.4105612,71.9625397 C31.734725,71.5639777 32.0057472,71.2398139 32.2129995,70.97942 C32.3083794,70.8562399 32.411318,70.7391029 32.5212208,70.6286854 C32.4564763,70.755528 32.3780703,70.8749189 32.2873977,70.9847341 C32.0960879,71.245128 31.8516365,71.5799201 31.5487294,71.9837963 L28.8331933,75.5867973 L28.7375384,75.709023 L28.6418835,75.5867973 L24.921971,70.8412518 L24.8263161,70.7137119 L24.757232,70.6286854 L24.8263161,70.5436588 C25.909224,69.21689 26.9342665,67.954416 27.8589378,66.8162453 L28.625941,65.8725116 L28.625941,65.8725116 L28.7215959,65.7556 Z M41.5552939,59.1766691 C41.5381346,59.3584178 41.4970371,59.5371027 41.4330682,59.7080852 C41.3374133,60.032249 41.1886168,60.494581 41.0026212,61.0685103 C40.6616292,62.1207141 40.1822108,63.5301476 39.6380444,65.0962412 L39.5159695,65.4465594 L39.7800291,65.6986912 C40.9754969,66.8446339 42.0410968,67.8830357 42.8253783,68.6624459 C43.2505112,69.0875788 43.5906175,69.4329992 43.8244405,69.6774506 C43.9446711,69.778887 44.051781,69.8949227 44.1432902,70.0228711 C43.9906173,69.9347696 43.8510844,69.8256477 43.7287857,69.6987073 C43.4737059,69.4808267 43.112343,69.1672912 42.6659535,68.7474725 C41.7784887,67.9344059 40.5402892,66.7971755 39.2383199,65.5589761 L39.17455,65.4952062 L39.2064349,65.4101796 C39.8122492,63.6777632 40.3755503,62.1100858 40.8006831,60.9834837 C41.0132495,60.4201827 41.1886168,59.9631649 41.3320992,59.6496294 C41.3842428,59.4824034 41.4593586,59.3232294 41.5552939,59.1766691 Z M4.91415608,56.4451905 C5.25188097,56.9246117 5.55553448,57.4271493 5.82287755,57.949098 C6.35429362,58.8843903 7.10359028,60.196988 7.91665686,61.6690105 L7.97511263,61.7752937 L7.87945774,61.8443778 C7.70409043,61.9772318 7.52340897,62.1207141 7.34804167,62.2588823 C5.870705,63.3748561 4.52090819,64.3845466 3.53778846,65.0860158 C3.04888568,65.4420646 2.64500947,65.7237151 2.36335895,65.9150249 C2.22765134,66.0296531 2.0775929,66.1261192 1.91696946,66.2019895 C2.02942154,66.0646189 2.1599123,65.9430659 2.30490319,65.8406266 C2.56529706,65.622746 2.94791663,65.3092105 3.42619109,64.9372193 C4.38274001,64.1879226 5.71128018,63.1676038 7.18861685,62.05163 L7.62696946,61.7095594 L7.48295615,61.4439459 C6.7578746,60.1056877 6.12135625,58.9162752 5.66345273,58.0394387 C5.37382424,57.5276874 5.12334332,56.9947493 4.91415608,56.4451905 Z M19.2411333,53.7934244 L19.331474,53.9103359 L22.0682667,57.3645403 L22.8069351,58.3210892 C22.8979521,58.4287347 22.9763996,58.5464061 23.0407581,58.6718239 C22.9312816,58.5666212 22.8283486,58.4548147 22.7325368,58.3370317 L21.9354127,57.3964253 C21.2923993,56.631629 20.4439788,55.6078412 19.4392703,54.3987405 L19.2559695,54.1775594 L15.6469695,58.6765594 L15.6753314,58.7143371 L19.2579695,63.3745594 L19.4392672,63.1496131 C20.4439419,61.8926112 21.2919564,60.8253875 21.9300986,60.0216207 C22.2542624,59.6230586 22.5199704,59.2935807 22.7325368,59.0385009 C22.8279168,58.9153209 22.9308554,58.7981839 23.0407581,58.6877663 C22.9760137,58.8146089 22.8976076,58.9339999 22.8069351,59.0438151 L22.0682667,60.0216207 L19.3527306,63.6246216 L19.2570757,63.7468473 L19.1614208,63.6246216 L15.4415084,58.8790761 L15.3458535,58.7515363 L15.2767694,58.6665097 L15.3458535,58.5814831 L19.1454784,53.9103359 L19.2411333,53.7934244 Z M33.3980573,50.8228085 L33.488398,50.9397201 L36.2092483,54.3992387 L36.9479166,55.3611018 C37.0510302,55.4578023 37.1420354,55.5666516 37.2189388,55.6852656 C37.1094623,55.5800629 37.0065293,55.4682564 36.9107175,55.3504734 L36.1135934,54.4151812 L33.4329695,51.1905594 L29.8039695,55.6845594 L29.8322555,55.7224647 L33.4149695,60.3825594 L33.5961912,60.1577407 C34.6008659,58.9007387 35.4488805,57.833515 36.0870226,57.0297482 L36.8894609,56.0466285 C36.9848408,55.9234485 37.0877794,55.8063114 37.1976822,55.6958939 C37.1329377,55.8227365 37.0545317,55.9421274 36.9638591,56.0519426 L36.2251908,57.0510048 L33.5096547,60.6540058 L33.4139998,60.7762315 L33.3183449,60.6540058 L29.5984324,55.9084603 L29.5027775,55.7809204 L29.4336934,55.6958939 L29.5027775,55.6108673 C30.8950876,53.9050217 32.1917428,52.3054594 33.3024024,50.9397201 L33.3980573,50.8228085 Z M10.2442592,46.0134931 L10.3664849,46.1676038 L10.5259098,46.3695419 C11.2114365,47.2357501 11.822565,48.02756 12.253012,48.6068035 C12.5068772,48.9022187 12.7245295,49.2269133 12.9013396,49.5739808 C12.6002788,49.3222514 12.3308351,49.0349637 12.0989013,48.7184009 C11.6312552,48.1869848 10.9935559,47.3951749 10.3080292,46.5289667 L10.2789695,46.4915594 L10.2016585,46.6224712 C9.73856108,47.3993737 9.3160525,48.0848349 8.99011732,48.5855469 C8.81826548,48.9072717 8.60572483,49.205543 8.3577322,49.4730117 C8.47402703,49.1278999 8.6310149,48.7978685 8.82537834,48.489892 C9.14954214,47.9000202 9.61187412,47.0869536 10.137976,46.1835463 L10.2442592,46.0134931 Z M26.7659848,45.6255594 C27.4926559,46.3709765 28.171383,47.1613901 28.7981746,47.9920319 L29.0689695,48.3595594 L29.1679854,48.2294981 L29.3964943,47.9372193 L29.8322555,47.4058032 L30.5868663,46.4864534 C30.8012904,46.1881132 31.0511087,45.9168818 31.3308488,45.678701 C31.1753453,46.0113027 30.9770423,46.3221562 30.740977,46.603365 L30.0341936,47.5599139 C29.8960254,47.7459095 29.7578572,47.9319051 29.6090607,48.1232149 L29.385866,48.4154938 L29.2689545,48.5642902 L29.2104987,48.6440027 L29.1786137,48.6812018 L28.955419,48.6812018 C28.1522493,47.7172695 27.4204945,46.6960098 26.7659848,45.6255594 Z" id="Combined-Shape" stroke="none" fill="#FAFAFA" fill-rule="nonzero" mask="url(#mask-6)"></path>
                            <path d="M18.7442836,37.5093939 L18.8346243,37.6209913 L21.5607887,41.0805099 L22.2941429,42.0423729 C22.401236,42.1441205 22.4957896,42.2582984 22.5757934,42.3824792 C22.4663168,42.2772766 22.3633839,42.16547 22.2675721,42.0476871 L21.470448,41.1070807 C20.8323059,40.3374131 19.9798259,39.3176847 18.9785003,38.1092944 L18.77898,37.8688168 L15.15498,42.3828168 L15.1837959,42.4196783 C16.3788916,43.9643277 17.502607,45.4291991 18.4952251,46.7247171 L18.76698,47.0788168 L21.438563,43.7216477 C21.768041,43.3230857 22.033749,42.9989219 22.2410013,42.738528 C22.3370972,42.6176267 22.4400044,42.5022997 22.5492226,42.3931075 C22.4849041,42.5185488 22.4064536,42.6362246 22.3153995,42.7438421 L21.5767312,43.7482185 L18.8558809,47.335277 L18.760226,47.4628168 L18.6645712,47.335277 L14.9446587,42.5897315 L14.8490038,42.4675058 L14.7799197,42.3771651 L14.8490038,42.2921385 L18.6539428,37.6209913 L18.7442836,37.5093939 Z M35.3776065,33.5928575 L35.4679472,33.709769 L38.1887975,37.1692876 C38.4917046,37.5572213 38.7202135,37.876071 38.9274658,38.1311507 C39.0227923,38.2273989 39.1066098,38.3343999 39.1772314,38.4500003 C39.0677548,38.3447977 38.9648218,38.2329911 38.86901,38.1152082 L38.0718859,37.1799159 L35.39198,33.9558168 L31.78398,38.4558168 L31.8118047,38.4925136 L35.39498,43.1528168 L35.5757404,42.9277896 C36.5804151,41.6707876 37.4284297,40.6035639 38.0665718,39.7997971 C38.3907356,39.4012351 38.6617578,39.0770713 38.86901,38.8166774 C38.96439,38.6934974 39.0673286,38.5763603 39.1772314,38.4659428 C39.1124869,38.5927854 39.0340809,38.7121764 38.9434083,38.8219916 C38.7520985,39.0823854 38.5076471,39.4171776 38.20474,39.8210538 L35.4892039,43.4240547 L35.393549,43.5462804 L35.2978941,43.4240547 L31.5779816,38.6785092 L31.4823267,38.5509694 L31.4132426,38.4659428 L31.4823267,38.3809162 C32.5652346,37.0541475 33.5902771,35.7916735 34.5149484,34.6535027 L35.2819516,33.709769 L35.2819516,33.709769 L35.3776065,33.5928575 Z M48.2113045,27.0139265 C48.1941452,27.1956752 48.1530476,27.3743601 48.0890788,27.5453426 C47.9934239,27.8695064 47.8446274,28.3318384 47.6586318,28.9057677 C47.3176398,29.9579716 46.8382213,31.3674051 46.294055,32.9334987 L46.17198,33.2838168 L46.4360396,33.5359486 C47.6315074,34.6818914 48.6971074,35.7202931 49.4813889,36.4997034 C49.9065218,36.9248362 50.246628,37.2702567 50.4804511,37.514708 C50.6006817,37.6161444 50.7077915,37.7321801 50.7993008,37.8601285 C50.6466279,37.772027 50.507095,37.6629052 50.3847962,37.5359647 C50.1297165,37.3180841 49.7683536,37.0045486 49.3219641,36.5847299 C48.4344993,35.7716633 47.1962998,34.634433 45.8943305,33.3962335 L45.8305605,33.3324636 L45.8624455,33.247437 C46.4682598,31.5150206 47.0315608,29.9473432 47.4566937,28.8207412 C47.6692601,28.2574401 47.8446274,27.8004223 47.9881098,27.4868868 C48.0402534,27.3196608 48.1153691,27.1604868 48.2113045,27.0139265 Z M11.5701667,24.282448 C11.9078915,24.7618691 12.2115451,25.2644068 12.4788881,25.7863554 C13.0103042,26.7216477 13.7596009,28.0342454 14.5726674,29.5062679 L14.6311232,29.6125511 L14.5354683,29.6816352 C14.360101,29.8144892 14.1794195,29.9579716 14.0040522,30.0961397 C12.5267156,31.2121135 11.1769188,32.221804 10.193799,32.9232732 C9.70489626,33.279322 9.30102005,33.5609725 9.01936953,33.7522823 C8.88366192,33.8669105 8.73360348,33.9633767 8.57298003,34.039247 C8.68543211,33.9018763 8.81592287,33.7803233 8.96091376,33.677884 C9.22130764,33.4600034 9.6039272,33.146468 10.0822017,32.7744767 C11.0387506,32.0251801 12.3672908,31.0048612 13.8446274,29.8888875 L14.28298,29.5468168 L14.1389667,29.2812034 C13.4138852,27.9429452 12.7773668,26.7535327 12.3194633,25.8766962 C12.0298348,25.3649448 11.7793539,24.8320067 11.5701667,24.282448 Z M25.8971438,21.6306818 L25.9874846,21.7475933 L28.7242773,25.2017978 L29.4629456,26.1583467 C29.5539626,26.2659921 29.6324102,26.3836635 29.6967687,26.5090813 C29.5872921,26.4038786 29.4843592,26.2920721 29.3885474,26.1742892 L28.5914233,25.2336827 C27.9484099,24.4688864 27.0999893,23.4450986 26.0952808,22.2359979 L25.91198,22.0148168 L22.30298,26.5138168 L22.331342,26.5515946 L25.91398,31.2118168 L26.0952778,30.9868706 C27.0999524,29.7298686 27.947967,28.6626449 28.5861091,27.8588781 C28.9102729,27.460316 29.175981,27.1308381 29.3885474,26.8757584 C29.4839273,26.7525783 29.5868659,26.6354413 29.6967687,26.5250238 C29.6320242,26.6518664 29.5536182,26.7712573 29.4629456,26.8810725 L28.7242773,27.8588781 L26.0087412,31.461879 L25.9130863,31.5841047 L25.8174314,31.461879 L22.097519,26.7163336 L22.0018641,26.5887937 L21.93278,26.5037671 L22.0018641,26.4187406 L25.8014889,21.7475933 L25.8971438,21.6306818 Z M40.0540679,18.660066 L40.1444086,18.7769775 L42.8652589,22.2364961 L43.6039272,23.1983592 C43.7070408,23.2950598 43.7980459,23.4039091 43.8749494,23.522523 C43.7654728,23.4173203 43.6625398,23.3055138 43.5667281,23.1877309 L42.769604,22.2524386 L40.08898,19.0278168 L36.45998,23.5218168 L36.4882661,23.5597221 L40.07098,28.2198168 L40.2522018,27.9949981 C41.2568765,26.7379961 42.104891,25.6707724 42.7430332,24.8670056 L43.5454714,23.8838859 C43.6408514,23.7607059 43.74379,23.6435688 43.8536928,23.5331513 C43.7889483,23.6599939 43.7105423,23.7793849 43.6198697,23.8892001 L42.8812014,24.8882623 L40.1656652,28.4912632 L40.0700104,28.6134889 L39.9743555,28.4912632 L36.254443,23.7457177 L36.1587881,23.6181779 L36.089704,23.5331513 L36.1587881,23.4481247 C37.5510982,21.7422792 38.8477534,20.1427168 39.958413,18.7769775 L40.0540679,18.660066 Z M16.9002698,13.8507506 L17.0224955,14.0048612 L17.1819203,14.2067993 C17.8674471,15.0730075 18.4785755,15.8648175 18.9090225,16.444061 C19.1628877,16.7394761 19.3805401,17.0641707 19.5573501,17.4112382 C19.2562894,17.1595088 18.9868457,16.8722211 18.7549119,16.5556583 C18.2872657,16.0242423 17.6495665,15.2324323 16.9640397,14.3662241 L16.93498,14.3288168 L16.857669,14.4597286 C16.3945717,15.2366312 15.9720631,15.9220923 15.6461279,16.4228043 C15.4742761,16.7445291 15.2617354,17.0428004 15.0137428,17.3102692 C15.1300376,16.9651573 15.2870255,16.635126 15.4813889,16.3271494 C15.8055527,15.7372776 16.2678847,14.924211 16.7939866,14.0208037 L16.9002698,13.8507506 Z M33.4219954,13.4628168 C34.1486665,14.2082339 34.8273935,14.9986475 35.4541852,15.8292893 L35.72498,16.1968168 L35.823996,16.0667556 L36.0525049,15.7744767 L36.4882661,15.2430607 L37.2428769,14.3237109 C37.4573009,14.0253706 37.7071193,13.7541392 37.9868594,13.5159584 C37.8313559,13.8485601 37.6330528,14.1594136 37.3969875,14.4406224 L36.6902042,15.3971713 C36.552036,15.5831669 36.4138678,15.7691626 36.2650713,15.9604723 L36.0418766,16.2527512 L35.924965,16.4015477 L35.8665093,16.4812601 L35.8346243,16.5184592 L35.6114295,16.5184592 C34.8082598,15.5545269 34.0765051,14.5332673 33.4219954,13.4628168 Z" id="Combined-Shape-Copy" stroke="none" fill="#FAFAFA" fill-rule="nonzero" mask="url(#mask-6)"></path>
                            <path d="M-1.47444996,16.1689083 L-1.38410923,16.2805057 L1.3420552,19.7400243 L2.07540937,20.7018874 C2.18250247,20.803635 2.27705602,20.9178128 2.35705988,21.0419937 C2.24758332,20.936791 2.14465032,20.8249845 2.04883857,20.7072015 L1.25171446,19.7665951 C0.613572337,18.9969275 -0.238907605,17.9771991 -1.24023325,16.7688088 L-1.43975349,16.5283313 L-5.06375349,21.0423313 L-5.03493761,21.0791928 C-3.83984192,22.6238422 -2.71612657,24.0887135 -1.72350842,25.3842315 L-1.45175349,25.7383313 L1.2198295,22.3811622 C1.54930746,21.9826001 1.8150155,21.6584363 2.02226776,21.3980424 C2.11836365,21.2771412 2.22127089,21.1618141 2.33048908,21.052622 C2.2661706,21.1780633 2.18772008,21.295739 2.09666601,21.4033566 L1.35799768,22.407733 L-1.36285259,25.9947914 L-1.45850748,26.1223313 L-1.55416237,25.9947914 L-5.27407484,21.2492459 L-5.36972974,21.1270202 L-5.43881383,21.0366795 L-5.36972974,20.9516529 L-1.56479069,16.2805057 L-1.47444996,16.1689083 Z M15.158873,12.2523719 L15.2492137,12.3692834 L17.9700639,15.828802 C18.2729711,16.2167358 18.50148,16.5355854 18.7087323,16.7906651 C18.8040588,16.8869133 18.8878763,16.9939144 18.9584978,17.1095148 C18.8490213,17.0043121 18.7460883,16.8925056 18.6502765,16.7747226 L17.8531524,15.8394304 L15.1732465,12.6153313 L11.5652465,17.1153313 L11.5930711,17.1520281 L15.1762465,21.8123313 L15.3570069,21.5873041 C16.3616816,20.3303021 17.2096961,19.2630784 17.8478383,18.4593116 C18.1720021,18.0607495 18.4430242,17.7365857 18.6502765,17.4761919 C18.7456565,17.3530118 18.8485951,17.2358748 18.9584978,17.1254573 C18.8937533,17.2522999 18.8153473,17.3716908 18.7246748,17.481506 C18.533365,17.7418999 18.2889136,18.076692 17.9860064,18.4805682 L15.2704703,22.0835692 L15.1748154,22.2057949 L15.0791605,22.0835692 L11.3592481,17.3380237 L11.2635932,17.2104838 L11.1945091,17.1254573 L11.2635932,17.0404307 C12.346501,15.7136619 13.3715436,14.4511879 14.2962148,13.3130172 L15.0632181,12.3692834 L15.0632181,12.3692834 L15.158873,12.2523719 Z M27.992571,5.673441 C27.9754116,5.85518968 27.9343141,6.03387456 27.8703453,6.20485707 C27.7746904,6.52902087 27.6258939,6.99135284 27.4398983,7.5652822 C27.0989063,8.61748601 26.6194878,10.0269195 26.0753215,11.5930131 L25.9532465,11.9433313 L26.2173061,12.195463 C27.4127739,13.3414058 28.4783738,14.3798076 29.2626554,15.1592178 C29.6877882,15.5843507 30.0278945,15.9297711 30.2617176,16.1742225 C30.3819481,16.2756589 30.489058,16.3916946 30.5805672,16.5196429 C30.4278944,16.4315415 30.2883615,16.3224196 30.1660627,16.1954791 C29.910983,15.9775985 29.5496201,15.6640631 29.1032306,15.2442444 C28.2157657,14.4311778 26.9775663,13.2939474 25.6755969,12.055748 L25.611827,11.991978 L25.643712,11.9069515 C26.2495263,10.1745351 26.8128273,8.60685769 27.2379602,7.48025563 C27.4505266,6.9169546 27.6258939,6.45993678 27.7693762,6.1464013 C27.8215198,5.97917523 27.8966356,5.82000128 27.992571,5.673441 Z M-8.64856687,2.94196241 C-8.31084198,3.42138355 -8.00718848,3.92392122 -7.7398454,4.44586988 C-7.20842933,5.38116216 -6.45913268,6.69375985 -5.64606609,8.16578235 L-5.58761032,8.27206557 L-5.68326522,8.34114966 C-5.85863252,8.47400367 -6.03931398,8.61748601 -6.21468128,8.75565419 C-7.69201795,9.87162793 -9.04181476,10.8813185 -10.0249345,11.5827877 C-10.5138373,11.9388364 -10.9177135,12.2204869 -11.199364,12.4117967 C-11.3350716,12.526425 -11.4851301,12.6228911 -11.6457535,12.6987614 C-11.5333014,12.5613908 -11.4028107,12.4398377 -11.2578198,12.3373985 C-10.9974259,12.1195179 -10.6148063,11.8059824 -10.1365319,11.4339912 C-9.17998294,10.6846945 -7.85144277,9.66437566 -6.3741061,8.54840192 L-5.93575349,8.20633128 L-6.0797668,7.94071781 C-6.80484835,6.60245961 -7.44136671,5.41304712 -7.89927022,4.53621061 C-8.18889871,4.02445927 -8.43937964,3.49152114 -8.64856687,2.94196241 Z M5.67841031,0.290196234 L5.76875104,0.407107768 L8.50554379,3.86131221 L9.24421212,4.81786113 C9.3352291,4.92550658 9.41367668,5.04317796 9.47803519,5.16859573 C9.36855862,5.06339309 9.26562563,4.95158656 9.16981387,4.83380361 L8.37268977,3.89319717 C7.72967633,3.12840088 6.88125581,2.10461307 5.87654731,0.895512348 L5.69324651,0.674331276 L2.08424651,5.17333128 L2.11260849,5.21110902 L5.69524651,9.87133128 L5.87654424,9.64638502 C6.88121891,8.38938305 7.72923348,7.32215935 8.36737561,6.51839254 C8.69153941,6.11983049 8.95724744,5.79035253 9.16981387,5.53527282 C9.26519381,5.41209279 9.36813242,5.29495575 9.47803519,5.18453822 C9.4132907,5.31138081 9.33488469,5.43077178 9.24421212,5.54058698 L8.50554379,6.51839254 L5.79000768,10.1213935 L5.69435279,10.2436192 L5.5986979,10.1213935 L1.87878542,5.375848 L1.78313053,5.24830814 L1.71404644,5.16328157 L1.78313053,5.078255 L5.58275541,0.407107768 L5.67841031,0.290196234 Z M19.8353343,-2.68041958 L19.9256751,-2.56350805 L22.6465253,0.89601055 L23.3851937,1.85787363 C23.4883072,1.9545742 23.5793124,2.0634235 23.6562159,2.18203743 C23.5467393,2.07683479 23.4438063,1.96502826 23.3479946,1.84724531 L22.5508705,0.911953033 L19.8702465,-2.31266872 L16.2412465,2.18133128 L16.2695325,2.21923656 L19.8522465,6.87933128 L20.0334683,6.65451256 C21.0381429,5.39751059 21.8861575,4.33028689 22.5242996,3.52652008 L23.3267379,2.54340036 C23.4221178,2.42022033 23.5250565,2.30308329 23.6349592,2.19266576 C23.5702147,2.31950835 23.4918087,2.43889932 23.4011362,2.54871452 L22.6624678,3.54777673 L19.9469317,7.15077767 L19.8512768,7.27300336 L19.7556219,7.15077767 L16.0357095,2.40523218 L15.9400546,2.27769233 L15.8709705,2.19266576 L15.9400546,2.10763918 C17.3323647,0.401793608 18.6290199,-1.19776876 19.7396795,-2.56350805 L19.8353343,-2.68041958 Z M-3.31846372,-7.48973499 L-3.19623802,-7.33562434 L-3.0368132,-7.13368623 C-2.35128647,-6.26747804 -1.740158,-5.4756681 -1.30971098,-4.89642459 C-1.0558458,-4.60100941 -0.838193418,-4.27631487 -0.661383379,-3.92924734 C-0.962444108,-4.18097674 -1.23188787,-4.46826446 -1.46382164,-4.78482721 C-1.93146778,-5.31624328 -2.56916706,-6.10805322 -3.25469379,-6.97426141 L-3.28375349,-7.01166872 L-3.36106448,-6.88075697 C-3.82416187,-6.10385438 -4.24667045,-5.41839326 -4.57260564,-4.91768123 C-4.74445748,-4.59595647 -4.95699812,-4.29768514 -5.20499076,-4.0302164 C-5.08869592,-4.37532826 -4.93170805,-4.70535959 -4.73734462,-5.01333612 C-4.41318082,-5.60320796 -3.95084884,-6.41627454 -3.42474693,-7.31968185 L-3.31846372,-7.48973499 Z M13.2032618,-7.87766872 C13.929933,-7.13225164 14.60866,-6.34183802 15.2354516,-5.51119625 L15.5062465,-5.14366872 L15.6052624,-5.27372999 L15.8337714,-5.56600883 L16.2695325,-6.0974249 L17.0241433,-7.01677469 C17.2385674,-7.31511495 17.4883858,-7.58634633 17.7681258,-7.82452712 C17.6126224,-7.49192541 17.4143193,-7.18107197 17.178254,-6.89986316 L16.4714706,-5.94331424 C16.3333025,-5.75731861 16.1951343,-5.57132299 16.0463378,-5.38001321 L15.823143,-5.08773437 L15.7062315,-4.93893787 L15.6477757,-4.85922546 L15.6158908,-4.82202634 L15.392696,-4.82202634 C14.5895263,-5.78595867 13.8577716,-6.8072183 13.2032618,-7.87766872 Z" id="Combined-Shape-Copy-2" stroke="none" fill="#FAFAFA" fill-rule="nonzero" mask="url(#mask-6)"></path>
                        </g>
                    </g>
                    <path d="M55.2476807,47.2462468 C53.3155927,46.1140792 51.2305855,44.6825867 49.0034823,42.911918 C46.3802905,40.8262999 44.978008,37.7438687 44.6122939,34.4604246 L45.1815511,33.1742934 L56.7695404,39.9836259 C56.7695404,39.9836259 55.8804796,43.1998316 55.2476807,47.2462468" id="Fill-28" fill="#CD9388" mask="url(#mask-2)"></path>
                    <path d="M41.552497,79.1181608 C36.2174344,71.7207121 32.0437542,59.2266657 40.4677486,57.2070571 C40.4677486,57.2070571 45.8213152,72.7129607 54.1112436,79.2494775 C58.6984687,82.8663045 67.9338424,86.0998903 75.4078528,88.1591749 C75.6915213,93.3832269 76.0273848,99.6321812 76.1832716,105.079015 C67.5086015,100.898474 46.198027,85.5588234 41.552497,79.1181608" id="Fill-32" fill="#383997" mask="url(#mask-2)"></path>
                    <g id="Group-45" mask="url(#mask-2)">
                        <g transform="translate(35.319418, 56.811721)">
                            <mask id="mask-8" fill="white">
                                <use xlink:href="#path-7"></use>
                            </mask>
                            <use id="Fill-34" stroke="none" fill="#4E50C0" fill-rule="evenodd" xlink:href="#path-7"></use>
                            <path d="M46.201659,38.2880216 L46.2919997,38.4049331 L49.0287925,41.8591375 L49.7674608,42.8156865 C49.8584778,42.9233319 49.9369254,43.0410033 50.0012839,43.1664211 C49.8918073,43.0612184 49.7888743,42.9494119 49.6930626,42.8316289 L48.8959385,41.8910225 C48.252925,41.1262262 47.4045045,40.1024384 46.399796,38.8933377 L46.216,38.6725619 L42.608,43.1715619 L42.6358572,43.2089343 L46.219,47.8695619 L46.3997929,47.6442103 C47.4044676,46.3872084 48.2524822,45.3199847 48.8906243,44.5162179 C49.2147881,44.1176558 49.4804961,43.7881779 49.6930626,43.5330981 C49.7884425,43.4099181 49.8913811,43.2927811 50.0012839,43.1823635 C49.9365394,43.3092061 49.8581334,43.4285971 49.7674608,43.5384123 L49.0287925,44.5162179 L46.3132564,48.1192188 L46.2176015,48.2414445 L46.1219466,48.1192188 L42.4020341,43.3736733 L42.3063792,43.2461335 L42.2372951,43.1611069 L42.3063792,43.0760803 L46.1060041,38.4049331 L46.201659,38.2880216 Z M8.17130353,34.0697336 L8.26164426,34.181331 L10.9878087,37.6408496 L11.7211629,38.6027127 C11.828256,38.7044602 11.9228095,38.8186381 12.0028134,38.942819 C11.8933368,38.8376163 11.7904038,38.7258098 11.6945921,38.6080268 L10.897468,37.6674204 L10.7181642,37.4513573 L10.7181642,37.4513573 L10.3288528,36.9831392 C9.7832656,36.3275046 9.13375708,35.5484634 8.40552024,34.6696341 L8.206,34.4295619 L4.582,38.9435619 L4.61081588,38.9800181 C5.80591157,40.5246675 6.92962693,41.9895388 7.92224508,43.2850568 L8.194,43.6395619 L10.865583,40.2819875 C11.195061,39.8834254 11.460769,39.5592616 11.6680213,39.2988677 C11.7641171,39.1779665 11.8670244,39.0626394 11.9762426,38.9534473 C11.9119241,39.0788886 11.8334736,39.1965643 11.7424195,39.3041819 L11.0037512,40.3085583 L8.28290091,43.8956167 L8.18724601,44.0231566 L8.09159112,43.8956167 L4.37167865,39.1500712 L4.27602376,39.0278455 L4.20693967,38.9375048 L4.27602376,38.8524782 L8.0809628,34.181331 L8.17130353,34.0697336 Z M24.8046264,30.1531972 L24.8949672,30.2701087 L27.6158174,33.7296273 C27.9187246,34.1175611 28.1472335,34.4364107 28.3544858,34.6914904 C28.4498123,34.7877386 28.5336298,34.8947397 28.6042513,35.0103401 C28.4947748,34.9051374 28.3918418,34.7933309 28.29603,34.6755479 L27.4989059,33.7402557 L24.819,30.5165619 L21.211,35.0155619 L21.2388246,35.0528533 L24.822,39.7135619 L25.0027604,39.4881293 C26.007435,38.2311274 26.8554496,37.1639037 27.4935917,36.3601369 C27.8177555,35.9615748 28.0887777,35.637411 28.29603,35.3770171 C28.3914099,35.2538371 28.4943486,35.1367001 28.6042513,35.0262825 C28.5395068,35.1531251 28.4611008,35.2725161 28.3704283,35.3823313 C28.1791185,35.6427252 27.9346671,35.9775173 27.6317599,36.3813935 L24.9162238,39.9843945 L24.8205689,40.1066201 L24.724914,39.9843945 L21.0050016,35.238849 L20.9093467,35.1113091 L20.8402626,35.0262825 L20.9093467,34.941256 C21.9922545,33.6144872 23.0172971,32.3520132 23.9419683,31.2138424 L24.7089716,30.2701087 L24.7089716,30.2701087 L24.8046264,30.1531972 Z M49.7576873,31.3775973 C50.4843584,32.1230143 51.1630854,32.913428 51.7898771,33.7440697 L52.06,34.1115619 L52.1596879,33.981536 L52.3881968,33.6892572 L52.823958,33.1578411 L53.5785688,32.2384913 C53.7929928,31.940151 54.0428112,31.6689197 54.3225513,31.4307389 C54.1670478,31.7633406 53.9687448,32.074194 53.7326794,32.3554028 L53.0258961,33.3119517 C52.8877279,33.4979474 52.7495597,33.683943 52.6007632,33.8752528 L52.3775685,34.1675316 L52.2606569,34.3163281 L52.2022012,34.3960405 L52.1703162,34.4332397 L51.9471215,34.4332397 C51.1439517,33.4693073 50.412197,32.4480477 49.7576873,31.3775973 Z M37.6383245,23.5742663 C37.6211651,23.756015 37.5800676,23.9346999 37.5160988,24.1056824 C37.4204439,24.4298462 37.2716474,24.8921781 37.0856518,25.4661075 C36.7446598,26.5183113 36.2652413,27.9277448 35.7210749,29.4938384 L35.599,29.8435619 L35.8630596,30.0962883 C37.0585274,31.2422311 38.1241273,32.2806329 38.9084089,33.0600431 C39.3335417,33.4851759 39.673648,33.8305964 39.9074711,34.0750478 C40.0277016,34.1764842 40.1348115,34.2925199 40.2263207,34.4204682 C40.0736479,34.3323668 39.934115,34.2232449 39.8118162,34.0963044 C39.5567365,33.8784238 39.1953736,33.5648884 38.7489841,33.1450697 C37.8615192,32.3320031 36.6233198,31.1947727 35.3213504,29.9565733 L35.2575805,29.8928033 L35.2894655,29.8077768 C35.8952798,28.0753604 36.4585808,26.507683 36.8837137,25.3810809 C37.0962801,24.8177799 37.2716474,24.3607621 37.4151297,24.0472266 C37.4672733,23.8800005 37.5423891,23.7208266 37.6383245,23.5742663 Z M0.997186621,20.8427877 C1.33491151,21.3222088 1.63856502,21.8247465 1.9059081,22.3466952 C2.43732416,23.2819875 3.18662082,24.5945851 3.9996874,26.0666076 L4.05814317,26.1728909 L3.96248828,26.2419749 C3.78712098,26.374829 3.60643951,26.5183113 3.43107221,26.6564795 C1.95373554,27.7724532 0.603938731,28.7821437 -0.379180994,29.483613 C-0.868083776,29.8396617 -1.27195999,30.1213122 -1.5536105,30.312622 C-1.68931812,30.4272503 -1.83937656,30.5237164 -2,30.5995867 C-1.88754792,30.4622161 -1.75705716,30.340663 -1.61206627,30.2382238 C-1.3516724,30.0203432 -0.969052829,29.7068077 -0.490778368,29.3348165 C0.465770553,28.5855198 1.79431072,27.565201 3.27164739,26.4492272 L3.71,26.1075619 L3.56598669,25.8415431 C2.84090514,24.5032849 2.20438679,23.3138724 1.74648328,22.4370359 C1.45685478,21.9252846 1.20637386,21.3923464 0.997186621,20.8427877 Z M15.3241638,18.1910215 L15.4145045,18.3079331 L18.1512973,21.7621375 L18.8899656,22.7186864 C18.9809826,22.8263319 19.0594302,22.9440033 19.1237887,23.069421 C19.0143121,22.9642184 18.9113791,22.8524118 18.8155674,22.7346289 L18.0184433,21.7940225 C17.9015317,21.6549686 17.7778299,21.507353 17.6476329,21.3516186 L17.2378521,20.8605016 C16.7377305,20.260149 16.1616608,19.5657654 15.5223008,18.7963376 L15.339,18.5755619 L11.73,23.0745619 L11.758362,23.1119343 L15.341,27.7725619 L15.5222977,27.5472103 C16.5269724,26.2902083 17.374987,25.2229846 18.0131291,24.4192178 C18.3372929,24.0206558 18.6030009,23.6911778 18.8155674,23.4360981 C18.9109473,23.3129181 19.0138859,23.195781 19.1237887,23.0853635 C19.0590442,23.2122061 18.9806382,23.3315971 18.8899656,23.4414123 L18.1512973,24.4192178 L15.4357612,28.0222188 L15.3401063,28.1444445 L15.2444514,28.0222188 L11.5245389,23.2766733 L11.428884,23.1491334 L11.3597999,23.0641069 L11.428884,22.9790803 L15.2285089,18.3079331 L15.3241638,18.1910215 Z M29.4810878,15.2204057 L29.5714286,15.3373172 L32.2922788,18.7968358 L33.0309472,19.7586989 C33.1340607,19.8553995 33.2250659,19.9642488 33.3019694,20.0828627 C33.1924928,19.9776601 33.0895598,19.8658536 32.993748,19.7480706 L32.1966239,18.8127783 L29.516,15.5885619 L25.887,20.0825619 L25.915286,20.1200618 L29.498,24.7805619 L29.6792218,24.5553378 C30.6838964,23.2983359 31.531911,22.2311122 32.1700531,21.4273454 L32.9724914,20.4442257 C33.0678713,20.3210456 33.17081,20.2039086 33.2807127,20.093491 C33.2159682,20.2203336 33.1375622,20.3397246 33.0468897,20.4495398 L32.3082213,21.448602 L29.5926852,25.051603 L29.4970303,25.1738287 L29.4013754,25.051603 L25.681463,20.3060575 L25.5858081,20.1785176 L25.516724,20.093491 L25.5858081,20.0084645 C26.6687159,18.6816957 27.6937585,17.4192217 28.6184297,16.2810509 L29.3854329,15.3373172 L29.3854329,15.3373172 L29.4810878,15.2204057 Z M15.7886214,5.3285619 L15.8789621,5.44547343 L18.6157548,8.89967787 L19.3544232,9.85622679 C19.4454401,9.96387225 19.5238877,10.0815436 19.5882462,10.2069614 C19.4787697,10.1017588 19.3758367,9.98995222 19.2800249,9.87216928 L18.4829008,8.93156284 C17.8398874,8.16676655 16.9914669,7.14297873 15.9867584,5.93387801 L15.803,5.7135619 L12.195,10.2125619 L12.2228195,10.2494747 L15.806,14.9095619 L15.9867553,14.6847507 C16.99143,13.4277487 17.8394445,12.360525 18.4775867,11.5567582 C18.8017505,11.1581962 19.0674585,10.8287182 19.2800249,10.5736385 C19.3754049,10.4504585 19.4783435,10.3333214 19.5882462,10.2229039 C19.5235017,10.3497465 19.4450957,10.4691374 19.3544232,10.5789526 L18.6157548,11.5567582 L15.9002187,15.1597591 L15.8045638,15.2819848 L15.7089089,15.1597591 L11.9889965,10.4142137 L11.8933416,10.2866738 L11.8242575,10.2016472 L11.8933416,10.1166207 L15.6929665,5.44547343 L15.7886214,5.3285619 Z M6.32728978,10.4110903 L6.44951547,10.565201 L6.60894029,10.7671391 C7.29446702,11.6333473 7.9055955,12.4251572 8.33604251,13.0044007 C8.58990769,13.2998159 8.80756008,13.6245104 8.98437012,13.9715779 C8.68330939,13.7198486 8.41386563,13.4325608 8.18193185,13.1159981 C7.71428571,12.584582 7.07658643,11.7927721 6.39105971,10.9265639 L6.362,10.8895619 L6.28468902,11.0200683 C5.82159162,11.7969709 5.39908305,12.482432 5.07314786,12.9831441 C4.90129602,13.3048688 4.68875537,13.6031401 4.44076274,13.8706089 C4.55705757,13.525497 4.71404545,13.1954657 4.90840888,12.8874892 C5.23257268,12.2976173 5.69490466,11.4845508 6.22100656,10.5811434 L6.32728978,10.4110903 Z M22.8490153,10.0231566 C23.5756864,10.7685736 24.2544135,11.5589873 24.8812051,12.389629 L25.152,12.7575619 L25.2510159,12.6270953 L25.4795249,12.3348165 L25.915286,11.8034004 L26.6698968,10.8840506 C26.8843209,10.5857103 27.1341393,10.314479 27.4138793,10.0762982 C27.2583759,10.4088999 27.0600728,10.7197533 26.8240075,11.0009621 L26.1172241,11.9575111 C25.979056,12.1435067 25.8408878,12.3295023 25.6920913,12.5208121 L25.4688965,12.8130909 L25.351985,12.9618874 L25.2935292,13.0415998 L25.2616443,13.078799 L25.0384495,13.078799 C24.2352798,12.1148666 23.5035251,11.093607 22.8490153,10.0231566 Z" id="Combined-Shape-Copy-2" stroke="none" fill="#FAFAFA" fill-rule="nonzero" mask="url(#mask-8)"></path>
                        </g>
                    </g>
                    <path d="M93.2096487,83.3750864 C92.9083491,83.381582 92.5618371,83.3880777 92.1777936,83.3940466 C91.0691298,89.7997734 92.4176462,96.5768033 93.2384519,99.8060003 C94.2666412,99.3672831 95.1780463,98.8715099 95.9079035,98.3169251 C96.4946172,95.0599902 95.9323426,90.6919544 95.9323426,90.6919544 L93.2096487,83.3750864 Z" id="Fill-36" fill="#383997" mask="url(#mask-2)"></path>
                    <path d="M67.262674,21.6528158 C67.85706,23.4817138 68.2238122,26.8570045 68.0009115,31.5869965 C67.9796718,32.0377072 69.5283168,35.0558535 69.4992752,35.5094065 C69.4685674,35.9889826 67.5398505,36.9955571 67.484646,37.5172097 C66.9254428,42.8013824 65.8053538,47.1665341 64.0299004,47.750078 C60.226124,49.0003956 53.4749882,46.2494161 45.2770557,36.7949651 C37.0792978,27.3405141 47.5368027,7.7039279 60.702338,14.4210929 C60.702338,14.4210929 65.8031341,17.1622412 67.262674,21.6528158 Z" id="Fill-38" fill="#F8BB9F" mask="url(#mask-2)"></path>
                    <path d="M62.3368936,40.0728631 C62.9444951,40.3587389 63.8298441,40.7087146 64.9445556,40.9239403 C65.3942862,41.0109664 66.063129,41.0496216 66.9510841,41.039906 L66.7562863,42.9451003 C65.7736413,42.8138414 65.042721,42.6041044 64.5635253,42.3158891 C63.4460223,41.6435427 62.7486297,40.7470809 62.3368936,40.0728631 Z M66.0476362,38.9125158 C66.2523412,38.8161322 66.8960675,39.0185774 67.0672753,39.1678317 C67.2380179,39.3166182 67.018186,40.8440652 66.9624724,40.8548614 C66.6540104,40.9146356 66.3598076,40.8829961 66.0183262,40.8785558 C64.6505249,40.8612441 63.2566702,40.5777077 62.0986915,39.8459403 C62.7379292,39.914719 63.3832151,39.9830297 64.0219876,39.9086365 C64.6607601,39.835179 65.3009284,39.605449 65.7596536,39.1525393 C65.8489794,39.0641096 65.934118,38.9658544 66.0476362,38.9125158 Z" id="Combined-Shape" fill="#CB8E8E" mask="url(#mask-2)" transform="translate(64.614884, 40.916281) rotate(5.000000) translate(-64.614884, -40.916281) "></path>
                    <path d="M60.8411173,25.6754254 C59.8356216,33.6327256 53.0364803,35.6324963 49.834954,38.9415717 C46.6334276,42.2508227 45.5382053,49.4311073 35.9177408,46.5988449 C26.2974508,43.766407 25.9885919,29.8097398 27.933074,23.1292662 C29.8777307,16.4489682 36.3391583,6.46084977 45.493527,5.94115415 C53.7497251,5.47244788 71.0973484,8.62058164 66.0772015,16.4627164 C66.0772015,16.4627164 61.8464385,17.7181251 60.8411173,25.6754254 Z" id="Fill-40" fill="#353357" mask="url(#mask-2)"></path>
                    <path d="M43.3508157,11.3531276 C38.1477243,15.3846204 33.3895998,21.4610021 31.9691625,26.3409623 C30.0245058,33.0212603 28.0363824,42.4397221 37.7540797,45.3007759 C41.0179259,46.2615998 43.3080472,46.0895538 45.0324026,45.3120115 C43.1685696,47.0180752 40.5177965,47.9530922 35.917828,46.5988449 C26.2975381,43.766407 28.2926441,34.3500518 30.2373008,27.6694027 C31.8213057,22.228011 37.520686,15.2884151 43.3508157,11.3531276" id="Fill-42" fill="#4E4C72" mask="url(#mask-2)"></path>
                    <path d="M32.5353327,26.2562657 C27.7359518,27.461414 25.3358311,26.7574915 24.7686041,23.9697073 C24.2011621,21.1819231 18.4598445,21.9570166 20.8763131,16.8130172 C23.2932118,11.6692342 24.0852215,7.89608822 28.5490416,7.82361925 C33.0139372,7.75115027 34.3353157,9.52718102 38.4280829,10.732113 C42.5204199,11.9368286 38.9679918,17.824987 38.9679918,17.824987 C38.9679918,17.824987 37.3351439,25.0511175 32.5353327,26.2562657 Z" id="Fill-44" fill="#3D3B5C" mask="url(#mask-2)"></path>
                    <path d="M104.980879,96.2528128 C104.980879,96.2528128 96.3097003,101.337121 94.9290639,100.883657 C93.548602,100.430369 91.2160614,82.3053294 92.9714893,81.0960922 C94.7269173,79.8866795 101.534263,80.6687863 101.936461,81.4652887 C102.338485,82.2617912 106.630695,95.3120024 104.980879,96.2528128" id="Fill-46" fill="#4E50C0" mask="url(#mask-2)"></path>
                    <path d="M135.272521,84.4001642 C134.569372,84.690009 133.833056,84.7346005 133.206192,84.890144 C131.961367,85.1993001 131.127993,85.4243642 131.144227,85.3676593 C131.165001,85.2932231 130.807317,85.2003534 131.45251,84.9245532 C132.228452,84.5938037 134.027521,84.2454984 135.131821,83.672129 C135.757812,83.3476995 137.107201,82.7458899 137.107201,82.7458899 C137.107201,82.7458899 138.588387,81.4137627 138.551379,81.2822705 C138.350106,80.5709132 137.21997,81.1476182 136.425349,81.6976385 C135.741927,81.7952483 134.340342,82.4672808 134.340342,82.4672808 C134.340342,82.4672808 131.208118,83.2069027 131.104427,82.7753834 C131.064277,82.6100087 132.861426,82.1316156 134.623662,81.1649983 C136.641461,80.0577598 136.987449,78.9845794 136.852161,78.6123984 C136.645302,78.0425401 135.540304,78.8299136 135.540304,78.8299136 C135.540304,78.8299136 134.027696,79.9132764 133.58238,80.0879556 C133.060255,80.2928308 125.993157,81.8045528 125.930313,81.3867269 C125.867644,80.9689011 126.447026,80.2917774 126.769099,80.0809334 C127.090648,79.8699138 127.718908,79.5470643 128.040981,79.337098 C128.36253,79.1259028 128.462905,78.3527495 128.23824,77.9493193 C128.0134,77.545538 126.515107,78.0788804 126.515107,78.0788804 C126.515107,78.0788804 124.80716,78.5132086 123.979896,79.2675774 C121.114233,81.8809201 121.351118,82.0798263 120.974755,82.4058358 C120.529788,82.7906569 112.746972,83.9542492 112.746972,83.9542492 C112.746972,83.9542492 108.376251,83.3710026 102.901362,84.2215767 L105.372317,93.0833347 C113.546509,90.9081825 118.799672,89.4398813 120.160234,89.1119407 C120.160234,89.1119407 123.655379,89.4979907 125.859614,89.6700367 C128.063849,89.8415559 130.252897,89.0378556 130.882554,88.9927375 C130.975772,88.9858907 133.067587,88.7137773 135.566488,87.7060796 C137.720274,86.8379498 135.293119,86.699962 135.293119,86.699962 C135.293119,86.699962 131.023603,87.610401 131.015573,87.2687669 C131.009638,87.0057824 133.367839,86.6429059 135.760256,85.7063089 C136.375598,85.4650935 136.981863,85.2252825 137.53733,85.0014472 C138.994251,84.4106976 139.060935,83.3712242 137.440621,83.7518319 C136.868047,83.885782 135.922951,84.1315619 135.272521,84.4001642 Z" id="Fill-48" fill="#F8A492" mask="url(#mask-2)"></path>
                </g>
                <path d="M66.6736018,31.1448064 C65.70664,30.9863318 64.7396782,30.8278572 63.7727164,30.6693825" id="Path-37" stroke="#464462"></path>
                <path d="M67.4258823,27.5830463 C66.6711904,27.439713 66.2219667,27.3380258 66.0782113,27.2779847 C65.3929367,26.9909371 64.3293783,26.5903019 63.3905794,26.6808389 C61.9093284,27.0386585 61.2810805,27.2956751 61.2642684,27.204847 C61.2247966,26.9925314 61.3249917,26.3398074 64.5386555,25.8691873 C64.7935167,25.8318851 65.7343802,25.9691036 67.3612458,26.2808428 L67.4258823,27.5830463 Z" id="Fill-1" fill="#413F62"></path>
                <path d="M64.6298738,30.3690943 C64.5868046,30.6586906 64.7402879,30.7742835 64.7271984,30.939447 C64.9495406,30.911901 65.0628046,31.0224918 65.3965969,31.0640263 C65.7004798,31.1022409 65.9561076,31.1759246 66.1531511,31.2484688 C66.3935991,30.9594611 66.4834378,30.600155 66.3668327,30.322912 C66.2564397,30.0607927 66.0019836,29.968475 65.7480505,29.876604 C65.6487501,29.8403151 65.0058048,29.6071349 64.751458,29.9007563 C64.713947,29.9439208 64.6849913,29.9988387 64.6298738,30.3690943 Z" id="Fill-8" fill="#545A83"></path>
                <path d="M66.0155877,28.4716107 C65.2017172,27.960291 63.8091118,28.6209837 62.3595795,29.4506191 C61.9183534,29.7031536 61.1289229,30.7154363 61.4404651,30.6639344 C62.5624012,30.478464 63.4098953,29.1546191 64.5398368,29.0523513 C65.0756681,29.0038548 65.7667301,29.8555399 66.2670007,30.1416985 C67.4767116,30.8336624 67.5657571,30.2402644 67.0804922,29.8387212 L66.0155877,28.4716107 Z" id="Path-19" fill="#CAA199" transform="translate(64.362664, 29.478957) rotate(6.000000) translate(-64.362664, -29.478957) "></path>
                <path d="M62.0904487,29.9700456 C62.2188394,29.8757782 62.4181955,29.7232001 62.5652412,29.615264 C62.7111895,29.5049713 63.8279045,28.8545515 65.3187013,28.8133607 C66.186647,28.7838694 66.9291548,30.0850656 67.0282826,30.2076131 C67.2170278,30.4380967 66.6544491,30.3041209 66.816492,30.3734074 C66.9807296,30.4431652 67.0820521,30.4714454 67.0820521,30.4714454 C67.0820521,30.4714454 66.9829243,30.5039676 66.8007632,30.512923 C66.6218942,30.5176364 66.3815769,30.3003758 65.8461351,30.2159723 C65.3106932,30.1315688 64.2818914,29.875008 64.0993646,29.9433518 C63.7324819,30.0658994 62.3362397,30.3752593 62.26418,30.4030682 C61.6877024,30.6264817 61.4248168,30.7273812 61.4248168,30.7273812 C61.4248168,30.7273812 61.5648153,30.3480575 62.0904487,29.9700456 Z" id="Fill-6" fill="#464462" transform="translate(64.253434, 29.770124) rotate(6.000000) translate(-64.253434, -29.770124) "></path>
            </g>
        </g>
    </g>
</svg>