<?xml version="1.0" encoding="UTF-8"?>
<svg width="152px" height="98px" viewBox="0 0 152 98" version="1.1" xmlns="http://www.w3.org/2000/svg" xmlns:xlink="http://www.w3.org/1999/xlink">
    <title>3F13D4A6-27C1-4348-8538-3081D1016215</title>
    <g id="Page-1" stroke="none" stroke-width="1" fill="none" fill-rule="evenodd">
        <g id="Portfolio_Аrtists" transform="translate(-854.000000, -4452.000000)">
            <g id="Group-15" transform="translate(854.000000, 4452.000000)">
                <g id="Group-12">
                    <g id="Group-10">
                        <g id="Group-8">
                            <path d="M27.1566265,0 L148.301205,0 C149.958059,-7.21818092e-15 151.301205,1.34314575 151.301205,3 L151.301205,13.626506 C151.301205,15.2833603 149.958059,16.626506 148.301205,16.626506 L27.1566265,16.626506 L27.1566265,16.626506 L27.1566265,0 Z" id="Rectangle" fill="#E7EAF6"></path>
                            <path d="M27.7108434,22.7228916 L148.855422,22.7228916 C150.512276,22.7228916 151.855422,24.0660373 151.855422,25.7228916 L151.855422,36.3493976 C151.855422,38.0062518 150.512276,39.3493976 148.855422,39.3493976 L27.7108434,39.3493976 L27.7108434,39.3493976 L27.7108434,22.7228916 Z" id="Rectangle-Copy-2" fill="#E7EAF6"></path>
                            <path d="M27.7108434,45.4457831 L148.855422,45.4457831 C150.512276,45.4457831 151.855422,46.7889289 151.855422,48.4457831 L151.855422,59.0722892 C151.855422,60.7291434 150.512276,62.0722892 148.855422,62.0722892 L27.7108434,62.0722892 L27.7108434,62.0722892 L27.7108434,45.4457831 Z" id="Rectangle-Copy-16" fill="#E7EAF6"></path>
                            <path d="M4,0 L23.8313253,0 L23.8313253,0 L23.8313253,16.626506 L4,16.626506 C1.790861,16.626506 2.705415e-16,14.835645 0,12.626506 L0,4 C-2.705415e-16,1.790861 1.790861,4.05812251e-16 4,0 Z" id="Rectangle-Copy-17" fill="#F6F8FE"></path>
                            <path d="M4.55421687,22.7228916 L24.3855422,22.7228916 L24.3855422,22.7228916 L24.3855422,39.3493976 L4.55421687,39.3493976 C2.34507787,39.3493976 0.554216867,37.5585366 0.554216867,35.3493976 L0.554216867,26.7228916 C0.554216867,24.5137526 2.34507787,22.7228916 4.55421687,22.7228916 Z" id="Rectangle-Copy-18" fill="#F6F8FE"></path>
                            <path d="M4.55421687,45.4457831 L24.3855422,45.4457831 L24.3855422,45.4457831 L24.3855422,62.0722892 L4.55421687,62.0722892 C2.34507787,62.0722892 0.554216867,60.2814282 0.554216867,58.0722892 L0.554216867,49.4457831 C0.554216867,47.2366441 2.34507787,45.4457831 4.55421687,45.4457831 Z" id="Rectangle-Copy-19" fill="#F6F8FE"></path>
                            <polyline id="Path-13" stroke="#7E8CCC" stroke-width="2" points="7.7779334 9.41462464 11.9156627 13.1841668 19.143164 2.11843608"></polyline>
                            <polyline id="Path-13-Copy" stroke="#7E8CCC" stroke-width="2" points="8.33215027 32.1375162 12.4698795 35.9070584 19.6973809 24.8413276"></polyline>
                            <polyline id="Path-13-Copy-2" stroke="#7E8CCC" stroke-width="2" points="8.33215027 54.8604078 12.4698795 58.62995 19.6973809 47.5642192"></polyline>
                        </g>
                        <rect id="Rectangle" fill="#FF6755" x="44.8915663" y="70.939759" width="70.939759" height="21.060241" rx="10.5301205"></rect>
                        <path d="M76.2620731,85.3493976 C76.9414849,85.3493976 77.5541007,85.2329815 78.0999203,85.0001494 C78.64574,84.7673172 79.0885028,84.4543297 79.4282087,84.0611869 C79.7679146,83.6680441 80.0274652,83.2271898 80.2068605,82.7386239 C80.3862558,82.2500581 80.4759534,81.7347738 80.4759534,81.1927711 C80.4759534,80.6507684 80.3862558,80.1354841 80.2068605,79.6469183 C80.0274652,79.1583524 79.7679146,78.7174981 79.4282087,78.3243553 C79.0885028,77.9312125 78.64574,77.618225 78.0999203,77.3853928 C77.5541007,77.1525607 76.9414849,77.0361446 76.2620731,77.0361446 C75.5826612,77.0361446 74.968137,77.1525607 74.4185004,77.3853928 C73.8688639,77.618225 73.4261011,77.9312125 73.0902121,78.3243553 C72.7543231,78.7174981 72.4966809,79.1583524 72.3172857,79.6469183 C72.1378904,80.1354841 72.0481928,80.6507684 72.0481928,81.1927711 C72.0481928,81.7347738 72.1359819,82.2500581 72.3115603,82.7386239 C72.4947725,83.2271898 72.7543231,83.6680441 73.0902121,84.0611869 C73.4261011,84.4543297 73.8688639,84.7673172 74.4185004,85.0001494 C74.968137,85.2329815 75.5826612,85.3493976 76.2620731,85.3493976 Z M76.2620731,84.1241661 C75.3460121,84.1241661 74.6360649,83.841714 74.1322314,83.2768097 C73.6283979,82.7119055 73.3764811,82.0172259 73.3764811,81.1927711 C73.3764811,80.3683162 73.6283979,79.6736367 74.1322314,79.1087325 C74.6360649,78.5438282 75.3460121,78.2613761 76.2620731,78.2613761 C77.1857679,78.2613761 77.8976236,78.5438282 78.3976401,79.1087325 C78.8976567,79.6736367 79.147665,80.3683162 79.147665,81.1927711 C79.147665,82.0172259 78.8957483,82.7119055 78.3919148,83.2768097 C77.8957151,83.841714 77.1857679,84.1241661 76.2620731,84.1241661 Z M83.2126855,85.2005377 L83.2126855,81.7309569 L84.8157921,81.7309569 L87.2319028,85.2005377 L88.7090511,85.2005377 L85.8463606,81.0897142 L88.5029374,77.1850045 L87.0257891,77.1850045 L84.7928906,80.5286269 L83.2126855,80.5286269 L83.2126855,77.1850045 L81.9072986,77.1850045 L81.9072986,85.2005377 L83.2126855,85.2005377 Z" id="ОК" fill="#FFFFFF" fill-rule="nonzero"></path>
                    </g>
                    <path d="M33.087,13 L33.0867347,7.14628571 C33.0856735,6.78971429 33.0814286,6.52228571 33.074,6.344 L33.074,6.344 L37.975,13 L39.366,13 L39.366,3.9 L37.884,3.9 L37.884,9.555 C37.884,10.0143333 37.8883333,10.348 37.897,10.556 L37.897,10.556 L32.996,3.9 L31.605,3.9 L31.605,13 L33.087,13 Z M43.045,13.169 C43.9463333,13.169 44.7306667,12.9003333 45.398,12.363 C45.606,12.8483333 46.022,13.091 46.646,13.091 C46.9753333,13.091 47.27,13.039 47.53,12.935 L47.53,12.935 L47.53,11.934 C47.3566667,11.986 47.218,12.012 47.114,12.012 C46.8106667,12.012 46.659,11.8603333 46.659,11.557 L46.659,11.557 L46.659,9.321 C46.659,8.40233333 46.4055,7.71766667 45.8985,7.267 C45.3915,6.81633333 44.683,6.591 43.773,6.591 C42.993,6.591 42.1956667,6.72966667 41.381,7.007 L41.381,7.007 L41.381,8.281 C42.109,7.96033333 42.8586667,7.8 43.63,7.8 C44.15,7.8 44.553,7.92133333 44.839,8.164 C45.125,8.40666667 45.268,8.72733333 45.268,9.126 L45.268,9.126 L45.268,9.347 C44.6873333,9.22566667 44.1456667,9.165 43.643,9.165 C42.8803333,9.165 42.226,9.33183333 41.68,9.6655 C41.134,9.99916667 40.861,10.53 40.861,11.258 C40.861,11.8646667 41.0733333,12.3348333 41.498,12.6685 C41.9226667,13.0021667 42.4383333,13.169 43.045,13.169 Z M43.461,12.09 C43.1316667,12.09 42.8543333,12.0098333 42.629,11.8495 C42.4036667,11.6891667 42.291,11.4616667 42.291,11.167 C42.291,10.8116667 42.447,10.5516667 42.759,10.387 C43.071,10.2223333 43.4566667,10.14 43.916,10.14 C44.3146667,10.14 44.7653333,10.192 45.268,10.296 L45.268,10.296 L45.268,11.349 C44.774,11.843 44.1716667,12.09 43.461,12.09 Z M49.883,13 L49.883,8.788 C50.3856667,8.14666667 50.936,7.826 51.534,7.826 C51.9153333,7.826 52.2165,7.94516667 52.4375,8.1835 C52.6585,8.42183333 52.769,8.74033333 52.769,9.139 L52.769,9.139 L52.769,13 L54.16,13 L54.16,9.1 C54.16,9.00466667 54.1513333,8.86166667 54.134,8.671 C54.602,8.10766667 55.1176667,7.826 55.681,7.826 C56.0623333,7.826 56.3635,7.94516667 56.5845,8.1835 C56.8055,8.42183333 56.916,8.74033333 56.916,9.139 L56.916,9.139 L56.916,13 L58.307,13 L58.307,9.1 C58.307,8.398 58.1076667,7.80433333 57.709,7.319 C57.3103333,6.83366667 56.721,6.591 55.941,6.591 C55.1523333,6.591 54.4243333,6.92466667 53.757,7.592 C53.3583333,6.92466667 52.7083333,6.591 51.807,6.591 C50.9836667,6.591 50.2903333,6.90733333 49.727,7.54 L49.727,7.54 L49.727,6.76 L48.492,6.76 L48.492,13 L49.883,13 Z M63.13,13.169 C64.0226667,13.169 64.768,13.026 65.366,12.74 L65.366,12.74 L65.366,11.544 C64.7593333,11.8386667 64.1006667,11.986 63.39,11.986 C62.766,11.986 62.2286667,11.8538333 61.778,11.5895 C61.3273333,11.3251667 61.0673333,10.9286667 60.998,10.4 L60.998,10.4 L65.691,10.4 C65.7603333,10.036 65.7906667,9.67416667 65.782,9.3145 C65.7733333,8.95483333 65.6953333,8.61033333 65.548,8.281 C65.4006667,7.95166667 65.21,7.66133333 64.976,7.41 C64.742,7.15866667 64.4321667,6.95933333 64.0465,6.812 C63.6608333,6.66466667 63.2296667,6.591 62.753,6.591 C62.3803333,6.591 62.012,6.65816667 61.648,6.7925 C61.284,6.92683333 60.946,7.12183333 60.634,7.3775 C60.322,7.63316667 60.0706667,7.97983333 59.88,8.4175 C59.6893333,8.85516667 59.594,9.34266667 59.594,9.88 C59.594,10.9286667 59.9298333,11.739 60.6015,12.311 C61.2731667,12.883 62.116,13.169 63.13,13.169 Z M64.443,9.36 L60.985,9.36 C61.011,8.85733333 61.1995,8.463 61.5505,8.177 C61.9015,7.891 62.324,7.748 62.818,7.748 C63.4246667,7.748 63.8601667,7.92783333 64.1245,8.2875 C64.3888333,8.64716667 64.495,9.00466667 64.443,9.36 L64.443,9.36 Z" id="Name" fill="#B8BAD2" fill-rule="nonzero"></path>
                    <path d="M38.449,35.5 L38.449,34.148 L33.587,34.148 L33.587,31.587 L37.981,31.587 L37.981,30.235 L33.587,30.235 L33.587,27.752 L38.371,27.752 L38.371,26.4 L32.105,26.4 L32.105,35.5 L38.449,35.5 Z M44.559,32.926 L44.559,31.678 L39.827,31.678 L39.827,32.926 L44.559,32.926 Z M47.588,35.5 L47.588,31.288 C48.0906667,30.6466667 48.641,30.326 49.239,30.326 C49.6203333,30.326 49.9215,30.4451667 50.1425,30.6835 C50.3635,30.9218333 50.474,31.2403333 50.474,31.639 L50.474,31.639 L50.474,35.5 L51.865,35.5 L51.865,31.6 C51.865,31.5046667 51.8563333,31.3616667 51.839,31.171 C52.307,30.6076667 52.8226667,30.326 53.386,30.326 C53.7673333,30.326 54.0685,30.4451667 54.2895,30.6835 C54.5105,30.9218333 54.621,31.2403333 54.621,31.639 L54.621,31.639 L54.621,35.5 L56.012,35.5 L56.012,31.6 C56.012,30.898 55.8126667,30.3043333 55.414,29.819 C55.0153333,29.3336667 54.426,29.091 53.646,29.091 C52.8573333,29.091 52.1293333,29.4246667 51.462,30.092 C51.0633333,29.4246667 50.4133333,29.091 49.512,29.091 C48.6886667,29.091 47.9953333,29.4073333 47.432,30.04 L47.432,30.04 L47.432,29.26 L46.197,29.26 L46.197,35.5 L47.588,35.5 Z M59.392,35.669 C60.2933333,35.669 61.0776667,35.4003333 61.745,34.863 C61.953,35.3483333 62.369,35.591 62.993,35.591 C63.3223333,35.591 63.617,35.539 63.877,35.435 L63.877,35.435 L63.877,34.434 C63.7036667,34.486 63.565,34.512 63.461,34.512 C63.1576667,34.512 63.006,34.3603333 63.006,34.057 L63.006,34.057 L63.006,31.821 C63.006,30.9023333 62.7525,30.2176667 62.2455,29.767 C61.7385,29.3163333 61.03,29.091 60.12,29.091 C59.34,29.091 58.5426667,29.2296667 57.728,29.507 L57.728,29.507 L57.728,30.781 C58.456,30.4603333 59.2056667,30.3 59.977,30.3 C60.497,30.3 60.9,30.4213333 61.186,30.664 C61.472,30.9066667 61.615,31.2273333 61.615,31.626 L61.615,31.626 L61.615,31.847 C61.0343333,31.7256667 60.4926667,31.665 59.99,31.665 C59.2273333,31.665 58.573,31.8318333 58.027,32.1655 C57.481,32.4991667 57.208,33.03 57.208,33.758 C57.208,34.3646667 57.4203333,34.8348333 57.845,35.1685 C58.2696667,35.5021667 58.7853333,35.669 59.392,35.669 Z M59.808,34.59 C59.4786667,34.59 59.2013333,34.5098333 58.976,34.3495 C58.7506667,34.1891667 58.638,33.9616667 58.638,33.667 C58.638,33.3116667 58.794,33.0516667 59.106,32.887 C59.418,32.7223333 59.8036667,32.64 60.263,32.64 C60.6616667,32.64 61.1123333,32.692 61.615,32.796 L61.615,32.796 L61.615,33.849 C61.121,34.343 60.5186667,34.59 59.808,34.59 Z M65.567,28.064 C65.8096667,28.064 66.0111667,27.9925 66.1715,27.8495 C66.3318333,27.7065 66.412,27.5006667 66.412,27.232 C66.412,26.972 66.3318333,26.7705 66.1715,26.6275 C66.0111667,26.4845 65.8096667,26.413 65.567,26.413 C65.3243333,26.413 65.1206667,26.4845 64.956,26.6275 C64.7913333,26.7705 64.709,26.972 64.709,27.232 C64.709,27.5006667 64.7913333,27.7065 64.956,27.8495 C65.1206667,27.9925 65.3243333,28.064 65.567,28.064 Z M66.256,35.5 L66.256,29.26 L64.865,29.26 L64.865,35.5 L66.256,35.5 Z M69.441,35.5 L69.441,26.01 L68.05,26.01 L68.05,35.5 L69.441,35.5 Z" id="E-mail" fill="#B8BAD2" fill-rule="nonzero"></path>
                    <path d="M36.18,58 L36.18,50.265 L39.183,50.265 L39.183,48.9 L31.682,48.9 L31.682,50.265 L34.698,50.265 L34.698,58 L36.18,58 Z M43.382,58.169 C44.2746667,58.169 45.02,58.026 45.618,57.74 L45.618,57.74 L45.618,56.544 C45.0113333,56.8386667 44.3526667,56.986 43.642,56.986 C43.018,56.986 42.4806667,56.8538333 42.03,56.5895 C41.5793333,56.3251667 41.3193333,55.9286667 41.25,55.4 L41.25,55.4 L45.943,55.4 C46.0123333,55.036 46.0426667,54.6741667 46.034,54.3145 C46.0253333,53.9548333 45.9473333,53.6103333 45.8,53.281 C45.6526667,52.9516667 45.462,52.6613333 45.228,52.41 C44.994,52.1586667 44.6841667,51.9593333 44.2985,51.812 C43.9128333,51.6646667 43.4816667,51.591 43.005,51.591 C42.6323333,51.591 42.264,51.6581667 41.9,51.7925 C41.536,51.9268333 41.198,52.1218333 40.886,52.3775 C40.574,52.6331667 40.3226667,52.9798333 40.132,53.4175 C39.9413333,53.8551667 39.846,54.3426667 39.846,54.88 C39.846,55.9286667 40.1818333,56.739 40.8535,57.311 C41.5251667,57.883 42.368,58.169 43.382,58.169 Z M44.695,54.36 L41.237,54.36 C41.263,53.8573333 41.4515,53.463 41.8025,53.177 C42.1535,52.891 42.576,52.748 43.07,52.748 C43.6766667,52.748 44.1121667,52.9278333 44.3765,53.2875 C44.6408333,53.6471667 44.747,54.0046667 44.695,54.36 L44.695,54.36 Z M48.777,58 L48.777,48.51 L47.386,48.51 L47.386,58 L48.777,58 Z M51.182,58.143 C51.4333333,58.143 51.6413333,58.0693333 51.806,57.922 C51.9706667,57.7746667 52.053,57.5623333 52.053,57.285 C52.053,57.0163333 51.9706667,56.8105 51.806,56.6675 C51.6413333,56.5245 51.4333333,56.453 51.182,56.453 C50.9306667,56.453 50.7205,56.5245 50.5515,56.6675 C50.3825,56.8105 50.298,57.0163333 50.298,57.285 C50.298,57.5623333 50.3825,57.7746667 50.5515,57.922 C50.7205,58.0693333 50.9306667,58.143 51.182,58.143 Z" id="Tel." fill="#B8BAD2" fill-rule="nonzero"></path>
                </g>
                <g id="freepik--Arrow--inject-79" transform="translate(103.000000, 77.000000)" fill="#464462" fill-rule="nonzero">
                    <polygon id="Path" points="0.22 0.52 3.36 17.15 5.93 12.51 11.47 20.8 14.23 18.94 8.7 10.65 13.78 9.87"></polygon>
                </g>
            </g>
        </g>
    </g>
</svg>