<svg xmlns="http://www.w3.org/2000/svg" width="153" height="121" viewBox="0 0 153 121">
    <g fill="none" fill-rule="evenodd">
        <g fill-rule="nonzero">
            <g transform="translate(-738 -4074) translate(738.303 4074.909)">
                <ellipse cx="73.705" cy="60.18" fill="#80A4E9" rx="46.069" ry="45.565"/>
                <path fill="#FFF" d="M58.017 76.32c0 2.838-1.833 5.397-4.644 6.482-2.81 1.084-6.045.483-8.194-1.525-2.15-2.009-2.79-5.027-1.622-7.647 1.167-2.62 3.911-4.327 6.953-4.323 1.993 0 3.904.74 5.312 2.055 1.408 1.316 2.198 3.1 2.195 4.959zM47.36 54.636c.022 1.589-1.042 3.033-2.692 3.654-1.65.622-3.562.3-4.838-.817-1.276-1.117-1.665-2.806-.984-4.276.681-1.47 2.297-2.43 4.09-2.43 2.422 0 4.393 1.724 4.423 3.869z" opacity=".2"/>
                <path fill="#7E94CC" d="M30.514 71.724c.197.79-38.939 38.504-28.852 46.53 10.087 8.025 52.53-12.576 88.707-41.914 36.178-29.338 69.167-65.025 60.117-74.41-9.05-9.384-54.244 18.496-54.244 18.496l5.459 3.453s27.29-17.607 36.024-10.777c8.733 6.83-15.993 33.538-50.784 59.039-34.79 25.501-68.5 43.404-73.719 36.42-5.218-6.983 19.399-30.292 19.399-30.292l-2.107-6.545z" opacity=".4"/>
            </g>
        </g>
    </g>
</svg>
