<svg xmlns="http://www.w3.org/2000/svg" width="241" height="103" viewBox="0 0 241 103">
    <g fill="none" fill-rule="evenodd">
        <g>
            <g transform="translate(-1707 -4094) translate(1707.303 4094.909)">
                <path fill="#7E8CCC" fill-rule="nonzero" d="M76.492 5l17.266 3.075-.021.602.18-.46 21.809 9.378s-7.22 27.547-11.438 30.754l-11.145-4.715-.492 1.539 1.565 22.577s.884 5.988 1.856 12.295l.13.842c1 6.465 2.055 13 2.316 13.55 2.937 6.243-.82 6.974-1.057 7h-.012c-19.42-10.515-77.414 0-77.414 0 .829-2.695 1.715-9.285 2.473-16.121l.11-1.002c1.035-9.527 1.803-19.188 1.803-19.188s.551-7.141.562-15.173l-.001-.806c-.005-1.556-.032-3.137-.087-4.699l-8.55 7.27S-.585 43.004.015 25.84l21.617-13.342c3.863-2.941 16.221-5.225 16.221-5.225C54.965 19.576 63.97 12.323 76.492 5z"/>
                <path fill="#FFF" d="M75.027 51.262c.001.064-.016.103-.09.114-.085.014-.194-.04-.252.058-.046.08-.037.178-.048.268-.15 1.128-.3 2.255-.448 3.383-.141 1.071-.283 2.143-.421 3.216-.025.19-.002.203-.23.204-.225 0-.45-.003-.675 0-.1.001-.149-.032-.163-.142-.108-.856-.223-1.712-.337-2.568l-.404-3.049-.147-1.128c-.028-.218-.027-.222-.25-.238-.095-.007-.138-.036-.134-.139.004-.094.05-.12.133-.12.548.002 1.096.002 1.643 0 .086 0 .128.031.13.123.001.089-.032.123-.119.134-.237.03-.24.033-.213.278.119 1.068.24 2.135.36 3.202.075.656.147 1.312.22 1.968l.018.104c.074-.077.061-.151.07-.219l.365-3.032c.086-.711.172-1.422.256-2.133.017-.143.006-.153-.14-.166-.034-.004-.07-.005-.105-.006-.078-.002-.086-.055-.086-.116 0-.066.003-.133.093-.134.295-.001.59-.001.885.001.09.001.087.072.089.137zm6.139 7.293c-.574.076-1.092-.04-1.496-.49-.226-.25-.34-.547-.348-.883-.004-.252-.003-.506 0-.759.002-.165.005-.17.162-.171.26-.004.52-.004.78 0 .156.002.16.006.161.173.003.421.002.843 0 1.265 0 .113.009.225.041.333.058.194.202.296.411.296.202 0 .329-.093.394-.286.03-.088.036-.179.036-.27 0-.387.003-.773 0-1.16-.004-.419-.14-.78-.452-1.075-.342-.324-.663-.669-1.008-.99-.36-.334-.508-.75-.523-1.223-.01-.288-.007-.577-.002-.865.015-.715.555-1.301 1.266-1.376.203-.021.408-.024.61.012.68.122 1.143.643 1.183 1.342.016.266.008.534.004.8-.002.148-.012.155-.16.157-.26.004-.52.003-.78 0-.153-.002-.162-.01-.164-.173-.004-.239-.001-.478-.001-.717h-.001v-.59c0-.099-.004-.197-.03-.293-.058-.2-.195-.298-.408-.294-.2.004-.326.101-.38.3-.027.102-.036.207-.035.313.002.31 0 .618 0 .928.003.456.142.849.488 1.167.332.304.636.638.965.944.364.34.516.76.527 1.244.007.295-.005.59.004.885.024.764-.502 1.358-1.244 1.456zm-30.6-4.947v-1.643c0-.07-.001-.14.009-.21.046-.316.214-.452.534-.437.238.012.372.125.427.36.023.096.026.194.026.293V54.477c-.001.189-.005.192-.186.195-.217.003-.435.003-.653 0-.15-.004-.155-.01-.156-.158-.003-.302-.001-.604-.001-.906zm1.93 2.644c-.254-.003-.507-.003-.76 0-.169.001-.172.004-.173.182-.002.414-.002.829 0 1.243 0 .1-.007.197-.03.293-.052.211-.182.324-.398.347-.315.033-.51-.118-.56-.433-.007-.049-.009-.098-.009-.147v-2.593c0-.207.003-.21.214-.21.534-.002 1.068 0 1.602-.001l.169-.002c.074-.002.119-.034.116-.115-.001-.035.001-.07.001-.105 0-.731.002-1.462 0-2.192-.003-.623-.318-1.046-.862-1.313-.306-.15-.637-.162-.97-.135-.716.058-1.4.652-1.38 1.482.018.752.004 1.504.004 2.256v2.339c.003.361.13.671.379.933.585.614 1.68.671 2.326.12.303-.259.482-.585.5-.986.01-.266.005-.534.002-.8-.002-.158-.006-.161-.172-.163zm-5.842-3.096V52c0-.084.003-.168.014-.251.05-.364.382-.541.719-.39.111.05.176.138.212.248.033.1.045.204.045.31-.002.849 0 1.697-.001 2.546 0 .207-.003.208-.21.21-.204.002-.407.003-.61 0-.16-.004-.167-.01-.168-.17-.003-.448 0-.897 0-1.346h-.001zm2.096 3.232c.002-.119-.06-.139-.157-.138-.253.003-.506 0-.759.001-.186.002-.19.004-.19.186-.002.415-.001.83 0 1.244 0 .099-.004.196-.03.292-.06.227-.186.332-.419.345-.302.018-.48-.124-.526-.421-.009-.062-.014-.126-.014-.189-.001-.85-.002-1.7 0-2.55 0-.22.004-.223.225-.224.512-.002 1.025 0 1.538 0 .056 0 .113 0 .169-.002.151-.007.154-.01.162-.155v-.063-2.192c-.001-.623-.315-1.046-.857-1.315-.292-.144-.608-.157-.927-.14-.702.038-1.445.608-1.424 1.508.017.744.003 1.49.003 2.234l.001 2.318c.001.384.138.711.41.984.594.594 1.684.63 2.312.073.275-.243.45-.543.474-.91.019-.295.003-.59.009-.886zm28.802 1.467c-.034.387-.385.584-.735.413-.139-.067-.209-.186-.23-.331-.015-.097-.015-.196-.015-.294L76.57 54.8v-2.801c0-.091 0-.183.01-.273.035-.268.197-.405.473-.408.281-.003.443.124.489.389.012.069.012.14.012.21v5.791c0 .05.001.099-.003.147zm1.114-3.033c0-.766-.007-1.532.001-2.297.01-.8-.606-1.292-1.134-1.415-.243-.056-.488-.061-.733-.035-.667.07-1.35.607-1.347 1.471.006 1.518-.001 3.035.003 4.552.002.647.333 1.084.91 1.346.253.115.526.138.803.13.788-.021 1.533-.62 1.502-1.54-.025-.737-.005-1.475-.005-2.212zm-12.833 2.847c0 .099 0 .199-.019.294-.047.23-.208.351-.456.355-.254.005-.412-.104-.48-.326-.024-.083-.027-.167-.027-.25V51.9c0-.036 0-.07.003-.106.026-.378.323-.575.683-.452.164.055.251.177.28.34.016.096.016.195.016.294.002.948.001 1.897.001 2.846v2.846zm1.118-3.774c0-.457.004-.913-.001-1.37-.01-.692-.463-1.251-1.135-1.415-.194-.047-.39-.048-.586-.047-.708.004-1.527.562-1.497 1.546.023.73.005 1.46.005 2.191 0 .766.006 1.532-.001 2.298-.008.83.635 1.323 1.19 1.436.159.032.319.042.481.042.799-.003 1.572-.59 1.55-1.562-.024-1.04-.006-2.08-.006-3.12zm4.327 4.493c0 .08-.036.115-.114.115l-.253.002c-.295 0-.59.001-.885-.001-.194-.002-.194-.004-.197-.204v-.168-6.134c0-.112.003-.224-.026-.335-.062-.236-.204-.336-.448-.315-.14.012-.254.075-.363.156-.06.046-.092.102-.087.18.003.049 0 .098 0 .147v6.197c.003.16-.038.227.201.222.129-.002.153.034.148.144-.003.067-.028.107-.1.108l-.083.002c-.485 0-.97.001-1.455-.001-.064 0-.147.026-.173-.073-.03-.11.014-.171.129-.182.23-.021.231-.021.231-.253V51.63v-.084c-.006-.155-.006-.155-.15-.166-.036-.003-.071-.003-.106-.003-.081 0-.109-.044-.109-.12 0-.085.026-.135.12-.135.407 0 .814.002 1.222-.001.103-.001.133.057.135.187.336-.24.674-.268 1.024-.238.498.043.834.336.942.821.04.18.05.361.05.545-.002 1.812-.001 3.625-.001 5.438v.168c.001.154-.027.21.194.208.135-.001.154.029.154.138zm-9.457-8.977c0-.084.006-.168-.02-.25-.082-.252-.344-.422-.607-.392-.283.033-.492.25-.508.531-.003.063-.001.127-.001.19v8.178c0 .122.006.238.068.347.128.23.376.348.622.293.254-.057.443-.278.445-.544.004-.64 0-1.279.002-1.918.001-.345-.041-.313.317-.315.225-.002.45.003.675-.001.108-.002.147.043.146.15-.003.513.005 1.026-.005 1.539-.006.267-.111.505-.28.713-.71.872-2.15.864-2.851-.017-.187-.234-.276-.502-.276-.8V55.07v-4.933c0-.834.444-1.404 1.257-1.579.624-.133 1.202-.023 1.696.407.29.253.453.57.457.959.005.477.003.955 0 1.433 0 .182-.003.185-.191.187-.253.002-.506.002-.76 0-.181-.002-.184-.005-.185-.194v-1.94zm-6.302 8.276c0 .098-.009.197-.029.293-.044.21-.176.307-.39.307-.163 0-.296-.07-.423-.164-.081-.06-.077-.143-.077-.227v-3.075-3.033c0-.26.173-.421.47-.442.253-.017.394.105.433.381.011.076.016.154.016.23v5.73zm.113-6.618c-.35-.03-.688.003-1.003.222-.03-.105-.062-.175-.18-.173-.393.009-.786.004-1.18.004-.08 0-.132.018-.137.115-.006.103.04.132.133.142.23.023.23.026.231.262v8.284c0 .056-.002.113-.001.169.003.093-.034.147-.134.143-.035 0-.07.004-.106.003-.088-.001-.121.041-.123.13-.002.108.057.129.146.129h.927c.204 0 .408.003.612-.002.122-.003.143-.038.135-.156-.008-.121-.098-.096-.17-.102-.176-.015-.18-.014-.18-.177-.003-.52-.002-1.04 0-1.56 0-.045-.018-.1.059-.135.274.175.586.228.916.205.559-.037.913-.348 1.014-.896.024-.131.039-.263.039-.397-.001-1.645-.002-3.289 0-4.933 0-.156-.02-.309-.053-.46-.11-.486-.446-.774-.945-.817zm-7.135-9.92c-.048-.004-.098-.008-.136-.052.003-.018 0-.042.009-.059.277-.483.66-.834 1.219-.952.363-.077.674.103.807.446.076.195.031.338-.142.454-.163.11-.352.14-.539.163-.405.05-.812.026-1.218 0zm-.2-.585c-.084-.171-.094-.36-.116-.545-.043-.343-.051-.686.015-1.028.015-.076.034-.151.06-.223.147-.402.426-.558.842-.476.195.039.263.13.23.329-.025.16-.08.312-.147.46-.113.25-.246.49-.385.726-.128.218-.26.434-.392.65-.025.04-.039.093-.107.107zm-2.227 1.023c-.16.297-.372.558-.613.852-.18-.497-.215-.942.064-1.367.128-.195.284-.23.47-.132.124.065.186.166.18.306-.006.122-.044.235-.1.34zm-.52 1.62c.12-.044.243-.07.37-.07.299-.001.5.157.577.453.065.25-.037.483-.28.621-.22.125-.459.17-.69.16-.372 0-.698-.094-1-.276-.127-.078-.132-.098-.024-.2.308-.29.646-.538 1.048-.688zm-1.174-.053c-.053-.001-.073-.02-.09-.043-.311-.439-.56-.907-.664-1.441-.015-.082-.019-.168-.014-.251.015-.29.205-.483.495-.503.197-.013.335.08.425.251.073.14.104.292.115.446.033.504-.037.994-.225 1.464-.01.026-.026.049-.042.077zm-1.805 5.966c0-.321-.004-.283.287-.286.077 0 .155-.003.232.003.306.02.522.24.54.543.002.028.002.056.002.084l.001 8.139c0 .168-.034.32-.145.45-.086.099-.191.173-.322.183-.16.012-.323.006-.484.008-.068.001-.105-.031-.107-.1-.001-.07-.004-.14-.004-.211v-4.386-4.427zm-5.064-4.068c-.043.384-.126.76-.213 1.135-.052.223-.085.449-.128.693-.09-.054-.11-.116-.137-.172-.23-.468-.396-.957-.457-1.478-.018-.162-.011-.323.03-.48.06-.236.2-.396.448-.448.235-.05.383.039.44.27.04.159.035.319.017.48zm-1.7 2.91c-.192.07-.387.123-.596.086-.219-.04-.344-.18-.412-.377-.048-.137-.015-.263.096-.364.079-.071.168-.127.27-.16.598-.191 1.187-.161 1.765.085.05.021.105.041.154.119-.44.192-.834.45-1.277.611zm-.573-2.289c-.074-.065-.14-.138-.19-.224-.139-.232-.073-.477.162-.613.08-.046.159-.049.24-.006.071.036.129.089.175.15.279.372.424.8.535 1.25-.339-.146-.65-.32-.922-.557zm-.07.289c.087 0 .125.04.175.1-.078.002-.127-.02-.175-.1zm1.32-.073c-.009-.006-.02-.01-.025-.019l-.003-.004.028.023zm-2.947-.594c-.459-.229-.822-.524-1.029-.978-.125-.276-.057-.524.156-.678.135-.097.252-.099.388-.002.04.028.076.062.109.098.302.34.483 1.065.376 1.56zm-.248.679c-.296.312-.642.545-1.066.646-.068.016-.14.022-.209.023-.283.005-.447-.111-.503-.35-.062-.262.046-.507.276-.623.175-.09.363-.1.554-.1.315.003.612.085.897.21.139.062.148.091.05.194zm7.274-10.777c-.03.07-.067.137-.122.247-.108-.207-.119-.39-.146-.566-.077-.494-.104-.991-.066-1.49.034-.437.378-.858.787-.973.04-.011.082-.022.123-.025.191-.016.294.069.309.258.01.12.003.238-.026.356-.044.177-.095.353-.164.521-.229.559-.462 1.115-.695 1.672zm-.365 5.143c-.556-.24-1.098-.504-1.576-.882-.166-.132-.319-.277-.433-.457-.197-.311-.168-.574.092-.838.094-.096.202-.176.322-.234.234-.112.461-.1.679.05.153.105.27.245.37.399.281.436.446.92.577 1.418.047.18.106.361.1.545-.054.036-.093.015-.13-.001zm-.112-5.39c-.031-.002-.049.003-.058-.004-.372-.292-.706-.62-.955-1.027-.037-.06-.065-.125-.088-.19-.06-.175-.028-.314.087-.402.14-.108.331-.123.474-.035.105.064.173.162.233.266.162.279.225.589.274.9.025.159.06.318.033.493zm.65 1.968c.031-.344.09-.725.273-1.075.089-.17.201-.322.36-.432.058-.04.12-.078.184-.103.226-.088.377.005.395.244.006.084.003.17-.014.252-.105.513-.373.919-.809 1.211-.057.039-.121.07-.186.097-.193.079-.211.064-.204-.194zm.092 1.936c.03-.3.095-.595.26-.857.027-.041.053-.083.083-.122.158-.2.358-.27.552-.192.225.089.363.308.34.55-.016.168-.065.329-.144.48-.223.427-.524.794-.867 1.13-.02.018-.04.039-.09.027-.13-.321-.168-.665-.134-1.016zm9.773 1.545c-.182-.368-.467-.567-.89-.548-.163.007-.322.033-.48.06-.046.008-.093.037-.138-.006-.002-.069.048-.114.078-.168.159-.284.28-.582.353-.9.032-.139.036-.279.02-.419-.014-.14-.078-.254-.216-.313-.344-.147-1.002.01-1.197.38-.093.176-.15.362-.188.556-.088.466-.07.938-.065 1.408.001.134-.006.267-.007.4 0 .13-.058.2-.187.24-.297.092-.57.239-.833.402-.21.13-.412.268-.618.403-.015.013-.032.027-.05.011-.018-.016-.005-.035.005-.052.044-.096.093-.19.129-.288.09-.245.068-.485-.055-.713-.171-.317-.495-.363-.75-.108-.053.055-.101.117-.144.18-.152.228-.233.479-.247.752-.015.31-.003.618.054.924.01.054.042.114-.004.16-.138.137-.28.269-.449.377-.033-.078-.01-.132 0-.186.11-.606.14-1.213.07-1.826-.025-.234-.153-.385-.353-.487-.136-.069-.28-.089-.43-.078-.249.018-.423.139-.514.373-.101.261-.129.53-.087.807.042.28.138.544.231.81.052.145.101.291.147.439.142.463.047.876-.276 1.233-.184.203-.384.392-.564.598-.164.189-.355.339-.572.46-.437.242-.914.39-1.374.597-.059-.135-.075-.268-.097-.399-.077-.452-.063-.91-.098-1.365-.068-.887-.046-1.77.099-2.648.117-.712.3-1.397.74-1.995.247-.334.416-.716.546-1.112.065-.196.1-.396.065-.602-.04-.238-.178-.375-.417-.407-.306-.042-.57.049-.78.277-.085.09-.162.187-.243.281-.063-.046-.068-.104-.083-.156-.073-.244-.073-.244.159-.368.323-.172.64-.353.926-.583.42-.338.567-.791.515-1.313-.032-.312-.321-.537-.62-.51-.143.014-.271.07-.388.153-.26.184-.437.432-.556.725-.039.095-.055.203-.132.282-.04-.032-.025-.068-.026-.1 0-.034.003-.07.011-.103.102-.416.228-.825.402-1.218.14-.314.273-.632.405-.95.152-.363.296-.73.364-1.12.081-.463-.188-.717-.65-.629-.11.022-.216.062-.317.112-.187.092-.336.228-.477.378-.105.112-.213.223-.317.338-.088.097-.182.111-.3.053-.114-.055-.223-.119-.349-.148-.4-.092-.74.158-.765.567-.007.105.003.21.032.313.1.365.284.687.519.98.17.214.347.424.525.633.204.238.352.507.442.807.313 1.045.43 2.117.427 3.205 0 .047.01.1-.047.135-.082-.027-.102-.108-.139-.172-.152-.261-.27-.54-.395-.815-.064-.14-.135-.278-.222-.406-.256-.377-.608-.548-1.064-.503-.658.063-1.107.584-1.038 1.218.032.294.154.552.355.772.198.217.441.369.708.483.381.164.77.31 1.145.486.555.261.8.74.714 1.344-.048.341-.088.683-.096 1.028-.022.865.012 1.728.054 2.592.058 1.179.124 2.357.13 3.538.003.627-.064 1.249-.11 1.872-.002.034.002.075-.033.095-.048.027-.077-.014-.108-.04-.104-.085-.181-.194-.256-.305-.277-.41-.463-.866-.67-1.312-.21-.455-.497-.844-.921-1.127-.348-.233-.56-.568-.663-.97-.131-.516-.16-1.04-.101-1.569.026-.23.054-.46.049-.693-.004-.183-.024-.365-.097-.536-.104-.245-.294-.37-.555-.387-.42-.027-.786.264-.855.682-.028.166-.028.335-.02.504.01.221.091.43.097.65-.132-.212-.208-.45-.319-.672-.135-.271-.32-.498-.588-.643-.179-.097-.367-.112-.532.03-.19.16-.296.372-.33.617-.018.14.029.263.11.376.082.116.189.207.293.3.038.034.102.055.082.127-.037.02-.07.006-.103-.007-.445-.168-.786-.456-1.012-.877-.136-.254-.256-.516-.362-.784-.106-.269-.233-.528-.39-.77-.153-.238-.428-.33-.7-.248-.26.079-.405.28-.41.57-.003.107.011.21.037.313.072.292.232.54.384.793.15.252.13.289-.162.304-.084.005-.169.001-.253 0-.098-.002-.197-.007-.295-.01-.214-.006-.4.067-.564.2-.364.29-.511.953.148 1.246.382.169.77.2 1.169.06.286-.1.554-.238.82-.382.18-.097.365-.18.562-.237.643-.185 1.142.087 1.617.495-.093.08-.19.102-.28.14-.227.094-.454.19-.647.348-.22.18-.266.353-.16.616.155.385.533.662 1.019.516.478-.144.951-.302 1.41-.497.318-.135.602-.102.87.108.15.116.293.24.444.355.601.456 1.004 1.044 1.242 1.762.21.633.462 1.252.695 1.877.153.41.272.83.3 1.267.082 1.227.168 2.453.3 3.676.057.523.119 1.046.241 1.56.026.108.06.16.174.158.682-.008 1.364.025 2.045-.016.879-.052 1.49-.715 1.49-1.59v-6.198-.654c-.003-.47-.204-.836-.581-1.112-.31-.227-.655-.352-1.04-.355-.632-.004-1.265-.003-1.897-.004l-.063.002c-.08-.002-.112.036-.113.116 0 .08.015.14.113.138.042-.001.084.003.126.002.08-.001.114.041.117.117l.002.105v7.063c0 .058.019.124-.036.172-.05-.021-.055-.067-.064-.105-.244-1.005-.426-2.02-.523-3.05-.054-.577.004-1.152.027-1.727.044-1.074.089-2.148.057-3.224-.008-.246-.03-.491-.027-.737.01-.669.29-1.19.867-1.542.204-.124.409-.247.616-.367.312-.182.59-.397.82-.683.283-.352.855-.603 1.39-.382.116.049.238.083.36.12.377.113.75.09 1.115-.048.482-.183.869-.78.836-1.285-.01-.147-.087-.243-.24-.283-.109-.028-.221-.032-.335-.026-.204.011-.404.044-.604.084-.098.02-.199.045-.3.018.002-.068.045-.086.075-.112.217-.19.435-.378.653-.566.202-.175.404-.349.622-.504.493-.352 1.042-.484 1.637-.407.337.043.673.047 1.01.029.295-.017.586-.068.863-.176.494-.191.587-.441.35-.92z"/>
                <path fill="#F6F8FE" fill-rule="nonzero" d="M101 0h138.88v70.987c0 1.502-1.244 2.72-2.777 2.72H103.776c-1.533 0-2.776-1.218-2.776-2.72V0z"/>
                <path fill="#E2E6EE" fill-rule="nonzero" d="M101 0H239.879V13.966H101z"/>
                <ellipse cx="109.534" cy="6.595" fill="#FAFAFA" fill-rule="nonzero" rx="1" ry="1.164"/>
                <circle cx="116.129" cy="6.595" r="1.164" fill="#FAFAFA" fill-rule="nonzero"/>
                <circle cx="122.336" cy="6.595" r="1.164" fill="#FAFAFA" fill-rule="nonzero"/>
                <path fill="#EBEBEB" fill-rule="nonzero" d="M170.828 24.828H222.811V26.38H170.828zM170.828 32.586H222.811V34.138H170.828zM170.828 40.345H222.811V41.897H170.828zM170.828 48.103H222.811V49.655H170.828zM170.828 55.862H197.207V57.414H170.828z"/>
                <path fill="#FFF" fill-rule="nonzero" d="M112.638 23.276H157.638V60.516999999999996H112.638z"/>
                <path fill="#E5E7EB" fill-rule="nonzero" d="M112.638 49.284L125.917 40.025 135.18 46.406 149.744 34.138 157.638 41.916 157.638 60.517 112.716 60.517z"/>
                <path fill="#E5E7EB" fill-rule="nonzero" d="M139.793 34.138c0 1.57-.946 2.984-2.396 3.584-1.45.6-3.12.267-4.228-.843-1.11-1.111-1.44-2.78-.837-4.23.602-1.45 2.018-2.393 3.588-2.39 2.14.003 3.873 1.739 3.873 3.879z"/>
                <g fill-rule="nonzero">
                    <path fill="#5F687B" d="M11.78 11.033L20.316 32.344 23.88 26.754 28.81 33.052 34.691 27.614 29.087 22.358 34.258 18.958z" transform="translate(78 61.5)"/>
                    <path fill="#263238" d="M8.566 14.182c-.976.782-2.017 1.485-3.112 2.101-1.039.701-2.136 1.316-3.28 1.838.978-.778 2.018-1.479 3.111-2.096 1.04-.7 2.137-1.318 3.28-1.843zM9.228 9.886c-.47-.061-.932-.18-1.372-.351-.831-.258-1.975-.65-3.209-1.171s-2.341-.966-3.13-1.329c-.44-.169-.86-.385-1.252-.644.46.1.91.25 1.336.445l3.16 1.247 3.173 1.223c.451.148.885.342 1.294.58zM11.804.21c.157.376.262.77.313 1.171.145.732.32 1.756.464 2.886.144 1.13.24 2.165.283 2.926.055.404.055.814 0 1.218-.273-1.355-.474-2.723-.602-4.097-.227-1.36-.38-2.729-.458-4.103zM23.621 4.98c.036.083-1.541.744-3.323 1.856s-3.19 2.078-3.244 2.002c-.055-.076.295-.316.848-.732.716-.545 1.459-1.055 2.228-1.527 1.063-.719 2.243-1.26 3.491-1.598z" transform="translate(78 61.5)"/>
                </g>
                <g fill="#263238" fill-rule="nonzero">
                    <path d="M22.263 10.89c-.068-.848-.205-1.69-.408-2.52-.26-.963-.67-1.884-1.216-2.733-.725-1.128-1.672-2.116-2.791-2.91C14.889.62 10.994.073 7.51 1.275c-.987.332-1.916.802-2.755 1.395-.889.601-1.665 1.337-2.298 2.178-2.822 3.592-2.822 8.494 0 12.085.635.837 1.411 1.571 2.298 2.173.837.594 1.767 1.065 2.755 1.395 3.484 1.201 7.38.654 10.338-1.452 1.117-.794 2.064-1.78 2.791-2.905.547-.851.957-1.774 1.216-2.738.203-.828.34-1.668.408-2.515v.663c.002.268-.023.536-.073.8-.038.365-.108.726-.207 1.08-.248.984-.659 1.926-1.216 2.79-1.623 2.592-4.352 4.403-7.492 4.974-1.963.348-3.989.196-5.868-.44-1.016-.333-1.97-.814-2.828-1.424-.915-.616-1.716-1.369-2.372-2.23-2.91-3.692-2.91-8.74 0-12.433.34-.427.708-.833 1.101-1.218.401-.362.825-.7 1.271-1.012.861-.605 1.814-1.085 2.828-1.423C9.286.38 11.313.23 13.275.583c3.14.566 5.87 2.376 7.492 4.968.556.865.966 1.807 1.216 2.79.1.354.169.716.207 1.08.05.266.074.536.073.806v.492c.006.143 0 .172 0 .172z" transform="translate(170.828 33.362)"/>
                    <path d="M11.226 16.099c-.157-1.732-.21-3.47-.158-5.208-.052-1.738.001-3.477.158-5.208.164 1.731.219 3.47.164 5.208.055 1.737 0 3.476-.164 5.208z" transform="translate(170.828 33.362)"/>
                    <path d="M16.766 10.89c-1.84.148-3.688.198-5.534.15-1.848.048-3.698-.002-5.54-.15 1.842-.15 3.692-.2 5.54-.148 1.846-.052 3.694-.002 5.534.149z" transform="translate(170.828 33.362)"/>
                </g>
            </g>
        </g>
    </g>
</svg>
