<?xml version="1.0" encoding="utf-8"?>
<svg width="221px" height="217px" viewbox="0 0 221 217" version="1.1" xmlns:xlink="http://www.w3.org/1999/xlink" xmlns="http://www.w3.org/2000/svg">
  <g id="Планета-кнопка">
    <path d="M92.2429 11.175C82.0042 5.22748 68.773 10.4974 59.5883 17.9506C50.4036 25.4037 42.6493 35.1342 31.733 39.7078C24.7692 42.625 16.8079 43.3026 10.6534 47.6503C0.621706 54.727 -1.14748 68.9746 0.584064 81.133C2.31561 93.2915 6.588 105.356 5.10113 117.552C3.99069 126.473 -0.187602 135.432 2.07093 144.146C5.2517 156.342 19.2923 162.158 26.1243 172.773C31.0366 180.301 32.3729 190.634 39.6943 195.979C48.1827 202.172 59.9835 198.558 70.4669 199.499C83.3593 200.666 94.3885 208.91 106.641 213.088C126.688 219.628 148.701 215.035 164.46 201.024C172.233 193.947 177.973 184.875 185.614 177.667C192.164 171.474 200.107 166.656 205.471 159.429C210.835 152.202 212.999 143.751 215.201 135.319C218.457 123.01 221.713 110.193 219.342 97.6768C215.578 77.7076 198.526 63.1589 189.661 44.8647C186.198 37.6751 183.657 29.582 177.333 24.9332C170.539 20.0021 161.335 20.4161 153.374 17.7247C141.949 13.9605 133.329 3.68415 121.66 0.785699C110.645 -1.85012 99.1134 2.26951 92.2617 11.2879" transform="matrix(1 0 0 1 2.1316282E-13 -1.2789769E-13)" id="Path" fill="#F6F8FF" fill-rule="evenodd" stroke="none" />
    <path d="M144.251 144.251C177.25 111.251 177.25 57.7488 144.251 24.7495C111.251 -8.24983 57.7488 -8.24983 24.7495 24.7495C-8.24983 57.7488 -8.24983 111.251 24.7495 144.251C57.7488 177.25 111.251 177.25 144.251 144.251Z" transform="translate(20 23)" id="Oval" fill="#E6EBF7" fill-rule="evenodd" stroke="none" />
    <path d="M0.00387888 13.4555C0.18424 5.85035 6.49234 -0.17043 14.0976 0.00368312C21.7029 0.177797 27.7288 6.48095 27.561 14.0864C27.3931 21.6918 21.0949 27.7229 13.4894 27.5613C9.82904 27.4835 6.35009 25.9525 3.82012 23.3062C1.29014 20.6598 -0.0829234 17.1156 0.00387888 13.4555Z" transform="translate(119.435616 57.70092)" id="Path" fill="#D8DFF1" fill-rule="evenodd" stroke="none" />
    <path d="M1.27451e-06 8.08706C0.00183331 4.79028 2.00368 1.82429 5.06042 0.589368C8.11717 -0.645549 11.6175 0.0975889 13.9088 2.46793C16.2002 4.83827 16.8242 8.36177 15.4865 11.3749C14.1487 14.3881 11.1165 16.2882 7.82158 16.1783C3.45855 16.0328 -0.00242463 12.4525 1.27451e-06 8.08706L1.27451e-06 8.08706Z" transform="translate(142 133.0825)" id="Path" fill="#D8DFF1" fill-rule="evenodd" stroke="none" />
  </g>
</svg>