<?xml version="1.0" encoding="UTF-8"?>
<svg width="92px" height="26px" viewBox="0 0 92 26" version="1.1" xmlns="http://www.w3.org/2000/svg" xmlns:xlink="http://www.w3.org/1999/xlink">
    <title>8F8D67B3-400A-4E02-B601-9CED0815DF9B</title>
    <g id="Page-1" stroke="none" stroke-width="1" fill="none" fill-rule="evenodd">
        <g id="Index_Customer" transform="translate(-1780.000000, -5094.000000)" fill-rule="nonzero">
            <g id="Group-33" transform="translate(-1.807922, 4637.565824)">
                <g id="paypal" transform="translate(1782.110827, 457.342871)">
                    <path d="M69.5714286,6.10714286 L64.7142857,6.10714286 C64.4285714,6.10714286 64.1428571,6.39285714 64,6.67857143 L62,19.25 C62,19.5357143 62.1428571,19.6785714 62.4285714,19.6785714 L65,19.6785714 C65.2857143,19.6785714 65.4285714,19.5357143 65.4285714,19.25 L66,15.6785714 C66,15.3928571 66.2857143,15.1071429 66.7142857,15.1071429 L68.2857143,15.1071429 C71.5714286,15.1071429 73.4285714,13.5357143 73.8571429,10.3928571 C74.1428571,9.10714286 73.8571429,7.96428571 73.2857143,7.25 C72.4285714,6.53571429 71.1428571,6.10714286 69.5714286,6.10714286 M70.1428571,10.8214286 C69.8571429,12.5357143 68.5714286,12.5357143 67.2857143,12.5357143 L66.4285714,12.5357143 L67,9.25 C67,9.10714286 67.1428571,8.96428571 67.4285714,8.96428571 L67.7142857,8.96428571 C68.5714286,8.96428571 69.4285714,8.96428571 69.8571429,9.53571429 C70.1428571,9.67857143 70.1428571,10.1071429 70.1428571,10.8214286" id="Shape" fill="#139AD6"></path>
                    <g id="Group" transform="translate(26.964286, 6.071429)" fill="#263B80">
                        <path d="M7.60714286,0.0357142857 L2.75,0.0357142857 C2.46428571,0.0357142857 2.17857143,0.321428571 2.03571429,0.607142857 L0.0357142857,13.1785714 C0.0357142857,13.4642857 0.178571429,13.6071429 0.464285714,13.6071429 L2.75,13.6071429 C3.03571429,13.6071429 3.32142857,13.3214286 3.46428571,13.0357143 L4.03571429,9.60714286 C4.03571429,9.32142857 4.32142857,9.03571429 4.75,9.03571429 L6.32142857,9.03571429 C9.60714286,9.03571429 11.4642857,7.46428571 11.8928571,4.32142857 C12.1785714,3.03571429 11.8928571,1.89285714 11.3214286,1.17857143 C10.4642857,0.464285714 9.32142857,0.0357142857 7.60714286,0.0357142857 M8.17857143,4.75 C7.89285714,6.46428571 6.60714286,6.46428571 5.32142857,6.46428571 L4.60714286,6.46428571 L5.17857143,3.17857143 C5.17857143,3.03571429 5.32142857,2.89285714 5.60714286,2.89285714 L5.89285714,2.89285714 C6.75,2.89285714 7.60714286,2.89285714 8.03571429,3.46428571 C8.17857143,3.60714286 8.32142857,4.03571429 8.17857143,4.75" id="Shape"></path>
                        <path d="M22.3214286,4.60714286 L20.0357143,4.60714286 C19.8928571,4.60714286 19.6071429,4.75 19.6071429,4.89285714 L19.4642857,5.60714286 L19.3214286,5.32142857 C18.75,4.60714286 17.75,4.32142857 16.6071429,4.32142857 C14.0357143,4.32142857 11.75,6.32142857 11.3214286,9.03571429 C11.0357143,10.4642857 11.4642857,11.75 12.1785714,12.6071429 C12.8928571,13.4642857 13.8928571,13.75 15.1785714,13.75 C17.3214286,13.75 18.4642857,12.4642857 18.4642857,12.4642857 L18.3214286,13.1785714 C18.3214286,13.4642857 18.4642857,13.6071429 18.75,13.6071429 L20.8928571,13.6071429 C21.1785714,13.6071429 21.4642857,13.3214286 21.6071429,13.0357143 L22.8928571,5.03571429 C22.75,4.89285714 22.4642857,4.60714286 22.3214286,4.60714286 M19.0357143,9.17857143 C18.75,10.4642857 17.75,11.4642857 16.3214286,11.4642857 C15.6071429,11.4642857 15.0357143,11.1785714 14.75,10.8928571 C14.4642857,10.4642857 14.3214286,9.89285714 14.3214286,9.17857143 C14.4642857,7.89285714 15.6071429,6.89285714 16.8928571,6.89285714 C17.6071429,6.89285714 18.0357143,7.17857143 18.4642857,7.46428571 C18.8928571,7.89285714 19.0357143,8.60714286 19.0357143,9.17857143" id="Shape"></path>
                    </g>
                    <path d="M84.1428571,10.6785714 L81.8571429,10.6785714 C81.7142857,10.6785714 81.4285714,10.8214286 81.4285714,10.9642857 L81.2857143,11.6785714 L81.1428571,11.3928571 C80.5714286,10.6785714 79.5714286,10.3928571 78.4285714,10.3928571 C75.8571429,10.3928571 73.5714286,12.3928571 73.1428571,15.1071429 C72.8571429,16.5357143 73.2857143,17.8214286 74,18.6785714 C74.7142857,19.5357143 75.7142857,19.8214286 77,19.8214286 C79.1428571,19.8214286 80.2857143,18.5357143 80.2857143,18.5357143 L80.1428571,19.25 C80.1428571,19.5357143 80.2857143,19.6785714 80.5714286,19.6785714 L82.7142857,19.6785714 C83,19.6785714 83.2857143,19.3928571 83.4285714,19.1071429 L84.7142857,11.1071429 C84.5714286,10.9642857 84.4285714,10.6785714 84.1428571,10.6785714 M80.8571429,15.25 C80.5714286,16.5357143 79.5714286,17.5357143 78.1428571,17.5357143 C77.4285714,17.5357143 76.8571429,17.25 76.5714286,16.9642857 C76.2857143,16.5357143 76.1428571,15.9642857 76.1428571,15.25 C76.2857143,13.9642857 77.4285714,12.9642857 78.7142857,12.9642857 C79.4285714,12.9642857 79.8571429,13.25 80.2857143,13.5357143 C80.8571429,13.9642857 81,14.6785714 80.8571429,15.25" id="Shape" fill="#139AD6"></path>
                    <path d="M61.7142857,10.6785714 L59.2857143,10.6785714 C59,10.6785714 58.8571429,10.8214286 58.7142857,10.9642857 L55.5714286,15.8214286 L54.1428571,11.25 C54,10.9642857 53.8571429,10.8214286 53.4285714,10.8214286 L51.1428571,10.8214286 C50.8571429,10.8214286 50.7142857,11.1071429 50.7142857,11.3928571 L53.2857143,18.9642857 L50.8571429,22.3928571 C50.7142857,22.6785714 50.8571429,23.1071429 51.1428571,23.1071429 L53.4285714,23.1071429 C53.7142857,23.1071429 53.8571429,22.9642857 54,22.8214286 L61.8571429,11.5357143 C62.2857143,11.1071429 62,10.6785714 61.7142857,10.6785714" id="Path" fill="#263B80"></path>
                    <path d="M86.8571429,6.53571429 L84.8571429,19.3928571 C84.8571429,19.6785714 85,19.8214286 85.2857143,19.8214286 L87.2857143,19.8214286 C87.5714286,19.8214286 87.8571429,19.5357143 88,19.25 L90,6.67857143 C90,6.39285714 89.8571429,6.25 89.5714286,6.25 L87.2857143,6.25 C87.1428571,6.10714286 87,6.25 86.8571429,6.53571429" id="Path" fill="#139AD6"></path>
                    <path d="M16.4285714,1.82142857 C15.4285714,0.678571429 13.5714286,0.107142857 11,0.107142857 L3.85714286,0.107142857 C3.42857143,0.107142857 3,0.535714286 2.85714286,0.964285714 L0,19.6785714 C0,20.1071429 0.285714286,20.3928571 0.571428571,20.3928571 L5,20.3928571 L6.14285714,13.3928571 L6.14285714,13.6785714 C6.28571429,13.25 6.71428571,12.8214286 7.14285714,12.8214286 L9.28571429,12.8214286 C13.4285714,12.8214286 16.5714286,11.1071429 17.5714286,6.39285714 C17.5714286,6.25 17.5714286,6.10714286 17.5714286,5.96428571 C17.4285714,5.96428571 17.4285714,5.96428571 17.5714286,5.96428571 C17.7142857,4.10714286 17.4285714,2.96428571 16.4285714,1.82142857" id="Path" fill="#263B80"></path>
                    <path d="M17.4285714,5.96428571 L17.4285714,5.96428571 C17.4285714,6.10714286 17.4285714,6.25 17.4285714,6.39285714 C16.4285714,11.25 13.2857143,12.8214286 9.14285714,12.8214286 L7,12.8214286 C6.57142857,12.8214286 6.14285714,13.25 6,13.6785714 L4.57142857,22.3928571 C4.57142857,22.6785714 4.71428571,22.9642857 5.14285714,22.9642857 L8.85714286,22.9642857 C9.28571429,22.9642857 9.71428571,22.6785714 9.71428571,22.25 L9.71428571,22.1071429 L10.4285714,17.6785714 L10.4285714,17.3928571 C10.4285714,16.9642857 10.8571429,16.6785714 11.2857143,16.6785714 L11.8571429,16.6785714 C15.4285714,16.6785714 18.2857143,15.25 19,10.9642857 C19.2857143,9.25 19.1428571,7.67857143 18.2857143,6.67857143 C18.1428571,6.39285714 17.8571429,6.10714286 17.4285714,5.96428571" id="Path" fill="#139AD6"></path>
                    <path d="M16.4285714,5.53571429 C16.2857143,5.53571429 16.1428571,5.39285714 16,5.39285714 C15.8571429,5.39285714 15.7142857,5.39285714 15.5714286,5.25 C15,5.10714286 14.4285714,5.10714286 13.7142857,5.10714286 L8.14285714,5.10714286 C8,5.10714286 7.85714286,5.10714286 7.71428571,5.25 C7.42857143,5.39285714 7.28571429,5.67857143 7.28571429,5.96428571 L6.14285714,13.3928571 L6.14285714,13.6785714 C6.28571429,13.25 6.71428571,12.8214286 7.14285714,12.8214286 L9.28571429,12.8214286 C13.4285714,12.8214286 16.5714286,11.1071429 17.5714286,6.39285714 C17.5714286,6.25 17.5714286,6.10714286 17.7142857,5.96428571 C17.4285714,5.82142857 17.2857143,5.67857143 17,5.67857143 C16.5714286,5.53571429 16.5714286,5.53571429 16.4285714,5.53571429" id="Path" fill="#232C65"></path>
                </g>
            </g>
        </g>
    </g>
</svg>