<?xml version="1.0" encoding="UTF-8"?>
<svg width="352px" height="247px" viewBox="0 0 352 247" version="1.1" xmlns="http://www.w3.org/2000/svg" xmlns:xlink="http://www.w3.org/1999/xlink">
    <title>BF770F87-34A9-44FE-853E-D287D2F00507</title>
    <g id="Page-1" stroke="none" stroke-width="1" fill="none" fill-rule="evenodd">
        <g id="Index_Customer" transform="translate(-622.000000, -4009.000000)" fill-rule="nonzero">
            <g id="Group-27" transform="translate(622.000000, 4009.000000)">
                <path d="M159.656925,38.9330952 C146.140202,45.7527081 130.180536,43.3658436 115.100061,43.6386281 C100.019586,43.9114126 82.6303957,48.9170085 77.0800829,63.1631798 C72.3821156,75.1997965 78.1136357,89.302756 74.1069407,101.591698 C70.7512498,111.77338 61.5767908,118.531617 54.4694374,126.469646 C42.6842509,139.645138 37.3351081,156.113358 40.1337543,173.6875 C42.9324006,191.261642 54.6506447,209.225649 71.650575,213.549283 C90.1270092,218.241177 110.496053,209.498433 128.314772,216.324866 C140.308011,220.928104 148.811332,231.75083 159.650214,238.700015 C177.89175,250.388832 203.066143,249.665953 220.629829,236.947375 C229.609658,230.448284 236.549227,221.262265 245.891471,215.315563 C270.052445,199.889598 303.736871,209.55981 328.287106,194.74761 C347.823938,182.983778 356.481621,155.705327 347.454812,134.523609 C340.83739,119.029449 326.528724,107.818005 320.609285,92.0442403 C315.609305,78.8005521 317.132789,64.0838275 315.589171,49.9740485 C314.045553,35.8642694 287.543162,1.6667203 227.980416,19.2762441 C207.755762,23.2989534 171.569628,32.9454751 159.656925,38.9330952 Z" id="Path" fill="#EFF2FE"></path>
                <path d="M3.28039194,124.841577 L3.71178594,125.614593 C4.19099491,126.477975 4.90766423,127.18958 5.77888223,127.667085 L6.56078387,128.084692 L5.77888223,128.502298 C4.90766423,128.979803 4.19099491,129.691409 3.71178594,130.55479 L3.28039194,131.327806 L2.8579853,130.55479 C2.371299,129.693956 1.65263045,128.983454 0.781901639,128.502298 L-6.19887283e-14,128.084692 L0.781901639,127.667085 C1.65263045,127.185929 2.371299,126.475427 2.8579853,125.614593 L3.28039194,124.841577 Z" id="Path" fill="#455A64"></path>
                <path d="M331.00453,213 L331.435924,213.773016 C331.915133,214.636398 332.631802,215.348004 333.50302,215.825508 L334.284922,216.243115 L333.50302,216.660721 C332.631802,217.138226 331.915133,217.849832 331.435924,218.713213 L331.00453,219.48623 L330.582123,218.713213 C330.095437,217.852379 329.376768,217.141877 328.50604,216.660721 L327.724138,216.243115 L328.50604,215.825508 C329.376768,215.344352 330.095437,214.633851 330.582123,213.773016 L331.00453,213 Z" id="Path-Copy-7" fill="#455A64"></path>
                <path d="M306.338911,153.485246 L306.770305,154.258262 C307.249514,155.121644 307.966183,155.833249 308.837401,156.310754 L309.619303,156.728361 L308.837401,157.145967 C307.966183,157.623472 307.249514,158.335078 306.770305,159.198459 L306.338911,159.971475 L305.916504,159.198459 C305.429818,158.337625 304.711149,157.627123 303.840421,157.145967 L303.058519,156.728361 L303.840421,156.310754 C304.711149,155.829598 305.429818,155.119096 305.916504,154.258262 L306.338911,153.485246 Z" id="Path-Copy-6" fill="#455A64"></path>
                <path d="M91.6570326,206 L92.38501,207.323902 C93.2123515,208.825977 94.4606198,210.06006 95.9799601,210.878 L97.3280663,211.60659 L95.9799601,212.33518 C94.4606198,213.15312 93.2123515,214.387204 92.38501,215.889279 L91.6570326,217.222066 L90.9200678,215.889279 C90.0927263,214.387204 88.844458,213.15312 87.3251178,212.33518 L85.9770115,211.60659 L87.3251178,210.878 C88.844458,210.06006 90.0927263,208.825977 90.9200678,207.323902 L91.6570326,206 Z" id="Path" fill="#455A64"></path>
                <path d="M148.300711,-1.98063788e-13 L149.028688,1.32390164 C149.85603,2.82597668 151.104298,4.06006005 152.623638,4.878 L153.971744,5.60659016 L152.623638,6.33518033 C151.104298,7.15312027 149.85603,8.38720365 149.028688,9.88927869 L148.300711,11.2220656 L147.563746,9.88927869 C146.736404,8.38720365 145.488136,7.15312027 143.968796,6.33518033 L142.62069,5.60659016 L143.968796,4.878 C145.488136,4.06006005 146.736404,2.82597668 147.563746,1.32390164 L148.300711,-1.98063788e-13 Z" id="Path-Copy-5" fill="#B9BFD7"></path>
                <path d="M329.340207,36 L330.077172,37.3327869 C330.904514,38.8348619 332.152782,40.0689453 333.672122,40.8868852 L335.011241,41.6154754 L333.672122,42.3440656 C332.152782,43.1620055 330.904514,44.3960889 330.077172,45.8981639 L329.340207,47.2220656 L328.621217,45.9070492 C327.793876,44.4049741 326.545607,43.1708908 325.026267,42.3529508 L323.678161,41.6243607 L325.026267,40.8957705 C326.545607,40.0778305 327.793876,38.8437472 328.621217,37.3416721 L329.340207,36 Z" id="Path" fill="#455A64"></path>
                <path d="M102.927649,114.390164 L103.655626,115.722951 C104.482968,117.225026 105.731236,118.459109 107.250576,119.277049 L108.598683,119.996754 L107.250576,120.725344 C105.731236,121.543284 104.482968,122.777368 103.655626,124.279443 L102.927649,125.61223 L102.190684,124.279443 C101.363343,122.777368 100.115074,121.543284 98.595734,120.725344 L97.2476277,119.996754 L98.595734,119.277049 C100.115074,118.459109 101.363343,117.225026 102.190684,115.722951 L102.927649,114.390164 Z" id="Path" fill="#D0D5E9"></path>
            </g>
        </g>
    </g>
</svg>