<?xml version="1.0" encoding="UTF-8"?>
<svg width="87px" height="37px" viewBox="0 0 87 37" version="1.1" xmlns="http://www.w3.org/2000/svg" xmlns:xlink="http://www.w3.org/1999/xlink">
    <title>269D6706-6B8D-484E-A8B5-E6DB09342007</title>
    <defs>
        <polygon id="path-1" points="0 0 84.0953453 0 84.0953453 35 0 35"></polygon>
    </defs>
    <g id="Page-1" stroke="none" stroke-width="1" fill="none" fill-rule="evenodd">
        <g id="Index_Customer" transform="translate(-1945.000000, -5088.000000)">
            <g id="Group-33" transform="translate(-1.807922, 4637.565824)">
                <g id="Group-3" transform="translate(1947.110827, 451.342871)">
                    <mask id="mask-2" fill="white">
                        <use xlink:href="#path-1"></use>
                    </mask>
                    <g id="Clip-2"></g>
                    <path d="M45.560838,8.2456338 C45.5616831,14.7564789 45.5616831,21.2673239 45.560838,27.778169 C45.560838,28.2349296 45.5466831,28.2473944 45.0815423,28.2476761 C43.4392183,28.248662 41.7968239,28.2483803 40.1544296,28.2478169 C39.6425282,28.2476056 39.6406972,28.2462676 39.6405563,27.7442958 C39.639993,24.4946479 39.6402746,21.2451408 39.6402746,17.9955634 C39.6402746,14.7460563 39.639993,11.4964789 39.6405563,8.24690141 C39.6406268,7.76288732 39.6502042,7.75260563 40.1304155,7.75225352 C41.7727394,7.75112676 43.4151338,7.75098592 45.0575986,7.75239437 C45.5345704,7.7528169 45.5607676,7.77802817 45.560838,8.2456338 M38.2531051,12.8493662 C38.2547817,13.1669014 38.0978099,13.1469718 37.8706268,13.0999296 C36.5754155,12.8319014 35.3777394,13.0261268 34.3171761,13.8635211 C33.9756972,14.133169 33.8020352,14.4443662 33.8038662,14.9104225 C33.8206268,19.1817606 33.8137958,23.4530986 33.8135141,27.7245775 C33.8134437,28.2466197 33.8121056,28.2476761 33.2852042,28.2478873 C31.6540775,28.2484507 30.0229507,28.2410563 28.3918944,28.2538525 C28.0604155,28.2564085 27.9424577,28.1570423 27.9428792,27.8144366 C27.950838,21.2664789 27.950838,14.718662 27.9428792,8.17077465 C27.9425282,7.8406338 28.0618944,7.74514085 28.3740775,7.74746479 C29.7821761,7.75788732 31.1904155,7.75795775 32.5985141,7.74760563 C32.9144296,7.74528169 33.0673169,7.85795775 33.1171056,8.17612676 C33.178162,8.56598592 33.2825282,8.94908451 33.3879507,9.4243662 C33.7561901,8.91408451 34.0706268,8.49429577 34.5202042,8.19633803 C35.5904155,7.48690141 36.7453451,7.39119718 37.9618944,7.68957746 C38.1620352,7.73866197 38.2525282,7.8478169 38.2518239,8.06169014 C38.2468944,9.65753521 38.2447817,11.2535211 38.2531051,12.8493662 M21.6939366,13.2525352 C21.7092887,14.5782394 21.7002042,15.9042958 21.7002042,17.2301408 C21.7001338,18.4387324 21.7023873,19.6473239 21.6985141,20.8558451 C21.6975282,21.1503521 21.7210493,21.4407042 21.7678099,21.7311972 C21.942669,22.8173239 22.6797113,23.4530986 23.8430915,23.5085915 C24.5070352,23.5403521 25.155838,23.4374648 25.7821761,23.2265493 C26.083162,23.1251408 26.1430211,23.2148592 26.140838,23.5016197 C26.1306972,24.8509155 26.1321056,26.2003521 26.1398521,27.5497183 C26.1411901,27.791831 26.0711901,27.9583099 25.8342183,28.0376761 C23.5671056,28.7967606 21.285838,29.0911972 19.0687958,27.941338 C17.0904155,26.9152817 16.0197113,25.1903521 15.9992183,22.9888732 C15.941331,16.7706338 15.9830211,10.551338 15.9771056,4.33253521 C15.9768239,4.02387324 16.0914718,3.89964789 16.3847113,3.83929577 C18.0274577,3.50091549 19.6666831,3.14542254 21.3078099,2.79957746 C21.7162606,2.7134507 21.7795,2.76584507 21.7501338,3.19809859 C21.6571761,4.56957746 21.733162,5.94267606 21.6954155,7.31429577 C21.6860493,7.65450704 21.8037958,7.76204225 22.1395,7.75760563 C23.3244296,7.74225352 24.5097113,7.76035211 25.6946408,7.74640845 C26.0265423,7.74246479 26.1466127,7.84704225 26.1428995,8.18957746 C26.1272465,9.58570423 26.1271056,10.9822535 26.1428995,12.3784507 C26.1467535,12.7239437 26.0209085,12.8224648 25.6918944,12.8187324 C24.5069648,12.8049296 23.3216127,12.8232394 22.1367535,12.8073239 C21.7983732,12.8028169 21.6900634,12.9155634 21.6939366,13.2525352 M78.1675986,15.8458451 C77.2885141,15.8376056 76.4093592,15.8426761 75.5301338,15.8426761 C74.6510493,15.8427465 73.7718944,15.841831 72.8927394,15.8434507 C72.6998521,15.8438028 72.5283732,15.8235915 72.5528803,15.565493 C72.6416831,14.6277465 72.8483732,13.7380986 73.5454859,13.036338 C75.1060493,11.4653521 77.6311197,12.1092958 78.2909789,14.2517606 C78.4153451,14.6557042 78.4909789,15.0698592 78.5161901,15.4937324 C78.5315423,15.7533099 78.4233732,15.848169 78.1675986,15.8458451 M83.7094296,14.5592958 C83.3028099,12.7428169 82.5880211,11.0661972 81.2821761,9.70887324 C79.3211197,7.6706338 76.8743592,7.0756338 74.1553451,7.50697183 C71.2941479,7.96091549 69.3093592,9.63774648 68.0073873,12.1650704 C67.2232324,13.6873239 66.8456268,15.3238732 66.7364718,17.0323239 C66.5968239,19.2177465 66.8161901,21.3476761 67.6868239,23.3727465 C68.7366831,25.8143662 70.5493592,27.4235915 73.0980915,28.1906338 C74.9192183,28.738662 76.7717535,28.7528169 78.6383028,28.4953521 C80.0091479,28.3062676 81.320838,27.9276056 82.5542183,27.2896479 C82.7577394,27.1842958 82.8915423,27.0692958 82.8899225,26.8128873 C82.8817535,25.4751408 82.8891479,24.1373944 82.8843592,22.7996479 C82.883162,22.4601408 82.8257676,22.4292958 82.506331,22.580493 C82.0275986,22.8069718 81.533162,22.9935211 81.0260493,23.14 C79.1900634,23.6704225 77.3287958,23.9075352 75.4344296,23.5083099 C73.9405563,23.1935915 72.9247817,22.1140141 72.6904155,20.6490141 C72.6222465,20.2230282 72.6296408,20.2119718 73.0619648,20.2117606 C74.8104155,20.2107042 76.5588662,20.2112676 78.3073169,20.2112676 C80.0088662,20.2112676 81.7103451,20.2112676 83.4118944,20.2111268 C83.5174577,20.2111268 83.623162,20.2073944 83.7286549,20.2094366 C83.9319648,20.2132394 84.0144296,20.1188732 84.029993,19.9125352 C84.1655563,18.1130986 84.1047817,16.3252817 83.7094296,14.5592958 M45.5670131,4.3593662 C45.5696408,4.6765493 45.4616127,4.8106338 45.146331,4.87556338 C43.4483028,5.225 41.7547817,5.59633803 40.0596408,5.96007042 C39.6548521,6.04690141 39.6414718,6.03838028 39.6409789,5.62274648 C39.6395,4.2984507 39.6472465,2.97422535 39.6353606,1.65007042 C39.6327394,1.35042254 39.7274577,1.21880282 40.0335845,1.15690141 C41.6525282,0.829647887 43.2666831,0.479084507 44.8825986,0.136760563 C45.0425986,0.102887324 45.2068944,0.0842253521 45.3521056,0 L45.5633732,0 C45.562669,1.45316901 45.5548521,2.90640845 45.5670131,4.3593662 M14.8325282,22.7664085 C14.7228099,24.0003521 14.2940775,25.1152113 13.4837254,26.0698592 C12.5304155,27.1929577 11.3023873,27.8684507 9.90175352,28.248662 C7.33541549,28.9454225 4.7895,28.7388732 2.2579507,28.0457042 C1.70245775,27.893662 1.16471127,27.6911268 0.624852113,27.4929577 C0.371542254,27.3999296 0.262880282,27.2525352 0.264852113,26.9697887 C0.276260563,25.3619718 0.269077465,23.7540141 0.271190141,22.1461268 C0.271683099,21.7689437 0.292739437,21.758169 0.649147887,21.9374648 C2.08344366,22.6588732 3.57999296,23.1993662 5.1660493,23.4689437 C6.02548592,23.615 6.89309155,23.6809155 7.75358451,23.4879577 C8.28506338,23.3688028 8.7123169,23.0971127 8.8373169,22.5112676 C8.95957042,21.9387324 8.73555634,21.4994366 8.29133099,21.1588028 C8.11541549,21.0239437 7.92266901,20.9080986 7.72745775,20.8022535 C7.02273944,20.42 6.25914789,20.1807042 5.51119014,19.9040141 C4.24358451,19.4350704 2.98400704,18.9529577 1.91119014,18.0944366 C0.884711268,17.2730282 0.257246479,16.2242254 0.0642887324,14.9197183 C0.0506971831,14.8279577 0.0218239437,14.7384507 -7.04225374e-06,14.6478873 L-7.04225374e-06,13.3098592 C0.127950704,12.6428169 0.236753521,11.9721831 0.518443662,11.3442254 C1.40442958,9.36929577 2.99210563,8.24880282 5.02766901,7.74387324 C7.88464085,7.03521127 10.6848521,7.36795775 13.4304155,8.35007042 C13.6541479,8.43007042 13.7383028,8.55978873 13.7374577,8.79323944 C13.7315423,10.3894366 13.7361901,11.9856338 13.733162,13.581831 C13.7325282,13.9394366 13.6961901,13.9630986 13.3725282,13.8090141 C12.0368944,13.1734507 10.6391479,12.7492254 9.16935915,12.576338 C8.42393662,12.4887324 7.67633099,12.4083099 6.93154225,12.5994366 C6.4560493,12.7215493 6.09140141,12.9519014 5.98759859,13.4750704 C5.87907746,14.0216901 6.12006338,14.4114085 6.54527465,14.7071831 C7.24999296,15.1973239 8.07316197,15.418169 8.86921831,15.696831 C10.1887254,16.1587324 11.5130915,16.6130282 12.6485845,17.4626761 C14.4274577,18.7937324 15.0228803,20.6259859 14.8325282,22.7664085 M59.2762606,21.1876056 C58.8224577,22.2095775 58.1775282,23.0806338 57.0285141,23.3532394 C55.8633732,23.6296479 54.7702042,23.4110563 53.8196408,22.6315493 C53.6352042,22.4803521 53.5867535,22.2994366 53.5879507,22.0752113 C53.5929507,21.1835211 53.5878803,20.2917606 53.5875282,19.4000704 C53.5870352,18.0983803 53.5874577,16.7966901 53.5874577,15.495 C53.5699225,15.495 53.5523873,15.4950704 53.5348521,15.4950704 C53.5348521,15.0257042 53.5447817,14.5560563 53.530838,14.0871831 C53.5235845,13.8423944 53.6139366,13.6682394 53.7855563,13.5014085 C55.184993,12.1407042 57.5892183,12.3621127 58.7354155,13.9591549 C59.4133732,14.9037324 59.7246408,15.9815493 59.8259085,17.1152817 C59.9503451,18.5080282 59.8537958,19.8867606 59.2762606,21.1876056 M62.1475986,9.01697183 C60.400838,7.58760563 58.4051338,7.07035211 56.1828099,7.55366197 C55.1315423,7.78232394 54.2024577,8.27443662 53.3880211,8.97584507 C53.1989366,9.13873239 53.1209789,9.11408451 53.079993,8.87035211 C53.0392183,8.62774648 52.9546408,8.39098592 52.9297113,8.14760563 C52.8952042,7.8121831 52.7173169,7.73028169 52.4084437,7.73809859 C51.7400634,7.755 51.0709789,7.74309859 50.4021761,7.74316901 C49.6160493,7.74330986 48.8298521,7.74964789 48.0438662,7.74035211 C47.7774577,7.73725352 47.6449225,7.82830986 47.668162,8.10732394 C47.6778803,8.22380282 47.6692183,8.34183099 47.6692183,8.45915493 C47.6691479,16.4144366 47.669007,24.3696479 47.6694296,32.3249296 C47.6695,33.2166197 47.6737958,34.1083099 47.6760493,35 L47.9577394,35 C48.0352042,34.9747887 48.1110493,34.9422535 48.1902042,34.9254225 C49.8305563,34.5759155 51.4699225,34.2216901 53.1130915,33.8859859 C53.419993,33.8232394 53.5406972,33.7015493 53.5414718,33.3757746 C53.545838,31.5108451 53.5702746,29.6460563 53.5916831,27.7811972 C53.5934437,27.6330986 53.520838,27.4267606 53.6520352,27.3502113 C53.8133732,27.2560563 53.940838,27.4537324 54.0697817,27.5383803 C56.1873169,28.9290845 58.4135845,28.9928169 60.6779507,28.0006338 C62.8237958,27.0602113 64.0992183,25.3074648 64.8518239,23.1569718 C65.7991479,20.45 65.9371056,17.6685211 65.3952746,14.8651408 C64.9524577,12.5739437 63.9975282,10.5305634 62.1475986,9.01697183" id="Fill-1" fill="#666FED" mask="url(#mask-2)"></path>
                </g>
            </g>
        </g>
    </g>
</svg>