<svg width="53" height="48" viewBox="0 0 53 48" fill="none" xmlns="http://www.w3.org/2000/svg">
<path d="M19.6491 43.1689C17.0923 41.127 16.6748 37.399 18.7167 34.8421L45.8666 0.845392C46.1933 0.436315 46.7898 0.369525 47.1989 0.696216C50.226 3.11373 50.7203 7.52754 48.3028 10.5547L22.0946 43.3721C21.6234 43.9622 20.7631 44.0585 20.1731 43.5873L19.6491 43.1689Z" fill="#EF773A"/>
<path d="M2.00968 19.9448C4.84342 18.3087 8.46692 19.2796 10.103 22.1134L21.9163 42.5747C22.1781 43.0281 22.0228 43.6078 21.5694 43.8696C18.2144 45.8066 13.9243 44.6571 11.9873 41.3021L0.928524 22.1477C0.550971 21.4938 0.775027 20.6576 1.42897 20.28L2.00968 19.9448Z" fill="#5642AB"/>
</svg>
