<svg width="48" height="58" viewBox="0 0 48 58" fill="none" xmlns="http://www.w3.org/2000/svg">
<g filter="url(#filter0_d)">
<path d="M34.6659 26.7598L34.6145 26.7199C33.6275 25.955 32.1465 26.15 31.3109 27.2283L30.1527 28.7228C29.922 29.0205 29.4929 29.0748 29.1952 28.8441C28.8972 28.6132 28.8432 28.1844 29.0739 27.8867L31.2126 25.127C32.0482 24.0488 31.945 22.5649 30.9583 21.8002C29.9662 21.0314 28.5035 21.3017 27.6679 22.38L25.4011 25.3049C25.1702 25.6028 24.7414 25.6569 24.4437 25.4262C24.1457 25.1953 24.0914 24.7668 24.3223 24.4688L27.2115 20.7408C28.0468 19.6629 27.8929 18.1805 26.9062 17.4158L26.8514 17.3734C25.8894 16.6278 24.4592 16.8121 23.6527 17.8527L20.3994 22.0506C20.1685 22.3486 19.7397 22.4026 19.442 22.1719C19.144 21.941 19.0897 21.5125 19.3206 21.2145L22.4797 17.1382C22.4899 17.125 22.4992 17.11 22.5097 17.0964C22.5353 17.0633 22.5625 17.0314 22.5879 16.9986L29.9738 7.46834C30.8094 6.39013 30.6753 4.88274 29.6889 4.11828C28.7022 3.35359 27.2095 3.59981 26.3737 4.67642L14.115 20.4719C13.9381 20.6995 13.6377 20.7919 13.3636 20.7023C13.0898 20.613 12.9015 20.361 12.8935 20.073L12.7866 16.3136C12.7722 15.3046 12.3386 14.3471 11.59 13.67C10.8512 13.015 9.87324 12.6966 8.8904 12.791C8.87911 12.7919 8.86659 12.7938 8.8547 12.7942L8.24602 12.8168L5.0446 30.4599C4.53935 33.2449 5.52931 36.0009 7.63968 37.6365L15.2025 43.4976C18.4209 45.9918 23.2362 45.1914 25.9276 41.7254C27.3529 39.8901 28.4224 38.5138 29.284 37.4051C31.5871 34.4414 32.434 33.3512 34.9592 30.0773C35.79 29.0002 35.6502 27.5226 34.6659 26.7598Z" fill="white"/>
<path d="M14.51 20.7784L14.5098 20.7787C14.2038 21.1725 13.6834 21.3328 13.2083 21.1776M14.51 20.7784L13.2083 21.1776M14.51 20.7784L26.7687 4.98303C26.7687 4.98301 26.7687 4.98299 26.7687 4.98297C27.4589 4.09398 28.6433 3.94054 29.3826 4.51349C30.1215 5.08613 30.2686 6.27167 29.5786 7.16206L22.1927 16.6923C22.1841 16.7034 22.1745 16.7152 22.1607 16.7322L22.1597 16.7335C22.1472 16.7489 22.1309 16.769 22.1144 16.7902C22.1063 16.8007 22.0995 16.8101 22.0944 16.8171L22.0831 16.8334L22.0811 16.8363L18.9254 20.9082C18.5253 21.4245 18.6194 22.167 19.1357 22.5671C19.6515 22.9669 20.3944 22.8733 20.7946 22.3568L24.0479 18.159C24.6947 17.3244 25.8134 17.2015 26.5451 17.7686L26.5999 17.8111C27.3457 18.3891 27.5006 19.5515 26.8163 20.4345L23.9271 24.1625C23.527 24.6788 23.6211 25.4213 24.1374 25.8214C24.6532 26.2212 25.3961 26.1275 25.7963 25.6111L28.0631 22.6862C28.7597 21.7874 29.9151 21.6244 30.652 22.1955C31.3828 22.7618 31.5146 23.9211 30.8174 24.8208L28.6787 27.5804C28.2789 28.0962 28.3725 28.8391 28.889 29.2393C29.4049 29.6392 30.148 29.545 30.5479 29.0291L31.7061 27.5345C32.3842 26.6596 33.5541 26.5307 34.3082 27.1151L34.3596 27.155C35.0989 27.7279 35.2475 28.8849 34.5633 29.7719C32.0386 33.0452 31.1921 34.1349 28.8892 37.0983C28.0276 38.207 26.958 39.5833 25.5327 41.4188C22.9879 44.6959 18.481 45.4058 15.5088 43.1024L7.94597 37.2413C5.99489 35.7292 5.06183 33.1659 5.53656 30.5492L8.66622 13.3015L8.8724 13.2939C8.87252 13.2939 8.87263 13.2939 8.87275 13.2939C8.89656 13.293 8.91666 13.2909 8.92462 13.2901L8.92961 13.2896L8.93042 13.2895L8.93823 13.2887C9.78205 13.2076 10.6217 13.4807 11.2564 14.0425C11.9011 14.6264 12.2742 15.4515 12.2867 16.3207L12.2866 16.3207L12.2868 16.3278L12.3937 20.0869M14.51 20.7784L12.3937 20.0869M13.2083 21.1776C12.7338 21.0226 12.4076 20.5861 12.3937 20.0869M13.2083 21.1776L12.3937 20.0869" stroke="black"/>
</g>
<defs>
<filter id="filter0_d" x="0.914062" y="0.673828" width="46.5882" height="57.2758" filterUnits="userSpaceOnUse" color-interpolation-filters="sRGB">
<feFlood flood-opacity="0" result="BackgroundImageFix"/>
<feColorMatrix in="SourceAlpha" type="matrix" values="0 0 0 0 0 0 0 0 0 0 0 0 0 0 0 0 0 0 127 0"/>
<feOffset dx="4" dy="5"/>
<feGaussianBlur stdDeviation="4"/>
<feColorMatrix type="matrix" values="0 0 0 0 0 0 0 0 0 0 0 0 0 0 0 0 0 0 0.25 0"/>
<feBlend mode="normal" in2="BackgroundImageFix" result="effect1_dropShadow"/>
<feBlend mode="normal" in="SourceGraphic" in2="effect1_dropShadow" result="shape"/>
</filter>
</defs>
</svg>
