<svg width="856" height="630" viewBox="0 0 856 630" fill="none" xmlns="http://www.w3.org/2000/svg">
<path d="M135.215 646.999C95.1762 646.999 55.132 646.999 15.0936 646.999C7.08653 646.999 2.31223 644.998 0.770745 640.995C-0.770745 636.991 0 631.907 3.08298 625.747C19.8261 595.073 36.5635 564.393 53.3067 533.719C81.6816 480.146 88.1818 490.488 116.054 538.907C127.379 559.705 138.711 580.509 150.036 601.302C159.642 618.953 169.564 646.999 135.215 646.999Z" fill="#00A0E3"/>
<path d="M457.668 0.162017C481.061 0.680649 500.797 4.94207 516.808 14.4849C532.815 24.0263 548.639 42.6178 563.933 70.3876C657.764 240.758 752.11 414.292 843.333 581.911C879.656 648.432 828.379 647.546 794.69 646.798C771.296 646.279 751.562 642.018 735.55 632.475C719.543 622.934 703.626 604.388 688.426 576.572C595.339 406.242 501.899 235.697 409.025 65.0486C372.703 -1.47167 423.98 -0.585678 457.668 0.162017Z" fill="#FF6F20"/>
<path d="M253.751 260.4C277.144 260.919 296.878 265.18 312.891 274.723C328.898 284.265 344.814 302.81 360.014 330.626C406.53 415.736 449.7 497.622 495.574 581.913C531.897 648.433 480.621 647.547 446.931 646.8C423.538 646.281 403.804 642.02 387.791 632.477C371.784 622.935 355.868 604.39 340.668 576.574C294.982 492.979 250.655 408.974 205.107 325.287C168.784 258.767 220.061 259.653 253.751 260.4Z" fill="#5D3CB1"/>
</svg>
