<svg width="187" height="16" viewBox="0 0 187 16" fill="none" xmlns="http://www.w3.org/2000/svg">
<path d="M16.142 0.0175781C16.477 0.0175781 16.6444 0.187091 16.6444 0.519964V2.68922C16.6444 3.02209 16.4749 3.19124 16.142 3.19124H4.70319C4.26363 3.19124 3.94855 3.30616 3.76702 3.53359C3.58549 3.76102 3.49328 4.07614 3.49328 4.4698V5.24633C3.49328 6.0965 3.889 6.52489 4.68045 6.52489H13.2425C14.5666 6.52489 15.5635 6.86356 16.2334 7.54089C16.9033 8.2178 17.2378 9.19038 17.2378 10.452V12.2784C17.2378 13.3879 16.9107 14.2876 16.2562 14.9724C15.6016 15.6576 14.5802 16 13.1966 16H0.547895C0.199723 16 0.0227348 15.8325 0.0227348 15.4976V13.3287C0.0227348 12.9938 0.197656 12.8263 0.547895 12.8263H12.5346C12.9758 12.8263 13.2892 12.7114 13.4708 12.4839C13.6523 12.2565 13.7445 11.9435 13.7445 11.5478V10.6116C13.7445 9.75934 13.3471 9.33302 12.5573 9.33302H3.9953C2.67291 9.33302 1.67346 8.99356 1.00441 8.31706C0.335768 7.64056 0 6.66922 0 5.40596V3.73913C0 2.62804 0.327879 1.72906 0.981632 1.04512C1.63539 0.361186 2.65593 0.0175781 4.04117 0.0175781H16.142ZM25.4901 0.0175781C25.8251 0.0175781 25.9926 0.187091 25.9926 0.519964V15.4976C25.9926 15.8309 25.823 16 25.4901 16H23.0244C22.6758 16 22.4992 15.8325 22.4992 15.4976V0.519964C22.4992 0.185024 22.6742 0.0175781 23.0244 0.0175781H25.4901ZM49.4735 0.0175781C49.8084 0.0175781 49.9759 0.187091 49.9759 0.519964V2.75746C49.9759 3.10563 49.8064 3.28262 49.4735 3.28262H38.0347C37.4429 3.28262 36.9492 3.33306 36.5622 3.43106C36.1747 3.52906 35.8646 3.69858 35.6372 3.93345C35.4098 4.16832 35.2443 4.4859 35.1463 4.8808C35.0483 5.2757 34.9979 5.78061 34.9979 6.38763V9.67541C34.9979 10.2824 35.0475 10.7906 35.1463 11.1938C35.2452 11.597 35.4098 11.9179 35.6372 12.1527C35.8646 12.3876 36.1739 12.5563 36.5622 12.6551C36.95 12.7539 37.4409 12.8036 38.0347 12.8036H45.5692C45.9649 12.8036 46.2552 12.6998 46.4367 12.4951C46.6187 12.2909 46.7109 11.9282 46.7109 11.4109C46.7109 11.0416 46.7129 10.6724 46.7129 10.3031C46.7129 9.25652 46.7129 8.20954 46.7129 7.16296C46.7175 6.63243 47.0892 6.50175 47.3989 6.50175C48.0349 6.50216 48.6448 6.50175 49.268 6.50175C49.7245 6.50175 49.9532 6.73209 49.9532 7.18694V12.5067C49.9532 13.7836 49.7092 14.6871 49.2221 15.2123C48.7354 15.7374 48.0332 16 47.1219 16H37.8978C36.7425 16 35.7591 15.8933 34.9524 15.6803C34.1456 15.4674 33.4865 15.12 32.9775 14.6416C32.4685 14.1632 32.0946 13.538 31.8585 12.7693C31.6228 12.0006 31.5046 11.0685 31.5046 9.9723V6.04524C31.5046 4.94945 31.6237 4.01987 31.8585 3.25985C32.0938 2.49982 32.4685 1.8775 32.9775 1.39907C33.4865 0.920228 34.1469 0.568359 34.9524 0.348787C35.7583 0.129215 36.7408 0.0175781 37.8978 0.0175781H49.4735ZM107.996 0.0175781C108.331 0.0175781 108.498 0.185024 108.498 0.519964V9.62994C108.498 10.2386 108.548 10.7447 108.647 11.1483C108.745 11.5515 108.909 11.8711 109.137 12.1072C109.366 12.3429 109.674 12.5104 110.062 12.6092C110.45 12.7085 110.941 12.7581 111.535 12.7581H120.782C121.117 12.7581 121.284 12.9252 121.284 13.2601V15.4976C121.284 15.8325 121.117 16 120.782 16H111.398C110.241 16 109.259 15.8933 108.453 15.6803C107.646 15.4674 106.988 15.1209 106.478 14.6416C105.968 14.1619 105.595 13.538 105.359 12.7693C105.123 12.0006 105.005 11.0685 105.005 9.9723V0.519964C105.005 0.185024 105.18 0.0175781 105.53 0.0175781H107.996Z" fill="white"/>
<path d="M139.379 0.015625C141.13 0.015625 142.385 0.411339 143.147 1.2032C143.908 1.99465 144.288 3.16654 144.288 4.71926V6.40882C144.288 7.96112 143.908 9.13342 143.147 9.92487C142.385 10.7163 141.13 11.112 139.379 11.112H129.927V15.4956C129.927 15.8306 129.759 15.998 129.424 15.998H126.959C126.609 15.998 126.434 15.8306 126.434 15.4956V0.700777C126.434 0.244266 126.662 0.015625 127.119 0.015625H139.379ZM129.927 8.09802H138.672C139.448 8.09802 139.996 7.93093 140.315 7.59599C140.635 7.26105 140.795 6.7512 140.795 6.06602V5.19851C140.795 4.51374 140.635 4.00346 140.315 3.66894C139.996 3.334 139.448 3.16651 138.672 3.16651H130.224C130.026 3.16651 129.927 3.25789 129.927 3.44066V8.09802ZM157.061 0.015625C157.64 0.015625 158.127 0.133457 158.522 0.369569C158.918 0.605681 159.306 1.06592 159.687 1.7511L167.244 15.4729C167.32 15.6251 167.339 15.7508 167.301 15.8496C167.263 15.9484 167.153 15.998 166.97 15.998H164.071C163.812 15.998 163.637 15.8992 163.545 15.7011L161.924 12.7561H151.193L149.618 15.7011C149.511 15.8992 149.336 15.998 149.093 15.998H146.125C145.927 15.998 145.809 15.9484 145.771 15.8496C145.733 15.7508 145.752 15.6251 145.828 15.4729L153.317 1.7511C153.697 1.06592 154.07 0.605681 154.435 0.369569C154.801 0.133457 155.227 0.015625 155.714 0.015625H157.061ZM152.632 10.1072H160.486L156.856 3.41752C156.795 3.31084 156.711 3.25789 156.605 3.25789H156.467C156.361 3.25789 156.277 3.31084 156.216 3.41752L152.632 10.1072ZM170.062 0.015625C170.306 0.015625 170.489 0.107005 170.61 0.289775L176.706 8.53175L182.848 0.289775C182.97 0.107005 183.153 0.015625 183.396 0.015625H186.387C186.509 0.015625 186.593 0.0652393 186.638 0.164067C186.684 0.263309 186.669 0.365857 186.593 0.472541L178.396 11.112V15.4956C178.396 15.8306 178.229 15.998 177.894 15.998H175.428C175.078 15.998 174.903 15.8306 174.903 15.4956V11.112L166.797 0.472541C166.721 0.365857 166.702 0.263309 166.74 0.164067C166.778 0.0652393 166.866 0.015625 167.003 0.015625H170.062Z" fill="#FF6600"/>
<path d="M65.5285 0.369675C65.9238 0.605374 66.315 1.06479 66.6929 1.75121L72.5978 12.4722L78.5023 1.75121C79.1486 0.577262 79.7598 0.0459173 81.1281 0.0157313C81.9604 -0.00287653 83.2274 -0.0244079 82.3301 1.61928C79.7738 6.31589 77.2088 11.01 74.6438 15.7012C74.5392 15.8923 74.3771 15.9982 74.1187 15.9982C73.1048 15.9982 72.0904 15.9982 71.0765 15.9982C70.8177 15.9982 70.656 15.8923 70.5514 15.7012C68.361 11.6956 66.1711 7.68709 63.9861 3.67773C61.8011 7.68709 59.6112 11.6956 57.4209 15.7012C57.3163 15.8923 57.1542 15.9982 56.8957 15.9982H53.9958C53.8134 15.9982 53.7026 15.9486 53.665 15.8497C53.6269 15.7509 53.6398 15.6219 53.722 15.473L61.2793 1.75121C61.6572 1.06479 62.048 0.605374 62.4437 0.369675C63.2732 -0.124052 64.699 -0.122398 65.5285 0.369675Z" fill="white"/>
<path d="M83.3438 15.9991C82.3537 15.9991 81.3634 15.9991 80.3733 15.9991C80.1752 15.9991 80.0572 15.9496 80.0191 15.8506C79.9809 15.7516 80 15.6258 80.0762 15.4735C80.4903 14.7149 80.9042 13.9562 81.3183 13.1977C82.02 11.8728 82.1807 12.1286 82.87 13.326C83.15 13.8403 83.4303 14.3548 83.7103 14.869C83.9479 15.3055 84.1932 15.9991 83.3438 15.9991Z" fill="white"/>
<path d="M91.3199 0.0040066C91.8984 0.0168321 92.3864 0.122215 92.7824 0.358205C93.1782 0.594159 93.5696 1.05392 93.9478 1.74065C96.2682 5.95384 98.6013 10.2453 100.857 14.3904C101.755 16.0354 100.487 16.0135 99.6543 15.995C99.0758 15.9822 98.5878 15.8768 98.1918 15.6408C97.7959 15.4049 97.4023 14.9462 97.0264 14.2584C94.7244 10.0462 92.4137 5.82868 90.117 1.60862C89.2188 -0.0363938 90.4868 -0.0144835 91.3199 0.0040066Z" fill="white"/>
<path d="M86.2769 6.43955C86.8555 6.45238 87.3435 6.55776 87.7394 6.79375C88.1353 7.02971 88.5289 7.48832 88.9048 8.1762C90.0551 10.2809 91.1227 12.3059 92.2571 14.3904C93.1554 16.0354 91.8873 16.0135 91.0542 15.995C90.4757 15.9822 89.9877 15.8768 89.5917 15.6408C89.1959 15.4049 88.8023 14.9463 88.4264 14.2584C87.2966 12.1911 86.2004 10.1137 85.074 8.04417C84.1758 6.39915 85.4438 6.42106 86.2769 6.43955Z" fill="white"/>
</svg>
