<svg width="21" height="21" viewBox="0 0 21 21" fill="none" xmlns="http://www.w3.org/2000/svg">
<g clip-path="url(#clip0)">
<path fill-rule="evenodd" clip-rule="evenodd" d="M0.875 2.625C1.35825 2.625 1.75 3.01675 1.75 3.5V7.875H6.125C6.60825 7.875 7 8.26675 7 8.75C7 9.23325 6.60825 9.625 6.125 9.625H0.875C0.391751 9.625 0 9.23325 0 8.75V3.5C0 3.01675 0.391751 2.625 0.875 2.625Z" fill="white"/>
<path fill-rule="evenodd" clip-rule="evenodd" d="M14 12.25C14 11.7668 14.3918 11.375 14.875 11.375H20.125C20.6082 11.375 21 11.7668 21 12.25V17.5C21 17.9832 20.6082 18.375 20.125 18.375C19.6418 18.375 19.25 17.9832 19.25 17.5V13.125H14.875C14.3918 13.125 14 12.7332 14 12.25Z" fill="white"/>
<path fill-rule="evenodd" clip-rule="evenodd" d="M8.07358 2.09652C9.49345 1.68582 10.9942 1.64149 12.4358 1.96768C13.8775 2.29387 15.213 2.97994 16.3178 3.96187C17.4225 4.94379 18.2605 6.18958 18.7536 7.58299C18.9148 8.03855 18.6762 8.53855 18.2206 8.69976C17.7651 8.86097 17.2651 8.62235 17.1039 8.16678C16.7094 7.05206 16.039 6.05543 15.1552 5.26988C14.2714 4.48434 13.203 3.93549 12.0497 3.67454C10.8963 3.41359 9.69573 3.44905 8.55984 3.7776C7.42394 4.10616 6.38979 4.71711 5.55387 5.55345C5.54741 5.55991 5.54085 5.56628 5.53418 5.57254L1.47418 9.38754C1.12201 9.71846 0.568261 9.70123 0.237344 9.34906C-0.0935739 8.99689 -0.0763462 8.44314 0.275823 8.11222L4.32609 4.30637C5.36923 3.26606 6.65822 2.50591 8.07358 2.09652ZM20.7627 11.6507C21.0936 12.0029 21.0763 12.5566 20.7242 12.8875L16.6739 16.6934C15.6308 17.7337 14.3418 18.4939 12.9264 18.9032C11.5066 19.3139 10.0058 19.3583 8.56415 19.0321C7.12252 18.7059 5.78701 18.0198 4.68225 17.0379C3.57748 16.056 2.73946 14.8102 2.24638 13.4168C2.08517 12.9612 2.32379 12.4612 2.77936 12.3C3.23492 12.1388 3.73492 12.3774 3.89613 12.833C4.29059 13.9477 4.96101 14.9443 5.84482 15.7299C6.72864 16.5154 7.79705 17.0643 8.95035 17.3252C10.1037 17.5862 11.3043 17.5507 12.4402 17.2222C13.5761 16.8936 14.6102 16.2827 15.4461 15.4463C15.45 15.4424 15.4539 15.4386 15.4579 15.4348C15.4605 15.4322 15.4632 15.4297 15.4658 15.4272L19.5258 11.6122C19.878 11.2813 20.4317 11.2985 20.7627 11.6507Z" fill="white"/>
</g>
<defs>
<clipPath id="clip0">
<path d="M0 0H21V21H0V0Z" fill="white"/>
</clipPath>
</defs>
</svg>
