<?xml version="1.0" encoding="utf-8"?>
<!-- Generator: Adobe Illustrator 24.1.2, SVG Export Plug-In . SVG Version: 6.00 Build 0)  -->
<!DOCTYPE svg PUBLIC "-//W3C//DTD SVG 1.1//EN" "http://www.w3.org/Graphics/SVG/1.1/DTD/svg11.dtd" [
	<!ENTITY ns_extend "http://ns.adobe.com/Extensibility/1.0/">
	<!ENTITY ns_ai "http://ns.adobe.com/AdobeIllustrator/10.0/">
	<!ENTITY ns_graphs "http://ns.adobe.com/Graphs/1.0/">
	<!ENTITY ns_vars "http://ns.adobe.com/Variables/1.0/">
	<!ENTITY ns_imrep "http://ns.adobe.com/ImageReplacement/1.0/">
	<!ENTITY ns_sfw "http://ns.adobe.com/SaveForWeb/1.0/">
	<!ENTITY ns_custom "http://ns.adobe.com/GenericCustomNamespace/1.0/">
	<!ENTITY ns_adobe_xpath "http://ns.adobe.com/XPath/1.0/">
]>
<svg version="1.1" id="Слой_1" xmlns:x="&ns_extend;" xmlns:i="&ns_ai;" xmlns:graph="&ns_graphs;"
	 xmlns="http://www.w3.org/2000/svg" xmlns:xlink="http://www.w3.org/1999/xlink" x="0px" y="0px" width="48px" height="48px"
	 viewBox="0 0 48 48" style="enable-background:new 0 0 48 48;" xml:space="preserve">
<style type="text/css">
	.st0{fill:#FFFFFF;}
</style>
<metadata>
	<sfw  xmlns="&ns_sfw;">
		<slices></slices>
		<sliceSourceBounds  bottomLeftOrigin="true" height="48" width="48" x="0" y="0"></sliceSourceBounds>
	</sfw>
</metadata>
<g>
	<g>
		<g>
			<g transform="translate(-1270 -568) translate(1270 568)">
				<g>
					<path class="st0" d="M24,48C10.8,48,0,37.2,0,24S10.8,0,24,0s24,10.8,24,24S37.2,48,24,48z M24,1.5C11.6,1.5,1.5,11.6,1.5,24
						c0,12.4,10.1,22.5,22.5,22.5c12.4,0,22.5-10.1,22.5-22.5C46.5,11.6,36.4,1.5,24,1.5z"/>
				</g>
			</g>
			<g>
				<path class="st0" d="M23.9,8.2c0.4,0,0.7,0.3,0.7,0.6l0,0.1v27.9l6-8.7c0.2-0.3,0.7-0.4,1-0.2c0.3,0.2,0.4,0.6,0.3,0.9l-0.1,0.1
					l-7.3,10.7l0,0l0,0l0-0.1c0,0-0.1,0.1-0.1,0.1l0,0c-0.1,0.1-0.1,0.1-0.2,0.1l-0.1,0l0,0l-0.1,0L24,40c0,0,0,0,0,0c0,0,0,0-0.1,0
					l0,0h0c0,0,0,0-0.1,0l0.1,0c0,0-0.1,0-0.1,0l0,0l-0.1,0c0,0,0,0-0.1,0l0,0c0,0,0,0-0.1,0l0,0c0,0,0,0,0,0c0,0,0,0,0,0l0,0l0,0
					c0,0,0,0-0.1-0.1l0,0l-7.4-10.3c-0.2-0.3-0.2-0.8,0.2-1c0.3-0.2,0.7-0.2,1,0.1l0.1,0.1l6.1,8.4v-28C23.2,8.5,23.5,8.2,23.9,8.2
					L23.9,8.2z"/>
			</g>
		</g>
	</g>
</g>
</svg>
