<?xml version="1.0" encoding="utf-8"?>
<!-- Generator: Adobe Illustrator 24.1.2, SVG Export Plug-In . SVG Version: 6.00 Build 0)  -->
<!DOCTYPE svg PUBLIC "-//W3C//DTD SVG 1.1//EN" "http://www.w3.org/Graphics/SVG/1.1/DTD/svg11.dtd" [
	<!ENTITY ns_extend "http://ns.adobe.com/Extensibility/1.0/">
	<!ENTITY ns_ai "http://ns.adobe.com/AdobeIllustrator/10.0/">
	<!ENTITY ns_graphs "http://ns.adobe.com/Graphs/1.0/">
	<!ENTITY ns_vars "http://ns.adobe.com/Variables/1.0/">
	<!ENTITY ns_imrep "http://ns.adobe.com/ImageReplacement/1.0/">
	<!ENTITY ns_sfw "http://ns.adobe.com/SaveForWeb/1.0/">
	<!ENTITY ns_custom "http://ns.adobe.com/GenericCustomNamespace/1.0/">
	<!ENTITY ns_adobe_xpath "http://ns.adobe.com/XPath/1.0/">
]>
<svg version="1.1" id="Слой_1" xmlns:x="&ns_extend;" xmlns:i="&ns_ai;" xmlns:graph="&ns_graphs;"
	 xmlns="http://www.w3.org/2000/svg" xmlns:xlink="http://www.w3.org/1999/xlink" x="0px" y="0px" width="64px" height="64px"
	 viewBox="0 0 64 64" style="enable-background:new 0 0 64 64;" xml:space="preserve">
<style type="text/css">
	.st0{fill:#2D2B31;}
</style>
<metadata>
	<sfw  xmlns="&ns_sfw;">
		<slices></slices>
		<sliceSourceBounds  bottomLeftOrigin="true" height="16" width="32.1" x="15.9" y="24"></sliceSourceBounds>
	</sfw>
</metadata>
<g>
	<g>
		<g transform="translate(-1414 -2064) translate(1414 2064.005)">
			<g>
				<path class="st0" d="M16.1,39.8c0.3,0.2,0.7,0.3,0.9,0.1l0.1-0.1L32,25.7l14.8,14.1c0.3,0.2,0.7,0.3,0.9,0.1l0.1-0.1
					c0.3-0.2,0.3-0.6,0.1-0.9l-0.1-0.1L32.5,24.2c-0.3-0.2-0.7-0.3-0.9-0.1l-0.1,0.1L16.1,38.8C15.9,39.1,15.9,39.5,16.1,39.8
					L16.1,39.8z"/>
			</g>
		</g>
	</g>
</g>
</svg>
