<svg xmlns="http://www.w3.org/2000/svg" width="24" height="24" viewBox="0 0 24 24">
    <g fill="none" fill-rule="evenodd">
        <g fill="#FFF" fill-rule="nonzero">
            <g>
                <path d="M11.878 0h-.006C5.325 0 0 5.326 0 11.875c0 2.598.837 5.006 2.26 6.96L.78 23.249l4.565-1.46c1.878 1.244 4.118 1.963 6.533 1.963 6.548 0 11.873-5.328 11.873-11.876C23.75 5.328 18.426 0 11.878 0zm6.91 16.77c-.286.809-1.423 1.48-2.33 1.675-.62.133-1.431.238-4.16-.893-3.49-1.446-5.737-4.992-5.912-5.222-.168-.23-1.41-1.878-1.41-3.582s.865-2.534 1.214-2.89c.287-.293.76-.426 1.214-.426.147 0 .28.007.398.013.349.015.524.035.754.586.287.69.984 2.395 1.068 2.57.084.175.169.412.05.643-.111.237-.21.342-.384.544-.176.202-.342.357-.517.573-.16.189-.341.39-.14.74.202.34.9 1.48 1.927 2.394 1.326 1.18 2.4 1.557 2.785 1.717.286.12.628.09.837-.132.266-.286.594-.761.928-1.229.237-.335.537-.377.852-.258.32.111 2.017.95 2.366 1.124.349.175.58.258.664.405.083.147.083.837-.204 1.648z" transform="translate(-2018 -884) translate(2018 884)"/>
            </g>
        </g>
    </g>
</svg>
