<svg xmlns="http://www.w3.org/2000/svg" width="24" height="24" viewBox="0 0 24 24">
    <g fill="none" fill-rule="evenodd">
        <g fill="#FFF" fill-rule="nonzero">
            <g>
                <path d="M22.19 1.81c-.555-.555-1.22-.832-1.995-.832H3.805c-.775 0-1.44.278-1.995.833-.555.554-.832 1.22-.832 1.994v16.39c0 .774.277 1.44.832 1.994.556.555 1.22.833 1.995.833h16.39c.774 0 1.44-.278 1.995-.833.555-.554.832-1.22.832-1.994V3.805c0-.775-.277-1.44-.832-1.994zM8.893 8.922c.866-.837 1.907-1.255 3.122-1.255 1.224 0 2.27.418 3.135 1.255.866.838 1.3 1.85 1.3 3.036s-.434 2.198-1.3 3.035c-.866.837-1.91 1.256-3.135 1.256-1.215 0-2.256-.419-3.122-1.256-.866-.837-1.299-1.849-1.299-3.035 0-1.186.433-2.198 1.3-3.036zm11.632 10.685c0 .25-.086.457-.258.625-.173.167-.378.25-.618.25H4.308c-.249 0-.457-.083-.624-.25-.168-.168-.252-.376-.252-.625v-9.3h2.024c-.191.603-.287 1.23-.287 1.88 0 1.838.67 3.404 2.009 4.701 1.34 1.296 2.952 1.945 4.837 1.945 1.243 0 2.391-.297 3.444-.89 1.053-.594 1.885-1.4 2.497-2.419.613-1.019.919-2.131.919-3.337 0-.65-.096-1.277-.287-1.88h1.937v9.3zm0-12.816c0 .278-.095.512-.287.703-.191.192-.426.288-.703.288h-2.497c-.278 0-.512-.096-.704-.288-.191-.19-.287-.425-.287-.703V4.422c0-.268.096-.5.287-.696.192-.196.426-.294.704-.294h2.497c.277 0 .512.098.703.294.191.197.287.428.287.696V6.79z" transform="translate(-1890 -884) translate(1890 884)"/>
            </g>
        </g>
    </g>
</svg>
