<?xml version="1.0" encoding="UTF-8"?>
<svg width="281px" height="206px" viewBox="0 0 281 206" version="1.1" xmlns="http://www.w3.org/2000/svg" xmlns:xlink="http://www.w3.org/1999/xlink">
    <title>41D33C40-16D3-456A-A6DD-9286E25541AD</title>
    <g id="Page-1" stroke="none" stroke-width="1" fill="none" fill-rule="evenodd">
        <g id="Menu" transform="translate(-1157.000000, -108.000000)" fill-rule="nonzero">
            <g id="freepik--planet-2--inject-54" transform="translate(1297.518560, 211.000000) rotate(-12.000000) translate(-1297.518560, -211.000000) translate(1171.018560, 133.000000)">
                <circle id="Oval" fill="#3952B3" cx="126.54876" cy="77.9549732" r="77.9549732"></circle>
                <path d="M57.8734442,40.9827122 C56.1170423,49.7647219 62.2059024,53.453166 75.5838306,52.6920585 C107.294585,50.920349 138.289172,42.5660664 166.594725,28.1609779 C172.800678,23.9163399 173.415419,19.0862345 171.07355,13.9341221 C208.924012,43.9978688 211.558615,84.1902001 195.07771,115.073601 C191.064221,121.156761 185.046419,125.641628 178.069884,127.748968 C157.861697,135.704868 136.671291,140.894155 115.073601,143.176032 C95.0798922,146.103369 83.3412725,144.786067 78.8331742,139.575408 C44.729703,113.141559 41.8609131,72.5979473 57.8734442,40.9827122 Z" id="Path" fill="#425CBF"></path>
                <path d="M48.5927533,77.9549732 C48.5144072,92.9597643 53.0071992,107.632814 61.4740682,120.0208 C65.5723395,125.875473 78.8331742,127.046408 99.5294438,124.148344 C126.428109,121.377406 152.817086,114.915604 177.952791,104.945016 C191.652726,99.5587172 200.727469,92.6794762 204.620827,84.0438333 C205.530256,70.2086764 202.784254,56.3777071 196.658472,43.9393221 C195.458264,54.7119207 188.081375,63.6402973 173.239779,70.2853514 C144.216476,81.1526774 114.028137,88.6088929 83.2827258,92.503836 C63.698844,94.7578852 50.2038224,91.5378149 48.5927533,77.9549732 Z" id="Path" fill="#3952B3"></path>
                <path d="M95.1969857,9.3382037 C102.63306,6.46461868 110.342457,4.35581421 118.205851,3.04443005 C128.539349,1.99058888 130.325025,3.74699083 129.183363,6.46941385 C126.112461,9.6158888 122.478171,12.1579062 118.469312,13.9633955 C112.236175,16.6653685 105.618226,18.3741823 98.8561564,19.0276878 C94.1431445,19.2326013 89.1373989,19.3496948 86.2978825,17.1834657 C84.8927609,14.6366829 89.1081256,11.9435333 95.1969857,9.3382037 Z" id="Path" fill="#2C3396" opacity="0.532947359"></path>
                <path d="M252.453507,39.6654107 C248.560149,27.6633307 222.945954,24.2968936 187.203174,29.0099055 C190.397088,32.8564497 193.16493,37.0376566 195.458264,41.4803594 L195.458264,41.4803594 C208.250724,41.9780066 216.710727,45.0224366 218.554949,50.6721962 C223.063048,64.6355917 185.563866,89.2837658 134.774576,105.706124 C83.9852866,122.128482 39.1677635,124.177618 34.6596651,110.214222 C32.6983496,104.359549 37.4113615,97.1290278 48.652334,88.6982985 C48.5059672,88.6982985 49.4427149,88.0835578 49.2963481,88.1713779 C48.6720717,83.3189785 48.4956877,78.4194229 48.7694275,73.534695 C16.1588979,90.9230743 -3.27861697,109.043288 0.673287414,121.221008 C6.87924097,140.336516 68.2654891,137.584819 137.819006,115.044328 C207.372524,92.503836 258.65946,58.7809186 252.453507,39.6654107 Z" id="Path" fill="#3544B9"></path>
            </g>
        </g>
    </g>
</svg>