<?xml version="1.0" encoding="UTF-8"?>
<svg width="177px" height="173px" viewBox="0 0 177 173" version="1.1" xmlns="http://www.w3.org/2000/svg" xmlns:xlink="http://www.w3.org/1999/xlink">
    <title>49B56E10-E358-4D7B-9D76-3034DCE4A987</title>
    <g id="Page-1" stroke="none" stroke-width="1" fill="none" fill-rule="evenodd">
        <g id="Menu" transform="translate(-1645.000000, -59.000000)" fill-rule="nonzero">
            <g id="Group-2-Copy" transform="translate(1645.000000, 59.000000)">
                <g id="Group" opacity="0.2" transform="translate(-0.000000, 0.000000)" fill="#7E8CCC">
                    <path d="M73.6157067,9.47758528 C65.4795791,4.75338217 54.9667691,8.93809295 47.6471704,14.8725086 C40.3275718,20.8069242 34.1744431,28.5493682 25.4842423,32.1800058 C19.9435102,34.4983647 13.615411,35.0961805 8.71623742,38.4935241 C0.725918582,44.1217414 -0.673845302,55.4656612 0.711337708,65.1327805 C2.09652072,74.7998999 5.47928344,84.4086957 4.29823266,94.1049768 C3.40879936,101.205862 0.084360135,108.321329 1.89238849,115.261825 C4.41487965,124.972687 15.583829,129.594824 21.0224949,138.03715 C24.9301691,144.088212 25.9945729,152.253501 31.8269224,156.496536 C38.5778669,161.424871 47.9679497,158.552439 56.2936286,159.310644 C66.5002403,160.229239 75.3216689,166.805214 85.0762735,170.115072 C101.026319,175.311347 118.535688,171.65963 131.07893,160.520857 C137.275802,154.878059 141.825034,147.675107 147.91984,141.930243 C153.125211,137.016488 159.43873,133.181719 163.710926,127.422273 C167.983122,121.662828 169.689084,114.955626 171.45337,108.248424 C174.034184,98.4500772 176.62958,88.2580464 174.748647,78.2993096 C171.730406,62.4061571 158.184775,50.8435242 151.127632,36.2918122 C148.371847,30.6198523 146.359686,24.1313634 141.25638,20.4278215 C135.846876,16.4909856 128.527277,16.8263457 122.199178,14.6829572 C113.115294,11.6209737 106.247702,3.5140079 96.9596856,1.13732547 C88.2149693,-0.941631163 79.0671179,2.3344431 73.6302875,9.49216615" id="Path"></path>
                </g>
                <path d="M86.4798277,157.084284 C124.011167,155.753985 153.357909,124.250403 152.02761,86.7190631 C150.697311,49.1877234 119.193729,19.8409815 81.662389,21.1712805 C44.1310493,22.5015794 14.7843074,54.0051621 16.1146064,91.5365018 C17.4449053,129.067841 48.948488,158.414583 86.4798277,157.084284 Z" id="Oval" fill="#566AB8"></path>
                <path d="M78.1434719,44.9782752 C75.6789382,48.1284238 71.5591396,49.4832649 67.7059435,48.4107713 C63.8527474,47.3382778 61.0253727,44.0497695 60.5427767,40.0793207 C60.0601807,36.1088719 62.0174523,32.2388044 65.5015333,30.2744872 C68.9856143,28.3101699 73.3100147,28.6386443 76.4574215,31.1066785 C80.7506878,34.4732368 81.5052552,40.6812689 78.1434719,44.9782752 Z" id="Path" fill="#4054A1"></path>
                <path d="M50.5164515,56.5449674 C48.5590229,59.0432944 44.9471448,59.4822842 42.4482492,57.5255816 C39.9493536,55.5688789 39.5093144,51.9571286 41.465291,49.4576646 C43.4212676,46.9582006 47.0328899,46.5171121 49.5329221,48.4723624 C50.7344103,49.4120343 51.5131364,50.7907343 51.6976085,52.3048437 C51.8820807,53.8189532 51.4571704,55.3442987 50.5164515,56.5449674 L50.5164515,56.5449674 Z" id="Path" fill="#4054A1"></path>
            </g>
        </g>
    </g>
</svg>