<?xml version="1.0" encoding="UTF-8"?>
<svg width="176px" height="176px" viewBox="0 0 176 176" version="1.1" xmlns="http://www.w3.org/2000/svg" xmlns:xlink="http://www.w3.org/1999/xlink">
    <title>33BE0E6D-DDAC-4C44-8689-89033CF6C493</title>
    <defs>
        <polygon id="path-1" points="0.000148708036 0.163256168 175.409361 0.163256168 175.409361 174.600506 0.000148708036 174.600506"></polygon>
    </defs>
    <g id="Page-1" stroke="none" stroke-width="1" fill="none" fill-rule="evenodd" opacity="0.525204613">
        <g id="Menu" transform="translate(-822.000000, -32.000000)">
            <g id="Group-16-Copy" transform="translate(822.000000, 32.000000)">
                <g id="Group-3" transform="translate(0.000000, 0.536751)">
                    <mask id="mask-2" fill="white">
                        <use xlink:href="#path-1"></use>
                    </mask>
                    <g id="Clip-2"></g>
                    <path d="M3.91502444,113.072411 C-10.3508422,67.0539226 15.5940793,18.2463336 61.8707206,4.05670049 C108.145728,-10.1312605 157.226519,15.6729368 171.49402,61.6914251 C185.76152,107.709913 159.813331,156.517502 113.538323,170.707136 C67.2633163,184.895097 18.1825252,159.090899 3.91502444,113.072411" id="Fill-1" fill="#566AB8" mask="url(#mask-2)"></path>
                </g>
                <path d="M24,34.0005892 C24,29.3060581 30.838005,25.5 39.2749055,25.5 C47.7097482,25.5 54.5498109,29.3060581 54.5498109,34.0005892 C54.5498109,38.6951203 47.7097482,42.5 39.2749055,42.5 C30.838005,42.5 24,38.6951203 24,34.0005892" id="Fill-4" fill="#4054A1" transform="translate(39.274905, 34.000000) rotate(-37.000000) translate(-39.274905, -34.000000) "></path>
                <path d="M108.396565,23.3300882 C108.396565,21.0192146 110.280705,19.1447651 112.606058,19.1447651 C114.931411,19.1447651 116.815551,21.0192146 116.815551,23.3300882 C116.815551,25.6426338 114.931411,27.5154112 112.606058,27.5154112 C110.280705,27.5154112 108.396565,25.6426338 108.396565,23.3300882" id="Fill-6" fill="#8EB0F2"></path>
                <path d="M131,45.7971081 C131,41.4913922 134.508455,38 138.840507,38 C143.169291,38 146.681015,41.4913922 146.681015,45.7971081 C146.681015,50.102824 143.169291,53.5942161 138.840507,53.5942161 C134.508455,53.5942161 131,50.102824 131,45.7971081" id="Fill-8" fill="#4054A1"></path>
                <path d="M30,143.69817 C30,137.237088 35.2667684,132 41.762395,132 C48.2612898,132 53.5264241,137.237088 53.5264241,143.69817 C53.5264241,150.159252 48.2612898,155.396341 41.762395,155.396341 C35.2667684,155.396341 30,150.159252 30,143.69817" id="Fill-10" fill="#4054A1"></path>
                <path d="M94.3200417,163.712641 C94.3200417,160.288134 99.3537901,157.51241 105.567093,157.51241 C111.783344,157.51241 116.820042,160.288134 116.820042,163.712641 C116.820042,167.137149 111.783344,169.912872 105.567093,169.912872 C99.3537901,169.912872 94.3200417,167.137149 94.3200417,163.712641" id="Fill-12" fill="#8EB0F2" transform="translate(105.570042, 163.712641) rotate(-13.000000) translate(-105.570042, -163.712641) "></path>
                <path d="M132,132.459622 C132,130.548386 133.557316,129 135.479041,129 C137.400766,129 138.958083,130.548386 138.958083,132.459622 C138.958083,134.370858 137.400766,135.919244 135.479041,135.919244 C133.557316,135.919244 132,134.370858 132,132.459622" id="Fill-14" fill="#8EB0F2"></path>
            </g>
        </g>
    </g>
</svg>