<?xml version="1.0" encoding="UTF-8"?>
<svg width="661px" height="566px" viewBox="0 0 661 566" version="1.1" xmlns="http://www.w3.org/2000/svg" xmlns:xlink="http://www.w3.org/1999/xlink">
    <title>9B46A1D9-D28E-40D2-A529-5CAEEE96E495</title>
    <defs>
        <linearGradient x1="76.1227488%" y1="26.3324701%" x2="50%" y2="80.7093314%" id="linearGradient-1">
            <stop stop-color="#F4F5FA" offset="0%"></stop>
            <stop stop-color="#EBEEF9" offset="100%"></stop>
        </linearGradient>
        <polygon id="path-2" points="0 0.725041501 61.2108859 0.725041501 61.2108859 79.8298186 0 79.8298186"></polygon>
        <path d="M0.766490337,3.62203715 C2.35049034,4.60494836 4.0038166,4.94812799 5.7831906,4.75788711 L5.7831906,4.75788711 C7.09408715,3.69477631 6.673928,1.25708189 6.01217734,0.6154852 L6.01217734,0.6154852 C3.08576885,1.21604955 3.14669193,1.49581555 0.766490337,3.62203715" id="path-4"></path>
        <path d="M0.766490337,3.62203715 C2.35049034,4.60494836 4.0038166,4.94812799 5.7831906,4.75788711 L5.7831906,4.75788711 C7.09408715,3.69477631 6.673928,1.25708189 6.01217734,0.6154852 L6.01217734,0.6154852 C3.08576885,1.21604955 3.14669193,1.49581555 0.766490337,3.62203715" id="path-6"></path>
        <path d="M0.766490337,3.62203715 C2.35049034,4.60494836 4.0038166,4.94812799 5.7831906,4.75788711 L5.7831906,4.75788711 C7.09408715,3.69477631 6.673928,1.25708189 6.01217734,0.6154852 L6.01217734,0.6154852 C3.08576885,1.21604955 3.14669193,1.49581555 0.766490337,3.62203715" id="path-8"></path>
    </defs>
    <g id="Page-1" stroke="none" stroke-width="1" fill="none" fill-rule="evenodd">
        <g id="Portfolio_Ðrtists" transform="translate(-580.000000, -217.000000)">
            <g id="Group-8" transform="translate(580.516075, 217.711652)">
                <path d="M566.453729,90.4854979 C498.175755,50.8597989 449.543708,39.6169208 379.323172,55.0080722 C284.547186,75.7778391 242.333635,148.455506 186.497433,197.520796 C157.256936,223.214396 115.247889,231.643118 80.9566825,251.025402 C-28.6878769,313.002777 -18.7170651,460.904974 61.6062273,519.264197 C131.142414,569.786187 220.223248,577.802754 337.822804,546.176957 C455.424078,514.552733 539.419832,496.008917 615.527613,396.737831 C691.633675,297.466746 663.515656,146.816207 566.453729,90.4854979 Z" id="Fill-1" fill="url(#linearGradient-1)" transform="translate(329.553651, 306.650435) scale(-1, 1) translate(-329.553651, -306.650435) "></path>
                <path d="M431.083667,231.290989 C447.786228,230.636388 440.909931,229.210556 452.086912,232.937743" id="Path-4" stroke="#979797"></path>
                <path d="M430.032894,232.518248 C465.009226,231.043122 441.703845,231.659132 466.907701,243.454978 C495.767219,256.961737 487.609803,243.58126 507.405911,270.010758" id="Path-5" stroke="#979797"></path>
                <g id="Group-5" transform="translate(75.369908, 203.818584)" fill="#CDDBE6" fill-rule="nonzero">
                    <path d="M47.3070006,-3.55271368e-15 C47.8081497,3.24272944 46.3784008,6.4707192 44.6538583,9.25651858 C44.3495273,9.74813023 44.0339502,10.2353812 43.714863,10.7215926 L43.0743005,11.6936134 C41.8049566,13.6206423 40.5614756,15.5661145 39.8252027,17.7366808 C39.844218,17.9638519 39.8614689,18.9968342 39.877945,20.718934 L39.8487229,20.8124271 C41.3226908,15.8304155 45.9141009,12.1676052 50.8371538,10.4946516 C51.4477593,10.2429692 52.1106149,10.1442999 52.7680517,10.2072279 C53.4358727,10.2811306 53.9938927,10.7490536 54.183061,11.3937721 C54.3673069,12.2413036 53.6671722,13.0003971 53.0038866,13.5605049 C49.1628366,16.8364363 44.6979827,19.3001394 39.8788097,20.8030581 C39.9078426,23.8877602 39.9345058,29.1262486 39.9561682,35.8753996 L39.8045038,36.2448713 C40.718364,34.1223575 41.35954,31.8966659 42.184962,29.7299331 C42.9313555,27.5380387 44.078396,25.5038537 45.5677184,23.7308836 C47.0809778,21.9460964 49.2360717,20.8288364 51.5667679,20.6208113 C50.063364,27.2331782 45.8502897,32.9086158 39.9576303,36.2617244 C39.9810727,43.7661942 39.9986113,53.0942252 40.0065881,63.3841321 L39.98138,63.4469494 C40.2966179,62.5956533 40.8182853,61.8359436 41.499567,61.2359975 C41.6284622,61.1268677 41.7593076,61.0202208 41.8920283,60.9161033 C42.0185447,60.7509797 42.1745445,60.5500852 42.3618382,60.3147675 C42.9366857,59.5777836 43.8358061,58.5607457 44.9118027,57.3299825 C46.6429354,55.4425952 48.4320761,53.6098315 50.2765734,51.834294 C50.3636348,51.4386763 51.0573243,49.7866515 51.7510139,47.7639306 C52.3207164,46.1027419 52.6750125,44.6300338 52.8639228,43.9460231 C50.2235487,39.9201182 49.5221121,34.9131715 50.9698109,30.3047806 C51.1393172,29.7667823 51.5741377,29.1182364 52.1047662,29.3245919 C52.480628,29.4719887 52.5911756,29.9510283 52.5911756,30.3563694 C52.9449279,35.3752302 52.620655,39.3402039 53.1144342,44.3590647 L53.0715832,43.8495136 C53.6564908,42.0090293 54.075019,40.104643 54.639991,38.2420978 C55.2204353,36.00045 56.2621172,33.9045357 57.6984745,32.0882817 C59.1615594,30.259111 61.3560673,29.1672489 63.6975239,29.1034967 C64.0733857,31.8671866 62.6878559,34.557178 61.0443817,36.8049791 C58.8360309,40.0323918 56.007606,42.7881645 52.7238327,44.9118027 L52.8868506,44.8057938 C52.7355109,45.8568121 52.4660342,46.888754 52.0826567,47.8818481 C51.7426218,48.8728541 51.3489833,49.8446492 50.9034823,50.7929347 C50.7878808,51.0957118 50.641102,51.3853132 50.4656928,51.6571252 C51.6678083,50.5003093 52.8956429,49.370166 54.1462118,48.2650797 C56.6160339,46.0744968 58.9411801,44.0317349 60.955227,42.2744528 C63.7256857,37.1689133 68.2381355,33.2228869 73.6762868,31.159682 C76.1230735,30.1794933 78.9236126,29.5899061 81.3703994,30.5700948 C75.3183245,35.7798131 68.3851935,39.8678147 60.8969849,42.6418921 L61.049,42.584 L55.9441472,47.1308564 C58.6113063,45.6065487 61.4063569,44.3175336 64.297583,43.2785082 L65.1051633,42.9956444 C68.7900831,41.7501415 72.8287552,41.2637321 76.5726338,42.3102493 C76.904316,42.3791393 77.2149611,42.5256224 77.479124,42.7377 C77.7461165,42.9562525 77.8489999,43.3178139 77.7370684,43.6441903 C77.5696852,43.9130729 77.3061522,44.1080873 77.0000845,44.1895584 C73.5583693,45.6414168 70.0724352,47.1006451 66.3875154,47.7123418 C62.6148734,48.214771 58.7911476,48.197413 55.0232227,47.6607529 L55.308,47.698 L54.3820466,48.5230241 C50.6086887,51.8763012 47.3512196,55.0821814 45.0960487,57.4994888 C43.9684632,58.7081425 43.0767126,59.7104407 42.4650159,60.4032056 L42.2546207,60.6413538 C43.0621779,60.0504974 43.93346,59.5502513 44.852844,59.1503329 C46.1941548,58.5238965 47.6828624,57.8753506 49.2747478,57.2194349 C51.3351791,56.3789326 53.2954505,55.6573702 55.0025775,55.0771852 L54.8021275,55.2222083 C60.9523359,50.6960459 68.8971862,49.3865154 76.1746624,51.699425 C73.3823832,54.2881838 69.7998062,55.8614024 66.0042837,56.1655478 C62.3964711,56.4955917 58.7598848,56.2133189 55.2480793,55.3316861 C54.3271688,55.6606094 53.3263697,56.027584 52.2725374,56.4294839 C57.8148615,55.5585541 63.2139824,57.2304197 67.7509357,60.7643277 C68.2520848,61.1549292 68.7679736,61.8771735 68.333153,62.3488433 C68.1265927,62.5234665 67.8665699,62.6222751 67.5961691,62.6288972 C61.3265018,63.1849671 55.1130687,61.0710084 50.4834015,56.8067239 L50.7301114,57.0286929 C50.2975224,57.1999599 49.858567,57.3765654 49.4147747,57.5584475 C46.2678532,58.8481694 43.3493967,59.9831247 41.6764431,61.4349832 C41.0105951,61.9952194 40.4791572,62.6979264 40.1214069,63.4911684 C40.0763209,63.6010657 40.038238,63.702613 40.0058711,63.7949348 C40.0077774,64.9653562 40.0085307,66.1493818 40.0091551,67.3444108 L40.0099792,69.1084374 C40.0101008,69.4037127 40.0102146,69.6996111 40.0103205,69.996114 L40.0108594,71.782238 L40.0108594,71.782238 L40.0110518,72.6770558 L40.0110518,72.6770558 L40.011034,77.9681449 C40.0109787,78.2581294 40.0109144,78.547416 40.0108414,78.8359863 L40.0102992,80.5586631 C40.0101916,80.8442938 40.0100755,81.129171 40.0099509,81.4132763 L40.0091028,83.1084967 C40.0060952,88.4576294 40.0001006,93.5134928 39.9918312,98.1482537 C40.0704926,97.9105061 40.1679533,97.627645 40.2835434,97.3039926 C40.4676389,96.7533054 40.6791721,96.212174 40.9173496,95.6826279 C41.1900337,95.0635614 41.4700876,94.3486869 41.8680589,93.5895935 L42.4723858,92.3956794 C42.6787413,91.9829684 42.9366857,91.5702574 43.2093697,91.1354369 C43.6957792,90.2510561 44.2927362,89.3666754 44.9118027,88.4233359 C45.8654541,87.0228304 46.8991791,85.6820332 48.0068971,84.4072411 C48.325736,83.6063696 48.559829,82.7737137 48.7072701,81.9231373 C48.7304219,81.5316306 48.7358249,81.1396328 48.7235581,80.7483414 C45.6057096,74.6241722 45.9612562,67.4969638 49.1199811,61.3760244 C50.7420042,64.2919553 51.4168115,67.6402356 51.0508791,70.956816 C50.6836215,74.2518386 49.9747625,77.4997468 48.9357351,80.6481551 L49.0343014,80.3455546 C49.1074557,80.879836 49.1142023,81.4221276 49.0536526,81.9599865 C48.9722929,82.6087347 48.7912729,83.240111 48.517763,83.8320305 C49.1721464,83.1032852 49.8529006,82.397393 50.5570985,81.7153074 C50.6360337,81.6272907 50.7219125,81.5451582 50.813707,81.4691908 C52.1490212,80.1965535 53.56726,79.0087307 55.0600719,77.9139446 C55.9813018,77.2727685 56.8509429,76.6389623 57.7132141,76.1304434 C58.1406648,75.8651291 58.546006,75.5998149 58.9513472,75.3934594 L59.944,74.85 C63.7590958,68.210336 71.2618239,62.9544631 78.8499142,62.2014465 C75.9136546,69.5934801 67.808112,75.3111633 59.8423123,75.2034057 L59.0766345,75.6366641 C58.6745334,75.8633029 58.2869374,76.1334566 57.8634847,76.3679855 C63.817782,74.9366987 69.9182418,74.9987951 75.5924451,77.3612066 C76.5389576,77.7026757 77.4082204,78.2287425 78.1497794,78.9088729 C78.8910594,79.6112513 79.2360977,80.6353249 79.0710094,81.6430834 C78.7047726,82.8265732 77.6592752,83.6711254 76.425237,83.7803369 C75.2152006,83.8637545 74.0041631,83.632718 72.9098235,83.1096815 C67.6772373,80.9503185 62.9384304,77.3833161 57.3594618,76.5284147 L57.553,76.561 L57.4286223,76.6409754 C56.7191047,77.1014197 55.9984981,77.6326624 55.236948,78.1792588 C54.2350879,78.9238397 53.2662669,79.7092477 52.3327692,80.5331187 C52.9218274,80.2957098 53.5533722,80.1658263 54.1978006,80.1543758 C54.4464589,80.1536555 54.6946446,80.1630115 54.9417626,80.182327 C57.7814913,80.181043 59.9658459,81.2586625 62.452021,82.1884516 C65.2199377,83.1281158 67.6823452,84.7985805 69.5786559,87.0230663 C69.8292305,87.3399695 70.1019146,87.7158313 69.8808194,88.1211725 C69.6597242,88.5265136 69.070137,88.4822946 68.613207,88.371747 C68.3481108,88.3054353 68.0841648,88.2354497 67.8214402,88.1618269 C66.8949638,90.4240229 64.8951687,92.197178 62.6952257,93.3169094 C60.1677403,94.4491946 57.4971928,95.230274 54.7579084,95.6384089 C54.0275998,95.7804133 53.1158093,95.9293979 52.3947978,96.2798989 C52.242568,96.4352045 52.0917391,96.5923905 51.9426297,96.7512547 C50.7413459,98.0188671 49.5105826,99.4854652 48.2577099,101.062611 C48.1187046,101.236977 47.9801924,101.410245 47.8423057,101.582379 L47.5354656,101.829074 C48.4271603,101.087346 49.4079841,100.463977 50.4533353,99.9724846 C52.4990862,97.4680117 55.3976911,96.0807787 58.5681155,95.3730946 C61.8958941,94.6227531 65.3809109,95.0499151 68.428961,96.5817483 C63.1853071,100.417026 56.5250894,101.763613 50.2033476,100.266668 L50.4865229,100.330706 C49.4976684,100.790489 48.5598904,101.356797 47.6902322,102.02069 C47.4630756,102.196293 47.2623319,102.365558 47.0867693,102.522401 C45.0208964,105.088541 43.1581185,107.373862 41.9712367,109.250503 C41.2342527,110.363348 40.7331036,111.291948 40.394091,111.947864 C40.2623709,112.229937 40.1161227,112.504939 39.9559494,112.77177 C39.9487388,114.074716 39.9437255,115.296275 39.9385469,116.428503 L56.5119303,116.428726 C56.0476304,125.795793 53.4534468,135.192338 49.3631858,144.618363 L49.3631858,144.618363 L30.7027519,144.618363 C27.3507612,137.177174 24.9169588,129.803499 23.7636383,122.518442 C23.7467023,122.515382 23.7382534,122.512126 23.7382534,122.508844 C23.7382534,122.505735 23.7458363,122.502641 23.7608137,122.499566 C23.4397738,120.468823 23.2184303,118.445103 23.1044472,116.428726 L23.1044472,116.428726 L39.7468973,116.428596 C39.7406197,115.190496 39.7345618,113.845606 39.7287597,112.40303 C39.6673585,112.139168 39.5809559,111.78468 39.4654912,111.350907 C39.0630044,109.90359 38.519966,108.499095 37.8441265,107.157468 C35.9168751,103.53317 33.6112387,100.126013 30.9672562,96.9924311 C28.7814161,98.610949 27.0433824,100.756335 25.0721944,102.610277 C23.0897076,104.474847 20.6576605,106.118321 17.9308198,106.295197 C17.5976367,106.360234 17.2536919,106.258426 17.0095899,106.022513 C16.83833,105.671533 16.8751995,105.254623 17.1053978,104.939146 C19.7025432,99.7470783 25.1518455,96.6103925 30.9459566,96.9723498 L30.9459566,96.9723498 C30.4001656,96.3209692 29.8363257,95.6824287 29.2582633,95.0561915 C27.342105,92.8452397 25.4849054,90.8037941 23.9003899,88.8213072 C23.5767835,88.4237908 23.2603169,88.0206883 22.9511269,87.6121971 C20.9567416,89.8306562 19.6729558,92.4099658 17.8350119,94.7761376 C15.9630726,97.1860752 13.3836288,99.3306985 10.339885,99.5149445 C11.0363634,96.4469997 12.6568728,93.6664113 14.982884,91.5481479 C17.194086,89.3709094 20.0267695,87.9339663 23.0897076,87.4357774 L22.8504575,87.4786634 C21.8461396,86.1411341 20.9195487,84.7463897 20.0754432,83.3012973 C19.3138365,81.9905504 18.6653978,80.6172411 18.1371753,79.1962967 C18.1012818,79.0945983 18.0675127,78.9971488 18.0358681,78.9041331 L18.0192579,78.9309824 L18.0192579,78.9309824 L18.0112921,78.8315207 C17.9615348,78.6837299 17.9174224,78.5478492 17.8789549,78.4246788 C13.2765159,80.7423729 7.16959343,80.3259911 3.09533264,77.2138098 C2.87059047,77.0807599 2.70466769,76.8674306 2.63103275,76.6168528 C2.62313585,76.2562832 2.81242483,75.9200834 3.124812,75.7398419 C4.45138314,74.7449135 6.25699385,74.6933246 7.90783792,74.862831 C11.5033904,75.2292797 14.9672943,76.4141668 18.0339976,78.3266556 L17.8074278,78.1882634 C17.7902966,78.1294921 17.7749252,78.0748552 17.7613135,78.0244922 L17.7269609,77.9148199 C17.7336228,77.9562391 17.7401606,77.9977098 17.7465738,78.0392318 L17.739204,78.0392318 C15.397087,76.3141999 13.2097929,74.3882961 11.2021562,72.2833871 C9.19221426,70.1634227 7.77856085,67.5496894 7.1045254,64.707192 C6.83740976,63.8552931 6.95586249,62.9292082 7.42879835,62.1719671 C12.5474604,66.1684331 16.5921504,71.3171076 17.6903336,77.6948483 C17.7268056,77.7925983 17.798795,77.9797259 17.904578,78.2469538 L17.976,78.291 L17.9750389,78.2824365 C17.4929481,75.4392532 17.5354104,72.5318352 18.1003261,69.7039432 C18.681555,66.8537392 20.3124015,64.3259272 22.6696267,62.6215273 C23.5687471,64.7219316 23.1855155,67.1466089 22.5517093,69.3501909 C21.5861869,72.7109017 20.0901225,75.8954301 18.1203803,78.7835748 C18.1658403,78.8978362 18.2160872,79.0211347 18.2698324,79.1520776 C18.840398,80.5424419 19.5154403,81.8875992 20.2891685,83.1760101 C21.4126655,85.0286132 22.6638612,86.8006064 24.0336382,88.4791311 C21.7544191,82.2885437 22.6724143,75.3591907 26.5093131,69.9692574 C28.2569407,76.1992936 27.6321477,83.2346468 24.2750136,88.7718244 L24.1509645,88.6223215 C25.7428498,90.5753291 27.6000494,92.6315143 29.5235776,94.8277265 C29.8910879,95.2406516 30.251047,95.6538416 30.6029777,96.0664991 L30.7322313,96.5006801 C29.2773916,91.8228461 29.1879052,86.8269482 30.4742869,82.1000135 C30.9828058,80.2501837 31.8303374,78.2971762 33.54751,77.4275352 C33.6868782,77.3367561 33.8574996,77.3074306 34.0191797,77.3464669 C34.1568871,77.4179894 34.2622656,77.5391747 34.3139733,77.6854795 C34.8963291,78.9819301 35.1494858,80.4021393 35.0509573,81.8199596 C34.9519646,83.2309686 34.7350252,84.6312143 34.4024114,86.0060285 C33.8644131,88.555993 33.5769894,91.3049432 32.1914595,93.5085252 C31.8610957,94.0402651 31.5632984,94.5915593 31.2997089,95.1593693 C31.043607,95.7000289 31.0347146,95.8836082 30.8156654,96.3133001 C34.0735595,100.170347 36.6228185,103.96452 38.0725915,107.046921 C38.7320866,108.410718 39.2435258,109.841265 39.5981483,111.314058 C39.6495194,111.557214 39.6929331,111.776498 39.72765,111.969692 C39.6902794,102.625735 39.6641193,89.3288097 39.6579872,74.454771 L39.657107,71.782238 L39.657107,71.782238 C39.6566568,69.9574823 39.6565091,68.1537948 39.6566506,66.3754114 L39.6561547,66.3953877 C39.5146603,66.2455016 39.3844045,66.0852248 39.2665055,65.9158456 L37.7925376,64.0070572 C36.5396649,62.3930623 34.8446018,60.1600009 32.8768546,57.720584 C31.4739365,55.9813859 30.1983872,54.3658105 29.1036234,53.0073995 L29.2214141,53.0923247 C28.8024915,52.7762856 28.3472344,52.5115437 27.8653636,52.3037519 C26.6445838,51.9425516 25.3614897,51.8421137 24.0993756,52.0089583 C23.840764,52.028131 23.5825813,52.0517806 23.3249427,52.0798885 C20.8509158,54.1170712 18.1766429,55.8974696 15.3440061,57.396311 C12.4457707,58.9267249 9.15029082,59.5385222 5.8958717,59.1503329 C10.353837,54.3758578 16.6170005,51.7004356 23.1486663,51.7804932 L22.8349477,51.7782906 C23.2372326,51.7183022 23.6417552,51.6723141 24.0477867,51.6404663 C25.3573414,51.464189 26.6901139,51.6083409 27.9316922,52.0605471 C28.1994265,52.1517422 28.4470659,52.2881704 28.6648284,52.462006 C28.3864912,52.1223141 28.1224805,51.8004148 27.8727335,51.5004393 L27.6735131,51.2544267 C27.4031108,51.1602208 26.7090722,50.864274 25.7207403,50.5423602 C22.5989124,49.4738979 19.2726373,49.1582097 16.0123239,49.6160231 C13.684373,51.3094483 11.2142562,52.7972897 8.63008221,54.0651435 C5.95160622,55.3728939 2.9712683,55.937911 -8.2033626e-13,55.7012479 C1.36210882,52.7909599 3.92309599,50.6173489 7.01608733,49.7464175 C9.84423421,48.8793944 12.6723811,49.1624174 15.5965088,49.4137231 L15.1966093,49.495843 C16.189809,49.277859 17.1948435,49.143214 18.2015602,49.0911325 C17.7977818,49.0905018 17.402225,49.0905018 17.0169597,49.0905018 C13.9068874,49.0905018 10.6788976,48.9062558 8.01101568,47.3438498 C10.3104056,44.852844 14.1279826,44.2927362 17.4296707,45.0591995 C20.7313589,45.8256628 23.6424455,47.7123418 26.472464,49.5695414 L26.095877,49.3244549 C21.5474744,44.4967164 19.8636558,36.2435939 21.7631364,29.9215489 C25.5523407,35.7332329 27.2253261,42.6704105 26.5040226,49.5674435 L26.4503544,49.5105826 C26.8409559,49.9306635 27.3863241,50.54973 28.0569795,51.3235632 C29.3982903,52.8638597 31.2112708,55.008483 33.1495387,57.4773793 C33.3091042,57.6806282 33.4670715,57.8822788 33.6232924,58.0821419 C33.4793431,57.7279569 33.361009,57.3634106 33.2674561,56.9909699 C33.1756528,56.6928351 33.0974415,56.3911799 33.0329341,56.0869359 C30.8905776,51.0897697 31.160034,45.3975098 33.2600862,40.3351323 C34.8298621,42.7229603 35.0214779,45.7667041 34.7340542,48.6114622 C34.6382463,49.5597149 34.4785664,50.5161563 34.3060576,51.4758732 L34.0440529,52.917291 C33.8209802,54.1604651 33.6191142,55.4050074 33.5486916,56.6403068 C33.5679621,56.7085301 33.5870042,56.7761064 33.6064687,56.8435731 C33.8894244,57.6795264 34.2122964,58.5011304 34.5738927,59.3055749 C35.9195318,61.0425524 37.0950687,62.6001135 37.9915233,63.8375509 C38.5884803,64.6629729 39.0675199,65.3115188 39.3917928,65.8126679 C39.4870645,65.9468033 39.5760479,66.0852084 39.6584758,66.2274306 L39.6566645,66.2106358 C39.656735,65.424683 39.6568619,64.6437068 39.6570442,63.8680739 L39.6578542,61.3050344 C39.6604582,54.7592858 39.6670356,48.6363985 39.6768525,43.1675611 L39.5411017,42.7688256 C39.1440808,41.9517448 38.7030854,41.1565382 38.2199883,40.3867212 C37.8576104,39.9000587 37.4638543,39.4383846 37.0414724,39.0045417 L37.027306,39.0021525 C31.9221886,38.2537723 27.4356471,35.1972736 24.8732088,30.7027519 C27.3715844,30.1057949 30.0394663,31.0417645 32.0882817,32.5968007 C34.009416,34.0549278 35.6972741,36.6275964 37.1153997,38.6560397 C37.6469067,39.0996424 38.115035,39.6152609 38.5074121,40.1877355 C38.6615236,40.3867719 38.8042206,40.59347 38.9350801,40.8068118 C38.6952455,39.9711686 38.4821384,39.1279928 38.2936867,38.278947 C38.0780145,37.5300049 37.8827717,36.7755311 37.7081436,36.0163667 L37.8809757,36.4217475 C36.7933105,33.9415154 35.9921868,31.3452811 35.4931477,28.6834158 C34.9912033,25.9986144 35.4174326,23.2229258 36.7018014,20.8124271 C39.3112992,25.7422818 40.1837662,31.0266325 38.1370266,36.1717471 C38.3187028,36.8399195 38.4839212,37.5132693 38.6326993,38.190509 C39.0082588,39.491744 39.3204596,40.8101474 39.5682822,42.1410632 C39.6086273,42.2550428 39.6454967,42.3699586 39.6793604,42.4858411 C39.7001084,30.6724266 39.7373975,22.0191965 39.7823438,18.9283559 C38.2584852,17.1222152 36.92972,15.8366968 35.3236413,14.1206127 C33.6528675,12.4563598 32.292669,10.5071579 31.3070787,8.36476798 C30.3170826,6.19938055 30.2061138,3.73428793 30.9975455,1.48870761 C31.6534612,2.67525179 32.5894308,3.63701586 33.5511949,4.57851287 L34.2733816,5.28403107 C34.9924592,5.99214023 35.6902909,6.71760882 36.259611,7.54671578 C37.4771085,9.31724605 38.0544087,11.5430791 38.5441613,13.7971086 L38.7503064,14.7636023 C39.0563177,16.2121968 39.3587759,17.6472284 39.8045038,18.9552275 L39.7829147,18.8894298 C39.7912645,18.3247974 39.7998767,17.9519309 39.8087026,17.7861647 L39.8045038,17.7981627 L39.8045038,17.7981627 L39.8855721,16.7442756 C40.0771879,13.5310256 40.2761736,10.2735564 41.3226908,7.22981268 C42.369208,4.18606891 44.3811743,1.33394097 47.3070006,-3.55271368e-15 Z M54.2125403,80.5081281 C53.2441204,80.5291965 52.3020576,80.8059342 51.4800543,81.3055992 C49.119081,83.5003286 47.0000684,85.9479429 45.1623773,88.6075819 C44.5433107,89.5361817 43.9389839,90.4131926 43.4452046,91.2828337 C43.2019999,91.7102844 42.9366857,92.1156255 42.7082207,92.5283366 L42.0891541,93.7075109 C41.6764431,94.4444949 41.3521702,95.1814788 41.0942258,95.7636962 C40.8362814,96.3459135 40.5857068,96.9060213 40.4088307,97.3482117 L39.9961197,98.3578797 L39.9914316,98.3709271 C39.9816909,103.766832 39.9688645,108.585822 39.9540859,112.624395 L39.9297911,112.677478 C40.0182292,112.500602 40.1066673,112.220548 40.2688037,111.888905 C40.7011004,110.937389 41.1934147,110.0143 41.7427717,109.125215 C43.3991105,106.627791 45.1796987,104.215388 47.077736,101.897073 C47.4030158,101.273263 47.8958802,100.317339 48.3166686,99.1980414 C48.3768226,99.0380317 48.4329015,98.8795931 48.4852377,98.7235352 C47.3569533,93.7822084 48.7736842,87.9225895 51.8468218,83.9203639 C52.0826567,83.6182004 52.3921899,83.2865577 52.7754216,83.3234069 C53.3576389,83.3823656 53.5124056,84.1561987 53.5124056,84.7457859 C53.2700204,89.7994026 51.6418876,94.6863841 48.8097282,98.8730106 C48.6127851,99.5071532 48.361391,100.123857 48.0581767,100.716083 L47.9555465,100.841516 C49.215789,99.26437 50.4612919,97.790402 51.6846853,96.5301595 L52.0778433,96.1279622 C55.2097248,91.5818366 60.4611682,88.4563268 65.9440658,87.5656518 C62.6170043,86.3866747 59.5241905,84.6090442 56.8214635,82.3137388 C55.8191654,81.4662073 55.3917147,80.8102915 54.1241022,80.4491694 L54.3175709,80.5087809 C54.2825689,80.5083904 54.2475583,80.5081727 54.2125403,80.5081281 Z M20.9414617,49.1527192 L21.0090913,49.1596897 C22.6446162,49.324634 24.2594044,49.70804 25.8091784,50.3065253 C26.3141094,50.4988728 26.8064089,50.7228691 27.2831463,50.9771807 C27.3927209,51.0261396 27.4860703,51.0743609 27.5620281,51.117412 L26.6897194,50.0398227 C24.9594511,49.4732495 22.9397198,49.2448182 20.9414617,49.1527192 Z" id="Combined-Shape"></path>
                </g>
                <g id="Group-3" transform="translate(54.780554, 347.126922)" fill="#D9DCEA">
                    <path d="M275.821874,10.725956 L2.96961853,10.725956 C1.32955861,10.725956 -3.58091684e-05,9.3963616 -3.58091684e-05,7.75630169 L-3.58091684e-05,3.30665442 C-3.58091684e-05,1.66659451 1.32955861,0.337000084 2.96961853,0.337000084 L275.821874,0.337000084 C277.461934,0.337000084 278.791529,1.66659451 278.791529,3.30665442 L278.791529,7.75630169 C278.791529,9.3963616 277.461934,10.725956 275.821874,10.725956" id="Fill-1"></path>
                    <rect id="Rectangle" x="39.6682625" y="4.20419889" width="12.0988201" height="108.889381" rx="6.04941003"></rect>
                    <rect id="Rectangle-Copy-26" x="208.121065" y="2.80818119" width="12.0988201" height="149.373894" rx="6.04941003"></rect>
                </g>
                <path d="M400.85973,208.233328 C404.556669,221.267149 395.527387,234.698452 385.580674,237.520214 C375.633961,240.341618 368.535868,231.485295 364.838571,218.451474 C361.141633,205.417295 366.207556,192.56431 376.154627,189.742547 C386.101697,186.920785 397.162433,195.199506 400.85973,208.233328" id="Fill-4" fill="#FBC0A6"></path>
                <g id="Group-28" transform="translate(390.483925, 220.500000) scale(-1, 1) rotate(26.000000) translate(-390.483925, -220.500000) translate(359.483925, 180.000000)">
                    <g id="Group-8" transform="translate(0.000000, 0.205578)">
                        <g id="Group-3">
                            <mask id="mask-3" fill="white">
                                <use xlink:href="#path-2"></use>
                            </mask>
                            <g id="Clip-2"></g>
                            <path d="M49.4405475,11.610678 C52.5056085,18.1567576 51.2325263,20.6966196 52.6862769,24.1377231 C54.0580966,27.3855533 58.7176615,30.2594419 61.0852584,31.7299989 C61.9822981,34.5954844 57.8311257,35.6017655 57.5286111,37.2445878 C57.4151682,37.8769273 57.2134918,39.2508477 57.8143194,40.6037602 L59.1945422,40.7823279 C59.3268923,43.6667204 57.4445793,44.0952828 54.3122928,44.3683862 C56.1462875,44.9292987 59.1672318,45.2780308 57.7786058,47.7821793 C57.0622345,48.8703915 56.5160276,49.2800467 56.5370355,49.7590281 C56.5748499,50.6392615 58.8916283,52.5566517 56.7741594,56.3807053 C54.6566904,60.2047588 39.7411735,55.0551342 37.9891098,66.1053199 L19.2836244,79.8298186 C22.6932159,73.3908796 25.5797093,53.5614684 24.4767915,52.2736806 C19.390765,46.3305294 15.4601761,57.3765135 7.49185782,46.2170865 C-4.1759618,29.8749963 -0.411335809,15.9887363 6.59061645,8.99728806 C13.4097995,2.18650822 29.9283565,-2.00668011 37.9512955,2.78103342 C44.3839321,4.84401485 47.5330249,7.53513422 49.4405475,11.610678 Z" id="Fill-1" fill="#F7C5B0" mask="url(#mask-3)"></path>
                        </g>
                        <path d="M61.0888297,33.245513 C60.4774981,35.0227862 57.7716732,35.93033 57.5300817,37.2454281 C57.5132753,37.3399639 57.4943682,37.4492053 57.475461,37.5731523 C56.775896,37.1824042 55.9965008,36.6025846 54.8494663,35.6278154 C57.0826122,35.2811841 59.4102939,34.8946377 61.0888297,33.245513" id="Fill-4" fill="#DBAE9A"></path>
                        <path d="M49.1979056,23.8032764 C49.8596562,24.5259501 50.2798154,27.2695894 48.9710196,28.4691438 C47.1895448,28.6834249 45.5362186,28.2947777 43.9543194,27.1876584 C46.334521,24.794852 46.2714971,24.4776318 49.1979056,23.8032764" id="Fill-6" fill="#FFFFFF"></path>
                    </g>
                    <g id="Group-18" transform="translate(43.186358, 23.314331)">
                        <g id="Group-11">
                            <mask id="mask-5" fill="white">
                                <use xlink:href="#path-4"></use>
                            </mask>
                            <g id="Clip-10"></g>
                            <path d="M5.46786116,-0.65465244 C4.25360121,-0.55393668 3.37336779,0.68262904 3.50151633,2.10570543 C3.63176567,3.53064692 4.72207867,4.60494836 5.93423782,4.5042326 C7.14849776,4.40351684 8.03083198,3.16695112 7.89848185,1.74387473 C7.7724341,0.31893324 6.68212111,-0.7553682 5.46786116,-0.65465244" id="Fill-9" fill="#515D91" mask="url(#mask-5)"></path>
                        </g>
                        <g id="Group-14">
                            <mask id="mask-7" fill="white">
                                <use xlink:href="#path-6"></use>
                            </mask>
                            <g id="Clip-13"></g>
                            <path d="M6.00944631,0.163942876 C5.64600864,0.193784583 5.41071951,0.878278729 5.48424737,1.69146524 C5.55777522,2.50651685 5.9128097,3.14251822 6.27624737,3.11267652 C6.63968503,3.08283481 6.87497416,2.39834066 6.80144631,1.58328905 C6.72791845,0.770102543 6.37288397,0.134101169 6.00944631,0.163942876" id="Fill-12" fill="#000000" mask="url(#mask-7)"></path>
                        </g>
                        <g id="Group-17">
                            <mask id="mask-9" fill="white">
                                <use xlink:href="#path-8"></use>
                            </mask>
                            <g id="Clip-16"></g>
                            <path d="M5.33866222,0.82251204 C5.04665161,0.846758427 4.83447124,1.14517549 4.86598318,1.48649001 C4.89749511,1.83153475 5.15799379,2.08891947 5.45210519,2.06467308 C5.74201501,2.04042669 5.95629617,1.74387473 5.92268344,1.40069511 C5.8932723,1.05751548 5.63277363,0.798265653 5.33866222,0.82251204" id="Fill-15" fill="#FFFFFF" mask="url(#mask-9)"></path>
                        </g>
                    </g>
                    <path d="M52.9852202,22.7349317 C50.9411459,24.192884 50.4306525,23.8273455 49.222695,23.7580192 C45.1912679,23.5122261 44.840435,27.8944861 41.9686472,27.8419662 C45.4118515,28.5373296 45.2752997,24.0668362 49.3025252,24.1949848 C50.9663554,24.655059 51.8024721,24.0227195 52.9852202,22.7349317" id="Fill-19" fill="#464462"></path>
                    <path d="M49.5119317,27.9888294 C46.7703933,28.3396623 45.6611731,27.7619435 44.108685,27.1485111 C45.1863933,28.4783148 47.8544039,28.5938586 49.3291625,28.4489037 C49.4089927,28.4405005 50.4068707,28.8816676 50.4782978,28.8711636 L49.5119317,27.9888294 Z" id="Fill-21" fill="#464462"></path>
                    <path d="M51.7838002,43.5934005 C54.0106437,44.5261538 55.8698228,42.9769391 57.7689422,40.9664776 C58.0042313,40.7521964 58.9558918,40.9559736 59.1953825,40.9895864 C59.3256318,43.8718781 57.4454196,44.3004405 54.3131332,44.5756447 C56.1471279,45.1344564 59.9243586,45.4852893 57.2941623,48.686902 C55.4685708,49.3717614 54.0766577,47.7190622 51.5316217,44.1108144 L51.5973138,44.6954121" id="Fill-23" fill="#D59084"></path>
                    <path d="M47.2316178,20.5598558 C45.0110767,21.1522802 41.8380886,22.5489886 40.3024069,24.5258374 C41.6322106,21.5216994 43.2345026,20.8220612 45.8815052,18.8536156 C46.6714044,18.2653928 49.5983172,17.6690728 50.4386355,18.2362877 C50.722243,18.4274601 50.999548,20.3349826 50.2831767,20.3160755 C49.5668053,20.2950675 48.6811668,20.1733094 47.2316178,20.5598558 Z" id="Fill-25" fill="#4B496D"></path>
                </g>
                <path d="M345.09114,460.79618 C345.09114,460.79618 370.583329,500.389662 374.026738,502.111366 C377.46979,503.833071 386.076882,504.263139 382.849043,510.718458 C379.621563,517.174135 378.330284,542.566058 375.317659,543.856979 C372.305392,545.148257 346.483042,548.160883 350.356162,543.856979 C354.229998,539.553433 356.612382,541.705206 358.566488,533.958608 C360.520594,526.212011 363.267158,511.579311 359.609251,508.566685 C355.951344,505.55406 333.572047,478.44079 333.572047,478.44079 L345.09114,460.79618 Z" id="Fill-6" fill="#F7C5B0"></path>
                <path d="M216.787319,477.799591 C216.787319,477.799591 185.799139,528.872417 180.06072,533.463153 C174.322301,538.054246 155.38498,544.940349 170.879249,546.088033 C186.372802,547.235359 193.832926,540.923277 203.588776,538.054246 C213.344268,535.184858 225.394769,533.463153 220.804392,526.003029 C216.213298,518.542905 218.120494,502.257253 228.016716,491.92774 C237.913654,481.598228 216.787319,477.799591 216.787319,477.799591" id="Fill-8" fill="#F7C5B0"></path>
                <path d="M374.923257,359.368107 C374.923257,359.368107 298.212498,357.362078 267.798697,382.322142 C250.00906,409.29325 206.973244,488.871965 203.628309,497.641988 C205.923677,499.937356 218.835389,504.079044 224.574166,503.505382 C241.502592,483.320111 263.878309,465.869587 272.777604,450.036564 C283.744162,430.52558 287.123831,420.770446 304.91311,419.048384 C322.702746,417.327037 362.872397,411.588618 374.923257,411.588618 C386.974116,411.588618 374.923257,359.368107 374.923257,359.368107" id="Fill-10" fill="#3B3850"></path>
                <path d="M444.422514,301.187268 C447.07669,301.975428 448.589269,304.766037 447.80111,307.420212 C434.955287,350.682701 435.607013,354.896008 438.34928,372.63014 C438.877823,376.0492 439.47691,379.92411 440.082085,384.629434 C442.203062,401.124928 440.055228,412.284497 433.323821,419.749276 C429.656188,423.816109 424.779517,426.711294 418.330869,428.536189 L441.817863,546.225863 L437.796851,546.225863 L409.986802,430.196775 C406.137232,430.694268 401.863439,430.936777 397.120752,430.936777 C395.907895,430.936777 394.667107,430.921021 393.392659,430.889509 C377.497327,430.496682 366.677587,428.297999 357.983837,426.531175 C357.72678,426.478935 357.472648,426.427289 357.22135,426.376291 L325.385104,546.225863 L321.364092,546.225863 L348.900927,424.865922 C343.875978,424.188963 340.001891,424.40196 335.733452,426.441294 C333.235405,427.634813 330.242474,426.577727 329.048597,424.079679 C327.854719,421.581273 328.912164,418.588701 331.410569,417.394824 C340.948341,412.837391 348.931995,414.459546 359.980556,416.705497 C368.288641,418.394257 378.628181,420.495539 393.6401,420.865806 C410.441404,421.284774 420.685691,418.792097 425.877662,413.034341 C430.503849,407.904678 431.857077,399.284695 430.137163,385.907822 C429.548818,381.329978 428.959757,377.522031 428.440166,374.162056 C426.974497,364.684444 426.006575,358.423211 427.205824,348.743634 C428.318773,339.755175 431.295948,327.782021 438.189571,304.566221 C438.977372,301.912046 441.766548,300.399825 444.422514,301.187268 Z" id="Combined-Shape" fill="#BEC3DC"></path>
                <path d="M418.62584,354.113541 L374.026595,361.811438 C374.026595,361.811438 314.759915,362.356096 287.669205,367.401966 C263.022112,371.992701 259.389988,399.997619 287.669205,438.559439 C303.733198,460.465339 317.315615,477.939497 345.090997,497.641702 C352.156504,492.454028 354.859738,490.492043 356.812054,478.010758 C354.801727,475.254526 349.597939,458.003101 347.983303,454.627371 C332.619738,422.512992 312.113975,410.83419 311.829292,407.674747 C315.272344,402.079923 403.029157,436.838092 420.47789,416.391773 C437.136674,396.870763 418.62584,354.113541 418.62584,354.113541" id="Fill-16" fill="#4B4861"></path>
                <path d="M420.477855,253.145509 C408.731731,251.496497 396.768962,253.729556 385.580746,261.829232 C375.803768,271.795282 364.7416,288.2299 365.41911,315.339231 C366.279962,349.76903 360.091422,351.97953 366.547098,361.447832 C393.471296,372.566579 439.520812,420.337442 428.676722,369.123169 C420.824487,332.040627 445.898067,304.399172 425.6709,263.264822 C424.024395,259.917381 421.967158,256.670205 420.477855,253.145509" id="Fill-18" fill="#5456B0"></path>
                <path d="M365.411805,328.296313 C364.888274,346.244942 362.353702,351.53324 364.291694,357.159935 C375.26792,358.280762 395.346837,362.673114 400.363701,369.697441 C406.102479,377.731228 411.840898,378.878912 409.163088,372.948913 C406.484921,367.019631 399.407955,358.603044 410.310772,329.719011 C421.213948,300.834978 426.378704,281.323994 415.66675,261.239348 L365.411805,328.296313 Z" id="Fill-20" fill="#4A4C9B"></path>
                <path d="M420.477855,253.145509 C413.245119,236.022997 411.468626,216.785237 411.468626,216.785237 L392.53238,222.380062 C392.53238,222.380062 403.291602,246.480706 392.962806,255.087798 C390.766629,256.918005 388.220598,259.138531 385.580746,261.829232 C396.768962,253.729556 408.731731,251.496497 420.477855,253.145509" id="Fill-22" fill="#F7C5B0"></path>
                <path d="M405.581295,223.164169 C404.552728,223.118906 402.378132,223.586824 399.057507,224.567925 C398.945764,224.60094 398.169931,224.854276 396.730007,225.327932 C396.719265,225.355863 397.876406,232.568419 397.865305,232.59635 C398.238437,233.449683 399.689741,241.599833 394.928425,246.675036 C397.16264,245.319735 413.061918,247.524674 415.534334,245.152351 C418.155966,242.636852 412.692684,234.4117 415.657918,230.318424 C415.34602,228.553748 409.773116,228.037438 409.581179,226.710709 C408.459636,225.712707 407.055916,224.466906 405.581295,223.164169 Z" id="Fill-24" fill="#DEB5A3"></path>
                <path d="M407.164794,258.53085 C387.66133,265.35178 389.824562,285.898365 371.874858,316.200083 C362.585244,331.881634 353.957741,331.648516 353.957741,331.648516 C353.957741,331.648516 332.171084,331.822907 305.82055,328.600798 C289.319685,326.58331 288.271909,331.495611 299.748389,335.598626 C322.894003,343.874125 346.913361,352.781297 366.280034,350.629524 C385.646348,348.477751 418.770187,299.064322 420.477926,286.201668 C422.839541,268.41239 416.987248,255.095676 407.164794,258.53085" id="Fill-26" fill="#F09959"></path>
                <path d="M218.893901,520.845076 C198.332634,530.901007 187.265811,536.663776 180.674417,536.114464 C179.118151,535.984834 177.828305,535.825842 176.746868,535.657181 C169.414224,539.991164 157.70964,545.112591 170.879177,546.088033 C186.373446,547.235359 193.833212,540.923277 203.588704,538.054246 C213.344196,535.184858 225.394697,533.463153 220.80432,526.003029 C219.924847,524.573885 219.286011,522.818519 218.893901,520.845076" id="Fill-30" fill="#FF6755"></path>
                <path d="M376.268213,502.951342 C375.765453,519.230906 373.528096,535.362937 363.571356,538.409939 C360.931863,539.217435 358.526203,539.333457 356.397706,539.049849 C354.831771,540.98605 352.920994,541.007178 350.356341,543.856871 C346.482863,548.160775 372.305213,545.14815 375.317838,543.856871 C378.330463,542.565951 379.621384,517.174386 382.849222,510.718351 C385.500891,505.415729 380.166041,504.178522 376.268213,502.951342" id="Fill-32" fill="#FF6755"></path>
                <path d="M297.068037,348.887301 L231.747101,348.887301 C229.796217,348.887301 228.022947,347.755731 227.200769,345.9864 L200.803682,289.175154 C199.637019,286.664215 200.726692,283.682744 203.237631,282.516081 C205.749644,281.350135 208.730041,282.439092 209.896346,284.950031 L234.945934,338.860734 L297.068037,338.860734 C299.836802,338.860734 302.081321,341.105252 302.081321,343.874017 C302.081321,346.642782 299.836802,348.887301 297.068037,348.887301" id="Fill-34" fill="#7D7DA1"></path>
                <path d="M310.734284,329.169519 C297.535741,328.978298 284.445699,321.111024 277.942038,322.258708 C271.438735,323.406392 250.206047,338.135419 252.883856,338.70944 C255.562024,339.283103 272.395198,330.558199 272.968861,330.425705 C273.542882,330.292853 277.177154,336.468144 286.167762,338.736655 C295.157654,341.004808 286.231144,331.998802 314.099271,340.415389 C332.219427,345.888104 310.734284,329.169519 310.734284,329.169519" id="Fill-36" fill="#F6C3AE"></path>
                <path d="M418.535959,237.520071 L420.47789,253.145401 C420.47789,253.145401 403.398708,254.161666 394.899401,258.94398 C386.400453,263.725936 373.857576,277.542546 373.857576,277.542546 L384.105086,259.900443 L385.580781,248.614467 L418.535959,237.520071 Z" id="Fill-38" fill="#8384CE"></path>
                <path d="M411.267128,256.648433 C398.581014,254.271421 392.712965,265.638683 384.487599,284.193204 C376.262233,302.748082 362.2211,325.28315 359.429059,328.188706 C356.637377,331.094262 312.373305,328.188706 312.373305,328.188706 C312.373305,328.188706 311.034401,341.004808 312.373305,342.534933 C313.71221,344.065417 321.363913,343.873838 321.363913,343.873838 C321.363913,343.873838 324.424165,346.317814 327.293553,348.251867 C330.162942,350.186278 354.455882,353.820909 365.7415,353.246888 C377.027475,352.673225 387.356988,351.716762 388.886756,349.995057 C390.417239,348.273711 421.21384,300.835157 423.126766,283.810762 C425.039692,266.786725 417.741783,257.861648 411.267128,256.648433" id="Fill-40" fill="#5456B0"></path>
                <path d="M355.388642,205.762075 C355.388642,205.762075 363.225954,207.3672 376.280903,205.215069 C375.277172,201.341592 376.044804,201.387426 376.044804,201.387426 C376.044804,201.387426 383.784858,198.693626 386.974259,213.618024 C389.700053,225.086626 397.402605,229.932323 402.676222,231.590287 C408.503806,233.422284 414.671577,235.60736 421.55768,232.16395 C428.444141,228.720899 424.656964,193.524783 421.000489,186.447101 C415.512018,175.822879 406.389632,166.31447 390.608532,171.335632 C382.694706,173.853733 373.857719,178.604535 373.857719,178.604535 C352.577371,186.830138 355.388642,205.762075 355.388642,205.762075 Z" id="Fill-42" fill="#4B496D"></path>
                <path d="M413.206191,217.568925 L423.015754,231.896173 C423.015754,231.896173 412.144091,259.058502 443.762154,271.365039 C468.524194,281.002718 465.607537,297.984142 454.417888,315.061892 C443.228239,332.140001 461.112771,347.053087 461.112771,347.053087 C461.112771,347.053087 463.840355,328.135104 487.899461,324.564213 C520.70424,319.695599 529.993496,275.651754 505.490715,253.629115 C485.214848,235.405114 479.046002,250.497246 465.321064,234.143198 C451.596484,217.789151 425.68676,228.835563 425.68676,228.835563 L416.190169,214.986726 L413.206191,217.568925 Z" id="Fill-45" fill="#4B496D"></path>
                <path d="M422.678205,231.733073 C426.60088,247.864605 447.835026,253.560393 459.532855,264.620053 C481.024647,284.939372 471.15369,297.043039 464.644181,320.909249 C463.859471,323.78628 458.495939,330.629651 461.434049,330.119176 C464.689533,329.55356 466.181718,323.165311 467.900772,320.34344 C473.265101,311.537761 482.384302,306.15205 484.23478,295.520173 C488.843733,269.039547 469.887565,268.946909 452.68562,256.20284 C444.472159,250.117894 430.230877,239.085503 422.874653,231.988077 L422.678205,231.733073 Z" id="Path-2" fill="#5C5A7F"></path>
                <path d="M513.543663,296.90361 C513.401859,296.90361 513.258622,296.869233 513.125412,296.79654 C512.702864,296.565213 512.54781,296.034879 512.778779,295.612331 C521.027421,280.538104 514.29673,262.273995 510.911331,257.326959 C510.552523,256.802354 510.211978,256.270588 509.851738,255.708384 C506.525424,250.516413 502.386242,244.054649 480.297715,240.078398 C474.977905,239.120503 470.67042,235.958912 466.110481,232.611113 C456.691237,225.696362 446.016166,217.858809 422.819703,228.534955 C422.380682,228.737277 421.863598,228.54534 421.66235,228.107393 C421.461103,227.669447 421.652324,227.151647 422.089912,226.950041 C446.218129,215.844186 457.335444,224.004737 467.143217,231.204528 C471.53557,234.429144 475.68442,237.475072 480.606748,238.361349 C503.444762,242.472599 507.81169,249.289591 511.320988,254.766961 C511.674066,255.318064 512.00745,255.838372 512.351576,256.34149 C515.898116,261.524509 522.950374,280.659139 514.309979,296.449908 C514.150987,296.739604 513.85198,296.90361 513.543663,296.90361" id="Fill-47" fill="#4B496D"></path>
                <path d="M410.342177,236.152053 C408.772661,236.152053 407.07459,236.01562 405.24689,235.74168 C396.853221,234.48442 385.591954,229.714281 384.7089,202.926516 C384.692786,202.444883 385.070572,202.041672 385.551848,202.025757 C386.042433,202.016963 386.436692,202.387588 386.452448,202.869222 C386.816628,213.910979 389.007074,222.080482 392.963271,227.150702 C395.968735,231.003053 399.954295,233.184547 405.505791,234.016394 C413.273515,235.179476 418.423232,233.745677 420.808839,229.753313 C421.056638,229.340433 421.592343,229.205791 422.005223,229.4518 C422.418819,229.698883 422.55382,230.234946 422.306736,230.648542 C420.119154,234.309671 416.104946,236.152053 410.342177,236.152053" id="Fill-50" fill="#4B496D"></path>
                <g id="Group-2" transform="translate(126.243390, 0.000000)" fill-rule="nonzero">
                    <path d="M72.5294383,76.0355 C72.5294383,75.8938409 73.1905139,75.7757917 74.0168584,75.7757917 C74.8432029,75.7757917 75.5042785,75.8938409 75.5042785,76.0355 C75.5042785,76.1771591 74.8432029,76.2952083 74.0168584,76.2952083 C73.1905139,76.2952083 72.5294383,76.1771591 72.5294383,76.0355 Z" id="Path" fill="#263238"></path>
                    <path d="M66.5679529,76.0355 C66.5679529,75.8938409 67.2290285,75.7757917 68.055373,75.7757917 C68.8817175,75.7757917 69.5427931,75.8938409 69.5427931,76.0355 C69.5427931,76.1771591 68.8817175,76.2952083 68.055373,76.2952083 C67.2290285,76.2952083 66.5679529,76.1771591 66.5679529,76.0355 Z" id="Path" fill="#263238"></path>
                    <path d="M60.5946626,76.0355 C60.5946626,75.8938409 61.2557382,75.7757917 62.0820827,75.7757917 C62.9084272,75.7757917 63.5695028,75.8938409 63.5695028,76.0355 C63.5695028,76.1771591 62.9084272,76.2952083 62.0820827,76.2952083 C61.2557382,76.2952083 60.5946626,76.1771591 60.5946626,76.0355 Z" id="Path" fill="#263238"></path>
                    <path d="M54.6922018,76.0355 C54.6922018,75.8938409 55.3532774,75.7757917 56.1796219,75.7757917 C57.0059664,75.7757917 57.667042,75.8938409 57.667042,76.0355 C57.667042,76.1771591 57.0059664,76.2952083 56.1796219,76.2952083 C55.3532774,76.2952083 54.6922018,76.1771591 54.6922018,76.0355 Z" id="Path" fill="#263238"></path>
                    <path d="M48.6716917,76.0355 C48.6716917,75.8938409 49.3445723,75.7757917 50.1709168,75.7757917 C50.9972613,75.7757917 51.6583369,75.8938409 51.6583369,76.0355 C51.6583369,76.1771591 50.9854564,76.2952083 50.1709168,76.2952083 C49.3563772,76.2952083 48.6716917,76.1771591 48.6716917,76.0355 Z" id="Path" fill="#263238"></path>
                    <path d="M42.7102063,76.0355 C42.7102063,75.8938409 43.3830869,75.7757917 44.2094314,75.7757917 C45.0357759,75.7757917 45.6968515,75.8938409 45.6968515,76.0355 C45.6968515,76.1771591 45.023971,76.2952083 44.2094314,76.2952083 C43.3948918,76.2952083 42.7102063,76.1771591 42.7102063,76.0355 Z" id="Path" fill="#263238"></path>
                    <path d="M36.7487209,76.0355 C36.7487209,75.8938409 37.4216015,75.7757917 38.247946,75.7757917 C39.0742905,75.7757917 39.7353661,75.8938409 39.7353661,76.0355 C39.7353661,76.1771591 39.0624856,76.2952083 38.247946,76.2952083 C37.4334064,76.2952083 36.7487209,76.1771591 36.7487209,76.0355 Z" id="Path" fill="#263238"></path>
                    <path d="M30.7872355,76.0355 C30.7872355,75.8938409 31.4601161,75.7757917 32.2864606,75.7757917 C33.1128051,75.7757917 33.7738807,75.8938409 33.7738807,76.0355 C33.7738807,76.1771591 33.1010002,76.2952083 32.2864606,76.2952083 C31.471921,76.2952083 30.7872355,76.1771591 30.7872355,76.0355 Z" id="Path" fill="#263238"></path>
                    <path d="M24.8257501,76.0355 C24.8257501,75.8938409 25.4986306,75.7757917 26.3131702,75.7757917 C27.1277098,75.7757917 27.8123953,75.8938409 27.8123953,76.0355 C27.8123953,76.1771591 27.1395147,76.2952083 26.3131702,76.2952083 C25.4868257,76.2952083 24.8257501,76.1771591 24.8257501,76.0355 Z" id="Path" fill="#263238"></path>
                    <path d="M18.8642647,76.0355 C18.8642647,75.8938409 19.5371452,75.7757917 20.3516848,75.7757917 C21.1662244,75.7757917 21.8509099,75.8938409 21.8509099,76.0355 C21.8509099,76.1771591 21.1780293,76.2952083 20.3516848,76.2952083 C19.5253403,76.2952083 18.8642647,76.1771591 18.8642647,76.0355 Z" id="Path" fill="#263238"></path>
                    <path d="M12.9027793,76.0355 C12.9027793,75.8938409 13.5756598,75.7757917 14.3901994,75.7757917 C15.204739,75.7757917 15.8894245,75.8938409 15.8894245,76.0355 C15.8894245,76.1771591 15.2165439,76.2952083 14.3901994,76.2952083 C13.5638549,76.2952083 12.9027793,76.1771591 12.9027793,76.0355 Z" id="Path" fill="#263238"></path>
                    <path d="M6.9412939,76.0355 C6.9412939,75.8938409 7.61417443,75.7757917 8.42871402,75.7757917 C9.24325361,75.7757917 9.92793906,75.8938409 9.92793906,76.0355 C9.92793906,76.1771591 9.25505853,76.2952083 8.42871402,76.2952083 C7.60236951,76.2952083 6.9412939,76.1771591 6.9412939,76.0355 Z" id="Path" fill="#263238"></path>
                    <path d="M2.75054673,74.382811 C2.89220579,74.382811 3.01025501,75.0556915 3.01025501,75.8702311 L3.01025501,76.0945246 L2.75054673,75.8466213 C3.47064695,75.8466213 4.01367334,75.9646705 4.01367334,76.0945246 C4.01367334,76.2243787 3.47064695,76.330623 2.75054673,76.3542329 L2.50264338,76.3542329 L2.50264338,75.8702311 C2.43181385,74.9966669 2.54986306,74.382811 2.75054673,74.382811 Z" id="Path" fill="#263238"></path>
                    <path d="M2.75054673,68.362301 C2.89220579,68.362301 3.01025501,69.0351815 3.01025501,69.8497211 C3.01025501,70.6642607 2.89220579,71.3489461 2.75054673,71.3489461 C2.60888767,71.3489461 2.49083846,70.6760656 2.49083846,69.8497211 C2.49083846,69.0233766 2.54986306,68.362301 2.75054673,68.362301 Z" id="Path" fill="#263238"></path>
                    <path d="M2.75054673,62.4008156 C2.89220579,62.4008156 3.01025501,63.0618912 3.01025501,63.8882357 C3.01025501,64.7145802 2.89220579,65.3756558 2.75054673,65.3756558 C2.60888767,65.3756558 2.49083846,64.7145802 2.49083846,63.8882357 C2.49083846,63.0618912 2.54986306,62.4008156 2.75054673,62.4008156 Z" id="Path" fill="#263238"></path>
                    <path d="M2.75054673,56.4393302 C2.89220579,56.4393302 3.01025501,57.1004058 3.01025501,57.9267503 C3.01025501,58.7530948 2.89220579,59.4141704 2.75054673,59.4141704 C2.60888767,59.4141704 2.49083846,58.7530948 2.49083846,57.9267503 C2.49083846,57.1004058 2.54986306,56.4393302 2.75054673,56.4393302 Z" id="Path" fill="#263238"></path>
                    <path d="M2.75054673,50.4778447 C2.89220579,50.4778447 3.01025501,51.1389204 3.01025501,51.9652649 C3.01025501,52.7916094 2.89220579,53.452685 2.75054673,53.452685 C2.60888767,53.452685 2.49083846,52.7916094 2.49083846,51.9652649 C2.49083846,51.1389204 2.54986306,50.4778447 2.75054673,50.4778447 Z" id="Path" fill="#263238"></path>
                    <path d="M2.75054673,44.5163593 C2.89220579,44.5163593 3.01025501,45.1774349 3.01025501,46.0037795 C3.01025501,46.830124 2.89220579,47.4911996 2.75054673,47.4911996 C2.60888767,47.4911996 2.49083846,46.830124 2.49083846,46.0037795 C2.49083846,45.1774349 2.54986306,44.5163593 2.75054673,44.5163593 Z" id="Path" fill="#263238"></path>
                    <path d="M2.75054673,38.5548739 C2.89220579,38.5548739 3.01025501,39.2159495 3.01025501,40.0422941 C3.01025501,40.8686386 2.89220579,41.5297142 2.75054673,41.5297142 C2.60888767,41.5297142 2.49083846,40.8686386 2.49083846,40.0422941 C2.49083846,39.2159495 2.54986306,38.5548739 2.75054673,38.5548739 Z" id="Path" fill="#263238"></path>
                    <path d="M2.75054673,32.5933885 C2.89220579,32.5933885 3.01025501,33.2544641 3.01025501,34.0808086 C3.01025501,34.9071532 2.89220579,35.5682288 2.75054673,35.5682288 C2.60888767,35.5682288 2.49083846,34.9071532 2.49083846,34.0808086 C2.49083846,33.2544641 2.54986306,32.5933885 2.75054673,32.5933885 Z" id="Path" fill="#263238"></path>
                    <path d="M2.75054673,26.6200982 C2.89220579,26.6200982 3.01025501,27.2929787 3.01025501,28.1193232 C3.01025501,28.9456678 2.89220579,29.6067434 2.75054673,29.6067434 C2.60888767,29.6067434 2.49083846,28.9338628 2.49083846,28.1193232 C2.49083846,27.3047837 2.54986306,26.6200982 2.75054673,26.6200982 Z" id="Path" fill="#263238"></path>
                    <path d="M2.75054673,20.6586128 C2.89220579,20.6586128 3.01025501,21.3314933 3.01025501,22.1578378 C3.01025501,22.9841823 2.83318118,23.6216481 2.75054673,23.6216481 C2.66791228,23.6216481 2.49083846,22.9487676 2.49083846,22.134228 C2.49083846,21.3196884 2.54986306,20.6586128 2.75054673,20.6586128 Z" id="Path" fill="#263238"></path>
                    <path d="M2.75054673,14.6971274 C2.89220579,14.6971274 3.01025501,15.3700079 3.01025501,16.1963524 C3.01025501,17.0226969 2.83318118,17.7191873 2.75054673,17.7191873 C2.66791228,17.7191873 2.49083846,17.0463068 2.49083846,16.2317672 C2.49083846,15.4172276 2.54986306,14.6971274 2.75054673,14.6971274 Z" id="Path" fill="#263238"></path>
                    <path d="M2.75054673,8.73564198 C2.89220579,8.73564198 3.01025501,9.40852251 3.01025501,10.234867 C3.01025501,11.0612115 2.89220579,11.7222871 2.75054673,11.7222871 C2.60888767,11.7222871 2.49083846,11.0494066 2.49083846,10.234867 C2.49083846,9.42032743 2.54986306,8.73564198 2.75054673,8.73564198 Z" id="Path" fill="#263238"></path>
                    <path d="M3.14010914,3.2227436 C3.14010914,3.29357313 2.96303532,3.36440265 2.69152212,3.41162234 L2.88040087,3.2227436 C2.93209085,3.56653324 2.95577854,3.91395263 2.9512304,4.2615767 C2.9512304,5.08792121 2.83318118,5.76080174 2.69152212,5.76080174 C2.54986306,5.76080174 2.43181385,5.08792121 2.43181385,4.2615767 C2.43317946,3.91414045 2.45683791,3.56714985 2.50264338,3.2227436 L2.50264338,3.01025501 L2.64430244,3.01025501 C2.96303532,3.08108454 3.14010914,3.15191407 3.14010914,3.2227436 Z" id="Path" fill="#263238"></path>
                    <path d="M9.10159455,3.2227436 C9.10159455,3.36440265 8.42871402,3.48245187 7.61417443,3.48245187 C6.79963484,3.48245187 6.11494939,3.36440265 6.11494939,3.2227436 C6.11494939,3.08108454 6.78782992,2.96303532 7.61417443,2.96303532 C8.44051894,2.96303532 9.10159455,3.08108454 9.10159455,3.2227436 Z" id="Path" fill="#263238"></path>
                    <path d="M15.06308,3.2227436 C15.06308,3.36440265 14.4020043,3.48245187 13.5756598,3.48245187 C12.7493153,3.48245187 12.0882397,3.36440265 12.0882397,3.2227436 C12.0882397,3.08108454 12.7493153,2.96303532 13.5756598,2.96303532 C14.4020043,2.96303532 15.06308,3.08108454 15.06308,3.2227436 Z" id="Path" fill="#263238"></path>
                    <path d="M21.0245654,3.2227436 C21.0245654,3.36440265 20.3634898,3.48245187 19.5371452,3.48245187 C18.7108007,3.48245187 18.0497251,3.36440265 18.0497251,3.2227436 C18.0497251,3.08108454 18.7108007,2.96303532 19.5371452,2.96303532 C20.3634898,2.96303532 21.0245654,3.08108454 21.0245654,3.2227436 Z" id="Path" fill="#263238"></path>
                    <path d="M26.9860508,3.2227436 C26.9860508,3.36440265 26.3249752,3.48245187 25.4986306,3.48245187 C24.6722861,3.48245187 24.0112105,3.36440265 24.0112105,3.2227436 C24.0112105,3.08108454 24.6722861,2.96303532 25.4986306,2.96303532 C26.3249752,2.96303532 26.9860508,3.08108454 26.9860508,3.2227436 Z" id="Path" fill="#263238"></path>
                    <path d="M32.9475362,3.2227436 C32.9475362,3.36440265 32.2864606,3.48245187 31.4601161,3.48245187 C30.6337715,3.48245187 29.9726959,3.36440265 29.9726959,3.2227436 C29.9726959,3.08108454 30.6337715,2.96303532 31.4601161,2.96303532 C32.2864606,2.96303532 32.9475362,3.08108454 32.9475362,3.2227436 Z" id="Path" fill="#263238"></path>
                    <path d="M38.9090216,3.2227436 C38.9090216,3.36440265 38.247946,3.48245187 37.4216015,3.48245187 C36.5952569,3.48245187 35.9341813,3.36440265 35.9341813,3.2227436 C35.9341813,3.08108454 36.5952569,2.96303532 37.4216015,2.96303532 C38.247946,2.96303532 38.9090216,3.08108454 38.9090216,3.2227436 Z" id="Path" fill="#263238"></path>
                    <path d="M44.870507,3.2227436 C44.870507,3.36440265 44.2094314,3.48245187 43.3830869,3.48245187 C42.5567424,3.48245187 41.8956667,3.36440265 41.8956667,3.2227436 C41.8956667,3.08108454 42.5567424,2.96303532 43.3830869,2.96303532 C44.2094314,2.96303532 44.870507,3.08108454 44.870507,3.2227436 Z" id="Path" fill="#263238"></path>
                    <path d="M50.8319924,3.2227436 C50.8319924,3.36440265 50.1709168,3.48245187 49.3445723,3.48245187 C48.5182278,3.48245187 47.8571522,3.36440265 47.8571522,3.2227436 C47.8571522,3.08108454 48.5182278,2.96303532 49.3445723,2.96303532 C50.1709168,2.96303532 50.8319924,3.08108454 50.8319924,3.2227436 Z" id="Path" fill="#263238"></path>
                    <path d="M56.8052827,3.2227436 C56.8052827,3.36440265 56.1324022,3.48245187 55.3060577,3.48245187 C54.4797132,3.48245187 53.8186376,3.36440265 53.8186376,3.2227436 C53.8186376,3.08108454 54.4915181,2.96303532 55.3060577,2.96303532 C56.1205973,2.96303532 56.8052827,3.08108454 56.8052827,3.2227436 Z" id="Path" fill="#263238"></path>
                    <path d="M62.7667681,3.2227436 C62.7667681,3.36440265 62.0938876,3.48245187 61.2675431,3.48245187 C60.4411986,3.48245187 59.780123,3.36440265 59.780123,3.2227436 C59.780123,3.08108454 60.4530035,2.96303532 61.2675431,2.96303532 C62.0820827,2.96303532 62.7667681,3.08108454 62.7667681,3.2227436 Z" id="Path" fill="#263238"></path>
                    <path d="M68.7282535,3.2227436 C68.7282535,3.36440265 68.055373,3.48245187 67.2290285,3.48245187 C66.402684,3.48245187 65.7416084,3.36440265 65.7416084,3.2227436 C65.7416084,3.08108454 66.4144889,2.96303532 67.2290285,2.96303532 C68.0435681,2.96303532 68.7282535,3.08108454 68.7282535,3.2227436 Z" id="Path" fill="#263238"></path>
                    <path d="M74.6897389,3.2227436 C74.6897389,3.36440265 74.0168584,3.48245187 73.1905139,3.48245187 C72.3641694,3.48245187 71.7030938,3.36440265 71.7030938,3.2227436 C71.7030938,3.08108454 72.3759743,2.96303532 73.1905139,2.96303532 C74.0050535,2.96303532 74.6897389,3.08108454 74.6897389,3.2227436 Z" id="Path" fill="#263238"></path>
                    <path d="M75.5042785,8.36968941 C75.3626195,8.36968941 75.2445703,7.69680888 75.2445703,6.87046437 C75.2445703,6.04411986 75.3626195,5.38304425 75.5042785,5.38304425 C75.6459376,5.38304425 75.7639868,6.05592478 75.7639868,6.87046437 C75.7639868,7.68500396 75.6459376,8.36968941 75.5042785,8.36968941 Z" id="Path" fill="#263238"></path>
                    <path d="M75.5042785,14.3311748 C75.3626195,14.3311748 75.2445703,13.6582943 75.2445703,12.8319498 C75.2445703,12.0056053 75.3626195,11.3445297 75.5042785,11.3445297 C75.6459376,11.3445297 75.7639868,12.0174102 75.7639868,12.8319498 C75.7639868,13.6464894 75.6459376,14.3311748 75.5042785,14.3311748 Z" id="Path" fill="#263238"></path>
                    <path d="M75.5042785,20.2926602 C75.3626195,20.2926602 75.2445703,19.6197797 75.2445703,18.7934352 C75.2445703,17.9670907 75.3626195,17.3060151 75.5042785,17.3060151 C75.6459376,17.3060151 75.7639868,17.9788956 75.7639868,18.7934352 C75.7639868,19.6079748 75.6459376,20.2926602 75.5042785,20.2926602 Z" id="Path" fill="#263238"></path>
                    <path d="M75.5042785,26.2541456 C75.3626195,26.2541456 75.2445703,25.5812651 75.2445703,24.7667255 C75.2445703,23.9521859 75.3626195,23.2675005 75.5042785,23.2675005 C75.6459376,23.2675005 75.7639868,23.940381 75.7639868,24.7667255 C75.7639868,25.59307 75.6459376,26.2541456 75.5042785,26.2541456 Z" id="Path" fill="#263238"></path>
                    <path d="M75.5042785,32.215631 C75.3626195,32.215631 75.2445703,31.5427505 75.2445703,30.7282109 C75.2445703,29.9136713 75.3626195,29.2289859 75.5042785,29.2289859 C75.6459376,29.2289859 75.7639868,29.9018664 75.7639868,30.7282109 C75.7639868,31.5545554 75.6459376,32.215631 75.5042785,32.215631 Z" id="Path" fill="#263238"></path>
                    <path d="M75.5042785,38.1771164 C75.3626195,38.1771164 75.2445703,37.5042359 75.2445703,36.6896963 C75.2445703,35.8751567 75.3626195,35.1904713 75.5042785,35.1904713 C75.6459376,35.1904713 75.7639868,35.8633518 75.7639868,36.6896963 C75.7639868,37.5160408 75.6459376,38.1771164 75.5042785,38.1771164 Z" id="Path" fill="#263238"></path>
                    <path d="M75.5042785,44.1386018 C75.3626195,44.1386018 75.2445703,43.4657213 75.2445703,42.6511817 C75.2445703,41.8366421 75.3626195,41.1519567 75.5042785,41.1519567 C75.6459376,41.1519567 75.7639868,41.8248372 75.7639868,42.6511817 C75.7639868,43.4775262 75.6459376,44.1386018 75.5042785,44.1386018 Z" id="Path" fill="#263238"></path>
                    <path d="M75.5042785,50.1000873 C75.3626195,50.1000873 75.2445703,49.4390116 75.2445703,48.6126671 C75.2445703,47.7863226 75.3626195,47.125247 75.5042785,47.125247 C75.6459376,47.125247 75.7639868,47.7863226 75.7639868,48.6126671 C75.7639868,49.4390116 75.6459376,50.1000873 75.5042785,50.1000873 Z" id="Path" fill="#263238"></path>
                    <path d="M75.5042785,56.0615727 C75.3626195,56.0615727 75.2445703,55.4004971 75.2445703,54.5741525 C75.2445703,53.747808 75.3626195,53.0867324 75.5042785,53.0867324 C75.6459376,53.0867324 75.7639868,53.747808 75.7639868,54.5741525 C75.7639868,55.4004971 75.6459376,56.0615727 75.5042785,56.0615727 Z" id="Path" fill="#263238"></path>
                    <path d="M75.5042785,62.0230581 C75.3626195,62.0230581 75.2445703,61.3619825 75.2445703,60.5356379 C75.2445703,59.7092934 75.3626195,59.0482178 75.5042785,59.0482178 C75.6459376,59.0482178 75.7639868,59.7092934 75.7639868,60.5356379 C75.7639868,61.3619825 75.6459376,62.0230581 75.5042785,62.0230581 Z" id="Path" fill="#263238"></path>
                    <path d="M75.5042785,67.9845435 C75.3626195,67.9845435 75.2445703,67.3234679 75.2445703,66.4971234 C75.2445703,65.6707788 75.3626195,65.0097032 75.5042785,65.0097032 C75.6459376,65.0097032 75.7639868,65.6707788 75.7639868,66.4971234 C75.7639868,67.3234679 75.6459376,67.9845435 75.5042785,67.9845435 Z" id="Path" fill="#263238"></path>
                    <path d="M75.5042785,73.9460289 C75.3626195,73.9460289 75.2445703,73.2849533 75.2445703,72.4586088 C75.2445703,71.6322642 75.3626195,70.9711886 75.5042785,70.9711886 C75.6459376,70.9711886 75.7639868,71.6322642 75.7639868,72.4586088 C75.7639868,73.2849533 75.6459376,73.9460289 75.5042785,73.9460289 Z" id="Path" fill="#263238"></path>
                    <rect id="Rectangle" fill="#263238" x="72.8127564" y="72.6002678" width="5.39484917" height="5.39484917"></rect>
                    <rect id="Rectangle" fill="#263238" x="-4.19395064e-15" y="73.3439779" width="5.39484917" height="5.39484917"></rect>
                    <rect id="Rectangle" fill="#263238" x="72.8127564" y="-4.19395064e-15" width="5.39484917" height="5.39484917"></rect>
                    <rect id="Rectangle" fill="#263238" x="-4.19395064e-15" y="0.531221472" width="5.39484917" height="5.39484917"></rect>
                    <rect id="Rectangle" fill="#FFFFFF" opacity="0.566638765" x="57.4899682" y="60.3939789" width="95.5254256" height="163.852312"></rect>
                    <rect id="Rectangle" fill="#6E86E8" x="57.4899682" y="60.3939789" width="95.5254256" height="13.8117583"></rect>
                    <polygon id="Path" fill="#6E86E8" points="80.4387358 91.4291178 81.5956181 106.716491 85.8808046 101.144568 93.0227822 100.849445"></polygon>
                    <path d="M121.732351,91.4291178 C121.812775,91.4714671 121.888038,91.5229629 121.956645,91.5825817 L122.64133,92.0783884 L125.250218,93.9789808 L134.410837,100.707786 L134.812205,101.002909 L134.304593,101.002909 L127.410519,101.298032 L127.162615,101.298032 L127.304274,101.215398 L123.019088,106.787321 L122.73577,107.165078 L122.73577,106.704686 C122.440647,102.289646 122.192743,98.4412412 122.003865,95.6198649 C121.92123,94.3567383 121.862206,93.2588806 121.803181,92.4797558 C121.803181,92.1728278 121.803181,91.9013146 121.803181,91.6534113 C121.794808,91.5670443 121.794808,91.48007 121.803181,91.393703 L121.803181,91.7124359 C121.803181,91.9603392 121.803181,92.2436574 121.885815,92.5741952 C121.956645,93.4241495 122.051084,94.4865925 122.169134,95.7733289 C122.405232,98.5710953 122.723965,102.32506 123.089917,106.669272 L122.78299,106.574832 L127.044566,100.991104 L127.103591,100.991104 L127.434129,100.991104 L134.328203,100.719591 L134.233763,101.038324 L125.332853,94.2386891 L122.723965,92.2318524 L122.01567,91.6770211 L121.732351,91.4291178 Z" id="Path" fill="#407BFF"></path>
                    <path d="M77.6645792,157.985266 C77.5937497,157.914436 82.3865478,152.873735 88.3480332,146.723371 C94.3095186,140.573006 99.2321709,135.650354 99.3030005,135.721184 C99.37383,135.792013 94.5810318,140.832715 88.6195464,146.983079 C82.658061,153.133443 77.7354087,158.056095 77.6645792,157.985266 Z" id="Path" fill="#407BFF"></path>
                    <path d="M143.984629,146.699761 C143.906356,145.552309 143.744594,144.412083 143.500627,143.288138 C142.739596,140.228018 140.988144,137.505381 138.51895,135.54411 C134.825534,132.590984 129.844686,131.81399 125.427292,133.501858 C124.174581,133.96854 123.00331,134.62987 121.956645,135.461475 C120.850102,136.30169 119.885574,137.314046 119.099854,138.459925 C115.599942,143.413005 115.599942,150.033737 119.099854,154.986816 C119.89036,156.136014 120.85866,157.152131 121.96845,157.997071 C123.015467,158.825167 124.186804,159.48255 125.439097,159.944883 C127.760373,160.83003 130.281495,161.054766 132.722734,160.594153 C134.843277,160.172368 136.833674,159.254035 138.530755,157.914436 C140.997295,155.950764 142.748117,153.229108 143.512432,150.170408 C143.755583,149.046316 143.917337,147.906151 143.996434,146.758785 C143.996434,146.758785 143.996434,147.065713 143.996434,147.655959 C143.988894,148.019661 143.957345,148.382468 143.901994,148.742012 C143.851315,149.23564 143.764513,149.724888 143.642286,150.205822 C142.933792,153.325083 141.190464,156.112743 138.696024,158.11512 C134.939042,161.163396 129.843706,161.981888 125.321048,160.263616 C124.042646,159.794981 122.847146,159.1255 121.779571,158.280389 C120.639584,157.415329 119.643543,156.375462 118.828341,155.199304 C115.261989,150.133043 115.261989,143.372723 118.828341,138.306461 C119.639559,137.134269 120.631714,136.098284 121.767766,135.237182 C122.837836,134.392807 124.03257,133.719774 125.309243,133.24215 C129.829504,131.538357 134.914014,132.355831 138.672414,135.390646 C141.169967,137.397329 142.916971,140.188376 143.630481,143.311748 C143.752708,143.792682 143.83951,144.28193 143.890189,144.775558 C143.94554,145.135103 143.977089,145.49791 143.984629,145.861611 C143.996434,146.392833 143.984629,146.699761 143.984629,146.699761 Z" id="Path" fill="#407BFF"></path>
                    <path d="M131.613071,183.094334 L131.955414,183.354042 C132.215122,183.590141 132.54566,183.861654 132.935222,184.192192 L136.677382,187.438545 L136.760017,187.509375 L136.677382,187.592009 L120.610884,206.007687 L120.610884,206.066711 L120.540054,206.066711 L118.604047,206.361834 L115.1334,206.893056 L114.873692,206.893056 L114.873692,206.633348 C115.310474,204.437632 115.723646,202.324551 116.125014,200.317715 L116.125014,200.317715 L116.125014,200.317715 C120.469225,195.194379 124.258605,190.873777 126.997347,187.780888 C129.736088,184.687998 131.471412,183.058919 131.565851,183.141554 C131.463479,183.248337 131.352967,183.347009 131.235313,183.436677 C131.03463,183.63736 130.727702,183.944288 130.349944,184.357461 C129.582624,185.172 128.508376,186.387907 127.162615,187.898937 C124.471093,190.980022 120.717128,195.371452 116.396527,200.506593 L116.396527,200.435764 L115.216035,206.751397 L115.003546,206.538908 L118.485998,206.007687 L120.4102,205.724369 L120.303956,205.783393 L136.476699,187.462155 L136.476699,187.615619 L132.852588,184.322046 L131.896389,183.436677 C131.794483,183.328954 131.699835,183.214588 131.613071,183.094334 Z" id="Path" fill="#407BFF"></path>
                    <path d="M96.6705029,205.417441 C96.6705029,205.417441 96.6705029,205.263977 96.6705029,204.980659 L96.6705029,203.729337 C96.6705029,202.548845 96.6705029,201.0024 96.6705029,199.007368 C96.6705029,194.922865 96.6705029,189.197478 96.5878685,182.362429 L96.7531374,182.515893 L74.3237864,182.515893 L74.5008602,182.338819 L74.5008602,182.338819 L74.5008602,194.497888 C74.5008602,198.369902 74.5008602,202.017623 74.5008602,205.358416 L74.3473962,205.204952 L90.5319437,205.275782 L95.1004484,205.275782 L96.2809405,205.275782 L96.7059177,205.275782 C96.5763068,205.28702 96.4459663,205.28702 96.3163553,205.275782 L95.1358631,205.275782 L90.6027732,205.275782 L74.3119814,205.346611 L74.1467125,205.346611 L74.1467125,205.417441 C74.1467125,202.076648 74.1467125,198.428927 74.1467125,194.556913 C74.1467125,192.620906 74.1467125,190.625874 74.1467125,188.595427 L74.1467125,182.397844 L74.1467125,182.397844 L74.3355913,182.208965 L96.7649423,182.208965 L96.9302112,182.208965 L96.9302112,182.374234 C96.9302112,189.256503 96.8593817,195.017305 96.8475768,199.125417 C96.8475768,201.085034 96.8475768,202.666894 96.8475768,203.788362 L96.8475768,204.968854 C96.8040189,205.124035 96.7446848,205.274348 96.6705029,205.417441 Z" id="Path" fill="#407BFF"></path>
                    <path d="M77.6645792,182.397844 C76.0535972,182.572497 74.432184,182.631673 72.8127564,182.574917 C71.1933288,182.631673 69.5719157,182.572497 67.9609336,182.397844 C69.5707935,182.208274 71.1930313,182.145121 72.8127564,182.208965 C74.4324815,182.145121 76.0547193,182.208274 77.6645792,182.397844 L77.6645792,182.397844 Z" id="Path" fill="#407BFF"></path>
                    <path d="M74.2765667,186.824689 C74.0247272,183.185255 74.0247272,179.532766 74.2765667,175.893332 C74.5126695,179.533293 74.5126695,183.184728 74.2765667,186.824689 L74.2765667,186.824689 Z" id="Path" fill="#407BFF"></path>
                    <path d="M153.015394,224.234486 C153.015394,224.234486 153.015394,223.962973 153.015394,223.431751 C153.015394,222.90053 153.015394,222.121405 153.015394,221.070767 C153.015394,219.004905 153.015394,215.982846 153.015394,212.051807 C153.015394,204.166119 153.015394,192.691735 152.932759,178.207096 C152.932759,149.261429 152.86193,108.34557 152.802905,60.3585641 L153.086223,60.6418822 L57.5726026,60.6418822 L57.5726026,60.6418822 L57.8795306,60.3349543 C57.8795306,122.830209 57.8795306,180.166713 57.8087011,224.175461 L57.5726026,223.939363 L127.22164,224.069217 L146.345613,224.069217 L151.3509,224.069217 L153.074418,224.069217 C153.074418,224.069217 152.519587,224.069217 151.398119,224.069217 L146.440052,224.069217 L127.375104,224.140046 L57.5489928,224.258096 L57.3128943,224.258096 L57.3128943,224.021997 C57.3128943,180.013249 57.3128943,122.676745 57.2420648,60.1814903 L57.2420648,59.8627574 L57.5607977,59.8627574 L153.074418,59.8627574 L153.357736,59.8627574 L153.357736,60.1578805 C153.298712,108.215716 153.251492,149.202404 153.216077,178.207096 C153.216077,192.668125 153.216077,204.118899 153.145248,211.980977 C153.145248,215.888406 153.145248,218.898661 153.145248,220.940913 C153.145248,221.944331 153.145248,222.711651 153.145248,223.301897 C153.145248,223.892143 153.015394,224.234486 153.015394,224.234486 Z" id="Path" fill="#263238"></path>
                </g>
                <rect id="Rectangle" fill="#FFFFFF" fill-rule="nonzero" opacity="0.468424479" x="513.868374" y="349.246401" width="106.590605" height="77.8419469"></rect>
                <rect id="Rectangle" fill="#6E86E8" fill-rule="nonzero" x="513.868374" y="349.246401" width="106.590605" height="9.72558997"></rect>
                <path d="M519.657194,354.383746 C519.695804,354.805374 519.492673,355.21258 519.132618,355.435337 C518.772563,355.658094 518.317503,355.658094 517.957448,355.435337 C517.597393,355.21258 517.394262,354.805374 517.432872,354.383746 C517.394262,353.962119 517.597393,353.554913 517.957448,353.332156 C518.317503,353.109398 518.772563,353.109398 519.132618,353.332156 C519.492673,353.554913 519.695804,353.962119 519.657194,354.383746 L519.657194,354.383746 Z" id="Path" fill="#FFFFFF" fill-rule="nonzero"></path>
                <path d="M524.170984,354.383746 C524.115812,354.981653 523.597755,355.428926 522.998196,355.396291 C522.398636,355.363657 521.932186,354.862797 521.942237,354.262434 C521.952287,353.662071 522.43524,353.177105 523.035557,353.164558 C523.348289,353.174238 523.644185,353.308494 523.857422,353.537461 C524.070658,353.766428 524.18355,354.071116 524.170984,354.383746 Z" id="Path" fill="#FFFFFF" fill-rule="nonzero"></path>
                <path d="M528.675468,354.383746 C528.714078,354.805374 528.510947,355.21258 528.150892,355.435337 C527.790837,355.658094 527.335777,355.658094 526.975723,355.435337 C526.615668,355.21258 526.412537,354.805374 526.451146,354.383746 C526.412537,353.962119 526.615668,353.554913 526.975723,353.332156 C527.335777,353.109398 527.790837,353.109398 528.150892,353.332156 C528.510947,353.554913 528.714078,353.962119 528.675468,354.383746 Z" id="Path" fill="#FFFFFF" fill-rule="nonzero"></path>
                <rect id="Rectangle" fill="#6E86E8" fill-rule="nonzero" x="524.003462" y="368.502139" width="15.1886726" height="38.2136578"></rect>
                <rect id="Rectangle" fill="#D6DBEF" fill-rule="nonzero" x="547.428639" y="368.502139" width="15.1886726" height="38.2136578"></rect>
                <rect id="Rectangle" fill="#FAFAFA" fill-rule="nonzero" x="570.853816" y="368.502139" width="15.1886726" height="38.2136578"></rect>
                <rect id="Rectangle" fill="#D6DBEF" fill-rule="nonzero" x="594.278993" y="368.799956" width="15.1886726" height="38.2136578"></rect>
                <rect id="Rectangle" fill="#6E86E8" fill-rule="nonzero" x="522.24448" y="410.941077" width="92.0720206" height="8.72976401"></rect>
                <path d="M620.458978,427.088348 C620.458978,427.088348 620.458978,426.595088 620.458978,425.66441 C620.458978,424.733732 620.458978,423.337714 620.458978,421.532198 C620.458978,417.902552 620.458978,412.597684 620.403138,405.813038 C620.403138,392.253053 620.347297,372.820487 620.300763,349.255708 L620.496205,349.45115 L513.914908,349.497684 L513.914908,349.497684 L514.156884,349.255708 C514.156884,377.176062 514.156884,403.653864 514.156884,427.088348 L513.933521,426.874292 L590.816869,426.985973 L612.69712,427.041814 L618.51386,427.041814 L620.524126,427.041814 L620.040173,427.041814 L618.560394,427.041814 L612.790188,427.041814 L590.965778,427.097655 L513.933521,427.209336 L513.719465,427.209336 L513.719465,427.088348 C513.719465,403.653864 513.719465,377.176062 513.719465,349.255708 L513.719465,349.004425 L513.970748,349.004425 L620.552046,349.050959 L620.756795,349.050959 L620.756795,349.246401 C620.710262,372.867021 620.673034,392.346121 620.645114,405.92472 C620.645114,412.690752 620.645114,418.02354 620.59858,421.597345 C620.59858,423.384248 620.59858,424.761652 620.59858,425.69233 C620.59858,426.623009 620.458978,427.088348 620.458978,427.088348 Z" id="Path" fill="#263238" fill-rule="nonzero"></path>
            </g>
        </g>
    </g>
</svg>