<?xml version="1.0" encoding="UTF-8"?>
<svg width="2565px" height="320px" viewBox="0 0 2565 320" version="1.1" xmlns="http://www.w3.org/2000/svg" xmlns:xlink="http://www.w3.org/1999/xlink">
    <title>A7D990B6-090F-4EBF-8335-EC595CB1C7F0</title>
    <defs>
        <rect id="path-1" x="0" y="0" width="2565" height="320"></rect>
        <polygon id="path-3" points="0 0.000242857143 36.9531429 0.000242857143 36.9531429 33.7998857 0 33.7998857"></polygon>
    </defs>
    <g id="Page-1" stroke="none" stroke-width="1" fill="none" fill-rule="evenodd">
        <g id="Portfolio_Ðrtists_Inside" transform="translate(0.000000, -128.000000)">
            <g id="Group-2" transform="translate(0.000000, 128.000000)">
                <mask id="mask-2" fill="white">
                    <use xlink:href="#path-1"></use>
                </mask>
                <use id="Rectangle" fill="#F9F8FD" xlink:href="#path-1"></use>
                <g id="Group-5" mask="url(#mask-2)" fill-rule="nonzero">
                    <g transform="translate(981.000000, -203.000000)">
                        <path d="M700.560392,142.238567 C663.398856,147.685842 628.939778,164.832776 602.183645,191.191115 C573.512148,219.490255 555.812774,257.14797 527.091629,285.521581 C498.635083,313.691879 463.06281,333.605831 424.172125,343.137637 C392.174238,350.907489 361.86437,344.875304 330.23884,354.357998 C226.935079,385.036985 165.461054,438.429586 154.264846,532.011263 C148.055759,583.908913 66.1432707,654.808385 86.9207972,693.607996 C103.401666,724.137316 198.793263,729.524021 229.695465,745.294637 C280.882155,771.161044 340.881297,769.497849 397.82711,776.249925 C451.116672,782.538828 496.885275,778.268256 546.093852,799.665537 C576.655316,812.985304 606.107718,829.129808 635.976232,844.071495 C666.226358,859.204083 696.903298,873.102922 729.591434,881.5841 C807.339597,901.741032 894.769046,887.665933 958.193872,838.365852 C1021.6187,789.065772 1063.50232,722.183673 1047.39167,643.492205 C1037.46215,595.2099 1010.15596,552.463304 993.697774,506.067609 C979.490493,466.165388 1206.21754,442.827315 1162.61416,371.472795 C1119.01079,300.118275 986.970522,300.948492 976.544523,262.397119 C968.725024,233.328441 862.075666,105.902448 700.560392,142.238567 Z" id="Path" fill="#EDF0FC" opacity="0.675223214" transform="translate(625.873449, 513.118076) rotate(16.000000) translate(-625.873449, -513.118076) "></path>
                        <polygon id="Path-Copy" fill="#FFFFFF" points="685.785466 195.671854 681.106814 195.671854 679.922345 192 678.797099 195.671854 674 195.671854 677.790301 198.958755 675.983985 204.821876 679.922345 200.794682 684.008762 204.821876 682.113612 198.86992"></polygon>
                        <polygon id="Path-Copy-2" fill="#FFFFFF" points="190.316059 452.063605 183.860704 452.063605 182.232059 447 180.662638 452.063605 174 452.063605 179.270887 456.594198 176.75389 464.70781 182.232059 459.170418 187.858286 464.70781 185.252455 456.505363"></polygon>
                        <polygon id="Path-Copy-4" fill="#FFFFFF" points="510.316059 328.063605 503.860704 328.063605 502.232059 323 500.662638 328.063605 494 328.063605 499.270887 332.594198 496.75389 340.70781 502.232059 335.170418 507.858286 340.70781 505.252455 332.505363"></polygon>
                        <polygon id="Path-Copy-8" fill="#FFFFFF" points="333.978261 290.425202 329.23913 290.425202 328.043478 286.70781 326.891304 290.425202 322 290.425202 325.869565 293.751289 324.021739 299.70781 328.043478 295.642593 332.173913 299.70781 330.26087 293.686071"></polygon>
                        <polygon id="Path-Copy-9" fill="#FFFFFF" points="403.978261 413.717391 399.23913 413.717391 398.043478 410 396.891304 413.717391 392 413.717391 395.869565 417.043478 394.021739 423 398.043478 418.934783 402.173913 423 400.26087 416.978261"></polygon>
                        <polygon id="Path-Copy-5" fill="#FFFFFF" points="802.316059 469.063605 795.860704 469.063605 794.232059 464 792.662638 469.063605 786 469.063605 791.270887 473.594198 788.75389 481.70781 794.232059 476.170418 799.858286 481.70781 797.252455 473.505363"></polygon>
                        <polygon id="Path-Copy-7" fill="#FFFFFF" points="1009.31606 469.063605 1002.8607 469.063605 1001.23206 464 999.662638 469.063605 993 469.063605 998.270887 473.594198 995.75389 481.70781 1001.23206 476.170418 1006.85829 481.70781 1004.25245 473.505363"></polygon>
                        <polygon id="Path-Copy-6" fill="#FFFFFF" points="1027.31606 302.063605 1020.8607 302.063605 1019.23206 297 1017.66264 302.063605 1011 302.063605 1016.27089 306.594198 1013.75389 314.70781 1019.23206 309.170418 1024.85829 314.70781 1022.25245 306.505363"></polygon>
                    </g>
                </g>
                <g id="Group-4" mask="url(#mask-2)">
                    <g transform="translate(1518.000000, 88.000000)">
                        <g id="Group-3" transform="translate(102.446404, 60.000000) rotate(-14.000000) translate(-102.446404, -60.000000) translate(9.946404, 22.000000)">
                            <path d="M54.296281,47.7665961 C82.1468904,33.951485 127.342506,14.5585699 184.49024,0.626230065 L184.353217,-0.000149019608 C74.8851172,26.6872758 2.86209545,66.8063346 2.1929877,67.2777333 L2.2287739,67.3418118 C0.997916997,68.0441908 0.119742506,69.3704654 0.0114421663,70.9525569 C-0.158542279,73.4178379 1.5978067,75.5617333 3.93521055,75.7405569 C4.88307395,75.8135765 5.7781998,75.5478248 6.52170518,75.0461255 L6.52311779,75.0481124 C6.5311226,75.0426484 6.58809799,75.0029098 6.66908781,74.9472758 C6.6789761,74.9393281 6.68980614,74.9323739 6.7001653,74.9249229 C8.55304285,73.643851 25.6983992,61.952766 54.296281,47.7665961" id="Fill-1" fill="#FFFFFF"></path>
                        </g>
                        <g id="Group-3-Copy" transform="translate(0.000000, 109.292159)">
                            <mask id="mask-4" fill="white">
                                <use xlink:href="#path-3"></use>
                            </mask>
                            <g id="Clip-2"></g>
                            <path d="M18.4692857,16.0557714 C22.3568214,17.3842 36.9531429,18.29795 36.9531429,18.29795 C36.9531429,18.29795 22.6166786,18.5219857 17.5719286,21.1563786 C14.7930357,22.6080571 14.0413929,33.8001286 14.0413929,33.8001286 C14.0413929,33.8001286 12.5836429,23.2303786 10.846,21.4927357 C8.04039286,18.6865214 0,18.29795 0,18.29795 C0,18.29795 9.22067857,17.4570571 10.9583214,15.1590214 C12.1841429,13.5373429 13.2842857,-0.000121428571 13.2842857,-0.000121428571 C13.2842857,-0.000121428571 14.0413929,14.5427714 18.4692857,16.0557714" id="Fill-1" fill="#FFFFFF" mask="url(#mask-4)"></path>
                        </g>
                    </g>
                </g>
                <g id="moon-phase" mask="url(#mask-2)" fill-rule="nonzero">
                    <g transform="translate(1356.500000, 330.500000) rotate(-34.000000) translate(-1356.500000, -330.500000) translate(1274.000000, 248.000000)">
                        <path d="M165.000071,82.5 C165.000071,82.9916327 164.996633,83.4832653 164.986531,83.9715306 C158.157982,90.0556823 147.914428,90.25637 140.852815,84.4443489 C133.791201,78.6323278 132.018101,68.541402 136.675409,60.6702226 C141.332716,52.7990432 151.031093,49.4956889 159.524694,52.887551 C163.157039,62.3371809 165.01326,72.376302 165.000071,82.5 L165.000071,82.5 Z" id="Path" fill="#F8F8FF"></path>
                        <path d="M152.625,88.6858163 C157.185922,88.6928011 161.588496,87.0138027 164.986531,83.9715306 C164.201939,128.854898 127.571939,165.000002 82.5,165.000002 C51.3089126,165.007287 22.7806314,147.422557 8.77193878,119.554286 L8.82918367,119.527347 C15.6510572,120.227431 22.3031511,117.109237 26.1290536,111.417968 C29.954956,105.726699 30.3312819,98.3896786 27.1077512,92.3368342 C23.8842205,86.2839897 17.5860691,82.5015598 10.7283673,82.5 C6.91414603,82.4935886 3.19136402,83.6674705 0.0707142857,85.8606122 C0.0258163265,84.7460204 0.00336734694,83.6258163 0.00336734694,82.5 C0.00336734694,39.6033673 32.7440816,4.35397959 74.5968367,0.37377551 L74.6136735,0.552244898 C73.2605434,7.1259882 75.7336579,13.900473 81.0037645,18.0563169 C86.2738711,22.2121607 93.4382768,23.0375278 99.5153232,20.1889195 C105.59237,17.3403111 109.541147,11.3056529 109.718265,4.59642857 C132.593263,12.6196229 150.798799,30.2712749 159.524694,52.887551 C152.579378,50.1082199 144.644448,51.7693212 139.397108,57.1010674 C134.149769,62.4328136 132.615491,70.3932387 135.505289,77.2933224 C138.395088,84.193406 145.144219,88.6846872 152.625,88.6858163 L152.625,88.6858163 Z" id="Path" fill="#E9ECFC"></path>
                        <path d="M109.718265,4.59642857 C109.534052,11.3002287 105.584365,17.3268145 99.5110316,20.1710187 C93.4376986,23.0152229 86.2795061,22.1905717 81.0120142,18.0398609 C75.7445223,13.8891502 73.2686851,7.12231926 74.6136735,0.552244898 L74.5968367,0.37377551 C77.1964286,0.127959184 79.8308163,0.00336734694 82.5,-4.19492138e-05 C91.7666772,-0.00935067281 100.968539,1.54459486 109.718265,4.59642857 L109.718265,4.59642857 Z" id="Path" fill="#E4E6FC"></path>
                        <path d="M96.8578798,55.4466926 C103.463218,55.4485532 108.816568,60.8044162 108.815329,67.4097541 C108.814089,74.0150921 103.458728,79.3689454 96.8533903,79.3683257 C90.2480523,79.367706 84.8936961,74.0128479 84.8936961,67.4075099 C84.8933386,64.234611 86.1538398,61.1916124 88.3977339,58.94835 C90.6416279,56.7050875 93.6849812,55.4454428 96.8578798,55.4466926 L96.8578798,55.4466926 Z" id="Path" fill="#DBDFF5"></path>
                        <circle id="Oval" fill="#F8FAFF" cx="48.2641837" cy="43.3141837" r="8.25"></circle>
                        <path d="M0.00336734692,82.5 C0.00336734692,39.6033673 32.7440816,4.35397959 74.5968367,0.37377551 L74.6136735,0.552244898 C74.5150102,1.03613265 74.4389082,1.52843878 74.3803163,2.02512245 C37.9562666,10.2399606 10.6559978,42.5446167 10.1136349,81.322936 L10.1054082,82.5 L10.1054082,82.510102 L10.1727551,85.8606122 C10.611789,97.0304445 13.3274869,107.992927 18.1533673,118.07602 L18.1533673,118.075347 L18.8739796,119.554286 C32.0683147,145.791387 58.2129648,163.038798 87.5254286,164.843082 C85.8626327,164.943092 84.188051,165.000002 82.5,165.000002 C51.6206754,165.007088 23.3512766,147.772086 9.19653802,120.386576 L8.77193878,119.554286 C3.49674003,109.074031 0.529661439,97.5846397 0.0707142857,85.8606122 L0.0707142857,85.8606122 C0.0258163265,84.744898 0.00336734692,83.6246939 0.00336734692,82.5 Z" id="Combined-Shape" fill="#D9DEF3"></path>
                    </g>
                </g>
                <g id="freepik--planet-2--inject-54" opacity="0.437593006" mask="url(#mask-2)">
                    <g transform="translate(1845.000000, 118.000000) rotate(-17.000000) translate(-1845.000000, -118.000000) translate(1754.000000, 62.000000)">
                        <g id="Group-2" stroke-width="1" fill="none" fill-rule="evenodd" transform="translate(34.803235, -0.000000)">
                            <circle id="Oval" fill="#F4F6FC" fill-rule="nonzero" cx="56.0522858" cy="55.9676731" r="55.9676731"></circle>
                            <circle id="Oval" fill="#BDC8F7" fill-rule="nonzero" cx="56.0522858" cy="55.9676731" r="55.9676731"></circle>
                            <circle id="Oval" fill="#FFFFFF" fill-rule="nonzero" opacity="0.4" cx="56.0522858" cy="55.9676731" r="55.9676731"></circle>
                            <path d="M6.74693052,29.4234857 C5.48592399,35.7285183 9.85741329,38.376632 19.4620797,37.8301958 C42.2287749,36.5581993 64.4812994,30.5602528 84.8032346,20.218138 C89.258791,17.1707056 89.7001433,13.7029376 88.0188012,10.0039851 C115.193492,31.5882135 117.085002,60.4442462 105.252557,82.6169444 C102.371078,86.9843409 98.0506049,90.2042459 93.0418106,91.7172081 C78.5333686,97.4291362 63.3197434,101.154778 47.8137098,102.793049 C33.4592521,104.894726 25.0315252,103.948971 21.7949418,100.207985 C-2.68960167,81.2298372 -4.74924566,52.1216032 6.74693052,29.4234857 Z" id="Path" fill="#FFFFFF" fill-rule="nonzero" opacity="0.2"></path>
                            <path d="M0.0838703275,55.9676731 C0.0276218874,66.7403436 3.25321611,77.2748411 9.3319939,86.1687794 C12.2743425,90.3721345 21.7949418,91.2128055 36.653802,89.1321447 C55.9656641,87.1427532 74.9115962,82.5035104 92.9577435,75.34514 C102.793594,71.4780534 109.308795,66.5391111 112.104026,60.3391624 C112.756949,50.4062292 110.78546,40.4763026 106.387463,31.54618 C105.525775,39.2803533 100.229548,45.6904699 89.5740426,50.4612779 C68.7367998,58.2634607 47.0631198,63.616641 24.9894916,66.4130105 C10.9292688,68.0313022 1.24053535,65.7194569 0.0838703275,55.9676731 Z" id="Path" fill="#FFFFFF" fill-rule="nonzero" opacity="0.2"></path>
                        </g>
                        <path d="M68.3465538,6.70435137 C73.685274,4.64126469 79.2202256,3.12725122 84.8657393,2.18574465 C92.2846611,1.42914073 93.5666844,2.69014726 92.7470301,4.64470738 C90.5422799,6.90371504 87.9330457,8.72875316 85.0548903,10.0250019 C80.5798179,11.9648799 75.8284697,13.1917206 70.9736507,13.6609041 C67.5899499,13.8080215 63.9960813,13.8920886 61.9574541,12.3368472 C60.9486489,10.5083877 63.9750645,8.57484439 68.3465538,6.70435137 Z" id="Path" fill="#4C55CE" fill-rule="nonzero" opacity="0.1"></path>
                        <path d="M181.248672,28.4777308 C178.45344,19.8608528 160.063762,17.4439236 134.402279,20.8276245 C136.695346,23.5892459 138.682514,26.5911381 140.32901,29.7807708 L140.32901,29.7807708 C149.513341,30.138056 155.587189,32.3238007 156.911246,36.3800383 C160.147829,46.4050402 133.22534,64.1011652 96.7612342,75.8915762 C60.2971288,87.6819872 28.1204456,89.1531615 24.8838622,79.1281596 C23.4757382,74.9248045 26.859439,69.733661 34.9298808,63.6808297 C34.8247969,63.6808297 35.4973338,63.2394774 35.3922499,63.3025277 C34.9440515,59.8187538 34.8174168,56.3011241 35.0139479,52.79414 C11.6012601,65.2781046 -2.35387885,78.2874886 0.483385836,87.0304672 C4.93894223,100.754422 49.0111204,98.7788447 98.9469789,82.5959276 C148.882837,66.4130105 185.704228,42.2016851 181.248672,28.4777308 Z" id="Path" fill="#FFFFFF" fill-rule="nonzero"></path>
                    </g>
                </g>
            </g>
        </g>
    </g>
</svg>