{
  "accessors": [
    {
      "bufferView": 2,
      "componentType": 5126,
      "count": 96,
      "max": [
        3,
        3.0601835250854492,
        4.6435656547546387
      ],
      "min": [
        -3,
        -2.9398164749145508,
        -0.001430511474609375
      ],
      "type": "VEC3"
    },
    {
      "bufferView": 2,
      "byteOffset": 1152,
      "componentType": 5126,
      "count": 96,
      "max": [
        1,
        1,
        1
      ],
      "min": [
        -1,
        -1,
        -0.98481243848800659
      ],
      "type": "VEC3"
    },
    {
      "bufferView": 3,
      "componentType": 5126,
      "count": 96,
      "max": [
        1,
        1,
        1,
        1
      ],
      "min": [
        -0.088977359235286713,
        -0.93969321250915527,
        -0.34202119708061218,
        1
      ],
      "type": "VEC4"
    },
    {
      "bufferView": 1,
      "componentType": 5126,
      "count": 96,
      "max": [
        2.2042896747589111,
        1.5567476749420166
      ],
      "min": [
        -0.90736931562423706,
        -0.55296492576599121
      ],
      "type": "VEC2"
    },
    {
      "bufferView": 0,
      "componentType": 5125,
      "count": 246,
      "max": [
        95
      ],
      "min": [
        0
      ],
      "type": "SCALAR"
    },
    {
      "bufferView": 2,
      "byteOffset": 2304,
      "componentType": 5126,
      "count": 1193,
      "max": [
        1.6604194641113281,
        2.5477199554443359,
        10.90585994720459
      ],
      "min": [
        -1.6604194641113281,
        -1.9672833681106567,
        1.7808017730712891
      ],
      "type": "VEC3"
    },
    {
      "bufferView": 2,
      "byteOffset": 16620,
      "componentType": 5126,
      "count": 1193,
      "max": [
        0.99877053499221802,
        0.9989931583404541,
        0.99954724311828613
      ],
      "min": [
        -0.99877053499221802,
        -0.99808293581008911,
        -0.99952304363250732
      ],
      "type": "VEC3"
    },
    {
      "bufferView": 3,
      "byteOffset": 1536,
      "componentType": 5126,
      "count": 1193,
      "max": [
        1,
        0.99954718351364136,
        0.99922066926956177,
        1
      ],
      "min": [
        -0.99836891889572144,
        -0.99567633867263794,
        -0.99990910291671753,
        -1
      ],
      "type": "VEC4"
    },
    {
      "bufferView": 1,
      "byteOffset": 768,
      "componentType": 5126,
      "count": 1193,
      "max": [
        0.98502540588378906,
        0.99083250761032104
      ],
      "min": [
        0.022447280585765839,
        0.0082928687334060669
      ],
      "type": "VEC2"
    },
    {
      "bufferView": 1,
      "byteOffset": 10312,
      "componentType": 5126,
      "count": 1193,
      "max": [
        0.98502540588378906,
        0.99083250761032104
      ],
      "min": [
        0.022447280585765839,
        0.0082928687334060669
      ],
      "type": "VEC2"
    },
    {
      "bufferView": 0,
      "byteOffset": 984,
      "componentType": 5125,
      "count": 4962,
      "max": [
        1192
      ],
      "min": [
        0
      ],
      "type": "SCALAR"
    }
  ],
  "asset": {
    "extras": {
      "author": "Gert-Jan van den Boom (https://sketchfab.com/alphafluff)",
      "license": "CC-BY-SA-4.0 (http://creativecommons.org/licenses/by-sa/4.0/)",
      "source": "https://sketchfab.com/models/6f729a4cb4db425599aa79257cc17c98",
      "title": "African Grey Parrot"
    },
    "generator": "Sketchfab-4.14.0",
    "version": "2.0"
  },
  "bufferViews": [
    {
      "buffer": 0,
      "byteLength": 20832,
      "byteOffset": 0,
      "name": "floatBufferViews",
      "target": 34963
    },
    {
      "buffer": 0,
      "byteLength": 19856,
      "byteOffset": 20832,
      "byteStride": 8,
      "name": "floatBufferViews",
      "target": 34962
    },
    {
      "buffer": 0,
      "byteLength": 30936,
      "byteOffset": 40688,
      "byteStride": 12,
      "name": "floatBufferViews",
      "target": 34962
    },
    {
      "buffer": 0,
      "byteLength": 20624,
      "byteOffset": 71624,
      "byteStride": 16,
      "name": "floatBufferViews",
      "target": 34962
    }
  ],
  "buffers": [
    {
      "byteLength": 92248,
      "uri": "scene.bin"
    }
  ],
  "extensionsRequired": [
    "KHR_materials_pbrSpecularGlossiness"
  ],
  "extensionsUsed": [
    "KHR_materials_pbrSpecularGlossiness"
  ],
  "images": [
    {
      "uri": "textures/Parrot_African_Grey_diffuse.png"
    },
    {
      "uri": "textures/Parrot_stand_Wood_diffuse.jpeg"
    }
  ],
  "materials": [
    {
      "doubleSided": true,
      "emissiveFactor": [
        0,
        0,
        0
      ],
      "extensions": {
        "KHR_materials_pbrSpecularGlossiness": {
          "diffuseFactor": [
            1,
            1,
            1,
            1
          ],
          "diffuseTexture": {
            "index": 1,
            "texCoord": 0
          },
          "glossinessFactor": 0.0225763046,
          "specularFactor": [
            0,
            0,
            0
          ]
        }
      },
      "name": "Parrot_stand_Wood"
    },
    {
      "doubleSided": true,
      "emissiveFactor": [
        0,
        0,
        0
      ],
      "extensions": {
        "KHR_materials_pbrSpecularGlossiness": {
          "diffuseFactor": [
            1,
            1,
            1,
            1
          ],
          "diffuseTexture": {
            "index": 0,
            "texCoord": 0
          },
          "glossinessFactor": 0.027716678099999999,
          "specularFactor": [
            0,
            0,
            0
          ]
        }
      },
      "name": "Parrot_African_Grey"
    }
  ],
  "meshes": [
    {
      "name": "Parrot_stand_Parrot_stand_Wood_0",
      "primitives": [
        {
          "attributes": {
            "NORMAL": 1,
            "POSITION": 0,
            "TANGENT": 2,
            "TEXCOORD_0": 3
          },
          "indices": 4,
          "material": 0,
          "mode": 4
        }
      ]
    },
    {
      "name": "Parrot_body_Parrot_African_Grey_0",
      "primitives": [
        {
          "attributes": {
            "NORMAL": 6,
            "POSITION": 5,
            "TANGENT": 7,
            "TEXCOORD_0": 8,
            "TEXCOORD_1": 9
          },
          "indices": 10,
          "material": 1,
          "mode": 4
        }
      ]
    }
  ],
  "nodes": [
    {
      "children": [
        1
      ],
      "name": "RootNode (gltf orientation matrix)",
      "rotation": [
        -0.70710678118654746,
        -0,
        -0,
        0.70710678118654757
      ]
    },
    {
      "children": [
        2
      ],
      "name": "RootNode (model correction matrix)"
    },
    {
      "children": [
        3
      ],
      "matrix": [
        1,
        0,
        0,
        0,
        0,
        0,
        1,
        0,
        0,
        -1,
        0,
        0,
        0,
        0,
        0,
        1
      ],
      "name": "11b7fe50413f4f08af0167bc88f4fea8.fbx"
    },
    {
      "children": [
        4,
        6
      ],
      "name": "RootNode"
    },
    {
      "children": [
        5
      ],
      "matrix": [
        23.723726272583008,
        0,
        0,
        0,
        0,
        -3.8650856020350643e-06,
        -23.723726272582695,
        0,
        0,
        23.723726272582695,
        -3.8650856020350643e-06,
        0,
        0,
        0,
        0,
        1
      ],
      "name": "Parrot_stand"
    },
    {
      "mesh": 0,
      "name": "Parrot_stand_Parrot_stand_Wood_0"
    },
    {
      "children": [
        7
      ],
      "matrix": [
        23.723726272583008,
        0,
        0,
        0,
        0,
        -3.8650856020350643e-06,
        -23.723726272582695,
        0,
        0,
        23.723726272582695,
        -3.8650856020350643e-06,
        0,
        0,
        0,
        0,
        1
      ],
      "name": "Parrot_body"
    },
    {
      "mesh": 1,
      "name": "Parrot_body_Parrot_African_Grey_0"
    }
  ],
  "samplers": [
    {
      "magFilter": 9729,
      "minFilter": 9987,
      "wrapS": 10497,
      "wrapT": 10497
    }
  ],
  "scene": 0,
  "scenes": [
    {
      "name": "OSG_Scene",
      "nodes": [
        0
      ]
    }
  ],
  "textures": [
    {
      "sampler": 0,
      "source": 0
    },
    {
      "sampler": 0,
      "source": 1
    }
  ]
}

