<?xml version="1.0" encoding="utf-8"?>
<!-- Generator: Adobe Illustrator 24.1.2, SVG Export Plug-In . SVG Version: 6.00 Build 0)  -->
<svg version="1.1" id="Слой_1" focusable="false"
	 xmlns="http://www.w3.org/2000/svg" xmlns:xlink="http://www.w3.org/1999/xlink" x="0px" y="0px" width="423px" height="331px"
	 viewBox="0 0 423 331" style="enable-background:new 0 0 423 331;" xml:space="preserve">
<style type="text/css">
	.st0{fill:#495057;}
</style>
<path class="st0" d="M211.7,148l136-136c9.4-9.4,24.6-9.4,33.9,0l22.6,22.6c9.4,9.4,9.4,24.6,0,33.9L307.9,165l96.4,96.4
	c9.4,9.4,9.4,24.6,0,33.9L381.7,318c-9.4,9.4-24.6,9.4-33.9,0l-136-136C202.3,172.6,202.3,157.4,211.7,148L211.7,148z M19.7,182
	l136,136c9.4,9.4,24.6,9.4,33.9,0l22.6-22.6c9.4-9.4,9.4-24.6,0-33.9L115.9,165l96.4-96.4c9.4-9.4,9.4-24.6,0-33.9L189.7,12
	c-9.4-9.4-24.6-9.4-33.9,0l-136,136C10.3,157.4,10.3,172.6,19.7,182z"/>
</svg>
