<?xml version="1.0" encoding="utf-8"?>
<!-- Generator: Adobe Illustrator 24.1.2, SVG Export Plug-In . SVG Version: 6.00 Build 0)  -->
<svg version="1.1" id="Capa_1" xmlns="http://www.w3.org/2000/svg" xmlns:xlink="http://www.w3.org/1999/xlink" x="0px" y="0px"
	 width="1022.3px" height="657.7px" viewBox="0 0 1022.3 657.7" style="enable-background:new 0 0 1022.3 657.7;"
	 xml:space="preserve">
<style type="text/css">
	.st0{fill:#495057;}
	.st1{opacity:0.59;fill:#495057;}
	.st2{opacity:0.61;fill:#495057;}
</style>
<g>
	<g>
		<path class="st0" d="M479,287.9c-1.7-4-5.5-6.6-9.9-6.6H352.3V14.7c0-5.9-4.8-10.7-10.7-10.7H171c-5.9,0-10.7,4.8-10.7,10.7v266.7
			H43c-4.3,0-8.2,2.6-9.9,6.6c-1.6,4-0.7,8.6,2.3,11.6L248.2,513c2,2,4.7,3.1,7.6,3.1c2.8,0,5.5-1.1,7.6-3.1l213.4-213.5
			C479.8,296.5,480.7,291.9,479,287.9z"/>
	</g>
</g>
<g>
	<g>
		<path class="st0" d="M560.1,367.4c1.7,4,5.5,6.6,9.9,6.6h116.9v266.7c0,5.9,4.8,10.7,10.7,10.7h170.7c5.9,0,10.7-4.8,10.7-10.7
			V374h117.3c4.3,0,8.2-2.6,9.9-6.6c1.6-4,0.7-8.6-2.3-11.6L791,142.3c-2-2-4.7-3.1-7.6-3.1c-2.8,0-5.5,1.1-7.6,3.1L562.4,355.8
			C559.4,358.8,558.5,363.4,560.1,367.4z"/>
	</g>
</g>
<path class="st1" d="M438.3,647.2H86c-29.6,0-53.7-24-53.7-53.7v-12.3c0-29.6,24-53.7,53.7-53.7h352.4c29.6,0,53.7,24,53.7,53.7
	v12.3C492,623.1,468,647.2,438.3,647.2z"/>
<path class="st2" d="M953.2,123.7H600.8c-29.6,0-53.7-24-53.7-53.7V57.7c0-29.6,24-53.7,53.7-53.7h352.4c29.6,0,53.7,24,53.7,53.7
	V70C1006.9,99.6,982.8,123.7,953.2,123.7z"/>
</svg>
