<?xml version="1.0" encoding="utf-8"?>
<!-- Generator: Adobe Illustrator 24.1.2, SVG Export Plug-In . SVG Version: 6.00 Build 0)  -->
<svg version="1.1" id="Capa_1" xmlns="http://www.w3.org/2000/svg" xmlns:xlink="http://www.w3.org/1999/xlink" x="0px" y="0px"
	 width="244px" height="534px" viewBox="0 0 244 534" style="enable-background:new 0 0 244 534;" xml:space="preserve">
<g id="XMLID_44_">
	<path id="XMLID_138_" d="M51.3,9c-22,0-39.8,17.9-39.8,39.8v40.7l38.9-38.4l21.2,21.4l-60.1,59.2v48.4L50.3,142l21.1,21.5l-60,59
		V271l38.9-38.2l21.1,21.5l-60,59v48.6l38.9-38.2l21.1,21.5l-60,59v48.6l38.9-38.2L71.5,436l-58.2,57.2c5.1,16.1,20.2,27.9,38,27.9
		h56.3V9L51.3,9z"/>
	<path id="XMLID_139_" d="M194.9,323.6l38.3,37.7v-48.5l-59.4-58.5l21.1-21.5l38.3,37.7v-48.6l-59.4-58.5l21.1-21.5l38.3,37.7V131
		l-59.4-58.4l21.1-21.5l38.9,38.2V48.8C233.8,26.9,216,9,194,9h-56.3v512H194c17.7,0,32.8-11.7,38-27.7L173.8,436l21.1-21.5
		l38.9,38.3v-48.7l-60-59L194.9,323.6z"/>
</g>
</svg>
