<?xml version="1.0" encoding="utf-8"?>
<!-- Generator: Adobe Illustrator 24.1.2, SVG Export Plug-In . SVG Version: 6.00 Build 0)  -->
<svg version="1.1" id="Capa_1" xmlns="http://www.w3.org/2000/svg" xmlns:xlink="http://www.w3.org/1999/xlink" x="0px" y="0px"
	 width="54.6px" height="17.5px" viewBox="0 0 54.6 17.5" style="enable-background:new 0 0 54.6 17.5;" xml:space="preserve">
<style type="text/css">
	.st0{clip-path:url(#SVGID_2_);}
	.st1{fill:#495057;}
</style>
<g>
	<defs>
		
			<rect id="SVGID_1_" x="11.9" y="-8.4" transform="matrix(-6.879220e-03 -1 1 -6.879220e-03 10.741 47.4174)" width="34" height="53.6"/>
	</defs>
	<clipPath id="SVGID_2_">
		<use xlink:href="#SVGID_1_"  style="overflow:visible;"/>
	</clipPath>
	<g class="st0">
		<path class="st1" d="M4.5-2.7L4.6,9.1c0,3.1,3.5,5.6,6.6,5.6L46,14.4c3.1,0,5.6-2.6,5.6-5.7L51.5-3c0-3.1-2.6-5.6-5.7-5.6L11-8.4
			C7.9-8.4,4.5-5.8,4.5-2.7z M18.6-7.4l11.7-0.1l0.4,2.7l-4.8,0L18.6-7.4z M15.2-6c3.9,1,8.5,2.2,8.5,2.2l0.1,13.8l-8.5,2.3
			C15.4,12.2,12.3,3.4,15.2-6z M26.3,10.8l4.5,0l-0.3,2.7l-11.4,0.1L26.3,10.8z M42.5,13.4l-10.4,0.1l0.3-2.7l8.2-0.1L42.5,13.4z
			 M45.5,11.9l-3.4-2.2L42-4.1l3.3-2.2L45.5,11.9z M40.3-4.9l-7.9,0.1L32-7.5l10-0.1L40.3-4.9z"/>
	</g>
</g>
</svg>
