<?xml version="1.0" encoding="utf-8"?>
<!-- Generator: Adobe Illustrator 24.1.2, SVG Export Plug-In . SVG Version: 6.00 Build 0)  -->
<svg version="1.1" id="Слой_1" focusable="false"
	 xmlns="http://www.w3.org/2000/svg" xmlns:xlink="http://www.w3.org/1999/xlink" x="0px" y="0px" width="438px" height="336px"
	 viewBox="0 0 438 336" style="enable-background:new 0 0 438 336;" xml:space="preserve">
<style type="text/css">
	.st0{fill:#495057;}
	.st1{opacity:0.61;fill:#495057;enable-background:new    ;}
</style>
<path class="st0" d="M23.7,152l136-136c9.4-9.4,24.6-9.4,33.9,0l22.6,22.6c9.4,9.4,9.4,24.6,0,33.9L119.9,169l96.4,96.4
	c9.4,9.4,9.4,24.6,0,33.9L193.7,322c-9.4,9.4-24.6,9.4-33.9,0l-136-136C14.3,176.6,14.3,161.4,23.7,152L23.7,152z"/>
<path class="st1" d="M414,78.3v179.3c0,15.1-14,27.3-31.4,27.3h-7.2c-17.3,0-31.4-12.2-31.4-27.3V78.3c0-15.1,14-27.3,31.4-27.3h7.2
	C399.9,51,414,63.3,414,78.3z"/>
</svg>
