<?xml version="1.0" encoding="utf-8"?>
<!-- Generator: Adobe Illustrator 22.1.0, SVG Export Plug-In . SVG Version: 6.00 Build 0)  -->
<svg version="1.1" id="Слой_1" xmlns="http://www.w3.org/2000/svg" xmlns:xlink="http://www.w3.org/1999/xlink" x="0px" y="0px"
	 viewBox="0 0 2000.2 1989.6" style="enable-background:new 0 0 2000.2 1989.6;" xml:space="preserve">
<g>
	<path style="fill:#FDFDFD;" d="M999.6,2000.1c-331.7,0-663.3,0-995,0.1c-3.7,0-4.6-0.8-4.6-4.6C0.1,1331.9,0.1,668.3,0,4.6
		C0,0.8,0.8,0,4.6,0c663.7,0.1,1327.3,0.1,1991,0c3.7,0,4.6,0.8,4.6,4.6c-0.1,663.7-0.1,1327.3,0,1991c0,3.7-0.8,4.6-4.6,4.6
		C1663.6,2000.1,1331.6,2000.1,999.6,2000.1z"/>
	<path d="M333.8,724.4c-110.7-112.8-105.1-286.1-0.3-391c104.7-104.8,278.5-110.2,390.2-0.4c2-80.4,30.8-148.8,90-203
		c59.3-54.3,130.1-78.1,210.1-71.5c70.9,5.9,131.1,35.6,179.3,88c48.2,52.4,71.8,114.9,73.2,186.3c61.3-58.2,133.7-85.8,217.9-79.1
		c73.8,5.9,135.7,37.4,184.7,92.9c93.3,105.5,93.5,269.7-11.8,377c7.1,0.4,13.8,0.7,20.4,1.2c111.5,8.8,205.2,81.6,240.9,187.2
		c9,26.5,13.2,53.8,14.5,81.8c0.9,18.8,0.6,37.6,0.6,56.4c0.1,204.2,0,408.3,0.1,612.5c0,50.2-10.2,98-35.1,141.8
		c-38.7,68.1-96.5,111.4-172.4,130.7c-24,6.1-48.4,8.3-73.1,8.3c-443.5,0-886.9,0-1330.4-0.1c-70.7,0-133.4-22.8-186.3-70.1
		c-42.2-37.7-69-84.9-82.2-139.9c-5.5-22.9-7.6-46.2-7.6-69.8c0-219.5-0.5-439,0.2-658.5c0.3-87.6,33.2-161.4,101-218.1
		c41.5-34.7,89.6-54.8,143.3-61.2c5.3-0.6,10.6-1.2,15.9-1.5C322.2,724.2,327.3,724.4,333.8,724.4z"/>
	<path style="fill:#FDB03B;" d="M184.1,1000c-1.4-68.4,49.3-132,117.1-145.7c51.1-10.4,96.3,2,134.9,37.4c2,1.8,3.8,2.7,6.6,2.7
		c99.3-0.1,198.6-0.1,298-0.1c1,0,1.9,0,3,0c-0.1-2.1-1.6-2.7-2.6-3.7C671.3,820.8,601.6,751,531.9,681.2c-2.1-2.1-4.2-3.2-7.3-3.2
		c-71.6-1.3-133.8-56.5-143.6-127.5c-10.4-75.4,34.4-144.7,107.3-165.7c85.3-24.6,174.9,32.8,188,120.3c0.7,4.9,1.9,10,1.6,14.9
		c-0.4,6.7,2.5,10.9,7,15.4c68.7,68.5,137.2,137.1,205.8,205.7c0.9,0.9,1.5,2.1,2.3,3.2c2.1-1.8,1.4-3.4,1.4-4.7
		c0-98.8,0-197.6,0.1-296.5c0-2.9-0.7-5-2.7-7.1c-77-81.5-40.3-215.5,67.5-246.4c85-24.4,173.9,31.3,188.1,118.3
		c8,49-5.3,91.9-38.9,128.4c-1.5,1.7-2.4,3.3-2.4,5.7c0.1,100,0.1,200,0.1,300c0,0.5,0.1,1,0.2,1.5c1.8,0.1,2.5-1.5,3.4-2.5
		c69.9-69.9,139.8-139.7,209.7-209.6c2-2,2.9-4,3-6.9c1.3-71.8,56.5-134,127.4-143.7c79.4-10.9,151,38.9,168.2,116.9
		c17.3,78.4-34.1,159.1-112.4,176.4c-10.1,2.2-20.3,3.8-30.7,3.8c-2.1,0-3.7,0.5-5.3,2.1c-70.8,70.9-141.6,141.7-212.4,212.5
		c-0.2,0.2-0.4,0.5-0.6,0.8c0.7,1.4,2,0.8,3.1,0.8c99.3,0,198.6,0,298,0.1c2.7,0,4.6-0.9,6.6-2.7c32.7-30.6,71.7-43.8,116.2-40.4
		c67,5.1,124,58.5,134,124.8c1.2,7.9,2.1,15.9,1.8,23.9c-1.4,1.4-3.2,1.6-5.1,1.7c-2.2,0.1-4.3,0.1-6.5,0.1
		c-536.2,0-1072.5,0-1608.7,0C191.8,1001.7,187.7,1002.8,184.1,1000z"/>
	<path style="fill:#FEFEFE;" d="M1602.1,1399.1c1.8,0.1,3.6,0.2,5.5,0.2c41,0,82,0.1,123-0.1c3.8,0,4.6,0.9,4.6,4.7
		c-0.1,81.2,1.1,162.3-0.4,243.5c-1.6,86-39.7,153.4-111,201.3c-45,30.2-95.3,42.9-149.3,39.2c-62.1-4.3-115.3-29-158.9-73.5
		c-35.7-36.5-57.6-80.2-66.2-130.5c-2.4-13.8-3.3-27.8-3.3-41.8c0-80.5,0-161,0-241.5c0-1.8-0.1-3.7-0.2-5.5
		c-1.3-2.3-1.3-4.8-1.3-7.3c0-32.6-0.6-65.3,0.2-97.9c0.7-32.1,8-62.9,21.4-92.3c8.2-18,18.1-34.8,30.3-50.3
		c6.1-7.7,12.7-15,19.5-22c6.8-7,14.2-13.6,21.9-19.7c33.8-26.7,71.8-43.8,114.4-50.2c46.6-7,91.9-1.9,135.4,16.9
		c25.8,11.1,48.8,26.3,69.6,45.2c8.7,7.9,16.2,16.7,23.9,25.4c1.6,1.8,3.4,3.7,3.7,6.4c14.3,19.5,26.3,40.3,34.7,63.1
		c9.8,26.3,14.8,53.4,15.5,81.4c0.1,3.6-1,4.3-4.4,4.3c-44.8-0.1-89.6-0.1-134.4,0c-3.2,0-4.4-0.5-4.6-4.2
		c-2.5-46.1-32.5-82.6-77.1-94.2c-43.8-11.4-92.8,10.6-113.4,50.7c-0.2,0.4-0.3,1-0.4,1.4c0.5,2.3-0.6,4.2-1.5,6.2
		c-6.2,13.9-8.6,28.7-8.7,43.8c-0.1,83.1-0.1,166.2,0,249.3c0,30.1-0.3,60.3-0.2,90.4c0,2.3-0.2,4.7,0.3,7c0.9,14.3,4,28,10.8,40.7
		c16.4,30.5,41.7,48.6,76.1,53.5c51.6,7.4,102.9-28.3,111.7-83.8c0.4-2.8,0.2-5.7,0.9-8.4c0.5-2,0.3-4,0.3-6
		c-0.1-30.6,0.2-61.3-0.2-91.9c-0.1-7.6-0.3-7.9-7.9-7.9c-26.8,0-53.6,0-80.5,0c-2,0-4,0.1-6-0.1c-5.1-0.4-6.3-1.6-6.6-6.8
		c-0.2-4.3-0.1-8.7-0.1-13c0-37.8,0-75.6,0-113.4c0-1.8,0-3.7,0-5.5c0.2-7.3,1.2-8.4,8.5-8.5c32.5-0.1,65,0,97.4,0
		C1597.8,1397.5,1600.1,1397.7,1602.1,1399.1z"/>
	<path style="fill:#261A09;" d="M1298.2,1147.1c-14.8,19.6-27.1,40.5-35.8,63.5c-10.7,28.2-16.2,57.5-16.2,87.7
		c0,32.3-0.1,64.5-0.2,96.8c-18-17.9-36-35.7-54-53.6c-1.4-1.4-2.4-3.3-4.7-3.4c-1.8-2-0.8-4.2-0.3-6.2c8.2-39.3,16.3-78.7,24.4-118
		c7-34.1,14.1-68.2,21.2-102.3c3.5-16.6,6.9-33.3,10.4-49.9c1.2-5.7,0.8-6.1-4.9-6.1c-42.5,0-85,0-127.5,0c-6.3,0-6.6,0.3-7.9,6.5
		c-12.4,59.6-24.7,119.1-37,178.7c-15.8,76.4-31.7,152.7-47.4,229.1c-4.5,21.7-8.8,43.5-13.6,65.1c-0.5,2.2-0.5,5.8-2.9,5.8
		c-3,0-2.6-3.7-3.1-5.9c-11.7-56.1-23.3-112.3-35-168.4c-17.1-82.6-34.3-165.1-51.3-247.7c-3.9-18.8-7.9-37.5-11.7-56.3
		c-1.3-6.4-1.8-6.8-8.2-6.8c-42.5,0-85,0-127.5,0c-5.8,0-5.9,0.1-4.7,6c16.9,82.9,34.4,165.8,51.4,248.7c1.3,6.2,2.7,12.4,3.9,18.6
		c0.4,2.1,1.2,4.3-0.5,6.2c-1.3,1.1-2.6,2.1-3.7,3.2c-41.6,41.6-83.2,83.1-124.7,124.7c-1.5,1.5-3.5,2.7-3.6,5.2
		c-3.7-0.2-5.7-3.2-8.1-5.3c-29.1-25.5-63.2-40.9-100.1-51.1c-23.1-6.3-46.8-8.7-70.3-12.5c-14.9-2.5-29.9-5.2-43.4-12.7
		c-10.8-6-19.7-14.1-27.7-23.4c-1.2-1.4-2.4-2.8-2.6-4.7c0.5-2.3,2.3-3.6,4-4.9c23.2-18,49.1-29,78.5-31.9c3.8-0.4,7.6-1,11.4-0.9
		c3.4,0.1,5.5-2,7.6-4.2c20.9-21,41.9-41.9,62.9-62.8c1.9-1.9,3.5-4.7,6.9-4.1c1.5,0.7,2.3,1.9,2.9,3.3c4.8,10.7,8.5,21.6,9.7,33.4
		c1.2,11.6,0.1,10.1,11.1,10.2c41,0.1,81.9,0,122.9,0c6.9,0,7.2-0.1,7-6.9c-1.1-30.8-8-60.3-20.1-88.6
		c-7.4-17.2-16.8-33.2-28.1-48.2c-1.5-2-3.3-3.8-3.7-6.4c0.2-1.8,1.5-2.9,2.6-4.1c11.5-11.5,23-23.1,35-35
		c-25.6,0.2-50.8-0.2-76.1,0.2c-1.8-0.1-3-1.3-4.3-2.3c-35.4-27.1-75.2-43.5-119.4-48.6c-43-4.9-84.7,0.6-124.7,17.9
		c-26.4,11.4-50.2,26.8-70.9,46.8c-8.4,8.1-16.3,16.6-23.7,25.6c-1.1,1.3-1.7,3.4-4.1,2.9c-2.5-3.4-6.5-2-9.7-2.6
		c-25.5-4.5-48.5-14.6-68.6-31c-26.7-21.8-44-49.4-52-82.8c-2.6-11-4.2-22.1-3.7-33.5c1.8,0,3.7,0.1,5.5,0.1
		c540.3,0,1080.6,0,1620.9,0c1.8,0,3.7-0.1,5.5-0.1c0,35-11,66.2-32.8,93.5c-18.1,22.6-40.9,38.7-68.3,48.1c-8.8,3-17.8,5.2-27,6.5
		c-1.2,0.2-2.3,0.2-3,1.4c-14-17.2-29.3-33.2-47.2-46.4c-50.5-37.5-107.1-53.6-169.7-48.1c-48.1,4.2-91.1,21.7-129.1,51.7
		c-0.2,0.2-0.6,0.3-0.9,0.4c-5.3,0.8-10.6,0.5-15.9,0.5c-19.1,0-38.3,0-57.4,0c-1.6,0-3.3-0.4-5.2,0.6
		c11.9,11.9,23.6,23.6,35.4,35.4C1296.1,1144.6,1297.5,1145.5,1298.2,1147.1z"/>
	<path style="fill:#FEFEFE;" d="M704.3,1146.1c15.6,20.3,28.4,42.2,37.3,66.2c9.8,26.3,14.9,53.4,15.6,81.5c0.1,4-1.2,4.5-4.7,4.5
		c-44.7-0.1-89.3-0.1-134,0c-3.7,0-4.5-0.9-4.7-4.6c-0.8-15.4-4.3-30.2-12.4-43.7c-1.9-0.7-2.5-2.6-3.5-4.1
		c-22.2-33.6-53.5-49.9-93.7-47.3c-48,3.2-86.9,42.6-91,90.4c-2,23.4,3.5,44.5,16.1,64.1c1,1.5,2.3,2.9,2,5
		c15.4,21.9,36.9,33.4,62.9,38.2c20,3.7,40.2,5.4,60.1,9.5c48.2,9.9,92.2,28.4,128.7,62.5c16.8,17.2,31.8,35.8,43.4,57
		c23.6,42.9,33.8,88.7,29.9,137.4c-4.6,59-27.8,109.9-69.1,152.2c-39.1,40-86.7,64.1-142.2,71.3c-65.4,8.5-125.2-6.8-178-46.1
		c-51.7-38.5-83.3-90.1-95.1-153.6c-2.3-12.6-3.3-25.4-3.8-38.2c-0.1-3.1,0.5-4.3,3.9-4.3c45.2,0.1,90.3,0.1,135.5,0
		c3.7,0,3.7,1.6,4,4.4c3.2,41.9,23.7,72.2,62.3,89c58.7,25.6,127.3-12,138.4-75c3.8-21.3,1.5-41.7-8.1-61.2
		c-2.7-2.2-3.9-5.4-5.6-8.2c-6.7-11.3-15.4-21-26.2-28.5c-9.9-6.8-21.2-11.2-32.8-14.3c-17.7-4.8-35.9-7.3-53.9-10.7
		c-33.7-6.4-66.4-15.7-97-31.5c-2-1.1-4.4-1.8-5.4-4.1c-25.6-14.6-47.2-33.9-64.9-57.4c-26.8-35.5-43.3-75.2-48.3-119.5
		c-7.3-64.7,8.9-123.2,47.3-175.6c0.3-0.4,0.5-0.8,0.7-1.3c16-20.2,34.1-38.2,55.5-52.7c48.7-33.2,102.4-47.4,161.1-42.3
		c48.3,4.2,91.5,21.7,129.6,51.6c0.3,0.2,0.6,0.3,0.9,0.4c1.7-0.1,2.8,1,3.9,1.9c12.7,10.2,24,21.9,34.3,34.6
		C704,1144.1,704.5,1145,704.3,1146.1z"/>
	<path style="fill:#FEFEFE;" d="M815.1,1335.1c-3.2-15.8-6.2-31.6-9.5-47.4c-15.1-73.3-30.3-146.5-45.5-219.8
		c-0.8-3.7-1.3-7.5-2.3-11.2c-0.6-2.3,0.1-2.9,2.3-2.9c3.7,0.1,7.3,0,11,0c41.5,0,83,0,124.5-0.1c3.5,0,5,0.6,5.9,4.6
		c22.8,110.9,45.8,221.8,68.8,332.7c10.3,49.5,20.6,99,30.9,148.5c0.1,0.4,0.3,0.8,0.8,2.2c2.8-13.6,5.5-26.2,8.2-38.9
		c15.1-73.3,30.3-146.6,45.4-219.8c15.5-74.9,31.1-149.8,46.5-224.7c0.7-3.5,2-4.5,5.5-4.5c44.7,0.1,89.3,0.1,134,0
		c4.5,0,4.5,1.4,3.8,5.1c-13.3,63.5-26.4,127-39.5,190.5c-6.1,29.6-12.2,59.3-18.3,88.9c-9.1,43.5-18.1,86.9-27.2,130.4
		c-8.6,41.2-17.1,82.4-25.6,123.6c-0.3,1.3-0.4,2.6-0.5,3.9c-5.7,40.1-15.8,79.3-23.5,119c-3.8,19.8-8,39.5-12.3,59.2
		c-0.6,2.8-1.4,5.5-2.9,7.9c-7.1,33.8-14.2,67.7-21.1,101.5c-0.8,3.7-2,4.8-5.7,4.7c-44.6-0.1-89.3-0.1-133.9,0
		c-3.8,0-5-1.1-5.7-4.8c-6.5-32.6-13.3-65.1-20.1-97.7c-0.1-0.6-0.5-1.2-0.8-1.8c-3.3-5.8-3.7-12.4-5-18.7
		c-11.2-54.5-22.8-108.9-33.8-163.4c-0.4-2-1-3.9-0.2-5.9c-2.8-14-5.4-28-8.3-42c-14.9-72.2-29.9-144.4-44.9-216.7
		C815.8,1336.6,815.4,1335.9,815.1,1335.1z"/>
	<path style="fill:#261A09;" d="M1602.1,1399.1c-16.5,0.1-32.9,0.2-49.4,0.2c-19,0-38,0.1-56.9-0.1c-3.7,0-5.2,0.6-5.1,4.8
		c0.2,44.6,0.2,89.2,0,133.9c0,4,1.2,4.9,5,4.9c30.6-0.2,61.3-0.1,91.9-0.1c2.7,0,4.6-0.2,4.5,3.8c-0.2,33.3-0.1,66.6-0.1,99.9
		c0,2,0.2,4-0.7,5.9c-2.2-2.2-1.5-5-1.5-7.6c-0.1-24.5,0-48.9-0.1-73.4c0-1.6,0.5-3.3-0.1-4.3c-57.5,59.8-123,71.6-197.4,33.8
		c-1.2,1.4-0.6,3.3-0.6,5.1c-0.1,12.7,0,25.3-0.1,38c0,2.3,0.5,4.7-1.6,6.5c-1.1-2.7-0.6-5.6-0.6-8.4c0-114.1,0-228.1,0.1-342.2
		c0-16.8,3-33,11.5-47.8c1.5,1.3,3.1,2.5,4.5,3.9c21,20.9,41.9,41.9,62.8,62.8c2.1,2.1,4.1,3.3,7.3,3.4c32.1,0.9,61,11.2,86.7,30.5
		C1578.9,1365.2,1592.1,1380.8,1602.1,1399.1z"/>
	<path style="fill:#261A09;" d="M383.2,1503.7c17.3,8.9,35.1,16.6,53.7,22.3c23.7,7.3,48,12,72.4,16.2c20.7,3.5,41.3,7.6,59.6,18.5
		c16.1,9.6,27.5,23.3,35.1,40.3c-7.2,3.3-14.4,6.9-21.8,9.8c-13.2,5.2-26.9,7.8-41,9.4c-23.5,2.5-45.9-1.6-67.7-9.9
		c-16.4-6.3-31-15.6-44.3-27.3c-16.5-14.5-28.9-31.9-37.7-51.9C387.8,1522.4,384.4,1513.4,383.2,1503.7z"/>
	<path style="fill:#261A09;" d="M869.1,1596.1c3.3,15.4,6.7,30.7,9.9,46.2c9.6,46,19,92,28.5,137.9c0.3,1.3,0.3,2.6,0.5,3.9
		c-29.4-22.9-47.8-52.7-54.7-89.2c-5.8-31.1-2.6-61.4,10.9-90.4C865.7,1601.6,866,1598.1,869.1,1596.1z"/>
	<path style="fill:#261A09;" d="M1095.3,1782.1c12.1-58.5,24.1-117,36.2-175.5c0.7-3.6,1.7-7.1,2.5-10.6c0.2,2.6,0.1,5.2,1.3,7.8
		c6.9,14,11,28.8,12.8,44.2c3,25.5,0.4,50.4-9.3,74.3c-8.1,20-19.8,37.6-35.6,52.2C1100.6,1777,1098,1779.6,1095.3,1782.1z"/>
	<path d="M1389.9,1650.4c0.1-15.5,0.2-31,0.3-46.5c0-2,0-3.9,0-5.8c75.9,39.6,142.5,27.9,201-35.5c0,30,0,59.8,0,89.6
		c-2.6,32.5-17.8,57.9-44.7,75.8c-62.1,41.4-145.7,3.6-156.2-70.2C1390,1655.4,1390,1652.9,1389.9,1650.4z"/>
	<path d="M1298.2,1147.1c-0.9-0.4-2-0.6-2.6-1.2c-13-12.9-25.9-25.9-38.8-38.7c0.6-1.7,1.8-1.1,2.6-1.1c24.8,0,49.6,0,74.5,0
		c1.4,0,3-0.4,4.2,0.9C1323.4,1119,1310.2,1132.5,1298.2,1147.1z"/>
	<path d="M431.3,1358c-26.8-33.3-26.4-85.5,0.7-121.2c43.3-56.8,130.6-52.1,167.4,9.1c0.8,1.3,1.3,2.7,2,4c-2,0.7-3.1,2.4-4.5,3.8
		c-21.7,21.6-43.4,43.3-65,65c-2.1,2.1-4.1,3.3-7.3,3.4c-32,0.9-60.8,11.1-86.3,30.3C435.9,1354.2,433.6,1356.2,431.3,1358z"/>
	<path d="M704.3,1146.1c-11.8-14.4-24.8-27.4-39.1-39.2c1.1-1.1,2.5-0.8,3.8-0.8c24.1,0,48.2,0,72.4,0c0.6,0,1.3,0.1,1.6,0.1
		C730.1,1119.5,717.2,1132.8,704.3,1146.1z"/>
</g>
</svg>
