<?xml version="1.0" encoding="iso-8859-1"?>
<!-- Generator: Adobe Illustrator 16.0.0, SVG Export Plug-In . SVG Version: 6.00 Build 0)  -->
<!DOCTYPE svg PUBLIC "-//W3C//DTD SVG 1.1//EN" "http://www.w3.org/Graphics/SVG/1.1/DTD/svg11.dtd">
<svg version="1.1" id="Capa_1" xmlns="http://www.w3.org/2000/svg" xmlns:xlink="http://www.w3.org/1999/xlink" x="0px" y="0px"
	 width="583.312px" height="583.312px" viewBox="0 0 583.312 583.312" style="enable-background:new 0 0 583.312 583.312;"
	 xml:space="preserve">
<g>
	<g id="iconos_10_">
		<polygon points="181.688,384.676 334.688,284.862 334.688,198.656 181.688,298.469 		"/>
		<polygon points="76.5,348.863 172.125,384.676 172.125,298.469 76.5,262.667 		"/>
		<polygon points="176.906,283.724 320.344,191.035 226.459,150.824 82.477,246.239 		"/>
		<polygon points="497.25,93.468 344.25,193.282 344.25,279.488 497.25,179.674 		"/>
		<polygon points="482.906,85.847 389.021,45.637 245.039,141.051 339.469,178.537 		"/>
		<polygon points="105.188,537.676 258.188,437.861 258.188,351.656 105.188,451.469 		"/>
		<polygon points="95.625,451.469 0,415.668 0,501.863 95.625,537.676 		"/>
		<polygon points="161.635,398.961 73.459,361.199 5.977,402.605 100.406,436.725 		"/>
		<polygon points="506.812,167.253 511.594,168.974 572.822,131.211 506.812,102.945 		"/>
		<polygon points="267.75,432.488 420.75,332.674 420.75,246.468 267.75,346.281 		"/>
		<polygon points="430.312,241.094 430.312,327.301 583.312,227.487 583.312,141.281 		"/>
	</g>
</g>
<g>
</g>
<g>
</g>
<g>
</g>
<g>
</g>
<g>
</g>
<g>
</g>
<g>
</g>
<g>
</g>
<g>
</g>
<g>
</g>
<g>
</g>
<g>
</g>
<g>
</g>
<g>
</g>
<g>
</g>
</svg>
