{
    "asset" : {
        "generator" : "Khronos glTF Blender I/O v1.7.33",
        "version" : "2.0"
    },
    "extensionsUsed" : [
        "KHR_materials_clearcoat"
    ],
    "scene" : 0,
    "scenes" : [
        {
            "name" : "Scene",
            "nodes" : [
                5
            ]
        }
    ],
    "nodes" : [
        {
            "mesh" : 0,
            "name" : "plant"
        },
        {
            "mesh" : 1,
            "name" : "plant.001",
            "translation" : [
                0.0035451725125312805,
                0,
                -0.0019144155085086823
            ]
        },
        {
            "children" : [
                0,
                1
            ],
            "name" : "Island.001_2",
            "rotation" : [
                0,
                0.5277087092399597,
                0,
                0.8494254350662231
            ],
            "scale" : [
                24.033079147338867,
                1.4968231916427612,
                21.99435043334961
            ],
            "translation" : [
                -0.06422722339630127,
                0.2994491159915924,
                0.16720223426818848
            ]
        },
        {
            "children" : [
                2
            ],
            "name" : "GLTF_SceneRootNode.002",
            "rotation" : [
                0.7071068286895752,
                0,
                0,
                0.7071068286895752
            ]
        },
        {
            "children" : [
                3
            ],
            "name" : "root.002"
        },
        {
            "children" : [
                4
            ],
            "name" : "Sketchfab_model.003",
            "rotation" : [
                -0.7071068286895752,
                0,
                0,
                0.7071068286895752
            ],
            "translation" : [
                -2.05716872215271,
                4.1396355628967285,
                -3.69012713432312
            ]
        }
    ],
    "materials" : [
        {
            "alphaMode" : "BLEND",
            "doubleSided" : true,
            "name" : "Terra",
            "pbrMetallicRoughness" : {
                "baseColorFactor" : [
                    0.029243066906929016,
                    0.1654837727546692,
                    0.01897325925529003,
                    0.854710578918457
                ],
                "metallicFactor" : 0,
                "roughnessFactor" : 0.2719600200653076
            }
        },
        {
            "doubleSided" : true,
            "extensions" : {
                "KHR_materials_clearcoat" : {
                    "clearcoatFactor" : 0.38729608058929443,
                    "clearcoatRoughnessFactor" : 0.03999999910593033
                }
            },
            "name" : "Material.021",
            "pbrMetallicRoughness" : {
                "baseColorFactor" : [
                    0.03252150118350983,
                    0.015971599146723747,
                    0.800000011920929,
                    1
                ],
                "metallicFactor" : 0,
                "roughnessFactor" : 0.41764765977859497
            }
        }
    ],
    "meshes" : [
        {
            "name" : "plant.002",
            "primitives" : [
                {
                    "attributes" : {
                        "POSITION" : 0,
                        "NORMAL" : 1,
                        "TEXCOORD_0" : 2
                    },
                    "indices" : 3,
                    "material" : 0
                }
            ]
        },
        {
            "name" : "plant",
            "primitives" : [
                {
                    "attributes" : {
                        "POSITION" : 4,
                        "NORMAL" : 5,
                        "TEXCOORD_0" : 6
                    },
                    "indices" : 7,
                    "material" : 1
                }
            ]
        }
    ],
    "accessors" : [
        {
            "bufferView" : 0,
            "componentType" : 5126,
            "count" : 592,
            "max" : [
                0.03108595684170723,
                0.469809353351593,
                0.028963029384613037
            ],
            "min" : [
                -0.027364464476704597,
                -0.013833224773406982,
                -0.03365200757980347
            ],
            "type" : "VEC3"
        },
        {
            "bufferView" : 1,
            "componentType" : 5126,
            "count" : 592,
            "type" : "VEC3"
        },
        {
            "bufferView" : 2,
            "componentType" : 5126,
            "count" : 592,
            "type" : "VEC2"
        },
        {
            "bufferView" : 3,
            "componentType" : 5123,
            "count" : 660,
            "type" : "SCALAR"
        },
        {
            "bufferView" : 4,
            "componentType" : 5126,
            "count" : 100,
            "max" : [
                0.011396566405892372,
                0.05129335820674896,
                0.011339850723743439
            ],
            "min" : [
                -0.006939580664038658,
                -0.24311301112174988,
                -0.008695940487086773
            ],
            "type" : "VEC3"
        },
        {
            "bufferView" : 5,
            "componentType" : 5126,
            "count" : 100,
            "type" : "VEC3"
        },
        {
            "bufferView" : 6,
            "componentType" : 5126,
            "count" : 100,
            "type" : "VEC2"
        },
        {
            "bufferView" : 7,
            "componentType" : 5123,
            "count" : 102,
            "type" : "SCALAR"
        }
    ],
    "bufferViews" : [
        {
            "buffer" : 0,
            "byteLength" : 7104,
            "byteOffset" : 0
        },
        {
            "buffer" : 0,
            "byteLength" : 7104,
            "byteOffset" : 7104
        },
        {
            "buffer" : 0,
            "byteLength" : 4736,
            "byteOffset" : 14208
        },
        {
            "buffer" : 0,
            "byteLength" : 1320,
            "byteOffset" : 18944
        },
        {
            "buffer" : 0,
            "byteLength" : 1200,
            "byteOffset" : 20264
        },
        {
            "buffer" : 0,
            "byteLength" : 1200,
            "byteOffset" : 21464
        },
        {
            "buffer" : 0,
            "byteLength" : 800,
            "byteOffset" : 22664
        },
        {
            "buffer" : 0,
            "byteLength" : 204,
            "byteOffset" : 23464
        }
    ],
    "buffers" : [
        {
            "byteLength" : 23668,
            "uri" : "data:application/octet-stream;base64,"
        }
    ]
}
