<?xml version="1.0" encoding="utf-8"?>
<!-- Generator: Adobe Illustrator 21.1.0, SVG Export Plug-In . SVG Version: 6.00 Build 0)  -->
<svg version="1.1" id="Слой_1" xmlns="http://www.w3.org/2000/svg" xmlns:xlink="http://www.w3.org/1999/xlink" x="0px" y="0px"
	 viewBox="0 0 400 400" style="enable-background:new 0 0 400 400;" xml:space="preserve">
<style type="text/css">
	.st0{fill:#1D1D1D;}
	.st1{fill:#0090B3;}
	.st2{display:none;}
	.st3{display:inline;fill:#35177F;}
	.st4{fill:#00AFD8;}
	.st5{fill:#019CC2;}
	.st6{fill:#F0F0F2;}
	.st7{display:inline;opacity:0.13;fill:none;stroke:#F9F7F7;stroke-miterlimit:10;enable-background:new    ;}
	.st8{display:inline;opacity:0.13;fill:none;stroke:#F9F7F7;stroke-width:3;stroke-miterlimit:10;enable-background:new    ;}
</style>
<g id="Логотип_квадрата">
	<g id="темный_фон">
		<g id="XMLID_1_">
			<g>
				<polygon points="365.4,102.9 365.4,297.1 200,394.3 34.6,297.1 34.6,102.9 200,5.8 				"/>
			</g>
		</g>
		<polygon class="st0" points="34.6,102.9 119,148.7 199.2,100.7 279.3,148.7 365.4,102.9 200,5.7 		"/>
		<polygon class="st1" points="193.5,196.7 194,284.9 198.6,287.5 203.6,284.5 200.5,191 193.5,191 		"/>
		<path class="st1" d="M119.6,148.3c-0.7,0.1-0.8,0.6-0.6,1.4l78.5,53.1l1.7-9.8L119.6,148.3z"/>
		<polygon class="st1" points="277.3,147.9 279.3,151.6 199.2,198.7 196.7,190.3 		"/>
	</g>
	<g id="внутренний_кубик" class="st2">
		<polygon class="st3" points="279.3,244.5 279.3,148.7 199.2,100.7 119,148.7 119,244.5 199.2,292.5 		"/>
	</g>
	<polygon id="верх" class="st4" points="197.2,197.5 279.3,148.7 199.2,100.7 119,148.7 	"/>
	<g id="боковые_стороны">
		<g id="Слой_8" class="st2">
		</g>
		<polygon class="st5" points="119,148.7 197.2,197.5 198.6,287.5 118.5,240.5 		"/>
		<polygon class="st1" points="279.3,148.7 197.2,197.5 198.6,287.5 279.3,238.3 		"/>
	</g>
	<g id="тень_от_двери">
		<polygon points="255.1,361.9 307.3,392.6 369.7,355.9 317.5,325.3 		"/>
	</g>
	<g id="дверь">
		<polygon class="st6" points="317.5,325.3 317.2,263.1 255.1,299.6 255.1,361.9 		"/>
	</g>
</g>
<g id="Слой_7" class="st2">
	<line class="st7" x1="198.6" y1="287.5" x2="200" y2="394.3"/>
	<line class="st7" x1="34.6" y1="102.6" x2="119.3" y2="149.1"/>
	<line class="st7" x1="279.3" y1="148.7" x2="365.4" y2="102.9"/>
	<line class="st8" x1="197.3" y1="196.9" x2="198.6" y2="287.5"/>
	<line class="st8" x1="119.3" y1="149.4" x2="196.9" y2="197.2"/>
	<line class="st8" x1="196.9" y1="197.2" x2="279.3" y2="148.7"/>
</g>
</svg>
