      <svg version="1.1" xmlns="http://www.w3.org/2000/svg" xmlns:xlink="http://www.w3.org/1999/xlink" x="0px" y="0px" width="502px"
              height="461px" viewBox="0 0 502 461" style="enable-background:new 0 0 502 461;" xml:space="preserve">
<path d="M181.746 138L17.079 132.913L0 10.5781L201 0L181.746 138Z" fill="#26B481"/>
<path d="M37.9438 35.8524C85.636 23.9823 131.878 12.4352 175.784 1.37256L117.86 4.44102C90.953 11.0624 63.3206 17.8453 35.2047 24.8705C24.4096 27.5352 13.6949 30.1999 3.06085 32.8646L4.59151 44.0887C15.7089 41.424 26.7458 38.5978 37.9438 35.8524Z" fill="#5CD2A8"/>
<path d="M46.5643 8.07471L0 10.4972L1.20842 19.3795C10.4729 17.0378 19.818 14.7769 29.1631 12.4351C35.0441 10.9817 40.8445 9.52819 46.5643 8.07471Z" fill="#5CD2A8"/>
<path d="M186.902 101.017L188.513 89.2275C150.408 98.5944 110.852 108.446 70.1689 118.539C52.2038 122.981 34.3997 127.422 16.918 131.863L17.0791 132.993L54.54 134.124C60.6627 132.59 66.7853 131.056 72.908 129.521C112.061 119.751 150.166 110.222 186.902 101.017Z" fill="#5CD2A8"/>
<path d="M145.816 136.869C158.384 133.72 170.871 130.571 183.196 127.502L184.808 115.632C158.625 122.092 131.718 128.714 104.327 135.577L145.816 136.869Z" fill="#5CD2A8"/>
<path d="M64.2076 106.104C107.791 95.2836 150.166 84.6247 190.608 74.4503L192.219 62.7417C150.408 73.0776 106.583 83.8979 61.4685 95.1221C45.2757 99.1595 29.3246 103.116 13.4541 107.073L14.9848 118.297C31.2581 114.26 47.612 110.222 64.2076 106.104Z" fill="#5CD2A8"/>
<path d="M55.4257 82.687C103.521 70.7362 150.085 59.0275 194.313 47.8842L195.924 36.2563C150.327 47.4805 102.312 59.3505 52.6867 71.7051C38.3468 75.2581 24.0875 78.811 9.98926 82.364L11.5199 93.5881C26.0209 89.9544 40.683 86.3207 55.4257 82.687Z" fill="#5CD2A8"/>
<path d="M46.7259 59.2696C99.3323 46.1883 150.086 33.43 198.02 21.3176L199.631 9.77051C150.408 21.8829 98.1239 34.8027 43.9868 48.2878C31.4193 51.437 18.9323 54.5054 6.60645 57.6547L8.13711 68.8788C20.8658 65.7295 33.7555 62.4996 46.7259 59.2696Z" fill="#5CD2A8"/>
<path d="M102.089 17.3395L106.012 11.2443L103.531 18.5834L108.493 9.25404L99.1891 16.7176L102.089 8.40028L99.1891 21.6932L103.531 1.79053L97.3283 11.7419L103.531 7.38816L101.67 8.01012L102.29 3.65641C81.4249 14.396 92.4045 51.4368 92.4045 51.4368L90.471 135.254L110.209 135.819L118.184 62.1764C120.897 33.5105 124.619 5.52228 124.619 5.52228L102.089 17.3395Z" fill="#1C8B63"/>
<path opacity="0.15" d="M162.975 96.8988L38.7499 97.5448L0 10.5781L17.079 132.913L181.746 138L201 0L162.975 96.8988Z" fill="black"/>
<path opacity="0.05" d="M167.648 121.204L31.58 116.844L0 10.5781L17.079 132.913L181.746 138L201 0L167.648 121.204Z" fill="black"/>
<path opacity="0.05" d="M175.945 130.248L21.5098 128.229L0 10.5781L17.079 132.913L181.746 138L201 0L175.945 130.248Z" fill="#1C8B63"/>
<path d="M117.175 3.65674H115.314H113.454H111.593H109.307H106.631H102.91H99.8084H95.4668H94.2263H92.3656H90.5049C88.0049 18.5723 88.0049 45.4617 88.0049 45.4617L90.5508 135.255L110.288 135.901L113.188 57.0088C114.155 31.5729 120.276 3.65674 120.276 3.65674H117.175Z" fill="#FF6F68"/>
<path d="M117.175 8.63232H115.314H113.188L112.213 13.608C110.972 21.0715 110.53 38.6787 109.966 52.2445L106.905 131.136L90.3896 130.571L90.5508 135.174L110.288 135.82L113.188 56.9279C114.155 31.492 119.036 8.63232 119.036 8.63232H117.175Z" fill="#D6352C"/>
</svg>
