<svg width="50" height="50" viewBox="0 0 50 50" fill="none" xmlns="http://www.w3.org/2000/svg">
<circle cx="25" cy="26" r="24" fill="#1F2470"/>
<circle cx="23.5" cy="24.5" r="17.5" fill="white"/>
<path d="M7.74044 7.74036L7.74046 7.74035C16.7282 -1.24745 31.2732 -1.24612 40.2596 7.74035L40.9667 7.03325L40.2596 7.74036C49.2475 16.7281 49.2461 31.2733 40.2596 40.2596L40.9667 40.9668L40.2596 40.2597C31.2719 49.2474 16.7269 49.2461 7.74045 40.2596L7.03334 40.9668L7.74044 40.2596C-1.24752 31.2719 -1.24611 16.7267 7.74044 7.74036ZM22.9656 16.9589H27.0023C28.1232 16.9589 29.0367 17.8725 29.0367 18.9935C29.0367 20.1144 28.1231 21.028 27.0023 21.028H22.9656V16.9589ZM22.9665 26.9708H27.0032C31.4022 26.9708 34.9794 23.3936 34.9794 18.9945C34.9794 14.5955 31.4021 11.0182 27.0032 11.0182H19.9956C18.3548 11.0182 17.0247 12.3484 17.0247 13.9891V21.0291H15.9913C14.3506 21.0291 13.0205 22.3592 13.0205 24C13.0205 25.6407 14.3506 26.9708 15.9913 26.9708H17.0247V27.0356H15.9913C14.3506 27.0356 13.0205 28.3657 13.0205 30.0064C13.0205 31.6472 14.3506 32.9773 15.9913 32.9773H17.0247V34.0108C17.0247 35.6516 18.3548 36.9817 19.9956 36.9817C21.6364 36.9817 22.9665 35.6516 22.9665 34.0108V32.9773H26.0021C27.6428 32.9773 28.9729 31.6472 28.9729 30.0064C28.9729 28.3657 27.6428 27.0356 26.0021 27.0356H22.9665V26.9708Z" fill="#424BD5" stroke="#282D8A" stroke-width="2"/>
</svg>
